%TF.GenerationSoftware,KiCad,Pcbnew,(5.1.10)-1*%
%TF.CreationDate,2021-10-23T19:43:19+02:00*%
%TF.ProjectId,xfm2,78666d32-2e6b-4696-9361-645f70636258,rev?*%
%TF.SameCoordinates,Original*%
%TF.FileFunction,Legend,Top*%
%TF.FilePolarity,Positive*%
%FSLAX46Y46*%
G04 Gerber Fmt 4.6, Leading zero omitted, Abs format (unit mm)*
G04 Created by KiCad (PCBNEW (5.1.10)-1) date 2021-10-23 19:43:19*
%MOMM*%
%LPD*%
G01*
G04 APERTURE LIST*
%ADD10C,0.120000*%
%ADD11C,0.150000*%
%ADD12C,0.300000*%
%ADD13C,0.050000*%
%ADD14C,0.100000*%
%ADD15C,0.304800*%
%ADD16C,0.200000*%
%ADD17C,0.254000*%
G04 APERTURE END LIST*
D10*
X226314000Y-89535000D02*
X226314000Y-90678000D01*
X221234000Y-89535000D02*
X226314000Y-89535000D01*
X221234000Y-90678000D02*
X221234000Y-89535000D01*
X220091000Y-110363000D02*
X220091000Y-110617000D01*
X220091000Y-109347000D02*
X220091000Y-108839000D01*
X219329000Y-109347000D02*
X220853000Y-109347000D01*
X220091000Y-109347000D02*
X219329000Y-110363000D01*
X220853000Y-110363000D02*
X220091000Y-109347000D01*
X219329000Y-110363000D02*
X220853000Y-110363000D01*
X163703000Y-130175000D02*
X163703000Y-130429000D01*
X163703000Y-129413000D02*
X163703000Y-129159000D01*
X163703000Y-130175000D02*
X163576000Y-130175000D01*
X164211000Y-129413000D02*
X163703000Y-130175000D01*
X163195000Y-129413000D02*
X164211000Y-129413000D01*
X163703000Y-130175000D02*
X163195000Y-129413000D01*
X163195000Y-130175000D02*
X164338000Y-130175000D01*
D11*
X229989095Y-124150380D02*
X229989095Y-123150380D01*
X230560523Y-124150380D02*
X230131952Y-123578952D01*
X230560523Y-123150380D02*
X229989095Y-123721809D01*
X214749095Y-124023380D02*
X214749095Y-123023380D01*
X215320523Y-124023380D02*
X214891952Y-123451952D01*
X215320523Y-123023380D02*
X214749095Y-123594809D01*
X61714095Y-116657380D02*
X61714095Y-115657380D01*
X62285523Y-116657380D02*
X61856952Y-116085952D01*
X62285523Y-115657380D02*
X61714095Y-116228809D01*
X61714095Y-110942380D02*
X61714095Y-109942380D01*
X62285523Y-110942380D02*
X61856952Y-110370952D01*
X62285523Y-109942380D02*
X61714095Y-110513809D01*
X61714095Y-105227380D02*
X61714095Y-104227380D01*
X62285523Y-105227380D02*
X61856952Y-104655952D01*
X62285523Y-104227380D02*
X61714095Y-104798809D01*
X61714095Y-99639380D02*
X61714095Y-98639380D01*
X62285523Y-99639380D02*
X61856952Y-99067952D01*
X62285523Y-98639380D02*
X61714095Y-99210809D01*
X61714095Y-93924380D02*
X61714095Y-92924380D01*
X62285523Y-93924380D02*
X61856952Y-93352952D01*
X62285523Y-92924380D02*
X61714095Y-93495809D01*
X220757714Y-97734380D02*
X220186285Y-97734380D01*
X220472000Y-97734380D02*
X220472000Y-96734380D01*
X220376761Y-96877238D01*
X220281523Y-96972476D01*
X220186285Y-97020095D01*
X197008714Y-124531380D02*
X196437285Y-124531380D01*
X196723000Y-124531380D02*
X196723000Y-123531380D01*
X196627761Y-123674238D01*
X196532523Y-123769476D01*
X196437285Y-123817095D01*
D10*
X226060000Y-133096000D02*
X226060000Y-132588000D01*
X226060000Y-131064000D02*
X226060000Y-131445000D01*
X225298000Y-131445000D02*
X226822000Y-131445000D01*
X226060000Y-131445000D02*
X225298000Y-132588000D01*
X226822000Y-132588000D02*
X226060000Y-131445000D01*
X225298000Y-132588000D02*
X226822000Y-132588000D01*
X233680000Y-131064000D02*
X233680000Y-131445000D01*
X232918000Y-131445000D02*
X234442000Y-131445000D01*
X234442000Y-132588000D02*
X233680000Y-132588000D01*
X233680000Y-131445000D02*
X234442000Y-132588000D01*
X232918000Y-132588000D02*
X233680000Y-131445000D01*
X233680000Y-132588000D02*
X232918000Y-132588000D01*
X233680000Y-133096000D02*
X233680000Y-132588000D01*
X232664000Y-99441000D02*
X232664000Y-99822000D01*
X233426000Y-99822000D02*
X232664000Y-99822000D01*
X231902000Y-99822000D02*
X233426000Y-99822000D01*
X233426000Y-100965000D02*
X232664000Y-100965000D01*
X232664000Y-99822000D02*
X233426000Y-100965000D01*
X231902000Y-100965000D02*
X232664000Y-99822000D01*
X232664000Y-100965000D02*
X231902000Y-100965000D01*
X232664000Y-101473000D02*
X232664000Y-100965000D01*
D11*
X91090714Y-105862380D02*
X90519285Y-105862380D01*
X90805000Y-105862380D02*
X90805000Y-104862380D01*
X90709761Y-105005238D01*
X90614523Y-105100476D01*
X90519285Y-105148095D01*
X62539809Y-92019380D02*
X62539809Y-91019380D01*
X62920761Y-91019380D01*
X63016000Y-91067000D01*
X63063619Y-91114619D01*
X63111238Y-91209857D01*
X63111238Y-91352714D01*
X63063619Y-91447952D01*
X63016000Y-91495571D01*
X62920761Y-91543190D01*
X62539809Y-91543190D01*
X63682666Y-92019380D02*
X63587428Y-91971761D01*
X63539809Y-91924142D01*
X63492190Y-91828904D01*
X63492190Y-91543190D01*
X63539809Y-91447952D01*
X63587428Y-91400333D01*
X63682666Y-91352714D01*
X63825523Y-91352714D01*
X63920761Y-91400333D01*
X63968380Y-91447952D01*
X64016000Y-91543190D01*
X64016000Y-91828904D01*
X63968380Y-91924142D01*
X63920761Y-91971761D01*
X63825523Y-92019380D01*
X63682666Y-92019380D01*
X64349333Y-91352714D02*
X64539809Y-92019380D01*
X64730285Y-91543190D01*
X64920761Y-92019380D01*
X65111238Y-91352714D01*
X65873142Y-91971761D02*
X65777904Y-92019380D01*
X65587428Y-92019380D01*
X65492190Y-91971761D01*
X65444571Y-91876523D01*
X65444571Y-91495571D01*
X65492190Y-91400333D01*
X65587428Y-91352714D01*
X65777904Y-91352714D01*
X65873142Y-91400333D01*
X65920761Y-91495571D01*
X65920761Y-91590809D01*
X65444571Y-91686047D01*
X66349333Y-92019380D02*
X66349333Y-91352714D01*
X66349333Y-91543190D02*
X66396952Y-91447952D01*
X66444571Y-91400333D01*
X66539809Y-91352714D01*
X66635047Y-91352714D01*
D12*
X224949428Y-139108571D02*
X224949428Y-137608571D01*
X225306571Y-137608571D01*
X225520857Y-137680000D01*
X225663714Y-137822857D01*
X225735142Y-137965714D01*
X225806571Y-138251428D01*
X225806571Y-138465714D01*
X225735142Y-138751428D01*
X225663714Y-138894285D01*
X225520857Y-139037142D01*
X225306571Y-139108571D01*
X224949428Y-139108571D01*
X227306571Y-138965714D02*
X227235142Y-139037142D01*
X227020857Y-139108571D01*
X226878000Y-139108571D01*
X226663714Y-139037142D01*
X226520857Y-138894285D01*
X226449428Y-138751428D01*
X226378000Y-138465714D01*
X226378000Y-138251428D01*
X226449428Y-137965714D01*
X226520857Y-137822857D01*
X226663714Y-137680000D01*
X226878000Y-137608571D01*
X227020857Y-137608571D01*
X227235142Y-137680000D01*
X227306571Y-137751428D01*
X229163714Y-139108571D02*
X229449428Y-139108571D01*
X229592285Y-139037142D01*
X229663714Y-138965714D01*
X229806571Y-138751428D01*
X229878000Y-138465714D01*
X229878000Y-137894285D01*
X229806571Y-137751428D01*
X229735142Y-137680000D01*
X229592285Y-137608571D01*
X229306571Y-137608571D01*
X229163714Y-137680000D01*
X229092285Y-137751428D01*
X229020857Y-137894285D01*
X229020857Y-138251428D01*
X229092285Y-138394285D01*
X229163714Y-138465714D01*
X229306571Y-138537142D01*
X229592285Y-138537142D01*
X229735142Y-138465714D01*
X229806571Y-138394285D01*
X229878000Y-138251428D01*
X230520857Y-138537142D02*
X231663714Y-138537142D01*
X233163714Y-139108571D02*
X232306571Y-139108571D01*
X232735142Y-139108571D02*
X232735142Y-137608571D01*
X232592285Y-137822857D01*
X232449428Y-137965714D01*
X232306571Y-138037142D01*
X233663714Y-137608571D02*
X234592285Y-137608571D01*
X234092285Y-138180000D01*
X234306571Y-138180000D01*
X234449428Y-138251428D01*
X234520857Y-138322857D01*
X234592285Y-138465714D01*
X234592285Y-138822857D01*
X234520857Y-138965714D01*
X234449428Y-139037142D01*
X234306571Y-139108571D01*
X233878000Y-139108571D01*
X233735142Y-139037142D01*
X233663714Y-138965714D01*
X235020857Y-137608571D02*
X235520857Y-139108571D01*
X236020857Y-137608571D01*
X208221142Y-141577142D02*
X208435428Y-141648571D01*
X208792571Y-141648571D01*
X208935428Y-141577142D01*
X209006857Y-141505714D01*
X209078285Y-141362857D01*
X209078285Y-141220000D01*
X209006857Y-141077142D01*
X208935428Y-141005714D01*
X208792571Y-140934285D01*
X208506857Y-140862857D01*
X208364000Y-140791428D01*
X208292571Y-140720000D01*
X208221142Y-140577142D01*
X208221142Y-140434285D01*
X208292571Y-140291428D01*
X208364000Y-140220000D01*
X208506857Y-140148571D01*
X208864000Y-140148571D01*
X209078285Y-140220000D01*
X209721142Y-141648571D02*
X209721142Y-140148571D01*
X210292571Y-140148571D01*
X210435428Y-140220000D01*
X210506857Y-140291428D01*
X210578285Y-140434285D01*
X210578285Y-140648571D01*
X210506857Y-140791428D01*
X210435428Y-140862857D01*
X210292571Y-140934285D01*
X209721142Y-140934285D01*
X211221142Y-141648571D02*
X211221142Y-140148571D01*
X211578285Y-140148571D01*
X211792571Y-140220000D01*
X211935428Y-140362857D01*
X212006857Y-140505714D01*
X212078285Y-140791428D01*
X212078285Y-141005714D01*
X212006857Y-141291428D01*
X211935428Y-141434285D01*
X211792571Y-141577142D01*
X211578285Y-141648571D01*
X211221142Y-141648571D01*
X212721142Y-141648571D02*
X212721142Y-140148571D01*
X213935428Y-140862857D02*
X213435428Y-140862857D01*
X213435428Y-141648571D02*
X213435428Y-140148571D01*
X214149714Y-140148571D01*
X216149714Y-140148571D02*
X216435428Y-140148571D01*
X216578285Y-140220000D01*
X216721142Y-140362857D01*
X216792571Y-140648571D01*
X216792571Y-141148571D01*
X216721142Y-141434285D01*
X216578285Y-141577142D01*
X216435428Y-141648571D01*
X216149714Y-141648571D01*
X216006857Y-141577142D01*
X215864000Y-141434285D01*
X215792571Y-141148571D01*
X215792571Y-140648571D01*
X215864000Y-140362857D01*
X216006857Y-140220000D01*
X216149714Y-140148571D01*
X218078285Y-140648571D02*
X218078285Y-141648571D01*
X217435428Y-140648571D02*
X217435428Y-141434285D01*
X217506857Y-141577142D01*
X217649714Y-141648571D01*
X217864000Y-141648571D01*
X218006857Y-141577142D01*
X218078285Y-141505714D01*
X218578285Y-140648571D02*
X219149714Y-140648571D01*
X218792571Y-140148571D02*
X218792571Y-141434285D01*
X218864000Y-141577142D01*
X219006857Y-141648571D01*
X219149714Y-141648571D01*
X186349428Y-110994000D02*
X187063714Y-110994000D01*
X186206571Y-111422571D02*
X186706571Y-109922571D01*
X187206571Y-111422571D01*
X187706571Y-110422571D02*
X187706571Y-111422571D01*
X187706571Y-110565428D02*
X187778000Y-110494000D01*
X187920857Y-110422571D01*
X188135142Y-110422571D01*
X188278000Y-110494000D01*
X188349428Y-110636857D01*
X188349428Y-111422571D01*
X189706571Y-111422571D02*
X189706571Y-110636857D01*
X189635142Y-110494000D01*
X189492285Y-110422571D01*
X189206571Y-110422571D01*
X189063714Y-110494000D01*
X189706571Y-111351142D02*
X189563714Y-111422571D01*
X189206571Y-111422571D01*
X189063714Y-111351142D01*
X188992285Y-111208285D01*
X188992285Y-111065428D01*
X189063714Y-110922571D01*
X189206571Y-110851142D01*
X189563714Y-110851142D01*
X189706571Y-110779714D01*
X190635142Y-111422571D02*
X190492285Y-111351142D01*
X190420857Y-111208285D01*
X190420857Y-109922571D01*
X191420857Y-111422571D02*
X191278000Y-111351142D01*
X191206571Y-111279714D01*
X191135142Y-111136857D01*
X191135142Y-110708285D01*
X191206571Y-110565428D01*
X191278000Y-110494000D01*
X191420857Y-110422571D01*
X191635142Y-110422571D01*
X191778000Y-110494000D01*
X191849428Y-110565428D01*
X191920857Y-110708285D01*
X191920857Y-111136857D01*
X191849428Y-111279714D01*
X191778000Y-111351142D01*
X191635142Y-111422571D01*
X191420857Y-111422571D01*
X193206571Y-110422571D02*
X193206571Y-111636857D01*
X193135142Y-111779714D01*
X193063714Y-111851142D01*
X192920857Y-111922571D01*
X192706571Y-111922571D01*
X192563714Y-111851142D01*
X193206571Y-111351142D02*
X193063714Y-111422571D01*
X192778000Y-111422571D01*
X192635142Y-111351142D01*
X192563714Y-111279714D01*
X192492285Y-111136857D01*
X192492285Y-110708285D01*
X192563714Y-110565428D01*
X192635142Y-110494000D01*
X192778000Y-110422571D01*
X193063714Y-110422571D01*
X193206571Y-110494000D01*
X195349428Y-109922571D02*
X195635142Y-109922571D01*
X195778000Y-109994000D01*
X195920857Y-110136857D01*
X195992285Y-110422571D01*
X195992285Y-110922571D01*
X195920857Y-111208285D01*
X195778000Y-111351142D01*
X195635142Y-111422571D01*
X195349428Y-111422571D01*
X195206571Y-111351142D01*
X195063714Y-111208285D01*
X194992285Y-110922571D01*
X194992285Y-110422571D01*
X195063714Y-110136857D01*
X195206571Y-109994000D01*
X195349428Y-109922571D01*
X197278000Y-110422571D02*
X197278000Y-111422571D01*
X196635142Y-110422571D02*
X196635142Y-111208285D01*
X196706571Y-111351142D01*
X196849428Y-111422571D01*
X197063714Y-111422571D01*
X197206571Y-111351142D01*
X197278000Y-111279714D01*
X197778000Y-110422571D02*
X198349428Y-110422571D01*
X197992285Y-109922571D02*
X197992285Y-111208285D01*
X198063714Y-111351142D01*
X198206571Y-111422571D01*
X198349428Y-111422571D01*
D11*
X238514380Y-91503428D02*
X238038190Y-91836761D01*
X238514380Y-92074857D02*
X237514380Y-92074857D01*
X237514380Y-91693904D01*
X237562000Y-91598666D01*
X237609619Y-91551047D01*
X237704857Y-91503428D01*
X237847714Y-91503428D01*
X237942952Y-91551047D01*
X237990571Y-91598666D01*
X238038190Y-91693904D01*
X238038190Y-92074857D01*
X238466761Y-90693904D02*
X238514380Y-90789142D01*
X238514380Y-90979619D01*
X238466761Y-91074857D01*
X238371523Y-91122476D01*
X237990571Y-91122476D01*
X237895333Y-91074857D01*
X237847714Y-90979619D01*
X237847714Y-90789142D01*
X237895333Y-90693904D01*
X237990571Y-90646285D01*
X238085809Y-90646285D01*
X238181047Y-91122476D01*
X238514380Y-89789142D02*
X237514380Y-89789142D01*
X238466761Y-89789142D02*
X238514380Y-89884380D01*
X238514380Y-90074857D01*
X238466761Y-90170095D01*
X238419142Y-90217714D01*
X238323904Y-90265333D01*
X238038190Y-90265333D01*
X237942952Y-90217714D01*
X237895333Y-90170095D01*
X237847714Y-90074857D01*
X237847714Y-89884380D01*
X237895333Y-89789142D01*
X240116761Y-92265333D02*
X240164380Y-92122476D01*
X240164380Y-91884380D01*
X240116761Y-91789142D01*
X240069142Y-91741523D01*
X239973904Y-91693904D01*
X239878666Y-91693904D01*
X239783428Y-91741523D01*
X239735809Y-91789142D01*
X239688190Y-91884380D01*
X239640571Y-92074857D01*
X239592952Y-92170095D01*
X239545333Y-92217714D01*
X239450095Y-92265333D01*
X239354857Y-92265333D01*
X239259619Y-92217714D01*
X239212000Y-92170095D01*
X239164380Y-92074857D01*
X239164380Y-91836761D01*
X239212000Y-91693904D01*
X239497714Y-91408190D02*
X239497714Y-91027238D01*
X239164380Y-91265333D02*
X240021523Y-91265333D01*
X240116761Y-91217714D01*
X240164380Y-91122476D01*
X240164380Y-91027238D01*
X240164380Y-90693904D02*
X239497714Y-90693904D01*
X239688190Y-90693904D02*
X239592952Y-90646285D01*
X239545333Y-90598666D01*
X239497714Y-90503428D01*
X239497714Y-90408190D01*
X239497714Y-90074857D02*
X240497714Y-90074857D01*
X239545333Y-90074857D02*
X239497714Y-89979619D01*
X239497714Y-89789142D01*
X239545333Y-89693904D01*
X239592952Y-89646285D01*
X239688190Y-89598666D01*
X239973904Y-89598666D01*
X240069142Y-89646285D01*
X240116761Y-89693904D01*
X240164380Y-89789142D01*
X240164380Y-89979619D01*
X240116761Y-90074857D01*
D13*
X183868190Y-91297142D02*
X183868190Y-91582857D01*
X183868190Y-91440000D02*
X183368190Y-91440000D01*
X183439619Y-91487619D01*
X183487238Y-91535238D01*
X183511047Y-91582857D01*
X184122190Y-122793142D02*
X184122190Y-123078857D01*
X184122190Y-122936000D02*
X183622190Y-122936000D01*
X183693619Y-122983619D01*
X183741238Y-123031238D01*
X183765047Y-123078857D01*
D11*
X170719714Y-126182380D02*
X170148285Y-126182380D01*
X170434000Y-126182380D02*
X170434000Y-125182380D01*
X170338761Y-125325238D01*
X170243523Y-125420476D01*
X170148285Y-125468095D01*
X77882714Y-104084380D02*
X77311285Y-104084380D01*
X77597000Y-104084380D02*
X77597000Y-103084380D01*
X77501761Y-103227238D01*
X77406523Y-103322476D01*
X77311285Y-103370095D01*
X83470714Y-124531380D02*
X82899285Y-124531380D01*
X83185000Y-124531380D02*
X83185000Y-123531380D01*
X83089761Y-123674238D01*
X82994523Y-123769476D01*
X82899285Y-123817095D01*
X135667714Y-114371380D02*
X135096285Y-114371380D01*
X135382000Y-114371380D02*
X135382000Y-113371380D01*
X135286761Y-113514238D01*
X135191523Y-113609476D01*
X135096285Y-113657095D01*
D12*
X162362000Y-134790571D02*
X162362000Y-133290571D01*
X162862000Y-134362000D01*
X163362000Y-133290571D01*
X163362000Y-134790571D01*
X164076285Y-134790571D02*
X164076285Y-133790571D01*
X164076285Y-133290571D02*
X164004857Y-133362000D01*
X164076285Y-133433428D01*
X164147714Y-133362000D01*
X164076285Y-133290571D01*
X164076285Y-133433428D01*
X165433428Y-134790571D02*
X165433428Y-133290571D01*
X165433428Y-134719142D02*
X165290571Y-134790571D01*
X165004857Y-134790571D01*
X164862000Y-134719142D01*
X164790571Y-134647714D01*
X164719142Y-134504857D01*
X164719142Y-134076285D01*
X164790571Y-133933428D01*
X164862000Y-133862000D01*
X165004857Y-133790571D01*
X165290571Y-133790571D01*
X165433428Y-133862000D01*
X166147714Y-134790571D02*
X166147714Y-133790571D01*
X166147714Y-133290571D02*
X166076285Y-133362000D01*
X166147714Y-133433428D01*
X166219142Y-133362000D01*
X166147714Y-133290571D01*
X166147714Y-133433428D01*
X168004857Y-134790571D02*
X168004857Y-133290571D01*
X168719142Y-133790571D02*
X168719142Y-134790571D01*
X168719142Y-133933428D02*
X168790571Y-133862000D01*
X168933428Y-133790571D01*
X169147714Y-133790571D01*
X169290571Y-133862000D01*
X169362000Y-134004857D01*
X169362000Y-134790571D01*
X138390857Y-134282571D02*
X138390857Y-132782571D01*
X138890857Y-133854000D01*
X139390857Y-132782571D01*
X139390857Y-134282571D01*
X140105142Y-134282571D02*
X140105142Y-133282571D01*
X140105142Y-132782571D02*
X140033714Y-132854000D01*
X140105142Y-132925428D01*
X140176571Y-132854000D01*
X140105142Y-132782571D01*
X140105142Y-132925428D01*
X141462285Y-134282571D02*
X141462285Y-132782571D01*
X141462285Y-134211142D02*
X141319428Y-134282571D01*
X141033714Y-134282571D01*
X140890857Y-134211142D01*
X140819428Y-134139714D01*
X140748000Y-133996857D01*
X140748000Y-133568285D01*
X140819428Y-133425428D01*
X140890857Y-133354000D01*
X141033714Y-133282571D01*
X141319428Y-133282571D01*
X141462285Y-133354000D01*
X142176571Y-134282571D02*
X142176571Y-133282571D01*
X142176571Y-132782571D02*
X142105142Y-132854000D01*
X142176571Y-132925428D01*
X142248000Y-132854000D01*
X142176571Y-132782571D01*
X142176571Y-132925428D01*
X144319428Y-132782571D02*
X144605142Y-132782571D01*
X144748000Y-132854000D01*
X144890857Y-132996857D01*
X144962285Y-133282571D01*
X144962285Y-133782571D01*
X144890857Y-134068285D01*
X144748000Y-134211142D01*
X144605142Y-134282571D01*
X144319428Y-134282571D01*
X144176571Y-134211142D01*
X144033714Y-134068285D01*
X143962285Y-133782571D01*
X143962285Y-133282571D01*
X144033714Y-132996857D01*
X144176571Y-132854000D01*
X144319428Y-132782571D01*
X146248000Y-133282571D02*
X146248000Y-134282571D01*
X145605142Y-133282571D02*
X145605142Y-134068285D01*
X145676571Y-134211142D01*
X145819428Y-134282571D01*
X146033714Y-134282571D01*
X146176571Y-134211142D01*
X146248000Y-134139714D01*
X146748000Y-133282571D02*
X147319428Y-133282571D01*
X146962285Y-132782571D02*
X146962285Y-134068285D01*
X147033714Y-134211142D01*
X147176571Y-134282571D01*
X147319428Y-134282571D01*
X115030857Y-134282571D02*
X115030857Y-132782571D01*
X115530857Y-133854000D01*
X116030857Y-132782571D01*
X116030857Y-134282571D01*
X116745142Y-134282571D02*
X116745142Y-133282571D01*
X116745142Y-132782571D02*
X116673714Y-132854000D01*
X116745142Y-132925428D01*
X116816571Y-132854000D01*
X116745142Y-132782571D01*
X116745142Y-132925428D01*
X118102285Y-134282571D02*
X118102285Y-132782571D01*
X118102285Y-134211142D02*
X117959428Y-134282571D01*
X117673714Y-134282571D01*
X117530857Y-134211142D01*
X117459428Y-134139714D01*
X117388000Y-133996857D01*
X117388000Y-133568285D01*
X117459428Y-133425428D01*
X117530857Y-133354000D01*
X117673714Y-133282571D01*
X117959428Y-133282571D01*
X118102285Y-133354000D01*
X118816571Y-134282571D02*
X118816571Y-133282571D01*
X118816571Y-132782571D02*
X118745142Y-132854000D01*
X118816571Y-132925428D01*
X118888000Y-132854000D01*
X118816571Y-132782571D01*
X118816571Y-132925428D01*
X120459428Y-132782571D02*
X121316571Y-132782571D01*
X120888000Y-134282571D02*
X120888000Y-132782571D01*
X121816571Y-134282571D02*
X121816571Y-132782571D01*
X122459428Y-134282571D02*
X122459428Y-133496857D01*
X122388000Y-133354000D01*
X122245142Y-133282571D01*
X122030857Y-133282571D01*
X121888000Y-133354000D01*
X121816571Y-133425428D01*
X123173714Y-134282571D02*
X123173714Y-133282571D01*
X123173714Y-133568285D02*
X123245142Y-133425428D01*
X123316571Y-133354000D01*
X123459428Y-133282571D01*
X123602285Y-133282571D01*
X124745142Y-133282571D02*
X124745142Y-134282571D01*
X124102285Y-133282571D02*
X124102285Y-134068285D01*
X124173714Y-134211142D01*
X124316571Y-134282571D01*
X124530857Y-134282571D01*
X124673714Y-134211142D01*
X124745142Y-134139714D01*
D11*
X215464380Y-93130666D02*
X215940571Y-93130666D01*
X215369142Y-93416380D02*
X215702476Y-92416380D01*
X216035809Y-93416380D01*
X216892952Y-93416380D02*
X216321523Y-93416380D01*
X216607238Y-93416380D02*
X216607238Y-92416380D01*
X216512000Y-92559238D01*
X216416761Y-92654476D01*
X216321523Y-92702095D01*
X217512000Y-92416380D02*
X217607238Y-92416380D01*
X217702476Y-92464000D01*
X217750095Y-92511619D01*
X217797714Y-92606857D01*
X217845333Y-92797333D01*
X217845333Y-93035428D01*
X217797714Y-93225904D01*
X217750095Y-93321142D01*
X217702476Y-93368761D01*
X217607238Y-93416380D01*
X217512000Y-93416380D01*
X217416761Y-93368761D01*
X217369142Y-93321142D01*
X217321523Y-93225904D01*
X217273904Y-93035428D01*
X217273904Y-92797333D01*
X217321523Y-92606857D01*
X217369142Y-92511619D01*
X217416761Y-92464000D01*
X217512000Y-92416380D01*
X218464380Y-92416380D02*
X218559619Y-92416380D01*
X218654857Y-92464000D01*
X218702476Y-92511619D01*
X218750095Y-92606857D01*
X218797714Y-92797333D01*
X218797714Y-93035428D01*
X218750095Y-93225904D01*
X218702476Y-93321142D01*
X218654857Y-93368761D01*
X218559619Y-93416380D01*
X218464380Y-93416380D01*
X218369142Y-93368761D01*
X218321523Y-93321142D01*
X218273904Y-93225904D01*
X218226285Y-93035428D01*
X218226285Y-92797333D01*
X218273904Y-92606857D01*
X218321523Y-92511619D01*
X218369142Y-92464000D01*
X218464380Y-92416380D01*
X220321523Y-92892571D02*
X220464380Y-92940190D01*
X220512000Y-92987809D01*
X220559619Y-93083047D01*
X220559619Y-93225904D01*
X220512000Y-93321142D01*
X220464380Y-93368761D01*
X220369142Y-93416380D01*
X219988190Y-93416380D01*
X219988190Y-92416380D01*
X220321523Y-92416380D01*
X220416761Y-92464000D01*
X220464380Y-92511619D01*
X220512000Y-92606857D01*
X220512000Y-92702095D01*
X220464380Y-92797333D01*
X220416761Y-92844952D01*
X220321523Y-92892571D01*
X219988190Y-92892571D01*
X221416761Y-92749714D02*
X221416761Y-93416380D01*
X220988190Y-92749714D02*
X220988190Y-93273523D01*
X221035809Y-93368761D01*
X221131047Y-93416380D01*
X221273904Y-93416380D01*
X221369142Y-93368761D01*
X221416761Y-93321142D01*
X221845333Y-93368761D02*
X221940571Y-93416380D01*
X222131047Y-93416380D01*
X222226285Y-93368761D01*
X222273904Y-93273523D01*
X222273904Y-93225904D01*
X222226285Y-93130666D01*
X222131047Y-93083047D01*
X221988190Y-93083047D01*
X221892952Y-93035428D01*
X221845333Y-92940190D01*
X221845333Y-92892571D01*
X221892952Y-92797333D01*
X221988190Y-92749714D01*
X222131047Y-92749714D01*
X222226285Y-92797333D01*
X224035809Y-93321142D02*
X223988190Y-93368761D01*
X223845333Y-93416380D01*
X223750095Y-93416380D01*
X223607238Y-93368761D01*
X223512000Y-93273523D01*
X223464380Y-93178285D01*
X223416761Y-92987809D01*
X223416761Y-92844952D01*
X223464380Y-92654476D01*
X223512000Y-92559238D01*
X223607238Y-92464000D01*
X223750095Y-92416380D01*
X223845333Y-92416380D01*
X223988190Y-92464000D01*
X224035809Y-92511619D01*
X224607238Y-93416380D02*
X224512000Y-93368761D01*
X224464380Y-93321142D01*
X224416761Y-93225904D01*
X224416761Y-92940190D01*
X224464380Y-92844952D01*
X224512000Y-92797333D01*
X224607238Y-92749714D01*
X224750095Y-92749714D01*
X224845333Y-92797333D01*
X224892952Y-92844952D01*
X224940571Y-92940190D01*
X224940571Y-93225904D01*
X224892952Y-93321142D01*
X224845333Y-93368761D01*
X224750095Y-93416380D01*
X224607238Y-93416380D01*
X225369142Y-92749714D02*
X225369142Y-93416380D01*
X225369142Y-92844952D02*
X225416761Y-92797333D01*
X225512000Y-92749714D01*
X225654857Y-92749714D01*
X225750095Y-92797333D01*
X225797714Y-92892571D01*
X225797714Y-93416380D01*
X226273904Y-92749714D02*
X226273904Y-93416380D01*
X226273904Y-92844952D02*
X226321523Y-92797333D01*
X226416761Y-92749714D01*
X226559619Y-92749714D01*
X226654857Y-92797333D01*
X226702476Y-92892571D01*
X226702476Y-93416380D01*
X227559619Y-93368761D02*
X227464380Y-93416380D01*
X227273904Y-93416380D01*
X227178666Y-93368761D01*
X227131047Y-93273523D01*
X227131047Y-92892571D01*
X227178666Y-92797333D01*
X227273904Y-92749714D01*
X227464380Y-92749714D01*
X227559619Y-92797333D01*
X227607238Y-92892571D01*
X227607238Y-92987809D01*
X227131047Y-93083047D01*
X228464380Y-93368761D02*
X228369142Y-93416380D01*
X228178666Y-93416380D01*
X228083428Y-93368761D01*
X228035809Y-93321142D01*
X227988190Y-93225904D01*
X227988190Y-92940190D01*
X228035809Y-92844952D01*
X228083428Y-92797333D01*
X228178666Y-92749714D01*
X228369142Y-92749714D01*
X228464380Y-92797333D01*
X228750095Y-92749714D02*
X229131047Y-92749714D01*
X228892952Y-92416380D02*
X228892952Y-93273523D01*
X228940571Y-93368761D01*
X229035809Y-93416380D01*
X229131047Y-93416380D01*
X229607238Y-93416380D02*
X229512000Y-93368761D01*
X229464380Y-93321142D01*
X229416761Y-93225904D01*
X229416761Y-92940190D01*
X229464380Y-92844952D01*
X229512000Y-92797333D01*
X229607238Y-92749714D01*
X229750095Y-92749714D01*
X229845333Y-92797333D01*
X229892952Y-92844952D01*
X229940571Y-92940190D01*
X229940571Y-93225904D01*
X229892952Y-93321142D01*
X229845333Y-93368761D01*
X229750095Y-93416380D01*
X229607238Y-93416380D01*
X230369142Y-93416380D02*
X230369142Y-92749714D01*
X230369142Y-92940190D02*
X230416761Y-92844952D01*
X230464380Y-92797333D01*
X230559619Y-92749714D01*
X230654857Y-92749714D01*
X191468952Y-93670380D02*
X191468952Y-92670380D01*
X191849904Y-92670380D01*
X191945142Y-92718000D01*
X191992761Y-92765619D01*
X192040380Y-92860857D01*
X192040380Y-93003714D01*
X191992761Y-93098952D01*
X191945142Y-93146571D01*
X191849904Y-93194190D01*
X191468952Y-93194190D01*
X192468952Y-93670380D02*
X192468952Y-93003714D01*
X192468952Y-92670380D02*
X192421333Y-92718000D01*
X192468952Y-92765619D01*
X192516571Y-92718000D01*
X192468952Y-92670380D01*
X192468952Y-92765619D01*
X192945142Y-93003714D02*
X192945142Y-93670380D01*
X192945142Y-93098952D02*
X192992761Y-93051333D01*
X193088000Y-93003714D01*
X193230857Y-93003714D01*
X193326095Y-93051333D01*
X193373714Y-93146571D01*
X193373714Y-93670380D01*
X194945142Y-93146571D02*
X195088000Y-93194190D01*
X195135619Y-93241809D01*
X195183238Y-93337047D01*
X195183238Y-93479904D01*
X195135619Y-93575142D01*
X195088000Y-93622761D01*
X194992761Y-93670380D01*
X194611809Y-93670380D01*
X194611809Y-92670380D01*
X194945142Y-92670380D01*
X195040380Y-92718000D01*
X195088000Y-92765619D01*
X195135619Y-92860857D01*
X195135619Y-92956095D01*
X195088000Y-93051333D01*
X195040380Y-93098952D01*
X194945142Y-93146571D01*
X194611809Y-93146571D01*
X195611809Y-93670380D02*
X195611809Y-93003714D01*
X195611809Y-93194190D02*
X195659428Y-93098952D01*
X195707047Y-93051333D01*
X195802285Y-93003714D01*
X195897523Y-93003714D01*
X196611809Y-93622761D02*
X196516571Y-93670380D01*
X196326095Y-93670380D01*
X196230857Y-93622761D01*
X196183238Y-93527523D01*
X196183238Y-93146571D01*
X196230857Y-93051333D01*
X196326095Y-93003714D01*
X196516571Y-93003714D01*
X196611809Y-93051333D01*
X196659428Y-93146571D01*
X196659428Y-93241809D01*
X196183238Y-93337047D01*
X197516571Y-93670380D02*
X197516571Y-93146571D01*
X197468952Y-93051333D01*
X197373714Y-93003714D01*
X197183238Y-93003714D01*
X197088000Y-93051333D01*
X197516571Y-93622761D02*
X197421333Y-93670380D01*
X197183238Y-93670380D01*
X197088000Y-93622761D01*
X197040380Y-93527523D01*
X197040380Y-93432285D01*
X197088000Y-93337047D01*
X197183238Y-93289428D01*
X197421333Y-93289428D01*
X197516571Y-93241809D01*
X197992761Y-93670380D02*
X197992761Y-92670380D01*
X198088000Y-93289428D02*
X198373714Y-93670380D01*
X198373714Y-93003714D02*
X197992761Y-93384666D01*
X198945142Y-93670380D02*
X198849904Y-93622761D01*
X198802285Y-93575142D01*
X198754666Y-93479904D01*
X198754666Y-93194190D01*
X198802285Y-93098952D01*
X198849904Y-93051333D01*
X198945142Y-93003714D01*
X199088000Y-93003714D01*
X199183238Y-93051333D01*
X199230857Y-93098952D01*
X199278476Y-93194190D01*
X199278476Y-93479904D01*
X199230857Y-93575142D01*
X199183238Y-93622761D01*
X199088000Y-93670380D01*
X198945142Y-93670380D01*
X200135619Y-93003714D02*
X200135619Y-93670380D01*
X199707047Y-93003714D02*
X199707047Y-93527523D01*
X199754666Y-93622761D01*
X199849904Y-93670380D01*
X199992761Y-93670380D01*
X200088000Y-93622761D01*
X200135619Y-93575142D01*
X200468952Y-93003714D02*
X200849904Y-93003714D01*
X200611809Y-92670380D02*
X200611809Y-93527523D01*
X200659428Y-93622761D01*
X200754666Y-93670380D01*
X200849904Y-93670380D01*
D12*
X76831142Y-129313714D02*
X76759714Y-129385142D01*
X76545428Y-129456571D01*
X76402571Y-129456571D01*
X76188285Y-129385142D01*
X76045428Y-129242285D01*
X75974000Y-129099428D01*
X75902571Y-128813714D01*
X75902571Y-128599428D01*
X75974000Y-128313714D01*
X76045428Y-128170857D01*
X76188285Y-128028000D01*
X76402571Y-127956571D01*
X76545428Y-127956571D01*
X76759714Y-128028000D01*
X76831142Y-128099428D01*
X77259714Y-127956571D02*
X77759714Y-129456571D01*
X78259714Y-127956571D01*
X79545428Y-129456571D02*
X78688285Y-129456571D01*
X79116857Y-129456571D02*
X79116857Y-127956571D01*
X78974000Y-128170857D01*
X78831142Y-128313714D01*
X78688285Y-128385142D01*
X98167142Y-129313714D02*
X98095714Y-129385142D01*
X97881428Y-129456571D01*
X97738571Y-129456571D01*
X97524285Y-129385142D01*
X97381428Y-129242285D01*
X97310000Y-129099428D01*
X97238571Y-128813714D01*
X97238571Y-128599428D01*
X97310000Y-128313714D01*
X97381428Y-128170857D01*
X97524285Y-128028000D01*
X97738571Y-127956571D01*
X97881428Y-127956571D01*
X98095714Y-128028000D01*
X98167142Y-128099428D01*
X98595714Y-127956571D02*
X99095714Y-129456571D01*
X99595714Y-127956571D01*
X100381428Y-127956571D02*
X100524285Y-127956571D01*
X100667142Y-128028000D01*
X100738571Y-128099428D01*
X100810000Y-128242285D01*
X100881428Y-128528000D01*
X100881428Y-128885142D01*
X100810000Y-129170857D01*
X100738571Y-129313714D01*
X100667142Y-129385142D01*
X100524285Y-129456571D01*
X100381428Y-129456571D01*
X100238571Y-129385142D01*
X100167142Y-129313714D01*
X100095714Y-129170857D01*
X100024285Y-128885142D01*
X100024285Y-128528000D01*
X100095714Y-128242285D01*
X100167142Y-128099428D01*
X100238571Y-128028000D01*
X100381428Y-127956571D01*
D11*
X106370380Y-94654380D02*
X105370380Y-94654380D01*
X106084666Y-94321047D01*
X105370380Y-93987714D01*
X106370380Y-93987714D01*
X106370380Y-93511523D02*
X105370380Y-93511523D01*
X106370380Y-93035333D02*
X105370380Y-93035333D01*
X105370380Y-92797238D01*
X105418000Y-92654380D01*
X105513238Y-92559142D01*
X105608476Y-92511523D01*
X105798952Y-92463904D01*
X105941809Y-92463904D01*
X106132285Y-92511523D01*
X106227523Y-92559142D01*
X106322761Y-92654380D01*
X106370380Y-92797238D01*
X106370380Y-93035333D01*
X106370380Y-92035333D02*
X105370380Y-92035333D01*
X106370380Y-90797238D02*
X105370380Y-90797238D01*
X106370380Y-90321047D02*
X105370380Y-90321047D01*
X106370380Y-89749619D01*
X105370380Y-89749619D01*
X126849142Y-108926095D02*
X126896761Y-108973714D01*
X126944380Y-109116571D01*
X126944380Y-109211809D01*
X126896761Y-109354666D01*
X126801523Y-109449904D01*
X126706285Y-109497523D01*
X126515809Y-109545142D01*
X126372952Y-109545142D01*
X126182476Y-109497523D01*
X126087238Y-109449904D01*
X125992000Y-109354666D01*
X125944380Y-109211809D01*
X125944380Y-109116571D01*
X125992000Y-108973714D01*
X126039619Y-108926095D01*
X125944380Y-108640380D02*
X126944380Y-108307047D01*
X125944380Y-107973714D01*
X126944380Y-106878476D02*
X125944380Y-106878476D01*
X126944380Y-106402285D02*
X125944380Y-106402285D01*
X126944380Y-105830857D01*
X125944380Y-105830857D01*
X125944380Y-105164190D02*
X125944380Y-105068952D01*
X125992000Y-104973714D01*
X126039619Y-104926095D01*
X126134857Y-104878476D01*
X126325333Y-104830857D01*
X126563428Y-104830857D01*
X126753904Y-104878476D01*
X126849142Y-104926095D01*
X126896761Y-104973714D01*
X126944380Y-105068952D01*
X126944380Y-105164190D01*
X126896761Y-105259428D01*
X126849142Y-105307047D01*
X126753904Y-105354666D01*
X126563428Y-105402285D01*
X126325333Y-105402285D01*
X126134857Y-105354666D01*
X126039619Y-105307047D01*
X125992000Y-105259428D01*
X125944380Y-105164190D01*
X129389142Y-108926095D02*
X129436761Y-108973714D01*
X129484380Y-109116571D01*
X129484380Y-109211809D01*
X129436761Y-109354666D01*
X129341523Y-109449904D01*
X129246285Y-109497523D01*
X129055809Y-109545142D01*
X128912952Y-109545142D01*
X128722476Y-109497523D01*
X128627238Y-109449904D01*
X128532000Y-109354666D01*
X128484380Y-109211809D01*
X128484380Y-109116571D01*
X128532000Y-108973714D01*
X128579619Y-108926095D01*
X128484380Y-108640380D02*
X129484380Y-108307047D01*
X128484380Y-107973714D01*
X129484380Y-106878476D02*
X128484380Y-106878476D01*
X129484380Y-106402285D02*
X128484380Y-106402285D01*
X129484380Y-105830857D01*
X128484380Y-105830857D01*
X129484380Y-104830857D02*
X129484380Y-105402285D01*
X129484380Y-105116571D02*
X128484380Y-105116571D01*
X128627238Y-105211809D01*
X128722476Y-105307047D01*
X128770095Y-105402285D01*
X148598000Y-91693904D02*
X148550380Y-91789142D01*
X148550380Y-91932000D01*
X148598000Y-92074857D01*
X148693238Y-92170095D01*
X148788476Y-92217714D01*
X148978952Y-92265333D01*
X149121809Y-92265333D01*
X149312285Y-92217714D01*
X149407523Y-92170095D01*
X149502761Y-92074857D01*
X149550380Y-91932000D01*
X149550380Y-91836761D01*
X149502761Y-91693904D01*
X149455142Y-91646285D01*
X149121809Y-91646285D01*
X149121809Y-91836761D01*
X149550380Y-91217714D02*
X148550380Y-91217714D01*
X149550380Y-90646285D01*
X148550380Y-90646285D01*
X149550380Y-90170095D02*
X148550380Y-90170095D01*
X148550380Y-89932000D01*
X148598000Y-89789142D01*
X148693238Y-89693904D01*
X148788476Y-89646285D01*
X148978952Y-89598666D01*
X149121809Y-89598666D01*
X149312285Y-89646285D01*
X149407523Y-89693904D01*
X149502761Y-89789142D01*
X149550380Y-89932000D01*
X149550380Y-90170095D01*
X143724380Y-95662380D02*
X144533904Y-95662380D01*
X144629142Y-95614761D01*
X144676761Y-95567142D01*
X144724380Y-95471904D01*
X144724380Y-95281428D01*
X144676761Y-95186190D01*
X144629142Y-95138571D01*
X144533904Y-95090952D01*
X143724380Y-95090952D01*
X144438666Y-94662380D02*
X144438666Y-94186190D01*
X144724380Y-94757619D02*
X143724380Y-94424285D01*
X144724380Y-94090952D01*
X144724380Y-93186190D02*
X144248190Y-93519523D01*
X144724380Y-93757619D02*
X143724380Y-93757619D01*
X143724380Y-93376666D01*
X143772000Y-93281428D01*
X143819619Y-93233809D01*
X143914857Y-93186190D01*
X144057714Y-93186190D01*
X144152952Y-93233809D01*
X144200571Y-93281428D01*
X144248190Y-93376666D01*
X144248190Y-93757619D01*
X143724380Y-92900476D02*
X143724380Y-92329047D01*
X144724380Y-92614761D02*
X143724380Y-92614761D01*
X144724380Y-90662380D02*
X144248190Y-90995714D01*
X144724380Y-91233809D02*
X143724380Y-91233809D01*
X143724380Y-90852857D01*
X143772000Y-90757619D01*
X143819619Y-90710000D01*
X143914857Y-90662380D01*
X144057714Y-90662380D01*
X144152952Y-90710000D01*
X144200571Y-90757619D01*
X144248190Y-90852857D01*
X144248190Y-91233809D01*
X143724380Y-90329047D02*
X144724380Y-89662380D01*
X143724380Y-89662380D02*
X144724380Y-90329047D01*
X146264380Y-95543333D02*
X147073904Y-95543333D01*
X147169142Y-95495714D01*
X147216761Y-95448095D01*
X147264380Y-95352857D01*
X147264380Y-95162380D01*
X147216761Y-95067142D01*
X147169142Y-95019523D01*
X147073904Y-94971904D01*
X146264380Y-94971904D01*
X146978666Y-94543333D02*
X146978666Y-94067142D01*
X147264380Y-94638571D02*
X146264380Y-94305238D01*
X147264380Y-93971904D01*
X147264380Y-93067142D02*
X146788190Y-93400476D01*
X147264380Y-93638571D02*
X146264380Y-93638571D01*
X146264380Y-93257619D01*
X146312000Y-93162380D01*
X146359619Y-93114761D01*
X146454857Y-93067142D01*
X146597714Y-93067142D01*
X146692952Y-93114761D01*
X146740571Y-93162380D01*
X146788190Y-93257619D01*
X146788190Y-93638571D01*
X146264380Y-92781428D02*
X146264380Y-92210000D01*
X147264380Y-92495714D02*
X146264380Y-92495714D01*
X146264380Y-91257619D02*
X146264380Y-90686190D01*
X147264380Y-90971904D02*
X146264380Y-90971904D01*
X146264380Y-90448095D02*
X147264380Y-89781428D01*
X146264380Y-89781428D02*
X147264380Y-90448095D01*
X139644380Y-96083047D02*
X138644380Y-96083047D01*
X139358666Y-95749714D01*
X138644380Y-95416380D01*
X139644380Y-95416380D01*
X139644380Y-94940190D02*
X138644380Y-94940190D01*
X139644380Y-94464000D02*
X138644380Y-94464000D01*
X138644380Y-94225904D01*
X138692000Y-94083047D01*
X138787238Y-93987809D01*
X138882476Y-93940190D01*
X139072952Y-93892571D01*
X139215809Y-93892571D01*
X139406285Y-93940190D01*
X139501523Y-93987809D01*
X139596761Y-94083047D01*
X139644380Y-94225904D01*
X139644380Y-94464000D01*
X139644380Y-93464000D02*
X138644380Y-93464000D01*
X138644380Y-92035428D02*
X138644380Y-91844952D01*
X138692000Y-91749714D01*
X138787238Y-91654476D01*
X138977714Y-91606857D01*
X139311047Y-91606857D01*
X139501523Y-91654476D01*
X139596761Y-91749714D01*
X139644380Y-91844952D01*
X139644380Y-92035428D01*
X139596761Y-92130666D01*
X139501523Y-92225904D01*
X139311047Y-92273523D01*
X138977714Y-92273523D01*
X138787238Y-92225904D01*
X138692000Y-92130666D01*
X138644380Y-92035428D01*
X138644380Y-91178285D02*
X139453904Y-91178285D01*
X139549142Y-91130666D01*
X139596761Y-91083047D01*
X139644380Y-90987809D01*
X139644380Y-90797333D01*
X139596761Y-90702095D01*
X139549142Y-90654476D01*
X139453904Y-90606857D01*
X138644380Y-90606857D01*
X138644380Y-90273523D02*
X138644380Y-89702095D01*
X139644380Y-89987809D02*
X138644380Y-89987809D01*
X134310380Y-95519523D02*
X133310380Y-95519523D01*
X133405619Y-95090952D02*
X133358000Y-95043333D01*
X133310380Y-94948095D01*
X133310380Y-94710000D01*
X133358000Y-94614761D01*
X133405619Y-94567142D01*
X133500857Y-94519523D01*
X133596095Y-94519523D01*
X133738952Y-94567142D01*
X134310380Y-95138571D01*
X134310380Y-94519523D01*
X134262761Y-94138571D02*
X134310380Y-93995714D01*
X134310380Y-93757619D01*
X134262761Y-93662380D01*
X134215142Y-93614761D01*
X134119904Y-93567142D01*
X134024666Y-93567142D01*
X133929428Y-93614761D01*
X133881809Y-93662380D01*
X133834190Y-93757619D01*
X133786571Y-93948095D01*
X133738952Y-94043333D01*
X133691333Y-94090952D01*
X133596095Y-94138571D01*
X133500857Y-94138571D01*
X133405619Y-94090952D01*
X133358000Y-94043333D01*
X133310380Y-93948095D01*
X133310380Y-93710000D01*
X133358000Y-93567142D01*
X134262761Y-92424285D02*
X134310380Y-92281428D01*
X134310380Y-92043333D01*
X134262761Y-91948095D01*
X134215142Y-91900476D01*
X134119904Y-91852857D01*
X134024666Y-91852857D01*
X133929428Y-91900476D01*
X133881809Y-91948095D01*
X133834190Y-92043333D01*
X133786571Y-92233809D01*
X133738952Y-92329047D01*
X133691333Y-92376666D01*
X133596095Y-92424285D01*
X133500857Y-92424285D01*
X133405619Y-92376666D01*
X133358000Y-92329047D01*
X133310380Y-92233809D01*
X133310380Y-91995714D01*
X133358000Y-91852857D01*
X134215142Y-90852857D02*
X134262761Y-90900476D01*
X134310380Y-91043333D01*
X134310380Y-91138571D01*
X134262761Y-91281428D01*
X134167523Y-91376666D01*
X134072285Y-91424285D01*
X133881809Y-91471904D01*
X133738952Y-91471904D01*
X133548476Y-91424285D01*
X133453238Y-91376666D01*
X133358000Y-91281428D01*
X133310380Y-91138571D01*
X133310380Y-91043333D01*
X133358000Y-90900476D01*
X133405619Y-90852857D01*
X134310380Y-90424285D02*
X133310380Y-90424285D01*
X134310380Y-89852857D02*
X133738952Y-90281428D01*
X133310380Y-89852857D02*
X133881809Y-90424285D01*
X131770380Y-95448095D02*
X130770380Y-95448095D01*
X130865619Y-95019523D02*
X130818000Y-94971904D01*
X130770380Y-94876666D01*
X130770380Y-94638571D01*
X130818000Y-94543333D01*
X130865619Y-94495714D01*
X130960857Y-94448095D01*
X131056095Y-94448095D01*
X131198952Y-94495714D01*
X131770380Y-95067142D01*
X131770380Y-94448095D01*
X131722761Y-94067142D02*
X131770380Y-93924285D01*
X131770380Y-93686190D01*
X131722761Y-93590952D01*
X131675142Y-93543333D01*
X131579904Y-93495714D01*
X131484666Y-93495714D01*
X131389428Y-93543333D01*
X131341809Y-93590952D01*
X131294190Y-93686190D01*
X131246571Y-93876666D01*
X131198952Y-93971904D01*
X131151333Y-94019523D01*
X131056095Y-94067142D01*
X130960857Y-94067142D01*
X130865619Y-94019523D01*
X130818000Y-93971904D01*
X130770380Y-93876666D01*
X130770380Y-93638571D01*
X130818000Y-93495714D01*
X131722761Y-92352857D02*
X131770380Y-92210000D01*
X131770380Y-91971904D01*
X131722761Y-91876666D01*
X131675142Y-91829047D01*
X131579904Y-91781428D01*
X131484666Y-91781428D01*
X131389428Y-91829047D01*
X131341809Y-91876666D01*
X131294190Y-91971904D01*
X131246571Y-92162380D01*
X131198952Y-92257619D01*
X131151333Y-92305238D01*
X131056095Y-92352857D01*
X130960857Y-92352857D01*
X130865619Y-92305238D01*
X130818000Y-92257619D01*
X130770380Y-92162380D01*
X130770380Y-91924285D01*
X130818000Y-91781428D01*
X131770380Y-91352857D02*
X130770380Y-91352857D01*
X130770380Y-91114761D01*
X130818000Y-90971904D01*
X130913238Y-90876666D01*
X131008476Y-90829047D01*
X131198952Y-90781428D01*
X131341809Y-90781428D01*
X131532285Y-90829047D01*
X131627523Y-90876666D01*
X131722761Y-90971904D01*
X131770380Y-91114761D01*
X131770380Y-91352857D01*
X131484666Y-90400476D02*
X131484666Y-89924285D01*
X131770380Y-90495714D02*
X130770380Y-90162380D01*
X131770380Y-89829047D01*
X129230380Y-94836952D02*
X128230380Y-94836952D01*
X128325619Y-94408380D02*
X128278000Y-94360761D01*
X128230380Y-94265523D01*
X128230380Y-94027428D01*
X128278000Y-93932190D01*
X128325619Y-93884571D01*
X128420857Y-93836952D01*
X128516095Y-93836952D01*
X128658952Y-93884571D01*
X129230380Y-94456000D01*
X129230380Y-93836952D01*
X129182761Y-93456000D02*
X129230380Y-93313142D01*
X129230380Y-93075047D01*
X129182761Y-92979809D01*
X129135142Y-92932190D01*
X129039904Y-92884571D01*
X128944666Y-92884571D01*
X128849428Y-92932190D01*
X128801809Y-92979809D01*
X128754190Y-93075047D01*
X128706571Y-93265523D01*
X128658952Y-93360761D01*
X128611333Y-93408380D01*
X128516095Y-93456000D01*
X128420857Y-93456000D01*
X128325619Y-93408380D01*
X128278000Y-93360761D01*
X128230380Y-93265523D01*
X128230380Y-93027428D01*
X128278000Y-92884571D01*
X128230380Y-91789333D02*
X129230380Y-91551238D01*
X128516095Y-91360761D01*
X129230380Y-91170285D01*
X128230380Y-90932190D01*
X129182761Y-90598857D02*
X129230380Y-90456000D01*
X129230380Y-90217904D01*
X129182761Y-90122666D01*
X129135142Y-90075047D01*
X129039904Y-90027428D01*
X128944666Y-90027428D01*
X128849428Y-90075047D01*
X128801809Y-90122666D01*
X128754190Y-90217904D01*
X128706571Y-90408380D01*
X128658952Y-90503619D01*
X128611333Y-90551238D01*
X128516095Y-90598857D01*
X128420857Y-90598857D01*
X128325619Y-90551238D01*
X128278000Y-90503619D01*
X128230380Y-90408380D01*
X128230380Y-90170285D01*
X128278000Y-90027428D01*
X124150380Y-96479904D02*
X123150380Y-96479904D01*
X123245619Y-96051333D02*
X123198000Y-96003714D01*
X123150380Y-95908476D01*
X123150380Y-95670380D01*
X123198000Y-95575142D01*
X123245619Y-95527523D01*
X123340857Y-95479904D01*
X123436095Y-95479904D01*
X123578952Y-95527523D01*
X124150380Y-96098952D01*
X124150380Y-95479904D01*
X124102761Y-95098952D02*
X124150380Y-94956095D01*
X124150380Y-94718000D01*
X124102761Y-94622761D01*
X124055142Y-94575142D01*
X123959904Y-94527523D01*
X123864666Y-94527523D01*
X123769428Y-94575142D01*
X123721809Y-94622761D01*
X123674190Y-94718000D01*
X123626571Y-94908476D01*
X123578952Y-95003714D01*
X123531333Y-95051333D01*
X123436095Y-95098952D01*
X123340857Y-95098952D01*
X123245619Y-95051333D01*
X123198000Y-95003714D01*
X123150380Y-94908476D01*
X123150380Y-94670380D01*
X123198000Y-94527523D01*
X124150380Y-93337047D02*
X123150380Y-93337047D01*
X123864666Y-93003714D01*
X123150380Y-92670380D01*
X124150380Y-92670380D01*
X123150380Y-92194190D02*
X123959904Y-92194190D01*
X124055142Y-92146571D01*
X124102761Y-92098952D01*
X124150380Y-92003714D01*
X124150380Y-91813238D01*
X124102761Y-91718000D01*
X124055142Y-91670380D01*
X123959904Y-91622761D01*
X123150380Y-91622761D01*
X123150380Y-91289428D02*
X123150380Y-90718000D01*
X124150380Y-91003714D02*
X123150380Y-91003714D01*
X123626571Y-90384666D02*
X123626571Y-90051333D01*
X124150380Y-89908476D02*
X124150380Y-90384666D01*
X123150380Y-90384666D01*
X123150380Y-89908476D01*
X113990380Y-96710095D02*
X113990380Y-97186285D01*
X112990380Y-97186285D01*
X113466571Y-96376761D02*
X113466571Y-96043428D01*
X113990380Y-95900571D02*
X113990380Y-96376761D01*
X112990380Y-96376761D01*
X112990380Y-95900571D01*
X113990380Y-95472000D02*
X112990380Y-95472000D01*
X112990380Y-95233904D01*
X113038000Y-95091047D01*
X113133238Y-94995809D01*
X113228476Y-94948190D01*
X113418952Y-94900571D01*
X113561809Y-94900571D01*
X113752285Y-94948190D01*
X113847523Y-94995809D01*
X113942761Y-95091047D01*
X113990380Y-95233904D01*
X113990380Y-95472000D01*
X113704666Y-93757714D02*
X113704666Y-93281523D01*
X113990380Y-93852952D02*
X112990380Y-93519619D01*
X113990380Y-93186285D01*
X112990380Y-92852952D02*
X113799904Y-92852952D01*
X113895142Y-92805333D01*
X113942761Y-92757714D01*
X113990380Y-92662476D01*
X113990380Y-92472000D01*
X113942761Y-92376761D01*
X113895142Y-92329142D01*
X113799904Y-92281523D01*
X112990380Y-92281523D01*
X113990380Y-91805333D02*
X112990380Y-91805333D01*
X112990380Y-91567238D01*
X113038000Y-91424380D01*
X113133238Y-91329142D01*
X113228476Y-91281523D01*
X113418952Y-91233904D01*
X113561809Y-91233904D01*
X113752285Y-91281523D01*
X113847523Y-91329142D01*
X113942761Y-91424380D01*
X113990380Y-91567238D01*
X113990380Y-91805333D01*
X113990380Y-90805333D02*
X112990380Y-90805333D01*
X112990380Y-90138666D02*
X112990380Y-89948190D01*
X113038000Y-89852952D01*
X113133238Y-89757714D01*
X113323714Y-89710095D01*
X113657047Y-89710095D01*
X113847523Y-89757714D01*
X113942761Y-89852952D01*
X113990380Y-89948190D01*
X113990380Y-90138666D01*
X113942761Y-90233904D01*
X113847523Y-90329142D01*
X113657047Y-90376761D01*
X113323714Y-90376761D01*
X113133238Y-90329142D01*
X113038000Y-90233904D01*
X112990380Y-90138666D01*
X111450380Y-95630666D02*
X111450380Y-96106857D01*
X110450380Y-96106857D01*
X110926571Y-95297333D02*
X110926571Y-94964000D01*
X111450380Y-94821142D02*
X111450380Y-95297333D01*
X110450380Y-95297333D01*
X110450380Y-94821142D01*
X111450380Y-94392571D02*
X110450380Y-94392571D01*
X110450380Y-94154476D01*
X110498000Y-94011619D01*
X110593238Y-93916380D01*
X110688476Y-93868761D01*
X110878952Y-93821142D01*
X111021809Y-93821142D01*
X111212285Y-93868761D01*
X111307523Y-93916380D01*
X111402761Y-94011619D01*
X111450380Y-94154476D01*
X111450380Y-94392571D01*
X111355142Y-92059238D02*
X111402761Y-92106857D01*
X111450380Y-92249714D01*
X111450380Y-92344952D01*
X111402761Y-92487809D01*
X111307523Y-92583047D01*
X111212285Y-92630666D01*
X111021809Y-92678285D01*
X110878952Y-92678285D01*
X110688476Y-92630666D01*
X110593238Y-92583047D01*
X110498000Y-92487809D01*
X110450380Y-92344952D01*
X110450380Y-92249714D01*
X110498000Y-92106857D01*
X110545619Y-92059238D01*
X111450380Y-91154476D02*
X111450380Y-91630666D01*
X110450380Y-91630666D01*
X111450380Y-90821142D02*
X110450380Y-90821142D01*
X111450380Y-90344952D02*
X110450380Y-90344952D01*
X110450380Y-89964000D01*
X110498000Y-89868761D01*
X110545619Y-89821142D01*
X110640857Y-89773523D01*
X110783714Y-89773523D01*
X110878952Y-89821142D01*
X110926571Y-89868761D01*
X110974190Y-89964000D01*
X110974190Y-90344952D01*
X101242761Y-97233904D02*
X101290380Y-97091047D01*
X101290380Y-96852952D01*
X101242761Y-96757714D01*
X101195142Y-96710095D01*
X101099904Y-96662476D01*
X101004666Y-96662476D01*
X100909428Y-96710095D01*
X100861809Y-96757714D01*
X100814190Y-96852952D01*
X100766571Y-97043428D01*
X100718952Y-97138666D01*
X100671333Y-97186285D01*
X100576095Y-97233904D01*
X100480857Y-97233904D01*
X100385619Y-97186285D01*
X100338000Y-97138666D01*
X100290380Y-97043428D01*
X100290380Y-96805333D01*
X100338000Y-96662476D01*
X101290380Y-96233904D02*
X100290380Y-96233904D01*
X100290380Y-95852952D01*
X100338000Y-95757714D01*
X100385619Y-95710095D01*
X100480857Y-95662476D01*
X100623714Y-95662476D01*
X100718952Y-95710095D01*
X100766571Y-95757714D01*
X100814190Y-95852952D01*
X100814190Y-96233904D01*
X101290380Y-95233904D02*
X100290380Y-95233904D01*
X100290380Y-94995809D01*
X100338000Y-94852952D01*
X100433238Y-94757714D01*
X100528476Y-94710095D01*
X100718952Y-94662476D01*
X100861809Y-94662476D01*
X101052285Y-94710095D01*
X101147523Y-94757714D01*
X101242761Y-94852952D01*
X101290380Y-94995809D01*
X101290380Y-95233904D01*
X101290380Y-94233904D02*
X100290380Y-94233904D01*
X100766571Y-93424380D02*
X100766571Y-93757714D01*
X101290380Y-93757714D02*
X100290380Y-93757714D01*
X100290380Y-93281523D01*
X100290380Y-91948190D02*
X100290380Y-91757714D01*
X100338000Y-91662476D01*
X100433238Y-91567238D01*
X100623714Y-91519619D01*
X100957047Y-91519619D01*
X101147523Y-91567238D01*
X101242761Y-91662476D01*
X101290380Y-91757714D01*
X101290380Y-91948190D01*
X101242761Y-92043428D01*
X101147523Y-92138666D01*
X100957047Y-92186285D01*
X100623714Y-92186285D01*
X100433238Y-92138666D01*
X100338000Y-92043428D01*
X100290380Y-91948190D01*
X100290380Y-91091047D02*
X101099904Y-91091047D01*
X101195142Y-91043428D01*
X101242761Y-90995809D01*
X101290380Y-90900571D01*
X101290380Y-90710095D01*
X101242761Y-90614857D01*
X101195142Y-90567238D01*
X101099904Y-90519619D01*
X100290380Y-90519619D01*
X100290380Y-90186285D02*
X100290380Y-89614857D01*
X101290380Y-89900571D02*
X100290380Y-89900571D01*
X93146571Y-99011809D02*
X93146571Y-98678476D01*
X93670380Y-98535619D02*
X93670380Y-99011809D01*
X92670380Y-99011809D01*
X92670380Y-98535619D01*
X93146571Y-98107047D02*
X93146571Y-97773714D01*
X93670380Y-97630857D02*
X93670380Y-98107047D01*
X92670380Y-98107047D01*
X92670380Y-97630857D01*
X93670380Y-97202285D02*
X92670380Y-97202285D01*
X92670380Y-96821333D01*
X92718000Y-96726095D01*
X92765619Y-96678476D01*
X92860857Y-96630857D01*
X93003714Y-96630857D01*
X93098952Y-96678476D01*
X93146571Y-96726095D01*
X93194190Y-96821333D01*
X93194190Y-97202285D01*
X93670380Y-95630857D02*
X93194190Y-95964190D01*
X93670380Y-96202285D02*
X92670380Y-96202285D01*
X92670380Y-95821333D01*
X92718000Y-95726095D01*
X92765619Y-95678476D01*
X92860857Y-95630857D01*
X93003714Y-95630857D01*
X93098952Y-95678476D01*
X93146571Y-95726095D01*
X93194190Y-95821333D01*
X93194190Y-96202285D01*
X92670380Y-95011809D02*
X92670380Y-94821333D01*
X92718000Y-94726095D01*
X92813238Y-94630857D01*
X93003714Y-94583238D01*
X93337047Y-94583238D01*
X93527523Y-94630857D01*
X93622761Y-94726095D01*
X93670380Y-94821333D01*
X93670380Y-95011809D01*
X93622761Y-95107047D01*
X93527523Y-95202285D01*
X93337047Y-95249904D01*
X93003714Y-95249904D01*
X92813238Y-95202285D01*
X92718000Y-95107047D01*
X92670380Y-95011809D01*
X93670380Y-94154666D02*
X92670380Y-94154666D01*
X93384666Y-93821333D01*
X92670380Y-93488000D01*
X93670380Y-93488000D01*
X93622761Y-92297523D02*
X93670380Y-92154666D01*
X93670380Y-91916571D01*
X93622761Y-91821333D01*
X93575142Y-91773714D01*
X93479904Y-91726095D01*
X93384666Y-91726095D01*
X93289428Y-91773714D01*
X93241809Y-91821333D01*
X93194190Y-91916571D01*
X93146571Y-92107047D01*
X93098952Y-92202285D01*
X93051333Y-92249904D01*
X92956095Y-92297523D01*
X92860857Y-92297523D01*
X92765619Y-92249904D01*
X92718000Y-92202285D01*
X92670380Y-92107047D01*
X92670380Y-91868952D01*
X92718000Y-91726095D01*
X93575142Y-90726095D02*
X93622761Y-90773714D01*
X93670380Y-90916571D01*
X93670380Y-91011809D01*
X93622761Y-91154666D01*
X93527523Y-91249904D01*
X93432285Y-91297523D01*
X93241809Y-91345142D01*
X93098952Y-91345142D01*
X92908476Y-91297523D01*
X92813238Y-91249904D01*
X92718000Y-91154666D01*
X92670380Y-91011809D01*
X92670380Y-90916571D01*
X92718000Y-90773714D01*
X92765619Y-90726095D01*
X93670380Y-89821333D02*
X93670380Y-90297523D01*
X92670380Y-90297523D01*
X90606571Y-99035619D02*
X90606571Y-98702285D01*
X91130380Y-98559428D02*
X91130380Y-99035619D01*
X90130380Y-99035619D01*
X90130380Y-98559428D01*
X90606571Y-98130857D02*
X90606571Y-97797523D01*
X91130380Y-97654666D02*
X91130380Y-98130857D01*
X90130380Y-98130857D01*
X90130380Y-97654666D01*
X91130380Y-97226095D02*
X90130380Y-97226095D01*
X90130380Y-96845142D01*
X90178000Y-96749904D01*
X90225619Y-96702285D01*
X90320857Y-96654666D01*
X90463714Y-96654666D01*
X90558952Y-96702285D01*
X90606571Y-96749904D01*
X90654190Y-96845142D01*
X90654190Y-97226095D01*
X91130380Y-95654666D02*
X90654190Y-95988000D01*
X91130380Y-96226095D02*
X90130380Y-96226095D01*
X90130380Y-95845142D01*
X90178000Y-95749904D01*
X90225619Y-95702285D01*
X90320857Y-95654666D01*
X90463714Y-95654666D01*
X90558952Y-95702285D01*
X90606571Y-95749904D01*
X90654190Y-95845142D01*
X90654190Y-96226095D01*
X90130380Y-95035619D02*
X90130380Y-94845142D01*
X90178000Y-94749904D01*
X90273238Y-94654666D01*
X90463714Y-94607047D01*
X90797047Y-94607047D01*
X90987523Y-94654666D01*
X91082761Y-94749904D01*
X91130380Y-94845142D01*
X91130380Y-95035619D01*
X91082761Y-95130857D01*
X90987523Y-95226095D01*
X90797047Y-95273714D01*
X90463714Y-95273714D01*
X90273238Y-95226095D01*
X90178000Y-95130857D01*
X90130380Y-95035619D01*
X91130380Y-94178476D02*
X90130380Y-94178476D01*
X90844666Y-93845142D01*
X90130380Y-93511809D01*
X91130380Y-93511809D01*
X91225619Y-93273714D02*
X91225619Y-92511809D01*
X91082761Y-92321333D02*
X91130380Y-92178476D01*
X91130380Y-91940380D01*
X91082761Y-91845142D01*
X91035142Y-91797523D01*
X90939904Y-91749904D01*
X90844666Y-91749904D01*
X90749428Y-91797523D01*
X90701809Y-91845142D01*
X90654190Y-91940380D01*
X90606571Y-92130857D01*
X90558952Y-92226095D01*
X90511333Y-92273714D01*
X90416095Y-92321333D01*
X90320857Y-92321333D01*
X90225619Y-92273714D01*
X90178000Y-92226095D01*
X90130380Y-92130857D01*
X90130380Y-91892761D01*
X90178000Y-91749904D01*
X91130380Y-91321333D02*
X90130380Y-91321333D01*
X90130380Y-91083238D01*
X90178000Y-90940380D01*
X90273238Y-90845142D01*
X90368476Y-90797523D01*
X90558952Y-90749904D01*
X90701809Y-90749904D01*
X90892285Y-90797523D01*
X90987523Y-90845142D01*
X91082761Y-90940380D01*
X91130380Y-91083238D01*
X91130380Y-91321333D01*
X90844666Y-90368952D02*
X90844666Y-89892761D01*
X91130380Y-90464190D02*
X90130380Y-90130857D01*
X91130380Y-89797523D01*
X239657380Y-108322571D02*
X238990714Y-107798761D01*
X238990714Y-108322571D02*
X239657380Y-107798761D01*
X238990714Y-107560666D02*
X238990714Y-107179714D01*
X239657380Y-107417809D02*
X238800238Y-107417809D01*
X238705000Y-107370190D01*
X238657380Y-107274952D01*
X238657380Y-107179714D01*
X239657380Y-106846380D02*
X238990714Y-106846380D01*
X239085952Y-106846380D02*
X239038333Y-106798761D01*
X238990714Y-106703523D01*
X238990714Y-106560666D01*
X239038333Y-106465428D01*
X239133571Y-106417809D01*
X239657380Y-106417809D01*
X239133571Y-106417809D02*
X239038333Y-106370190D01*
X238990714Y-106274952D01*
X238990714Y-106132095D01*
X239038333Y-106036857D01*
X239133571Y-105989238D01*
X239657380Y-105989238D01*
X238752619Y-105560666D02*
X238705000Y-105513047D01*
X238657380Y-105417809D01*
X238657380Y-105179714D01*
X238705000Y-105084476D01*
X238752619Y-105036857D01*
X238847857Y-104989238D01*
X238943095Y-104989238D01*
X239085952Y-105036857D01*
X239657380Y-105608285D01*
X239657380Y-104989238D01*
X238609761Y-103846380D02*
X239895476Y-104703523D01*
X239657380Y-103608285D02*
X238990714Y-103084476D01*
X238990714Y-103608285D02*
X239657380Y-103084476D01*
X238990714Y-102798761D02*
X239657380Y-102560666D01*
X238990714Y-102322571D01*
X239657380Y-101513047D02*
X239133571Y-101513047D01*
X239038333Y-101560666D01*
X238990714Y-101655904D01*
X238990714Y-101846380D01*
X239038333Y-101941619D01*
X239609761Y-101513047D02*
X239657380Y-101608285D01*
X239657380Y-101846380D01*
X239609761Y-101941619D01*
X239514523Y-101989238D01*
X239419285Y-101989238D01*
X239324047Y-101941619D01*
X239276428Y-101846380D01*
X239276428Y-101608285D01*
X239228809Y-101513047D01*
X239657380Y-100513047D02*
X239657380Y-101084476D01*
X239657380Y-100798761D02*
X238657380Y-100798761D01*
X238800238Y-100894000D01*
X238895476Y-100989238D01*
X238943095Y-101084476D01*
X241259761Y-112036857D02*
X241307380Y-112132095D01*
X241307380Y-112322571D01*
X241259761Y-112417809D01*
X241164523Y-112465428D01*
X240783571Y-112465428D01*
X240688333Y-112417809D01*
X240640714Y-112322571D01*
X240640714Y-112132095D01*
X240688333Y-112036857D01*
X240783571Y-111989238D01*
X240878809Y-111989238D01*
X240974047Y-112465428D01*
X241307380Y-111655904D02*
X240640714Y-111132095D01*
X240640714Y-111655904D02*
X241307380Y-111132095D01*
X240640714Y-110894000D02*
X240640714Y-110513047D01*
X240307380Y-110751142D02*
X241164523Y-110751142D01*
X241259761Y-110703523D01*
X241307380Y-110608285D01*
X241307380Y-110513047D01*
X241259761Y-109798761D02*
X241307380Y-109894000D01*
X241307380Y-110084476D01*
X241259761Y-110179714D01*
X241164523Y-110227333D01*
X240783571Y-110227333D01*
X240688333Y-110179714D01*
X240640714Y-110084476D01*
X240640714Y-109894000D01*
X240688333Y-109798761D01*
X240783571Y-109751142D01*
X240878809Y-109751142D01*
X240974047Y-110227333D01*
X240640714Y-109322571D02*
X241307380Y-109322571D01*
X240735952Y-109322571D02*
X240688333Y-109274952D01*
X240640714Y-109179714D01*
X240640714Y-109036857D01*
X240688333Y-108941619D01*
X240783571Y-108894000D01*
X241307380Y-108894000D01*
X241307380Y-107989238D02*
X240307380Y-107989238D01*
X241259761Y-107989238D02*
X241307380Y-108084476D01*
X241307380Y-108274952D01*
X241259761Y-108370190D01*
X241212142Y-108417809D01*
X241116904Y-108465428D01*
X240831190Y-108465428D01*
X240735952Y-108417809D01*
X240688333Y-108370190D01*
X240640714Y-108274952D01*
X240640714Y-108084476D01*
X240688333Y-107989238D01*
X241259761Y-107132095D02*
X241307380Y-107227333D01*
X241307380Y-107417809D01*
X241259761Y-107513047D01*
X241164523Y-107560666D01*
X240783571Y-107560666D01*
X240688333Y-107513047D01*
X240640714Y-107417809D01*
X240640714Y-107227333D01*
X240688333Y-107132095D01*
X240783571Y-107084476D01*
X240878809Y-107084476D01*
X240974047Y-107560666D01*
X241307380Y-106227333D02*
X240307380Y-106227333D01*
X241259761Y-106227333D02*
X241307380Y-106322571D01*
X241307380Y-106513047D01*
X241259761Y-106608285D01*
X241212142Y-106655904D01*
X241116904Y-106703523D01*
X240831190Y-106703523D01*
X240735952Y-106655904D01*
X240688333Y-106608285D01*
X240640714Y-106513047D01*
X240640714Y-106322571D01*
X240688333Y-106227333D01*
X241307380Y-104989238D02*
X240307380Y-104989238D01*
X240688333Y-104989238D02*
X240640714Y-104894000D01*
X240640714Y-104703523D01*
X240688333Y-104608285D01*
X240735952Y-104560666D01*
X240831190Y-104513047D01*
X241116904Y-104513047D01*
X241212142Y-104560666D01*
X241259761Y-104608285D01*
X241307380Y-104703523D01*
X241307380Y-104894000D01*
X241259761Y-104989238D01*
X241307380Y-103941619D02*
X241259761Y-104036857D01*
X241212142Y-104084476D01*
X241116904Y-104132095D01*
X240831190Y-104132095D01*
X240735952Y-104084476D01*
X240688333Y-104036857D01*
X240640714Y-103941619D01*
X240640714Y-103798761D01*
X240688333Y-103703523D01*
X240735952Y-103655904D01*
X240831190Y-103608285D01*
X241116904Y-103608285D01*
X241212142Y-103655904D01*
X241259761Y-103703523D01*
X241307380Y-103798761D01*
X241307380Y-103941619D01*
X241307380Y-102751142D02*
X240783571Y-102751142D01*
X240688333Y-102798761D01*
X240640714Y-102894000D01*
X240640714Y-103084476D01*
X240688333Y-103179714D01*
X241259761Y-102751142D02*
X241307380Y-102846380D01*
X241307380Y-103084476D01*
X241259761Y-103179714D01*
X241164523Y-103227333D01*
X241069285Y-103227333D01*
X240974047Y-103179714D01*
X240926428Y-103084476D01*
X240926428Y-102846380D01*
X240878809Y-102751142D01*
X241307380Y-102274952D02*
X240640714Y-102274952D01*
X240831190Y-102274952D02*
X240735952Y-102227333D01*
X240688333Y-102179714D01*
X240640714Y-102084476D01*
X240640714Y-101989238D01*
X241307380Y-101227333D02*
X240307380Y-101227333D01*
X241259761Y-101227333D02*
X241307380Y-101322571D01*
X241307380Y-101513047D01*
X241259761Y-101608285D01*
X241212142Y-101655904D01*
X241116904Y-101703523D01*
X240831190Y-101703523D01*
X240735952Y-101655904D01*
X240688333Y-101608285D01*
X240640714Y-101513047D01*
X240640714Y-101322571D01*
X240688333Y-101227333D01*
X240640714Y-100084476D02*
X241307380Y-99846380D01*
X240640714Y-99608285D01*
X241307380Y-98703523D02*
X241307380Y-99274952D01*
X241307380Y-98989238D02*
X240307380Y-98989238D01*
X240450238Y-99084476D01*
X240545476Y-99179714D01*
X240593095Y-99274952D01*
X241212142Y-98274952D02*
X241259761Y-98227333D01*
X241307380Y-98274952D01*
X241259761Y-98322571D01*
X241212142Y-98274952D01*
X241307380Y-98274952D01*
X240307380Y-97894000D02*
X240307380Y-97274952D01*
X240688333Y-97608285D01*
X240688333Y-97465428D01*
X240735952Y-97370190D01*
X240783571Y-97322571D01*
X240878809Y-97274952D01*
X241116904Y-97274952D01*
X241212142Y-97322571D01*
X241259761Y-97370190D01*
X241307380Y-97465428D01*
X241307380Y-97751142D01*
X241259761Y-97846380D01*
X241212142Y-97894000D01*
X240640714Y-96417809D02*
X241307380Y-96417809D01*
X240259761Y-96655904D02*
X240974047Y-96894000D01*
X240974047Y-96274952D01*
X152852380Y-99384952D02*
X151852380Y-99384952D01*
X152566666Y-99051619D01*
X151852380Y-98718285D01*
X152852380Y-98718285D01*
X152852380Y-98242095D02*
X152185714Y-98242095D01*
X151852380Y-98242095D02*
X151900000Y-98289714D01*
X151947619Y-98242095D01*
X151900000Y-98194476D01*
X151852380Y-98242095D01*
X151947619Y-98242095D01*
X152804761Y-97337333D02*
X152852380Y-97432571D01*
X152852380Y-97623047D01*
X152804761Y-97718285D01*
X152757142Y-97765904D01*
X152661904Y-97813523D01*
X152376190Y-97813523D01*
X152280952Y-97765904D01*
X152233333Y-97718285D01*
X152185714Y-97623047D01*
X152185714Y-97432571D01*
X152233333Y-97337333D01*
X152852380Y-96908761D02*
X152185714Y-96908761D01*
X152376190Y-96908761D02*
X152280952Y-96861142D01*
X152233333Y-96813523D01*
X152185714Y-96718285D01*
X152185714Y-96623047D01*
X152852380Y-96146857D02*
X152804761Y-96242095D01*
X152757142Y-96289714D01*
X152661904Y-96337333D01*
X152376190Y-96337333D01*
X152280952Y-96289714D01*
X152233333Y-96242095D01*
X152185714Y-96146857D01*
X152185714Y-96004000D01*
X152233333Y-95908761D01*
X152280952Y-95861142D01*
X152376190Y-95813523D01*
X152661904Y-95813523D01*
X152757142Y-95861142D01*
X152804761Y-95908761D01*
X152852380Y-96004000D01*
X152852380Y-96146857D01*
X152471428Y-95384952D02*
X152471428Y-94623047D01*
X151852380Y-94146857D02*
X152661904Y-94146857D01*
X152757142Y-94099238D01*
X152804761Y-94051619D01*
X152852380Y-93956380D01*
X152852380Y-93765904D01*
X152804761Y-93670666D01*
X152757142Y-93623047D01*
X152661904Y-93575428D01*
X151852380Y-93575428D01*
X152804761Y-93146857D02*
X152852380Y-93004000D01*
X152852380Y-92765904D01*
X152804761Y-92670666D01*
X152757142Y-92623047D01*
X152661904Y-92575428D01*
X152566666Y-92575428D01*
X152471428Y-92623047D01*
X152423809Y-92670666D01*
X152376190Y-92765904D01*
X152328571Y-92956380D01*
X152280952Y-93051619D01*
X152233333Y-93099238D01*
X152138095Y-93146857D01*
X152042857Y-93146857D01*
X151947619Y-93099238D01*
X151900000Y-93051619D01*
X151852380Y-92956380D01*
X151852380Y-92718285D01*
X151900000Y-92575428D01*
X152328571Y-91813523D02*
X152376190Y-91670666D01*
X152423809Y-91623047D01*
X152519047Y-91575428D01*
X152661904Y-91575428D01*
X152757142Y-91623047D01*
X152804761Y-91670666D01*
X152852380Y-91765904D01*
X152852380Y-92146857D01*
X151852380Y-92146857D01*
X151852380Y-91813523D01*
X151900000Y-91718285D01*
X151947619Y-91670666D01*
X152042857Y-91623047D01*
X152138095Y-91623047D01*
X152233333Y-91670666D01*
X152280952Y-91718285D01*
X152328571Y-91813523D01*
X152328571Y-92146857D01*
X62563666Y-114625380D02*
X62563666Y-113625380D01*
X62897000Y-114339666D01*
X63230333Y-113625380D01*
X63230333Y-114625380D01*
X63706523Y-114625380D02*
X63706523Y-113958714D01*
X63706523Y-113625380D02*
X63658904Y-113673000D01*
X63706523Y-113720619D01*
X63754142Y-113673000D01*
X63706523Y-113625380D01*
X63706523Y-113720619D01*
X64611285Y-114625380D02*
X64611285Y-113625380D01*
X64611285Y-114577761D02*
X64516047Y-114625380D01*
X64325571Y-114625380D01*
X64230333Y-114577761D01*
X64182714Y-114530142D01*
X64135095Y-114434904D01*
X64135095Y-114149190D01*
X64182714Y-114053952D01*
X64230333Y-114006333D01*
X64325571Y-113958714D01*
X64516047Y-113958714D01*
X64611285Y-114006333D01*
X65087476Y-114625380D02*
X65087476Y-113958714D01*
X65087476Y-113625380D02*
X65039857Y-113673000D01*
X65087476Y-113720619D01*
X65135095Y-113673000D01*
X65087476Y-113625380D01*
X65087476Y-113720619D01*
X66325571Y-114625380D02*
X66325571Y-113625380D01*
X66801761Y-113958714D02*
X66801761Y-114625380D01*
X66801761Y-114053952D02*
X66849380Y-114006333D01*
X66944619Y-113958714D01*
X67087476Y-113958714D01*
X67182714Y-114006333D01*
X67230333Y-114101571D01*
X67230333Y-114625380D01*
X62500238Y-109037380D02*
X62500238Y-108037380D01*
X62833571Y-108751666D01*
X63166904Y-108037380D01*
X63166904Y-109037380D01*
X63643095Y-109037380D02*
X63643095Y-108370714D01*
X63643095Y-108037380D02*
X63595476Y-108085000D01*
X63643095Y-108132619D01*
X63690714Y-108085000D01*
X63643095Y-108037380D01*
X63643095Y-108132619D01*
X64547857Y-109037380D02*
X64547857Y-108037380D01*
X64547857Y-108989761D02*
X64452619Y-109037380D01*
X64262142Y-109037380D01*
X64166904Y-108989761D01*
X64119285Y-108942142D01*
X64071666Y-108846904D01*
X64071666Y-108561190D01*
X64119285Y-108465952D01*
X64166904Y-108418333D01*
X64262142Y-108370714D01*
X64452619Y-108370714D01*
X64547857Y-108418333D01*
X65024047Y-109037380D02*
X65024047Y-108370714D01*
X65024047Y-108037380D02*
X64976428Y-108085000D01*
X65024047Y-108132619D01*
X65071666Y-108085000D01*
X65024047Y-108037380D01*
X65024047Y-108132619D01*
X66452619Y-108037380D02*
X66643095Y-108037380D01*
X66738333Y-108085000D01*
X66833571Y-108180238D01*
X66881190Y-108370714D01*
X66881190Y-108704047D01*
X66833571Y-108894523D01*
X66738333Y-108989761D01*
X66643095Y-109037380D01*
X66452619Y-109037380D01*
X66357380Y-108989761D01*
X66262142Y-108894523D01*
X66214523Y-108704047D01*
X66214523Y-108370714D01*
X66262142Y-108180238D01*
X66357380Y-108085000D01*
X66452619Y-108037380D01*
X67738333Y-108370714D02*
X67738333Y-109037380D01*
X67309761Y-108370714D02*
X67309761Y-108894523D01*
X67357380Y-108989761D01*
X67452619Y-109037380D01*
X67595476Y-109037380D01*
X67690714Y-108989761D01*
X67738333Y-108942142D01*
X68071666Y-108370714D02*
X68452619Y-108370714D01*
X68214523Y-108037380D02*
X68214523Y-108894523D01*
X68262142Y-108989761D01*
X68357380Y-109037380D01*
X68452619Y-109037380D01*
X62555666Y-103036666D02*
X63031857Y-103036666D01*
X62460428Y-103322380D02*
X62793761Y-102322380D01*
X63127095Y-103322380D01*
X63889000Y-102655714D02*
X63889000Y-103322380D01*
X63460428Y-102655714D02*
X63460428Y-103179523D01*
X63508047Y-103274761D01*
X63603285Y-103322380D01*
X63746142Y-103322380D01*
X63841380Y-103274761D01*
X63889000Y-103227142D01*
X64793761Y-103322380D02*
X64793761Y-102322380D01*
X64793761Y-103274761D02*
X64698523Y-103322380D01*
X64508047Y-103322380D01*
X64412809Y-103274761D01*
X64365190Y-103227142D01*
X64317571Y-103131904D01*
X64317571Y-102846190D01*
X64365190Y-102750952D01*
X64412809Y-102703333D01*
X64508047Y-102655714D01*
X64698523Y-102655714D01*
X64793761Y-102703333D01*
X65269952Y-103322380D02*
X65269952Y-102655714D01*
X65269952Y-102322380D02*
X65222333Y-102370000D01*
X65269952Y-102417619D01*
X65317571Y-102370000D01*
X65269952Y-102322380D01*
X65269952Y-102417619D01*
X65889000Y-103322380D02*
X65793761Y-103274761D01*
X65746142Y-103227142D01*
X65698523Y-103131904D01*
X65698523Y-102846190D01*
X65746142Y-102750952D01*
X65793761Y-102703333D01*
X65889000Y-102655714D01*
X66031857Y-102655714D01*
X66127095Y-102703333D01*
X66174714Y-102750952D01*
X66222333Y-102846190D01*
X66222333Y-103131904D01*
X66174714Y-103227142D01*
X66127095Y-103274761D01*
X66031857Y-103322380D01*
X65889000Y-103322380D01*
X63111142Y-97512142D02*
X63063523Y-97559761D01*
X62920666Y-97607380D01*
X62825428Y-97607380D01*
X62682571Y-97559761D01*
X62587333Y-97464523D01*
X62539714Y-97369285D01*
X62492095Y-97178809D01*
X62492095Y-97035952D01*
X62539714Y-96845476D01*
X62587333Y-96750238D01*
X62682571Y-96655000D01*
X62825428Y-96607380D01*
X62920666Y-96607380D01*
X63063523Y-96655000D01*
X63111142Y-96702619D01*
X63682571Y-97607380D02*
X63587333Y-97559761D01*
X63539714Y-97464523D01*
X63539714Y-96607380D01*
X64063523Y-97607380D02*
X64063523Y-96940714D01*
X64063523Y-96607380D02*
X64015904Y-96655000D01*
X64063523Y-96702619D01*
X64111142Y-96655000D01*
X64063523Y-96607380D01*
X64063523Y-96702619D01*
X64539714Y-96940714D02*
X64539714Y-97940714D01*
X64539714Y-96988333D02*
X64634952Y-96940714D01*
X64825428Y-96940714D01*
X64920666Y-96988333D01*
X64968285Y-97035952D01*
X65015904Y-97131190D01*
X65015904Y-97416904D01*
X64968285Y-97512142D01*
X64920666Y-97559761D01*
X64825428Y-97607380D01*
X64634952Y-97607380D01*
X64539714Y-97559761D01*
%TO.C,U10*%
X197282000Y-126665000D02*
X197282000Y-125065000D01*
X187207000Y-126665000D02*
X187207000Y-132415000D01*
X197857000Y-126665000D02*
X197857000Y-132415000D01*
X187207000Y-126665000D02*
X187857000Y-126665000D01*
X187207000Y-132415000D02*
X187857000Y-132415000D01*
X197857000Y-132415000D02*
X197207000Y-132415000D01*
X197857000Y-126665000D02*
X197282000Y-126665000D01*
D14*
%TO.C,J5*%
X208741000Y-143352000D02*
X208741000Y-153352000D01*
X208741000Y-153352000D02*
X208741000Y-153352000D01*
X208741000Y-153352000D02*
X208741000Y-143352000D01*
X208741000Y-143352000D02*
X208741000Y-143352000D01*
X218741000Y-153352000D02*
X218741000Y-143352000D01*
X218741000Y-143352000D02*
X218741000Y-143352000D01*
X218741000Y-143352000D02*
X218741000Y-153352000D01*
X218741000Y-153352000D02*
X218741000Y-153352000D01*
X211991000Y-143352000D02*
X211991000Y-143352000D01*
X211991000Y-143352000D02*
X208741000Y-143352000D01*
X208741000Y-143352000D02*
X208741000Y-143352000D01*
X208741000Y-143352000D02*
X211991000Y-143352000D01*
X208741000Y-153352000D02*
X208741000Y-153352000D01*
X208741000Y-153352000D02*
X218741000Y-153352000D01*
X218741000Y-153352000D02*
X218741000Y-153352000D01*
X218741000Y-153352000D02*
X208741000Y-153352000D01*
X218741000Y-143352000D02*
X218741000Y-143352000D01*
X218741000Y-143352000D02*
X215741000Y-143352000D01*
X215741000Y-143352000D02*
X215741000Y-143352000D01*
X215741000Y-143352000D02*
X218741000Y-143352000D01*
D10*
%TO.C,J2*%
X182312000Y-90738000D02*
X182312000Y-89408000D01*
X183642000Y-90738000D02*
X182312000Y-90738000D01*
X182312000Y-88138000D02*
X182312000Y-85538000D01*
X184912000Y-88138000D02*
X182312000Y-88138000D01*
X184912000Y-90738000D02*
X184912000Y-88138000D01*
X182312000Y-85538000D02*
X207832000Y-85538000D01*
X184912000Y-90738000D02*
X207832000Y-90738000D01*
X207832000Y-90738000D02*
X207832000Y-85538000D01*
%TO.C,U3*%
X82249500Y-98298000D02*
X82249500Y-95550500D01*
X82249500Y-95550500D02*
X81967000Y-95550500D01*
X82249500Y-98298000D02*
X82249500Y-101045500D01*
X82249500Y-101045500D02*
X81967000Y-101045500D01*
X76754500Y-98298000D02*
X76754500Y-95550500D01*
X76754500Y-95550500D02*
X77037000Y-95550500D01*
X76754500Y-98298000D02*
X76754500Y-101045500D01*
X76754500Y-101045500D02*
X77037000Y-101045500D01*
X77037000Y-101045500D02*
X77037000Y-102698000D01*
%TO.C,C1*%
X221007000Y-148597252D02*
X221007000Y-148074748D01*
X222477000Y-148597252D02*
X222477000Y-148074748D01*
%TO.C,D2*%
X62540000Y-115279000D02*
X62540000Y-118139000D01*
X64460000Y-115279000D02*
X62540000Y-115279000D01*
X64460000Y-118139000D02*
X64460000Y-115279000D01*
%TO.C,D3*%
X64460000Y-112451332D02*
X64460000Y-109591332D01*
X64460000Y-109591332D02*
X62540000Y-109591332D01*
X62540000Y-109591332D02*
X62540000Y-112451332D01*
%TO.C,D4*%
X64460000Y-106763666D02*
X64460000Y-103903666D01*
X64460000Y-103903666D02*
X62540000Y-103903666D01*
X62540000Y-103903666D02*
X62540000Y-106763666D01*
%TO.C,D5*%
X62540000Y-98216000D02*
X62540000Y-101076000D01*
X64460000Y-98216000D02*
X62540000Y-98216000D01*
X64460000Y-101076000D02*
X64460000Y-98216000D01*
D15*
%TO.C,J1*%
X156481780Y-153784300D02*
X175981360Y-153784300D01*
X174480220Y-154033220D02*
X156481780Y-154033220D01*
X154980640Y-154284680D02*
X174480220Y-154284680D01*
X156481780Y-136034780D02*
X156481780Y-153035000D01*
X156481780Y-136034780D02*
X156982160Y-135534400D01*
X156982160Y-135534400D02*
X159481520Y-135534400D01*
X159481520Y-135534400D02*
X159981900Y-136034780D01*
X159981900Y-136034780D02*
X159981900Y-138033760D01*
X159981900Y-138033760D02*
X163482020Y-138033760D01*
X174480220Y-136034780D02*
X174480220Y-153035000D01*
X174480220Y-136034780D02*
X173979840Y-135534400D01*
X173979840Y-135534400D02*
X171980860Y-135534400D01*
X171980860Y-135534400D02*
X171480480Y-135534400D01*
X171480480Y-135534400D02*
X170980100Y-136034780D01*
X170980100Y-136034780D02*
X170980100Y-138033760D01*
X170980100Y-138033760D02*
X167479980Y-138033760D01*
X163979860Y-135534400D02*
X163482020Y-136034780D01*
X163482020Y-136034780D02*
X163482020Y-138033760D01*
X163979860Y-135534400D02*
X166982140Y-135534400D01*
X166982140Y-135534400D02*
X167479980Y-136034780D01*
X167479980Y-136034780D02*
X167479980Y-138033760D01*
X175981360Y-154033220D02*
X174480220Y-154033220D01*
X174480220Y-154033220D02*
X174480220Y-154533600D01*
X174480220Y-154533600D02*
X154980640Y-154533600D01*
X154980640Y-154033220D02*
X156481780Y-154033220D01*
X156481780Y-154033220D02*
X156481780Y-153532840D01*
X156481780Y-153532840D02*
X175981360Y-153532840D01*
X174480220Y-153035000D02*
X173979840Y-153035000D01*
X156481780Y-153035000D02*
X156982160Y-153035000D01*
X173979840Y-153532840D02*
X173979840Y-153035000D01*
X156982160Y-153035000D02*
X156982160Y-153532840D01*
X154980640Y-154533600D02*
X154980640Y-154033220D01*
X175981360Y-153532840D02*
X175981360Y-154033220D01*
%TO.C,J3*%
X153121360Y-153532840D02*
X153121360Y-154033220D01*
X132120640Y-154533600D02*
X132120640Y-154033220D01*
X134122160Y-153035000D02*
X134122160Y-153532840D01*
X151119840Y-153532840D02*
X151119840Y-153035000D01*
X133621780Y-153035000D02*
X134122160Y-153035000D01*
X151620220Y-153035000D02*
X151119840Y-153035000D01*
X133621780Y-153532840D02*
X153121360Y-153532840D01*
X133621780Y-154033220D02*
X133621780Y-153532840D01*
X132120640Y-154033220D02*
X133621780Y-154033220D01*
X151620220Y-154533600D02*
X132120640Y-154533600D01*
X151620220Y-154033220D02*
X151620220Y-154533600D01*
X153121360Y-154033220D02*
X151620220Y-154033220D01*
X144619980Y-136034780D02*
X144619980Y-138033760D01*
X144122140Y-135534400D02*
X144619980Y-136034780D01*
X141119860Y-135534400D02*
X144122140Y-135534400D01*
X140622020Y-136034780D02*
X140622020Y-138033760D01*
X141119860Y-135534400D02*
X140622020Y-136034780D01*
X148120100Y-138033760D02*
X144619980Y-138033760D01*
X148120100Y-136034780D02*
X148120100Y-138033760D01*
X148620480Y-135534400D02*
X148120100Y-136034780D01*
X149120860Y-135534400D02*
X148620480Y-135534400D01*
X151119840Y-135534400D02*
X149120860Y-135534400D01*
X151620220Y-136034780D02*
X151119840Y-135534400D01*
X151620220Y-136034780D02*
X151620220Y-153035000D01*
X137121900Y-138033760D02*
X140622020Y-138033760D01*
X137121900Y-136034780D02*
X137121900Y-138033760D01*
X136621520Y-135534400D02*
X137121900Y-136034780D01*
X134122160Y-135534400D02*
X136621520Y-135534400D01*
X133621780Y-136034780D02*
X134122160Y-135534400D01*
X133621780Y-136034780D02*
X133621780Y-153035000D01*
X132120640Y-154284680D02*
X151620220Y-154284680D01*
X151620220Y-154033220D02*
X133621780Y-154033220D01*
X133621780Y-153784300D02*
X153121360Y-153784300D01*
%TO.C,J4*%
X110761780Y-153784300D02*
X130261360Y-153784300D01*
X128760220Y-154033220D02*
X110761780Y-154033220D01*
X109260640Y-154284680D02*
X128760220Y-154284680D01*
X110761780Y-136034780D02*
X110761780Y-153035000D01*
X110761780Y-136034780D02*
X111262160Y-135534400D01*
X111262160Y-135534400D02*
X113761520Y-135534400D01*
X113761520Y-135534400D02*
X114261900Y-136034780D01*
X114261900Y-136034780D02*
X114261900Y-138033760D01*
X114261900Y-138033760D02*
X117762020Y-138033760D01*
X128760220Y-136034780D02*
X128760220Y-153035000D01*
X128760220Y-136034780D02*
X128259840Y-135534400D01*
X128259840Y-135534400D02*
X126260860Y-135534400D01*
X126260860Y-135534400D02*
X125760480Y-135534400D01*
X125760480Y-135534400D02*
X125260100Y-136034780D01*
X125260100Y-136034780D02*
X125260100Y-138033760D01*
X125260100Y-138033760D02*
X121759980Y-138033760D01*
X118259860Y-135534400D02*
X117762020Y-136034780D01*
X117762020Y-136034780D02*
X117762020Y-138033760D01*
X118259860Y-135534400D02*
X121262140Y-135534400D01*
X121262140Y-135534400D02*
X121759980Y-136034780D01*
X121759980Y-136034780D02*
X121759980Y-138033760D01*
X130261360Y-154033220D02*
X128760220Y-154033220D01*
X128760220Y-154033220D02*
X128760220Y-154533600D01*
X128760220Y-154533600D02*
X109260640Y-154533600D01*
X109260640Y-154033220D02*
X110761780Y-154033220D01*
X110761780Y-154033220D02*
X110761780Y-153532840D01*
X110761780Y-153532840D02*
X130261360Y-153532840D01*
X128760220Y-153035000D02*
X128259840Y-153035000D01*
X110761780Y-153035000D02*
X111262160Y-153035000D01*
X128259840Y-153532840D02*
X128259840Y-153035000D01*
X111262160Y-153035000D02*
X111262160Y-153532840D01*
X109260640Y-154533600D02*
X109260640Y-154033220D01*
X130261360Y-153532840D02*
X130261360Y-154033220D01*
D10*
%TO.C,U2*%
X89475000Y-96504000D02*
X89475000Y-101564000D01*
X89475000Y-101564000D02*
X150555000Y-101564000D01*
X150555000Y-101564000D02*
X150555000Y-89444000D01*
X150555000Y-89444000D02*
X89475000Y-89444000D01*
X89475000Y-89444000D02*
X89475000Y-94504000D01*
X89475000Y-94504000D02*
G75*
G02*
X89475000Y-96504000I0J-1000000D01*
G01*
%TO.C,R1*%
X169699000Y-130021064D02*
X169699000Y-129566936D01*
X171169000Y-130021064D02*
X171169000Y-129566936D01*
%TO.C,R2*%
X155929000Y-122655064D02*
X155929000Y-122200936D01*
X154459000Y-122655064D02*
X154459000Y-122200936D01*
%TO.C,R3*%
X128497000Y-129737064D02*
X128497000Y-129282936D01*
X127027000Y-129737064D02*
X127027000Y-129282936D01*
%TO.C,R4*%
X144880000Y-129282936D02*
X144880000Y-129737064D01*
X143410000Y-129282936D02*
X143410000Y-129737064D01*
%TO.C,R5*%
X66194000Y-117321064D02*
X66194000Y-116866936D01*
X67664000Y-117321064D02*
X67664000Y-116866936D01*
%TO.C,R6*%
X67664000Y-111633396D02*
X67664000Y-111179268D01*
X66194000Y-111633396D02*
X66194000Y-111179268D01*
%TO.C,R7*%
X66194000Y-105945730D02*
X66194000Y-105491602D01*
X67664000Y-105945730D02*
X67664000Y-105491602D01*
%TO.C,R8*%
X67664000Y-100258064D02*
X67664000Y-99803936D01*
X66194000Y-100258064D02*
X66194000Y-99803936D01*
%TO.C,FB1*%
X148309000Y-129801252D02*
X148309000Y-129278748D01*
X146839000Y-129801252D02*
X146839000Y-129278748D01*
%TO.C,FB2*%
X114073000Y-129801252D02*
X114073000Y-129278748D01*
X115543000Y-129801252D02*
X115543000Y-129278748D01*
%TO.C,FB3*%
X172747000Y-130076752D02*
X172747000Y-129554248D01*
X174217000Y-130076752D02*
X174217000Y-129554248D01*
%TO.C,FB4*%
X161263000Y-130055252D02*
X161263000Y-129532748D01*
X159793000Y-130055252D02*
X159793000Y-129532748D01*
%TO.C,FB5*%
X138403000Y-129278748D02*
X138403000Y-129801252D01*
X136933000Y-129278748D02*
X136933000Y-129801252D01*
%TO.C,FB6*%
X123979000Y-129278748D02*
X123979000Y-129801252D01*
X125449000Y-129278748D02*
X125449000Y-129801252D01*
%TO.C,R9*%
X111025000Y-129282936D02*
X111025000Y-129737064D01*
X112495000Y-129282936D02*
X112495000Y-129737064D01*
%TO.C,R10*%
X133123000Y-129737064D02*
X133123000Y-129282936D01*
X134593000Y-129737064D02*
X134593000Y-129282936D01*
%TO.C,U5*%
X136007000Y-118364000D02*
X136007000Y-114914000D01*
X136007000Y-118364000D02*
X136007000Y-120314000D01*
X127137000Y-118364000D02*
X127137000Y-116414000D01*
X127137000Y-118364000D02*
X127137000Y-120314000D01*
%TO.C,U1*%
X166608000Y-124774000D02*
X168843000Y-124774000D01*
X168843000Y-124774000D02*
X168843000Y-117034000D01*
X168843000Y-117034000D02*
X162373000Y-117034000D01*
X162373000Y-117034000D02*
X162373000Y-124774000D01*
X162373000Y-124774000D02*
X164608000Y-124774000D01*
X164608000Y-124774000D02*
G75*
G02*
X166608000Y-124774000I1000000J0D01*
G01*
%TO.C,C2*%
X241146000Y-120027748D02*
X241146000Y-120550252D01*
X239676000Y-120027748D02*
X239676000Y-120550252D01*
%TO.C,C3*%
X224436000Y-120007748D02*
X224436000Y-120530252D01*
X225906000Y-120007748D02*
X225906000Y-120530252D01*
%TO.C,C6*%
X84609000Y-122689252D02*
X84609000Y-122166748D01*
X86079000Y-122689252D02*
X86079000Y-122166748D01*
%TO.C,C7*%
X84609000Y-113784748D02*
X84609000Y-114307252D01*
X86079000Y-113784748D02*
X86079000Y-114307252D01*
%TO.C,J6*%
X234724000Y-146170000D02*
X234724000Y-154670000D01*
X234724000Y-154670000D02*
X225524000Y-154670000D01*
X225524000Y-154670000D02*
X225524000Y-139970000D01*
X232624000Y-139970000D02*
X234724000Y-139970000D01*
X234724000Y-139970000D02*
X234724000Y-141770000D01*
X226924000Y-139670000D02*
X225224000Y-139670000D01*
X225224000Y-139670000D02*
X225224000Y-141270000D01*
X225524000Y-139970000D02*
X227624000Y-139970000D01*
%TO.C,J7*%
X213554000Y-85538000D02*
X213554000Y-90738000D01*
X231394000Y-85538000D02*
X213554000Y-85538000D01*
X233994000Y-90738000D02*
X213554000Y-90738000D01*
X231394000Y-85538000D02*
X231394000Y-88138000D01*
X231394000Y-88138000D02*
X233994000Y-88138000D01*
X233994000Y-88138000D02*
X233994000Y-90738000D01*
X232664000Y-85538000D02*
X233994000Y-85538000D01*
X233994000Y-85538000D02*
X233994000Y-86868000D01*
%TO.C,R11*%
X98271000Y-122200936D02*
X98271000Y-122655064D01*
X96801000Y-122200936D02*
X96801000Y-122655064D01*
%TO.C,R12*%
X98271000Y-113818936D02*
X98271000Y-114273064D01*
X96801000Y-113818936D02*
X96801000Y-114273064D01*
%TO.C,R13*%
X92737000Y-122200936D02*
X92737000Y-122655064D01*
X94207000Y-122200936D02*
X94207000Y-122655064D01*
%TO.C,R14*%
X92737000Y-113818936D02*
X92737000Y-114273064D01*
X94207000Y-113818936D02*
X94207000Y-114273064D01*
%TO.C,R15*%
X86641000Y-122655064D02*
X86641000Y-122200936D01*
X88111000Y-122655064D02*
X88111000Y-122200936D01*
%TO.C,R16*%
X86641000Y-113818936D02*
X86641000Y-114273064D01*
X88111000Y-113818936D02*
X88111000Y-114273064D01*
%TO.C,R17*%
X92175000Y-122655064D02*
X92175000Y-122200936D01*
X90705000Y-122655064D02*
X90705000Y-122200936D01*
%TO.C,R18*%
X90705000Y-114273064D02*
X90705000Y-113818936D01*
X92175000Y-114273064D02*
X92175000Y-113818936D01*
%TO.C,U6*%
X223501000Y-118486000D02*
X222241000Y-118486000D01*
X216681000Y-118486000D02*
X217941000Y-118486000D01*
X223501000Y-122246000D02*
X223501000Y-118486000D01*
X216681000Y-124496000D02*
X216681000Y-118486000D01*
%TO.C,U7*%
X231921000Y-124496000D02*
X231921000Y-118486000D01*
X238741000Y-122246000D02*
X238741000Y-118486000D01*
X231921000Y-118486000D02*
X233181000Y-118486000D01*
X238741000Y-118486000D02*
X237481000Y-118486000D01*
%TO.C,U8*%
X79502000Y-113662000D02*
X76742000Y-113662000D01*
X76742000Y-113662000D02*
X76742000Y-114502000D01*
X79502000Y-113662000D02*
X82262000Y-113662000D01*
X82262000Y-113662000D02*
X82262000Y-114502000D01*
X79502000Y-124082000D02*
X76742000Y-124082000D01*
X76742000Y-124082000D02*
X76742000Y-123242000D01*
X79502000Y-124082000D02*
X82262000Y-124082000D01*
X82262000Y-124082000D02*
X82262000Y-123242000D01*
X82262000Y-123242000D02*
X83952000Y-123242000D01*
%TO.C,D1*%
X162916500Y-131694000D02*
X162916500Y-128544000D01*
X164616500Y-131694000D02*
X164616500Y-128544000D01*
X162916500Y-131694000D02*
X164616500Y-131694000D01*
%TO.C,C4*%
X215946000Y-121909000D02*
X215946000Y-117824000D01*
X215946000Y-117824000D02*
X214076000Y-117824000D01*
X214076000Y-117824000D02*
X214076000Y-121909000D01*
%TO.C,C5*%
X229189000Y-117911000D02*
X229189000Y-121996000D01*
X231059000Y-117911000D02*
X229189000Y-117911000D01*
X231059000Y-121996000D02*
X231059000Y-117911000D01*
%TO.C,U9*%
X223054001Y-98082001D02*
X219604001Y-98082001D01*
X223054001Y-98082001D02*
X225004001Y-98082001D01*
X223054001Y-103202001D02*
X221104001Y-103202001D01*
X223054001Y-103202001D02*
X225004001Y-103202001D01*
%TO.C,D7*%
X64460000Y-95361000D02*
X64460000Y-92501000D01*
X64460000Y-92501000D02*
X62540000Y-92501000D01*
X62540000Y-92501000D02*
X62540000Y-95361000D01*
%TO.C,R19*%
X66194000Y-94588064D02*
X66194000Y-94133936D01*
X67664000Y-94588064D02*
X67664000Y-94133936D01*
%TO.C,J8*%
X104693000Y-154584000D02*
X104693000Y-163434000D01*
X93453000Y-163434000D02*
X104693000Y-163434000D01*
X93453000Y-154584000D02*
X93453000Y-163434000D01*
X94603000Y-130344000D02*
X94603000Y-133344000D01*
X89853000Y-154584000D02*
X93453000Y-154584000D01*
X108293000Y-154584000D02*
X108293000Y-151464000D01*
X89853000Y-154584000D02*
X89853000Y-151464000D01*
X89853000Y-136064000D02*
X89853000Y-133344000D01*
X89853000Y-142414000D02*
X89853000Y-138814000D01*
X89853000Y-148714000D02*
X89853000Y-145114000D01*
X108293000Y-145114000D02*
X108293000Y-148714000D01*
X108293000Y-138814000D02*
X108293000Y-142414000D01*
X108293000Y-133344000D02*
X108293000Y-136064000D01*
X89853000Y-133344000D02*
X94603000Y-133344000D01*
X94643000Y-130344000D02*
X103543000Y-130344000D01*
X103543000Y-130344000D02*
X103543000Y-133344000D01*
X103543000Y-133344000D02*
X108293000Y-133344000D01*
X104693000Y-154584000D02*
X108293000Y-154584000D01*
%TO.C,J9*%
X83357000Y-154584000D02*
X86957000Y-154584000D01*
X82207000Y-133344000D02*
X86957000Y-133344000D01*
X82207000Y-130344000D02*
X82207000Y-133344000D01*
X73307000Y-130344000D02*
X82207000Y-130344000D01*
X68517000Y-133344000D02*
X73267000Y-133344000D01*
X86957000Y-133344000D02*
X86957000Y-136064000D01*
X86957000Y-138814000D02*
X86957000Y-142414000D01*
X86957000Y-145114000D02*
X86957000Y-148714000D01*
X68517000Y-148714000D02*
X68517000Y-145114000D01*
X68517000Y-142414000D02*
X68517000Y-138814000D01*
X68517000Y-136064000D02*
X68517000Y-133344000D01*
X68517000Y-154584000D02*
X68517000Y-151464000D01*
X86957000Y-154584000D02*
X86957000Y-151464000D01*
X68517000Y-154584000D02*
X72117000Y-154584000D01*
X73267000Y-130344000D02*
X73267000Y-133344000D01*
X72117000Y-154584000D02*
X72117000Y-163434000D01*
X72117000Y-163434000D02*
X83357000Y-163434000D01*
X83357000Y-154584000D02*
X83357000Y-163434000D01*
%TO.C,C11*%
X84609000Y-118117252D02*
X84609000Y-117594748D01*
X86079000Y-118117252D02*
X86079000Y-117594748D01*
%TO.C,C12*%
X88673000Y-114307252D02*
X88673000Y-113784748D01*
X90143000Y-114307252D02*
X90143000Y-113784748D01*
%TO.C,C13*%
X90143000Y-122689252D02*
X90143000Y-122166748D01*
X88673000Y-122689252D02*
X88673000Y-122166748D01*
%TO.C,C8*%
X229335000Y-100322748D02*
X229335000Y-100845252D01*
X227865000Y-100322748D02*
X227865000Y-100845252D01*
%TO.C,C9*%
X218413000Y-100322748D02*
X218413000Y-100845252D01*
X216943000Y-100322748D02*
X216943000Y-100845252D01*
%TO.C,C14*%
X94769000Y-122166748D02*
X94769000Y-122689252D01*
X96239000Y-122166748D02*
X96239000Y-122689252D01*
%TO.C,C15*%
X96239000Y-114307252D02*
X96239000Y-113784748D01*
X94769000Y-114307252D02*
X94769000Y-113784748D01*
%TO.C,R20*%
X178843000Y-88111064D02*
X178843000Y-87656936D01*
X180313000Y-88111064D02*
X180313000Y-87656936D01*
%TO.C,R21*%
X205309736Y-102436600D02*
X205763864Y-102436600D01*
X205309736Y-100966600D02*
X205763864Y-100966600D01*
%TO.C,C17*%
X169953000Y-87622748D02*
X169953000Y-88145252D01*
X171423000Y-87622748D02*
X171423000Y-88145252D01*
%TO.C,C18*%
X205747252Y-105941800D02*
X205224748Y-105941800D01*
X205747252Y-104471800D02*
X205224748Y-104471800D01*
%TO.C,R22*%
X171985000Y-87656936D02*
X171985000Y-88111064D01*
X173455000Y-87656936D02*
X173455000Y-88111064D01*
%TO.C,R23*%
X211301064Y-97305800D02*
X210846936Y-97305800D01*
X211301064Y-95835800D02*
X210846936Y-95835800D01*
%TO.C,D6*%
X235830000Y-127230000D02*
X231530000Y-127230000D01*
X231530000Y-127230000D02*
X231530000Y-134780000D01*
X235830000Y-127230000D02*
X235830000Y-134780000D01*
%TO.C,D9*%
X228210000Y-127230000D02*
X228210000Y-134780000D01*
X223910000Y-127230000D02*
X223910000Y-134780000D01*
X228210000Y-127230000D02*
X223910000Y-127230000D01*
%TO.C,D8*%
X234814000Y-95586000D02*
X230514000Y-95586000D01*
X230514000Y-95586000D02*
X230514000Y-103136000D01*
X234814000Y-95586000D02*
X234814000Y-103136000D01*
%TO.C,C10*%
X197619252Y-141251000D02*
X197096748Y-141251000D01*
X197619252Y-142721000D02*
X197096748Y-142721000D01*
%TO.C,C16*%
X192270748Y-138149000D02*
X192793252Y-138149000D01*
X192270748Y-136679000D02*
X192793252Y-136679000D01*
%TO.C,C19*%
X192270748Y-134647000D02*
X192793252Y-134647000D01*
X192270748Y-136117000D02*
X192793252Y-136117000D01*
%TO.C,R24*%
X187732936Y-141251000D02*
X188187064Y-141251000D01*
X187732936Y-142721000D02*
X188187064Y-142721000D01*
%TO.C,R25*%
X184123000Y-151103064D02*
X184123000Y-150648936D01*
X182653000Y-151103064D02*
X182653000Y-150648936D01*
%TO.C,C20*%
X197004000Y-118737748D02*
X197004000Y-119260252D01*
X198474000Y-118737748D02*
X198474000Y-119260252D01*
%TO.C,C21*%
X196188000Y-118737748D02*
X196188000Y-119260252D01*
X194718000Y-118737748D02*
X194718000Y-119260252D01*
D16*
%TO.C,J10*%
X198084000Y-149115000D02*
X198084000Y-150365000D01*
X188504000Y-149115000D02*
X188504000Y-150365000D01*
X198084000Y-154365000D02*
X198084000Y-153085000D01*
X188504000Y-154365000D02*
X198084000Y-154365000D01*
X188504000Y-153085000D02*
X188504000Y-154365000D01*
D10*
%TO.C,R26*%
X188187000Y-137567936D02*
X188187000Y-138022064D01*
X186717000Y-137567936D02*
X186717000Y-138022064D01*
%TO.C,R27*%
X184685000Y-137567936D02*
X184685000Y-138022064D01*
X186155000Y-137567936D02*
X186155000Y-138022064D01*
%TO.C,D10*%
X222241000Y-104878000D02*
X222241000Y-112428000D01*
X217941000Y-104878000D02*
X217941000Y-112428000D01*
X222241000Y-104878000D02*
X217941000Y-104878000D01*
D16*
%TO.C,IC1*%
X175072000Y-88411000D02*
G75*
G03*
X175072000Y-88411000I-100000J0D01*
G01*
D11*
X174572000Y-87211000D02*
X177472000Y-87211000D01*
X177472000Y-87211000D02*
X177472000Y-88811000D01*
X177472000Y-88811000D02*
X174572000Y-88811000D01*
X174572000Y-88811000D02*
X174572000Y-87211000D01*
%TO.C,IC2*%
X206936000Y-96863000D02*
X206936000Y-98463000D01*
X204036000Y-96863000D02*
X206936000Y-96863000D01*
X204036000Y-98463000D02*
X204036000Y-96863000D01*
X206936000Y-98463000D02*
X204036000Y-98463000D01*
D16*
X206636000Y-97263000D02*
G75*
G03*
X206636000Y-97263000I-100000J0D01*
G01*
%TO.C,U10*%
D11*
X198234380Y-130778095D02*
X199043904Y-130778095D01*
X199139142Y-130730476D01*
X199186761Y-130682857D01*
X199234380Y-130587619D01*
X199234380Y-130397142D01*
X199186761Y-130301904D01*
X199139142Y-130254285D01*
X199043904Y-130206666D01*
X198234380Y-130206666D01*
X199234380Y-129206666D02*
X199234380Y-129778095D01*
X199234380Y-129492380D02*
X198234380Y-129492380D01*
X198377238Y-129587619D01*
X198472476Y-129682857D01*
X198520095Y-129778095D01*
X198234380Y-128587619D02*
X198234380Y-128492380D01*
X198282000Y-128397142D01*
X198329619Y-128349523D01*
X198424857Y-128301904D01*
X198615333Y-128254285D01*
X198853428Y-128254285D01*
X199043904Y-128301904D01*
X199139142Y-128349523D01*
X199186761Y-128397142D01*
X199234380Y-128492380D01*
X199234380Y-128587619D01*
X199186761Y-128682857D01*
X199139142Y-128730476D01*
X199043904Y-128778095D01*
X198853428Y-128825714D01*
X198615333Y-128825714D01*
X198424857Y-128778095D01*
X198329619Y-128730476D01*
X198282000Y-128682857D01*
X198234380Y-128587619D01*
%TO.C,J5*%
D17*
X205298523Y-150537333D02*
X206205666Y-150537333D01*
X206387095Y-150597809D01*
X206508047Y-150718761D01*
X206568523Y-150900190D01*
X206568523Y-151021142D01*
X205298523Y-149327809D02*
X205298523Y-149932571D01*
X205903285Y-149993047D01*
X205842809Y-149932571D01*
X205782333Y-149811619D01*
X205782333Y-149509238D01*
X205842809Y-149388285D01*
X205903285Y-149327809D01*
X206024238Y-149267333D01*
X206326619Y-149267333D01*
X206447571Y-149327809D01*
X206508047Y-149388285D01*
X206568523Y-149509238D01*
X206568523Y-149811619D01*
X206508047Y-149932571D01*
X206447571Y-149993047D01*
%TO.C,U4*%
D11*
X191516095Y-113244380D02*
X191516095Y-114053904D01*
X191563714Y-114149142D01*
X191611333Y-114196761D01*
X191706571Y-114244380D01*
X191897047Y-114244380D01*
X191992285Y-114196761D01*
X192039904Y-114149142D01*
X192087523Y-114053904D01*
X192087523Y-113244380D01*
X192992285Y-113577714D02*
X192992285Y-114244380D01*
X192754190Y-113196761D02*
X192516095Y-113911047D01*
X193135142Y-113911047D01*
X188857380Y-114641380D02*
X188857380Y-115450904D01*
X188905000Y-115546142D01*
X188952619Y-115593761D01*
X189047857Y-115641380D01*
X189238333Y-115641380D01*
X189333571Y-115593761D01*
X189381190Y-115546142D01*
X189428809Y-115450904D01*
X189428809Y-114641380D01*
X189905000Y-115641380D02*
X189905000Y-114641380D01*
X190143095Y-114641380D01*
X190285952Y-114689000D01*
X190381190Y-114784238D01*
X190428809Y-114879476D01*
X190476428Y-115069952D01*
X190476428Y-115212809D01*
X190428809Y-115403285D01*
X190381190Y-115498523D01*
X190285952Y-115593761D01*
X190143095Y-115641380D01*
X189905000Y-115641380D01*
X190857380Y-115355666D02*
X191333571Y-115355666D01*
X190762142Y-115641380D02*
X191095476Y-114641380D01*
X191428809Y-115641380D01*
X192285952Y-115641380D02*
X191714523Y-115641380D01*
X192000238Y-115641380D02*
X192000238Y-114641380D01*
X191905000Y-114784238D01*
X191809761Y-114879476D01*
X191714523Y-114927095D01*
X192619285Y-114641380D02*
X193238333Y-114641380D01*
X192905000Y-115022333D01*
X193047857Y-115022333D01*
X193143095Y-115069952D01*
X193190714Y-115117571D01*
X193238333Y-115212809D01*
X193238333Y-115450904D01*
X193190714Y-115546142D01*
X193143095Y-115593761D01*
X193047857Y-115641380D01*
X192762142Y-115641380D01*
X192666904Y-115593761D01*
X192619285Y-115546142D01*
X193571666Y-114641380D02*
X194190714Y-114641380D01*
X193857380Y-115022333D01*
X194000238Y-115022333D01*
X194095476Y-115069952D01*
X194143095Y-115117571D01*
X194190714Y-115212809D01*
X194190714Y-115450904D01*
X194143095Y-115546142D01*
X194095476Y-115593761D01*
X194000238Y-115641380D01*
X193714523Y-115641380D01*
X193619285Y-115593761D01*
X193571666Y-115546142D01*
X195047857Y-114974714D02*
X195047857Y-115641380D01*
X194809761Y-114593761D02*
X194571666Y-115308047D01*
X195190714Y-115308047D01*
X195524047Y-115355666D02*
X196000238Y-115355666D01*
X195428809Y-115641380D02*
X195762142Y-114641380D01*
X196095476Y-115641380D01*
%TO.C,J2*%
X182546666Y-84288380D02*
X182546666Y-85002666D01*
X182499047Y-85145523D01*
X182403809Y-85240761D01*
X182260952Y-85288380D01*
X182165714Y-85288380D01*
X182975238Y-84383619D02*
X183022857Y-84336000D01*
X183118095Y-84288380D01*
X183356190Y-84288380D01*
X183451428Y-84336000D01*
X183499047Y-84383619D01*
X183546666Y-84478857D01*
X183546666Y-84574095D01*
X183499047Y-84716952D01*
X182927619Y-85288380D01*
X183546666Y-85288380D01*
%TO.C,U3*%
X75364380Y-99059904D02*
X76173904Y-99059904D01*
X76269142Y-99012285D01*
X76316761Y-98964666D01*
X76364380Y-98869428D01*
X76364380Y-98678952D01*
X76316761Y-98583714D01*
X76269142Y-98536095D01*
X76173904Y-98488476D01*
X75364380Y-98488476D01*
X75364380Y-98107523D02*
X75364380Y-97488476D01*
X75745333Y-97821809D01*
X75745333Y-97678952D01*
X75792952Y-97583714D01*
X75840571Y-97536095D01*
X75935809Y-97488476D01*
X76173904Y-97488476D01*
X76269142Y-97536095D01*
X76316761Y-97583714D01*
X76364380Y-97678952D01*
X76364380Y-97964666D01*
X76316761Y-98059904D01*
X76269142Y-98107523D01*
X82639619Y-100917047D02*
X82592000Y-100869428D01*
X82544380Y-100774190D01*
X82544380Y-100536095D01*
X82592000Y-100440857D01*
X82639619Y-100393238D01*
X82734857Y-100345619D01*
X82830095Y-100345619D01*
X82972952Y-100393238D01*
X83544380Y-100964666D01*
X83544380Y-100345619D01*
X82877714Y-99488476D02*
X83544380Y-99488476D01*
X82496761Y-99726571D02*
X83211047Y-99964666D01*
X83211047Y-99345619D01*
X83544380Y-98488476D02*
X83544380Y-98964666D01*
X82544380Y-98964666D01*
X83449142Y-97583714D02*
X83496761Y-97631333D01*
X83544380Y-97774190D01*
X83544380Y-97869428D01*
X83496761Y-98012285D01*
X83401523Y-98107523D01*
X83306285Y-98155142D01*
X83115809Y-98202761D01*
X82972952Y-98202761D01*
X82782476Y-98155142D01*
X82687238Y-98107523D01*
X82592000Y-98012285D01*
X82544380Y-97869428D01*
X82544380Y-97774190D01*
X82592000Y-97631333D01*
X82639619Y-97583714D01*
X83544380Y-96631333D02*
X83544380Y-97202761D01*
X83544380Y-96917047D02*
X82544380Y-96917047D01*
X82687238Y-97012285D01*
X82782476Y-97107523D01*
X82830095Y-97202761D01*
X82544380Y-96012285D02*
X82544380Y-95917047D01*
X82592000Y-95821809D01*
X82639619Y-95774190D01*
X82734857Y-95726571D01*
X82925333Y-95678952D01*
X83163428Y-95678952D01*
X83353904Y-95726571D01*
X83449142Y-95774190D01*
X83496761Y-95821809D01*
X83544380Y-95917047D01*
X83544380Y-96012285D01*
X83496761Y-96107523D01*
X83449142Y-96155142D01*
X83353904Y-96202761D01*
X83163428Y-96250380D01*
X82925333Y-96250380D01*
X82734857Y-96202761D01*
X82639619Y-96155142D01*
X82592000Y-96107523D01*
X82544380Y-96012285D01*
%TO.C,C1*%
X223877142Y-148375666D02*
X223924761Y-148423285D01*
X223972380Y-148566142D01*
X223972380Y-148661380D01*
X223924761Y-148804238D01*
X223829523Y-148899476D01*
X223734285Y-148947095D01*
X223543809Y-148994714D01*
X223400952Y-148994714D01*
X223210476Y-148947095D01*
X223115238Y-148899476D01*
X223020000Y-148804238D01*
X222972380Y-148661380D01*
X222972380Y-148566142D01*
X223020000Y-148423285D01*
X223067619Y-148375666D01*
X223972380Y-147423285D02*
X223972380Y-147994714D01*
X223972380Y-147709000D02*
X222972380Y-147709000D01*
X223115238Y-147804238D01*
X223210476Y-147899476D01*
X223258095Y-147994714D01*
%TO.C,D2*%
X65730380Y-117877095D02*
X64730380Y-117877095D01*
X64730380Y-117639000D01*
X64778000Y-117496142D01*
X64873238Y-117400904D01*
X64968476Y-117353285D01*
X65158952Y-117305666D01*
X65301809Y-117305666D01*
X65492285Y-117353285D01*
X65587523Y-117400904D01*
X65682761Y-117496142D01*
X65730380Y-117639000D01*
X65730380Y-117877095D01*
X64825619Y-116924714D02*
X64778000Y-116877095D01*
X64730380Y-116781857D01*
X64730380Y-116543761D01*
X64778000Y-116448523D01*
X64825619Y-116400904D01*
X64920857Y-116353285D01*
X65016095Y-116353285D01*
X65158952Y-116400904D01*
X65730380Y-116972333D01*
X65730380Y-116353285D01*
%TO.C,D3*%
X65730380Y-112189427D02*
X64730380Y-112189427D01*
X64730380Y-111951332D01*
X64778000Y-111808474D01*
X64873238Y-111713236D01*
X64968476Y-111665617D01*
X65158952Y-111617998D01*
X65301809Y-111617998D01*
X65492285Y-111665617D01*
X65587523Y-111713236D01*
X65682761Y-111808474D01*
X65730380Y-111951332D01*
X65730380Y-112189427D01*
X64730380Y-111284665D02*
X64730380Y-110665617D01*
X65111333Y-110998951D01*
X65111333Y-110856093D01*
X65158952Y-110760855D01*
X65206571Y-110713236D01*
X65301809Y-110665617D01*
X65539904Y-110665617D01*
X65635142Y-110713236D01*
X65682761Y-110760855D01*
X65730380Y-110856093D01*
X65730380Y-111141808D01*
X65682761Y-111237046D01*
X65635142Y-111284665D01*
%TO.C,D4*%
X65730380Y-106501761D02*
X64730380Y-106501761D01*
X64730380Y-106263666D01*
X64778000Y-106120808D01*
X64873238Y-106025570D01*
X64968476Y-105977951D01*
X65158952Y-105930332D01*
X65301809Y-105930332D01*
X65492285Y-105977951D01*
X65587523Y-106025570D01*
X65682761Y-106120808D01*
X65730380Y-106263666D01*
X65730380Y-106501761D01*
X65063714Y-105073189D02*
X65730380Y-105073189D01*
X64682761Y-105311285D02*
X65397047Y-105549380D01*
X65397047Y-104930332D01*
%TO.C,D5*%
X65730380Y-100814095D02*
X64730380Y-100814095D01*
X64730380Y-100576000D01*
X64778000Y-100433142D01*
X64873238Y-100337904D01*
X64968476Y-100290285D01*
X65158952Y-100242666D01*
X65301809Y-100242666D01*
X65492285Y-100290285D01*
X65587523Y-100337904D01*
X65682761Y-100433142D01*
X65730380Y-100576000D01*
X65730380Y-100814095D01*
X64730380Y-99337904D02*
X64730380Y-99814095D01*
X65206571Y-99861714D01*
X65158952Y-99814095D01*
X65111333Y-99718857D01*
X65111333Y-99480761D01*
X65158952Y-99385523D01*
X65206571Y-99337904D01*
X65301809Y-99290285D01*
X65539904Y-99290285D01*
X65635142Y-99337904D01*
X65682761Y-99385523D01*
X65730380Y-99480761D01*
X65730380Y-99718857D01*
X65682761Y-99814095D01*
X65635142Y-99861714D01*
%TO.C,J1*%
D12*
X164981000Y-149927571D02*
X164981000Y-150999000D01*
X164909571Y-151213285D01*
X164766714Y-151356142D01*
X164552428Y-151427571D01*
X164409571Y-151427571D01*
X166481000Y-151427571D02*
X165623857Y-151427571D01*
X166052428Y-151427571D02*
X166052428Y-149927571D01*
X165909571Y-150141857D01*
X165766714Y-150284714D01*
X165623857Y-150356142D01*
%TO.C,J3*%
X142121000Y-149927571D02*
X142121000Y-150999000D01*
X142049571Y-151213285D01*
X141906714Y-151356142D01*
X141692428Y-151427571D01*
X141549571Y-151427571D01*
X142692428Y-149927571D02*
X143621000Y-149927571D01*
X143121000Y-150499000D01*
X143335285Y-150499000D01*
X143478142Y-150570428D01*
X143549571Y-150641857D01*
X143621000Y-150784714D01*
X143621000Y-151141857D01*
X143549571Y-151284714D01*
X143478142Y-151356142D01*
X143335285Y-151427571D01*
X142906714Y-151427571D01*
X142763857Y-151356142D01*
X142692428Y-151284714D01*
%TO.C,J4*%
X119261000Y-149927571D02*
X119261000Y-150999000D01*
X119189571Y-151213285D01*
X119046714Y-151356142D01*
X118832428Y-151427571D01*
X118689571Y-151427571D01*
X120618142Y-150427571D02*
X120618142Y-151427571D01*
X120261000Y-149856142D02*
X119903857Y-150927571D01*
X120832428Y-150927571D01*
%TO.C,U2*%
D11*
X87927380Y-96265904D02*
X88736904Y-96265904D01*
X88832142Y-96218285D01*
X88879761Y-96170666D01*
X88927380Y-96075428D01*
X88927380Y-95884952D01*
X88879761Y-95789714D01*
X88832142Y-95742095D01*
X88736904Y-95694476D01*
X87927380Y-95694476D01*
X88022619Y-95265904D02*
X87975000Y-95218285D01*
X87927380Y-95123047D01*
X87927380Y-94884952D01*
X87975000Y-94789714D01*
X88022619Y-94742095D01*
X88117857Y-94694476D01*
X88213095Y-94694476D01*
X88355952Y-94742095D01*
X88927380Y-95313523D01*
X88927380Y-94694476D01*
%TO.C,R1*%
X169236380Y-129960666D02*
X168760190Y-130294000D01*
X169236380Y-130532095D02*
X168236380Y-130532095D01*
X168236380Y-130151142D01*
X168284000Y-130055904D01*
X168331619Y-130008285D01*
X168426857Y-129960666D01*
X168569714Y-129960666D01*
X168664952Y-130008285D01*
X168712571Y-130055904D01*
X168760190Y-130151142D01*
X168760190Y-130532095D01*
X169236380Y-129008285D02*
X169236380Y-129579714D01*
X169236380Y-129294000D02*
X168236380Y-129294000D01*
X168379238Y-129389238D01*
X168474476Y-129484476D01*
X168522095Y-129579714D01*
%TO.C,R2*%
X153996380Y-122594666D02*
X153520190Y-122928000D01*
X153996380Y-123166095D02*
X152996380Y-123166095D01*
X152996380Y-122785142D01*
X153044000Y-122689904D01*
X153091619Y-122642285D01*
X153186857Y-122594666D01*
X153329714Y-122594666D01*
X153424952Y-122642285D01*
X153472571Y-122689904D01*
X153520190Y-122785142D01*
X153520190Y-123166095D01*
X153091619Y-122213714D02*
X153044000Y-122166095D01*
X152996380Y-122070857D01*
X152996380Y-121832761D01*
X153044000Y-121737523D01*
X153091619Y-121689904D01*
X153186857Y-121642285D01*
X153282095Y-121642285D01*
X153424952Y-121689904D01*
X153996380Y-122261333D01*
X153996380Y-121642285D01*
%TO.C,R3*%
X126817380Y-129676666D02*
X126341190Y-130010000D01*
X126817380Y-130248095D02*
X125817380Y-130248095D01*
X125817380Y-129867142D01*
X125865000Y-129771904D01*
X125912619Y-129724285D01*
X126007857Y-129676666D01*
X126150714Y-129676666D01*
X126245952Y-129724285D01*
X126293571Y-129771904D01*
X126341190Y-129867142D01*
X126341190Y-130248095D01*
X125817380Y-129343333D02*
X125817380Y-128724285D01*
X126198333Y-129057619D01*
X126198333Y-128914761D01*
X126245952Y-128819523D01*
X126293571Y-128771904D01*
X126388809Y-128724285D01*
X126626904Y-128724285D01*
X126722142Y-128771904D01*
X126769761Y-128819523D01*
X126817380Y-128914761D01*
X126817380Y-129200476D01*
X126769761Y-129295714D01*
X126722142Y-129343333D01*
%TO.C,R4*%
X142946380Y-129676666D02*
X142470190Y-130010000D01*
X142946380Y-130248095D02*
X141946380Y-130248095D01*
X141946380Y-129867142D01*
X141994000Y-129771904D01*
X142041619Y-129724285D01*
X142136857Y-129676666D01*
X142279714Y-129676666D01*
X142374952Y-129724285D01*
X142422571Y-129771904D01*
X142470190Y-129867142D01*
X142470190Y-130248095D01*
X142279714Y-128819523D02*
X142946380Y-128819523D01*
X141898761Y-129057619D02*
X142613047Y-129295714D01*
X142613047Y-128676666D01*
%TO.C,R5*%
X69159380Y-117260666D02*
X68683190Y-117594000D01*
X69159380Y-117832095D02*
X68159380Y-117832095D01*
X68159380Y-117451142D01*
X68207000Y-117355904D01*
X68254619Y-117308285D01*
X68349857Y-117260666D01*
X68492714Y-117260666D01*
X68587952Y-117308285D01*
X68635571Y-117355904D01*
X68683190Y-117451142D01*
X68683190Y-117832095D01*
X68159380Y-116355904D02*
X68159380Y-116832095D01*
X68635571Y-116879714D01*
X68587952Y-116832095D01*
X68540333Y-116736857D01*
X68540333Y-116498761D01*
X68587952Y-116403523D01*
X68635571Y-116355904D01*
X68730809Y-116308285D01*
X68968904Y-116308285D01*
X69064142Y-116355904D01*
X69111761Y-116403523D01*
X69159380Y-116498761D01*
X69159380Y-116736857D01*
X69111761Y-116832095D01*
X69064142Y-116879714D01*
%TO.C,R6*%
X69159380Y-111572998D02*
X68683190Y-111906332D01*
X69159380Y-112144427D02*
X68159380Y-112144427D01*
X68159380Y-111763474D01*
X68207000Y-111668236D01*
X68254619Y-111620617D01*
X68349857Y-111572998D01*
X68492714Y-111572998D01*
X68587952Y-111620617D01*
X68635571Y-111668236D01*
X68683190Y-111763474D01*
X68683190Y-112144427D01*
X68159380Y-110715855D02*
X68159380Y-110906332D01*
X68207000Y-111001570D01*
X68254619Y-111049189D01*
X68397476Y-111144427D01*
X68587952Y-111192046D01*
X68968904Y-111192046D01*
X69064142Y-111144427D01*
X69111761Y-111096808D01*
X69159380Y-111001570D01*
X69159380Y-110811093D01*
X69111761Y-110715855D01*
X69064142Y-110668236D01*
X68968904Y-110620617D01*
X68730809Y-110620617D01*
X68635571Y-110668236D01*
X68587952Y-110715855D01*
X68540333Y-110811093D01*
X68540333Y-111001570D01*
X68587952Y-111096808D01*
X68635571Y-111144427D01*
X68730809Y-111192046D01*
%TO.C,R7*%
X69159380Y-105885332D02*
X68683190Y-106218666D01*
X69159380Y-106456761D02*
X68159380Y-106456761D01*
X68159380Y-106075808D01*
X68207000Y-105980570D01*
X68254619Y-105932951D01*
X68349857Y-105885332D01*
X68492714Y-105885332D01*
X68587952Y-105932951D01*
X68635571Y-105980570D01*
X68683190Y-106075808D01*
X68683190Y-106456761D01*
X68159380Y-105551999D02*
X68159380Y-104885332D01*
X69159380Y-105313904D01*
%TO.C,R8*%
X69159380Y-100197666D02*
X68683190Y-100531000D01*
X69159380Y-100769095D02*
X68159380Y-100769095D01*
X68159380Y-100388142D01*
X68207000Y-100292904D01*
X68254619Y-100245285D01*
X68349857Y-100197666D01*
X68492714Y-100197666D01*
X68587952Y-100245285D01*
X68635571Y-100292904D01*
X68683190Y-100388142D01*
X68683190Y-100769095D01*
X68587952Y-99626238D02*
X68540333Y-99721476D01*
X68492714Y-99769095D01*
X68397476Y-99816714D01*
X68349857Y-99816714D01*
X68254619Y-99769095D01*
X68207000Y-99721476D01*
X68159380Y-99626238D01*
X68159380Y-99435761D01*
X68207000Y-99340523D01*
X68254619Y-99292904D01*
X68349857Y-99245285D01*
X68397476Y-99245285D01*
X68492714Y-99292904D01*
X68540333Y-99340523D01*
X68587952Y-99435761D01*
X68587952Y-99626238D01*
X68635571Y-99721476D01*
X68683190Y-99769095D01*
X68778428Y-99816714D01*
X68968904Y-99816714D01*
X69064142Y-99769095D01*
X69111761Y-99721476D01*
X69159380Y-99626238D01*
X69159380Y-99435761D01*
X69111761Y-99340523D01*
X69064142Y-99292904D01*
X68968904Y-99245285D01*
X68778428Y-99245285D01*
X68683190Y-99292904D01*
X68635571Y-99340523D01*
X68587952Y-99435761D01*
%TO.C,FB1*%
X145851571Y-130373333D02*
X145851571Y-130706666D01*
X146375380Y-130706666D02*
X145375380Y-130706666D01*
X145375380Y-130230476D01*
X145851571Y-129516190D02*
X145899190Y-129373333D01*
X145946809Y-129325714D01*
X146042047Y-129278095D01*
X146184904Y-129278095D01*
X146280142Y-129325714D01*
X146327761Y-129373333D01*
X146375380Y-129468571D01*
X146375380Y-129849523D01*
X145375380Y-129849523D01*
X145375380Y-129516190D01*
X145423000Y-129420952D01*
X145470619Y-129373333D01*
X145565857Y-129325714D01*
X145661095Y-129325714D01*
X145756333Y-129373333D01*
X145803952Y-129420952D01*
X145851571Y-129516190D01*
X145851571Y-129849523D01*
X146375380Y-128325714D02*
X146375380Y-128897142D01*
X146375380Y-128611428D02*
X145375380Y-128611428D01*
X145518238Y-128706666D01*
X145613476Y-128801904D01*
X145661095Y-128897142D01*
%TO.C,FB2*%
X113339571Y-130373333D02*
X113339571Y-130706666D01*
X113863380Y-130706666D02*
X112863380Y-130706666D01*
X112863380Y-130230476D01*
X113339571Y-129516190D02*
X113387190Y-129373333D01*
X113434809Y-129325714D01*
X113530047Y-129278095D01*
X113672904Y-129278095D01*
X113768142Y-129325714D01*
X113815761Y-129373333D01*
X113863380Y-129468571D01*
X113863380Y-129849523D01*
X112863380Y-129849523D01*
X112863380Y-129516190D01*
X112911000Y-129420952D01*
X112958619Y-129373333D01*
X113053857Y-129325714D01*
X113149095Y-129325714D01*
X113244333Y-129373333D01*
X113291952Y-129420952D01*
X113339571Y-129516190D01*
X113339571Y-129849523D01*
X112958619Y-128897142D02*
X112911000Y-128849523D01*
X112863380Y-128754285D01*
X112863380Y-128516190D01*
X112911000Y-128420952D01*
X112958619Y-128373333D01*
X113053857Y-128325714D01*
X113149095Y-128325714D01*
X113291952Y-128373333D01*
X113863380Y-128944761D01*
X113863380Y-128325714D01*
%TO.C,FB3*%
X171886571Y-130754333D02*
X171886571Y-131087666D01*
X172410380Y-131087666D02*
X171410380Y-131087666D01*
X171410380Y-130611476D01*
X171886571Y-129897190D02*
X171934190Y-129754333D01*
X171981809Y-129706714D01*
X172077047Y-129659095D01*
X172219904Y-129659095D01*
X172315142Y-129706714D01*
X172362761Y-129754333D01*
X172410380Y-129849571D01*
X172410380Y-130230523D01*
X171410380Y-130230523D01*
X171410380Y-129897190D01*
X171458000Y-129801952D01*
X171505619Y-129754333D01*
X171600857Y-129706714D01*
X171696095Y-129706714D01*
X171791333Y-129754333D01*
X171838952Y-129801952D01*
X171886571Y-129897190D01*
X171886571Y-130230523D01*
X171410380Y-129325761D02*
X171410380Y-128706714D01*
X171791333Y-129040047D01*
X171791333Y-128897190D01*
X171838952Y-128801952D01*
X171886571Y-128754333D01*
X171981809Y-128706714D01*
X172219904Y-128706714D01*
X172315142Y-128754333D01*
X172362761Y-128801952D01*
X172410380Y-128897190D01*
X172410380Y-129182904D01*
X172362761Y-129278142D01*
X172315142Y-129325761D01*
%TO.C,FB4*%
X158776571Y-130627333D02*
X158776571Y-130960666D01*
X159300380Y-130960666D02*
X158300380Y-130960666D01*
X158300380Y-130484476D01*
X158776571Y-129770190D02*
X158824190Y-129627333D01*
X158871809Y-129579714D01*
X158967047Y-129532095D01*
X159109904Y-129532095D01*
X159205142Y-129579714D01*
X159252761Y-129627333D01*
X159300380Y-129722571D01*
X159300380Y-130103523D01*
X158300380Y-130103523D01*
X158300380Y-129770190D01*
X158348000Y-129674952D01*
X158395619Y-129627333D01*
X158490857Y-129579714D01*
X158586095Y-129579714D01*
X158681333Y-129627333D01*
X158728952Y-129674952D01*
X158776571Y-129770190D01*
X158776571Y-130103523D01*
X158633714Y-128674952D02*
X159300380Y-128674952D01*
X158252761Y-128913047D02*
X158967047Y-129151142D01*
X158967047Y-128532095D01*
%TO.C,FB5*%
X135945571Y-130373333D02*
X135945571Y-130706666D01*
X136469380Y-130706666D02*
X135469380Y-130706666D01*
X135469380Y-130230476D01*
X135945571Y-129516190D02*
X135993190Y-129373333D01*
X136040809Y-129325714D01*
X136136047Y-129278095D01*
X136278904Y-129278095D01*
X136374142Y-129325714D01*
X136421761Y-129373333D01*
X136469380Y-129468571D01*
X136469380Y-129849523D01*
X135469380Y-129849523D01*
X135469380Y-129516190D01*
X135517000Y-129420952D01*
X135564619Y-129373333D01*
X135659857Y-129325714D01*
X135755095Y-129325714D01*
X135850333Y-129373333D01*
X135897952Y-129420952D01*
X135945571Y-129516190D01*
X135945571Y-129849523D01*
X135469380Y-128373333D02*
X135469380Y-128849523D01*
X135945571Y-128897142D01*
X135897952Y-128849523D01*
X135850333Y-128754285D01*
X135850333Y-128516190D01*
X135897952Y-128420952D01*
X135945571Y-128373333D01*
X136040809Y-128325714D01*
X136278904Y-128325714D01*
X136374142Y-128373333D01*
X136421761Y-128420952D01*
X136469380Y-128516190D01*
X136469380Y-128754285D01*
X136421761Y-128849523D01*
X136374142Y-128897142D01*
%TO.C,FB6*%
X122991571Y-130246333D02*
X122991571Y-130579666D01*
X123515380Y-130579666D02*
X122515380Y-130579666D01*
X122515380Y-130103476D01*
X122991571Y-129389190D02*
X123039190Y-129246333D01*
X123086809Y-129198714D01*
X123182047Y-129151095D01*
X123324904Y-129151095D01*
X123420142Y-129198714D01*
X123467761Y-129246333D01*
X123515380Y-129341571D01*
X123515380Y-129722523D01*
X122515380Y-129722523D01*
X122515380Y-129389190D01*
X122563000Y-129293952D01*
X122610619Y-129246333D01*
X122705857Y-129198714D01*
X122801095Y-129198714D01*
X122896333Y-129246333D01*
X122943952Y-129293952D01*
X122991571Y-129389190D01*
X122991571Y-129722523D01*
X122515380Y-128293952D02*
X122515380Y-128484428D01*
X122563000Y-128579666D01*
X122610619Y-128627285D01*
X122753476Y-128722523D01*
X122943952Y-128770142D01*
X123324904Y-128770142D01*
X123420142Y-128722523D01*
X123467761Y-128674904D01*
X123515380Y-128579666D01*
X123515380Y-128389190D01*
X123467761Y-128293952D01*
X123420142Y-128246333D01*
X123324904Y-128198714D01*
X123086809Y-128198714D01*
X122991571Y-128246333D01*
X122943952Y-128293952D01*
X122896333Y-128389190D01*
X122896333Y-128579666D01*
X122943952Y-128674904D01*
X122991571Y-128722523D01*
X123086809Y-128770142D01*
%TO.C,R9*%
X110688380Y-129676666D02*
X110212190Y-130010000D01*
X110688380Y-130248095D02*
X109688380Y-130248095D01*
X109688380Y-129867142D01*
X109736000Y-129771904D01*
X109783619Y-129724285D01*
X109878857Y-129676666D01*
X110021714Y-129676666D01*
X110116952Y-129724285D01*
X110164571Y-129771904D01*
X110212190Y-129867142D01*
X110212190Y-130248095D01*
X110688380Y-129200476D02*
X110688380Y-129010000D01*
X110640761Y-128914761D01*
X110593142Y-128867142D01*
X110450285Y-128771904D01*
X110259809Y-128724285D01*
X109878857Y-128724285D01*
X109783619Y-128771904D01*
X109736000Y-128819523D01*
X109688380Y-128914761D01*
X109688380Y-129105238D01*
X109736000Y-129200476D01*
X109783619Y-129248095D01*
X109878857Y-129295714D01*
X110116952Y-129295714D01*
X110212190Y-129248095D01*
X110259809Y-129200476D01*
X110307428Y-129105238D01*
X110307428Y-128914761D01*
X110259809Y-128819523D01*
X110212190Y-128771904D01*
X110116952Y-128724285D01*
%TO.C,R10*%
X132660380Y-130152857D02*
X132184190Y-130486190D01*
X132660380Y-130724285D02*
X131660380Y-130724285D01*
X131660380Y-130343333D01*
X131708000Y-130248095D01*
X131755619Y-130200476D01*
X131850857Y-130152857D01*
X131993714Y-130152857D01*
X132088952Y-130200476D01*
X132136571Y-130248095D01*
X132184190Y-130343333D01*
X132184190Y-130724285D01*
X132660380Y-129200476D02*
X132660380Y-129771904D01*
X132660380Y-129486190D02*
X131660380Y-129486190D01*
X131803238Y-129581428D01*
X131898476Y-129676666D01*
X131946095Y-129771904D01*
X131660380Y-128581428D02*
X131660380Y-128486190D01*
X131708000Y-128390952D01*
X131755619Y-128343333D01*
X131850857Y-128295714D01*
X132041333Y-128248095D01*
X132279428Y-128248095D01*
X132469904Y-128295714D01*
X132565142Y-128343333D01*
X132612761Y-128390952D01*
X132660380Y-128486190D01*
X132660380Y-128581428D01*
X132612761Y-128676666D01*
X132565142Y-128724285D01*
X132469904Y-128771904D01*
X132279428Y-128819523D01*
X132041333Y-128819523D01*
X131850857Y-128771904D01*
X131755619Y-128724285D01*
X131708000Y-128676666D01*
X131660380Y-128581428D01*
%TO.C,U5*%
X136304380Y-119125904D02*
X137113904Y-119125904D01*
X137209142Y-119078285D01*
X137256761Y-119030666D01*
X137304380Y-118935428D01*
X137304380Y-118744952D01*
X137256761Y-118649714D01*
X137209142Y-118602095D01*
X137113904Y-118554476D01*
X136304380Y-118554476D01*
X136304380Y-117602095D02*
X136304380Y-118078285D01*
X136780571Y-118125904D01*
X136732952Y-118078285D01*
X136685333Y-117983047D01*
X136685333Y-117744952D01*
X136732952Y-117649714D01*
X136780571Y-117602095D01*
X136875809Y-117554476D01*
X137113904Y-117554476D01*
X137209142Y-117602095D01*
X137256761Y-117649714D01*
X137304380Y-117744952D01*
X137304380Y-117983047D01*
X137256761Y-118078285D01*
X137209142Y-118125904D01*
X125744380Y-121149714D02*
X125744380Y-120483047D01*
X126744380Y-120911619D01*
X126077714Y-119673523D02*
X126744380Y-119673523D01*
X125696761Y-119911619D02*
X126411047Y-120149714D01*
X126411047Y-119530666D01*
X126744380Y-119149714D02*
X125744380Y-119149714D01*
X126220571Y-119149714D02*
X126220571Y-118578285D01*
X126744380Y-118578285D02*
X125744380Y-118578285D01*
X126649142Y-117530666D02*
X126696761Y-117578285D01*
X126744380Y-117721142D01*
X126744380Y-117816380D01*
X126696761Y-117959238D01*
X126601523Y-118054476D01*
X126506285Y-118102095D01*
X126315809Y-118149714D01*
X126172952Y-118149714D01*
X125982476Y-118102095D01*
X125887238Y-118054476D01*
X125792000Y-117959238D01*
X125744380Y-117816380D01*
X125744380Y-117721142D01*
X125792000Y-117578285D01*
X125839619Y-117530666D01*
X126744380Y-116578285D02*
X126744380Y-117149714D01*
X126744380Y-116864000D02*
X125744380Y-116864000D01*
X125887238Y-116959238D01*
X125982476Y-117054476D01*
X126030095Y-117149714D01*
X126077714Y-115721142D02*
X126744380Y-115721142D01*
X125696761Y-115959238D02*
X126411047Y-116197333D01*
X126411047Y-115578285D01*
%TO.C,U1*%
X164846095Y-125226380D02*
X164846095Y-126035904D01*
X164893714Y-126131142D01*
X164941333Y-126178761D01*
X165036571Y-126226380D01*
X165227047Y-126226380D01*
X165322285Y-126178761D01*
X165369904Y-126131142D01*
X165417523Y-126035904D01*
X165417523Y-125226380D01*
X166417523Y-126226380D02*
X165846095Y-126226380D01*
X166131809Y-126226380D02*
X166131809Y-125226380D01*
X166036571Y-125369238D01*
X165941333Y-125464476D01*
X165846095Y-125512095D01*
X163488952Y-116486380D02*
X163488952Y-115486380D01*
X163488952Y-115962571D02*
X164060380Y-115962571D01*
X164060380Y-116486380D02*
X164060380Y-115486380D01*
X165060380Y-116486380D02*
X164488952Y-116486380D01*
X164774666Y-116486380D02*
X164774666Y-115486380D01*
X164679428Y-115629238D01*
X164584190Y-115724476D01*
X164488952Y-115772095D01*
X166012761Y-116486380D02*
X165441333Y-116486380D01*
X165727047Y-116486380D02*
X165727047Y-115486380D01*
X165631809Y-115629238D01*
X165536571Y-115724476D01*
X165441333Y-115772095D01*
X166917523Y-116486380D02*
X166441333Y-116486380D01*
X166441333Y-115486380D01*
X167774666Y-116486380D02*
X167203238Y-116486380D01*
X167488952Y-116486380D02*
X167488952Y-115486380D01*
X167393714Y-115629238D01*
X167298476Y-115724476D01*
X167203238Y-115772095D01*
%TO.C,C2*%
X242448142Y-120455666D02*
X242495761Y-120503285D01*
X242543380Y-120646142D01*
X242543380Y-120741380D01*
X242495761Y-120884238D01*
X242400523Y-120979476D01*
X242305285Y-121027095D01*
X242114809Y-121074714D01*
X241971952Y-121074714D01*
X241781476Y-121027095D01*
X241686238Y-120979476D01*
X241591000Y-120884238D01*
X241543380Y-120741380D01*
X241543380Y-120646142D01*
X241591000Y-120503285D01*
X241638619Y-120455666D01*
X241638619Y-120074714D02*
X241591000Y-120027095D01*
X241543380Y-119931857D01*
X241543380Y-119693761D01*
X241591000Y-119598523D01*
X241638619Y-119550904D01*
X241733857Y-119503285D01*
X241829095Y-119503285D01*
X241971952Y-119550904D01*
X242543380Y-120122333D01*
X242543380Y-119503285D01*
%TO.C,C3*%
X227208142Y-120435666D02*
X227255761Y-120483285D01*
X227303380Y-120626142D01*
X227303380Y-120721380D01*
X227255761Y-120864238D01*
X227160523Y-120959476D01*
X227065285Y-121007095D01*
X226874809Y-121054714D01*
X226731952Y-121054714D01*
X226541476Y-121007095D01*
X226446238Y-120959476D01*
X226351000Y-120864238D01*
X226303380Y-120721380D01*
X226303380Y-120626142D01*
X226351000Y-120483285D01*
X226398619Y-120435666D01*
X226303380Y-120102333D02*
X226303380Y-119483285D01*
X226684333Y-119816619D01*
X226684333Y-119673761D01*
X226731952Y-119578523D01*
X226779571Y-119530904D01*
X226874809Y-119483285D01*
X227112904Y-119483285D01*
X227208142Y-119530904D01*
X227255761Y-119578523D01*
X227303380Y-119673761D01*
X227303380Y-119959476D01*
X227255761Y-120054714D01*
X227208142Y-120102333D01*
%TO.C,C6*%
X85701142Y-125388666D02*
X85748761Y-125436285D01*
X85796380Y-125579142D01*
X85796380Y-125674380D01*
X85748761Y-125817238D01*
X85653523Y-125912476D01*
X85558285Y-125960095D01*
X85367809Y-126007714D01*
X85224952Y-126007714D01*
X85034476Y-125960095D01*
X84939238Y-125912476D01*
X84844000Y-125817238D01*
X84796380Y-125674380D01*
X84796380Y-125579142D01*
X84844000Y-125436285D01*
X84891619Y-125388666D01*
X84796380Y-124531523D02*
X84796380Y-124722000D01*
X84844000Y-124817238D01*
X84891619Y-124864857D01*
X85034476Y-124960095D01*
X85224952Y-125007714D01*
X85605904Y-125007714D01*
X85701142Y-124960095D01*
X85748761Y-124912476D01*
X85796380Y-124817238D01*
X85796380Y-124626761D01*
X85748761Y-124531523D01*
X85701142Y-124483904D01*
X85605904Y-124436285D01*
X85367809Y-124436285D01*
X85272571Y-124483904D01*
X85224952Y-124531523D01*
X85177333Y-124626761D01*
X85177333Y-124817238D01*
X85224952Y-124912476D01*
X85272571Y-124960095D01*
X85367809Y-125007714D01*
%TO.C,C7*%
X85701142Y-111418666D02*
X85748761Y-111466285D01*
X85796380Y-111609142D01*
X85796380Y-111704380D01*
X85748761Y-111847238D01*
X85653523Y-111942476D01*
X85558285Y-111990095D01*
X85367809Y-112037714D01*
X85224952Y-112037714D01*
X85034476Y-111990095D01*
X84939238Y-111942476D01*
X84844000Y-111847238D01*
X84796380Y-111704380D01*
X84796380Y-111609142D01*
X84844000Y-111466285D01*
X84891619Y-111418666D01*
X84796380Y-111085333D02*
X84796380Y-110418666D01*
X85796380Y-110847238D01*
%TO.C,J6*%
X230298666Y-143470380D02*
X230298666Y-144184666D01*
X230251047Y-144327523D01*
X230155809Y-144422761D01*
X230012952Y-144470380D01*
X229917714Y-144470380D01*
X231203428Y-143470380D02*
X231012952Y-143470380D01*
X230917714Y-143518000D01*
X230870095Y-143565619D01*
X230774857Y-143708476D01*
X230727238Y-143898952D01*
X230727238Y-144279904D01*
X230774857Y-144375142D01*
X230822476Y-144422761D01*
X230917714Y-144470380D01*
X231108190Y-144470380D01*
X231203428Y-144422761D01*
X231251047Y-144375142D01*
X231298666Y-144279904D01*
X231298666Y-144041809D01*
X231251047Y-143946571D01*
X231203428Y-143898952D01*
X231108190Y-143851333D01*
X230917714Y-143851333D01*
X230822476Y-143898952D01*
X230774857Y-143946571D01*
X230727238Y-144041809D01*
%TO.C,J7*%
X213280666Y-84288380D02*
X213280666Y-85002666D01*
X213233047Y-85145523D01*
X213137809Y-85240761D01*
X212994952Y-85288380D01*
X212899714Y-85288380D01*
X213661619Y-84288380D02*
X214328285Y-84288380D01*
X213899714Y-85288380D01*
%TO.C,R11*%
X97988380Y-126118857D02*
X97512190Y-126452190D01*
X97988380Y-126690285D02*
X96988380Y-126690285D01*
X96988380Y-126309333D01*
X97036000Y-126214095D01*
X97083619Y-126166476D01*
X97178857Y-126118857D01*
X97321714Y-126118857D01*
X97416952Y-126166476D01*
X97464571Y-126214095D01*
X97512190Y-126309333D01*
X97512190Y-126690285D01*
X97988380Y-125166476D02*
X97988380Y-125737904D01*
X97988380Y-125452190D02*
X96988380Y-125452190D01*
X97131238Y-125547428D01*
X97226476Y-125642666D01*
X97274095Y-125737904D01*
X97988380Y-124214095D02*
X97988380Y-124785523D01*
X97988380Y-124499809D02*
X96988380Y-124499809D01*
X97131238Y-124595047D01*
X97226476Y-124690285D01*
X97274095Y-124785523D01*
%TO.C,R12*%
X97988380Y-111386857D02*
X97512190Y-111720190D01*
X97988380Y-111958285D02*
X96988380Y-111958285D01*
X96988380Y-111577333D01*
X97036000Y-111482095D01*
X97083619Y-111434476D01*
X97178857Y-111386857D01*
X97321714Y-111386857D01*
X97416952Y-111434476D01*
X97464571Y-111482095D01*
X97512190Y-111577333D01*
X97512190Y-111958285D01*
X97988380Y-110434476D02*
X97988380Y-111005904D01*
X97988380Y-110720190D02*
X96988380Y-110720190D01*
X97131238Y-110815428D01*
X97226476Y-110910666D01*
X97274095Y-111005904D01*
X97083619Y-110053523D02*
X97036000Y-110005904D01*
X96988380Y-109910666D01*
X96988380Y-109672571D01*
X97036000Y-109577333D01*
X97083619Y-109529714D01*
X97178857Y-109482095D01*
X97274095Y-109482095D01*
X97416952Y-109529714D01*
X97988380Y-110101142D01*
X97988380Y-109482095D01*
%TO.C,R13*%
X93924380Y-126372857D02*
X93448190Y-126706190D01*
X93924380Y-126944285D02*
X92924380Y-126944285D01*
X92924380Y-126563333D01*
X92972000Y-126468095D01*
X93019619Y-126420476D01*
X93114857Y-126372857D01*
X93257714Y-126372857D01*
X93352952Y-126420476D01*
X93400571Y-126468095D01*
X93448190Y-126563333D01*
X93448190Y-126944285D01*
X93924380Y-125420476D02*
X93924380Y-125991904D01*
X93924380Y-125706190D02*
X92924380Y-125706190D01*
X93067238Y-125801428D01*
X93162476Y-125896666D01*
X93210095Y-125991904D01*
X92924380Y-125087142D02*
X92924380Y-124468095D01*
X93305333Y-124801428D01*
X93305333Y-124658571D01*
X93352952Y-124563333D01*
X93400571Y-124515714D01*
X93495809Y-124468095D01*
X93733904Y-124468095D01*
X93829142Y-124515714D01*
X93876761Y-124563333D01*
X93924380Y-124658571D01*
X93924380Y-124944285D01*
X93876761Y-125039523D01*
X93829142Y-125087142D01*
%TO.C,R14*%
X93924380Y-111386857D02*
X93448190Y-111720190D01*
X93924380Y-111958285D02*
X92924380Y-111958285D01*
X92924380Y-111577333D01*
X92972000Y-111482095D01*
X93019619Y-111434476D01*
X93114857Y-111386857D01*
X93257714Y-111386857D01*
X93352952Y-111434476D01*
X93400571Y-111482095D01*
X93448190Y-111577333D01*
X93448190Y-111958285D01*
X93924380Y-110434476D02*
X93924380Y-111005904D01*
X93924380Y-110720190D02*
X92924380Y-110720190D01*
X93067238Y-110815428D01*
X93162476Y-110910666D01*
X93210095Y-111005904D01*
X93257714Y-109577333D02*
X93924380Y-109577333D01*
X92876761Y-109815428D02*
X93591047Y-110053523D01*
X93591047Y-109434476D01*
%TO.C,R15*%
X87828380Y-126118857D02*
X87352190Y-126452190D01*
X87828380Y-126690285D02*
X86828380Y-126690285D01*
X86828380Y-126309333D01*
X86876000Y-126214095D01*
X86923619Y-126166476D01*
X87018857Y-126118857D01*
X87161714Y-126118857D01*
X87256952Y-126166476D01*
X87304571Y-126214095D01*
X87352190Y-126309333D01*
X87352190Y-126690285D01*
X87828380Y-125166476D02*
X87828380Y-125737904D01*
X87828380Y-125452190D02*
X86828380Y-125452190D01*
X86971238Y-125547428D01*
X87066476Y-125642666D01*
X87114095Y-125737904D01*
X86828380Y-124261714D02*
X86828380Y-124737904D01*
X87304571Y-124785523D01*
X87256952Y-124737904D01*
X87209333Y-124642666D01*
X87209333Y-124404571D01*
X87256952Y-124309333D01*
X87304571Y-124261714D01*
X87399809Y-124214095D01*
X87637904Y-124214095D01*
X87733142Y-124261714D01*
X87780761Y-124309333D01*
X87828380Y-124404571D01*
X87828380Y-124642666D01*
X87780761Y-124737904D01*
X87733142Y-124785523D01*
%TO.C,R16*%
X87828380Y-111386857D02*
X87352190Y-111720190D01*
X87828380Y-111958285D02*
X86828380Y-111958285D01*
X86828380Y-111577333D01*
X86876000Y-111482095D01*
X86923619Y-111434476D01*
X87018857Y-111386857D01*
X87161714Y-111386857D01*
X87256952Y-111434476D01*
X87304571Y-111482095D01*
X87352190Y-111577333D01*
X87352190Y-111958285D01*
X87828380Y-110434476D02*
X87828380Y-111005904D01*
X87828380Y-110720190D02*
X86828380Y-110720190D01*
X86971238Y-110815428D01*
X87066476Y-110910666D01*
X87114095Y-111005904D01*
X86828380Y-109577333D02*
X86828380Y-109767809D01*
X86876000Y-109863047D01*
X86923619Y-109910666D01*
X87066476Y-110005904D01*
X87256952Y-110053523D01*
X87637904Y-110053523D01*
X87733142Y-110005904D01*
X87780761Y-109958285D01*
X87828380Y-109863047D01*
X87828380Y-109672571D01*
X87780761Y-109577333D01*
X87733142Y-109529714D01*
X87637904Y-109482095D01*
X87399809Y-109482095D01*
X87304571Y-109529714D01*
X87256952Y-109577333D01*
X87209333Y-109672571D01*
X87209333Y-109863047D01*
X87256952Y-109958285D01*
X87304571Y-110005904D01*
X87399809Y-110053523D01*
%TO.C,R17*%
X91892380Y-126372857D02*
X91416190Y-126706190D01*
X91892380Y-126944285D02*
X90892380Y-126944285D01*
X90892380Y-126563333D01*
X90940000Y-126468095D01*
X90987619Y-126420476D01*
X91082857Y-126372857D01*
X91225714Y-126372857D01*
X91320952Y-126420476D01*
X91368571Y-126468095D01*
X91416190Y-126563333D01*
X91416190Y-126944285D01*
X91892380Y-125420476D02*
X91892380Y-125991904D01*
X91892380Y-125706190D02*
X90892380Y-125706190D01*
X91035238Y-125801428D01*
X91130476Y-125896666D01*
X91178095Y-125991904D01*
X90892380Y-125087142D02*
X90892380Y-124420476D01*
X91892380Y-124849047D01*
%TO.C,R18*%
X91892380Y-111386857D02*
X91416190Y-111720190D01*
X91892380Y-111958285D02*
X90892380Y-111958285D01*
X90892380Y-111577333D01*
X90940000Y-111482095D01*
X90987619Y-111434476D01*
X91082857Y-111386857D01*
X91225714Y-111386857D01*
X91320952Y-111434476D01*
X91368571Y-111482095D01*
X91416190Y-111577333D01*
X91416190Y-111958285D01*
X91892380Y-110434476D02*
X91892380Y-111005904D01*
X91892380Y-110720190D02*
X90892380Y-110720190D01*
X91035238Y-110815428D01*
X91130476Y-110910666D01*
X91178095Y-111005904D01*
X91320952Y-109863047D02*
X91273333Y-109958285D01*
X91225714Y-110005904D01*
X91130476Y-110053523D01*
X91082857Y-110053523D01*
X90987619Y-110005904D01*
X90940000Y-109958285D01*
X90892380Y-109863047D01*
X90892380Y-109672571D01*
X90940000Y-109577333D01*
X90987619Y-109529714D01*
X91082857Y-109482095D01*
X91130476Y-109482095D01*
X91225714Y-109529714D01*
X91273333Y-109577333D01*
X91320952Y-109672571D01*
X91320952Y-109863047D01*
X91368571Y-109958285D01*
X91416190Y-110005904D01*
X91511428Y-110053523D01*
X91701904Y-110053523D01*
X91797142Y-110005904D01*
X91844761Y-109958285D01*
X91892380Y-109863047D01*
X91892380Y-109672571D01*
X91844761Y-109577333D01*
X91797142Y-109529714D01*
X91701904Y-109482095D01*
X91511428Y-109482095D01*
X91416190Y-109529714D01*
X91368571Y-109577333D01*
X91320952Y-109672571D01*
%TO.C,U6*%
X218948095Y-125055380D02*
X218948095Y-125864904D01*
X218995714Y-125960142D01*
X219043333Y-126007761D01*
X219138571Y-126055380D01*
X219329047Y-126055380D01*
X219424285Y-126007761D01*
X219471904Y-125960142D01*
X219519523Y-125864904D01*
X219519523Y-125055380D01*
X220424285Y-125055380D02*
X220233809Y-125055380D01*
X220138571Y-125103000D01*
X220090952Y-125150619D01*
X219995714Y-125293476D01*
X219948095Y-125483952D01*
X219948095Y-125864904D01*
X219995714Y-125960142D01*
X220043333Y-126007761D01*
X220138571Y-126055380D01*
X220329047Y-126055380D01*
X220424285Y-126007761D01*
X220471904Y-125960142D01*
X220519523Y-125864904D01*
X220519523Y-125626809D01*
X220471904Y-125531571D01*
X220424285Y-125483952D01*
X220329047Y-125436333D01*
X220138571Y-125436333D01*
X220043333Y-125483952D01*
X219995714Y-125531571D01*
X219948095Y-125626809D01*
X216495809Y-115768380D02*
X216019619Y-115768380D01*
X216019619Y-114768380D01*
X216829142Y-115768380D02*
X216829142Y-114768380D01*
X217162476Y-115482666D01*
X217495809Y-114768380D01*
X217495809Y-115768380D01*
X218495809Y-115768380D02*
X217924380Y-115768380D01*
X218210095Y-115768380D02*
X218210095Y-114768380D01*
X218114857Y-114911238D01*
X218019619Y-115006476D01*
X217924380Y-115054095D01*
X219448190Y-115768380D02*
X218876761Y-115768380D01*
X219162476Y-115768380D02*
X219162476Y-114768380D01*
X219067238Y-114911238D01*
X218972000Y-115006476D01*
X218876761Y-115054095D01*
X220400571Y-115768380D02*
X219829142Y-115768380D01*
X220114857Y-115768380D02*
X220114857Y-114768380D01*
X220019619Y-114911238D01*
X219924380Y-115006476D01*
X219829142Y-115054095D01*
X220733904Y-114768380D02*
X221400571Y-114768380D01*
X220972000Y-115768380D01*
X221781523Y-115387428D02*
X222543428Y-115387428D01*
X223495809Y-114768380D02*
X223019619Y-114768380D01*
X222972000Y-115244571D01*
X223019619Y-115196952D01*
X223114857Y-115149333D01*
X223352952Y-115149333D01*
X223448190Y-115196952D01*
X223495809Y-115244571D01*
X223543428Y-115339809D01*
X223543428Y-115577904D01*
X223495809Y-115673142D01*
X223448190Y-115720761D01*
X223352952Y-115768380D01*
X223114857Y-115768380D01*
X223019619Y-115720761D01*
X222972000Y-115673142D01*
X223972000Y-115673142D02*
X224019619Y-115720761D01*
X223972000Y-115768380D01*
X223924380Y-115720761D01*
X223972000Y-115673142D01*
X223972000Y-115768380D01*
X224638666Y-114768380D02*
X224733904Y-114768380D01*
X224829142Y-114816000D01*
X224876761Y-114863619D01*
X224924380Y-114958857D01*
X224972000Y-115149333D01*
X224972000Y-115387428D01*
X224924380Y-115577904D01*
X224876761Y-115673142D01*
X224829142Y-115720761D01*
X224733904Y-115768380D01*
X224638666Y-115768380D01*
X224543428Y-115720761D01*
X224495809Y-115673142D01*
X224448190Y-115577904D01*
X224400571Y-115387428D01*
X224400571Y-115149333D01*
X224448190Y-114958857D01*
X224495809Y-114863619D01*
X224543428Y-114816000D01*
X224638666Y-114768380D01*
%TO.C,U7*%
X234315095Y-125055380D02*
X234315095Y-125864904D01*
X234362714Y-125960142D01*
X234410333Y-126007761D01*
X234505571Y-126055380D01*
X234696047Y-126055380D01*
X234791285Y-126007761D01*
X234838904Y-125960142D01*
X234886523Y-125864904D01*
X234886523Y-125055380D01*
X235267476Y-125055380D02*
X235934142Y-125055380D01*
X235505571Y-126055380D01*
X231608809Y-115768380D02*
X231132619Y-115768380D01*
X231132619Y-114768380D01*
X231942142Y-115768380D02*
X231942142Y-114768380D01*
X232275476Y-115482666D01*
X232608809Y-114768380D01*
X232608809Y-115768380D01*
X233608809Y-115768380D02*
X233037380Y-115768380D01*
X233323095Y-115768380D02*
X233323095Y-114768380D01*
X233227857Y-114911238D01*
X233132619Y-115006476D01*
X233037380Y-115054095D01*
X234561190Y-115768380D02*
X233989761Y-115768380D01*
X234275476Y-115768380D02*
X234275476Y-114768380D01*
X234180238Y-114911238D01*
X234085000Y-115006476D01*
X233989761Y-115054095D01*
X235513571Y-115768380D02*
X234942142Y-115768380D01*
X235227857Y-115768380D02*
X235227857Y-114768380D01*
X235132619Y-114911238D01*
X235037380Y-115006476D01*
X234942142Y-115054095D01*
X235846904Y-114768380D02*
X236513571Y-114768380D01*
X236085000Y-115768380D01*
X236894523Y-115387428D02*
X237656428Y-115387428D01*
X238037380Y-114768380D02*
X238656428Y-114768380D01*
X238323095Y-115149333D01*
X238465952Y-115149333D01*
X238561190Y-115196952D01*
X238608809Y-115244571D01*
X238656428Y-115339809D01*
X238656428Y-115577904D01*
X238608809Y-115673142D01*
X238561190Y-115720761D01*
X238465952Y-115768380D01*
X238180238Y-115768380D01*
X238085000Y-115720761D01*
X238037380Y-115673142D01*
X239085000Y-115673142D02*
X239132619Y-115720761D01*
X239085000Y-115768380D01*
X239037380Y-115720761D01*
X239085000Y-115673142D01*
X239085000Y-115768380D01*
X239465952Y-114768380D02*
X240085000Y-114768380D01*
X239751666Y-115149333D01*
X239894523Y-115149333D01*
X239989761Y-115196952D01*
X240037380Y-115244571D01*
X240085000Y-115339809D01*
X240085000Y-115577904D01*
X240037380Y-115673142D01*
X239989761Y-115720761D01*
X239894523Y-115768380D01*
X239608809Y-115768380D01*
X239513571Y-115720761D01*
X239465952Y-115673142D01*
%TO.C,U8*%
X78740095Y-124374380D02*
X78740095Y-125183904D01*
X78787714Y-125279142D01*
X78835333Y-125326761D01*
X78930571Y-125374380D01*
X79121047Y-125374380D01*
X79216285Y-125326761D01*
X79263904Y-125279142D01*
X79311523Y-125183904D01*
X79311523Y-124374380D01*
X79930571Y-124802952D02*
X79835333Y-124755333D01*
X79787714Y-124707714D01*
X79740095Y-124612476D01*
X79740095Y-124564857D01*
X79787714Y-124469619D01*
X79835333Y-124422000D01*
X79930571Y-124374380D01*
X80121047Y-124374380D01*
X80216285Y-124422000D01*
X80263904Y-124469619D01*
X80311523Y-124564857D01*
X80311523Y-124612476D01*
X80263904Y-124707714D01*
X80216285Y-124755333D01*
X80121047Y-124802952D01*
X79930571Y-124802952D01*
X79835333Y-124850571D01*
X79787714Y-124898190D01*
X79740095Y-124993428D01*
X79740095Y-125183904D01*
X79787714Y-125279142D01*
X79835333Y-125326761D01*
X79930571Y-125374380D01*
X80121047Y-125374380D01*
X80216285Y-125326761D01*
X80263904Y-125279142D01*
X80311523Y-125183904D01*
X80311523Y-124993428D01*
X80263904Y-124898190D01*
X80216285Y-124850571D01*
X80121047Y-124802952D01*
X76263904Y-113274380D02*
X76263904Y-112274380D01*
X76597238Y-112988666D01*
X76930571Y-112274380D01*
X76930571Y-113274380D01*
X77978190Y-113179142D02*
X77930571Y-113226761D01*
X77787714Y-113274380D01*
X77692476Y-113274380D01*
X77549619Y-113226761D01*
X77454380Y-113131523D01*
X77406761Y-113036285D01*
X77359142Y-112845809D01*
X77359142Y-112702952D01*
X77406761Y-112512476D01*
X77454380Y-112417238D01*
X77549619Y-112322000D01*
X77692476Y-112274380D01*
X77787714Y-112274380D01*
X77930571Y-112322000D01*
X77978190Y-112369619D01*
X78406761Y-113274380D02*
X78406761Y-112274380D01*
X78787714Y-112274380D01*
X78882952Y-112322000D01*
X78930571Y-112369619D01*
X78978190Y-112464857D01*
X78978190Y-112607714D01*
X78930571Y-112702952D01*
X78882952Y-112750571D01*
X78787714Y-112798190D01*
X78406761Y-112798190D01*
X79835333Y-112274380D02*
X79644857Y-112274380D01*
X79549619Y-112322000D01*
X79502000Y-112369619D01*
X79406761Y-112512476D01*
X79359142Y-112702952D01*
X79359142Y-113083904D01*
X79406761Y-113179142D01*
X79454380Y-113226761D01*
X79549619Y-113274380D01*
X79740095Y-113274380D01*
X79835333Y-113226761D01*
X79882952Y-113179142D01*
X79930571Y-113083904D01*
X79930571Y-112845809D01*
X79882952Y-112750571D01*
X79835333Y-112702952D01*
X79740095Y-112655333D01*
X79549619Y-112655333D01*
X79454380Y-112702952D01*
X79406761Y-112750571D01*
X79359142Y-112845809D01*
X80549619Y-112274380D02*
X80644857Y-112274380D01*
X80740095Y-112322000D01*
X80787714Y-112369619D01*
X80835333Y-112464857D01*
X80882952Y-112655333D01*
X80882952Y-112893428D01*
X80835333Y-113083904D01*
X80787714Y-113179142D01*
X80740095Y-113226761D01*
X80644857Y-113274380D01*
X80549619Y-113274380D01*
X80454380Y-113226761D01*
X80406761Y-113179142D01*
X80359142Y-113083904D01*
X80311523Y-112893428D01*
X80311523Y-112655333D01*
X80359142Y-112464857D01*
X80406761Y-112369619D01*
X80454380Y-112322000D01*
X80549619Y-112274380D01*
X81502000Y-112274380D02*
X81597238Y-112274380D01*
X81692476Y-112322000D01*
X81740095Y-112369619D01*
X81787714Y-112464857D01*
X81835333Y-112655333D01*
X81835333Y-112893428D01*
X81787714Y-113083904D01*
X81740095Y-113179142D01*
X81692476Y-113226761D01*
X81597238Y-113274380D01*
X81502000Y-113274380D01*
X81406761Y-113226761D01*
X81359142Y-113179142D01*
X81311523Y-113083904D01*
X81263904Y-112893428D01*
X81263904Y-112655333D01*
X81311523Y-112464857D01*
X81359142Y-112369619D01*
X81406761Y-112322000D01*
X81502000Y-112274380D01*
X82692476Y-112607714D02*
X82692476Y-113274380D01*
X82454380Y-112226761D02*
X82216285Y-112941047D01*
X82835333Y-112941047D01*
%TO.C,D1*%
X162631380Y-130532095D02*
X161631380Y-130532095D01*
X161631380Y-130294000D01*
X161679000Y-130151142D01*
X161774238Y-130055904D01*
X161869476Y-130008285D01*
X162059952Y-129960666D01*
X162202809Y-129960666D01*
X162393285Y-130008285D01*
X162488523Y-130055904D01*
X162583761Y-130151142D01*
X162631380Y-130294000D01*
X162631380Y-130532095D01*
X162631380Y-129008285D02*
X162631380Y-129579714D01*
X162631380Y-129294000D02*
X161631380Y-129294000D01*
X161774238Y-129389238D01*
X161869476Y-129484476D01*
X161917095Y-129579714D01*
%TO.C,C4*%
X213590142Y-120475666D02*
X213637761Y-120523285D01*
X213685380Y-120666142D01*
X213685380Y-120761380D01*
X213637761Y-120904238D01*
X213542523Y-120999476D01*
X213447285Y-121047095D01*
X213256809Y-121094714D01*
X213113952Y-121094714D01*
X212923476Y-121047095D01*
X212828238Y-120999476D01*
X212733000Y-120904238D01*
X212685380Y-120761380D01*
X212685380Y-120666142D01*
X212733000Y-120523285D01*
X212780619Y-120475666D01*
X213018714Y-119618523D02*
X213685380Y-119618523D01*
X212637761Y-119856619D02*
X213352047Y-120094714D01*
X213352047Y-119475666D01*
%TO.C,C5*%
X228703142Y-120435666D02*
X228750761Y-120483285D01*
X228798380Y-120626142D01*
X228798380Y-120721380D01*
X228750761Y-120864238D01*
X228655523Y-120959476D01*
X228560285Y-121007095D01*
X228369809Y-121054714D01*
X228226952Y-121054714D01*
X228036476Y-121007095D01*
X227941238Y-120959476D01*
X227846000Y-120864238D01*
X227798380Y-120721380D01*
X227798380Y-120626142D01*
X227846000Y-120483285D01*
X227893619Y-120435666D01*
X227798380Y-119530904D02*
X227798380Y-120007095D01*
X228274571Y-120054714D01*
X228226952Y-120007095D01*
X228179333Y-119911857D01*
X228179333Y-119673761D01*
X228226952Y-119578523D01*
X228274571Y-119530904D01*
X228369809Y-119483285D01*
X228607904Y-119483285D01*
X228703142Y-119530904D01*
X228750761Y-119578523D01*
X228798380Y-119673761D01*
X228798380Y-119911857D01*
X228750761Y-120007095D01*
X228703142Y-120054714D01*
%TO.C,U9*%
X222292096Y-96694381D02*
X222292096Y-97503905D01*
X222339715Y-97599143D01*
X222387334Y-97646762D01*
X222482572Y-97694381D01*
X222673048Y-97694381D01*
X222768286Y-97646762D01*
X222815905Y-97599143D01*
X222863524Y-97503905D01*
X222863524Y-96694381D01*
X223387334Y-97694381D02*
X223577810Y-97694381D01*
X223673048Y-97646762D01*
X223720667Y-97599143D01*
X223815905Y-97456286D01*
X223863524Y-97265810D01*
X223863524Y-96884858D01*
X223815905Y-96789620D01*
X223768286Y-96742001D01*
X223673048Y-96694381D01*
X223482572Y-96694381D01*
X223387334Y-96742001D01*
X223339715Y-96789620D01*
X223292096Y-96884858D01*
X223292096Y-97122953D01*
X223339715Y-97218191D01*
X223387334Y-97265810D01*
X223482572Y-97313429D01*
X223673048Y-97313429D01*
X223768286Y-97265810D01*
X223815905Y-97218191D01*
X223863524Y-97122953D01*
X219196858Y-104494381D02*
X218720667Y-104494381D01*
X218720667Y-103494381D01*
X219434953Y-103494381D02*
X220101620Y-103494381D01*
X219673048Y-104494381D01*
X220530191Y-104494381D02*
X220720667Y-104494381D01*
X220815905Y-104446762D01*
X220863524Y-104399143D01*
X220958762Y-104256286D01*
X221006381Y-104065810D01*
X221006381Y-103684858D01*
X220958762Y-103589620D01*
X220911143Y-103542001D01*
X220815905Y-103494381D01*
X220625429Y-103494381D01*
X220530191Y-103542001D01*
X220482572Y-103589620D01*
X220434953Y-103684858D01*
X220434953Y-103922953D01*
X220482572Y-104018191D01*
X220530191Y-104065810D01*
X220625429Y-104113429D01*
X220815905Y-104113429D01*
X220911143Y-104065810D01*
X220958762Y-104018191D01*
X221006381Y-103922953D01*
X221911143Y-104494381D02*
X221434953Y-104494381D01*
X221434953Y-103494381D01*
X222434953Y-103494381D02*
X222530191Y-103494381D01*
X222625429Y-103542001D01*
X222673048Y-103589620D01*
X222720667Y-103684858D01*
X222768286Y-103875334D01*
X222768286Y-104113429D01*
X222720667Y-104303905D01*
X222673048Y-104399143D01*
X222625429Y-104446762D01*
X222530191Y-104494381D01*
X222434953Y-104494381D01*
X222339715Y-104446762D01*
X222292096Y-104399143D01*
X222244477Y-104303905D01*
X222196858Y-104113429D01*
X222196858Y-103875334D01*
X222244477Y-103684858D01*
X222292096Y-103589620D01*
X222339715Y-103542001D01*
X222434953Y-103494381D01*
X223673048Y-103494381D02*
X223196858Y-103494381D01*
X223149239Y-103970572D01*
X223196858Y-103922953D01*
X223292096Y-103875334D01*
X223530191Y-103875334D01*
X223625429Y-103922953D01*
X223673048Y-103970572D01*
X223720667Y-104065810D01*
X223720667Y-104303905D01*
X223673048Y-104399143D01*
X223625429Y-104446762D01*
X223530191Y-104494381D01*
X223292096Y-104494381D01*
X223196858Y-104446762D01*
X223149239Y-104399143D01*
X223911143Y-104589620D02*
X224673048Y-104589620D01*
X224863524Y-104446762D02*
X225006381Y-104494381D01*
X225244477Y-104494381D01*
X225339715Y-104446762D01*
X225387334Y-104399143D01*
X225434953Y-104303905D01*
X225434953Y-104208667D01*
X225387334Y-104113429D01*
X225339715Y-104065810D01*
X225244477Y-104018191D01*
X225054001Y-103970572D01*
X224958762Y-103922953D01*
X224911143Y-103875334D01*
X224863524Y-103780096D01*
X224863524Y-103684858D01*
X224911143Y-103589620D01*
X224958762Y-103542001D01*
X225054001Y-103494381D01*
X225292096Y-103494381D01*
X225434953Y-103542001D01*
X226054001Y-103494381D02*
X226244477Y-103494381D01*
X226339715Y-103542001D01*
X226434953Y-103637239D01*
X226482572Y-103827715D01*
X226482572Y-104161048D01*
X226434953Y-104351524D01*
X226339715Y-104446762D01*
X226244477Y-104494381D01*
X226054001Y-104494381D01*
X225958762Y-104446762D01*
X225863524Y-104351524D01*
X225815905Y-104161048D01*
X225815905Y-103827715D01*
X225863524Y-103637239D01*
X225958762Y-103542001D01*
X226054001Y-103494381D01*
X227054001Y-103922953D02*
X226958762Y-103875334D01*
X226911143Y-103827715D01*
X226863524Y-103732477D01*
X226863524Y-103684858D01*
X226911143Y-103589620D01*
X226958762Y-103542001D01*
X227054001Y-103494381D01*
X227244477Y-103494381D01*
X227339715Y-103542001D01*
X227387334Y-103589620D01*
X227434953Y-103684858D01*
X227434953Y-103732477D01*
X227387334Y-103827715D01*
X227339715Y-103875334D01*
X227244477Y-103922953D01*
X227054001Y-103922953D01*
X226958762Y-103970572D01*
X226911143Y-104018191D01*
X226863524Y-104113429D01*
X226863524Y-104303905D01*
X226911143Y-104399143D01*
X226958762Y-104446762D01*
X227054001Y-104494381D01*
X227244477Y-104494381D01*
X227339715Y-104446762D01*
X227387334Y-104399143D01*
X227434953Y-104303905D01*
X227434953Y-104113429D01*
X227387334Y-104018191D01*
X227339715Y-103970572D01*
X227244477Y-103922953D01*
%TO.C,D7*%
X65602380Y-95099095D02*
X64602380Y-95099095D01*
X64602380Y-94861000D01*
X64650000Y-94718142D01*
X64745238Y-94622904D01*
X64840476Y-94575285D01*
X65030952Y-94527666D01*
X65173809Y-94527666D01*
X65364285Y-94575285D01*
X65459523Y-94622904D01*
X65554761Y-94718142D01*
X65602380Y-94861000D01*
X65602380Y-95099095D01*
X64602380Y-94194333D02*
X64602380Y-93527666D01*
X65602380Y-93956238D01*
%TO.C,R19*%
X69032380Y-95003857D02*
X68556190Y-95337190D01*
X69032380Y-95575285D02*
X68032380Y-95575285D01*
X68032380Y-95194333D01*
X68080000Y-95099095D01*
X68127619Y-95051476D01*
X68222857Y-95003857D01*
X68365714Y-95003857D01*
X68460952Y-95051476D01*
X68508571Y-95099095D01*
X68556190Y-95194333D01*
X68556190Y-95575285D01*
X69032380Y-94051476D02*
X69032380Y-94622904D01*
X69032380Y-94337190D02*
X68032380Y-94337190D01*
X68175238Y-94432428D01*
X68270476Y-94527666D01*
X68318095Y-94622904D01*
X69032380Y-93575285D02*
X69032380Y-93384809D01*
X68984761Y-93289571D01*
X68937142Y-93241952D01*
X68794285Y-93146714D01*
X68603809Y-93099095D01*
X68222857Y-93099095D01*
X68127619Y-93146714D01*
X68080000Y-93194333D01*
X68032380Y-93289571D01*
X68032380Y-93480047D01*
X68080000Y-93575285D01*
X68127619Y-93622904D01*
X68222857Y-93670523D01*
X68460952Y-93670523D01*
X68556190Y-93622904D01*
X68603809Y-93575285D01*
X68651428Y-93480047D01*
X68651428Y-93289571D01*
X68603809Y-93194333D01*
X68556190Y-93146714D01*
X68460952Y-93099095D01*
%TO.C,C11*%
X87479142Y-118498857D02*
X87526761Y-118546476D01*
X87574380Y-118689333D01*
X87574380Y-118784571D01*
X87526761Y-118927428D01*
X87431523Y-119022666D01*
X87336285Y-119070285D01*
X87145809Y-119117904D01*
X87002952Y-119117904D01*
X86812476Y-119070285D01*
X86717238Y-119022666D01*
X86622000Y-118927428D01*
X86574380Y-118784571D01*
X86574380Y-118689333D01*
X86622000Y-118546476D01*
X86669619Y-118498857D01*
X87574380Y-117546476D02*
X87574380Y-118117904D01*
X87574380Y-117832190D02*
X86574380Y-117832190D01*
X86717238Y-117927428D01*
X86812476Y-118022666D01*
X86860095Y-118117904D01*
X87574380Y-116594095D02*
X87574380Y-117165523D01*
X87574380Y-116879809D02*
X86574380Y-116879809D01*
X86717238Y-116975047D01*
X86812476Y-117070285D01*
X86860095Y-117165523D01*
%TO.C,C12*%
X89765142Y-111386857D02*
X89812761Y-111434476D01*
X89860380Y-111577333D01*
X89860380Y-111672571D01*
X89812761Y-111815428D01*
X89717523Y-111910666D01*
X89622285Y-111958285D01*
X89431809Y-112005904D01*
X89288952Y-112005904D01*
X89098476Y-111958285D01*
X89003238Y-111910666D01*
X88908000Y-111815428D01*
X88860380Y-111672571D01*
X88860380Y-111577333D01*
X88908000Y-111434476D01*
X88955619Y-111386857D01*
X89860380Y-110434476D02*
X89860380Y-111005904D01*
X89860380Y-110720190D02*
X88860380Y-110720190D01*
X89003238Y-110815428D01*
X89098476Y-110910666D01*
X89146095Y-111005904D01*
X88955619Y-110053523D02*
X88908000Y-110005904D01*
X88860380Y-109910666D01*
X88860380Y-109672571D01*
X88908000Y-109577333D01*
X88955619Y-109529714D01*
X89050857Y-109482095D01*
X89146095Y-109482095D01*
X89288952Y-109529714D01*
X89860380Y-110101142D01*
X89860380Y-109482095D01*
%TO.C,C13*%
X89765142Y-126118857D02*
X89812761Y-126166476D01*
X89860380Y-126309333D01*
X89860380Y-126404571D01*
X89812761Y-126547428D01*
X89717523Y-126642666D01*
X89622285Y-126690285D01*
X89431809Y-126737904D01*
X89288952Y-126737904D01*
X89098476Y-126690285D01*
X89003238Y-126642666D01*
X88908000Y-126547428D01*
X88860380Y-126404571D01*
X88860380Y-126309333D01*
X88908000Y-126166476D01*
X88955619Y-126118857D01*
X89860380Y-125166476D02*
X89860380Y-125737904D01*
X89860380Y-125452190D02*
X88860380Y-125452190D01*
X89003238Y-125547428D01*
X89098476Y-125642666D01*
X89146095Y-125737904D01*
X88860380Y-124833142D02*
X88860380Y-124214095D01*
X89241333Y-124547428D01*
X89241333Y-124404571D01*
X89288952Y-124309333D01*
X89336571Y-124261714D01*
X89431809Y-124214095D01*
X89669904Y-124214095D01*
X89765142Y-124261714D01*
X89812761Y-124309333D01*
X89860380Y-124404571D01*
X89860380Y-124690285D01*
X89812761Y-124785523D01*
X89765142Y-124833142D01*
%TO.C,C8*%
X228957142Y-97829666D02*
X229004761Y-97877285D01*
X229052380Y-98020142D01*
X229052380Y-98115380D01*
X229004761Y-98258238D01*
X228909523Y-98353476D01*
X228814285Y-98401095D01*
X228623809Y-98448714D01*
X228480952Y-98448714D01*
X228290476Y-98401095D01*
X228195238Y-98353476D01*
X228100000Y-98258238D01*
X228052380Y-98115380D01*
X228052380Y-98020142D01*
X228100000Y-97877285D01*
X228147619Y-97829666D01*
X228480952Y-97258238D02*
X228433333Y-97353476D01*
X228385714Y-97401095D01*
X228290476Y-97448714D01*
X228242857Y-97448714D01*
X228147619Y-97401095D01*
X228100000Y-97353476D01*
X228052380Y-97258238D01*
X228052380Y-97067761D01*
X228100000Y-96972523D01*
X228147619Y-96924904D01*
X228242857Y-96877285D01*
X228290476Y-96877285D01*
X228385714Y-96924904D01*
X228433333Y-96972523D01*
X228480952Y-97067761D01*
X228480952Y-97258238D01*
X228528571Y-97353476D01*
X228576190Y-97401095D01*
X228671428Y-97448714D01*
X228861904Y-97448714D01*
X228957142Y-97401095D01*
X229004761Y-97353476D01*
X229052380Y-97258238D01*
X229052380Y-97067761D01*
X229004761Y-96972523D01*
X228957142Y-96924904D01*
X228861904Y-96877285D01*
X228671428Y-96877285D01*
X228576190Y-96924904D01*
X228528571Y-96972523D01*
X228480952Y-97067761D01*
%TO.C,C9*%
X217971642Y-97829666D02*
X218019261Y-97877285D01*
X218066880Y-98020142D01*
X218066880Y-98115380D01*
X218019261Y-98258238D01*
X217924023Y-98353476D01*
X217828785Y-98401095D01*
X217638309Y-98448714D01*
X217495452Y-98448714D01*
X217304976Y-98401095D01*
X217209738Y-98353476D01*
X217114500Y-98258238D01*
X217066880Y-98115380D01*
X217066880Y-98020142D01*
X217114500Y-97877285D01*
X217162119Y-97829666D01*
X218066880Y-97353476D02*
X218066880Y-97163000D01*
X218019261Y-97067761D01*
X217971642Y-97020142D01*
X217828785Y-96924904D01*
X217638309Y-96877285D01*
X217257357Y-96877285D01*
X217162119Y-96924904D01*
X217114500Y-96972523D01*
X217066880Y-97067761D01*
X217066880Y-97258238D01*
X217114500Y-97353476D01*
X217162119Y-97401095D01*
X217257357Y-97448714D01*
X217495452Y-97448714D01*
X217590690Y-97401095D01*
X217638309Y-97353476D01*
X217685928Y-97258238D01*
X217685928Y-97067761D01*
X217638309Y-96972523D01*
X217590690Y-96924904D01*
X217495452Y-96877285D01*
%TO.C,C14*%
X95861142Y-126372857D02*
X95908761Y-126420476D01*
X95956380Y-126563333D01*
X95956380Y-126658571D01*
X95908761Y-126801428D01*
X95813523Y-126896666D01*
X95718285Y-126944285D01*
X95527809Y-126991904D01*
X95384952Y-126991904D01*
X95194476Y-126944285D01*
X95099238Y-126896666D01*
X95004000Y-126801428D01*
X94956380Y-126658571D01*
X94956380Y-126563333D01*
X95004000Y-126420476D01*
X95051619Y-126372857D01*
X95956380Y-125420476D02*
X95956380Y-125991904D01*
X95956380Y-125706190D02*
X94956380Y-125706190D01*
X95099238Y-125801428D01*
X95194476Y-125896666D01*
X95242095Y-125991904D01*
X95289714Y-124563333D02*
X95956380Y-124563333D01*
X94908761Y-124801428D02*
X95623047Y-125039523D01*
X95623047Y-124420476D01*
%TO.C,C15*%
X95861142Y-111386857D02*
X95908761Y-111434476D01*
X95956380Y-111577333D01*
X95956380Y-111672571D01*
X95908761Y-111815428D01*
X95813523Y-111910666D01*
X95718285Y-111958285D01*
X95527809Y-112005904D01*
X95384952Y-112005904D01*
X95194476Y-111958285D01*
X95099238Y-111910666D01*
X95004000Y-111815428D01*
X94956380Y-111672571D01*
X94956380Y-111577333D01*
X95004000Y-111434476D01*
X95051619Y-111386857D01*
X95956380Y-110434476D02*
X95956380Y-111005904D01*
X95956380Y-110720190D02*
X94956380Y-110720190D01*
X95099238Y-110815428D01*
X95194476Y-110910666D01*
X95242095Y-111005904D01*
X94956380Y-109529714D02*
X94956380Y-110005904D01*
X95432571Y-110053523D01*
X95384952Y-110005904D01*
X95337333Y-109910666D01*
X95337333Y-109672571D01*
X95384952Y-109577333D01*
X95432571Y-109529714D01*
X95527809Y-109482095D01*
X95765904Y-109482095D01*
X95861142Y-109529714D01*
X95908761Y-109577333D01*
X95956380Y-109672571D01*
X95956380Y-109910666D01*
X95908761Y-110005904D01*
X95861142Y-110053523D01*
%TO.C,R20*%
X180030380Y-91574857D02*
X179554190Y-91908190D01*
X180030380Y-92146285D02*
X179030380Y-92146285D01*
X179030380Y-91765333D01*
X179078000Y-91670095D01*
X179125619Y-91622476D01*
X179220857Y-91574857D01*
X179363714Y-91574857D01*
X179458952Y-91622476D01*
X179506571Y-91670095D01*
X179554190Y-91765333D01*
X179554190Y-92146285D01*
X179125619Y-91193904D02*
X179078000Y-91146285D01*
X179030380Y-91051047D01*
X179030380Y-90812952D01*
X179078000Y-90717714D01*
X179125619Y-90670095D01*
X179220857Y-90622476D01*
X179316095Y-90622476D01*
X179458952Y-90670095D01*
X180030380Y-91241523D01*
X180030380Y-90622476D01*
X179030380Y-90003428D02*
X179030380Y-89908190D01*
X179078000Y-89812952D01*
X179125619Y-89765333D01*
X179220857Y-89717714D01*
X179411333Y-89670095D01*
X179649428Y-89670095D01*
X179839904Y-89717714D01*
X179935142Y-89765333D01*
X179982761Y-89812952D01*
X180030380Y-89908190D01*
X180030380Y-90003428D01*
X179982761Y-90098666D01*
X179935142Y-90146285D01*
X179839904Y-90193904D01*
X179649428Y-90241523D01*
X179411333Y-90241523D01*
X179220857Y-90193904D01*
X179125619Y-90146285D01*
X179078000Y-90098666D01*
X179030380Y-90003428D01*
%TO.C,R21*%
X201642742Y-102103180D02*
X201309409Y-101626990D01*
X201071314Y-102103180D02*
X201071314Y-101103180D01*
X201452266Y-101103180D01*
X201547504Y-101150800D01*
X201595123Y-101198419D01*
X201642742Y-101293657D01*
X201642742Y-101436514D01*
X201595123Y-101531752D01*
X201547504Y-101579371D01*
X201452266Y-101626990D01*
X201071314Y-101626990D01*
X202023695Y-101198419D02*
X202071314Y-101150800D01*
X202166552Y-101103180D01*
X202404647Y-101103180D01*
X202499885Y-101150800D01*
X202547504Y-101198419D01*
X202595123Y-101293657D01*
X202595123Y-101388895D01*
X202547504Y-101531752D01*
X201976076Y-102103180D01*
X202595123Y-102103180D01*
X203547504Y-102103180D02*
X202976076Y-102103180D01*
X203261790Y-102103180D02*
X203261790Y-101103180D01*
X203166552Y-101246038D01*
X203071314Y-101341276D01*
X202976076Y-101388895D01*
%TO.C,C17*%
X171172142Y-91955857D02*
X171219761Y-92003476D01*
X171267380Y-92146333D01*
X171267380Y-92241571D01*
X171219761Y-92384428D01*
X171124523Y-92479666D01*
X171029285Y-92527285D01*
X170838809Y-92574904D01*
X170695952Y-92574904D01*
X170505476Y-92527285D01*
X170410238Y-92479666D01*
X170315000Y-92384428D01*
X170267380Y-92241571D01*
X170267380Y-92146333D01*
X170315000Y-92003476D01*
X170362619Y-91955857D01*
X171267380Y-91003476D02*
X171267380Y-91574904D01*
X171267380Y-91289190D02*
X170267380Y-91289190D01*
X170410238Y-91384428D01*
X170505476Y-91479666D01*
X170553095Y-91574904D01*
X170267380Y-90670142D02*
X170267380Y-90003476D01*
X171267380Y-90432047D01*
%TO.C,C18*%
X201490342Y-105614742D02*
X201442723Y-105662361D01*
X201299866Y-105709980D01*
X201204628Y-105709980D01*
X201061771Y-105662361D01*
X200966533Y-105567123D01*
X200918914Y-105471885D01*
X200871295Y-105281409D01*
X200871295Y-105138552D01*
X200918914Y-104948076D01*
X200966533Y-104852838D01*
X201061771Y-104757600D01*
X201204628Y-104709980D01*
X201299866Y-104709980D01*
X201442723Y-104757600D01*
X201490342Y-104805219D01*
X202442723Y-105709980D02*
X201871295Y-105709980D01*
X202157009Y-105709980D02*
X202157009Y-104709980D01*
X202061771Y-104852838D01*
X201966533Y-104948076D01*
X201871295Y-104995695D01*
X203014152Y-105138552D02*
X202918914Y-105090933D01*
X202871295Y-105043314D01*
X202823676Y-104948076D01*
X202823676Y-104900457D01*
X202871295Y-104805219D01*
X202918914Y-104757600D01*
X203014152Y-104709980D01*
X203204628Y-104709980D01*
X203299866Y-104757600D01*
X203347485Y-104805219D01*
X203395104Y-104900457D01*
X203395104Y-104948076D01*
X203347485Y-105043314D01*
X203299866Y-105090933D01*
X203204628Y-105138552D01*
X203014152Y-105138552D01*
X202918914Y-105186171D01*
X202871295Y-105233790D01*
X202823676Y-105329028D01*
X202823676Y-105519504D01*
X202871295Y-105614742D01*
X202918914Y-105662361D01*
X203014152Y-105709980D01*
X203204628Y-105709980D01*
X203299866Y-105662361D01*
X203347485Y-105614742D01*
X203395104Y-105519504D01*
X203395104Y-105329028D01*
X203347485Y-105233790D01*
X203299866Y-105186171D01*
X203204628Y-105138552D01*
%TO.C,R22*%
X173299380Y-91955857D02*
X172823190Y-92289190D01*
X173299380Y-92527285D02*
X172299380Y-92527285D01*
X172299380Y-92146333D01*
X172347000Y-92051095D01*
X172394619Y-92003476D01*
X172489857Y-91955857D01*
X172632714Y-91955857D01*
X172727952Y-92003476D01*
X172775571Y-92051095D01*
X172823190Y-92146333D01*
X172823190Y-92527285D01*
X172394619Y-91574904D02*
X172347000Y-91527285D01*
X172299380Y-91432047D01*
X172299380Y-91193952D01*
X172347000Y-91098714D01*
X172394619Y-91051095D01*
X172489857Y-91003476D01*
X172585095Y-91003476D01*
X172727952Y-91051095D01*
X173299380Y-91622523D01*
X173299380Y-91003476D01*
X172394619Y-90622523D02*
X172347000Y-90574904D01*
X172299380Y-90479666D01*
X172299380Y-90241571D01*
X172347000Y-90146333D01*
X172394619Y-90098714D01*
X172489857Y-90051095D01*
X172585095Y-90051095D01*
X172727952Y-90098714D01*
X173299380Y-90670142D01*
X173299380Y-90051095D01*
%TO.C,R23*%
X213733142Y-97226380D02*
X213399809Y-96750190D01*
X213161714Y-97226380D02*
X213161714Y-96226380D01*
X213542666Y-96226380D01*
X213637904Y-96274000D01*
X213685523Y-96321619D01*
X213733142Y-96416857D01*
X213733142Y-96559714D01*
X213685523Y-96654952D01*
X213637904Y-96702571D01*
X213542666Y-96750190D01*
X213161714Y-96750190D01*
X214114095Y-96321619D02*
X214161714Y-96274000D01*
X214256952Y-96226380D01*
X214495047Y-96226380D01*
X214590285Y-96274000D01*
X214637904Y-96321619D01*
X214685523Y-96416857D01*
X214685523Y-96512095D01*
X214637904Y-96654952D01*
X214066476Y-97226380D01*
X214685523Y-97226380D01*
X215018857Y-96226380D02*
X215637904Y-96226380D01*
X215304571Y-96607333D01*
X215447428Y-96607333D01*
X215542666Y-96654952D01*
X215590285Y-96702571D01*
X215637904Y-96797809D01*
X215637904Y-97035904D01*
X215590285Y-97131142D01*
X215542666Y-97178761D01*
X215447428Y-97226380D01*
X215161714Y-97226380D01*
X215066476Y-97178761D01*
X215018857Y-97131142D01*
%TO.C,D6*%
X237132380Y-132818095D02*
X236132380Y-132818095D01*
X236132380Y-132580000D01*
X236180000Y-132437142D01*
X236275238Y-132341904D01*
X236370476Y-132294285D01*
X236560952Y-132246666D01*
X236703809Y-132246666D01*
X236894285Y-132294285D01*
X236989523Y-132341904D01*
X237084761Y-132437142D01*
X237132380Y-132580000D01*
X237132380Y-132818095D01*
X236132380Y-131389523D02*
X236132380Y-131580000D01*
X236180000Y-131675238D01*
X236227619Y-131722857D01*
X236370476Y-131818095D01*
X236560952Y-131865714D01*
X236941904Y-131865714D01*
X237037142Y-131818095D01*
X237084761Y-131770476D01*
X237132380Y-131675238D01*
X237132380Y-131484761D01*
X237084761Y-131389523D01*
X237037142Y-131341904D01*
X236941904Y-131294285D01*
X236703809Y-131294285D01*
X236608571Y-131341904D01*
X236560952Y-131389523D01*
X236513333Y-131484761D01*
X236513333Y-131675238D01*
X236560952Y-131770476D01*
X236608571Y-131818095D01*
X236703809Y-131865714D01*
%TO.C,D9*%
X223464380Y-132818095D02*
X222464380Y-132818095D01*
X222464380Y-132580000D01*
X222512000Y-132437142D01*
X222607238Y-132341904D01*
X222702476Y-132294285D01*
X222892952Y-132246666D01*
X223035809Y-132246666D01*
X223226285Y-132294285D01*
X223321523Y-132341904D01*
X223416761Y-132437142D01*
X223464380Y-132580000D01*
X223464380Y-132818095D01*
X223464380Y-131770476D02*
X223464380Y-131580000D01*
X223416761Y-131484761D01*
X223369142Y-131437142D01*
X223226285Y-131341904D01*
X223035809Y-131294285D01*
X222654857Y-131294285D01*
X222559619Y-131341904D01*
X222512000Y-131389523D01*
X222464380Y-131484761D01*
X222464380Y-131675238D01*
X222512000Y-131770476D01*
X222559619Y-131818095D01*
X222654857Y-131865714D01*
X222892952Y-131865714D01*
X222988190Y-131818095D01*
X223035809Y-131770476D01*
X223083428Y-131675238D01*
X223083428Y-131484761D01*
X223035809Y-131389523D01*
X222988190Y-131341904D01*
X222892952Y-131294285D01*
%TO.C,D8*%
X236116380Y-101174095D02*
X235116380Y-101174095D01*
X235116380Y-100936000D01*
X235164000Y-100793142D01*
X235259238Y-100697904D01*
X235354476Y-100650285D01*
X235544952Y-100602666D01*
X235687809Y-100602666D01*
X235878285Y-100650285D01*
X235973523Y-100697904D01*
X236068761Y-100793142D01*
X236116380Y-100936000D01*
X236116380Y-101174095D01*
X235544952Y-100031238D02*
X235497333Y-100126476D01*
X235449714Y-100174095D01*
X235354476Y-100221714D01*
X235306857Y-100221714D01*
X235211619Y-100174095D01*
X235164000Y-100126476D01*
X235116380Y-100031238D01*
X235116380Y-99840761D01*
X235164000Y-99745523D01*
X235211619Y-99697904D01*
X235306857Y-99650285D01*
X235354476Y-99650285D01*
X235449714Y-99697904D01*
X235497333Y-99745523D01*
X235544952Y-99840761D01*
X235544952Y-100031238D01*
X235592571Y-100126476D01*
X235640190Y-100174095D01*
X235735428Y-100221714D01*
X235925904Y-100221714D01*
X236021142Y-100174095D01*
X236068761Y-100126476D01*
X236116380Y-100031238D01*
X236116380Y-99840761D01*
X236068761Y-99745523D01*
X236021142Y-99697904D01*
X235925904Y-99650285D01*
X235735428Y-99650285D01*
X235640190Y-99697904D01*
X235592571Y-99745523D01*
X235544952Y-99840761D01*
%TO.C,C10*%
X196715142Y-140819142D02*
X196667523Y-140866761D01*
X196524666Y-140914380D01*
X196429428Y-140914380D01*
X196286571Y-140866761D01*
X196191333Y-140771523D01*
X196143714Y-140676285D01*
X196096095Y-140485809D01*
X196096095Y-140342952D01*
X196143714Y-140152476D01*
X196191333Y-140057238D01*
X196286571Y-139962000D01*
X196429428Y-139914380D01*
X196524666Y-139914380D01*
X196667523Y-139962000D01*
X196715142Y-140009619D01*
X197667523Y-140914380D02*
X197096095Y-140914380D01*
X197381809Y-140914380D02*
X197381809Y-139914380D01*
X197286571Y-140057238D01*
X197191333Y-140152476D01*
X197096095Y-140200095D01*
X198286571Y-139914380D02*
X198381809Y-139914380D01*
X198477047Y-139962000D01*
X198524666Y-140009619D01*
X198572285Y-140104857D01*
X198619904Y-140295333D01*
X198619904Y-140533428D01*
X198572285Y-140723904D01*
X198524666Y-140819142D01*
X198477047Y-140866761D01*
X198381809Y-140914380D01*
X198286571Y-140914380D01*
X198191333Y-140866761D01*
X198143714Y-140819142D01*
X198096095Y-140723904D01*
X198048476Y-140533428D01*
X198048476Y-140295333D01*
X198096095Y-140104857D01*
X198143714Y-140009619D01*
X198191333Y-139962000D01*
X198286571Y-139914380D01*
%TO.C,C16*%
X195169642Y-137771142D02*
X195122023Y-137818761D01*
X194979166Y-137866380D01*
X194883928Y-137866380D01*
X194741071Y-137818761D01*
X194645833Y-137723523D01*
X194598214Y-137628285D01*
X194550595Y-137437809D01*
X194550595Y-137294952D01*
X194598214Y-137104476D01*
X194645833Y-137009238D01*
X194741071Y-136914000D01*
X194883928Y-136866380D01*
X194979166Y-136866380D01*
X195122023Y-136914000D01*
X195169642Y-136961619D01*
X196122023Y-137866380D02*
X195550595Y-137866380D01*
X195836309Y-137866380D02*
X195836309Y-136866380D01*
X195741071Y-137009238D01*
X195645833Y-137104476D01*
X195550595Y-137152095D01*
X196979166Y-136866380D02*
X196788690Y-136866380D01*
X196693452Y-136914000D01*
X196645833Y-136961619D01*
X196550595Y-137104476D01*
X196502976Y-137294952D01*
X196502976Y-137675904D01*
X196550595Y-137771142D01*
X196598214Y-137818761D01*
X196693452Y-137866380D01*
X196883928Y-137866380D01*
X196979166Y-137818761D01*
X197026785Y-137771142D01*
X197074404Y-137675904D01*
X197074404Y-137437809D01*
X197026785Y-137342571D01*
X196979166Y-137294952D01*
X196883928Y-137247333D01*
X196693452Y-137247333D01*
X196598214Y-137294952D01*
X196550595Y-137342571D01*
X196502976Y-137437809D01*
%TO.C,C19*%
X195191142Y-135739142D02*
X195143523Y-135786761D01*
X195000666Y-135834380D01*
X194905428Y-135834380D01*
X194762571Y-135786761D01*
X194667333Y-135691523D01*
X194619714Y-135596285D01*
X194572095Y-135405809D01*
X194572095Y-135262952D01*
X194619714Y-135072476D01*
X194667333Y-134977238D01*
X194762571Y-134882000D01*
X194905428Y-134834380D01*
X195000666Y-134834380D01*
X195143523Y-134882000D01*
X195191142Y-134929619D01*
X196143523Y-135834380D02*
X195572095Y-135834380D01*
X195857809Y-135834380D02*
X195857809Y-134834380D01*
X195762571Y-134977238D01*
X195667333Y-135072476D01*
X195572095Y-135120095D01*
X196619714Y-135834380D02*
X196810190Y-135834380D01*
X196905428Y-135786761D01*
X196953047Y-135739142D01*
X197048285Y-135596285D01*
X197095904Y-135405809D01*
X197095904Y-135024857D01*
X197048285Y-134929619D01*
X197000666Y-134882000D01*
X196905428Y-134834380D01*
X196714952Y-134834380D01*
X196619714Y-134882000D01*
X196572095Y-134929619D01*
X196524476Y-135024857D01*
X196524476Y-135262952D01*
X196572095Y-135358190D01*
X196619714Y-135405809D01*
X196714952Y-135453428D01*
X196905428Y-135453428D01*
X197000666Y-135405809D01*
X197048285Y-135358190D01*
X197095904Y-135262952D01*
%TO.C,R24*%
X187317142Y-140788380D02*
X186983809Y-140312190D01*
X186745714Y-140788380D02*
X186745714Y-139788380D01*
X187126666Y-139788380D01*
X187221904Y-139836000D01*
X187269523Y-139883619D01*
X187317142Y-139978857D01*
X187317142Y-140121714D01*
X187269523Y-140216952D01*
X187221904Y-140264571D01*
X187126666Y-140312190D01*
X186745714Y-140312190D01*
X187698095Y-139883619D02*
X187745714Y-139836000D01*
X187840952Y-139788380D01*
X188079047Y-139788380D01*
X188174285Y-139836000D01*
X188221904Y-139883619D01*
X188269523Y-139978857D01*
X188269523Y-140074095D01*
X188221904Y-140216952D01*
X187650476Y-140788380D01*
X188269523Y-140788380D01*
X189126666Y-140121714D02*
X189126666Y-140788380D01*
X188888571Y-139740761D02*
X188650476Y-140455047D01*
X189269523Y-140455047D01*
%TO.C,R25*%
X185364380Y-151518857D02*
X184888190Y-151852190D01*
X185364380Y-152090285D02*
X184364380Y-152090285D01*
X184364380Y-151709333D01*
X184412000Y-151614095D01*
X184459619Y-151566476D01*
X184554857Y-151518857D01*
X184697714Y-151518857D01*
X184792952Y-151566476D01*
X184840571Y-151614095D01*
X184888190Y-151709333D01*
X184888190Y-152090285D01*
X184459619Y-151137904D02*
X184412000Y-151090285D01*
X184364380Y-150995047D01*
X184364380Y-150756952D01*
X184412000Y-150661714D01*
X184459619Y-150614095D01*
X184554857Y-150566476D01*
X184650095Y-150566476D01*
X184792952Y-150614095D01*
X185364380Y-151185523D01*
X185364380Y-150566476D01*
X184364380Y-149661714D02*
X184364380Y-150137904D01*
X184840571Y-150185523D01*
X184792952Y-150137904D01*
X184745333Y-150042666D01*
X184745333Y-149804571D01*
X184792952Y-149709333D01*
X184840571Y-149661714D01*
X184935809Y-149614095D01*
X185173904Y-149614095D01*
X185269142Y-149661714D01*
X185316761Y-149709333D01*
X185364380Y-149804571D01*
X185364380Y-150042666D01*
X185316761Y-150137904D01*
X185269142Y-150185523D01*
%TO.C,C20*%
X199776142Y-119641857D02*
X199823761Y-119689476D01*
X199871380Y-119832333D01*
X199871380Y-119927571D01*
X199823761Y-120070428D01*
X199728523Y-120165666D01*
X199633285Y-120213285D01*
X199442809Y-120260904D01*
X199299952Y-120260904D01*
X199109476Y-120213285D01*
X199014238Y-120165666D01*
X198919000Y-120070428D01*
X198871380Y-119927571D01*
X198871380Y-119832333D01*
X198919000Y-119689476D01*
X198966619Y-119641857D01*
X198966619Y-119260904D02*
X198919000Y-119213285D01*
X198871380Y-119118047D01*
X198871380Y-118879952D01*
X198919000Y-118784714D01*
X198966619Y-118737095D01*
X199061857Y-118689476D01*
X199157095Y-118689476D01*
X199299952Y-118737095D01*
X199871380Y-119308523D01*
X199871380Y-118689476D01*
X198871380Y-118070428D02*
X198871380Y-117975190D01*
X198919000Y-117879952D01*
X198966619Y-117832333D01*
X199061857Y-117784714D01*
X199252333Y-117737095D01*
X199490428Y-117737095D01*
X199680904Y-117784714D01*
X199776142Y-117832333D01*
X199823761Y-117879952D01*
X199871380Y-117975190D01*
X199871380Y-118070428D01*
X199823761Y-118165666D01*
X199776142Y-118213285D01*
X199680904Y-118260904D01*
X199490428Y-118308523D01*
X199252333Y-118308523D01*
X199061857Y-118260904D01*
X198966619Y-118213285D01*
X198919000Y-118165666D01*
X198871380Y-118070428D01*
%TO.C,C21*%
X194159142Y-119514857D02*
X194206761Y-119562476D01*
X194254380Y-119705333D01*
X194254380Y-119800571D01*
X194206761Y-119943428D01*
X194111523Y-120038666D01*
X194016285Y-120086285D01*
X193825809Y-120133904D01*
X193682952Y-120133904D01*
X193492476Y-120086285D01*
X193397238Y-120038666D01*
X193302000Y-119943428D01*
X193254380Y-119800571D01*
X193254380Y-119705333D01*
X193302000Y-119562476D01*
X193349619Y-119514857D01*
X193349619Y-119133904D02*
X193302000Y-119086285D01*
X193254380Y-118991047D01*
X193254380Y-118752952D01*
X193302000Y-118657714D01*
X193349619Y-118610095D01*
X193444857Y-118562476D01*
X193540095Y-118562476D01*
X193682952Y-118610095D01*
X194254380Y-119181523D01*
X194254380Y-118562476D01*
X194254380Y-117610095D02*
X194254380Y-118181523D01*
X194254380Y-117895809D02*
X193254380Y-117895809D01*
X193397238Y-117991047D01*
X193492476Y-118086285D01*
X193540095Y-118181523D01*
%TO.C,J10*%
X192484476Y-150582380D02*
X192484476Y-151296666D01*
X192436857Y-151439523D01*
X192341619Y-151534761D01*
X192198761Y-151582380D01*
X192103523Y-151582380D01*
X193484476Y-151582380D02*
X192913047Y-151582380D01*
X193198761Y-151582380D02*
X193198761Y-150582380D01*
X193103523Y-150725238D01*
X193008285Y-150820476D01*
X192913047Y-150868095D01*
X194103523Y-150582380D02*
X194198761Y-150582380D01*
X194294000Y-150630000D01*
X194341619Y-150677619D01*
X194389238Y-150772857D01*
X194436857Y-150963333D01*
X194436857Y-151201428D01*
X194389238Y-151391904D01*
X194341619Y-151487142D01*
X194294000Y-151534761D01*
X194198761Y-151582380D01*
X194103523Y-151582380D01*
X194008285Y-151534761D01*
X193960666Y-151487142D01*
X193913047Y-151391904D01*
X193865428Y-151201428D01*
X193865428Y-150963333D01*
X193913047Y-150772857D01*
X193960666Y-150677619D01*
X194008285Y-150630000D01*
X194103523Y-150582380D01*
%TO.C,R26*%
X187904380Y-135135857D02*
X187428190Y-135469190D01*
X187904380Y-135707285D02*
X186904380Y-135707285D01*
X186904380Y-135326333D01*
X186952000Y-135231095D01*
X186999619Y-135183476D01*
X187094857Y-135135857D01*
X187237714Y-135135857D01*
X187332952Y-135183476D01*
X187380571Y-135231095D01*
X187428190Y-135326333D01*
X187428190Y-135707285D01*
X186999619Y-134754904D02*
X186952000Y-134707285D01*
X186904380Y-134612047D01*
X186904380Y-134373952D01*
X186952000Y-134278714D01*
X186999619Y-134231095D01*
X187094857Y-134183476D01*
X187190095Y-134183476D01*
X187332952Y-134231095D01*
X187904380Y-134802523D01*
X187904380Y-134183476D01*
X186904380Y-133326333D02*
X186904380Y-133516809D01*
X186952000Y-133612047D01*
X186999619Y-133659666D01*
X187142476Y-133754904D01*
X187332952Y-133802523D01*
X187713904Y-133802523D01*
X187809142Y-133754904D01*
X187856761Y-133707285D01*
X187904380Y-133612047D01*
X187904380Y-133421571D01*
X187856761Y-133326333D01*
X187809142Y-133278714D01*
X187713904Y-133231095D01*
X187475809Y-133231095D01*
X187380571Y-133278714D01*
X187332952Y-133326333D01*
X187285333Y-133421571D01*
X187285333Y-133612047D01*
X187332952Y-133707285D01*
X187380571Y-133754904D01*
X187475809Y-133802523D01*
%TO.C,R27*%
X185999380Y-135135857D02*
X185523190Y-135469190D01*
X185999380Y-135707285D02*
X184999380Y-135707285D01*
X184999380Y-135326333D01*
X185047000Y-135231095D01*
X185094619Y-135183476D01*
X185189857Y-135135857D01*
X185332714Y-135135857D01*
X185427952Y-135183476D01*
X185475571Y-135231095D01*
X185523190Y-135326333D01*
X185523190Y-135707285D01*
X185094619Y-134754904D02*
X185047000Y-134707285D01*
X184999380Y-134612047D01*
X184999380Y-134373952D01*
X185047000Y-134278714D01*
X185094619Y-134231095D01*
X185189857Y-134183476D01*
X185285095Y-134183476D01*
X185427952Y-134231095D01*
X185999380Y-134802523D01*
X185999380Y-134183476D01*
X184999380Y-133850142D02*
X184999380Y-133183476D01*
X185999380Y-133612047D01*
%TO.C,D10*%
X223543380Y-110942285D02*
X222543380Y-110942285D01*
X222543380Y-110704190D01*
X222591000Y-110561333D01*
X222686238Y-110466095D01*
X222781476Y-110418476D01*
X222971952Y-110370857D01*
X223114809Y-110370857D01*
X223305285Y-110418476D01*
X223400523Y-110466095D01*
X223495761Y-110561333D01*
X223543380Y-110704190D01*
X223543380Y-110942285D01*
X223543380Y-109418476D02*
X223543380Y-109989904D01*
X223543380Y-109704190D02*
X222543380Y-109704190D01*
X222686238Y-109799428D01*
X222781476Y-109894666D01*
X222829095Y-109989904D01*
X222543380Y-108799428D02*
X222543380Y-108704190D01*
X222591000Y-108608952D01*
X222638619Y-108561333D01*
X222733857Y-108513714D01*
X222924333Y-108466095D01*
X223162428Y-108466095D01*
X223352904Y-108513714D01*
X223448142Y-108561333D01*
X223495761Y-108608952D01*
X223543380Y-108704190D01*
X223543380Y-108799428D01*
X223495761Y-108894666D01*
X223448142Y-108942285D01*
X223352904Y-108989904D01*
X223162428Y-109037523D01*
X222924333Y-109037523D01*
X222733857Y-108989904D01*
X222638619Y-108942285D01*
X222591000Y-108894666D01*
X222543380Y-108799428D01*
%TO.C,IC1*%
D14*
X175533904Y-88011952D02*
X175533904Y-87611952D01*
X176057714Y-87973857D02*
X176033904Y-87992904D01*
X175962476Y-88011952D01*
X175914857Y-88011952D01*
X175843428Y-87992904D01*
X175795809Y-87954809D01*
X175772000Y-87916714D01*
X175748190Y-87840523D01*
X175748190Y-87783380D01*
X175772000Y-87707190D01*
X175795809Y-87669095D01*
X175843428Y-87631000D01*
X175914857Y-87611952D01*
X175962476Y-87611952D01*
X176033904Y-87631000D01*
X176057714Y-87650047D01*
X176533904Y-88011952D02*
X176248190Y-88011952D01*
X176391047Y-88011952D02*
X176391047Y-87611952D01*
X176343428Y-87669095D01*
X176295809Y-87707190D01*
X176248190Y-87726238D01*
%TO.C,IC2*%
X204997904Y-98023952D02*
X204997904Y-97623952D01*
X205521714Y-97985857D02*
X205497904Y-98004904D01*
X205426476Y-98023952D01*
X205378857Y-98023952D01*
X205307428Y-98004904D01*
X205259809Y-97966809D01*
X205236000Y-97928714D01*
X205212190Y-97852523D01*
X205212190Y-97795380D01*
X205236000Y-97719190D01*
X205259809Y-97681095D01*
X205307428Y-97643000D01*
X205378857Y-97623952D01*
X205426476Y-97623952D01*
X205497904Y-97643000D01*
X205521714Y-97662047D01*
X205712190Y-97662047D02*
X205736000Y-97643000D01*
X205783619Y-97623952D01*
X205902666Y-97623952D01*
X205950285Y-97643000D01*
X205974095Y-97662047D01*
X205997904Y-97700142D01*
X205997904Y-97738238D01*
X205974095Y-97795380D01*
X205688380Y-98023952D01*
X205997904Y-98023952D01*
%TD*%
M02*
