%TF.GenerationSoftware,KiCad,Pcbnew,(5.1.10)-1*%
%TF.CreationDate,2021-06-27T19:19:49+02:00*%
%TF.ProjectId,xfm2,78666d32-2e6b-4696-9361-645f70636258,rev?*%
%TF.SameCoordinates,Original*%
%TF.FileFunction,Legend,Top*%
%TF.FilePolarity,Positive*%
%FSLAX46Y46*%
G04 Gerber Fmt 4.6, Leading zero omitted, Abs format (unit mm)*
G04 Created by KiCad (PCBNEW (5.1.10)-1) date 2021-06-27 19:19:49*
%MOMM*%
%LPD*%
G01*
G04 APERTURE LIST*
%ADD10C,0.150000*%
%ADD11C,0.300000*%
%ADD12C,0.050000*%
%ADD13C,0.120000*%
%ADD14C,0.200000*%
%ADD15C,0.100000*%
%ADD16C,0.304800*%
%ADD17C,0.254000*%
G04 APERTURE END LIST*
D10*
X62539809Y-92019380D02*
X62539809Y-91019380D01*
X62920761Y-91019380D01*
X63016000Y-91067000D01*
X63063619Y-91114619D01*
X63111238Y-91209857D01*
X63111238Y-91352714D01*
X63063619Y-91447952D01*
X63016000Y-91495571D01*
X62920761Y-91543190D01*
X62539809Y-91543190D01*
X63682666Y-92019380D02*
X63587428Y-91971761D01*
X63539809Y-91924142D01*
X63492190Y-91828904D01*
X63492190Y-91543190D01*
X63539809Y-91447952D01*
X63587428Y-91400333D01*
X63682666Y-91352714D01*
X63825523Y-91352714D01*
X63920761Y-91400333D01*
X63968380Y-91447952D01*
X64016000Y-91543190D01*
X64016000Y-91828904D01*
X63968380Y-91924142D01*
X63920761Y-91971761D01*
X63825523Y-92019380D01*
X63682666Y-92019380D01*
X64349333Y-91352714D02*
X64539809Y-92019380D01*
X64730285Y-91543190D01*
X64920761Y-92019380D01*
X65111238Y-91352714D01*
X65873142Y-91971761D02*
X65777904Y-92019380D01*
X65587428Y-92019380D01*
X65492190Y-91971761D01*
X65444571Y-91876523D01*
X65444571Y-91495571D01*
X65492190Y-91400333D01*
X65587428Y-91352714D01*
X65777904Y-91352714D01*
X65873142Y-91400333D01*
X65920761Y-91495571D01*
X65920761Y-91590809D01*
X65444571Y-91686047D01*
X66349333Y-92019380D02*
X66349333Y-91352714D01*
X66349333Y-91543190D02*
X66396952Y-91447952D01*
X66444571Y-91400333D01*
X66539809Y-91352714D01*
X66635047Y-91352714D01*
D11*
X224949428Y-139108571D02*
X224949428Y-137608571D01*
X225306571Y-137608571D01*
X225520857Y-137680000D01*
X225663714Y-137822857D01*
X225735142Y-137965714D01*
X225806571Y-138251428D01*
X225806571Y-138465714D01*
X225735142Y-138751428D01*
X225663714Y-138894285D01*
X225520857Y-139037142D01*
X225306571Y-139108571D01*
X224949428Y-139108571D01*
X227306571Y-138965714D02*
X227235142Y-139037142D01*
X227020857Y-139108571D01*
X226878000Y-139108571D01*
X226663714Y-139037142D01*
X226520857Y-138894285D01*
X226449428Y-138751428D01*
X226378000Y-138465714D01*
X226378000Y-138251428D01*
X226449428Y-137965714D01*
X226520857Y-137822857D01*
X226663714Y-137680000D01*
X226878000Y-137608571D01*
X227020857Y-137608571D01*
X227235142Y-137680000D01*
X227306571Y-137751428D01*
X229163714Y-139108571D02*
X229449428Y-139108571D01*
X229592285Y-139037142D01*
X229663714Y-138965714D01*
X229806571Y-138751428D01*
X229878000Y-138465714D01*
X229878000Y-137894285D01*
X229806571Y-137751428D01*
X229735142Y-137680000D01*
X229592285Y-137608571D01*
X229306571Y-137608571D01*
X229163714Y-137680000D01*
X229092285Y-137751428D01*
X229020857Y-137894285D01*
X229020857Y-138251428D01*
X229092285Y-138394285D01*
X229163714Y-138465714D01*
X229306571Y-138537142D01*
X229592285Y-138537142D01*
X229735142Y-138465714D01*
X229806571Y-138394285D01*
X229878000Y-138251428D01*
X230520857Y-138537142D02*
X231663714Y-138537142D01*
X233163714Y-139108571D02*
X232306571Y-139108571D01*
X232735142Y-139108571D02*
X232735142Y-137608571D01*
X232592285Y-137822857D01*
X232449428Y-137965714D01*
X232306571Y-138037142D01*
X233663714Y-137608571D02*
X234592285Y-137608571D01*
X234092285Y-138180000D01*
X234306571Y-138180000D01*
X234449428Y-138251428D01*
X234520857Y-138322857D01*
X234592285Y-138465714D01*
X234592285Y-138822857D01*
X234520857Y-138965714D01*
X234449428Y-139037142D01*
X234306571Y-139108571D01*
X233878000Y-139108571D01*
X233735142Y-139037142D01*
X233663714Y-138965714D01*
X235020857Y-137608571D02*
X235520857Y-139108571D01*
X236020857Y-137608571D01*
X208221142Y-141577142D02*
X208435428Y-141648571D01*
X208792571Y-141648571D01*
X208935428Y-141577142D01*
X209006857Y-141505714D01*
X209078285Y-141362857D01*
X209078285Y-141220000D01*
X209006857Y-141077142D01*
X208935428Y-141005714D01*
X208792571Y-140934285D01*
X208506857Y-140862857D01*
X208364000Y-140791428D01*
X208292571Y-140720000D01*
X208221142Y-140577142D01*
X208221142Y-140434285D01*
X208292571Y-140291428D01*
X208364000Y-140220000D01*
X208506857Y-140148571D01*
X208864000Y-140148571D01*
X209078285Y-140220000D01*
X209721142Y-141648571D02*
X209721142Y-140148571D01*
X210292571Y-140148571D01*
X210435428Y-140220000D01*
X210506857Y-140291428D01*
X210578285Y-140434285D01*
X210578285Y-140648571D01*
X210506857Y-140791428D01*
X210435428Y-140862857D01*
X210292571Y-140934285D01*
X209721142Y-140934285D01*
X211221142Y-141648571D02*
X211221142Y-140148571D01*
X211578285Y-140148571D01*
X211792571Y-140220000D01*
X211935428Y-140362857D01*
X212006857Y-140505714D01*
X212078285Y-140791428D01*
X212078285Y-141005714D01*
X212006857Y-141291428D01*
X211935428Y-141434285D01*
X211792571Y-141577142D01*
X211578285Y-141648571D01*
X211221142Y-141648571D01*
X212721142Y-141648571D02*
X212721142Y-140148571D01*
X213935428Y-140862857D02*
X213435428Y-140862857D01*
X213435428Y-141648571D02*
X213435428Y-140148571D01*
X214149714Y-140148571D01*
X216149714Y-140148571D02*
X216435428Y-140148571D01*
X216578285Y-140220000D01*
X216721142Y-140362857D01*
X216792571Y-140648571D01*
X216792571Y-141148571D01*
X216721142Y-141434285D01*
X216578285Y-141577142D01*
X216435428Y-141648571D01*
X216149714Y-141648571D01*
X216006857Y-141577142D01*
X215864000Y-141434285D01*
X215792571Y-141148571D01*
X215792571Y-140648571D01*
X215864000Y-140362857D01*
X216006857Y-140220000D01*
X216149714Y-140148571D01*
X218078285Y-140648571D02*
X218078285Y-141648571D01*
X217435428Y-140648571D02*
X217435428Y-141434285D01*
X217506857Y-141577142D01*
X217649714Y-141648571D01*
X217864000Y-141648571D01*
X218006857Y-141577142D01*
X218078285Y-141505714D01*
X218578285Y-140648571D02*
X219149714Y-140648571D01*
X218792571Y-140148571D02*
X218792571Y-141434285D01*
X218864000Y-141577142D01*
X219006857Y-141648571D01*
X219149714Y-141648571D01*
X186349428Y-110994000D02*
X187063714Y-110994000D01*
X186206571Y-111422571D02*
X186706571Y-109922571D01*
X187206571Y-111422571D01*
X187706571Y-110422571D02*
X187706571Y-111422571D01*
X187706571Y-110565428D02*
X187778000Y-110494000D01*
X187920857Y-110422571D01*
X188135142Y-110422571D01*
X188278000Y-110494000D01*
X188349428Y-110636857D01*
X188349428Y-111422571D01*
X189706571Y-111422571D02*
X189706571Y-110636857D01*
X189635142Y-110494000D01*
X189492285Y-110422571D01*
X189206571Y-110422571D01*
X189063714Y-110494000D01*
X189706571Y-111351142D02*
X189563714Y-111422571D01*
X189206571Y-111422571D01*
X189063714Y-111351142D01*
X188992285Y-111208285D01*
X188992285Y-111065428D01*
X189063714Y-110922571D01*
X189206571Y-110851142D01*
X189563714Y-110851142D01*
X189706571Y-110779714D01*
X190635142Y-111422571D02*
X190492285Y-111351142D01*
X190420857Y-111208285D01*
X190420857Y-109922571D01*
X191420857Y-111422571D02*
X191278000Y-111351142D01*
X191206571Y-111279714D01*
X191135142Y-111136857D01*
X191135142Y-110708285D01*
X191206571Y-110565428D01*
X191278000Y-110494000D01*
X191420857Y-110422571D01*
X191635142Y-110422571D01*
X191778000Y-110494000D01*
X191849428Y-110565428D01*
X191920857Y-110708285D01*
X191920857Y-111136857D01*
X191849428Y-111279714D01*
X191778000Y-111351142D01*
X191635142Y-111422571D01*
X191420857Y-111422571D01*
X193206571Y-110422571D02*
X193206571Y-111636857D01*
X193135142Y-111779714D01*
X193063714Y-111851142D01*
X192920857Y-111922571D01*
X192706571Y-111922571D01*
X192563714Y-111851142D01*
X193206571Y-111351142D02*
X193063714Y-111422571D01*
X192778000Y-111422571D01*
X192635142Y-111351142D01*
X192563714Y-111279714D01*
X192492285Y-111136857D01*
X192492285Y-110708285D01*
X192563714Y-110565428D01*
X192635142Y-110494000D01*
X192778000Y-110422571D01*
X193063714Y-110422571D01*
X193206571Y-110494000D01*
X195349428Y-109922571D02*
X195635142Y-109922571D01*
X195778000Y-109994000D01*
X195920857Y-110136857D01*
X195992285Y-110422571D01*
X195992285Y-110922571D01*
X195920857Y-111208285D01*
X195778000Y-111351142D01*
X195635142Y-111422571D01*
X195349428Y-111422571D01*
X195206571Y-111351142D01*
X195063714Y-111208285D01*
X194992285Y-110922571D01*
X194992285Y-110422571D01*
X195063714Y-110136857D01*
X195206571Y-109994000D01*
X195349428Y-109922571D01*
X197278000Y-110422571D02*
X197278000Y-111422571D01*
X196635142Y-110422571D02*
X196635142Y-111208285D01*
X196706571Y-111351142D01*
X196849428Y-111422571D01*
X197063714Y-111422571D01*
X197206571Y-111351142D01*
X197278000Y-111279714D01*
X197778000Y-110422571D02*
X198349428Y-110422571D01*
X197992285Y-109922571D02*
X197992285Y-111208285D01*
X198063714Y-111351142D01*
X198206571Y-111422571D01*
X198349428Y-111422571D01*
D10*
X235339380Y-88582428D02*
X234863190Y-88915761D01*
X235339380Y-89153857D02*
X234339380Y-89153857D01*
X234339380Y-88772904D01*
X234387000Y-88677666D01*
X234434619Y-88630047D01*
X234529857Y-88582428D01*
X234672714Y-88582428D01*
X234767952Y-88630047D01*
X234815571Y-88677666D01*
X234863190Y-88772904D01*
X234863190Y-89153857D01*
X235291761Y-87772904D02*
X235339380Y-87868142D01*
X235339380Y-88058619D01*
X235291761Y-88153857D01*
X235196523Y-88201476D01*
X234815571Y-88201476D01*
X234720333Y-88153857D01*
X234672714Y-88058619D01*
X234672714Y-87868142D01*
X234720333Y-87772904D01*
X234815571Y-87725285D01*
X234910809Y-87725285D01*
X235006047Y-88201476D01*
X235339380Y-86868142D02*
X234339380Y-86868142D01*
X235291761Y-86868142D02*
X235339380Y-86963380D01*
X235339380Y-87153857D01*
X235291761Y-87249095D01*
X235244142Y-87296714D01*
X235148904Y-87344333D01*
X234863190Y-87344333D01*
X234767952Y-87296714D01*
X234720333Y-87249095D01*
X234672714Y-87153857D01*
X234672714Y-86963380D01*
X234720333Y-86868142D01*
X236941761Y-90011000D02*
X236989380Y-89868142D01*
X236989380Y-89630047D01*
X236941761Y-89534809D01*
X236894142Y-89487190D01*
X236798904Y-89439571D01*
X236703666Y-89439571D01*
X236608428Y-89487190D01*
X236560809Y-89534809D01*
X236513190Y-89630047D01*
X236465571Y-89820523D01*
X236417952Y-89915761D01*
X236370333Y-89963380D01*
X236275095Y-90011000D01*
X236179857Y-90011000D01*
X236084619Y-89963380D01*
X236037000Y-89915761D01*
X235989380Y-89820523D01*
X235989380Y-89582428D01*
X236037000Y-89439571D01*
X236322714Y-89153857D02*
X236322714Y-88772904D01*
X235989380Y-89011000D02*
X236846523Y-89011000D01*
X236941761Y-88963380D01*
X236989380Y-88868142D01*
X236989380Y-88772904D01*
X236989380Y-88439571D02*
X236322714Y-88439571D01*
X236513190Y-88439571D02*
X236417952Y-88391952D01*
X236370333Y-88344333D01*
X236322714Y-88249095D01*
X236322714Y-88153857D01*
X236989380Y-87820523D02*
X236322714Y-87820523D01*
X235989380Y-87820523D02*
X236037000Y-87868142D01*
X236084619Y-87820523D01*
X236037000Y-87772904D01*
X235989380Y-87820523D01*
X236084619Y-87820523D01*
X236322714Y-87344333D02*
X237322714Y-87344333D01*
X236370333Y-87344333D02*
X236322714Y-87249095D01*
X236322714Y-87058619D01*
X236370333Y-86963380D01*
X236417952Y-86915761D01*
X236513190Y-86868142D01*
X236798904Y-86868142D01*
X236894142Y-86915761D01*
X236941761Y-86963380D01*
X236989380Y-87058619D01*
X236989380Y-87249095D01*
X236941761Y-87344333D01*
X236941761Y-86058619D02*
X236989380Y-86153857D01*
X236989380Y-86344333D01*
X236941761Y-86439571D01*
X236846523Y-86487190D01*
X236465571Y-86487190D01*
X236370333Y-86439571D01*
X236322714Y-86344333D01*
X236322714Y-86153857D01*
X236370333Y-86058619D01*
X236465571Y-86011000D01*
X236560809Y-86011000D01*
X236656047Y-86487190D01*
D12*
X183868190Y-91297142D02*
X183868190Y-91582857D01*
X183868190Y-91440000D02*
X183368190Y-91440000D01*
X183439619Y-91487619D01*
X183487238Y-91535238D01*
X183511047Y-91582857D01*
X184122190Y-122793142D02*
X184122190Y-123078857D01*
X184122190Y-122936000D02*
X183622190Y-122936000D01*
X183693619Y-122983619D01*
X183741238Y-123031238D01*
X183765047Y-123078857D01*
X168544857Y-123797190D02*
X168259142Y-123797190D01*
X168402000Y-123797190D02*
X168402000Y-123297190D01*
X168354380Y-123368619D01*
X168306761Y-123416238D01*
X168259142Y-123440047D01*
X77739857Y-100683190D02*
X77454142Y-100683190D01*
X77597000Y-100683190D02*
X77597000Y-100183190D01*
X77549380Y-100254619D01*
X77501761Y-100302238D01*
X77454142Y-100326047D01*
X81803857Y-122908190D02*
X81518142Y-122908190D01*
X81661000Y-122908190D02*
X81661000Y-122408190D01*
X81613380Y-122479619D01*
X81565761Y-122527238D01*
X81518142Y-122551047D01*
X135608190Y-117205142D02*
X135608190Y-117490857D01*
X135608190Y-117348000D02*
X135108190Y-117348000D01*
X135179619Y-117395619D01*
X135227238Y-117443238D01*
X135251047Y-117490857D01*
D11*
X162362000Y-134790571D02*
X162362000Y-133290571D01*
X162862000Y-134362000D01*
X163362000Y-133290571D01*
X163362000Y-134790571D01*
X164076285Y-134790571D02*
X164076285Y-133790571D01*
X164076285Y-133290571D02*
X164004857Y-133362000D01*
X164076285Y-133433428D01*
X164147714Y-133362000D01*
X164076285Y-133290571D01*
X164076285Y-133433428D01*
X165433428Y-134790571D02*
X165433428Y-133290571D01*
X165433428Y-134719142D02*
X165290571Y-134790571D01*
X165004857Y-134790571D01*
X164862000Y-134719142D01*
X164790571Y-134647714D01*
X164719142Y-134504857D01*
X164719142Y-134076285D01*
X164790571Y-133933428D01*
X164862000Y-133862000D01*
X165004857Y-133790571D01*
X165290571Y-133790571D01*
X165433428Y-133862000D01*
X166147714Y-134790571D02*
X166147714Y-133790571D01*
X166147714Y-133290571D02*
X166076285Y-133362000D01*
X166147714Y-133433428D01*
X166219142Y-133362000D01*
X166147714Y-133290571D01*
X166147714Y-133433428D01*
X168004857Y-134790571D02*
X168004857Y-133290571D01*
X168719142Y-133790571D02*
X168719142Y-134790571D01*
X168719142Y-133933428D02*
X168790571Y-133862000D01*
X168933428Y-133790571D01*
X169147714Y-133790571D01*
X169290571Y-133862000D01*
X169362000Y-134004857D01*
X169362000Y-134790571D01*
X138390857Y-134282571D02*
X138390857Y-132782571D01*
X138890857Y-133854000D01*
X139390857Y-132782571D01*
X139390857Y-134282571D01*
X140105142Y-134282571D02*
X140105142Y-133282571D01*
X140105142Y-132782571D02*
X140033714Y-132854000D01*
X140105142Y-132925428D01*
X140176571Y-132854000D01*
X140105142Y-132782571D01*
X140105142Y-132925428D01*
X141462285Y-134282571D02*
X141462285Y-132782571D01*
X141462285Y-134211142D02*
X141319428Y-134282571D01*
X141033714Y-134282571D01*
X140890857Y-134211142D01*
X140819428Y-134139714D01*
X140748000Y-133996857D01*
X140748000Y-133568285D01*
X140819428Y-133425428D01*
X140890857Y-133354000D01*
X141033714Y-133282571D01*
X141319428Y-133282571D01*
X141462285Y-133354000D01*
X142176571Y-134282571D02*
X142176571Y-133282571D01*
X142176571Y-132782571D02*
X142105142Y-132854000D01*
X142176571Y-132925428D01*
X142248000Y-132854000D01*
X142176571Y-132782571D01*
X142176571Y-132925428D01*
X144319428Y-132782571D02*
X144605142Y-132782571D01*
X144748000Y-132854000D01*
X144890857Y-132996857D01*
X144962285Y-133282571D01*
X144962285Y-133782571D01*
X144890857Y-134068285D01*
X144748000Y-134211142D01*
X144605142Y-134282571D01*
X144319428Y-134282571D01*
X144176571Y-134211142D01*
X144033714Y-134068285D01*
X143962285Y-133782571D01*
X143962285Y-133282571D01*
X144033714Y-132996857D01*
X144176571Y-132854000D01*
X144319428Y-132782571D01*
X146248000Y-133282571D02*
X146248000Y-134282571D01*
X145605142Y-133282571D02*
X145605142Y-134068285D01*
X145676571Y-134211142D01*
X145819428Y-134282571D01*
X146033714Y-134282571D01*
X146176571Y-134211142D01*
X146248000Y-134139714D01*
X146748000Y-133282571D02*
X147319428Y-133282571D01*
X146962285Y-132782571D02*
X146962285Y-134068285D01*
X147033714Y-134211142D01*
X147176571Y-134282571D01*
X147319428Y-134282571D01*
X115030857Y-134282571D02*
X115030857Y-132782571D01*
X115530857Y-133854000D01*
X116030857Y-132782571D01*
X116030857Y-134282571D01*
X116745142Y-134282571D02*
X116745142Y-133282571D01*
X116745142Y-132782571D02*
X116673714Y-132854000D01*
X116745142Y-132925428D01*
X116816571Y-132854000D01*
X116745142Y-132782571D01*
X116745142Y-132925428D01*
X118102285Y-134282571D02*
X118102285Y-132782571D01*
X118102285Y-134211142D02*
X117959428Y-134282571D01*
X117673714Y-134282571D01*
X117530857Y-134211142D01*
X117459428Y-134139714D01*
X117388000Y-133996857D01*
X117388000Y-133568285D01*
X117459428Y-133425428D01*
X117530857Y-133354000D01*
X117673714Y-133282571D01*
X117959428Y-133282571D01*
X118102285Y-133354000D01*
X118816571Y-134282571D02*
X118816571Y-133282571D01*
X118816571Y-132782571D02*
X118745142Y-132854000D01*
X118816571Y-132925428D01*
X118888000Y-132854000D01*
X118816571Y-132782571D01*
X118816571Y-132925428D01*
X120459428Y-132782571D02*
X121316571Y-132782571D01*
X120888000Y-134282571D02*
X120888000Y-132782571D01*
X121816571Y-134282571D02*
X121816571Y-132782571D01*
X122459428Y-134282571D02*
X122459428Y-133496857D01*
X122388000Y-133354000D01*
X122245142Y-133282571D01*
X122030857Y-133282571D01*
X121888000Y-133354000D01*
X121816571Y-133425428D01*
X123173714Y-134282571D02*
X123173714Y-133282571D01*
X123173714Y-133568285D02*
X123245142Y-133425428D01*
X123316571Y-133354000D01*
X123459428Y-133282571D01*
X123602285Y-133282571D01*
X124745142Y-133282571D02*
X124745142Y-134282571D01*
X124102285Y-133282571D02*
X124102285Y-134068285D01*
X124173714Y-134211142D01*
X124316571Y-134282571D01*
X124530857Y-134282571D01*
X124673714Y-134211142D01*
X124745142Y-134139714D01*
D10*
X215464380Y-92368666D02*
X215940571Y-92368666D01*
X215369142Y-92654380D02*
X215702476Y-91654380D01*
X216035809Y-92654380D01*
X216892952Y-92654380D02*
X216321523Y-92654380D01*
X216607238Y-92654380D02*
X216607238Y-91654380D01*
X216512000Y-91797238D01*
X216416761Y-91892476D01*
X216321523Y-91940095D01*
X217512000Y-91654380D02*
X217607238Y-91654380D01*
X217702476Y-91702000D01*
X217750095Y-91749619D01*
X217797714Y-91844857D01*
X217845333Y-92035333D01*
X217845333Y-92273428D01*
X217797714Y-92463904D01*
X217750095Y-92559142D01*
X217702476Y-92606761D01*
X217607238Y-92654380D01*
X217512000Y-92654380D01*
X217416761Y-92606761D01*
X217369142Y-92559142D01*
X217321523Y-92463904D01*
X217273904Y-92273428D01*
X217273904Y-92035333D01*
X217321523Y-91844857D01*
X217369142Y-91749619D01*
X217416761Y-91702000D01*
X217512000Y-91654380D01*
X218464380Y-91654380D02*
X218559619Y-91654380D01*
X218654857Y-91702000D01*
X218702476Y-91749619D01*
X218750095Y-91844857D01*
X218797714Y-92035333D01*
X218797714Y-92273428D01*
X218750095Y-92463904D01*
X218702476Y-92559142D01*
X218654857Y-92606761D01*
X218559619Y-92654380D01*
X218464380Y-92654380D01*
X218369142Y-92606761D01*
X218321523Y-92559142D01*
X218273904Y-92463904D01*
X218226285Y-92273428D01*
X218226285Y-92035333D01*
X218273904Y-91844857D01*
X218321523Y-91749619D01*
X218369142Y-91702000D01*
X218464380Y-91654380D01*
X220321523Y-92130571D02*
X220464380Y-92178190D01*
X220512000Y-92225809D01*
X220559619Y-92321047D01*
X220559619Y-92463904D01*
X220512000Y-92559142D01*
X220464380Y-92606761D01*
X220369142Y-92654380D01*
X219988190Y-92654380D01*
X219988190Y-91654380D01*
X220321523Y-91654380D01*
X220416761Y-91702000D01*
X220464380Y-91749619D01*
X220512000Y-91844857D01*
X220512000Y-91940095D01*
X220464380Y-92035333D01*
X220416761Y-92082952D01*
X220321523Y-92130571D01*
X219988190Y-92130571D01*
X221416761Y-91987714D02*
X221416761Y-92654380D01*
X220988190Y-91987714D02*
X220988190Y-92511523D01*
X221035809Y-92606761D01*
X221131047Y-92654380D01*
X221273904Y-92654380D01*
X221369142Y-92606761D01*
X221416761Y-92559142D01*
X221845333Y-92606761D02*
X221940571Y-92654380D01*
X222131047Y-92654380D01*
X222226285Y-92606761D01*
X222273904Y-92511523D01*
X222273904Y-92463904D01*
X222226285Y-92368666D01*
X222131047Y-92321047D01*
X221988190Y-92321047D01*
X221892952Y-92273428D01*
X221845333Y-92178190D01*
X221845333Y-92130571D01*
X221892952Y-92035333D01*
X221988190Y-91987714D01*
X222131047Y-91987714D01*
X222226285Y-92035333D01*
X224035809Y-92559142D02*
X223988190Y-92606761D01*
X223845333Y-92654380D01*
X223750095Y-92654380D01*
X223607238Y-92606761D01*
X223512000Y-92511523D01*
X223464380Y-92416285D01*
X223416761Y-92225809D01*
X223416761Y-92082952D01*
X223464380Y-91892476D01*
X223512000Y-91797238D01*
X223607238Y-91702000D01*
X223750095Y-91654380D01*
X223845333Y-91654380D01*
X223988190Y-91702000D01*
X224035809Y-91749619D01*
X224607238Y-92654380D02*
X224512000Y-92606761D01*
X224464380Y-92559142D01*
X224416761Y-92463904D01*
X224416761Y-92178190D01*
X224464380Y-92082952D01*
X224512000Y-92035333D01*
X224607238Y-91987714D01*
X224750095Y-91987714D01*
X224845333Y-92035333D01*
X224892952Y-92082952D01*
X224940571Y-92178190D01*
X224940571Y-92463904D01*
X224892952Y-92559142D01*
X224845333Y-92606761D01*
X224750095Y-92654380D01*
X224607238Y-92654380D01*
X225369142Y-91987714D02*
X225369142Y-92654380D01*
X225369142Y-92082952D02*
X225416761Y-92035333D01*
X225512000Y-91987714D01*
X225654857Y-91987714D01*
X225750095Y-92035333D01*
X225797714Y-92130571D01*
X225797714Y-92654380D01*
X226273904Y-91987714D02*
X226273904Y-92654380D01*
X226273904Y-92082952D02*
X226321523Y-92035333D01*
X226416761Y-91987714D01*
X226559619Y-91987714D01*
X226654857Y-92035333D01*
X226702476Y-92130571D01*
X226702476Y-92654380D01*
X227559619Y-92606761D02*
X227464380Y-92654380D01*
X227273904Y-92654380D01*
X227178666Y-92606761D01*
X227131047Y-92511523D01*
X227131047Y-92130571D01*
X227178666Y-92035333D01*
X227273904Y-91987714D01*
X227464380Y-91987714D01*
X227559619Y-92035333D01*
X227607238Y-92130571D01*
X227607238Y-92225809D01*
X227131047Y-92321047D01*
X228464380Y-92606761D02*
X228369142Y-92654380D01*
X228178666Y-92654380D01*
X228083428Y-92606761D01*
X228035809Y-92559142D01*
X227988190Y-92463904D01*
X227988190Y-92178190D01*
X228035809Y-92082952D01*
X228083428Y-92035333D01*
X228178666Y-91987714D01*
X228369142Y-91987714D01*
X228464380Y-92035333D01*
X228750095Y-91987714D02*
X229131047Y-91987714D01*
X228892952Y-91654380D02*
X228892952Y-92511523D01*
X228940571Y-92606761D01*
X229035809Y-92654380D01*
X229131047Y-92654380D01*
X229607238Y-92654380D02*
X229512000Y-92606761D01*
X229464380Y-92559142D01*
X229416761Y-92463904D01*
X229416761Y-92178190D01*
X229464380Y-92082952D01*
X229512000Y-92035333D01*
X229607238Y-91987714D01*
X229750095Y-91987714D01*
X229845333Y-92035333D01*
X229892952Y-92082952D01*
X229940571Y-92178190D01*
X229940571Y-92463904D01*
X229892952Y-92559142D01*
X229845333Y-92606761D01*
X229750095Y-92654380D01*
X229607238Y-92654380D01*
X230369142Y-92654380D02*
X230369142Y-91987714D01*
X230369142Y-92178190D02*
X230416761Y-92082952D01*
X230464380Y-92035333D01*
X230559619Y-91987714D01*
X230654857Y-91987714D01*
X191468952Y-92908380D02*
X191468952Y-91908380D01*
X191849904Y-91908380D01*
X191945142Y-91956000D01*
X191992761Y-92003619D01*
X192040380Y-92098857D01*
X192040380Y-92241714D01*
X191992761Y-92336952D01*
X191945142Y-92384571D01*
X191849904Y-92432190D01*
X191468952Y-92432190D01*
X192468952Y-92908380D02*
X192468952Y-92241714D01*
X192468952Y-91908380D02*
X192421333Y-91956000D01*
X192468952Y-92003619D01*
X192516571Y-91956000D01*
X192468952Y-91908380D01*
X192468952Y-92003619D01*
X192945142Y-92241714D02*
X192945142Y-92908380D01*
X192945142Y-92336952D02*
X192992761Y-92289333D01*
X193088000Y-92241714D01*
X193230857Y-92241714D01*
X193326095Y-92289333D01*
X193373714Y-92384571D01*
X193373714Y-92908380D01*
X194945142Y-92384571D02*
X195088000Y-92432190D01*
X195135619Y-92479809D01*
X195183238Y-92575047D01*
X195183238Y-92717904D01*
X195135619Y-92813142D01*
X195088000Y-92860761D01*
X194992761Y-92908380D01*
X194611809Y-92908380D01*
X194611809Y-91908380D01*
X194945142Y-91908380D01*
X195040380Y-91956000D01*
X195088000Y-92003619D01*
X195135619Y-92098857D01*
X195135619Y-92194095D01*
X195088000Y-92289333D01*
X195040380Y-92336952D01*
X194945142Y-92384571D01*
X194611809Y-92384571D01*
X195611809Y-92908380D02*
X195611809Y-92241714D01*
X195611809Y-92432190D02*
X195659428Y-92336952D01*
X195707047Y-92289333D01*
X195802285Y-92241714D01*
X195897523Y-92241714D01*
X196611809Y-92860761D02*
X196516571Y-92908380D01*
X196326095Y-92908380D01*
X196230857Y-92860761D01*
X196183238Y-92765523D01*
X196183238Y-92384571D01*
X196230857Y-92289333D01*
X196326095Y-92241714D01*
X196516571Y-92241714D01*
X196611809Y-92289333D01*
X196659428Y-92384571D01*
X196659428Y-92479809D01*
X196183238Y-92575047D01*
X197516571Y-92908380D02*
X197516571Y-92384571D01*
X197468952Y-92289333D01*
X197373714Y-92241714D01*
X197183238Y-92241714D01*
X197088000Y-92289333D01*
X197516571Y-92860761D02*
X197421333Y-92908380D01*
X197183238Y-92908380D01*
X197088000Y-92860761D01*
X197040380Y-92765523D01*
X197040380Y-92670285D01*
X197088000Y-92575047D01*
X197183238Y-92527428D01*
X197421333Y-92527428D01*
X197516571Y-92479809D01*
X197992761Y-92908380D02*
X197992761Y-91908380D01*
X198088000Y-92527428D02*
X198373714Y-92908380D01*
X198373714Y-92241714D02*
X197992761Y-92622666D01*
X198945142Y-92908380D02*
X198849904Y-92860761D01*
X198802285Y-92813142D01*
X198754666Y-92717904D01*
X198754666Y-92432190D01*
X198802285Y-92336952D01*
X198849904Y-92289333D01*
X198945142Y-92241714D01*
X199088000Y-92241714D01*
X199183238Y-92289333D01*
X199230857Y-92336952D01*
X199278476Y-92432190D01*
X199278476Y-92717904D01*
X199230857Y-92813142D01*
X199183238Y-92860761D01*
X199088000Y-92908380D01*
X198945142Y-92908380D01*
X200135619Y-92241714D02*
X200135619Y-92908380D01*
X199707047Y-92241714D02*
X199707047Y-92765523D01*
X199754666Y-92860761D01*
X199849904Y-92908380D01*
X199992761Y-92908380D01*
X200088000Y-92860761D01*
X200135619Y-92813142D01*
X200468952Y-92241714D02*
X200849904Y-92241714D01*
X200611809Y-91908380D02*
X200611809Y-92765523D01*
X200659428Y-92860761D01*
X200754666Y-92908380D01*
X200849904Y-92908380D01*
D11*
X76831142Y-129313714D02*
X76759714Y-129385142D01*
X76545428Y-129456571D01*
X76402571Y-129456571D01*
X76188285Y-129385142D01*
X76045428Y-129242285D01*
X75974000Y-129099428D01*
X75902571Y-128813714D01*
X75902571Y-128599428D01*
X75974000Y-128313714D01*
X76045428Y-128170857D01*
X76188285Y-128028000D01*
X76402571Y-127956571D01*
X76545428Y-127956571D01*
X76759714Y-128028000D01*
X76831142Y-128099428D01*
X77259714Y-127956571D02*
X77759714Y-129456571D01*
X78259714Y-127956571D01*
X79545428Y-129456571D02*
X78688285Y-129456571D01*
X79116857Y-129456571D02*
X79116857Y-127956571D01*
X78974000Y-128170857D01*
X78831142Y-128313714D01*
X78688285Y-128385142D01*
X98167142Y-129313714D02*
X98095714Y-129385142D01*
X97881428Y-129456571D01*
X97738571Y-129456571D01*
X97524285Y-129385142D01*
X97381428Y-129242285D01*
X97310000Y-129099428D01*
X97238571Y-128813714D01*
X97238571Y-128599428D01*
X97310000Y-128313714D01*
X97381428Y-128170857D01*
X97524285Y-128028000D01*
X97738571Y-127956571D01*
X97881428Y-127956571D01*
X98095714Y-128028000D01*
X98167142Y-128099428D01*
X98595714Y-127956571D02*
X99095714Y-129456571D01*
X99595714Y-127956571D01*
X100381428Y-127956571D02*
X100524285Y-127956571D01*
X100667142Y-128028000D01*
X100738571Y-128099428D01*
X100810000Y-128242285D01*
X100881428Y-128528000D01*
X100881428Y-128885142D01*
X100810000Y-129170857D01*
X100738571Y-129313714D01*
X100667142Y-129385142D01*
X100524285Y-129456571D01*
X100381428Y-129456571D01*
X100238571Y-129385142D01*
X100167142Y-129313714D01*
X100095714Y-129170857D01*
X100024285Y-128885142D01*
X100024285Y-128528000D01*
X100095714Y-128242285D01*
X100167142Y-128099428D01*
X100238571Y-128028000D01*
X100381428Y-127956571D01*
D10*
X106370380Y-94654380D02*
X105370380Y-94654380D01*
X106084666Y-94321047D01*
X105370380Y-93987714D01*
X106370380Y-93987714D01*
X106370380Y-93511523D02*
X105370380Y-93511523D01*
X106370380Y-93035333D02*
X105370380Y-93035333D01*
X105370380Y-92797238D01*
X105418000Y-92654380D01*
X105513238Y-92559142D01*
X105608476Y-92511523D01*
X105798952Y-92463904D01*
X105941809Y-92463904D01*
X106132285Y-92511523D01*
X106227523Y-92559142D01*
X106322761Y-92654380D01*
X106370380Y-92797238D01*
X106370380Y-93035333D01*
X106370380Y-92035333D02*
X105370380Y-92035333D01*
X106370380Y-90797238D02*
X105370380Y-90797238D01*
X106370380Y-90321047D02*
X105370380Y-90321047D01*
X106370380Y-89749619D01*
X105370380Y-89749619D01*
X126849142Y-108926095D02*
X126896761Y-108973714D01*
X126944380Y-109116571D01*
X126944380Y-109211809D01*
X126896761Y-109354666D01*
X126801523Y-109449904D01*
X126706285Y-109497523D01*
X126515809Y-109545142D01*
X126372952Y-109545142D01*
X126182476Y-109497523D01*
X126087238Y-109449904D01*
X125992000Y-109354666D01*
X125944380Y-109211809D01*
X125944380Y-109116571D01*
X125992000Y-108973714D01*
X126039619Y-108926095D01*
X125944380Y-108640380D02*
X126944380Y-108307047D01*
X125944380Y-107973714D01*
X126944380Y-106878476D02*
X125944380Y-106878476D01*
X126944380Y-106402285D02*
X125944380Y-106402285D01*
X126944380Y-105830857D01*
X125944380Y-105830857D01*
X125944380Y-105164190D02*
X125944380Y-105068952D01*
X125992000Y-104973714D01*
X126039619Y-104926095D01*
X126134857Y-104878476D01*
X126325333Y-104830857D01*
X126563428Y-104830857D01*
X126753904Y-104878476D01*
X126849142Y-104926095D01*
X126896761Y-104973714D01*
X126944380Y-105068952D01*
X126944380Y-105164190D01*
X126896761Y-105259428D01*
X126849142Y-105307047D01*
X126753904Y-105354666D01*
X126563428Y-105402285D01*
X126325333Y-105402285D01*
X126134857Y-105354666D01*
X126039619Y-105307047D01*
X125992000Y-105259428D01*
X125944380Y-105164190D01*
X129389142Y-108926095D02*
X129436761Y-108973714D01*
X129484380Y-109116571D01*
X129484380Y-109211809D01*
X129436761Y-109354666D01*
X129341523Y-109449904D01*
X129246285Y-109497523D01*
X129055809Y-109545142D01*
X128912952Y-109545142D01*
X128722476Y-109497523D01*
X128627238Y-109449904D01*
X128532000Y-109354666D01*
X128484380Y-109211809D01*
X128484380Y-109116571D01*
X128532000Y-108973714D01*
X128579619Y-108926095D01*
X128484380Y-108640380D02*
X129484380Y-108307047D01*
X128484380Y-107973714D01*
X129484380Y-106878476D02*
X128484380Y-106878476D01*
X129484380Y-106402285D02*
X128484380Y-106402285D01*
X129484380Y-105830857D01*
X128484380Y-105830857D01*
X129484380Y-104830857D02*
X129484380Y-105402285D01*
X129484380Y-105116571D02*
X128484380Y-105116571D01*
X128627238Y-105211809D01*
X128722476Y-105307047D01*
X128770095Y-105402285D01*
X148598000Y-91693904D02*
X148550380Y-91789142D01*
X148550380Y-91932000D01*
X148598000Y-92074857D01*
X148693238Y-92170095D01*
X148788476Y-92217714D01*
X148978952Y-92265333D01*
X149121809Y-92265333D01*
X149312285Y-92217714D01*
X149407523Y-92170095D01*
X149502761Y-92074857D01*
X149550380Y-91932000D01*
X149550380Y-91836761D01*
X149502761Y-91693904D01*
X149455142Y-91646285D01*
X149121809Y-91646285D01*
X149121809Y-91836761D01*
X149550380Y-91217714D02*
X148550380Y-91217714D01*
X149550380Y-90646285D01*
X148550380Y-90646285D01*
X149550380Y-90170095D02*
X148550380Y-90170095D01*
X148550380Y-89932000D01*
X148598000Y-89789142D01*
X148693238Y-89693904D01*
X148788476Y-89646285D01*
X148978952Y-89598666D01*
X149121809Y-89598666D01*
X149312285Y-89646285D01*
X149407523Y-89693904D01*
X149502761Y-89789142D01*
X149550380Y-89932000D01*
X149550380Y-90170095D01*
X146264380Y-95662380D02*
X147073904Y-95662380D01*
X147169142Y-95614761D01*
X147216761Y-95567142D01*
X147264380Y-95471904D01*
X147264380Y-95281428D01*
X147216761Y-95186190D01*
X147169142Y-95138571D01*
X147073904Y-95090952D01*
X146264380Y-95090952D01*
X146978666Y-94662380D02*
X146978666Y-94186190D01*
X147264380Y-94757619D02*
X146264380Y-94424285D01*
X147264380Y-94090952D01*
X147264380Y-93186190D02*
X146788190Y-93519523D01*
X147264380Y-93757619D02*
X146264380Y-93757619D01*
X146264380Y-93376666D01*
X146312000Y-93281428D01*
X146359619Y-93233809D01*
X146454857Y-93186190D01*
X146597714Y-93186190D01*
X146692952Y-93233809D01*
X146740571Y-93281428D01*
X146788190Y-93376666D01*
X146788190Y-93757619D01*
X146264380Y-92900476D02*
X146264380Y-92329047D01*
X147264380Y-92614761D02*
X146264380Y-92614761D01*
X147264380Y-90662380D02*
X146788190Y-90995714D01*
X147264380Y-91233809D02*
X146264380Y-91233809D01*
X146264380Y-90852857D01*
X146312000Y-90757619D01*
X146359619Y-90710000D01*
X146454857Y-90662380D01*
X146597714Y-90662380D01*
X146692952Y-90710000D01*
X146740571Y-90757619D01*
X146788190Y-90852857D01*
X146788190Y-91233809D01*
X146264380Y-90329047D02*
X147264380Y-89662380D01*
X146264380Y-89662380D02*
X147264380Y-90329047D01*
X143724380Y-95543333D02*
X144533904Y-95543333D01*
X144629142Y-95495714D01*
X144676761Y-95448095D01*
X144724380Y-95352857D01*
X144724380Y-95162380D01*
X144676761Y-95067142D01*
X144629142Y-95019523D01*
X144533904Y-94971904D01*
X143724380Y-94971904D01*
X144438666Y-94543333D02*
X144438666Y-94067142D01*
X144724380Y-94638571D02*
X143724380Y-94305238D01*
X144724380Y-93971904D01*
X144724380Y-93067142D02*
X144248190Y-93400476D01*
X144724380Y-93638571D02*
X143724380Y-93638571D01*
X143724380Y-93257619D01*
X143772000Y-93162380D01*
X143819619Y-93114761D01*
X143914857Y-93067142D01*
X144057714Y-93067142D01*
X144152952Y-93114761D01*
X144200571Y-93162380D01*
X144248190Y-93257619D01*
X144248190Y-93638571D01*
X143724380Y-92781428D02*
X143724380Y-92210000D01*
X144724380Y-92495714D02*
X143724380Y-92495714D01*
X143724380Y-91257619D02*
X143724380Y-90686190D01*
X144724380Y-90971904D02*
X143724380Y-90971904D01*
X143724380Y-90448095D02*
X144724380Y-89781428D01*
X143724380Y-89781428D02*
X144724380Y-90448095D01*
X139644380Y-96083047D02*
X138644380Y-96083047D01*
X139358666Y-95749714D01*
X138644380Y-95416380D01*
X139644380Y-95416380D01*
X139644380Y-94940190D02*
X138644380Y-94940190D01*
X139644380Y-94464000D02*
X138644380Y-94464000D01*
X138644380Y-94225904D01*
X138692000Y-94083047D01*
X138787238Y-93987809D01*
X138882476Y-93940190D01*
X139072952Y-93892571D01*
X139215809Y-93892571D01*
X139406285Y-93940190D01*
X139501523Y-93987809D01*
X139596761Y-94083047D01*
X139644380Y-94225904D01*
X139644380Y-94464000D01*
X139644380Y-93464000D02*
X138644380Y-93464000D01*
X138644380Y-92035428D02*
X138644380Y-91844952D01*
X138692000Y-91749714D01*
X138787238Y-91654476D01*
X138977714Y-91606857D01*
X139311047Y-91606857D01*
X139501523Y-91654476D01*
X139596761Y-91749714D01*
X139644380Y-91844952D01*
X139644380Y-92035428D01*
X139596761Y-92130666D01*
X139501523Y-92225904D01*
X139311047Y-92273523D01*
X138977714Y-92273523D01*
X138787238Y-92225904D01*
X138692000Y-92130666D01*
X138644380Y-92035428D01*
X138644380Y-91178285D02*
X139453904Y-91178285D01*
X139549142Y-91130666D01*
X139596761Y-91083047D01*
X139644380Y-90987809D01*
X139644380Y-90797333D01*
X139596761Y-90702095D01*
X139549142Y-90654476D01*
X139453904Y-90606857D01*
X138644380Y-90606857D01*
X138644380Y-90273523D02*
X138644380Y-89702095D01*
X139644380Y-89987809D02*
X138644380Y-89987809D01*
X134310380Y-95519523D02*
X133310380Y-95519523D01*
X133405619Y-95090952D02*
X133358000Y-95043333D01*
X133310380Y-94948095D01*
X133310380Y-94710000D01*
X133358000Y-94614761D01*
X133405619Y-94567142D01*
X133500857Y-94519523D01*
X133596095Y-94519523D01*
X133738952Y-94567142D01*
X134310380Y-95138571D01*
X134310380Y-94519523D01*
X134262761Y-94138571D02*
X134310380Y-93995714D01*
X134310380Y-93757619D01*
X134262761Y-93662380D01*
X134215142Y-93614761D01*
X134119904Y-93567142D01*
X134024666Y-93567142D01*
X133929428Y-93614761D01*
X133881809Y-93662380D01*
X133834190Y-93757619D01*
X133786571Y-93948095D01*
X133738952Y-94043333D01*
X133691333Y-94090952D01*
X133596095Y-94138571D01*
X133500857Y-94138571D01*
X133405619Y-94090952D01*
X133358000Y-94043333D01*
X133310380Y-93948095D01*
X133310380Y-93710000D01*
X133358000Y-93567142D01*
X134262761Y-92424285D02*
X134310380Y-92281428D01*
X134310380Y-92043333D01*
X134262761Y-91948095D01*
X134215142Y-91900476D01*
X134119904Y-91852857D01*
X134024666Y-91852857D01*
X133929428Y-91900476D01*
X133881809Y-91948095D01*
X133834190Y-92043333D01*
X133786571Y-92233809D01*
X133738952Y-92329047D01*
X133691333Y-92376666D01*
X133596095Y-92424285D01*
X133500857Y-92424285D01*
X133405619Y-92376666D01*
X133358000Y-92329047D01*
X133310380Y-92233809D01*
X133310380Y-91995714D01*
X133358000Y-91852857D01*
X134215142Y-90852857D02*
X134262761Y-90900476D01*
X134310380Y-91043333D01*
X134310380Y-91138571D01*
X134262761Y-91281428D01*
X134167523Y-91376666D01*
X134072285Y-91424285D01*
X133881809Y-91471904D01*
X133738952Y-91471904D01*
X133548476Y-91424285D01*
X133453238Y-91376666D01*
X133358000Y-91281428D01*
X133310380Y-91138571D01*
X133310380Y-91043333D01*
X133358000Y-90900476D01*
X133405619Y-90852857D01*
X134310380Y-90424285D02*
X133310380Y-90424285D01*
X134310380Y-89852857D02*
X133738952Y-90281428D01*
X133310380Y-89852857D02*
X133881809Y-90424285D01*
X131770380Y-95448095D02*
X130770380Y-95448095D01*
X130865619Y-95019523D02*
X130818000Y-94971904D01*
X130770380Y-94876666D01*
X130770380Y-94638571D01*
X130818000Y-94543333D01*
X130865619Y-94495714D01*
X130960857Y-94448095D01*
X131056095Y-94448095D01*
X131198952Y-94495714D01*
X131770380Y-95067142D01*
X131770380Y-94448095D01*
X131722761Y-94067142D02*
X131770380Y-93924285D01*
X131770380Y-93686190D01*
X131722761Y-93590952D01*
X131675142Y-93543333D01*
X131579904Y-93495714D01*
X131484666Y-93495714D01*
X131389428Y-93543333D01*
X131341809Y-93590952D01*
X131294190Y-93686190D01*
X131246571Y-93876666D01*
X131198952Y-93971904D01*
X131151333Y-94019523D01*
X131056095Y-94067142D01*
X130960857Y-94067142D01*
X130865619Y-94019523D01*
X130818000Y-93971904D01*
X130770380Y-93876666D01*
X130770380Y-93638571D01*
X130818000Y-93495714D01*
X131722761Y-92352857D02*
X131770380Y-92210000D01*
X131770380Y-91971904D01*
X131722761Y-91876666D01*
X131675142Y-91829047D01*
X131579904Y-91781428D01*
X131484666Y-91781428D01*
X131389428Y-91829047D01*
X131341809Y-91876666D01*
X131294190Y-91971904D01*
X131246571Y-92162380D01*
X131198952Y-92257619D01*
X131151333Y-92305238D01*
X131056095Y-92352857D01*
X130960857Y-92352857D01*
X130865619Y-92305238D01*
X130818000Y-92257619D01*
X130770380Y-92162380D01*
X130770380Y-91924285D01*
X130818000Y-91781428D01*
X131770380Y-91352857D02*
X130770380Y-91352857D01*
X130770380Y-91114761D01*
X130818000Y-90971904D01*
X130913238Y-90876666D01*
X131008476Y-90829047D01*
X131198952Y-90781428D01*
X131341809Y-90781428D01*
X131532285Y-90829047D01*
X131627523Y-90876666D01*
X131722761Y-90971904D01*
X131770380Y-91114761D01*
X131770380Y-91352857D01*
X131484666Y-90400476D02*
X131484666Y-89924285D01*
X131770380Y-90495714D02*
X130770380Y-90162380D01*
X131770380Y-89829047D01*
X129230380Y-94836952D02*
X128230380Y-94836952D01*
X128325619Y-94408380D02*
X128278000Y-94360761D01*
X128230380Y-94265523D01*
X128230380Y-94027428D01*
X128278000Y-93932190D01*
X128325619Y-93884571D01*
X128420857Y-93836952D01*
X128516095Y-93836952D01*
X128658952Y-93884571D01*
X129230380Y-94456000D01*
X129230380Y-93836952D01*
X129182761Y-93456000D02*
X129230380Y-93313142D01*
X129230380Y-93075047D01*
X129182761Y-92979809D01*
X129135142Y-92932190D01*
X129039904Y-92884571D01*
X128944666Y-92884571D01*
X128849428Y-92932190D01*
X128801809Y-92979809D01*
X128754190Y-93075047D01*
X128706571Y-93265523D01*
X128658952Y-93360761D01*
X128611333Y-93408380D01*
X128516095Y-93456000D01*
X128420857Y-93456000D01*
X128325619Y-93408380D01*
X128278000Y-93360761D01*
X128230380Y-93265523D01*
X128230380Y-93027428D01*
X128278000Y-92884571D01*
X128230380Y-91789333D02*
X129230380Y-91551238D01*
X128516095Y-91360761D01*
X129230380Y-91170285D01*
X128230380Y-90932190D01*
X129182761Y-90598857D02*
X129230380Y-90456000D01*
X129230380Y-90217904D01*
X129182761Y-90122666D01*
X129135142Y-90075047D01*
X129039904Y-90027428D01*
X128944666Y-90027428D01*
X128849428Y-90075047D01*
X128801809Y-90122666D01*
X128754190Y-90217904D01*
X128706571Y-90408380D01*
X128658952Y-90503619D01*
X128611333Y-90551238D01*
X128516095Y-90598857D01*
X128420857Y-90598857D01*
X128325619Y-90551238D01*
X128278000Y-90503619D01*
X128230380Y-90408380D01*
X128230380Y-90170285D01*
X128278000Y-90027428D01*
X124150380Y-96479904D02*
X123150380Y-96479904D01*
X123245619Y-96051333D02*
X123198000Y-96003714D01*
X123150380Y-95908476D01*
X123150380Y-95670380D01*
X123198000Y-95575142D01*
X123245619Y-95527523D01*
X123340857Y-95479904D01*
X123436095Y-95479904D01*
X123578952Y-95527523D01*
X124150380Y-96098952D01*
X124150380Y-95479904D01*
X124102761Y-95098952D02*
X124150380Y-94956095D01*
X124150380Y-94718000D01*
X124102761Y-94622761D01*
X124055142Y-94575142D01*
X123959904Y-94527523D01*
X123864666Y-94527523D01*
X123769428Y-94575142D01*
X123721809Y-94622761D01*
X123674190Y-94718000D01*
X123626571Y-94908476D01*
X123578952Y-95003714D01*
X123531333Y-95051333D01*
X123436095Y-95098952D01*
X123340857Y-95098952D01*
X123245619Y-95051333D01*
X123198000Y-95003714D01*
X123150380Y-94908476D01*
X123150380Y-94670380D01*
X123198000Y-94527523D01*
X124150380Y-93337047D02*
X123150380Y-93337047D01*
X123864666Y-93003714D01*
X123150380Y-92670380D01*
X124150380Y-92670380D01*
X123150380Y-92194190D02*
X123959904Y-92194190D01*
X124055142Y-92146571D01*
X124102761Y-92098952D01*
X124150380Y-92003714D01*
X124150380Y-91813238D01*
X124102761Y-91718000D01*
X124055142Y-91670380D01*
X123959904Y-91622761D01*
X123150380Y-91622761D01*
X123150380Y-91289428D02*
X123150380Y-90718000D01*
X124150380Y-91003714D02*
X123150380Y-91003714D01*
X123626571Y-90384666D02*
X123626571Y-90051333D01*
X124150380Y-89908476D02*
X124150380Y-90384666D01*
X123150380Y-90384666D01*
X123150380Y-89908476D01*
X113990380Y-96710095D02*
X113990380Y-97186285D01*
X112990380Y-97186285D01*
X113466571Y-96376761D02*
X113466571Y-96043428D01*
X113990380Y-95900571D02*
X113990380Y-96376761D01*
X112990380Y-96376761D01*
X112990380Y-95900571D01*
X113990380Y-95472000D02*
X112990380Y-95472000D01*
X112990380Y-95233904D01*
X113038000Y-95091047D01*
X113133238Y-94995809D01*
X113228476Y-94948190D01*
X113418952Y-94900571D01*
X113561809Y-94900571D01*
X113752285Y-94948190D01*
X113847523Y-94995809D01*
X113942761Y-95091047D01*
X113990380Y-95233904D01*
X113990380Y-95472000D01*
X113704666Y-93757714D02*
X113704666Y-93281523D01*
X113990380Y-93852952D02*
X112990380Y-93519619D01*
X113990380Y-93186285D01*
X112990380Y-92852952D02*
X113799904Y-92852952D01*
X113895142Y-92805333D01*
X113942761Y-92757714D01*
X113990380Y-92662476D01*
X113990380Y-92472000D01*
X113942761Y-92376761D01*
X113895142Y-92329142D01*
X113799904Y-92281523D01*
X112990380Y-92281523D01*
X113990380Y-91805333D02*
X112990380Y-91805333D01*
X112990380Y-91567238D01*
X113038000Y-91424380D01*
X113133238Y-91329142D01*
X113228476Y-91281523D01*
X113418952Y-91233904D01*
X113561809Y-91233904D01*
X113752285Y-91281523D01*
X113847523Y-91329142D01*
X113942761Y-91424380D01*
X113990380Y-91567238D01*
X113990380Y-91805333D01*
X113990380Y-90805333D02*
X112990380Y-90805333D01*
X112990380Y-90138666D02*
X112990380Y-89948190D01*
X113038000Y-89852952D01*
X113133238Y-89757714D01*
X113323714Y-89710095D01*
X113657047Y-89710095D01*
X113847523Y-89757714D01*
X113942761Y-89852952D01*
X113990380Y-89948190D01*
X113990380Y-90138666D01*
X113942761Y-90233904D01*
X113847523Y-90329142D01*
X113657047Y-90376761D01*
X113323714Y-90376761D01*
X113133238Y-90329142D01*
X113038000Y-90233904D01*
X112990380Y-90138666D01*
X111450380Y-95630666D02*
X111450380Y-96106857D01*
X110450380Y-96106857D01*
X110926571Y-95297333D02*
X110926571Y-94964000D01*
X111450380Y-94821142D02*
X111450380Y-95297333D01*
X110450380Y-95297333D01*
X110450380Y-94821142D01*
X111450380Y-94392571D02*
X110450380Y-94392571D01*
X110450380Y-94154476D01*
X110498000Y-94011619D01*
X110593238Y-93916380D01*
X110688476Y-93868761D01*
X110878952Y-93821142D01*
X111021809Y-93821142D01*
X111212285Y-93868761D01*
X111307523Y-93916380D01*
X111402761Y-94011619D01*
X111450380Y-94154476D01*
X111450380Y-94392571D01*
X111355142Y-92059238D02*
X111402761Y-92106857D01*
X111450380Y-92249714D01*
X111450380Y-92344952D01*
X111402761Y-92487809D01*
X111307523Y-92583047D01*
X111212285Y-92630666D01*
X111021809Y-92678285D01*
X110878952Y-92678285D01*
X110688476Y-92630666D01*
X110593238Y-92583047D01*
X110498000Y-92487809D01*
X110450380Y-92344952D01*
X110450380Y-92249714D01*
X110498000Y-92106857D01*
X110545619Y-92059238D01*
X111450380Y-91154476D02*
X111450380Y-91630666D01*
X110450380Y-91630666D01*
X111450380Y-90821142D02*
X110450380Y-90821142D01*
X111450380Y-90344952D02*
X110450380Y-90344952D01*
X110450380Y-89964000D01*
X110498000Y-89868761D01*
X110545619Y-89821142D01*
X110640857Y-89773523D01*
X110783714Y-89773523D01*
X110878952Y-89821142D01*
X110926571Y-89868761D01*
X110974190Y-89964000D01*
X110974190Y-90344952D01*
X101242761Y-97233904D02*
X101290380Y-97091047D01*
X101290380Y-96852952D01*
X101242761Y-96757714D01*
X101195142Y-96710095D01*
X101099904Y-96662476D01*
X101004666Y-96662476D01*
X100909428Y-96710095D01*
X100861809Y-96757714D01*
X100814190Y-96852952D01*
X100766571Y-97043428D01*
X100718952Y-97138666D01*
X100671333Y-97186285D01*
X100576095Y-97233904D01*
X100480857Y-97233904D01*
X100385619Y-97186285D01*
X100338000Y-97138666D01*
X100290380Y-97043428D01*
X100290380Y-96805333D01*
X100338000Y-96662476D01*
X101290380Y-96233904D02*
X100290380Y-96233904D01*
X100290380Y-95852952D01*
X100338000Y-95757714D01*
X100385619Y-95710095D01*
X100480857Y-95662476D01*
X100623714Y-95662476D01*
X100718952Y-95710095D01*
X100766571Y-95757714D01*
X100814190Y-95852952D01*
X100814190Y-96233904D01*
X101290380Y-95233904D02*
X100290380Y-95233904D01*
X100290380Y-94995809D01*
X100338000Y-94852952D01*
X100433238Y-94757714D01*
X100528476Y-94710095D01*
X100718952Y-94662476D01*
X100861809Y-94662476D01*
X101052285Y-94710095D01*
X101147523Y-94757714D01*
X101242761Y-94852952D01*
X101290380Y-94995809D01*
X101290380Y-95233904D01*
X101290380Y-94233904D02*
X100290380Y-94233904D01*
X100766571Y-93424380D02*
X100766571Y-93757714D01*
X101290380Y-93757714D02*
X100290380Y-93757714D01*
X100290380Y-93281523D01*
X100290380Y-91948190D02*
X100290380Y-91757714D01*
X100338000Y-91662476D01*
X100433238Y-91567238D01*
X100623714Y-91519619D01*
X100957047Y-91519619D01*
X101147523Y-91567238D01*
X101242761Y-91662476D01*
X101290380Y-91757714D01*
X101290380Y-91948190D01*
X101242761Y-92043428D01*
X101147523Y-92138666D01*
X100957047Y-92186285D01*
X100623714Y-92186285D01*
X100433238Y-92138666D01*
X100338000Y-92043428D01*
X100290380Y-91948190D01*
X100290380Y-91091047D02*
X101099904Y-91091047D01*
X101195142Y-91043428D01*
X101242761Y-90995809D01*
X101290380Y-90900571D01*
X101290380Y-90710095D01*
X101242761Y-90614857D01*
X101195142Y-90567238D01*
X101099904Y-90519619D01*
X100290380Y-90519619D01*
X100290380Y-90186285D02*
X100290380Y-89614857D01*
X101290380Y-89900571D02*
X100290380Y-89900571D01*
X93146571Y-98757809D02*
X93146571Y-98424476D01*
X93670380Y-98281619D02*
X93670380Y-98757809D01*
X92670380Y-98757809D01*
X92670380Y-98281619D01*
X93146571Y-97853047D02*
X93146571Y-97519714D01*
X93670380Y-97376857D02*
X93670380Y-97853047D01*
X92670380Y-97853047D01*
X92670380Y-97376857D01*
X93670380Y-96948285D02*
X92670380Y-96948285D01*
X92670380Y-96567333D01*
X92718000Y-96472095D01*
X92765619Y-96424476D01*
X92860857Y-96376857D01*
X93003714Y-96376857D01*
X93098952Y-96424476D01*
X93146571Y-96472095D01*
X93194190Y-96567333D01*
X93194190Y-96948285D01*
X93670380Y-95376857D02*
X93194190Y-95710190D01*
X93670380Y-95948285D02*
X92670380Y-95948285D01*
X92670380Y-95567333D01*
X92718000Y-95472095D01*
X92765619Y-95424476D01*
X92860857Y-95376857D01*
X93003714Y-95376857D01*
X93098952Y-95424476D01*
X93146571Y-95472095D01*
X93194190Y-95567333D01*
X93194190Y-95948285D01*
X92670380Y-94757809D02*
X92670380Y-94567333D01*
X92718000Y-94472095D01*
X92813238Y-94376857D01*
X93003714Y-94329238D01*
X93337047Y-94329238D01*
X93527523Y-94376857D01*
X93622761Y-94472095D01*
X93670380Y-94567333D01*
X93670380Y-94757809D01*
X93622761Y-94853047D01*
X93527523Y-94948285D01*
X93337047Y-94995904D01*
X93003714Y-94995904D01*
X92813238Y-94948285D01*
X92718000Y-94853047D01*
X92670380Y-94757809D01*
X93670380Y-93900666D02*
X92670380Y-93900666D01*
X93384666Y-93567333D01*
X92670380Y-93234000D01*
X93670380Y-93234000D01*
X93622761Y-92043523D02*
X93670380Y-91900666D01*
X93670380Y-91662571D01*
X93622761Y-91567333D01*
X93575142Y-91519714D01*
X93479904Y-91472095D01*
X93384666Y-91472095D01*
X93289428Y-91519714D01*
X93241809Y-91567333D01*
X93194190Y-91662571D01*
X93146571Y-91853047D01*
X93098952Y-91948285D01*
X93051333Y-91995904D01*
X92956095Y-92043523D01*
X92860857Y-92043523D01*
X92765619Y-91995904D01*
X92718000Y-91948285D01*
X92670380Y-91853047D01*
X92670380Y-91614952D01*
X92718000Y-91472095D01*
X93575142Y-90472095D02*
X93622761Y-90519714D01*
X93670380Y-90662571D01*
X93670380Y-90757809D01*
X93622761Y-90900666D01*
X93527523Y-90995904D01*
X93432285Y-91043523D01*
X93241809Y-91091142D01*
X93098952Y-91091142D01*
X92908476Y-91043523D01*
X92813238Y-90995904D01*
X92718000Y-90900666D01*
X92670380Y-90757809D01*
X92670380Y-90662571D01*
X92718000Y-90519714D01*
X92765619Y-90472095D01*
X93670380Y-89567333D02*
X93670380Y-90043523D01*
X92670380Y-90043523D01*
X90606571Y-98781619D02*
X90606571Y-98448285D01*
X91130380Y-98305428D02*
X91130380Y-98781619D01*
X90130380Y-98781619D01*
X90130380Y-98305428D01*
X90606571Y-97876857D02*
X90606571Y-97543523D01*
X91130380Y-97400666D02*
X91130380Y-97876857D01*
X90130380Y-97876857D01*
X90130380Y-97400666D01*
X91130380Y-96972095D02*
X90130380Y-96972095D01*
X90130380Y-96591142D01*
X90178000Y-96495904D01*
X90225619Y-96448285D01*
X90320857Y-96400666D01*
X90463714Y-96400666D01*
X90558952Y-96448285D01*
X90606571Y-96495904D01*
X90654190Y-96591142D01*
X90654190Y-96972095D01*
X91130380Y-95400666D02*
X90654190Y-95734000D01*
X91130380Y-95972095D02*
X90130380Y-95972095D01*
X90130380Y-95591142D01*
X90178000Y-95495904D01*
X90225619Y-95448285D01*
X90320857Y-95400666D01*
X90463714Y-95400666D01*
X90558952Y-95448285D01*
X90606571Y-95495904D01*
X90654190Y-95591142D01*
X90654190Y-95972095D01*
X90130380Y-94781619D02*
X90130380Y-94591142D01*
X90178000Y-94495904D01*
X90273238Y-94400666D01*
X90463714Y-94353047D01*
X90797047Y-94353047D01*
X90987523Y-94400666D01*
X91082761Y-94495904D01*
X91130380Y-94591142D01*
X91130380Y-94781619D01*
X91082761Y-94876857D01*
X90987523Y-94972095D01*
X90797047Y-95019714D01*
X90463714Y-95019714D01*
X90273238Y-94972095D01*
X90178000Y-94876857D01*
X90130380Y-94781619D01*
X91130380Y-93924476D02*
X90130380Y-93924476D01*
X90844666Y-93591142D01*
X90130380Y-93257809D01*
X91130380Y-93257809D01*
X91225619Y-93019714D02*
X91225619Y-92257809D01*
X91082761Y-92067333D02*
X91130380Y-91924476D01*
X91130380Y-91686380D01*
X91082761Y-91591142D01*
X91035142Y-91543523D01*
X90939904Y-91495904D01*
X90844666Y-91495904D01*
X90749428Y-91543523D01*
X90701809Y-91591142D01*
X90654190Y-91686380D01*
X90606571Y-91876857D01*
X90558952Y-91972095D01*
X90511333Y-92019714D01*
X90416095Y-92067333D01*
X90320857Y-92067333D01*
X90225619Y-92019714D01*
X90178000Y-91972095D01*
X90130380Y-91876857D01*
X90130380Y-91638761D01*
X90178000Y-91495904D01*
X91130380Y-91067333D02*
X90130380Y-91067333D01*
X90130380Y-90829238D01*
X90178000Y-90686380D01*
X90273238Y-90591142D01*
X90368476Y-90543523D01*
X90558952Y-90495904D01*
X90701809Y-90495904D01*
X90892285Y-90543523D01*
X90987523Y-90591142D01*
X91082761Y-90686380D01*
X91130380Y-90829238D01*
X91130380Y-91067333D01*
X90844666Y-90114952D02*
X90844666Y-89638761D01*
X91130380Y-90210190D02*
X90130380Y-89876857D01*
X91130380Y-89543523D01*
X240165380Y-141596571D02*
X239498714Y-141072761D01*
X239498714Y-141596571D02*
X240165380Y-141072761D01*
X239498714Y-140834666D02*
X239498714Y-140453714D01*
X240165380Y-140691809D02*
X239308238Y-140691809D01*
X239213000Y-140644190D01*
X239165380Y-140548952D01*
X239165380Y-140453714D01*
X240165380Y-140120380D02*
X239498714Y-140120380D01*
X239593952Y-140120380D02*
X239546333Y-140072761D01*
X239498714Y-139977523D01*
X239498714Y-139834666D01*
X239546333Y-139739428D01*
X239641571Y-139691809D01*
X240165380Y-139691809D01*
X239641571Y-139691809D02*
X239546333Y-139644190D01*
X239498714Y-139548952D01*
X239498714Y-139406095D01*
X239546333Y-139310857D01*
X239641571Y-139263238D01*
X240165380Y-139263238D01*
X239260619Y-138834666D02*
X239213000Y-138787047D01*
X239165380Y-138691809D01*
X239165380Y-138453714D01*
X239213000Y-138358476D01*
X239260619Y-138310857D01*
X239355857Y-138263238D01*
X239451095Y-138263238D01*
X239593952Y-138310857D01*
X240165380Y-138882285D01*
X240165380Y-138263238D01*
X239117761Y-137120380D02*
X240403476Y-137977523D01*
X240165380Y-136882285D02*
X239498714Y-136358476D01*
X239498714Y-136882285D02*
X240165380Y-136358476D01*
X239498714Y-136072761D02*
X240165380Y-135834666D01*
X239498714Y-135596571D01*
X240165380Y-134787047D02*
X239641571Y-134787047D01*
X239546333Y-134834666D01*
X239498714Y-134929904D01*
X239498714Y-135120380D01*
X239546333Y-135215619D01*
X240117761Y-134787047D02*
X240165380Y-134882285D01*
X240165380Y-135120380D01*
X240117761Y-135215619D01*
X240022523Y-135263238D01*
X239927285Y-135263238D01*
X239832047Y-135215619D01*
X239784428Y-135120380D01*
X239784428Y-134882285D01*
X239736809Y-134787047D01*
X240165380Y-133787047D02*
X240165380Y-134358476D01*
X240165380Y-134072761D02*
X239165380Y-134072761D01*
X239308238Y-134168000D01*
X239403476Y-134263238D01*
X239451095Y-134358476D01*
X241767761Y-144834666D02*
X241815380Y-144929904D01*
X241815380Y-145120380D01*
X241767761Y-145215619D01*
X241672523Y-145263238D01*
X241291571Y-145263238D01*
X241196333Y-145215619D01*
X241148714Y-145120380D01*
X241148714Y-144929904D01*
X241196333Y-144834666D01*
X241291571Y-144787047D01*
X241386809Y-144787047D01*
X241482047Y-145263238D01*
X241815380Y-144453714D02*
X241148714Y-143929904D01*
X241148714Y-144453714D02*
X241815380Y-143929904D01*
X241148714Y-143691809D02*
X241148714Y-143310857D01*
X240815380Y-143548952D02*
X241672523Y-143548952D01*
X241767761Y-143501333D01*
X241815380Y-143406095D01*
X241815380Y-143310857D01*
X241767761Y-142596571D02*
X241815380Y-142691809D01*
X241815380Y-142882285D01*
X241767761Y-142977523D01*
X241672523Y-143025142D01*
X241291571Y-143025142D01*
X241196333Y-142977523D01*
X241148714Y-142882285D01*
X241148714Y-142691809D01*
X241196333Y-142596571D01*
X241291571Y-142548952D01*
X241386809Y-142548952D01*
X241482047Y-143025142D01*
X241148714Y-142120380D02*
X241815380Y-142120380D01*
X241243952Y-142120380D02*
X241196333Y-142072761D01*
X241148714Y-141977523D01*
X241148714Y-141834666D01*
X241196333Y-141739428D01*
X241291571Y-141691809D01*
X241815380Y-141691809D01*
X241815380Y-140787047D02*
X240815380Y-140787047D01*
X241767761Y-140787047D02*
X241815380Y-140882285D01*
X241815380Y-141072761D01*
X241767761Y-141168000D01*
X241720142Y-141215619D01*
X241624904Y-141263238D01*
X241339190Y-141263238D01*
X241243952Y-141215619D01*
X241196333Y-141168000D01*
X241148714Y-141072761D01*
X241148714Y-140882285D01*
X241196333Y-140787047D01*
X241767761Y-139929904D02*
X241815380Y-140025142D01*
X241815380Y-140215619D01*
X241767761Y-140310857D01*
X241672523Y-140358476D01*
X241291571Y-140358476D01*
X241196333Y-140310857D01*
X241148714Y-140215619D01*
X241148714Y-140025142D01*
X241196333Y-139929904D01*
X241291571Y-139882285D01*
X241386809Y-139882285D01*
X241482047Y-140358476D01*
X241815380Y-139025142D02*
X240815380Y-139025142D01*
X241767761Y-139025142D02*
X241815380Y-139120380D01*
X241815380Y-139310857D01*
X241767761Y-139406095D01*
X241720142Y-139453714D01*
X241624904Y-139501333D01*
X241339190Y-139501333D01*
X241243952Y-139453714D01*
X241196333Y-139406095D01*
X241148714Y-139310857D01*
X241148714Y-139120380D01*
X241196333Y-139025142D01*
X241815380Y-137787047D02*
X240815380Y-137787047D01*
X241196333Y-137787047D02*
X241148714Y-137691809D01*
X241148714Y-137501333D01*
X241196333Y-137406095D01*
X241243952Y-137358476D01*
X241339190Y-137310857D01*
X241624904Y-137310857D01*
X241720142Y-137358476D01*
X241767761Y-137406095D01*
X241815380Y-137501333D01*
X241815380Y-137691809D01*
X241767761Y-137787047D01*
X241815380Y-136739428D02*
X241767761Y-136834666D01*
X241720142Y-136882285D01*
X241624904Y-136929904D01*
X241339190Y-136929904D01*
X241243952Y-136882285D01*
X241196333Y-136834666D01*
X241148714Y-136739428D01*
X241148714Y-136596571D01*
X241196333Y-136501333D01*
X241243952Y-136453714D01*
X241339190Y-136406095D01*
X241624904Y-136406095D01*
X241720142Y-136453714D01*
X241767761Y-136501333D01*
X241815380Y-136596571D01*
X241815380Y-136739428D01*
X241815380Y-135548952D02*
X241291571Y-135548952D01*
X241196333Y-135596571D01*
X241148714Y-135691809D01*
X241148714Y-135882285D01*
X241196333Y-135977523D01*
X241767761Y-135548952D02*
X241815380Y-135644190D01*
X241815380Y-135882285D01*
X241767761Y-135977523D01*
X241672523Y-136025142D01*
X241577285Y-136025142D01*
X241482047Y-135977523D01*
X241434428Y-135882285D01*
X241434428Y-135644190D01*
X241386809Y-135548952D01*
X241815380Y-135072761D02*
X241148714Y-135072761D01*
X241339190Y-135072761D02*
X241243952Y-135025142D01*
X241196333Y-134977523D01*
X241148714Y-134882285D01*
X241148714Y-134787047D01*
X241815380Y-134025142D02*
X240815380Y-134025142D01*
X241767761Y-134025142D02*
X241815380Y-134120380D01*
X241815380Y-134310857D01*
X241767761Y-134406095D01*
X241720142Y-134453714D01*
X241624904Y-134501333D01*
X241339190Y-134501333D01*
X241243952Y-134453714D01*
X241196333Y-134406095D01*
X241148714Y-134310857D01*
X241148714Y-134120380D01*
X241196333Y-134025142D01*
X241148714Y-132882285D02*
X241815380Y-132644190D01*
X241148714Y-132406095D01*
X241815380Y-131501333D02*
X241815380Y-132072761D01*
X241815380Y-131787047D02*
X240815380Y-131787047D01*
X240958238Y-131882285D01*
X241053476Y-131977523D01*
X241101095Y-132072761D01*
X241720142Y-131072761D02*
X241767761Y-131025142D01*
X241815380Y-131072761D01*
X241767761Y-131120380D01*
X241720142Y-131072761D01*
X241815380Y-131072761D01*
X241815380Y-130072761D02*
X241815380Y-130644190D01*
X241815380Y-130358476D02*
X240815380Y-130358476D01*
X240958238Y-130453714D01*
X241053476Y-130548952D01*
X241101095Y-130644190D01*
X91090714Y-101036380D02*
X90519285Y-101036380D01*
X90805000Y-101036380D02*
X90805000Y-100036380D01*
X90709761Y-100179238D01*
X90614523Y-100274476D01*
X90519285Y-100322095D01*
X152852380Y-99384952D02*
X151852380Y-99384952D01*
X152566666Y-99051619D01*
X151852380Y-98718285D01*
X152852380Y-98718285D01*
X152852380Y-98242095D02*
X152185714Y-98242095D01*
X151852380Y-98242095D02*
X151900000Y-98289714D01*
X151947619Y-98242095D01*
X151900000Y-98194476D01*
X151852380Y-98242095D01*
X151947619Y-98242095D01*
X152804761Y-97337333D02*
X152852380Y-97432571D01*
X152852380Y-97623047D01*
X152804761Y-97718285D01*
X152757142Y-97765904D01*
X152661904Y-97813523D01*
X152376190Y-97813523D01*
X152280952Y-97765904D01*
X152233333Y-97718285D01*
X152185714Y-97623047D01*
X152185714Y-97432571D01*
X152233333Y-97337333D01*
X152852380Y-96908761D02*
X152185714Y-96908761D01*
X152376190Y-96908761D02*
X152280952Y-96861142D01*
X152233333Y-96813523D01*
X152185714Y-96718285D01*
X152185714Y-96623047D01*
X152852380Y-96146857D02*
X152804761Y-96242095D01*
X152757142Y-96289714D01*
X152661904Y-96337333D01*
X152376190Y-96337333D01*
X152280952Y-96289714D01*
X152233333Y-96242095D01*
X152185714Y-96146857D01*
X152185714Y-96004000D01*
X152233333Y-95908761D01*
X152280952Y-95861142D01*
X152376190Y-95813523D01*
X152661904Y-95813523D01*
X152757142Y-95861142D01*
X152804761Y-95908761D01*
X152852380Y-96004000D01*
X152852380Y-96146857D01*
X152471428Y-95384952D02*
X152471428Y-94623047D01*
X151852380Y-94146857D02*
X152661904Y-94146857D01*
X152757142Y-94099238D01*
X152804761Y-94051619D01*
X152852380Y-93956380D01*
X152852380Y-93765904D01*
X152804761Y-93670666D01*
X152757142Y-93623047D01*
X152661904Y-93575428D01*
X151852380Y-93575428D01*
X152804761Y-93146857D02*
X152852380Y-93004000D01*
X152852380Y-92765904D01*
X152804761Y-92670666D01*
X152757142Y-92623047D01*
X152661904Y-92575428D01*
X152566666Y-92575428D01*
X152471428Y-92623047D01*
X152423809Y-92670666D01*
X152376190Y-92765904D01*
X152328571Y-92956380D01*
X152280952Y-93051619D01*
X152233333Y-93099238D01*
X152138095Y-93146857D01*
X152042857Y-93146857D01*
X151947619Y-93099238D01*
X151900000Y-93051619D01*
X151852380Y-92956380D01*
X151852380Y-92718285D01*
X151900000Y-92575428D01*
X152328571Y-91813523D02*
X152376190Y-91670666D01*
X152423809Y-91623047D01*
X152519047Y-91575428D01*
X152661904Y-91575428D01*
X152757142Y-91623047D01*
X152804761Y-91670666D01*
X152852380Y-91765904D01*
X152852380Y-92146857D01*
X151852380Y-92146857D01*
X151852380Y-91813523D01*
X151900000Y-91718285D01*
X151947619Y-91670666D01*
X152042857Y-91623047D01*
X152138095Y-91623047D01*
X152233333Y-91670666D01*
X152280952Y-91718285D01*
X152328571Y-91813523D01*
X152328571Y-92146857D01*
X62563666Y-114625380D02*
X62563666Y-113625380D01*
X62897000Y-114339666D01*
X63230333Y-113625380D01*
X63230333Y-114625380D01*
X63706523Y-114625380D02*
X63706523Y-113958714D01*
X63706523Y-113625380D02*
X63658904Y-113673000D01*
X63706523Y-113720619D01*
X63754142Y-113673000D01*
X63706523Y-113625380D01*
X63706523Y-113720619D01*
X64611285Y-114625380D02*
X64611285Y-113625380D01*
X64611285Y-114577761D02*
X64516047Y-114625380D01*
X64325571Y-114625380D01*
X64230333Y-114577761D01*
X64182714Y-114530142D01*
X64135095Y-114434904D01*
X64135095Y-114149190D01*
X64182714Y-114053952D01*
X64230333Y-114006333D01*
X64325571Y-113958714D01*
X64516047Y-113958714D01*
X64611285Y-114006333D01*
X65087476Y-114625380D02*
X65087476Y-113958714D01*
X65087476Y-113625380D02*
X65039857Y-113673000D01*
X65087476Y-113720619D01*
X65135095Y-113673000D01*
X65087476Y-113625380D01*
X65087476Y-113720619D01*
X66325571Y-114625380D02*
X66325571Y-113625380D01*
X66801761Y-113958714D02*
X66801761Y-114625380D01*
X66801761Y-114053952D02*
X66849380Y-114006333D01*
X66944619Y-113958714D01*
X67087476Y-113958714D01*
X67182714Y-114006333D01*
X67230333Y-114101571D01*
X67230333Y-114625380D01*
X62500238Y-109037380D02*
X62500238Y-108037380D01*
X62833571Y-108751666D01*
X63166904Y-108037380D01*
X63166904Y-109037380D01*
X63643095Y-109037380D02*
X63643095Y-108370714D01*
X63643095Y-108037380D02*
X63595476Y-108085000D01*
X63643095Y-108132619D01*
X63690714Y-108085000D01*
X63643095Y-108037380D01*
X63643095Y-108132619D01*
X64547857Y-109037380D02*
X64547857Y-108037380D01*
X64547857Y-108989761D02*
X64452619Y-109037380D01*
X64262142Y-109037380D01*
X64166904Y-108989761D01*
X64119285Y-108942142D01*
X64071666Y-108846904D01*
X64071666Y-108561190D01*
X64119285Y-108465952D01*
X64166904Y-108418333D01*
X64262142Y-108370714D01*
X64452619Y-108370714D01*
X64547857Y-108418333D01*
X65024047Y-109037380D02*
X65024047Y-108370714D01*
X65024047Y-108037380D02*
X64976428Y-108085000D01*
X65024047Y-108132619D01*
X65071666Y-108085000D01*
X65024047Y-108037380D01*
X65024047Y-108132619D01*
X66452619Y-108037380D02*
X66643095Y-108037380D01*
X66738333Y-108085000D01*
X66833571Y-108180238D01*
X66881190Y-108370714D01*
X66881190Y-108704047D01*
X66833571Y-108894523D01*
X66738333Y-108989761D01*
X66643095Y-109037380D01*
X66452619Y-109037380D01*
X66357380Y-108989761D01*
X66262142Y-108894523D01*
X66214523Y-108704047D01*
X66214523Y-108370714D01*
X66262142Y-108180238D01*
X66357380Y-108085000D01*
X66452619Y-108037380D01*
X67738333Y-108370714D02*
X67738333Y-109037380D01*
X67309761Y-108370714D02*
X67309761Y-108894523D01*
X67357380Y-108989761D01*
X67452619Y-109037380D01*
X67595476Y-109037380D01*
X67690714Y-108989761D01*
X67738333Y-108942142D01*
X68071666Y-108370714D02*
X68452619Y-108370714D01*
X68214523Y-108037380D02*
X68214523Y-108894523D01*
X68262142Y-108989761D01*
X68357380Y-109037380D01*
X68452619Y-109037380D01*
X62555666Y-103036666D02*
X63031857Y-103036666D01*
X62460428Y-103322380D02*
X62793761Y-102322380D01*
X63127095Y-103322380D01*
X63889000Y-102655714D02*
X63889000Y-103322380D01*
X63460428Y-102655714D02*
X63460428Y-103179523D01*
X63508047Y-103274761D01*
X63603285Y-103322380D01*
X63746142Y-103322380D01*
X63841380Y-103274761D01*
X63889000Y-103227142D01*
X64793761Y-103322380D02*
X64793761Y-102322380D01*
X64793761Y-103274761D02*
X64698523Y-103322380D01*
X64508047Y-103322380D01*
X64412809Y-103274761D01*
X64365190Y-103227142D01*
X64317571Y-103131904D01*
X64317571Y-102846190D01*
X64365190Y-102750952D01*
X64412809Y-102703333D01*
X64508047Y-102655714D01*
X64698523Y-102655714D01*
X64793761Y-102703333D01*
X65269952Y-103322380D02*
X65269952Y-102655714D01*
X65269952Y-102322380D02*
X65222333Y-102370000D01*
X65269952Y-102417619D01*
X65317571Y-102370000D01*
X65269952Y-102322380D01*
X65269952Y-102417619D01*
X65889000Y-103322380D02*
X65793761Y-103274761D01*
X65746142Y-103227142D01*
X65698523Y-103131904D01*
X65698523Y-102846190D01*
X65746142Y-102750952D01*
X65793761Y-102703333D01*
X65889000Y-102655714D01*
X66031857Y-102655714D01*
X66127095Y-102703333D01*
X66174714Y-102750952D01*
X66222333Y-102846190D01*
X66222333Y-103131904D01*
X66174714Y-103227142D01*
X66127095Y-103274761D01*
X66031857Y-103322380D01*
X65889000Y-103322380D01*
X63111142Y-97512142D02*
X63063523Y-97559761D01*
X62920666Y-97607380D01*
X62825428Y-97607380D01*
X62682571Y-97559761D01*
X62587333Y-97464523D01*
X62539714Y-97369285D01*
X62492095Y-97178809D01*
X62492095Y-97035952D01*
X62539714Y-96845476D01*
X62587333Y-96750238D01*
X62682571Y-96655000D01*
X62825428Y-96607380D01*
X62920666Y-96607380D01*
X63063523Y-96655000D01*
X63111142Y-96702619D01*
X63682571Y-97607380D02*
X63587333Y-97559761D01*
X63539714Y-97464523D01*
X63539714Y-96607380D01*
X64063523Y-97607380D02*
X64063523Y-96940714D01*
X64063523Y-96607380D02*
X64015904Y-96655000D01*
X64063523Y-96702619D01*
X64111142Y-96655000D01*
X64063523Y-96607380D01*
X64063523Y-96702619D01*
X64539714Y-96940714D02*
X64539714Y-97940714D01*
X64539714Y-96988333D02*
X64634952Y-96940714D01*
X64825428Y-96940714D01*
X64920666Y-96988333D01*
X64968285Y-97035952D01*
X65015904Y-97131190D01*
X65015904Y-97416904D01*
X64968285Y-97512142D01*
X64920666Y-97559761D01*
X64825428Y-97607380D01*
X64634952Y-97607380D01*
X64539714Y-97559761D01*
D13*
%TO.C,U3*%
X77037000Y-101045500D02*
X77037000Y-102698000D01*
X76754500Y-101045500D02*
X77037000Y-101045500D01*
X76754500Y-98298000D02*
X76754500Y-101045500D01*
X76754500Y-95550500D02*
X77037000Y-95550500D01*
X76754500Y-98298000D02*
X76754500Y-95550500D01*
X82249500Y-101045500D02*
X81967000Y-101045500D01*
X82249500Y-98298000D02*
X82249500Y-101045500D01*
X82249500Y-95550500D02*
X81967000Y-95550500D01*
X82249500Y-98298000D02*
X82249500Y-95550500D01*
D14*
%TO.C,J5*%
X208041000Y-149852000D02*
X208041000Y-149852000D01*
X208041000Y-149752000D02*
X208041000Y-149752000D01*
X208041000Y-149852000D02*
X208041000Y-149852000D01*
D15*
X215741000Y-143352000D02*
X218741000Y-143352000D01*
X215741000Y-143352000D02*
X215741000Y-143352000D01*
X218741000Y-143352000D02*
X215741000Y-143352000D01*
X218741000Y-143352000D02*
X218741000Y-143352000D01*
X218741000Y-153352000D02*
X208741000Y-153352000D01*
X218741000Y-153352000D02*
X218741000Y-153352000D01*
X208741000Y-153352000D02*
X218741000Y-153352000D01*
X208741000Y-153352000D02*
X208741000Y-153352000D01*
X208741000Y-143352000D02*
X211991000Y-143352000D01*
X208741000Y-143352000D02*
X208741000Y-143352000D01*
X211991000Y-143352000D02*
X208741000Y-143352000D01*
X211991000Y-143352000D02*
X211991000Y-143352000D01*
X218741000Y-153352000D02*
X218741000Y-153352000D01*
X218741000Y-143352000D02*
X218741000Y-153352000D01*
X218741000Y-143352000D02*
X218741000Y-143352000D01*
X218741000Y-153352000D02*
X218741000Y-143352000D01*
X208741000Y-143352000D02*
X208741000Y-143352000D01*
X208741000Y-153352000D02*
X208741000Y-143352000D01*
X208741000Y-153352000D02*
X208741000Y-153352000D01*
X208741000Y-143352000D02*
X208741000Y-153352000D01*
D14*
X208041000Y-149752000D02*
G75*
G02*
X208041000Y-149852000I0J-50000D01*
G01*
X208041000Y-149852000D02*
G75*
G02*
X208041000Y-149752000I0J50000D01*
G01*
X208041000Y-149752000D02*
G75*
G02*
X208041000Y-149852000I0J-50000D01*
G01*
D13*
%TO.C,C1*%
X222477000Y-148597252D02*
X222477000Y-148074748D01*
X221007000Y-148597252D02*
X221007000Y-148074748D01*
%TO.C,D2*%
X64460000Y-118139000D02*
X64460000Y-115279000D01*
X64460000Y-115279000D02*
X62540000Y-115279000D01*
X62540000Y-115279000D02*
X62540000Y-118139000D01*
%TO.C,D3*%
X62540000Y-109591332D02*
X62540000Y-112451332D01*
X64460000Y-109591332D02*
X62540000Y-109591332D01*
X64460000Y-112451332D02*
X64460000Y-109591332D01*
%TO.C,D4*%
X62540000Y-103903666D02*
X62540000Y-106763666D01*
X64460000Y-103903666D02*
X62540000Y-103903666D01*
X64460000Y-106763666D02*
X64460000Y-103903666D01*
%TO.C,D5*%
X64460000Y-101076000D02*
X64460000Y-98216000D01*
X64460000Y-98216000D02*
X62540000Y-98216000D01*
X62540000Y-98216000D02*
X62540000Y-101076000D01*
D16*
%TO.C,J1*%
X175981360Y-153532840D02*
X175981360Y-154033220D01*
X154980640Y-154533600D02*
X154980640Y-154033220D01*
X156982160Y-153035000D02*
X156982160Y-153532840D01*
X173979840Y-153532840D02*
X173979840Y-153035000D01*
X156481780Y-153035000D02*
X156982160Y-153035000D01*
X174480220Y-153035000D02*
X173979840Y-153035000D01*
X156481780Y-153532840D02*
X175981360Y-153532840D01*
X156481780Y-154033220D02*
X156481780Y-153532840D01*
X154980640Y-154033220D02*
X156481780Y-154033220D01*
X174480220Y-154533600D02*
X154980640Y-154533600D01*
X174480220Y-154033220D02*
X174480220Y-154533600D01*
X175981360Y-154033220D02*
X174480220Y-154033220D01*
X167479980Y-136034780D02*
X167479980Y-138033760D01*
X166982140Y-135534400D02*
X167479980Y-136034780D01*
X163979860Y-135534400D02*
X166982140Y-135534400D01*
X163482020Y-136034780D02*
X163482020Y-138033760D01*
X163979860Y-135534400D02*
X163482020Y-136034780D01*
X170980100Y-138033760D02*
X167479980Y-138033760D01*
X170980100Y-136034780D02*
X170980100Y-138033760D01*
X171480480Y-135534400D02*
X170980100Y-136034780D01*
X171980860Y-135534400D02*
X171480480Y-135534400D01*
X173979840Y-135534400D02*
X171980860Y-135534400D01*
X174480220Y-136034780D02*
X173979840Y-135534400D01*
X174480220Y-136034780D02*
X174480220Y-153035000D01*
X159981900Y-138033760D02*
X163482020Y-138033760D01*
X159981900Y-136034780D02*
X159981900Y-138033760D01*
X159481520Y-135534400D02*
X159981900Y-136034780D01*
X156982160Y-135534400D02*
X159481520Y-135534400D01*
X156481780Y-136034780D02*
X156982160Y-135534400D01*
X156481780Y-136034780D02*
X156481780Y-153035000D01*
X154980640Y-154284680D02*
X174480220Y-154284680D01*
X174480220Y-154033220D02*
X156481780Y-154033220D01*
X156481780Y-153784300D02*
X175981360Y-153784300D01*
D13*
%TO.C,J2*%
X182312000Y-90738000D02*
X182312000Y-89408000D01*
X183642000Y-90738000D02*
X182312000Y-90738000D01*
X182312000Y-88138000D02*
X182312000Y-85538000D01*
X184912000Y-88138000D02*
X182312000Y-88138000D01*
X184912000Y-90738000D02*
X184912000Y-88138000D01*
X182312000Y-85538000D02*
X207832000Y-85538000D01*
X184912000Y-90738000D02*
X207832000Y-90738000D01*
X207832000Y-90738000D02*
X207832000Y-85538000D01*
D16*
%TO.C,J3*%
X133621780Y-153784300D02*
X153121360Y-153784300D01*
X151620220Y-154033220D02*
X133621780Y-154033220D01*
X132120640Y-154284680D02*
X151620220Y-154284680D01*
X133621780Y-136034780D02*
X133621780Y-153035000D01*
X133621780Y-136034780D02*
X134122160Y-135534400D01*
X134122160Y-135534400D02*
X136621520Y-135534400D01*
X136621520Y-135534400D02*
X137121900Y-136034780D01*
X137121900Y-136034780D02*
X137121900Y-138033760D01*
X137121900Y-138033760D02*
X140622020Y-138033760D01*
X151620220Y-136034780D02*
X151620220Y-153035000D01*
X151620220Y-136034780D02*
X151119840Y-135534400D01*
X151119840Y-135534400D02*
X149120860Y-135534400D01*
X149120860Y-135534400D02*
X148620480Y-135534400D01*
X148620480Y-135534400D02*
X148120100Y-136034780D01*
X148120100Y-136034780D02*
X148120100Y-138033760D01*
X148120100Y-138033760D02*
X144619980Y-138033760D01*
X141119860Y-135534400D02*
X140622020Y-136034780D01*
X140622020Y-136034780D02*
X140622020Y-138033760D01*
X141119860Y-135534400D02*
X144122140Y-135534400D01*
X144122140Y-135534400D02*
X144619980Y-136034780D01*
X144619980Y-136034780D02*
X144619980Y-138033760D01*
X153121360Y-154033220D02*
X151620220Y-154033220D01*
X151620220Y-154033220D02*
X151620220Y-154533600D01*
X151620220Y-154533600D02*
X132120640Y-154533600D01*
X132120640Y-154033220D02*
X133621780Y-154033220D01*
X133621780Y-154033220D02*
X133621780Y-153532840D01*
X133621780Y-153532840D02*
X153121360Y-153532840D01*
X151620220Y-153035000D02*
X151119840Y-153035000D01*
X133621780Y-153035000D02*
X134122160Y-153035000D01*
X151119840Y-153532840D02*
X151119840Y-153035000D01*
X134122160Y-153035000D02*
X134122160Y-153532840D01*
X132120640Y-154533600D02*
X132120640Y-154033220D01*
X153121360Y-153532840D02*
X153121360Y-154033220D01*
%TO.C,J4*%
X130261360Y-153532840D02*
X130261360Y-154033220D01*
X109260640Y-154533600D02*
X109260640Y-154033220D01*
X111262160Y-153035000D02*
X111262160Y-153532840D01*
X128259840Y-153532840D02*
X128259840Y-153035000D01*
X110761780Y-153035000D02*
X111262160Y-153035000D01*
X128760220Y-153035000D02*
X128259840Y-153035000D01*
X110761780Y-153532840D02*
X130261360Y-153532840D01*
X110761780Y-154033220D02*
X110761780Y-153532840D01*
X109260640Y-154033220D02*
X110761780Y-154033220D01*
X128760220Y-154533600D02*
X109260640Y-154533600D01*
X128760220Y-154033220D02*
X128760220Y-154533600D01*
X130261360Y-154033220D02*
X128760220Y-154033220D01*
X121759980Y-136034780D02*
X121759980Y-138033760D01*
X121262140Y-135534400D02*
X121759980Y-136034780D01*
X118259860Y-135534400D02*
X121262140Y-135534400D01*
X117762020Y-136034780D02*
X117762020Y-138033760D01*
X118259860Y-135534400D02*
X117762020Y-136034780D01*
X125260100Y-138033760D02*
X121759980Y-138033760D01*
X125260100Y-136034780D02*
X125260100Y-138033760D01*
X125760480Y-135534400D02*
X125260100Y-136034780D01*
X126260860Y-135534400D02*
X125760480Y-135534400D01*
X128259840Y-135534400D02*
X126260860Y-135534400D01*
X128760220Y-136034780D02*
X128259840Y-135534400D01*
X128760220Y-136034780D02*
X128760220Y-153035000D01*
X114261900Y-138033760D02*
X117762020Y-138033760D01*
X114261900Y-136034780D02*
X114261900Y-138033760D01*
X113761520Y-135534400D02*
X114261900Y-136034780D01*
X111262160Y-135534400D02*
X113761520Y-135534400D01*
X110761780Y-136034780D02*
X111262160Y-135534400D01*
X110761780Y-136034780D02*
X110761780Y-153035000D01*
X109260640Y-154284680D02*
X128760220Y-154284680D01*
X128760220Y-154033220D02*
X110761780Y-154033220D01*
X110761780Y-153784300D02*
X130261360Y-153784300D01*
D13*
%TO.C,U2*%
X89475000Y-89444000D02*
X89475000Y-94504000D01*
X150555000Y-89444000D02*
X89475000Y-89444000D01*
X150555000Y-101564000D02*
X150555000Y-89444000D01*
X89475000Y-101564000D02*
X150555000Y-101564000D01*
X89475000Y-96504000D02*
X89475000Y-101564000D01*
X89475000Y-94504000D02*
G75*
G02*
X89475000Y-96504000I0J-1000000D01*
G01*
%TO.C,R1*%
X171169000Y-130021064D02*
X171169000Y-129566936D01*
X169699000Y-130021064D02*
X169699000Y-129566936D01*
%TO.C,R2*%
X154459000Y-122655064D02*
X154459000Y-122200936D01*
X155929000Y-122655064D02*
X155929000Y-122200936D01*
%TO.C,R3*%
X127027000Y-129737064D02*
X127027000Y-129282936D01*
X128497000Y-129737064D02*
X128497000Y-129282936D01*
%TO.C,R4*%
X143410000Y-129282936D02*
X143410000Y-129737064D01*
X144880000Y-129282936D02*
X144880000Y-129737064D01*
%TO.C,R5*%
X67664000Y-117321064D02*
X67664000Y-116866936D01*
X66194000Y-117321064D02*
X66194000Y-116866936D01*
%TO.C,R6*%
X66194000Y-111633396D02*
X66194000Y-111179268D01*
X67664000Y-111633396D02*
X67664000Y-111179268D01*
%TO.C,R7*%
X67664000Y-105945730D02*
X67664000Y-105491602D01*
X66194000Y-105945730D02*
X66194000Y-105491602D01*
%TO.C,R8*%
X66194000Y-100258064D02*
X66194000Y-99803936D01*
X67664000Y-100258064D02*
X67664000Y-99803936D01*
%TO.C,FB1*%
X146839000Y-129801252D02*
X146839000Y-129278748D01*
X148309000Y-129801252D02*
X148309000Y-129278748D01*
%TO.C,FB2*%
X115543000Y-129801252D02*
X115543000Y-129278748D01*
X114073000Y-129801252D02*
X114073000Y-129278748D01*
%TO.C,FB3*%
X174217000Y-130076752D02*
X174217000Y-129554248D01*
X172747000Y-130076752D02*
X172747000Y-129554248D01*
%TO.C,FB4*%
X159793000Y-130055252D02*
X159793000Y-129532748D01*
X161263000Y-130055252D02*
X161263000Y-129532748D01*
%TO.C,FB5*%
X136933000Y-129278748D02*
X136933000Y-129801252D01*
X138403000Y-129278748D02*
X138403000Y-129801252D01*
%TO.C,FB6*%
X125449000Y-129278748D02*
X125449000Y-129801252D01*
X123979000Y-129278748D02*
X123979000Y-129801252D01*
%TO.C,R9*%
X112495000Y-129282936D02*
X112495000Y-129737064D01*
X111025000Y-129282936D02*
X111025000Y-129737064D01*
%TO.C,R10*%
X134593000Y-129737064D02*
X134593000Y-129282936D01*
X133123000Y-129737064D02*
X133123000Y-129282936D01*
%TO.C,U5*%
X127137000Y-118364000D02*
X127137000Y-120314000D01*
X127137000Y-118364000D02*
X127137000Y-116414000D01*
X136007000Y-118364000D02*
X136007000Y-120314000D01*
X136007000Y-118364000D02*
X136007000Y-114914000D01*
%TO.C,U1*%
X162373000Y-124774000D02*
X164608000Y-124774000D01*
X162373000Y-117034000D02*
X162373000Y-124774000D01*
X168843000Y-117034000D02*
X162373000Y-117034000D01*
X168843000Y-124774000D02*
X168843000Y-117034000D01*
X166608000Y-124774000D02*
X168843000Y-124774000D01*
X164608000Y-124774000D02*
G75*
G02*
X166608000Y-124774000I1000000J0D01*
G01*
%TO.C,C2*%
X239676000Y-120027748D02*
X239676000Y-120550252D01*
X241146000Y-120027748D02*
X241146000Y-120550252D01*
%TO.C,C3*%
X225906000Y-120007748D02*
X225906000Y-120530252D01*
X224436000Y-120007748D02*
X224436000Y-120530252D01*
%TO.C,C6*%
X104929000Y-115846748D02*
X104929000Y-116369252D01*
X106399000Y-115846748D02*
X106399000Y-116369252D01*
%TO.C,C7*%
X91921000Y-115846748D02*
X91921000Y-116369252D01*
X90451000Y-115846748D02*
X90451000Y-116369252D01*
%TO.C,D6*%
X228624000Y-126272000D02*
X228624000Y-134972000D01*
X231624000Y-126272000D02*
X228624000Y-126272000D01*
X231624000Y-134972000D02*
X231624000Y-126272000D01*
%TO.C,J6*%
X225524000Y-139970000D02*
X227624000Y-139970000D01*
X225224000Y-139670000D02*
X225224000Y-141270000D01*
X226924000Y-139670000D02*
X225224000Y-139670000D01*
X234724000Y-139970000D02*
X234724000Y-141770000D01*
X232624000Y-139970000D02*
X234724000Y-139970000D01*
X225524000Y-154670000D02*
X225524000Y-139970000D01*
X234724000Y-154670000D02*
X225524000Y-154670000D01*
X234724000Y-146170000D02*
X234724000Y-154670000D01*
%TO.C,J7*%
X233994000Y-85538000D02*
X233994000Y-86868000D01*
X232664000Y-85538000D02*
X233994000Y-85538000D01*
X233994000Y-88138000D02*
X233994000Y-90738000D01*
X231394000Y-88138000D02*
X233994000Y-88138000D01*
X231394000Y-85538000D02*
X231394000Y-88138000D01*
X233994000Y-90738000D02*
X213554000Y-90738000D01*
X231394000Y-85538000D02*
X213554000Y-85538000D01*
X213554000Y-85538000D02*
X213554000Y-90738000D01*
%TO.C,R11*%
X104929000Y-120676936D02*
X104929000Y-121131064D01*
X106399000Y-120676936D02*
X106399000Y-121131064D01*
%TO.C,R12*%
X85625000Y-120676936D02*
X85625000Y-121131064D01*
X87095000Y-120676936D02*
X87095000Y-121131064D01*
%TO.C,R13*%
X101573000Y-120676936D02*
X101573000Y-121131064D01*
X100103000Y-120676936D02*
X100103000Y-121131064D01*
%TO.C,R14*%
X91891000Y-120676936D02*
X91891000Y-121131064D01*
X90421000Y-120676936D02*
X90421000Y-121131064D01*
%TO.C,R15*%
X100103000Y-115850936D02*
X100103000Y-116305064D01*
X101573000Y-115850936D02*
X101573000Y-116305064D01*
%TO.C,R16*%
X87095000Y-115850936D02*
X87095000Y-116305064D01*
X85625000Y-115850936D02*
X85625000Y-116305064D01*
%TO.C,R17*%
X104929000Y-111479064D02*
X104929000Y-111024936D01*
X106399000Y-111479064D02*
X106399000Y-111024936D01*
%TO.C,R18*%
X91891000Y-111479064D02*
X91891000Y-111024936D01*
X90421000Y-111479064D02*
X90421000Y-111024936D01*
%TO.C,U6*%
X216681000Y-124496000D02*
X216681000Y-118486000D01*
X223501000Y-122246000D02*
X223501000Y-118486000D01*
X216681000Y-118486000D02*
X217941000Y-118486000D01*
X223501000Y-118486000D02*
X222241000Y-118486000D01*
%TO.C,U7*%
X238741000Y-118486000D02*
X237481000Y-118486000D01*
X231921000Y-118486000D02*
X233181000Y-118486000D01*
X238741000Y-122246000D02*
X238741000Y-118486000D01*
X231921000Y-124496000D02*
X231921000Y-118486000D01*
%TO.C,U8*%
X82262000Y-123242000D02*
X83952000Y-123242000D01*
X82262000Y-124082000D02*
X82262000Y-123242000D01*
X79502000Y-124082000D02*
X82262000Y-124082000D01*
X76742000Y-124082000D02*
X76742000Y-123242000D01*
X79502000Y-124082000D02*
X76742000Y-124082000D01*
X82262000Y-113662000D02*
X82262000Y-114502000D01*
X79502000Y-113662000D02*
X82262000Y-113662000D01*
X76742000Y-113662000D02*
X76742000Y-114502000D01*
X79502000Y-113662000D02*
X76742000Y-113662000D01*
%TO.C,D1*%
X162916500Y-131694000D02*
X164616500Y-131694000D01*
X164616500Y-131694000D02*
X164616500Y-128544000D01*
X162916500Y-131694000D02*
X162916500Y-128544000D01*
%TO.C,C4*%
X214076000Y-117824000D02*
X214076000Y-121909000D01*
X215946000Y-117824000D02*
X214076000Y-117824000D01*
X215946000Y-121909000D02*
X215946000Y-117824000D01*
%TO.C,C5*%
X231059000Y-121996000D02*
X231059000Y-117911000D01*
X231059000Y-117911000D02*
X229189000Y-117911000D01*
X229189000Y-117911000D02*
X229189000Y-121996000D01*
%TO.C,C8*%
X231729000Y-98099000D02*
X231729000Y-102184000D01*
X233599000Y-98099000D02*
X231729000Y-98099000D01*
X233599000Y-102184000D02*
X233599000Y-98099000D01*
%TO.C,C9*%
X222677000Y-102184000D02*
X222677000Y-98099000D01*
X222677000Y-98099000D02*
X220807000Y-98099000D01*
X220807000Y-98099000D02*
X220807000Y-102184000D01*
%TO.C,U9*%
X227118001Y-103202001D02*
X229068001Y-103202001D01*
X227118001Y-103202001D02*
X225168001Y-103202001D01*
X227118001Y-98082001D02*
X229068001Y-98082001D01*
X227118001Y-98082001D02*
X223668001Y-98082001D01*
%TO.C,D7*%
X62540000Y-92501000D02*
X62540000Y-95361000D01*
X64460000Y-92501000D02*
X62540000Y-92501000D01*
X64460000Y-95361000D02*
X64460000Y-92501000D01*
%TO.C,R19*%
X67664000Y-94588064D02*
X67664000Y-94133936D01*
X66194000Y-94588064D02*
X66194000Y-94133936D01*
%TO.C,J8*%
X104693000Y-154584000D02*
X108293000Y-154584000D01*
X103543000Y-133344000D02*
X108293000Y-133344000D01*
X103543000Y-130344000D02*
X103543000Y-133344000D01*
X94643000Y-130344000D02*
X103543000Y-130344000D01*
X89853000Y-133344000D02*
X94603000Y-133344000D01*
X108293000Y-133344000D02*
X108293000Y-136064000D01*
X108293000Y-138814000D02*
X108293000Y-142414000D01*
X108293000Y-145114000D02*
X108293000Y-148714000D01*
X89853000Y-148714000D02*
X89853000Y-145114000D01*
X89853000Y-142414000D02*
X89853000Y-138814000D01*
X89853000Y-136064000D02*
X89853000Y-133344000D01*
X89853000Y-154584000D02*
X89853000Y-151464000D01*
X108293000Y-154584000D02*
X108293000Y-151464000D01*
X89853000Y-154584000D02*
X93453000Y-154584000D01*
X94603000Y-130344000D02*
X94603000Y-133344000D01*
X93453000Y-154584000D02*
X93453000Y-163434000D01*
X93453000Y-163434000D02*
X104693000Y-163434000D01*
X104693000Y-154584000D02*
X104693000Y-163434000D01*
%TO.C,J9*%
X83357000Y-154584000D02*
X83357000Y-163434000D01*
X72117000Y-163434000D02*
X83357000Y-163434000D01*
X72117000Y-154584000D02*
X72117000Y-163434000D01*
X73267000Y-130344000D02*
X73267000Y-133344000D01*
X68517000Y-154584000D02*
X72117000Y-154584000D01*
X86957000Y-154584000D02*
X86957000Y-151464000D01*
X68517000Y-154584000D02*
X68517000Y-151464000D01*
X68517000Y-136064000D02*
X68517000Y-133344000D01*
X68517000Y-142414000D02*
X68517000Y-138814000D01*
X68517000Y-148714000D02*
X68517000Y-145114000D01*
X86957000Y-145114000D02*
X86957000Y-148714000D01*
X86957000Y-138814000D02*
X86957000Y-142414000D01*
X86957000Y-133344000D02*
X86957000Y-136064000D01*
X68517000Y-133344000D02*
X73267000Y-133344000D01*
X73307000Y-130344000D02*
X82207000Y-130344000D01*
X82207000Y-130344000D02*
X82207000Y-133344000D01*
X82207000Y-133344000D02*
X86957000Y-133344000D01*
X83357000Y-154584000D02*
X86957000Y-154584000D01*
%TO.C,U3*%
D10*
X75364380Y-99059904D02*
X76173904Y-99059904D01*
X76269142Y-99012285D01*
X76316761Y-98964666D01*
X76364380Y-98869428D01*
X76364380Y-98678952D01*
X76316761Y-98583714D01*
X76269142Y-98536095D01*
X76173904Y-98488476D01*
X75364380Y-98488476D01*
X75364380Y-98107523D02*
X75364380Y-97488476D01*
X75745333Y-97821809D01*
X75745333Y-97678952D01*
X75792952Y-97583714D01*
X75840571Y-97536095D01*
X75935809Y-97488476D01*
X76173904Y-97488476D01*
X76269142Y-97536095D01*
X76316761Y-97583714D01*
X76364380Y-97678952D01*
X76364380Y-97964666D01*
X76316761Y-98059904D01*
X76269142Y-98107523D01*
X82639619Y-100917047D02*
X82592000Y-100869428D01*
X82544380Y-100774190D01*
X82544380Y-100536095D01*
X82592000Y-100440857D01*
X82639619Y-100393238D01*
X82734857Y-100345619D01*
X82830095Y-100345619D01*
X82972952Y-100393238D01*
X83544380Y-100964666D01*
X83544380Y-100345619D01*
X82877714Y-99488476D02*
X83544380Y-99488476D01*
X82496761Y-99726571D02*
X83211047Y-99964666D01*
X83211047Y-99345619D01*
X83544380Y-98488476D02*
X83544380Y-98964666D01*
X82544380Y-98964666D01*
X83449142Y-97583714D02*
X83496761Y-97631333D01*
X83544380Y-97774190D01*
X83544380Y-97869428D01*
X83496761Y-98012285D01*
X83401523Y-98107523D01*
X83306285Y-98155142D01*
X83115809Y-98202761D01*
X82972952Y-98202761D01*
X82782476Y-98155142D01*
X82687238Y-98107523D01*
X82592000Y-98012285D01*
X82544380Y-97869428D01*
X82544380Y-97774190D01*
X82592000Y-97631333D01*
X82639619Y-97583714D01*
X82544380Y-96964666D02*
X82544380Y-96869428D01*
X82592000Y-96774190D01*
X82639619Y-96726571D01*
X82734857Y-96678952D01*
X82925333Y-96631333D01*
X83163428Y-96631333D01*
X83353904Y-96678952D01*
X83449142Y-96726571D01*
X83496761Y-96774190D01*
X83544380Y-96869428D01*
X83544380Y-96964666D01*
X83496761Y-97059904D01*
X83449142Y-97107523D01*
X83353904Y-97155142D01*
X83163428Y-97202761D01*
X82925333Y-97202761D01*
X82734857Y-97155142D01*
X82639619Y-97107523D01*
X82592000Y-97059904D01*
X82544380Y-96964666D01*
X83544380Y-95678952D02*
X83544380Y-96250380D01*
X83544380Y-95964666D02*
X82544380Y-95964666D01*
X82687238Y-96059904D01*
X82782476Y-96155142D01*
X82830095Y-96250380D01*
%TO.C,J5*%
D17*
X209870523Y-152061333D02*
X210777666Y-152061333D01*
X210959095Y-152121809D01*
X211080047Y-152242761D01*
X211140523Y-152424190D01*
X211140523Y-152545142D01*
X209870523Y-150851809D02*
X209870523Y-151456571D01*
X210475285Y-151517047D01*
X210414809Y-151456571D01*
X210354333Y-151335619D01*
X210354333Y-151033238D01*
X210414809Y-150912285D01*
X210475285Y-150851809D01*
X210596238Y-150791333D01*
X210898619Y-150791333D01*
X211019571Y-150851809D01*
X211080047Y-150912285D01*
X211140523Y-151033238D01*
X211140523Y-151335619D01*
X211080047Y-151456571D01*
X211019571Y-151517047D01*
%TO.C,C1*%
D10*
X220419142Y-148502666D02*
X220466761Y-148550285D01*
X220514380Y-148693142D01*
X220514380Y-148788380D01*
X220466761Y-148931238D01*
X220371523Y-149026476D01*
X220276285Y-149074095D01*
X220085809Y-149121714D01*
X219942952Y-149121714D01*
X219752476Y-149074095D01*
X219657238Y-149026476D01*
X219562000Y-148931238D01*
X219514380Y-148788380D01*
X219514380Y-148693142D01*
X219562000Y-148550285D01*
X219609619Y-148502666D01*
X220514380Y-147550285D02*
X220514380Y-148121714D01*
X220514380Y-147836000D02*
X219514380Y-147836000D01*
X219657238Y-147931238D01*
X219752476Y-148026476D01*
X219800095Y-148121714D01*
%TO.C,D2*%
X65730380Y-117877095D02*
X64730380Y-117877095D01*
X64730380Y-117639000D01*
X64778000Y-117496142D01*
X64873238Y-117400904D01*
X64968476Y-117353285D01*
X65158952Y-117305666D01*
X65301809Y-117305666D01*
X65492285Y-117353285D01*
X65587523Y-117400904D01*
X65682761Y-117496142D01*
X65730380Y-117639000D01*
X65730380Y-117877095D01*
X64825619Y-116924714D02*
X64778000Y-116877095D01*
X64730380Y-116781857D01*
X64730380Y-116543761D01*
X64778000Y-116448523D01*
X64825619Y-116400904D01*
X64920857Y-116353285D01*
X65016095Y-116353285D01*
X65158952Y-116400904D01*
X65730380Y-116972333D01*
X65730380Y-116353285D01*
%TO.C,D3*%
X65730380Y-112189427D02*
X64730380Y-112189427D01*
X64730380Y-111951332D01*
X64778000Y-111808474D01*
X64873238Y-111713236D01*
X64968476Y-111665617D01*
X65158952Y-111617998D01*
X65301809Y-111617998D01*
X65492285Y-111665617D01*
X65587523Y-111713236D01*
X65682761Y-111808474D01*
X65730380Y-111951332D01*
X65730380Y-112189427D01*
X64730380Y-111284665D02*
X64730380Y-110665617D01*
X65111333Y-110998951D01*
X65111333Y-110856093D01*
X65158952Y-110760855D01*
X65206571Y-110713236D01*
X65301809Y-110665617D01*
X65539904Y-110665617D01*
X65635142Y-110713236D01*
X65682761Y-110760855D01*
X65730380Y-110856093D01*
X65730380Y-111141808D01*
X65682761Y-111237046D01*
X65635142Y-111284665D01*
%TO.C,D4*%
X65730380Y-106501761D02*
X64730380Y-106501761D01*
X64730380Y-106263666D01*
X64778000Y-106120808D01*
X64873238Y-106025570D01*
X64968476Y-105977951D01*
X65158952Y-105930332D01*
X65301809Y-105930332D01*
X65492285Y-105977951D01*
X65587523Y-106025570D01*
X65682761Y-106120808D01*
X65730380Y-106263666D01*
X65730380Y-106501761D01*
X65063714Y-105073189D02*
X65730380Y-105073189D01*
X64682761Y-105311285D02*
X65397047Y-105549380D01*
X65397047Y-104930332D01*
%TO.C,D5*%
X65730380Y-100814095D02*
X64730380Y-100814095D01*
X64730380Y-100576000D01*
X64778000Y-100433142D01*
X64873238Y-100337904D01*
X64968476Y-100290285D01*
X65158952Y-100242666D01*
X65301809Y-100242666D01*
X65492285Y-100290285D01*
X65587523Y-100337904D01*
X65682761Y-100433142D01*
X65730380Y-100576000D01*
X65730380Y-100814095D01*
X64730380Y-99337904D02*
X64730380Y-99814095D01*
X65206571Y-99861714D01*
X65158952Y-99814095D01*
X65111333Y-99718857D01*
X65111333Y-99480761D01*
X65158952Y-99385523D01*
X65206571Y-99337904D01*
X65301809Y-99290285D01*
X65539904Y-99290285D01*
X65635142Y-99337904D01*
X65682761Y-99385523D01*
X65730380Y-99480761D01*
X65730380Y-99718857D01*
X65682761Y-99814095D01*
X65635142Y-99861714D01*
%TO.C,J1*%
D11*
X164981000Y-149927571D02*
X164981000Y-150999000D01*
X164909571Y-151213285D01*
X164766714Y-151356142D01*
X164552428Y-151427571D01*
X164409571Y-151427571D01*
X166481000Y-151427571D02*
X165623857Y-151427571D01*
X166052428Y-151427571D02*
X166052428Y-149927571D01*
X165909571Y-150141857D01*
X165766714Y-150284714D01*
X165623857Y-150356142D01*
%TO.C,J2*%
D10*
X180764380Y-88471333D02*
X181478666Y-88471333D01*
X181621523Y-88518952D01*
X181716761Y-88614190D01*
X181764380Y-88757047D01*
X181764380Y-88852285D01*
X180859619Y-88042761D02*
X180812000Y-87995142D01*
X180764380Y-87899904D01*
X180764380Y-87661809D01*
X180812000Y-87566571D01*
X180859619Y-87518952D01*
X180954857Y-87471333D01*
X181050095Y-87471333D01*
X181192952Y-87518952D01*
X181764380Y-88090380D01*
X181764380Y-87471333D01*
%TO.C,J3*%
D11*
X142121000Y-149927571D02*
X142121000Y-150999000D01*
X142049571Y-151213285D01*
X141906714Y-151356142D01*
X141692428Y-151427571D01*
X141549571Y-151427571D01*
X142692428Y-149927571D02*
X143621000Y-149927571D01*
X143121000Y-150499000D01*
X143335285Y-150499000D01*
X143478142Y-150570428D01*
X143549571Y-150641857D01*
X143621000Y-150784714D01*
X143621000Y-151141857D01*
X143549571Y-151284714D01*
X143478142Y-151356142D01*
X143335285Y-151427571D01*
X142906714Y-151427571D01*
X142763857Y-151356142D01*
X142692428Y-151284714D01*
%TO.C,J4*%
X119261000Y-149927571D02*
X119261000Y-150999000D01*
X119189571Y-151213285D01*
X119046714Y-151356142D01*
X118832428Y-151427571D01*
X118689571Y-151427571D01*
X120618142Y-150427571D02*
X120618142Y-151427571D01*
X120261000Y-149856142D02*
X119903857Y-150927571D01*
X120832428Y-150927571D01*
%TO.C,U2*%
D10*
X87927380Y-96265904D02*
X88736904Y-96265904D01*
X88832142Y-96218285D01*
X88879761Y-96170666D01*
X88927380Y-96075428D01*
X88927380Y-95884952D01*
X88879761Y-95789714D01*
X88832142Y-95742095D01*
X88736904Y-95694476D01*
X87927380Y-95694476D01*
X88022619Y-95265904D02*
X87975000Y-95218285D01*
X87927380Y-95123047D01*
X87927380Y-94884952D01*
X87975000Y-94789714D01*
X88022619Y-94742095D01*
X88117857Y-94694476D01*
X88213095Y-94694476D01*
X88355952Y-94742095D01*
X88927380Y-95313523D01*
X88927380Y-94694476D01*
%TO.C,U4*%
X191262095Y-117943380D02*
X191262095Y-118752904D01*
X191309714Y-118848142D01*
X191357333Y-118895761D01*
X191452571Y-118943380D01*
X191643047Y-118943380D01*
X191738285Y-118895761D01*
X191785904Y-118848142D01*
X191833523Y-118752904D01*
X191833523Y-117943380D01*
X192738285Y-118276714D02*
X192738285Y-118943380D01*
X192500190Y-117895761D02*
X192262095Y-118610047D01*
X192881142Y-118610047D01*
X188603380Y-133945380D02*
X188603380Y-134754904D01*
X188651000Y-134850142D01*
X188698619Y-134897761D01*
X188793857Y-134945380D01*
X188984333Y-134945380D01*
X189079571Y-134897761D01*
X189127190Y-134850142D01*
X189174809Y-134754904D01*
X189174809Y-133945380D01*
X189651000Y-134945380D02*
X189651000Y-133945380D01*
X189889095Y-133945380D01*
X190031952Y-133993000D01*
X190127190Y-134088238D01*
X190174809Y-134183476D01*
X190222428Y-134373952D01*
X190222428Y-134516809D01*
X190174809Y-134707285D01*
X190127190Y-134802523D01*
X190031952Y-134897761D01*
X189889095Y-134945380D01*
X189651000Y-134945380D01*
X190603380Y-134659666D02*
X191079571Y-134659666D01*
X190508142Y-134945380D02*
X190841476Y-133945380D01*
X191174809Y-134945380D01*
X192031952Y-134945380D02*
X191460523Y-134945380D01*
X191746238Y-134945380D02*
X191746238Y-133945380D01*
X191651000Y-134088238D01*
X191555761Y-134183476D01*
X191460523Y-134231095D01*
X192365285Y-133945380D02*
X192984333Y-133945380D01*
X192651000Y-134326333D01*
X192793857Y-134326333D01*
X192889095Y-134373952D01*
X192936714Y-134421571D01*
X192984333Y-134516809D01*
X192984333Y-134754904D01*
X192936714Y-134850142D01*
X192889095Y-134897761D01*
X192793857Y-134945380D01*
X192508142Y-134945380D01*
X192412904Y-134897761D01*
X192365285Y-134850142D01*
X193317666Y-133945380D02*
X193936714Y-133945380D01*
X193603380Y-134326333D01*
X193746238Y-134326333D01*
X193841476Y-134373952D01*
X193889095Y-134421571D01*
X193936714Y-134516809D01*
X193936714Y-134754904D01*
X193889095Y-134850142D01*
X193841476Y-134897761D01*
X193746238Y-134945380D01*
X193460523Y-134945380D01*
X193365285Y-134897761D01*
X193317666Y-134850142D01*
X194793857Y-134278714D02*
X194793857Y-134945380D01*
X194555761Y-133897761D02*
X194317666Y-134612047D01*
X194936714Y-134612047D01*
X195270047Y-134659666D02*
X195746238Y-134659666D01*
X195174809Y-134945380D02*
X195508142Y-133945380D01*
X195841476Y-134945380D01*
%TO.C,R1*%
X169236380Y-129960666D02*
X168760190Y-130294000D01*
X169236380Y-130532095D02*
X168236380Y-130532095D01*
X168236380Y-130151142D01*
X168284000Y-130055904D01*
X168331619Y-130008285D01*
X168426857Y-129960666D01*
X168569714Y-129960666D01*
X168664952Y-130008285D01*
X168712571Y-130055904D01*
X168760190Y-130151142D01*
X168760190Y-130532095D01*
X169236380Y-129008285D02*
X169236380Y-129579714D01*
X169236380Y-129294000D02*
X168236380Y-129294000D01*
X168379238Y-129389238D01*
X168474476Y-129484476D01*
X168522095Y-129579714D01*
%TO.C,R2*%
X153996380Y-122594666D02*
X153520190Y-122928000D01*
X153996380Y-123166095D02*
X152996380Y-123166095D01*
X152996380Y-122785142D01*
X153044000Y-122689904D01*
X153091619Y-122642285D01*
X153186857Y-122594666D01*
X153329714Y-122594666D01*
X153424952Y-122642285D01*
X153472571Y-122689904D01*
X153520190Y-122785142D01*
X153520190Y-123166095D01*
X153091619Y-122213714D02*
X153044000Y-122166095D01*
X152996380Y-122070857D01*
X152996380Y-121832761D01*
X153044000Y-121737523D01*
X153091619Y-121689904D01*
X153186857Y-121642285D01*
X153282095Y-121642285D01*
X153424952Y-121689904D01*
X153996380Y-122261333D01*
X153996380Y-121642285D01*
%TO.C,R3*%
X126817380Y-129676666D02*
X126341190Y-130010000D01*
X126817380Y-130248095D02*
X125817380Y-130248095D01*
X125817380Y-129867142D01*
X125865000Y-129771904D01*
X125912619Y-129724285D01*
X126007857Y-129676666D01*
X126150714Y-129676666D01*
X126245952Y-129724285D01*
X126293571Y-129771904D01*
X126341190Y-129867142D01*
X126341190Y-130248095D01*
X125817380Y-129343333D02*
X125817380Y-128724285D01*
X126198333Y-129057619D01*
X126198333Y-128914761D01*
X126245952Y-128819523D01*
X126293571Y-128771904D01*
X126388809Y-128724285D01*
X126626904Y-128724285D01*
X126722142Y-128771904D01*
X126769761Y-128819523D01*
X126817380Y-128914761D01*
X126817380Y-129200476D01*
X126769761Y-129295714D01*
X126722142Y-129343333D01*
%TO.C,R4*%
X142946380Y-129676666D02*
X142470190Y-130010000D01*
X142946380Y-130248095D02*
X141946380Y-130248095D01*
X141946380Y-129867142D01*
X141994000Y-129771904D01*
X142041619Y-129724285D01*
X142136857Y-129676666D01*
X142279714Y-129676666D01*
X142374952Y-129724285D01*
X142422571Y-129771904D01*
X142470190Y-129867142D01*
X142470190Y-130248095D01*
X142279714Y-128819523D02*
X142946380Y-128819523D01*
X141898761Y-129057619D02*
X142613047Y-129295714D01*
X142613047Y-128676666D01*
%TO.C,R5*%
X69159380Y-117260666D02*
X68683190Y-117594000D01*
X69159380Y-117832095D02*
X68159380Y-117832095D01*
X68159380Y-117451142D01*
X68207000Y-117355904D01*
X68254619Y-117308285D01*
X68349857Y-117260666D01*
X68492714Y-117260666D01*
X68587952Y-117308285D01*
X68635571Y-117355904D01*
X68683190Y-117451142D01*
X68683190Y-117832095D01*
X68159380Y-116355904D02*
X68159380Y-116832095D01*
X68635571Y-116879714D01*
X68587952Y-116832095D01*
X68540333Y-116736857D01*
X68540333Y-116498761D01*
X68587952Y-116403523D01*
X68635571Y-116355904D01*
X68730809Y-116308285D01*
X68968904Y-116308285D01*
X69064142Y-116355904D01*
X69111761Y-116403523D01*
X69159380Y-116498761D01*
X69159380Y-116736857D01*
X69111761Y-116832095D01*
X69064142Y-116879714D01*
%TO.C,R6*%
X69159380Y-111572998D02*
X68683190Y-111906332D01*
X69159380Y-112144427D02*
X68159380Y-112144427D01*
X68159380Y-111763474D01*
X68207000Y-111668236D01*
X68254619Y-111620617D01*
X68349857Y-111572998D01*
X68492714Y-111572998D01*
X68587952Y-111620617D01*
X68635571Y-111668236D01*
X68683190Y-111763474D01*
X68683190Y-112144427D01*
X68159380Y-110715855D02*
X68159380Y-110906332D01*
X68207000Y-111001570D01*
X68254619Y-111049189D01*
X68397476Y-111144427D01*
X68587952Y-111192046D01*
X68968904Y-111192046D01*
X69064142Y-111144427D01*
X69111761Y-111096808D01*
X69159380Y-111001570D01*
X69159380Y-110811093D01*
X69111761Y-110715855D01*
X69064142Y-110668236D01*
X68968904Y-110620617D01*
X68730809Y-110620617D01*
X68635571Y-110668236D01*
X68587952Y-110715855D01*
X68540333Y-110811093D01*
X68540333Y-111001570D01*
X68587952Y-111096808D01*
X68635571Y-111144427D01*
X68730809Y-111192046D01*
%TO.C,R7*%
X69159380Y-105885332D02*
X68683190Y-106218666D01*
X69159380Y-106456761D02*
X68159380Y-106456761D01*
X68159380Y-106075808D01*
X68207000Y-105980570D01*
X68254619Y-105932951D01*
X68349857Y-105885332D01*
X68492714Y-105885332D01*
X68587952Y-105932951D01*
X68635571Y-105980570D01*
X68683190Y-106075808D01*
X68683190Y-106456761D01*
X68159380Y-105551999D02*
X68159380Y-104885332D01*
X69159380Y-105313904D01*
%TO.C,R8*%
X69159380Y-100197666D02*
X68683190Y-100531000D01*
X69159380Y-100769095D02*
X68159380Y-100769095D01*
X68159380Y-100388142D01*
X68207000Y-100292904D01*
X68254619Y-100245285D01*
X68349857Y-100197666D01*
X68492714Y-100197666D01*
X68587952Y-100245285D01*
X68635571Y-100292904D01*
X68683190Y-100388142D01*
X68683190Y-100769095D01*
X68587952Y-99626238D02*
X68540333Y-99721476D01*
X68492714Y-99769095D01*
X68397476Y-99816714D01*
X68349857Y-99816714D01*
X68254619Y-99769095D01*
X68207000Y-99721476D01*
X68159380Y-99626238D01*
X68159380Y-99435761D01*
X68207000Y-99340523D01*
X68254619Y-99292904D01*
X68349857Y-99245285D01*
X68397476Y-99245285D01*
X68492714Y-99292904D01*
X68540333Y-99340523D01*
X68587952Y-99435761D01*
X68587952Y-99626238D01*
X68635571Y-99721476D01*
X68683190Y-99769095D01*
X68778428Y-99816714D01*
X68968904Y-99816714D01*
X69064142Y-99769095D01*
X69111761Y-99721476D01*
X69159380Y-99626238D01*
X69159380Y-99435761D01*
X69111761Y-99340523D01*
X69064142Y-99292904D01*
X68968904Y-99245285D01*
X68778428Y-99245285D01*
X68683190Y-99292904D01*
X68635571Y-99340523D01*
X68587952Y-99435761D01*
%TO.C,FB1*%
X145851571Y-130373333D02*
X145851571Y-130706666D01*
X146375380Y-130706666D02*
X145375380Y-130706666D01*
X145375380Y-130230476D01*
X145851571Y-129516190D02*
X145899190Y-129373333D01*
X145946809Y-129325714D01*
X146042047Y-129278095D01*
X146184904Y-129278095D01*
X146280142Y-129325714D01*
X146327761Y-129373333D01*
X146375380Y-129468571D01*
X146375380Y-129849523D01*
X145375380Y-129849523D01*
X145375380Y-129516190D01*
X145423000Y-129420952D01*
X145470619Y-129373333D01*
X145565857Y-129325714D01*
X145661095Y-129325714D01*
X145756333Y-129373333D01*
X145803952Y-129420952D01*
X145851571Y-129516190D01*
X145851571Y-129849523D01*
X146375380Y-128325714D02*
X146375380Y-128897142D01*
X146375380Y-128611428D02*
X145375380Y-128611428D01*
X145518238Y-128706666D01*
X145613476Y-128801904D01*
X145661095Y-128897142D01*
%TO.C,FB2*%
X113339571Y-130373333D02*
X113339571Y-130706666D01*
X113863380Y-130706666D02*
X112863380Y-130706666D01*
X112863380Y-130230476D01*
X113339571Y-129516190D02*
X113387190Y-129373333D01*
X113434809Y-129325714D01*
X113530047Y-129278095D01*
X113672904Y-129278095D01*
X113768142Y-129325714D01*
X113815761Y-129373333D01*
X113863380Y-129468571D01*
X113863380Y-129849523D01*
X112863380Y-129849523D01*
X112863380Y-129516190D01*
X112911000Y-129420952D01*
X112958619Y-129373333D01*
X113053857Y-129325714D01*
X113149095Y-129325714D01*
X113244333Y-129373333D01*
X113291952Y-129420952D01*
X113339571Y-129516190D01*
X113339571Y-129849523D01*
X112958619Y-128897142D02*
X112911000Y-128849523D01*
X112863380Y-128754285D01*
X112863380Y-128516190D01*
X112911000Y-128420952D01*
X112958619Y-128373333D01*
X113053857Y-128325714D01*
X113149095Y-128325714D01*
X113291952Y-128373333D01*
X113863380Y-128944761D01*
X113863380Y-128325714D01*
%TO.C,FB3*%
X171886571Y-130754333D02*
X171886571Y-131087666D01*
X172410380Y-131087666D02*
X171410380Y-131087666D01*
X171410380Y-130611476D01*
X171886571Y-129897190D02*
X171934190Y-129754333D01*
X171981809Y-129706714D01*
X172077047Y-129659095D01*
X172219904Y-129659095D01*
X172315142Y-129706714D01*
X172362761Y-129754333D01*
X172410380Y-129849571D01*
X172410380Y-130230523D01*
X171410380Y-130230523D01*
X171410380Y-129897190D01*
X171458000Y-129801952D01*
X171505619Y-129754333D01*
X171600857Y-129706714D01*
X171696095Y-129706714D01*
X171791333Y-129754333D01*
X171838952Y-129801952D01*
X171886571Y-129897190D01*
X171886571Y-130230523D01*
X171410380Y-129325761D02*
X171410380Y-128706714D01*
X171791333Y-129040047D01*
X171791333Y-128897190D01*
X171838952Y-128801952D01*
X171886571Y-128754333D01*
X171981809Y-128706714D01*
X172219904Y-128706714D01*
X172315142Y-128754333D01*
X172362761Y-128801952D01*
X172410380Y-128897190D01*
X172410380Y-129182904D01*
X172362761Y-129278142D01*
X172315142Y-129325761D01*
%TO.C,FB4*%
X158776571Y-130627333D02*
X158776571Y-130960666D01*
X159300380Y-130960666D02*
X158300380Y-130960666D01*
X158300380Y-130484476D01*
X158776571Y-129770190D02*
X158824190Y-129627333D01*
X158871809Y-129579714D01*
X158967047Y-129532095D01*
X159109904Y-129532095D01*
X159205142Y-129579714D01*
X159252761Y-129627333D01*
X159300380Y-129722571D01*
X159300380Y-130103523D01*
X158300380Y-130103523D01*
X158300380Y-129770190D01*
X158348000Y-129674952D01*
X158395619Y-129627333D01*
X158490857Y-129579714D01*
X158586095Y-129579714D01*
X158681333Y-129627333D01*
X158728952Y-129674952D01*
X158776571Y-129770190D01*
X158776571Y-130103523D01*
X158633714Y-128674952D02*
X159300380Y-128674952D01*
X158252761Y-128913047D02*
X158967047Y-129151142D01*
X158967047Y-128532095D01*
%TO.C,FB5*%
X135945571Y-130373333D02*
X135945571Y-130706666D01*
X136469380Y-130706666D02*
X135469380Y-130706666D01*
X135469380Y-130230476D01*
X135945571Y-129516190D02*
X135993190Y-129373333D01*
X136040809Y-129325714D01*
X136136047Y-129278095D01*
X136278904Y-129278095D01*
X136374142Y-129325714D01*
X136421761Y-129373333D01*
X136469380Y-129468571D01*
X136469380Y-129849523D01*
X135469380Y-129849523D01*
X135469380Y-129516190D01*
X135517000Y-129420952D01*
X135564619Y-129373333D01*
X135659857Y-129325714D01*
X135755095Y-129325714D01*
X135850333Y-129373333D01*
X135897952Y-129420952D01*
X135945571Y-129516190D01*
X135945571Y-129849523D01*
X135469380Y-128373333D02*
X135469380Y-128849523D01*
X135945571Y-128897142D01*
X135897952Y-128849523D01*
X135850333Y-128754285D01*
X135850333Y-128516190D01*
X135897952Y-128420952D01*
X135945571Y-128373333D01*
X136040809Y-128325714D01*
X136278904Y-128325714D01*
X136374142Y-128373333D01*
X136421761Y-128420952D01*
X136469380Y-128516190D01*
X136469380Y-128754285D01*
X136421761Y-128849523D01*
X136374142Y-128897142D01*
%TO.C,FB6*%
X122991571Y-130246333D02*
X122991571Y-130579666D01*
X123515380Y-130579666D02*
X122515380Y-130579666D01*
X122515380Y-130103476D01*
X122991571Y-129389190D02*
X123039190Y-129246333D01*
X123086809Y-129198714D01*
X123182047Y-129151095D01*
X123324904Y-129151095D01*
X123420142Y-129198714D01*
X123467761Y-129246333D01*
X123515380Y-129341571D01*
X123515380Y-129722523D01*
X122515380Y-129722523D01*
X122515380Y-129389190D01*
X122563000Y-129293952D01*
X122610619Y-129246333D01*
X122705857Y-129198714D01*
X122801095Y-129198714D01*
X122896333Y-129246333D01*
X122943952Y-129293952D01*
X122991571Y-129389190D01*
X122991571Y-129722523D01*
X122515380Y-128293952D02*
X122515380Y-128484428D01*
X122563000Y-128579666D01*
X122610619Y-128627285D01*
X122753476Y-128722523D01*
X122943952Y-128770142D01*
X123324904Y-128770142D01*
X123420142Y-128722523D01*
X123467761Y-128674904D01*
X123515380Y-128579666D01*
X123515380Y-128389190D01*
X123467761Y-128293952D01*
X123420142Y-128246333D01*
X123324904Y-128198714D01*
X123086809Y-128198714D01*
X122991571Y-128246333D01*
X122943952Y-128293952D01*
X122896333Y-128389190D01*
X122896333Y-128579666D01*
X122943952Y-128674904D01*
X122991571Y-128722523D01*
X123086809Y-128770142D01*
%TO.C,R9*%
X110688380Y-129676666D02*
X110212190Y-130010000D01*
X110688380Y-130248095D02*
X109688380Y-130248095D01*
X109688380Y-129867142D01*
X109736000Y-129771904D01*
X109783619Y-129724285D01*
X109878857Y-129676666D01*
X110021714Y-129676666D01*
X110116952Y-129724285D01*
X110164571Y-129771904D01*
X110212190Y-129867142D01*
X110212190Y-130248095D01*
X110688380Y-129200476D02*
X110688380Y-129010000D01*
X110640761Y-128914761D01*
X110593142Y-128867142D01*
X110450285Y-128771904D01*
X110259809Y-128724285D01*
X109878857Y-128724285D01*
X109783619Y-128771904D01*
X109736000Y-128819523D01*
X109688380Y-128914761D01*
X109688380Y-129105238D01*
X109736000Y-129200476D01*
X109783619Y-129248095D01*
X109878857Y-129295714D01*
X110116952Y-129295714D01*
X110212190Y-129248095D01*
X110259809Y-129200476D01*
X110307428Y-129105238D01*
X110307428Y-128914761D01*
X110259809Y-128819523D01*
X110212190Y-128771904D01*
X110116952Y-128724285D01*
%TO.C,R10*%
X132660380Y-130152857D02*
X132184190Y-130486190D01*
X132660380Y-130724285D02*
X131660380Y-130724285D01*
X131660380Y-130343333D01*
X131708000Y-130248095D01*
X131755619Y-130200476D01*
X131850857Y-130152857D01*
X131993714Y-130152857D01*
X132088952Y-130200476D01*
X132136571Y-130248095D01*
X132184190Y-130343333D01*
X132184190Y-130724285D01*
X132660380Y-129200476D02*
X132660380Y-129771904D01*
X132660380Y-129486190D02*
X131660380Y-129486190D01*
X131803238Y-129581428D01*
X131898476Y-129676666D01*
X131946095Y-129771904D01*
X131660380Y-128581428D02*
X131660380Y-128486190D01*
X131708000Y-128390952D01*
X131755619Y-128343333D01*
X131850857Y-128295714D01*
X132041333Y-128248095D01*
X132279428Y-128248095D01*
X132469904Y-128295714D01*
X132565142Y-128343333D01*
X132612761Y-128390952D01*
X132660380Y-128486190D01*
X132660380Y-128581428D01*
X132612761Y-128676666D01*
X132565142Y-128724285D01*
X132469904Y-128771904D01*
X132279428Y-128819523D01*
X132041333Y-128819523D01*
X131850857Y-128771904D01*
X131755619Y-128724285D01*
X131708000Y-128676666D01*
X131660380Y-128581428D01*
%TO.C,U5*%
X136304380Y-119125904D02*
X137113904Y-119125904D01*
X137209142Y-119078285D01*
X137256761Y-119030666D01*
X137304380Y-118935428D01*
X137304380Y-118744952D01*
X137256761Y-118649714D01*
X137209142Y-118602095D01*
X137113904Y-118554476D01*
X136304380Y-118554476D01*
X136304380Y-117602095D02*
X136304380Y-118078285D01*
X136780571Y-118125904D01*
X136732952Y-118078285D01*
X136685333Y-117983047D01*
X136685333Y-117744952D01*
X136732952Y-117649714D01*
X136780571Y-117602095D01*
X136875809Y-117554476D01*
X137113904Y-117554476D01*
X137209142Y-117602095D01*
X137256761Y-117649714D01*
X137304380Y-117744952D01*
X137304380Y-117983047D01*
X137256761Y-118078285D01*
X137209142Y-118125904D01*
X125744380Y-121149714D02*
X125744380Y-120483047D01*
X126744380Y-120911619D01*
X126077714Y-119673523D02*
X126744380Y-119673523D01*
X125696761Y-119911619D02*
X126411047Y-120149714D01*
X126411047Y-119530666D01*
X126744380Y-119149714D02*
X125744380Y-119149714D01*
X126220571Y-119149714D02*
X126220571Y-118578285D01*
X126744380Y-118578285D02*
X125744380Y-118578285D01*
X126649142Y-117530666D02*
X126696761Y-117578285D01*
X126744380Y-117721142D01*
X126744380Y-117816380D01*
X126696761Y-117959238D01*
X126601523Y-118054476D01*
X126506285Y-118102095D01*
X126315809Y-118149714D01*
X126172952Y-118149714D01*
X125982476Y-118102095D01*
X125887238Y-118054476D01*
X125792000Y-117959238D01*
X125744380Y-117816380D01*
X125744380Y-117721142D01*
X125792000Y-117578285D01*
X125839619Y-117530666D01*
X126744380Y-116578285D02*
X126744380Y-117149714D01*
X126744380Y-116864000D02*
X125744380Y-116864000D01*
X125887238Y-116959238D01*
X125982476Y-117054476D01*
X126030095Y-117149714D01*
X126077714Y-115721142D02*
X126744380Y-115721142D01*
X125696761Y-115959238D02*
X126411047Y-116197333D01*
X126411047Y-115578285D01*
%TO.C,U1*%
X164846095Y-125226380D02*
X164846095Y-126035904D01*
X164893714Y-126131142D01*
X164941333Y-126178761D01*
X165036571Y-126226380D01*
X165227047Y-126226380D01*
X165322285Y-126178761D01*
X165369904Y-126131142D01*
X165417523Y-126035904D01*
X165417523Y-125226380D01*
X166417523Y-126226380D02*
X165846095Y-126226380D01*
X166131809Y-126226380D02*
X166131809Y-125226380D01*
X166036571Y-125369238D01*
X165941333Y-125464476D01*
X165846095Y-125512095D01*
X163488952Y-116486380D02*
X163488952Y-115486380D01*
X163488952Y-115962571D02*
X164060380Y-115962571D01*
X164060380Y-116486380D02*
X164060380Y-115486380D01*
X165060380Y-116486380D02*
X164488952Y-116486380D01*
X164774666Y-116486380D02*
X164774666Y-115486380D01*
X164679428Y-115629238D01*
X164584190Y-115724476D01*
X164488952Y-115772095D01*
X166012761Y-116486380D02*
X165441333Y-116486380D01*
X165727047Y-116486380D02*
X165727047Y-115486380D01*
X165631809Y-115629238D01*
X165536571Y-115724476D01*
X165441333Y-115772095D01*
X166917523Y-116486380D02*
X166441333Y-116486380D01*
X166441333Y-115486380D01*
X167774666Y-116486380D02*
X167203238Y-116486380D01*
X167488952Y-116486380D02*
X167488952Y-115486380D01*
X167393714Y-115629238D01*
X167298476Y-115724476D01*
X167203238Y-115772095D01*
%TO.C,C2*%
X242448142Y-120455666D02*
X242495761Y-120503285D01*
X242543380Y-120646142D01*
X242543380Y-120741380D01*
X242495761Y-120884238D01*
X242400523Y-120979476D01*
X242305285Y-121027095D01*
X242114809Y-121074714D01*
X241971952Y-121074714D01*
X241781476Y-121027095D01*
X241686238Y-120979476D01*
X241591000Y-120884238D01*
X241543380Y-120741380D01*
X241543380Y-120646142D01*
X241591000Y-120503285D01*
X241638619Y-120455666D01*
X241638619Y-120074714D02*
X241591000Y-120027095D01*
X241543380Y-119931857D01*
X241543380Y-119693761D01*
X241591000Y-119598523D01*
X241638619Y-119550904D01*
X241733857Y-119503285D01*
X241829095Y-119503285D01*
X241971952Y-119550904D01*
X242543380Y-120122333D01*
X242543380Y-119503285D01*
%TO.C,C3*%
X227208142Y-120435666D02*
X227255761Y-120483285D01*
X227303380Y-120626142D01*
X227303380Y-120721380D01*
X227255761Y-120864238D01*
X227160523Y-120959476D01*
X227065285Y-121007095D01*
X226874809Y-121054714D01*
X226731952Y-121054714D01*
X226541476Y-121007095D01*
X226446238Y-120959476D01*
X226351000Y-120864238D01*
X226303380Y-120721380D01*
X226303380Y-120626142D01*
X226351000Y-120483285D01*
X226398619Y-120435666D01*
X226303380Y-120102333D02*
X226303380Y-119483285D01*
X226684333Y-119816619D01*
X226684333Y-119673761D01*
X226731952Y-119578523D01*
X226779571Y-119530904D01*
X226874809Y-119483285D01*
X227112904Y-119483285D01*
X227208142Y-119530904D01*
X227255761Y-119578523D01*
X227303380Y-119673761D01*
X227303380Y-119959476D01*
X227255761Y-120054714D01*
X227208142Y-120102333D01*
%TO.C,C6*%
X107701142Y-116274666D02*
X107748761Y-116322285D01*
X107796380Y-116465142D01*
X107796380Y-116560380D01*
X107748761Y-116703238D01*
X107653523Y-116798476D01*
X107558285Y-116846095D01*
X107367809Y-116893714D01*
X107224952Y-116893714D01*
X107034476Y-116846095D01*
X106939238Y-116798476D01*
X106844000Y-116703238D01*
X106796380Y-116560380D01*
X106796380Y-116465142D01*
X106844000Y-116322285D01*
X106891619Y-116274666D01*
X106796380Y-115417523D02*
X106796380Y-115608000D01*
X106844000Y-115703238D01*
X106891619Y-115750857D01*
X107034476Y-115846095D01*
X107224952Y-115893714D01*
X107605904Y-115893714D01*
X107701142Y-115846095D01*
X107748761Y-115798476D01*
X107796380Y-115703238D01*
X107796380Y-115512761D01*
X107748761Y-115417523D01*
X107701142Y-115369904D01*
X107605904Y-115322285D01*
X107367809Y-115322285D01*
X107272571Y-115369904D01*
X107224952Y-115417523D01*
X107177333Y-115512761D01*
X107177333Y-115703238D01*
X107224952Y-115798476D01*
X107272571Y-115846095D01*
X107367809Y-115893714D01*
%TO.C,C7*%
X93223142Y-116274666D02*
X93270761Y-116322285D01*
X93318380Y-116465142D01*
X93318380Y-116560380D01*
X93270761Y-116703238D01*
X93175523Y-116798476D01*
X93080285Y-116846095D01*
X92889809Y-116893714D01*
X92746952Y-116893714D01*
X92556476Y-116846095D01*
X92461238Y-116798476D01*
X92366000Y-116703238D01*
X92318380Y-116560380D01*
X92318380Y-116465142D01*
X92366000Y-116322285D01*
X92413619Y-116274666D01*
X92318380Y-115941333D02*
X92318380Y-115274666D01*
X93318380Y-115703238D01*
%TO.C,D6*%
X232826380Y-132310095D02*
X231826380Y-132310095D01*
X231826380Y-132072000D01*
X231874000Y-131929142D01*
X231969238Y-131833904D01*
X232064476Y-131786285D01*
X232254952Y-131738666D01*
X232397809Y-131738666D01*
X232588285Y-131786285D01*
X232683523Y-131833904D01*
X232778761Y-131929142D01*
X232826380Y-132072000D01*
X232826380Y-132310095D01*
X231826380Y-130881523D02*
X231826380Y-131072000D01*
X231874000Y-131167238D01*
X231921619Y-131214857D01*
X232064476Y-131310095D01*
X232254952Y-131357714D01*
X232635904Y-131357714D01*
X232731142Y-131310095D01*
X232778761Y-131262476D01*
X232826380Y-131167238D01*
X232826380Y-130976761D01*
X232778761Y-130881523D01*
X232731142Y-130833904D01*
X232635904Y-130786285D01*
X232397809Y-130786285D01*
X232302571Y-130833904D01*
X232254952Y-130881523D01*
X232207333Y-130976761D01*
X232207333Y-131167238D01*
X232254952Y-131262476D01*
X232302571Y-131310095D01*
X232397809Y-131357714D01*
X228326380Y-133714857D02*
X228326380Y-134286285D01*
X228326380Y-134000571D02*
X227326380Y-134000571D01*
X227469238Y-134095809D01*
X227564476Y-134191047D01*
X227612095Y-134286285D01*
X228326380Y-133286285D02*
X227326380Y-133286285D01*
X228326380Y-132714857D01*
X227326380Y-132714857D01*
X227659714Y-131810095D02*
X228326380Y-131810095D01*
X227278761Y-132048190D02*
X227993047Y-132286285D01*
X227993047Y-131667238D01*
X227326380Y-131095809D02*
X227326380Y-131000571D01*
X227374000Y-130905333D01*
X227421619Y-130857714D01*
X227516857Y-130810095D01*
X227707333Y-130762476D01*
X227945428Y-130762476D01*
X228135904Y-130810095D01*
X228231142Y-130857714D01*
X228278761Y-130905333D01*
X228326380Y-131000571D01*
X228326380Y-131095809D01*
X228278761Y-131191047D01*
X228231142Y-131238666D01*
X228135904Y-131286285D01*
X227945428Y-131333904D01*
X227707333Y-131333904D01*
X227516857Y-131286285D01*
X227421619Y-131238666D01*
X227374000Y-131191047D01*
X227326380Y-131095809D01*
X227326380Y-130143428D02*
X227326380Y-130048190D01*
X227374000Y-129952952D01*
X227421619Y-129905333D01*
X227516857Y-129857714D01*
X227707333Y-129810095D01*
X227945428Y-129810095D01*
X228135904Y-129857714D01*
X228231142Y-129905333D01*
X228278761Y-129952952D01*
X228326380Y-130048190D01*
X228326380Y-130143428D01*
X228278761Y-130238666D01*
X228231142Y-130286285D01*
X228135904Y-130333904D01*
X227945428Y-130381523D01*
X227707333Y-130381523D01*
X227516857Y-130333904D01*
X227421619Y-130286285D01*
X227374000Y-130238666D01*
X227326380Y-130143428D01*
X227326380Y-129476761D02*
X227326380Y-128810095D01*
X228326380Y-129238666D01*
%TO.C,J6*%
X230298666Y-143470380D02*
X230298666Y-144184666D01*
X230251047Y-144327523D01*
X230155809Y-144422761D01*
X230012952Y-144470380D01*
X229917714Y-144470380D01*
X231203428Y-143470380D02*
X231012952Y-143470380D01*
X230917714Y-143518000D01*
X230870095Y-143565619D01*
X230774857Y-143708476D01*
X230727238Y-143898952D01*
X230727238Y-144279904D01*
X230774857Y-144375142D01*
X230822476Y-144422761D01*
X230917714Y-144470380D01*
X231108190Y-144470380D01*
X231203428Y-144422761D01*
X231251047Y-144375142D01*
X231298666Y-144279904D01*
X231298666Y-144041809D01*
X231251047Y-143946571D01*
X231203428Y-143898952D01*
X231108190Y-143851333D01*
X230917714Y-143851333D01*
X230822476Y-143898952D01*
X230774857Y-143946571D01*
X230727238Y-144041809D01*
%TO.C,J7*%
X212177380Y-88471333D02*
X212891666Y-88471333D01*
X213034523Y-88518952D01*
X213129761Y-88614190D01*
X213177380Y-88757047D01*
X213177380Y-88852285D01*
X212177380Y-88090380D02*
X212177380Y-87423714D01*
X213177380Y-87852285D01*
%TO.C,R11*%
X107766380Y-121546857D02*
X107290190Y-121880190D01*
X107766380Y-122118285D02*
X106766380Y-122118285D01*
X106766380Y-121737333D01*
X106814000Y-121642095D01*
X106861619Y-121594476D01*
X106956857Y-121546857D01*
X107099714Y-121546857D01*
X107194952Y-121594476D01*
X107242571Y-121642095D01*
X107290190Y-121737333D01*
X107290190Y-122118285D01*
X107766380Y-120594476D02*
X107766380Y-121165904D01*
X107766380Y-120880190D02*
X106766380Y-120880190D01*
X106909238Y-120975428D01*
X107004476Y-121070666D01*
X107052095Y-121165904D01*
X107766380Y-119642095D02*
X107766380Y-120213523D01*
X107766380Y-119927809D02*
X106766380Y-119927809D01*
X106909238Y-120023047D01*
X107004476Y-120118285D01*
X107052095Y-120213523D01*
%TO.C,R12*%
X88462380Y-121546857D02*
X87986190Y-121880190D01*
X88462380Y-122118285D02*
X87462380Y-122118285D01*
X87462380Y-121737333D01*
X87510000Y-121642095D01*
X87557619Y-121594476D01*
X87652857Y-121546857D01*
X87795714Y-121546857D01*
X87890952Y-121594476D01*
X87938571Y-121642095D01*
X87986190Y-121737333D01*
X87986190Y-122118285D01*
X88462380Y-120594476D02*
X88462380Y-121165904D01*
X88462380Y-120880190D02*
X87462380Y-120880190D01*
X87605238Y-120975428D01*
X87700476Y-121070666D01*
X87748095Y-121165904D01*
X87557619Y-120213523D02*
X87510000Y-120165904D01*
X87462380Y-120070666D01*
X87462380Y-119832571D01*
X87510000Y-119737333D01*
X87557619Y-119689714D01*
X87652857Y-119642095D01*
X87748095Y-119642095D01*
X87890952Y-119689714D01*
X88462380Y-120261142D01*
X88462380Y-119642095D01*
%TO.C,R13*%
X102940380Y-121546857D02*
X102464190Y-121880190D01*
X102940380Y-122118285D02*
X101940380Y-122118285D01*
X101940380Y-121737333D01*
X101988000Y-121642095D01*
X102035619Y-121594476D01*
X102130857Y-121546857D01*
X102273714Y-121546857D01*
X102368952Y-121594476D01*
X102416571Y-121642095D01*
X102464190Y-121737333D01*
X102464190Y-122118285D01*
X102940380Y-120594476D02*
X102940380Y-121165904D01*
X102940380Y-120880190D02*
X101940380Y-120880190D01*
X102083238Y-120975428D01*
X102178476Y-121070666D01*
X102226095Y-121165904D01*
X101940380Y-120261142D02*
X101940380Y-119642095D01*
X102321333Y-119975428D01*
X102321333Y-119832571D01*
X102368952Y-119737333D01*
X102416571Y-119689714D01*
X102511809Y-119642095D01*
X102749904Y-119642095D01*
X102845142Y-119689714D01*
X102892761Y-119737333D01*
X102940380Y-119832571D01*
X102940380Y-120118285D01*
X102892761Y-120213523D01*
X102845142Y-120261142D01*
%TO.C,R14*%
X93258380Y-121546857D02*
X92782190Y-121880190D01*
X93258380Y-122118285D02*
X92258380Y-122118285D01*
X92258380Y-121737333D01*
X92306000Y-121642095D01*
X92353619Y-121594476D01*
X92448857Y-121546857D01*
X92591714Y-121546857D01*
X92686952Y-121594476D01*
X92734571Y-121642095D01*
X92782190Y-121737333D01*
X92782190Y-122118285D01*
X93258380Y-120594476D02*
X93258380Y-121165904D01*
X93258380Y-120880190D02*
X92258380Y-120880190D01*
X92401238Y-120975428D01*
X92496476Y-121070666D01*
X92544095Y-121165904D01*
X92591714Y-119737333D02*
X93258380Y-119737333D01*
X92210761Y-119975428D02*
X92925047Y-120213523D01*
X92925047Y-119594476D01*
%TO.C,R15*%
X102940380Y-116720857D02*
X102464190Y-117054190D01*
X102940380Y-117292285D02*
X101940380Y-117292285D01*
X101940380Y-116911333D01*
X101988000Y-116816095D01*
X102035619Y-116768476D01*
X102130857Y-116720857D01*
X102273714Y-116720857D01*
X102368952Y-116768476D01*
X102416571Y-116816095D01*
X102464190Y-116911333D01*
X102464190Y-117292285D01*
X102940380Y-115768476D02*
X102940380Y-116339904D01*
X102940380Y-116054190D02*
X101940380Y-116054190D01*
X102083238Y-116149428D01*
X102178476Y-116244666D01*
X102226095Y-116339904D01*
X101940380Y-114863714D02*
X101940380Y-115339904D01*
X102416571Y-115387523D01*
X102368952Y-115339904D01*
X102321333Y-115244666D01*
X102321333Y-115006571D01*
X102368952Y-114911333D01*
X102416571Y-114863714D01*
X102511809Y-114816095D01*
X102749904Y-114816095D01*
X102845142Y-114863714D01*
X102892761Y-114911333D01*
X102940380Y-115006571D01*
X102940380Y-115244666D01*
X102892761Y-115339904D01*
X102845142Y-115387523D01*
%TO.C,R16*%
X88462380Y-116720857D02*
X87986190Y-117054190D01*
X88462380Y-117292285D02*
X87462380Y-117292285D01*
X87462380Y-116911333D01*
X87510000Y-116816095D01*
X87557619Y-116768476D01*
X87652857Y-116720857D01*
X87795714Y-116720857D01*
X87890952Y-116768476D01*
X87938571Y-116816095D01*
X87986190Y-116911333D01*
X87986190Y-117292285D01*
X88462380Y-115768476D02*
X88462380Y-116339904D01*
X88462380Y-116054190D02*
X87462380Y-116054190D01*
X87605238Y-116149428D01*
X87700476Y-116244666D01*
X87748095Y-116339904D01*
X87462380Y-114911333D02*
X87462380Y-115101809D01*
X87510000Y-115197047D01*
X87557619Y-115244666D01*
X87700476Y-115339904D01*
X87890952Y-115387523D01*
X88271904Y-115387523D01*
X88367142Y-115339904D01*
X88414761Y-115292285D01*
X88462380Y-115197047D01*
X88462380Y-115006571D01*
X88414761Y-114911333D01*
X88367142Y-114863714D01*
X88271904Y-114816095D01*
X88033809Y-114816095D01*
X87938571Y-114863714D01*
X87890952Y-114911333D01*
X87843333Y-115006571D01*
X87843333Y-115197047D01*
X87890952Y-115292285D01*
X87938571Y-115339904D01*
X88033809Y-115387523D01*
%TO.C,R17*%
X107894380Y-111894857D02*
X107418190Y-112228190D01*
X107894380Y-112466285D02*
X106894380Y-112466285D01*
X106894380Y-112085333D01*
X106942000Y-111990095D01*
X106989619Y-111942476D01*
X107084857Y-111894857D01*
X107227714Y-111894857D01*
X107322952Y-111942476D01*
X107370571Y-111990095D01*
X107418190Y-112085333D01*
X107418190Y-112466285D01*
X107894380Y-110942476D02*
X107894380Y-111513904D01*
X107894380Y-111228190D02*
X106894380Y-111228190D01*
X107037238Y-111323428D01*
X107132476Y-111418666D01*
X107180095Y-111513904D01*
X106894380Y-110609142D02*
X106894380Y-109942476D01*
X107894380Y-110371047D01*
%TO.C,R18*%
X93386380Y-111894857D02*
X92910190Y-112228190D01*
X93386380Y-112466285D02*
X92386380Y-112466285D01*
X92386380Y-112085333D01*
X92434000Y-111990095D01*
X92481619Y-111942476D01*
X92576857Y-111894857D01*
X92719714Y-111894857D01*
X92814952Y-111942476D01*
X92862571Y-111990095D01*
X92910190Y-112085333D01*
X92910190Y-112466285D01*
X93386380Y-110942476D02*
X93386380Y-111513904D01*
X93386380Y-111228190D02*
X92386380Y-111228190D01*
X92529238Y-111323428D01*
X92624476Y-111418666D01*
X92672095Y-111513904D01*
X92814952Y-110371047D02*
X92767333Y-110466285D01*
X92719714Y-110513904D01*
X92624476Y-110561523D01*
X92576857Y-110561523D01*
X92481619Y-110513904D01*
X92434000Y-110466285D01*
X92386380Y-110371047D01*
X92386380Y-110180571D01*
X92434000Y-110085333D01*
X92481619Y-110037714D01*
X92576857Y-109990095D01*
X92624476Y-109990095D01*
X92719714Y-110037714D01*
X92767333Y-110085333D01*
X92814952Y-110180571D01*
X92814952Y-110371047D01*
X92862571Y-110466285D01*
X92910190Y-110513904D01*
X93005428Y-110561523D01*
X93195904Y-110561523D01*
X93291142Y-110513904D01*
X93338761Y-110466285D01*
X93386380Y-110371047D01*
X93386380Y-110180571D01*
X93338761Y-110085333D01*
X93291142Y-110037714D01*
X93195904Y-109990095D01*
X93005428Y-109990095D01*
X92910190Y-110037714D01*
X92862571Y-110085333D01*
X92814952Y-110180571D01*
%TO.C,U6*%
X219329095Y-119848380D02*
X219329095Y-120657904D01*
X219376714Y-120753142D01*
X219424333Y-120800761D01*
X219519571Y-120848380D01*
X219710047Y-120848380D01*
X219805285Y-120800761D01*
X219852904Y-120753142D01*
X219900523Y-120657904D01*
X219900523Y-119848380D01*
X220805285Y-119848380D02*
X220614809Y-119848380D01*
X220519571Y-119896000D01*
X220471952Y-119943619D01*
X220376714Y-120086476D01*
X220329095Y-120276952D01*
X220329095Y-120657904D01*
X220376714Y-120753142D01*
X220424333Y-120800761D01*
X220519571Y-120848380D01*
X220710047Y-120848380D01*
X220805285Y-120800761D01*
X220852904Y-120753142D01*
X220900523Y-120657904D01*
X220900523Y-120419809D01*
X220852904Y-120324571D01*
X220805285Y-120276952D01*
X220710047Y-120229333D01*
X220519571Y-120229333D01*
X220424333Y-120276952D01*
X220376714Y-120324571D01*
X220329095Y-120419809D01*
X216495809Y-115641380D02*
X216019619Y-115641380D01*
X216019619Y-114641380D01*
X216829142Y-115641380D02*
X216829142Y-114641380D01*
X217162476Y-115355666D01*
X217495809Y-114641380D01*
X217495809Y-115641380D01*
X218495809Y-115641380D02*
X217924380Y-115641380D01*
X218210095Y-115641380D02*
X218210095Y-114641380D01*
X218114857Y-114784238D01*
X218019619Y-114879476D01*
X217924380Y-114927095D01*
X219448190Y-115641380D02*
X218876761Y-115641380D01*
X219162476Y-115641380D02*
X219162476Y-114641380D01*
X219067238Y-114784238D01*
X218972000Y-114879476D01*
X218876761Y-114927095D01*
X220400571Y-115641380D02*
X219829142Y-115641380D01*
X220114857Y-115641380D02*
X220114857Y-114641380D01*
X220019619Y-114784238D01*
X219924380Y-114879476D01*
X219829142Y-114927095D01*
X220733904Y-114641380D02*
X221400571Y-114641380D01*
X220972000Y-115641380D01*
X221781523Y-115260428D02*
X222543428Y-115260428D01*
X223495809Y-114641380D02*
X223019619Y-114641380D01*
X222972000Y-115117571D01*
X223019619Y-115069952D01*
X223114857Y-115022333D01*
X223352952Y-115022333D01*
X223448190Y-115069952D01*
X223495809Y-115117571D01*
X223543428Y-115212809D01*
X223543428Y-115450904D01*
X223495809Y-115546142D01*
X223448190Y-115593761D01*
X223352952Y-115641380D01*
X223114857Y-115641380D01*
X223019619Y-115593761D01*
X222972000Y-115546142D01*
X223972000Y-115546142D02*
X224019619Y-115593761D01*
X223972000Y-115641380D01*
X223924380Y-115593761D01*
X223972000Y-115546142D01*
X223972000Y-115641380D01*
X224638666Y-114641380D02*
X224733904Y-114641380D01*
X224829142Y-114689000D01*
X224876761Y-114736619D01*
X224924380Y-114831857D01*
X224972000Y-115022333D01*
X224972000Y-115260428D01*
X224924380Y-115450904D01*
X224876761Y-115546142D01*
X224829142Y-115593761D01*
X224733904Y-115641380D01*
X224638666Y-115641380D01*
X224543428Y-115593761D01*
X224495809Y-115546142D01*
X224448190Y-115450904D01*
X224400571Y-115260428D01*
X224400571Y-115022333D01*
X224448190Y-114831857D01*
X224495809Y-114736619D01*
X224543428Y-114689000D01*
X224638666Y-114641380D01*
%TO.C,U7*%
X234696095Y-119848380D02*
X234696095Y-120657904D01*
X234743714Y-120753142D01*
X234791333Y-120800761D01*
X234886571Y-120848380D01*
X235077047Y-120848380D01*
X235172285Y-120800761D01*
X235219904Y-120753142D01*
X235267523Y-120657904D01*
X235267523Y-119848380D01*
X235648476Y-119848380D02*
X236315142Y-119848380D01*
X235886571Y-120848380D01*
X231608809Y-115641380D02*
X231132619Y-115641380D01*
X231132619Y-114641380D01*
X231942142Y-115641380D02*
X231942142Y-114641380D01*
X232275476Y-115355666D01*
X232608809Y-114641380D01*
X232608809Y-115641380D01*
X233608809Y-115641380D02*
X233037380Y-115641380D01*
X233323095Y-115641380D02*
X233323095Y-114641380D01*
X233227857Y-114784238D01*
X233132619Y-114879476D01*
X233037380Y-114927095D01*
X234561190Y-115641380D02*
X233989761Y-115641380D01*
X234275476Y-115641380D02*
X234275476Y-114641380D01*
X234180238Y-114784238D01*
X234085000Y-114879476D01*
X233989761Y-114927095D01*
X235513571Y-115641380D02*
X234942142Y-115641380D01*
X235227857Y-115641380D02*
X235227857Y-114641380D01*
X235132619Y-114784238D01*
X235037380Y-114879476D01*
X234942142Y-114927095D01*
X235846904Y-114641380D02*
X236513571Y-114641380D01*
X236085000Y-115641380D01*
X236894523Y-115260428D02*
X237656428Y-115260428D01*
X238037380Y-114641380D02*
X238656428Y-114641380D01*
X238323095Y-115022333D01*
X238465952Y-115022333D01*
X238561190Y-115069952D01*
X238608809Y-115117571D01*
X238656428Y-115212809D01*
X238656428Y-115450904D01*
X238608809Y-115546142D01*
X238561190Y-115593761D01*
X238465952Y-115641380D01*
X238180238Y-115641380D01*
X238085000Y-115593761D01*
X238037380Y-115546142D01*
X239085000Y-115546142D02*
X239132619Y-115593761D01*
X239085000Y-115641380D01*
X239037380Y-115593761D01*
X239085000Y-115546142D01*
X239085000Y-115641380D01*
X239465952Y-114641380D02*
X240085000Y-114641380D01*
X239751666Y-115022333D01*
X239894523Y-115022333D01*
X239989761Y-115069952D01*
X240037380Y-115117571D01*
X240085000Y-115212809D01*
X240085000Y-115450904D01*
X240037380Y-115546142D01*
X239989761Y-115593761D01*
X239894523Y-115641380D01*
X239608809Y-115641380D01*
X239513571Y-115593761D01*
X239465952Y-115546142D01*
%TO.C,U8*%
X78740095Y-124374380D02*
X78740095Y-125183904D01*
X78787714Y-125279142D01*
X78835333Y-125326761D01*
X78930571Y-125374380D01*
X79121047Y-125374380D01*
X79216285Y-125326761D01*
X79263904Y-125279142D01*
X79311523Y-125183904D01*
X79311523Y-124374380D01*
X79930571Y-124802952D02*
X79835333Y-124755333D01*
X79787714Y-124707714D01*
X79740095Y-124612476D01*
X79740095Y-124564857D01*
X79787714Y-124469619D01*
X79835333Y-124422000D01*
X79930571Y-124374380D01*
X80121047Y-124374380D01*
X80216285Y-124422000D01*
X80263904Y-124469619D01*
X80311523Y-124564857D01*
X80311523Y-124612476D01*
X80263904Y-124707714D01*
X80216285Y-124755333D01*
X80121047Y-124802952D01*
X79930571Y-124802952D01*
X79835333Y-124850571D01*
X79787714Y-124898190D01*
X79740095Y-124993428D01*
X79740095Y-125183904D01*
X79787714Y-125279142D01*
X79835333Y-125326761D01*
X79930571Y-125374380D01*
X80121047Y-125374380D01*
X80216285Y-125326761D01*
X80263904Y-125279142D01*
X80311523Y-125183904D01*
X80311523Y-124993428D01*
X80263904Y-124898190D01*
X80216285Y-124850571D01*
X80121047Y-124802952D01*
X76263904Y-113274380D02*
X76263904Y-112274380D01*
X76597238Y-112988666D01*
X76930571Y-112274380D01*
X76930571Y-113274380D01*
X77978190Y-113179142D02*
X77930571Y-113226761D01*
X77787714Y-113274380D01*
X77692476Y-113274380D01*
X77549619Y-113226761D01*
X77454380Y-113131523D01*
X77406761Y-113036285D01*
X77359142Y-112845809D01*
X77359142Y-112702952D01*
X77406761Y-112512476D01*
X77454380Y-112417238D01*
X77549619Y-112322000D01*
X77692476Y-112274380D01*
X77787714Y-112274380D01*
X77930571Y-112322000D01*
X77978190Y-112369619D01*
X78406761Y-113274380D02*
X78406761Y-112274380D01*
X78787714Y-112274380D01*
X78882952Y-112322000D01*
X78930571Y-112369619D01*
X78978190Y-112464857D01*
X78978190Y-112607714D01*
X78930571Y-112702952D01*
X78882952Y-112750571D01*
X78787714Y-112798190D01*
X78406761Y-112798190D01*
X79835333Y-112274380D02*
X79644857Y-112274380D01*
X79549619Y-112322000D01*
X79502000Y-112369619D01*
X79406761Y-112512476D01*
X79359142Y-112702952D01*
X79359142Y-113083904D01*
X79406761Y-113179142D01*
X79454380Y-113226761D01*
X79549619Y-113274380D01*
X79740095Y-113274380D01*
X79835333Y-113226761D01*
X79882952Y-113179142D01*
X79930571Y-113083904D01*
X79930571Y-112845809D01*
X79882952Y-112750571D01*
X79835333Y-112702952D01*
X79740095Y-112655333D01*
X79549619Y-112655333D01*
X79454380Y-112702952D01*
X79406761Y-112750571D01*
X79359142Y-112845809D01*
X80549619Y-112274380D02*
X80644857Y-112274380D01*
X80740095Y-112322000D01*
X80787714Y-112369619D01*
X80835333Y-112464857D01*
X80882952Y-112655333D01*
X80882952Y-112893428D01*
X80835333Y-113083904D01*
X80787714Y-113179142D01*
X80740095Y-113226761D01*
X80644857Y-113274380D01*
X80549619Y-113274380D01*
X80454380Y-113226761D01*
X80406761Y-113179142D01*
X80359142Y-113083904D01*
X80311523Y-112893428D01*
X80311523Y-112655333D01*
X80359142Y-112464857D01*
X80406761Y-112369619D01*
X80454380Y-112322000D01*
X80549619Y-112274380D01*
X81502000Y-112274380D02*
X81597238Y-112274380D01*
X81692476Y-112322000D01*
X81740095Y-112369619D01*
X81787714Y-112464857D01*
X81835333Y-112655333D01*
X81835333Y-112893428D01*
X81787714Y-113083904D01*
X81740095Y-113179142D01*
X81692476Y-113226761D01*
X81597238Y-113274380D01*
X81502000Y-113274380D01*
X81406761Y-113226761D01*
X81359142Y-113179142D01*
X81311523Y-113083904D01*
X81263904Y-112893428D01*
X81263904Y-112655333D01*
X81311523Y-112464857D01*
X81359142Y-112369619D01*
X81406761Y-112322000D01*
X81502000Y-112274380D01*
X82692476Y-112607714D02*
X82692476Y-113274380D01*
X82454380Y-112226761D02*
X82216285Y-112941047D01*
X82835333Y-112941047D01*
%TO.C,D1*%
X162368880Y-130532095D02*
X161368880Y-130532095D01*
X161368880Y-130294000D01*
X161416500Y-130151142D01*
X161511738Y-130055904D01*
X161606976Y-130008285D01*
X161797452Y-129960666D01*
X161940309Y-129960666D01*
X162130785Y-130008285D01*
X162226023Y-130055904D01*
X162321261Y-130151142D01*
X162368880Y-130294000D01*
X162368880Y-130532095D01*
X162368880Y-129008285D02*
X162368880Y-129579714D01*
X162368880Y-129294000D02*
X161368880Y-129294000D01*
X161511738Y-129389238D01*
X161606976Y-129484476D01*
X161654595Y-129579714D01*
%TO.C,C4*%
X213590142Y-120475666D02*
X213637761Y-120523285D01*
X213685380Y-120666142D01*
X213685380Y-120761380D01*
X213637761Y-120904238D01*
X213542523Y-120999476D01*
X213447285Y-121047095D01*
X213256809Y-121094714D01*
X213113952Y-121094714D01*
X212923476Y-121047095D01*
X212828238Y-120999476D01*
X212733000Y-120904238D01*
X212685380Y-120761380D01*
X212685380Y-120666142D01*
X212733000Y-120523285D01*
X212780619Y-120475666D01*
X213018714Y-119618523D02*
X213685380Y-119618523D01*
X212637761Y-119856619D02*
X213352047Y-120094714D01*
X213352047Y-119475666D01*
%TO.C,C5*%
X228703142Y-120435666D02*
X228750761Y-120483285D01*
X228798380Y-120626142D01*
X228798380Y-120721380D01*
X228750761Y-120864238D01*
X228655523Y-120959476D01*
X228560285Y-121007095D01*
X228369809Y-121054714D01*
X228226952Y-121054714D01*
X228036476Y-121007095D01*
X227941238Y-120959476D01*
X227846000Y-120864238D01*
X227798380Y-120721380D01*
X227798380Y-120626142D01*
X227846000Y-120483285D01*
X227893619Y-120435666D01*
X227798380Y-119530904D02*
X227798380Y-120007095D01*
X228274571Y-120054714D01*
X228226952Y-120007095D01*
X228179333Y-119911857D01*
X228179333Y-119673761D01*
X228226952Y-119578523D01*
X228274571Y-119530904D01*
X228369809Y-119483285D01*
X228607904Y-119483285D01*
X228703142Y-119530904D01*
X228750761Y-119578523D01*
X228798380Y-119673761D01*
X228798380Y-119911857D01*
X228750761Y-120007095D01*
X228703142Y-120054714D01*
%TO.C,C8*%
X234771142Y-100750666D02*
X234818761Y-100798285D01*
X234866380Y-100941142D01*
X234866380Y-101036380D01*
X234818761Y-101179238D01*
X234723523Y-101274476D01*
X234628285Y-101322095D01*
X234437809Y-101369714D01*
X234294952Y-101369714D01*
X234104476Y-101322095D01*
X234009238Y-101274476D01*
X233914000Y-101179238D01*
X233866380Y-101036380D01*
X233866380Y-100941142D01*
X233914000Y-100798285D01*
X233961619Y-100750666D01*
X234294952Y-100179238D02*
X234247333Y-100274476D01*
X234199714Y-100322095D01*
X234104476Y-100369714D01*
X234056857Y-100369714D01*
X233961619Y-100322095D01*
X233914000Y-100274476D01*
X233866380Y-100179238D01*
X233866380Y-99988761D01*
X233914000Y-99893523D01*
X233961619Y-99845904D01*
X234056857Y-99798285D01*
X234104476Y-99798285D01*
X234199714Y-99845904D01*
X234247333Y-99893523D01*
X234294952Y-99988761D01*
X234294952Y-100179238D01*
X234342571Y-100274476D01*
X234390190Y-100322095D01*
X234485428Y-100369714D01*
X234675904Y-100369714D01*
X234771142Y-100322095D01*
X234818761Y-100274476D01*
X234866380Y-100179238D01*
X234866380Y-99988761D01*
X234818761Y-99893523D01*
X234771142Y-99845904D01*
X234675904Y-99798285D01*
X234485428Y-99798285D01*
X234390190Y-99845904D01*
X234342571Y-99893523D01*
X234294952Y-99988761D01*
%TO.C,C9*%
X220448142Y-100750666D02*
X220495761Y-100798285D01*
X220543380Y-100941142D01*
X220543380Y-101036380D01*
X220495761Y-101179238D01*
X220400523Y-101274476D01*
X220305285Y-101322095D01*
X220114809Y-101369714D01*
X219971952Y-101369714D01*
X219781476Y-101322095D01*
X219686238Y-101274476D01*
X219591000Y-101179238D01*
X219543380Y-101036380D01*
X219543380Y-100941142D01*
X219591000Y-100798285D01*
X219638619Y-100750666D01*
X220543380Y-100274476D02*
X220543380Y-100084000D01*
X220495761Y-99988761D01*
X220448142Y-99941142D01*
X220305285Y-99845904D01*
X220114809Y-99798285D01*
X219733857Y-99798285D01*
X219638619Y-99845904D01*
X219591000Y-99893523D01*
X219543380Y-99988761D01*
X219543380Y-100179238D01*
X219591000Y-100274476D01*
X219638619Y-100322095D01*
X219733857Y-100369714D01*
X219971952Y-100369714D01*
X220067190Y-100322095D01*
X220114809Y-100274476D01*
X220162428Y-100179238D01*
X220162428Y-99988761D01*
X220114809Y-99893523D01*
X220067190Y-99845904D01*
X219971952Y-99798285D01*
%TO.C,U9*%
X226356096Y-96694381D02*
X226356096Y-97503905D01*
X226403715Y-97599143D01*
X226451334Y-97646762D01*
X226546572Y-97694381D01*
X226737048Y-97694381D01*
X226832286Y-97646762D01*
X226879905Y-97599143D01*
X226927524Y-97503905D01*
X226927524Y-96694381D01*
X227451334Y-97694381D02*
X227641810Y-97694381D01*
X227737048Y-97646762D01*
X227784667Y-97599143D01*
X227879905Y-97456286D01*
X227927524Y-97265810D01*
X227927524Y-96884858D01*
X227879905Y-96789620D01*
X227832286Y-96742001D01*
X227737048Y-96694381D01*
X227546572Y-96694381D01*
X227451334Y-96742001D01*
X227403715Y-96789620D01*
X227356096Y-96884858D01*
X227356096Y-97122953D01*
X227403715Y-97218191D01*
X227451334Y-97265810D01*
X227546572Y-97313429D01*
X227737048Y-97313429D01*
X227832286Y-97265810D01*
X227879905Y-97218191D01*
X227927524Y-97122953D01*
X223260858Y-104494381D02*
X222784667Y-104494381D01*
X222784667Y-103494381D01*
X223498953Y-103494381D02*
X224165620Y-103494381D01*
X223737048Y-104494381D01*
X224594191Y-104494381D02*
X224784667Y-104494381D01*
X224879905Y-104446762D01*
X224927524Y-104399143D01*
X225022762Y-104256286D01*
X225070381Y-104065810D01*
X225070381Y-103684858D01*
X225022762Y-103589620D01*
X224975143Y-103542001D01*
X224879905Y-103494381D01*
X224689429Y-103494381D01*
X224594191Y-103542001D01*
X224546572Y-103589620D01*
X224498953Y-103684858D01*
X224498953Y-103922953D01*
X224546572Y-104018191D01*
X224594191Y-104065810D01*
X224689429Y-104113429D01*
X224879905Y-104113429D01*
X224975143Y-104065810D01*
X225022762Y-104018191D01*
X225070381Y-103922953D01*
X225975143Y-104494381D02*
X225498953Y-104494381D01*
X225498953Y-103494381D01*
X226498953Y-103494381D02*
X226594191Y-103494381D01*
X226689429Y-103542001D01*
X226737048Y-103589620D01*
X226784667Y-103684858D01*
X226832286Y-103875334D01*
X226832286Y-104113429D01*
X226784667Y-104303905D01*
X226737048Y-104399143D01*
X226689429Y-104446762D01*
X226594191Y-104494381D01*
X226498953Y-104494381D01*
X226403715Y-104446762D01*
X226356096Y-104399143D01*
X226308477Y-104303905D01*
X226260858Y-104113429D01*
X226260858Y-103875334D01*
X226308477Y-103684858D01*
X226356096Y-103589620D01*
X226403715Y-103542001D01*
X226498953Y-103494381D01*
X227737048Y-103494381D02*
X227260858Y-103494381D01*
X227213239Y-103970572D01*
X227260858Y-103922953D01*
X227356096Y-103875334D01*
X227594191Y-103875334D01*
X227689429Y-103922953D01*
X227737048Y-103970572D01*
X227784667Y-104065810D01*
X227784667Y-104303905D01*
X227737048Y-104399143D01*
X227689429Y-104446762D01*
X227594191Y-104494381D01*
X227356096Y-104494381D01*
X227260858Y-104446762D01*
X227213239Y-104399143D01*
X227975143Y-104589620D02*
X228737048Y-104589620D01*
X228927524Y-104446762D02*
X229070381Y-104494381D01*
X229308477Y-104494381D01*
X229403715Y-104446762D01*
X229451334Y-104399143D01*
X229498953Y-104303905D01*
X229498953Y-104208667D01*
X229451334Y-104113429D01*
X229403715Y-104065810D01*
X229308477Y-104018191D01*
X229118001Y-103970572D01*
X229022762Y-103922953D01*
X228975143Y-103875334D01*
X228927524Y-103780096D01*
X228927524Y-103684858D01*
X228975143Y-103589620D01*
X229022762Y-103542001D01*
X229118001Y-103494381D01*
X229356096Y-103494381D01*
X229498953Y-103542001D01*
X230118001Y-103494381D02*
X230308477Y-103494381D01*
X230403715Y-103542001D01*
X230498953Y-103637239D01*
X230546572Y-103827715D01*
X230546572Y-104161048D01*
X230498953Y-104351524D01*
X230403715Y-104446762D01*
X230308477Y-104494381D01*
X230118001Y-104494381D01*
X230022762Y-104446762D01*
X229927524Y-104351524D01*
X229879905Y-104161048D01*
X229879905Y-103827715D01*
X229927524Y-103637239D01*
X230022762Y-103542001D01*
X230118001Y-103494381D01*
X231118001Y-103922953D02*
X231022762Y-103875334D01*
X230975143Y-103827715D01*
X230927524Y-103732477D01*
X230927524Y-103684858D01*
X230975143Y-103589620D01*
X231022762Y-103542001D01*
X231118001Y-103494381D01*
X231308477Y-103494381D01*
X231403715Y-103542001D01*
X231451334Y-103589620D01*
X231498953Y-103684858D01*
X231498953Y-103732477D01*
X231451334Y-103827715D01*
X231403715Y-103875334D01*
X231308477Y-103922953D01*
X231118001Y-103922953D01*
X231022762Y-103970572D01*
X230975143Y-104018191D01*
X230927524Y-104113429D01*
X230927524Y-104303905D01*
X230975143Y-104399143D01*
X231022762Y-104446762D01*
X231118001Y-104494381D01*
X231308477Y-104494381D01*
X231403715Y-104446762D01*
X231451334Y-104399143D01*
X231498953Y-104303905D01*
X231498953Y-104113429D01*
X231451334Y-104018191D01*
X231403715Y-103970572D01*
X231308477Y-103922953D01*
%TO.C,D7*%
X65602380Y-95099095D02*
X64602380Y-95099095D01*
X64602380Y-94861000D01*
X64650000Y-94718142D01*
X64745238Y-94622904D01*
X64840476Y-94575285D01*
X65030952Y-94527666D01*
X65173809Y-94527666D01*
X65364285Y-94575285D01*
X65459523Y-94622904D01*
X65554761Y-94718142D01*
X65602380Y-94861000D01*
X65602380Y-95099095D01*
X64602380Y-94194333D02*
X64602380Y-93527666D01*
X65602380Y-93956238D01*
%TO.C,R19*%
X69032380Y-95003857D02*
X68556190Y-95337190D01*
X69032380Y-95575285D02*
X68032380Y-95575285D01*
X68032380Y-95194333D01*
X68080000Y-95099095D01*
X68127619Y-95051476D01*
X68222857Y-95003857D01*
X68365714Y-95003857D01*
X68460952Y-95051476D01*
X68508571Y-95099095D01*
X68556190Y-95194333D01*
X68556190Y-95575285D01*
X69032380Y-94051476D02*
X69032380Y-94622904D01*
X69032380Y-94337190D02*
X68032380Y-94337190D01*
X68175238Y-94432428D01*
X68270476Y-94527666D01*
X68318095Y-94622904D01*
X69032380Y-93575285D02*
X69032380Y-93384809D01*
X68984761Y-93289571D01*
X68937142Y-93241952D01*
X68794285Y-93146714D01*
X68603809Y-93099095D01*
X68222857Y-93099095D01*
X68127619Y-93146714D01*
X68080000Y-93194333D01*
X68032380Y-93289571D01*
X68032380Y-93480047D01*
X68080000Y-93575285D01*
X68127619Y-93622904D01*
X68222857Y-93670523D01*
X68460952Y-93670523D01*
X68556190Y-93622904D01*
X68603809Y-93575285D01*
X68651428Y-93480047D01*
X68651428Y-93289571D01*
X68603809Y-93194333D01*
X68556190Y-93146714D01*
X68460952Y-93099095D01*
%TD*%
M02*
