%TF.GenerationSoftware,KiCad,Pcbnew,(5.1.10)-1*%
%TF.CreationDate,2021-06-27T19:19:49+02:00*%
%TF.ProjectId,xfm2,78666d32-2e6b-4696-9361-645f70636258,rev?*%
%TF.SameCoordinates,Original*%
%TF.FileFunction,Soldermask,Top*%
%TF.FilePolarity,Negative*%
%FSLAX46Y46*%
G04 Gerber Fmt 4.6, Leading zero omitted, Abs format (unit mm)*
G04 Created by KiCad (PCBNEW (5.1.10)-1) date 2021-06-27 19:19:49*
%MOMM*%
%LPD*%
G01*
G04 APERTURE LIST*
%ADD10C,2.700000*%
%ADD11C,3.765000*%
%ADD12C,3.360000*%
%ADD13C,2.500000*%
%ADD14R,1.700000X1.700000*%
%ADD15O,1.700000X1.700000*%
%ADD16R,1.600000X2.400000*%
%ADD17O,1.600000X2.400000*%
%ADD18O,2.400000X1.600000*%
%ADD19R,2.400000X1.600000*%
%ADD20R,1.500000X1.780000*%
%ADD21R,2.700000X3.500000*%
%ADD22O,1.800000X4.000000*%
%ADD23O,4.000000X1.800000*%
%ADD24R,4.400000X1.800000*%
%ADD25R,3.800000X2.000000*%
%ADD26R,1.500000X2.000000*%
%ADD27R,1.000000X1.000000*%
%ADD28C,3.000000*%
G04 APERTURE END LIST*
D10*
%TO.C,REF\u002A\u002A*%
X239903000Y-86995000D03*
%TD*%
%TO.C,REF\u002A\u002A*%
X239903000Y-151765000D03*
%TD*%
%TO.C,REF\u002A\u002A*%
X64389000Y-151765000D03*
%TD*%
%TO.C,REF\u002A\u002A*%
X64389000Y-86995000D03*
%TD*%
%TO.C,U3*%
G36*
G01*
X77747000Y-95498000D02*
X77447000Y-95498000D01*
G75*
G02*
X77297000Y-95348000I0J150000D01*
G01*
X77297000Y-94048000D01*
G75*
G02*
X77447000Y-93898000I150000J0D01*
G01*
X77747000Y-93898000D01*
G75*
G02*
X77897000Y-94048000I0J-150000D01*
G01*
X77897000Y-95348000D01*
G75*
G02*
X77747000Y-95498000I-150000J0D01*
G01*
G37*
G36*
G01*
X79017000Y-95498000D02*
X78717000Y-95498000D01*
G75*
G02*
X78567000Y-95348000I0J150000D01*
G01*
X78567000Y-94048000D01*
G75*
G02*
X78717000Y-93898000I150000J0D01*
G01*
X79017000Y-93898000D01*
G75*
G02*
X79167000Y-94048000I0J-150000D01*
G01*
X79167000Y-95348000D01*
G75*
G02*
X79017000Y-95498000I-150000J0D01*
G01*
G37*
G36*
G01*
X80287000Y-95498000D02*
X79987000Y-95498000D01*
G75*
G02*
X79837000Y-95348000I0J150000D01*
G01*
X79837000Y-94048000D01*
G75*
G02*
X79987000Y-93898000I150000J0D01*
G01*
X80287000Y-93898000D01*
G75*
G02*
X80437000Y-94048000I0J-150000D01*
G01*
X80437000Y-95348000D01*
G75*
G02*
X80287000Y-95498000I-150000J0D01*
G01*
G37*
G36*
G01*
X81557000Y-95498000D02*
X81257000Y-95498000D01*
G75*
G02*
X81107000Y-95348000I0J150000D01*
G01*
X81107000Y-94048000D01*
G75*
G02*
X81257000Y-93898000I150000J0D01*
G01*
X81557000Y-93898000D01*
G75*
G02*
X81707000Y-94048000I0J-150000D01*
G01*
X81707000Y-95348000D01*
G75*
G02*
X81557000Y-95498000I-150000J0D01*
G01*
G37*
G36*
G01*
X81557000Y-102698000D02*
X81257000Y-102698000D01*
G75*
G02*
X81107000Y-102548000I0J150000D01*
G01*
X81107000Y-101248000D01*
G75*
G02*
X81257000Y-101098000I150000J0D01*
G01*
X81557000Y-101098000D01*
G75*
G02*
X81707000Y-101248000I0J-150000D01*
G01*
X81707000Y-102548000D01*
G75*
G02*
X81557000Y-102698000I-150000J0D01*
G01*
G37*
G36*
G01*
X80287000Y-102698000D02*
X79987000Y-102698000D01*
G75*
G02*
X79837000Y-102548000I0J150000D01*
G01*
X79837000Y-101248000D01*
G75*
G02*
X79987000Y-101098000I150000J0D01*
G01*
X80287000Y-101098000D01*
G75*
G02*
X80437000Y-101248000I0J-150000D01*
G01*
X80437000Y-102548000D01*
G75*
G02*
X80287000Y-102698000I-150000J0D01*
G01*
G37*
G36*
G01*
X79017000Y-102698000D02*
X78717000Y-102698000D01*
G75*
G02*
X78567000Y-102548000I0J150000D01*
G01*
X78567000Y-101248000D01*
G75*
G02*
X78717000Y-101098000I150000J0D01*
G01*
X79017000Y-101098000D01*
G75*
G02*
X79167000Y-101248000I0J-150000D01*
G01*
X79167000Y-102548000D01*
G75*
G02*
X79017000Y-102698000I-150000J0D01*
G01*
G37*
G36*
G01*
X77747000Y-102698000D02*
X77447000Y-102698000D01*
G75*
G02*
X77297000Y-102548000I0J150000D01*
G01*
X77297000Y-101248000D01*
G75*
G02*
X77447000Y-101098000I150000J0D01*
G01*
X77747000Y-101098000D01*
G75*
G02*
X77897000Y-101248000I0J-150000D01*
G01*
X77897000Y-102548000D01*
G75*
G02*
X77747000Y-102698000I-150000J0D01*
G01*
G37*
%TD*%
D11*
%TO.C,J5*%
X213741000Y-149352000D03*
D12*
X213741000Y-144852000D03*
%TD*%
%TO.C,C1*%
G36*
G01*
X222217000Y-149961000D02*
X221267000Y-149961000D01*
G75*
G02*
X221017000Y-149711000I0J250000D01*
G01*
X221017000Y-149036000D01*
G75*
G02*
X221267000Y-148786000I250000J0D01*
G01*
X222217000Y-148786000D01*
G75*
G02*
X222467000Y-149036000I0J-250000D01*
G01*
X222467000Y-149711000D01*
G75*
G02*
X222217000Y-149961000I-250000J0D01*
G01*
G37*
G36*
G01*
X222217000Y-147886000D02*
X221267000Y-147886000D01*
G75*
G02*
X221017000Y-147636000I0J250000D01*
G01*
X221017000Y-146961000D01*
G75*
G02*
X221267000Y-146711000I250000J0D01*
G01*
X222217000Y-146711000D01*
G75*
G02*
X222467000Y-146961000I0J-250000D01*
G01*
X222467000Y-147636000D01*
G75*
G02*
X222217000Y-147886000I-250000J0D01*
G01*
G37*
%TD*%
%TO.C,D2*%
G36*
G01*
X63049999Y-117589000D02*
X63950001Y-117589000D01*
G75*
G02*
X64200000Y-117838999I0J-249999D01*
G01*
X64200000Y-118489001D01*
G75*
G02*
X63950001Y-118739000I-249999J0D01*
G01*
X63049999Y-118739000D01*
G75*
G02*
X62800000Y-118489001I0J249999D01*
G01*
X62800000Y-117838999D01*
G75*
G02*
X63049999Y-117589000I249999J0D01*
G01*
G37*
G36*
G01*
X63049999Y-115539000D02*
X63950001Y-115539000D01*
G75*
G02*
X64200000Y-115788999I0J-249999D01*
G01*
X64200000Y-116439001D01*
G75*
G02*
X63950001Y-116689000I-249999J0D01*
G01*
X63049999Y-116689000D01*
G75*
G02*
X62800000Y-116439001I0J249999D01*
G01*
X62800000Y-115788999D01*
G75*
G02*
X63049999Y-115539000I249999J0D01*
G01*
G37*
%TD*%
%TO.C,D3*%
G36*
G01*
X63049999Y-109851332D02*
X63950001Y-109851332D01*
G75*
G02*
X64200000Y-110101331I0J-249999D01*
G01*
X64200000Y-110751333D01*
G75*
G02*
X63950001Y-111001332I-249999J0D01*
G01*
X63049999Y-111001332D01*
G75*
G02*
X62800000Y-110751333I0J249999D01*
G01*
X62800000Y-110101331D01*
G75*
G02*
X63049999Y-109851332I249999J0D01*
G01*
G37*
G36*
G01*
X63049999Y-111901332D02*
X63950001Y-111901332D01*
G75*
G02*
X64200000Y-112151331I0J-249999D01*
G01*
X64200000Y-112801333D01*
G75*
G02*
X63950001Y-113051332I-249999J0D01*
G01*
X63049999Y-113051332D01*
G75*
G02*
X62800000Y-112801333I0J249999D01*
G01*
X62800000Y-112151331D01*
G75*
G02*
X63049999Y-111901332I249999J0D01*
G01*
G37*
%TD*%
%TO.C,D4*%
G36*
G01*
X63049999Y-104163666D02*
X63950001Y-104163666D01*
G75*
G02*
X64200000Y-104413665I0J-249999D01*
G01*
X64200000Y-105063667D01*
G75*
G02*
X63950001Y-105313666I-249999J0D01*
G01*
X63049999Y-105313666D01*
G75*
G02*
X62800000Y-105063667I0J249999D01*
G01*
X62800000Y-104413665D01*
G75*
G02*
X63049999Y-104163666I249999J0D01*
G01*
G37*
G36*
G01*
X63049999Y-106213666D02*
X63950001Y-106213666D01*
G75*
G02*
X64200000Y-106463665I0J-249999D01*
G01*
X64200000Y-107113667D01*
G75*
G02*
X63950001Y-107363666I-249999J0D01*
G01*
X63049999Y-107363666D01*
G75*
G02*
X62800000Y-107113667I0J249999D01*
G01*
X62800000Y-106463665D01*
G75*
G02*
X63049999Y-106213666I249999J0D01*
G01*
G37*
%TD*%
%TO.C,D5*%
G36*
G01*
X63049999Y-100526000D02*
X63950001Y-100526000D01*
G75*
G02*
X64200000Y-100775999I0J-249999D01*
G01*
X64200000Y-101426001D01*
G75*
G02*
X63950001Y-101676000I-249999J0D01*
G01*
X63049999Y-101676000D01*
G75*
G02*
X62800000Y-101426001I0J249999D01*
G01*
X62800000Y-100775999D01*
G75*
G02*
X63049999Y-100526000I249999J0D01*
G01*
G37*
G36*
G01*
X63049999Y-98476000D02*
X63950001Y-98476000D01*
G75*
G02*
X64200000Y-98725999I0J-249999D01*
G01*
X64200000Y-99376001D01*
G75*
G02*
X63950001Y-99626000I-249999J0D01*
G01*
X63049999Y-99626000D01*
G75*
G02*
X62800000Y-99376001I0J249999D01*
G01*
X62800000Y-98725999D01*
G75*
G02*
X63049999Y-98476000I249999J0D01*
G01*
G37*
%TD*%
D13*
%TO.C,J1*%
X157981000Y-142034000D03*
X170481000Y-139534000D03*
X165481000Y-142034000D03*
X172981000Y-142034000D03*
X160481000Y-139534000D03*
X170481000Y-152034000D03*
X160481000Y-152034000D03*
%TD*%
D14*
%TO.C,J2*%
X183642000Y-89408000D03*
D15*
X183642000Y-86868000D03*
X186182000Y-89408000D03*
X186182000Y-86868000D03*
X188722000Y-89408000D03*
X188722000Y-86868000D03*
X191262000Y-89408000D03*
X191262000Y-86868000D03*
X193802000Y-89408000D03*
X193802000Y-86868000D03*
X196342000Y-89408000D03*
X196342000Y-86868000D03*
X198882000Y-89408000D03*
X198882000Y-86868000D03*
X201422000Y-89408000D03*
X201422000Y-86868000D03*
X203962000Y-89408000D03*
X203962000Y-86868000D03*
X206502000Y-89408000D03*
X206502000Y-86868000D03*
%TD*%
D13*
%TO.C,J3*%
X137621000Y-152034000D03*
X147621000Y-152034000D03*
X137621000Y-139534000D03*
X150121000Y-142034000D03*
X142621000Y-142034000D03*
X147621000Y-139534000D03*
X135121000Y-142034000D03*
%TD*%
%TO.C,J4*%
X112261000Y-142034000D03*
X124761000Y-139534000D03*
X119761000Y-142034000D03*
X127261000Y-142034000D03*
X114761000Y-139534000D03*
X124761000Y-152034000D03*
X114761000Y-152034000D03*
%TD*%
D16*
%TO.C,U2*%
X90805000Y-103124000D03*
D17*
X149225000Y-87884000D03*
X93345000Y-103124000D03*
X146685000Y-87884000D03*
X95885000Y-103124000D03*
X144145000Y-87884000D03*
X98425000Y-103124000D03*
X141605000Y-87884000D03*
X100965000Y-103124000D03*
X139065000Y-87884000D03*
X103505000Y-103124000D03*
X136525000Y-87884000D03*
X106045000Y-103124000D03*
X133985000Y-87884000D03*
X108585000Y-103124000D03*
X131445000Y-87884000D03*
X111125000Y-103124000D03*
X128905000Y-87884000D03*
X113665000Y-103124000D03*
X126365000Y-87884000D03*
X116205000Y-103124000D03*
X123825000Y-87884000D03*
X118745000Y-103124000D03*
X121285000Y-87884000D03*
X121285000Y-103124000D03*
X118745000Y-87884000D03*
X123825000Y-103124000D03*
X116205000Y-87884000D03*
X126365000Y-103124000D03*
X113665000Y-87884000D03*
X128905000Y-103124000D03*
X111125000Y-87884000D03*
X131445000Y-103124000D03*
X108585000Y-87884000D03*
X133985000Y-103124000D03*
X106045000Y-87884000D03*
X136525000Y-103124000D03*
X103505000Y-87884000D03*
X139065000Y-103124000D03*
X100965000Y-87884000D03*
X141605000Y-103124000D03*
X98425000Y-87884000D03*
X144145000Y-103124000D03*
X95885000Y-87884000D03*
X146685000Y-103124000D03*
X93345000Y-87884000D03*
X149225000Y-103124000D03*
X90805000Y-87884000D03*
%TD*%
D18*
%TO.C,U4*%
X202319000Y-126034000D03*
X181999000Y-131114000D03*
X202319000Y-128574000D03*
X181999000Y-128574000D03*
X202319000Y-131114000D03*
X181999000Y-126034000D03*
X202319000Y-133654000D03*
D19*
X181999000Y-123494000D03*
D18*
X181999000Y-133604000D03*
X181991000Y-136144000D03*
X181991000Y-138684000D03*
X181991000Y-141224000D03*
X181991000Y-143764000D03*
X202311000Y-136144000D03*
X202311000Y-138684000D03*
%TD*%
%TO.C,R1*%
G36*
G01*
X170884001Y-129394000D02*
X169983999Y-129394000D01*
G75*
G02*
X169734000Y-129144001I0J249999D01*
G01*
X169734000Y-128443999D01*
G75*
G02*
X169983999Y-128194000I249999J0D01*
G01*
X170884001Y-128194000D01*
G75*
G02*
X171134000Y-128443999I0J-249999D01*
G01*
X171134000Y-129144001D01*
G75*
G02*
X170884001Y-129394000I-249999J0D01*
G01*
G37*
G36*
G01*
X170884001Y-131394000D02*
X169983999Y-131394000D01*
G75*
G02*
X169734000Y-131144001I0J249999D01*
G01*
X169734000Y-130443999D01*
G75*
G02*
X169983999Y-130194000I249999J0D01*
G01*
X170884001Y-130194000D01*
G75*
G02*
X171134000Y-130443999I0J-249999D01*
G01*
X171134000Y-131144001D01*
G75*
G02*
X170884001Y-131394000I-249999J0D01*
G01*
G37*
%TD*%
%TO.C,R2*%
G36*
G01*
X155644001Y-124028000D02*
X154743999Y-124028000D01*
G75*
G02*
X154494000Y-123778001I0J249999D01*
G01*
X154494000Y-123077999D01*
G75*
G02*
X154743999Y-122828000I249999J0D01*
G01*
X155644001Y-122828000D01*
G75*
G02*
X155894000Y-123077999I0J-249999D01*
G01*
X155894000Y-123778001D01*
G75*
G02*
X155644001Y-124028000I-249999J0D01*
G01*
G37*
G36*
G01*
X155644001Y-122028000D02*
X154743999Y-122028000D01*
G75*
G02*
X154494000Y-121778001I0J249999D01*
G01*
X154494000Y-121077999D01*
G75*
G02*
X154743999Y-120828000I249999J0D01*
G01*
X155644001Y-120828000D01*
G75*
G02*
X155894000Y-121077999I0J-249999D01*
G01*
X155894000Y-121778001D01*
G75*
G02*
X155644001Y-122028000I-249999J0D01*
G01*
G37*
%TD*%
%TO.C,R3*%
G36*
G01*
X128212001Y-131110000D02*
X127311999Y-131110000D01*
G75*
G02*
X127062000Y-130860001I0J249999D01*
G01*
X127062000Y-130159999D01*
G75*
G02*
X127311999Y-129910000I249999J0D01*
G01*
X128212001Y-129910000D01*
G75*
G02*
X128462000Y-130159999I0J-249999D01*
G01*
X128462000Y-130860001D01*
G75*
G02*
X128212001Y-131110000I-249999J0D01*
G01*
G37*
G36*
G01*
X128212001Y-129110000D02*
X127311999Y-129110000D01*
G75*
G02*
X127062000Y-128860001I0J249999D01*
G01*
X127062000Y-128159999D01*
G75*
G02*
X127311999Y-127910000I249999J0D01*
G01*
X128212001Y-127910000D01*
G75*
G02*
X128462000Y-128159999I0J-249999D01*
G01*
X128462000Y-128860001D01*
G75*
G02*
X128212001Y-129110000I-249999J0D01*
G01*
G37*
%TD*%
%TO.C,R4*%
G36*
G01*
X143694999Y-129910000D02*
X144595001Y-129910000D01*
G75*
G02*
X144845000Y-130159999I0J-249999D01*
G01*
X144845000Y-130860001D01*
G75*
G02*
X144595001Y-131110000I-249999J0D01*
G01*
X143694999Y-131110000D01*
G75*
G02*
X143445000Y-130860001I0J249999D01*
G01*
X143445000Y-130159999D01*
G75*
G02*
X143694999Y-129910000I249999J0D01*
G01*
G37*
G36*
G01*
X143694999Y-127910000D02*
X144595001Y-127910000D01*
G75*
G02*
X144845000Y-128159999I0J-249999D01*
G01*
X144845000Y-128860001D01*
G75*
G02*
X144595001Y-129110000I-249999J0D01*
G01*
X143694999Y-129110000D01*
G75*
G02*
X143445000Y-128860001I0J249999D01*
G01*
X143445000Y-128159999D01*
G75*
G02*
X143694999Y-127910000I249999J0D01*
G01*
G37*
%TD*%
%TO.C,R5*%
G36*
G01*
X67379001Y-116694000D02*
X66478999Y-116694000D01*
G75*
G02*
X66229000Y-116444001I0J249999D01*
G01*
X66229000Y-115743999D01*
G75*
G02*
X66478999Y-115494000I249999J0D01*
G01*
X67379001Y-115494000D01*
G75*
G02*
X67629000Y-115743999I0J-249999D01*
G01*
X67629000Y-116444001D01*
G75*
G02*
X67379001Y-116694000I-249999J0D01*
G01*
G37*
G36*
G01*
X67379001Y-118694000D02*
X66478999Y-118694000D01*
G75*
G02*
X66229000Y-118444001I0J249999D01*
G01*
X66229000Y-117743999D01*
G75*
G02*
X66478999Y-117494000I249999J0D01*
G01*
X67379001Y-117494000D01*
G75*
G02*
X67629000Y-117743999I0J-249999D01*
G01*
X67629000Y-118444001D01*
G75*
G02*
X67379001Y-118694000I-249999J0D01*
G01*
G37*
%TD*%
%TO.C,R6*%
G36*
G01*
X67379001Y-113006332D02*
X66478999Y-113006332D01*
G75*
G02*
X66229000Y-112756333I0J249999D01*
G01*
X66229000Y-112056331D01*
G75*
G02*
X66478999Y-111806332I249999J0D01*
G01*
X67379001Y-111806332D01*
G75*
G02*
X67629000Y-112056331I0J-249999D01*
G01*
X67629000Y-112756333D01*
G75*
G02*
X67379001Y-113006332I-249999J0D01*
G01*
G37*
G36*
G01*
X67379001Y-111006332D02*
X66478999Y-111006332D01*
G75*
G02*
X66229000Y-110756333I0J249999D01*
G01*
X66229000Y-110056331D01*
G75*
G02*
X66478999Y-109806332I249999J0D01*
G01*
X67379001Y-109806332D01*
G75*
G02*
X67629000Y-110056331I0J-249999D01*
G01*
X67629000Y-110756333D01*
G75*
G02*
X67379001Y-111006332I-249999J0D01*
G01*
G37*
%TD*%
%TO.C,R7*%
G36*
G01*
X67379001Y-105318666D02*
X66478999Y-105318666D01*
G75*
G02*
X66229000Y-105068667I0J249999D01*
G01*
X66229000Y-104368665D01*
G75*
G02*
X66478999Y-104118666I249999J0D01*
G01*
X67379001Y-104118666D01*
G75*
G02*
X67629000Y-104368665I0J-249999D01*
G01*
X67629000Y-105068667D01*
G75*
G02*
X67379001Y-105318666I-249999J0D01*
G01*
G37*
G36*
G01*
X67379001Y-107318666D02*
X66478999Y-107318666D01*
G75*
G02*
X66229000Y-107068667I0J249999D01*
G01*
X66229000Y-106368665D01*
G75*
G02*
X66478999Y-106118666I249999J0D01*
G01*
X67379001Y-106118666D01*
G75*
G02*
X67629000Y-106368665I0J-249999D01*
G01*
X67629000Y-107068667D01*
G75*
G02*
X67379001Y-107318666I-249999J0D01*
G01*
G37*
%TD*%
%TO.C,R8*%
G36*
G01*
X67379001Y-101631000D02*
X66478999Y-101631000D01*
G75*
G02*
X66229000Y-101381001I0J249999D01*
G01*
X66229000Y-100680999D01*
G75*
G02*
X66478999Y-100431000I249999J0D01*
G01*
X67379001Y-100431000D01*
G75*
G02*
X67629000Y-100680999I0J-249999D01*
G01*
X67629000Y-101381001D01*
G75*
G02*
X67379001Y-101631000I-249999J0D01*
G01*
G37*
G36*
G01*
X67379001Y-99631000D02*
X66478999Y-99631000D01*
G75*
G02*
X66229000Y-99381001I0J249999D01*
G01*
X66229000Y-98680999D01*
G75*
G02*
X66478999Y-98431000I249999J0D01*
G01*
X67379001Y-98431000D01*
G75*
G02*
X67629000Y-98680999I0J-249999D01*
G01*
X67629000Y-99381001D01*
G75*
G02*
X67379001Y-99631000I-249999J0D01*
G01*
G37*
%TD*%
%TO.C,FB1*%
G36*
G01*
X148049000Y-131165000D02*
X147099000Y-131165000D01*
G75*
G02*
X146849000Y-130915000I0J250000D01*
G01*
X146849000Y-130240000D01*
G75*
G02*
X147099000Y-129990000I250000J0D01*
G01*
X148049000Y-129990000D01*
G75*
G02*
X148299000Y-130240000I0J-250000D01*
G01*
X148299000Y-130915000D01*
G75*
G02*
X148049000Y-131165000I-250000J0D01*
G01*
G37*
G36*
G01*
X148049000Y-129090000D02*
X147099000Y-129090000D01*
G75*
G02*
X146849000Y-128840000I0J250000D01*
G01*
X146849000Y-128165000D01*
G75*
G02*
X147099000Y-127915000I250000J0D01*
G01*
X148049000Y-127915000D01*
G75*
G02*
X148299000Y-128165000I0J-250000D01*
G01*
X148299000Y-128840000D01*
G75*
G02*
X148049000Y-129090000I-250000J0D01*
G01*
G37*
%TD*%
%TO.C,FB2*%
G36*
G01*
X115283000Y-129090000D02*
X114333000Y-129090000D01*
G75*
G02*
X114083000Y-128840000I0J250000D01*
G01*
X114083000Y-128165000D01*
G75*
G02*
X114333000Y-127915000I250000J0D01*
G01*
X115283000Y-127915000D01*
G75*
G02*
X115533000Y-128165000I0J-250000D01*
G01*
X115533000Y-128840000D01*
G75*
G02*
X115283000Y-129090000I-250000J0D01*
G01*
G37*
G36*
G01*
X115283000Y-131165000D02*
X114333000Y-131165000D01*
G75*
G02*
X114083000Y-130915000I0J250000D01*
G01*
X114083000Y-130240000D01*
G75*
G02*
X114333000Y-129990000I250000J0D01*
G01*
X115283000Y-129990000D01*
G75*
G02*
X115533000Y-130240000I0J-250000D01*
G01*
X115533000Y-130915000D01*
G75*
G02*
X115283000Y-131165000I-250000J0D01*
G01*
G37*
%TD*%
%TO.C,FB3*%
G36*
G01*
X173957000Y-129365500D02*
X173007000Y-129365500D01*
G75*
G02*
X172757000Y-129115500I0J250000D01*
G01*
X172757000Y-128440500D01*
G75*
G02*
X173007000Y-128190500I250000J0D01*
G01*
X173957000Y-128190500D01*
G75*
G02*
X174207000Y-128440500I0J-250000D01*
G01*
X174207000Y-129115500D01*
G75*
G02*
X173957000Y-129365500I-250000J0D01*
G01*
G37*
G36*
G01*
X173957000Y-131440500D02*
X173007000Y-131440500D01*
G75*
G02*
X172757000Y-131190500I0J250000D01*
G01*
X172757000Y-130515500D01*
G75*
G02*
X173007000Y-130265500I250000J0D01*
G01*
X173957000Y-130265500D01*
G75*
G02*
X174207000Y-130515500I0J-250000D01*
G01*
X174207000Y-131190500D01*
G75*
G02*
X173957000Y-131440500I-250000J0D01*
G01*
G37*
%TD*%
%TO.C,FB4*%
G36*
G01*
X161003000Y-131419000D02*
X160053000Y-131419000D01*
G75*
G02*
X159803000Y-131169000I0J250000D01*
G01*
X159803000Y-130494000D01*
G75*
G02*
X160053000Y-130244000I250000J0D01*
G01*
X161003000Y-130244000D01*
G75*
G02*
X161253000Y-130494000I0J-250000D01*
G01*
X161253000Y-131169000D01*
G75*
G02*
X161003000Y-131419000I-250000J0D01*
G01*
G37*
G36*
G01*
X161003000Y-129344000D02*
X160053000Y-129344000D01*
G75*
G02*
X159803000Y-129094000I0J250000D01*
G01*
X159803000Y-128419000D01*
G75*
G02*
X160053000Y-128169000I250000J0D01*
G01*
X161003000Y-128169000D01*
G75*
G02*
X161253000Y-128419000I0J-250000D01*
G01*
X161253000Y-129094000D01*
G75*
G02*
X161003000Y-129344000I-250000J0D01*
G01*
G37*
%TD*%
%TO.C,FB5*%
G36*
G01*
X137193000Y-129990000D02*
X138143000Y-129990000D01*
G75*
G02*
X138393000Y-130240000I0J-250000D01*
G01*
X138393000Y-130915000D01*
G75*
G02*
X138143000Y-131165000I-250000J0D01*
G01*
X137193000Y-131165000D01*
G75*
G02*
X136943000Y-130915000I0J250000D01*
G01*
X136943000Y-130240000D01*
G75*
G02*
X137193000Y-129990000I250000J0D01*
G01*
G37*
G36*
G01*
X137193000Y-127915000D02*
X138143000Y-127915000D01*
G75*
G02*
X138393000Y-128165000I0J-250000D01*
G01*
X138393000Y-128840000D01*
G75*
G02*
X138143000Y-129090000I-250000J0D01*
G01*
X137193000Y-129090000D01*
G75*
G02*
X136943000Y-128840000I0J250000D01*
G01*
X136943000Y-128165000D01*
G75*
G02*
X137193000Y-127915000I250000J0D01*
G01*
G37*
%TD*%
%TO.C,FB6*%
G36*
G01*
X124239000Y-127915000D02*
X125189000Y-127915000D01*
G75*
G02*
X125439000Y-128165000I0J-250000D01*
G01*
X125439000Y-128840000D01*
G75*
G02*
X125189000Y-129090000I-250000J0D01*
G01*
X124239000Y-129090000D01*
G75*
G02*
X123989000Y-128840000I0J250000D01*
G01*
X123989000Y-128165000D01*
G75*
G02*
X124239000Y-127915000I250000J0D01*
G01*
G37*
G36*
G01*
X124239000Y-129990000D02*
X125189000Y-129990000D01*
G75*
G02*
X125439000Y-130240000I0J-250000D01*
G01*
X125439000Y-130915000D01*
G75*
G02*
X125189000Y-131165000I-250000J0D01*
G01*
X124239000Y-131165000D01*
G75*
G02*
X123989000Y-130915000I0J250000D01*
G01*
X123989000Y-130240000D01*
G75*
G02*
X124239000Y-129990000I250000J0D01*
G01*
G37*
%TD*%
%TO.C,R9*%
G36*
G01*
X111309999Y-127910000D02*
X112210001Y-127910000D01*
G75*
G02*
X112460000Y-128159999I0J-249999D01*
G01*
X112460000Y-128860001D01*
G75*
G02*
X112210001Y-129110000I-249999J0D01*
G01*
X111309999Y-129110000D01*
G75*
G02*
X111060000Y-128860001I0J249999D01*
G01*
X111060000Y-128159999D01*
G75*
G02*
X111309999Y-127910000I249999J0D01*
G01*
G37*
G36*
G01*
X111309999Y-129910000D02*
X112210001Y-129910000D01*
G75*
G02*
X112460000Y-130159999I0J-249999D01*
G01*
X112460000Y-130860001D01*
G75*
G02*
X112210001Y-131110000I-249999J0D01*
G01*
X111309999Y-131110000D01*
G75*
G02*
X111060000Y-130860001I0J249999D01*
G01*
X111060000Y-130159999D01*
G75*
G02*
X111309999Y-129910000I249999J0D01*
G01*
G37*
%TD*%
%TO.C,R10*%
G36*
G01*
X134308001Y-129110000D02*
X133407999Y-129110000D01*
G75*
G02*
X133158000Y-128860001I0J249999D01*
G01*
X133158000Y-128159999D01*
G75*
G02*
X133407999Y-127910000I249999J0D01*
G01*
X134308001Y-127910000D01*
G75*
G02*
X134558000Y-128159999I0J-249999D01*
G01*
X134558000Y-128860001D01*
G75*
G02*
X134308001Y-129110000I-249999J0D01*
G01*
G37*
G36*
G01*
X134308001Y-131110000D02*
X133407999Y-131110000D01*
G75*
G02*
X133158000Y-130860001I0J249999D01*
G01*
X133158000Y-130159999D01*
G75*
G02*
X133407999Y-129910000I249999J0D01*
G01*
X134308001Y-129910000D01*
G75*
G02*
X134558000Y-130159999I0J-249999D01*
G01*
X134558000Y-130860001D01*
G75*
G02*
X134308001Y-131110000I-249999J0D01*
G01*
G37*
%TD*%
%TO.C,U5*%
G36*
G01*
X135232000Y-114914000D02*
X135532000Y-114914000D01*
G75*
G02*
X135682000Y-115064000I0J-150000D01*
G01*
X135682000Y-116714000D01*
G75*
G02*
X135532000Y-116864000I-150000J0D01*
G01*
X135232000Y-116864000D01*
G75*
G02*
X135082000Y-116714000I0J150000D01*
G01*
X135082000Y-115064000D01*
G75*
G02*
X135232000Y-114914000I150000J0D01*
G01*
G37*
G36*
G01*
X133962000Y-114914000D02*
X134262000Y-114914000D01*
G75*
G02*
X134412000Y-115064000I0J-150000D01*
G01*
X134412000Y-116714000D01*
G75*
G02*
X134262000Y-116864000I-150000J0D01*
G01*
X133962000Y-116864000D01*
G75*
G02*
X133812000Y-116714000I0J150000D01*
G01*
X133812000Y-115064000D01*
G75*
G02*
X133962000Y-114914000I150000J0D01*
G01*
G37*
G36*
G01*
X132692000Y-114914000D02*
X132992000Y-114914000D01*
G75*
G02*
X133142000Y-115064000I0J-150000D01*
G01*
X133142000Y-116714000D01*
G75*
G02*
X132992000Y-116864000I-150000J0D01*
G01*
X132692000Y-116864000D01*
G75*
G02*
X132542000Y-116714000I0J150000D01*
G01*
X132542000Y-115064000D01*
G75*
G02*
X132692000Y-114914000I150000J0D01*
G01*
G37*
G36*
G01*
X131422000Y-114914000D02*
X131722000Y-114914000D01*
G75*
G02*
X131872000Y-115064000I0J-150000D01*
G01*
X131872000Y-116714000D01*
G75*
G02*
X131722000Y-116864000I-150000J0D01*
G01*
X131422000Y-116864000D01*
G75*
G02*
X131272000Y-116714000I0J150000D01*
G01*
X131272000Y-115064000D01*
G75*
G02*
X131422000Y-114914000I150000J0D01*
G01*
G37*
G36*
G01*
X130152000Y-114914000D02*
X130452000Y-114914000D01*
G75*
G02*
X130602000Y-115064000I0J-150000D01*
G01*
X130602000Y-116714000D01*
G75*
G02*
X130452000Y-116864000I-150000J0D01*
G01*
X130152000Y-116864000D01*
G75*
G02*
X130002000Y-116714000I0J150000D01*
G01*
X130002000Y-115064000D01*
G75*
G02*
X130152000Y-114914000I150000J0D01*
G01*
G37*
G36*
G01*
X128882000Y-114914000D02*
X129182000Y-114914000D01*
G75*
G02*
X129332000Y-115064000I0J-150000D01*
G01*
X129332000Y-116714000D01*
G75*
G02*
X129182000Y-116864000I-150000J0D01*
G01*
X128882000Y-116864000D01*
G75*
G02*
X128732000Y-116714000I0J150000D01*
G01*
X128732000Y-115064000D01*
G75*
G02*
X128882000Y-114914000I150000J0D01*
G01*
G37*
G36*
G01*
X127612000Y-114914000D02*
X127912000Y-114914000D01*
G75*
G02*
X128062000Y-115064000I0J-150000D01*
G01*
X128062000Y-116714000D01*
G75*
G02*
X127912000Y-116864000I-150000J0D01*
G01*
X127612000Y-116864000D01*
G75*
G02*
X127462000Y-116714000I0J150000D01*
G01*
X127462000Y-115064000D01*
G75*
G02*
X127612000Y-114914000I150000J0D01*
G01*
G37*
G36*
G01*
X127612000Y-119864000D02*
X127912000Y-119864000D01*
G75*
G02*
X128062000Y-120014000I0J-150000D01*
G01*
X128062000Y-121664000D01*
G75*
G02*
X127912000Y-121814000I-150000J0D01*
G01*
X127612000Y-121814000D01*
G75*
G02*
X127462000Y-121664000I0J150000D01*
G01*
X127462000Y-120014000D01*
G75*
G02*
X127612000Y-119864000I150000J0D01*
G01*
G37*
G36*
G01*
X128882000Y-119864000D02*
X129182000Y-119864000D01*
G75*
G02*
X129332000Y-120014000I0J-150000D01*
G01*
X129332000Y-121664000D01*
G75*
G02*
X129182000Y-121814000I-150000J0D01*
G01*
X128882000Y-121814000D01*
G75*
G02*
X128732000Y-121664000I0J150000D01*
G01*
X128732000Y-120014000D01*
G75*
G02*
X128882000Y-119864000I150000J0D01*
G01*
G37*
G36*
G01*
X130152000Y-119864000D02*
X130452000Y-119864000D01*
G75*
G02*
X130602000Y-120014000I0J-150000D01*
G01*
X130602000Y-121664000D01*
G75*
G02*
X130452000Y-121814000I-150000J0D01*
G01*
X130152000Y-121814000D01*
G75*
G02*
X130002000Y-121664000I0J150000D01*
G01*
X130002000Y-120014000D01*
G75*
G02*
X130152000Y-119864000I150000J0D01*
G01*
G37*
G36*
G01*
X131422000Y-119864000D02*
X131722000Y-119864000D01*
G75*
G02*
X131872000Y-120014000I0J-150000D01*
G01*
X131872000Y-121664000D01*
G75*
G02*
X131722000Y-121814000I-150000J0D01*
G01*
X131422000Y-121814000D01*
G75*
G02*
X131272000Y-121664000I0J150000D01*
G01*
X131272000Y-120014000D01*
G75*
G02*
X131422000Y-119864000I150000J0D01*
G01*
G37*
G36*
G01*
X132692000Y-119864000D02*
X132992000Y-119864000D01*
G75*
G02*
X133142000Y-120014000I0J-150000D01*
G01*
X133142000Y-121664000D01*
G75*
G02*
X132992000Y-121814000I-150000J0D01*
G01*
X132692000Y-121814000D01*
G75*
G02*
X132542000Y-121664000I0J150000D01*
G01*
X132542000Y-120014000D01*
G75*
G02*
X132692000Y-119864000I150000J0D01*
G01*
G37*
G36*
G01*
X133962000Y-119864000D02*
X134262000Y-119864000D01*
G75*
G02*
X134412000Y-120014000I0J-150000D01*
G01*
X134412000Y-121664000D01*
G75*
G02*
X134262000Y-121814000I-150000J0D01*
G01*
X133962000Y-121814000D01*
G75*
G02*
X133812000Y-121664000I0J150000D01*
G01*
X133812000Y-120014000D01*
G75*
G02*
X133962000Y-119864000I150000J0D01*
G01*
G37*
G36*
G01*
X135232000Y-119864000D02*
X135532000Y-119864000D01*
G75*
G02*
X135682000Y-120014000I0J-150000D01*
G01*
X135682000Y-121664000D01*
G75*
G02*
X135532000Y-121814000I-150000J0D01*
G01*
X135232000Y-121814000D01*
G75*
G02*
X135082000Y-121664000I0J150000D01*
G01*
X135082000Y-120014000D01*
G75*
G02*
X135232000Y-119864000I150000J0D01*
G01*
G37*
%TD*%
D20*
%TO.C,U1*%
X170373000Y-123444000D03*
X160843000Y-118364000D03*
X170373000Y-120904000D03*
X160843000Y-120904000D03*
X170373000Y-118364000D03*
X160843000Y-123444000D03*
%TD*%
%TO.C,C2*%
G36*
G01*
X239936000Y-118664000D02*
X240886000Y-118664000D01*
G75*
G02*
X241136000Y-118914000I0J-250000D01*
G01*
X241136000Y-119589000D01*
G75*
G02*
X240886000Y-119839000I-250000J0D01*
G01*
X239936000Y-119839000D01*
G75*
G02*
X239686000Y-119589000I0J250000D01*
G01*
X239686000Y-118914000D01*
G75*
G02*
X239936000Y-118664000I250000J0D01*
G01*
G37*
G36*
G01*
X239936000Y-120739000D02*
X240886000Y-120739000D01*
G75*
G02*
X241136000Y-120989000I0J-250000D01*
G01*
X241136000Y-121664000D01*
G75*
G02*
X240886000Y-121914000I-250000J0D01*
G01*
X239936000Y-121914000D01*
G75*
G02*
X239686000Y-121664000I0J250000D01*
G01*
X239686000Y-120989000D01*
G75*
G02*
X239936000Y-120739000I250000J0D01*
G01*
G37*
%TD*%
%TO.C,C3*%
G36*
G01*
X224696000Y-120719000D02*
X225646000Y-120719000D01*
G75*
G02*
X225896000Y-120969000I0J-250000D01*
G01*
X225896000Y-121644000D01*
G75*
G02*
X225646000Y-121894000I-250000J0D01*
G01*
X224696000Y-121894000D01*
G75*
G02*
X224446000Y-121644000I0J250000D01*
G01*
X224446000Y-120969000D01*
G75*
G02*
X224696000Y-120719000I250000J0D01*
G01*
G37*
G36*
G01*
X224696000Y-118644000D02*
X225646000Y-118644000D01*
G75*
G02*
X225896000Y-118894000I0J-250000D01*
G01*
X225896000Y-119569000D01*
G75*
G02*
X225646000Y-119819000I-250000J0D01*
G01*
X224696000Y-119819000D01*
G75*
G02*
X224446000Y-119569000I0J250000D01*
G01*
X224446000Y-118894000D01*
G75*
G02*
X224696000Y-118644000I250000J0D01*
G01*
G37*
%TD*%
%TO.C,C6*%
G36*
G01*
X105189000Y-114483000D02*
X106139000Y-114483000D01*
G75*
G02*
X106389000Y-114733000I0J-250000D01*
G01*
X106389000Y-115408000D01*
G75*
G02*
X106139000Y-115658000I-250000J0D01*
G01*
X105189000Y-115658000D01*
G75*
G02*
X104939000Y-115408000I0J250000D01*
G01*
X104939000Y-114733000D01*
G75*
G02*
X105189000Y-114483000I250000J0D01*
G01*
G37*
G36*
G01*
X105189000Y-116558000D02*
X106139000Y-116558000D01*
G75*
G02*
X106389000Y-116808000I0J-250000D01*
G01*
X106389000Y-117483000D01*
G75*
G02*
X106139000Y-117733000I-250000J0D01*
G01*
X105189000Y-117733000D01*
G75*
G02*
X104939000Y-117483000I0J250000D01*
G01*
X104939000Y-116808000D01*
G75*
G02*
X105189000Y-116558000I250000J0D01*
G01*
G37*
%TD*%
%TO.C,C7*%
G36*
G01*
X90711000Y-116558000D02*
X91661000Y-116558000D01*
G75*
G02*
X91911000Y-116808000I0J-250000D01*
G01*
X91911000Y-117483000D01*
G75*
G02*
X91661000Y-117733000I-250000J0D01*
G01*
X90711000Y-117733000D01*
G75*
G02*
X90461000Y-117483000I0J250000D01*
G01*
X90461000Y-116808000D01*
G75*
G02*
X90711000Y-116558000I250000J0D01*
G01*
G37*
G36*
G01*
X90711000Y-114483000D02*
X91661000Y-114483000D01*
G75*
G02*
X91911000Y-114733000I0J-250000D01*
G01*
X91911000Y-115408000D01*
G75*
G02*
X91661000Y-115658000I-250000J0D01*
G01*
X90711000Y-115658000D01*
G75*
G02*
X90461000Y-115408000I0J250000D01*
G01*
X90461000Y-114733000D01*
G75*
G02*
X90711000Y-114483000I250000J0D01*
G01*
G37*
%TD*%
D21*
%TO.C,D6*%
X230124000Y-128172000D03*
X230124000Y-134972000D03*
%TD*%
D22*
%TO.C,J6*%
X234924000Y-143970000D03*
D23*
X230124000Y-146770000D03*
D24*
X230124000Y-140970000D03*
%TD*%
D14*
%TO.C,J7*%
X232664000Y-86868000D03*
D15*
X232664000Y-89408000D03*
X230124000Y-86868000D03*
X230124000Y-89408000D03*
X227584000Y-86868000D03*
X227584000Y-89408000D03*
X225044000Y-86868000D03*
X225044000Y-89408000D03*
X222504000Y-86868000D03*
X222504000Y-89408000D03*
X219964000Y-86868000D03*
X219964000Y-89408000D03*
X217424000Y-86868000D03*
X217424000Y-89408000D03*
X214884000Y-86868000D03*
X214884000Y-89408000D03*
%TD*%
%TO.C,R11*%
G36*
G01*
X105213999Y-119304000D02*
X106114001Y-119304000D01*
G75*
G02*
X106364000Y-119553999I0J-249999D01*
G01*
X106364000Y-120254001D01*
G75*
G02*
X106114001Y-120504000I-249999J0D01*
G01*
X105213999Y-120504000D01*
G75*
G02*
X104964000Y-120254001I0J249999D01*
G01*
X104964000Y-119553999D01*
G75*
G02*
X105213999Y-119304000I249999J0D01*
G01*
G37*
G36*
G01*
X105213999Y-121304000D02*
X106114001Y-121304000D01*
G75*
G02*
X106364000Y-121553999I0J-249999D01*
G01*
X106364000Y-122254001D01*
G75*
G02*
X106114001Y-122504000I-249999J0D01*
G01*
X105213999Y-122504000D01*
G75*
G02*
X104964000Y-122254001I0J249999D01*
G01*
X104964000Y-121553999D01*
G75*
G02*
X105213999Y-121304000I249999J0D01*
G01*
G37*
%TD*%
%TO.C,R12*%
G36*
G01*
X85909999Y-119304000D02*
X86810001Y-119304000D01*
G75*
G02*
X87060000Y-119553999I0J-249999D01*
G01*
X87060000Y-120254001D01*
G75*
G02*
X86810001Y-120504000I-249999J0D01*
G01*
X85909999Y-120504000D01*
G75*
G02*
X85660000Y-120254001I0J249999D01*
G01*
X85660000Y-119553999D01*
G75*
G02*
X85909999Y-119304000I249999J0D01*
G01*
G37*
G36*
G01*
X85909999Y-121304000D02*
X86810001Y-121304000D01*
G75*
G02*
X87060000Y-121553999I0J-249999D01*
G01*
X87060000Y-122254001D01*
G75*
G02*
X86810001Y-122504000I-249999J0D01*
G01*
X85909999Y-122504000D01*
G75*
G02*
X85660000Y-122254001I0J249999D01*
G01*
X85660000Y-121553999D01*
G75*
G02*
X85909999Y-121304000I249999J0D01*
G01*
G37*
%TD*%
%TO.C,R13*%
G36*
G01*
X100387999Y-121304000D02*
X101288001Y-121304000D01*
G75*
G02*
X101538000Y-121553999I0J-249999D01*
G01*
X101538000Y-122254001D01*
G75*
G02*
X101288001Y-122504000I-249999J0D01*
G01*
X100387999Y-122504000D01*
G75*
G02*
X100138000Y-122254001I0J249999D01*
G01*
X100138000Y-121553999D01*
G75*
G02*
X100387999Y-121304000I249999J0D01*
G01*
G37*
G36*
G01*
X100387999Y-119304000D02*
X101288001Y-119304000D01*
G75*
G02*
X101538000Y-119553999I0J-249999D01*
G01*
X101538000Y-120254001D01*
G75*
G02*
X101288001Y-120504000I-249999J0D01*
G01*
X100387999Y-120504000D01*
G75*
G02*
X100138000Y-120254001I0J249999D01*
G01*
X100138000Y-119553999D01*
G75*
G02*
X100387999Y-119304000I249999J0D01*
G01*
G37*
%TD*%
%TO.C,R14*%
G36*
G01*
X90705999Y-121304000D02*
X91606001Y-121304000D01*
G75*
G02*
X91856000Y-121553999I0J-249999D01*
G01*
X91856000Y-122254001D01*
G75*
G02*
X91606001Y-122504000I-249999J0D01*
G01*
X90705999Y-122504000D01*
G75*
G02*
X90456000Y-122254001I0J249999D01*
G01*
X90456000Y-121553999D01*
G75*
G02*
X90705999Y-121304000I249999J0D01*
G01*
G37*
G36*
G01*
X90705999Y-119304000D02*
X91606001Y-119304000D01*
G75*
G02*
X91856000Y-119553999I0J-249999D01*
G01*
X91856000Y-120254001D01*
G75*
G02*
X91606001Y-120504000I-249999J0D01*
G01*
X90705999Y-120504000D01*
G75*
G02*
X90456000Y-120254001I0J249999D01*
G01*
X90456000Y-119553999D01*
G75*
G02*
X90705999Y-119304000I249999J0D01*
G01*
G37*
%TD*%
%TO.C,R15*%
G36*
G01*
X100387999Y-114478000D02*
X101288001Y-114478000D01*
G75*
G02*
X101538000Y-114727999I0J-249999D01*
G01*
X101538000Y-115428001D01*
G75*
G02*
X101288001Y-115678000I-249999J0D01*
G01*
X100387999Y-115678000D01*
G75*
G02*
X100138000Y-115428001I0J249999D01*
G01*
X100138000Y-114727999D01*
G75*
G02*
X100387999Y-114478000I249999J0D01*
G01*
G37*
G36*
G01*
X100387999Y-116478000D02*
X101288001Y-116478000D01*
G75*
G02*
X101538000Y-116727999I0J-249999D01*
G01*
X101538000Y-117428001D01*
G75*
G02*
X101288001Y-117678000I-249999J0D01*
G01*
X100387999Y-117678000D01*
G75*
G02*
X100138000Y-117428001I0J249999D01*
G01*
X100138000Y-116727999D01*
G75*
G02*
X100387999Y-116478000I249999J0D01*
G01*
G37*
%TD*%
%TO.C,R16*%
G36*
G01*
X85909999Y-116478000D02*
X86810001Y-116478000D01*
G75*
G02*
X87060000Y-116727999I0J-249999D01*
G01*
X87060000Y-117428001D01*
G75*
G02*
X86810001Y-117678000I-249999J0D01*
G01*
X85909999Y-117678000D01*
G75*
G02*
X85660000Y-117428001I0J249999D01*
G01*
X85660000Y-116727999D01*
G75*
G02*
X85909999Y-116478000I249999J0D01*
G01*
G37*
G36*
G01*
X85909999Y-114478000D02*
X86810001Y-114478000D01*
G75*
G02*
X87060000Y-114727999I0J-249999D01*
G01*
X87060000Y-115428001D01*
G75*
G02*
X86810001Y-115678000I-249999J0D01*
G01*
X85909999Y-115678000D01*
G75*
G02*
X85660000Y-115428001I0J249999D01*
G01*
X85660000Y-114727999D01*
G75*
G02*
X85909999Y-114478000I249999J0D01*
G01*
G37*
%TD*%
%TO.C,R17*%
G36*
G01*
X106114001Y-110852000D02*
X105213999Y-110852000D01*
G75*
G02*
X104964000Y-110602001I0J249999D01*
G01*
X104964000Y-109901999D01*
G75*
G02*
X105213999Y-109652000I249999J0D01*
G01*
X106114001Y-109652000D01*
G75*
G02*
X106364000Y-109901999I0J-249999D01*
G01*
X106364000Y-110602001D01*
G75*
G02*
X106114001Y-110852000I-249999J0D01*
G01*
G37*
G36*
G01*
X106114001Y-112852000D02*
X105213999Y-112852000D01*
G75*
G02*
X104964000Y-112602001I0J249999D01*
G01*
X104964000Y-111901999D01*
G75*
G02*
X105213999Y-111652000I249999J0D01*
G01*
X106114001Y-111652000D01*
G75*
G02*
X106364000Y-111901999I0J-249999D01*
G01*
X106364000Y-112602001D01*
G75*
G02*
X106114001Y-112852000I-249999J0D01*
G01*
G37*
%TD*%
%TO.C,R18*%
G36*
G01*
X91606001Y-112852000D02*
X90705999Y-112852000D01*
G75*
G02*
X90456000Y-112602001I0J249999D01*
G01*
X90456000Y-111901999D01*
G75*
G02*
X90705999Y-111652000I249999J0D01*
G01*
X91606001Y-111652000D01*
G75*
G02*
X91856000Y-111901999I0J-249999D01*
G01*
X91856000Y-112602001D01*
G75*
G02*
X91606001Y-112852000I-249999J0D01*
G01*
G37*
G36*
G01*
X91606001Y-110852000D02*
X90705999Y-110852000D01*
G75*
G02*
X90456000Y-110602001I0J249999D01*
G01*
X90456000Y-109901999D01*
G75*
G02*
X90705999Y-109652000I249999J0D01*
G01*
X91606001Y-109652000D01*
G75*
G02*
X91856000Y-109901999I0J-249999D01*
G01*
X91856000Y-110602001D01*
G75*
G02*
X91606001Y-110852000I-249999J0D01*
G01*
G37*
%TD*%
D25*
%TO.C,U6*%
X220091000Y-117246000D03*
D26*
X220091000Y-123546000D03*
X222391000Y-123546000D03*
X217791000Y-123546000D03*
%TD*%
%TO.C,U7*%
X233031000Y-123546000D03*
X237631000Y-123546000D03*
X235331000Y-123546000D03*
D25*
X235331000Y-117246000D03*
%TD*%
%TO.C,U8*%
G36*
G01*
X83952000Y-122532000D02*
X83952000Y-122832000D01*
G75*
G02*
X83802000Y-122982000I-150000J0D01*
G01*
X82127000Y-122982000D01*
G75*
G02*
X81977000Y-122832000I0J150000D01*
G01*
X81977000Y-122532000D01*
G75*
G02*
X82127000Y-122382000I150000J0D01*
G01*
X83802000Y-122382000D01*
G75*
G02*
X83952000Y-122532000I0J-150000D01*
G01*
G37*
G36*
G01*
X83952000Y-121262000D02*
X83952000Y-121562000D01*
G75*
G02*
X83802000Y-121712000I-150000J0D01*
G01*
X82127000Y-121712000D01*
G75*
G02*
X81977000Y-121562000I0J150000D01*
G01*
X81977000Y-121262000D01*
G75*
G02*
X82127000Y-121112000I150000J0D01*
G01*
X83802000Y-121112000D01*
G75*
G02*
X83952000Y-121262000I0J-150000D01*
G01*
G37*
G36*
G01*
X83952000Y-119992000D02*
X83952000Y-120292000D01*
G75*
G02*
X83802000Y-120442000I-150000J0D01*
G01*
X82127000Y-120442000D01*
G75*
G02*
X81977000Y-120292000I0J150000D01*
G01*
X81977000Y-119992000D01*
G75*
G02*
X82127000Y-119842000I150000J0D01*
G01*
X83802000Y-119842000D01*
G75*
G02*
X83952000Y-119992000I0J-150000D01*
G01*
G37*
G36*
G01*
X83952000Y-118722000D02*
X83952000Y-119022000D01*
G75*
G02*
X83802000Y-119172000I-150000J0D01*
G01*
X82127000Y-119172000D01*
G75*
G02*
X81977000Y-119022000I0J150000D01*
G01*
X81977000Y-118722000D01*
G75*
G02*
X82127000Y-118572000I150000J0D01*
G01*
X83802000Y-118572000D01*
G75*
G02*
X83952000Y-118722000I0J-150000D01*
G01*
G37*
G36*
G01*
X83952000Y-117452000D02*
X83952000Y-117752000D01*
G75*
G02*
X83802000Y-117902000I-150000J0D01*
G01*
X82127000Y-117902000D01*
G75*
G02*
X81977000Y-117752000I0J150000D01*
G01*
X81977000Y-117452000D01*
G75*
G02*
X82127000Y-117302000I150000J0D01*
G01*
X83802000Y-117302000D01*
G75*
G02*
X83952000Y-117452000I0J-150000D01*
G01*
G37*
G36*
G01*
X83952000Y-116182000D02*
X83952000Y-116482000D01*
G75*
G02*
X83802000Y-116632000I-150000J0D01*
G01*
X82127000Y-116632000D01*
G75*
G02*
X81977000Y-116482000I0J150000D01*
G01*
X81977000Y-116182000D01*
G75*
G02*
X82127000Y-116032000I150000J0D01*
G01*
X83802000Y-116032000D01*
G75*
G02*
X83952000Y-116182000I0J-150000D01*
G01*
G37*
G36*
G01*
X83952000Y-114912000D02*
X83952000Y-115212000D01*
G75*
G02*
X83802000Y-115362000I-150000J0D01*
G01*
X82127000Y-115362000D01*
G75*
G02*
X81977000Y-115212000I0J150000D01*
G01*
X81977000Y-114912000D01*
G75*
G02*
X82127000Y-114762000I150000J0D01*
G01*
X83802000Y-114762000D01*
G75*
G02*
X83952000Y-114912000I0J-150000D01*
G01*
G37*
G36*
G01*
X77027000Y-114912000D02*
X77027000Y-115212000D01*
G75*
G02*
X76877000Y-115362000I-150000J0D01*
G01*
X75202000Y-115362000D01*
G75*
G02*
X75052000Y-115212000I0J150000D01*
G01*
X75052000Y-114912000D01*
G75*
G02*
X75202000Y-114762000I150000J0D01*
G01*
X76877000Y-114762000D01*
G75*
G02*
X77027000Y-114912000I0J-150000D01*
G01*
G37*
G36*
G01*
X77027000Y-116182000D02*
X77027000Y-116482000D01*
G75*
G02*
X76877000Y-116632000I-150000J0D01*
G01*
X75202000Y-116632000D01*
G75*
G02*
X75052000Y-116482000I0J150000D01*
G01*
X75052000Y-116182000D01*
G75*
G02*
X75202000Y-116032000I150000J0D01*
G01*
X76877000Y-116032000D01*
G75*
G02*
X77027000Y-116182000I0J-150000D01*
G01*
G37*
G36*
G01*
X77027000Y-117452000D02*
X77027000Y-117752000D01*
G75*
G02*
X76877000Y-117902000I-150000J0D01*
G01*
X75202000Y-117902000D01*
G75*
G02*
X75052000Y-117752000I0J150000D01*
G01*
X75052000Y-117452000D01*
G75*
G02*
X75202000Y-117302000I150000J0D01*
G01*
X76877000Y-117302000D01*
G75*
G02*
X77027000Y-117452000I0J-150000D01*
G01*
G37*
G36*
G01*
X77027000Y-118722000D02*
X77027000Y-119022000D01*
G75*
G02*
X76877000Y-119172000I-150000J0D01*
G01*
X75202000Y-119172000D01*
G75*
G02*
X75052000Y-119022000I0J150000D01*
G01*
X75052000Y-118722000D01*
G75*
G02*
X75202000Y-118572000I150000J0D01*
G01*
X76877000Y-118572000D01*
G75*
G02*
X77027000Y-118722000I0J-150000D01*
G01*
G37*
G36*
G01*
X77027000Y-119992000D02*
X77027000Y-120292000D01*
G75*
G02*
X76877000Y-120442000I-150000J0D01*
G01*
X75202000Y-120442000D01*
G75*
G02*
X75052000Y-120292000I0J150000D01*
G01*
X75052000Y-119992000D01*
G75*
G02*
X75202000Y-119842000I150000J0D01*
G01*
X76877000Y-119842000D01*
G75*
G02*
X77027000Y-119992000I0J-150000D01*
G01*
G37*
G36*
G01*
X77027000Y-121262000D02*
X77027000Y-121562000D01*
G75*
G02*
X76877000Y-121712000I-150000J0D01*
G01*
X75202000Y-121712000D01*
G75*
G02*
X75052000Y-121562000I0J150000D01*
G01*
X75052000Y-121262000D01*
G75*
G02*
X75202000Y-121112000I150000J0D01*
G01*
X76877000Y-121112000D01*
G75*
G02*
X77027000Y-121262000I0J-150000D01*
G01*
G37*
G36*
G01*
X77027000Y-122532000D02*
X77027000Y-122832000D01*
G75*
G02*
X76877000Y-122982000I-150000J0D01*
G01*
X75202000Y-122982000D01*
G75*
G02*
X75052000Y-122832000I0J150000D01*
G01*
X75052000Y-122532000D01*
G75*
G02*
X75202000Y-122382000I150000J0D01*
G01*
X76877000Y-122382000D01*
G75*
G02*
X77027000Y-122532000I0J-150000D01*
G01*
G37*
%TD*%
D27*
%TO.C,D1*%
X163766500Y-131044000D03*
X163766500Y-128544000D03*
%TD*%
%TO.C,C4*%
G36*
G01*
X214585999Y-118084000D02*
X215436001Y-118084000D01*
G75*
G02*
X215686000Y-118333999I0J-249999D01*
G01*
X215686000Y-119409001D01*
G75*
G02*
X215436001Y-119659000I-249999J0D01*
G01*
X214585999Y-119659000D01*
G75*
G02*
X214336000Y-119409001I0J249999D01*
G01*
X214336000Y-118333999D01*
G75*
G02*
X214585999Y-118084000I249999J0D01*
G01*
G37*
G36*
G01*
X214585999Y-120959000D02*
X215436001Y-120959000D01*
G75*
G02*
X215686000Y-121208999I0J-249999D01*
G01*
X215686000Y-122284001D01*
G75*
G02*
X215436001Y-122534000I-249999J0D01*
G01*
X214585999Y-122534000D01*
G75*
G02*
X214336000Y-122284001I0J249999D01*
G01*
X214336000Y-121208999D01*
G75*
G02*
X214585999Y-120959000I249999J0D01*
G01*
G37*
%TD*%
%TO.C,C5*%
G36*
G01*
X229698999Y-121046000D02*
X230549001Y-121046000D01*
G75*
G02*
X230799000Y-121295999I0J-249999D01*
G01*
X230799000Y-122371001D01*
G75*
G02*
X230549001Y-122621000I-249999J0D01*
G01*
X229698999Y-122621000D01*
G75*
G02*
X229449000Y-122371001I0J249999D01*
G01*
X229449000Y-121295999D01*
G75*
G02*
X229698999Y-121046000I249999J0D01*
G01*
G37*
G36*
G01*
X229698999Y-118171000D02*
X230549001Y-118171000D01*
G75*
G02*
X230799000Y-118420999I0J-249999D01*
G01*
X230799000Y-119496001D01*
G75*
G02*
X230549001Y-119746000I-249999J0D01*
G01*
X229698999Y-119746000D01*
G75*
G02*
X229449000Y-119496001I0J249999D01*
G01*
X229449000Y-118420999D01*
G75*
G02*
X229698999Y-118171000I249999J0D01*
G01*
G37*
%TD*%
%TO.C,C8*%
G36*
G01*
X232238999Y-101234000D02*
X233089001Y-101234000D01*
G75*
G02*
X233339000Y-101483999I0J-249999D01*
G01*
X233339000Y-102559001D01*
G75*
G02*
X233089001Y-102809000I-249999J0D01*
G01*
X232238999Y-102809000D01*
G75*
G02*
X231989000Y-102559001I0J249999D01*
G01*
X231989000Y-101483999D01*
G75*
G02*
X232238999Y-101234000I249999J0D01*
G01*
G37*
G36*
G01*
X232238999Y-98359000D02*
X233089001Y-98359000D01*
G75*
G02*
X233339000Y-98608999I0J-249999D01*
G01*
X233339000Y-99684001D01*
G75*
G02*
X233089001Y-99934000I-249999J0D01*
G01*
X232238999Y-99934000D01*
G75*
G02*
X231989000Y-99684001I0J249999D01*
G01*
X231989000Y-98608999D01*
G75*
G02*
X232238999Y-98359000I249999J0D01*
G01*
G37*
%TD*%
%TO.C,C9*%
G36*
G01*
X221316999Y-98359000D02*
X222167001Y-98359000D01*
G75*
G02*
X222417000Y-98608999I0J-249999D01*
G01*
X222417000Y-99684001D01*
G75*
G02*
X222167001Y-99934000I-249999J0D01*
G01*
X221316999Y-99934000D01*
G75*
G02*
X221067000Y-99684001I0J249999D01*
G01*
X221067000Y-98608999D01*
G75*
G02*
X221316999Y-98359000I249999J0D01*
G01*
G37*
G36*
G01*
X221316999Y-101234000D02*
X222167001Y-101234000D01*
G75*
G02*
X222417000Y-101483999I0J-249999D01*
G01*
X222417000Y-102559001D01*
G75*
G02*
X222167001Y-102809000I-249999J0D01*
G01*
X221316999Y-102809000D01*
G75*
G02*
X221067000Y-102559001I0J249999D01*
G01*
X221067000Y-101483999D01*
G75*
G02*
X221316999Y-101234000I249999J0D01*
G01*
G37*
%TD*%
%TO.C,U9*%
G36*
G01*
X223668001Y-98887001D02*
X223668001Y-98587001D01*
G75*
G02*
X223818001Y-98437001I150000J0D01*
G01*
X225468001Y-98437001D01*
G75*
G02*
X225618001Y-98587001I0J-150000D01*
G01*
X225618001Y-98887001D01*
G75*
G02*
X225468001Y-99037001I-150000J0D01*
G01*
X223818001Y-99037001D01*
G75*
G02*
X223668001Y-98887001I0J150000D01*
G01*
G37*
G36*
G01*
X223668001Y-100157001D02*
X223668001Y-99857001D01*
G75*
G02*
X223818001Y-99707001I150000J0D01*
G01*
X225468001Y-99707001D01*
G75*
G02*
X225618001Y-99857001I0J-150000D01*
G01*
X225618001Y-100157001D01*
G75*
G02*
X225468001Y-100307001I-150000J0D01*
G01*
X223818001Y-100307001D01*
G75*
G02*
X223668001Y-100157001I0J150000D01*
G01*
G37*
G36*
G01*
X223668001Y-101427001D02*
X223668001Y-101127001D01*
G75*
G02*
X223818001Y-100977001I150000J0D01*
G01*
X225468001Y-100977001D01*
G75*
G02*
X225618001Y-101127001I0J-150000D01*
G01*
X225618001Y-101427001D01*
G75*
G02*
X225468001Y-101577001I-150000J0D01*
G01*
X223818001Y-101577001D01*
G75*
G02*
X223668001Y-101427001I0J150000D01*
G01*
G37*
G36*
G01*
X223668001Y-102697001D02*
X223668001Y-102397001D01*
G75*
G02*
X223818001Y-102247001I150000J0D01*
G01*
X225468001Y-102247001D01*
G75*
G02*
X225618001Y-102397001I0J-150000D01*
G01*
X225618001Y-102697001D01*
G75*
G02*
X225468001Y-102847001I-150000J0D01*
G01*
X223818001Y-102847001D01*
G75*
G02*
X223668001Y-102697001I0J150000D01*
G01*
G37*
G36*
G01*
X228618001Y-102697001D02*
X228618001Y-102397001D01*
G75*
G02*
X228768001Y-102247001I150000J0D01*
G01*
X230418001Y-102247001D01*
G75*
G02*
X230568001Y-102397001I0J-150000D01*
G01*
X230568001Y-102697001D01*
G75*
G02*
X230418001Y-102847001I-150000J0D01*
G01*
X228768001Y-102847001D01*
G75*
G02*
X228618001Y-102697001I0J150000D01*
G01*
G37*
G36*
G01*
X228618001Y-101427001D02*
X228618001Y-101127001D01*
G75*
G02*
X228768001Y-100977001I150000J0D01*
G01*
X230418001Y-100977001D01*
G75*
G02*
X230568001Y-101127001I0J-150000D01*
G01*
X230568001Y-101427001D01*
G75*
G02*
X230418001Y-101577001I-150000J0D01*
G01*
X228768001Y-101577001D01*
G75*
G02*
X228618001Y-101427001I0J150000D01*
G01*
G37*
G36*
G01*
X228618001Y-100157001D02*
X228618001Y-99857001D01*
G75*
G02*
X228768001Y-99707001I150000J0D01*
G01*
X230418001Y-99707001D01*
G75*
G02*
X230568001Y-99857001I0J-150000D01*
G01*
X230568001Y-100157001D01*
G75*
G02*
X230418001Y-100307001I-150000J0D01*
G01*
X228768001Y-100307001D01*
G75*
G02*
X228618001Y-100157001I0J150000D01*
G01*
G37*
G36*
G01*
X228618001Y-98887001D02*
X228618001Y-98587001D01*
G75*
G02*
X228768001Y-98437001I150000J0D01*
G01*
X230418001Y-98437001D01*
G75*
G02*
X230568001Y-98587001I0J-150000D01*
G01*
X230568001Y-98887001D01*
G75*
G02*
X230418001Y-99037001I-150000J0D01*
G01*
X228768001Y-99037001D01*
G75*
G02*
X228618001Y-98887001I0J150000D01*
G01*
G37*
%TD*%
%TO.C,D7*%
G36*
G01*
X63049999Y-92761000D02*
X63950001Y-92761000D01*
G75*
G02*
X64200000Y-93010999I0J-249999D01*
G01*
X64200000Y-93661001D01*
G75*
G02*
X63950001Y-93911000I-249999J0D01*
G01*
X63049999Y-93911000D01*
G75*
G02*
X62800000Y-93661001I0J249999D01*
G01*
X62800000Y-93010999D01*
G75*
G02*
X63049999Y-92761000I249999J0D01*
G01*
G37*
G36*
G01*
X63049999Y-94811000D02*
X63950001Y-94811000D01*
G75*
G02*
X64200000Y-95060999I0J-249999D01*
G01*
X64200000Y-95711001D01*
G75*
G02*
X63950001Y-95961000I-249999J0D01*
G01*
X63049999Y-95961000D01*
G75*
G02*
X62800000Y-95711001I0J249999D01*
G01*
X62800000Y-95060999D01*
G75*
G02*
X63049999Y-94811000I249999J0D01*
G01*
G37*
%TD*%
%TO.C,R19*%
G36*
G01*
X67379001Y-95961000D02*
X66478999Y-95961000D01*
G75*
G02*
X66229000Y-95711001I0J249999D01*
G01*
X66229000Y-95010999D01*
G75*
G02*
X66478999Y-94761000I249999J0D01*
G01*
X67379001Y-94761000D01*
G75*
G02*
X67629000Y-95010999I0J-249999D01*
G01*
X67629000Y-95711001D01*
G75*
G02*
X67379001Y-95961000I-249999J0D01*
G01*
G37*
G36*
G01*
X67379001Y-93961000D02*
X66478999Y-93961000D01*
G75*
G02*
X66229000Y-93711001I0J249999D01*
G01*
X66229000Y-93010999D01*
G75*
G02*
X66478999Y-92761000I249999J0D01*
G01*
X67379001Y-92761000D01*
G75*
G02*
X67629000Y-93010999I0J-249999D01*
G01*
X67629000Y-93711001D01*
G75*
G02*
X67379001Y-93961000I-249999J0D01*
G01*
G37*
%TD*%
D28*
%TO.C,J8*%
X107188000Y-143764000D03*
X107188000Y-150114000D03*
X107188000Y-137414000D03*
X90958000Y-143764000D03*
X90958000Y-150114000D03*
X90958000Y-137414000D03*
%TD*%
%TO.C,J9*%
X69622000Y-137414000D03*
X69622000Y-150114000D03*
X69622000Y-143764000D03*
X85852000Y-137414000D03*
X85852000Y-150114000D03*
X85852000Y-143764000D03*
%TD*%
M02*
