M48
; DRILL file {KiCad (5.1.10)-1} date 06/27/21 19:19:52
; FORMAT={-:-/ absolute / inch / decimal}
; #@! TF.CreationDate,2021-06-27T19:19:52+02:00
; #@! TF.GenerationSoftware,Kicad,Pcbnew,(5.1.10)-1
; #@! TF.FileFunction,Plated,1,2,PTH
FMAT,2
INCH
T1C0.0157
T2C0.0315
T3C0.0394
T4C0.0551
T5C0.0882
T6C0.0988
%
G90
G05
T1
X2.64Y-4.275
X2.69Y-3.9
X2.705Y-4.7
X2.735Y-3.675
X2.84Y-4.12
X2.895Y-3.825
X2.91Y-3.56
X2.94Y-3.45
X3.0024Y-3.6756
X3.16Y-3.49
X3.24Y-3.49
X3.34Y-4.77
X3.35Y-4.83
X3.65Y-4.34
X3.65Y-4.8
X3.8Y-4.87
X3.91Y-4.8
X3.92Y-4.72
X4.01Y-4.19
X4.04Y-4.86
X4.22Y-4.34
X4.26Y-3.9
X4.35Y-3.8
X4.45Y-5.1
X4.47Y-4.86
X4.62Y-3.87
X4.88Y-4.34
X5.0035Y-4.27
X5.08Y-4.64
X5.08Y-4.83
X5.09Y-5.1
X5.12Y-5.0
X5.1265Y-4.0181
X5.13Y-4.29
X5.1768Y-4.9982
X5.19Y-4.68
X5.23Y-4.48
X5.2339Y-4.87
X5.24Y-3.87
X5.2832Y-4.83
X5.33Y-5.02
X5.38Y-4.56
X5.45Y-3.87
X5.47Y-3.94
X5.63Y-5.1
X5.72Y-5.1
X5.97Y-4.56
X6.03Y-4.21
X6.03Y-4.43
X6.11Y-5.06
X6.18Y-3.47
X6.36Y-4.51
X6.42Y-4.86
X6.7663Y-3.5663
X6.85Y-3.6
X6.95Y-3.64
X7.33Y-3.8535
X7.33Y-4.41
X7.34Y-4.54
X7.43Y-3.8535
X7.72Y-3.6
X7.79Y-3.73
X7.8Y-3.64
X7.85Y-5.16
X7.98Y-3.61
X7.98Y-4.15
X7.98Y-4.87
X8.03Y-3.82
X8.13Y-3.67
X8.585Y-4.265
X8.64Y-4.96
X8.645Y-3.905
X8.72Y-4.94
X9.29Y-3.73
X9.31Y-4.94
T2
X3.575Y-3.46
X3.575Y-4.06
X3.675Y-3.46
X3.675Y-4.06
X3.775Y-3.46
X3.775Y-4.06
X3.875Y-3.46
X3.875Y-4.06
X3.975Y-3.46
X3.975Y-4.06
X4.075Y-3.46
X4.075Y-4.06
X4.175Y-3.46
X4.175Y-4.06
X4.275Y-3.46
X4.275Y-4.06
X4.375Y-3.46
X4.375Y-4.06
X4.475Y-3.46
X4.475Y-4.06
X4.575Y-3.46
X4.575Y-4.06
X4.675Y-3.46
X4.675Y-4.06
X4.775Y-3.46
X4.775Y-4.06
X4.875Y-3.46
X4.875Y-4.06
X4.975Y-3.46
X4.975Y-4.06
X5.075Y-3.46
X5.075Y-4.06
X5.175Y-3.46
X5.175Y-4.06
X5.275Y-3.46
X5.275Y-4.06
X5.375Y-3.46
X5.375Y-4.06
X5.475Y-3.46
X5.475Y-4.06
X5.575Y-3.46
X5.575Y-4.06
X5.675Y-3.46
X5.675Y-4.06
X5.775Y-3.46
X5.775Y-4.06
X5.875Y-3.46
X5.875Y-4.06
X7.165Y-5.36
X7.165Y-5.46
X7.165Y-5.56
X7.165Y-5.66
X7.1653Y-4.862
X7.1653Y-4.962
X7.1653Y-5.062
X7.1653Y-5.162
X7.1653Y-5.26
X7.965Y-5.36
X7.965Y-5.46
X7.9653Y-4.962
X7.9653Y-5.062
X7.9653Y-5.162
X7.9653Y-5.262
T3
X7.23Y-3.42
X7.23Y-3.52
X7.33Y-3.42
X7.33Y-3.52
X7.43Y-3.42
X7.43Y-3.52
X7.53Y-3.42
X7.53Y-3.52
X7.63Y-3.42
X7.63Y-3.52
X7.73Y-3.42
X7.73Y-3.52
X7.83Y-3.42
X7.83Y-3.52
X7.93Y-3.42
X7.93Y-3.52
X8.03Y-3.42
X8.03Y-3.52
X8.13Y-3.42
X8.13Y-3.52
X8.46Y-3.42
X8.46Y-3.52
X8.56Y-3.42
X8.56Y-3.52
X8.66Y-3.42
X8.66Y-3.52
X8.76Y-3.42
X8.76Y-3.52
X8.86Y-3.42
X8.86Y-3.52
X8.96Y-3.42
X8.96Y-3.52
X9.06Y-3.42
X9.06Y-3.52
X9.16Y-3.42
X9.16Y-3.52
T4
X2.741Y-5.41
X2.741Y-5.66
X2.741Y-5.91
X3.38Y-5.41
X3.38Y-5.66
X3.38Y-5.91
X3.581Y-5.41
X3.581Y-5.66
X3.581Y-5.91
X4.22Y-5.41
X4.22Y-5.66
X4.22Y-5.91
X4.4197Y-5.5919
X4.5181Y-5.4935
X4.5181Y-5.9856
X4.715Y-5.5919
X4.9119Y-5.4935
X4.9119Y-5.9856
X5.0103Y-5.5919
X5.3197Y-5.5919
X5.4181Y-5.4935
X5.4181Y-5.9856
X5.615Y-5.5919
X5.8119Y-5.4935
X5.8119Y-5.9856
X5.9103Y-5.5919
X6.2197Y-5.5919
X6.3181Y-5.4935
X6.3181Y-5.9856
X6.515Y-5.5919
X6.7119Y-5.4935
X6.7119Y-5.9856
X6.8103Y-5.5919
T5
X8.415Y-5.7028
T6
X8.415Y-5.88
T2
G00X9.0088Y-5.55
M15
G01X9.1112Y-5.55
M16
G05
G00X9.0167Y-5.7783
M15
G01X9.1033Y-5.7783
M16
G05
G00X9.249Y-5.7114
M15
G01X9.249Y-5.6248
M16
G05
T0
M30
