%TF.GenerationSoftware,KiCad,Pcbnew,(6.0.2)*%
%TF.CreationDate,2022-03-06T21:29:11+01:00*%
%TF.ProjectId,xfm2,78666d32-2e6b-4696-9361-645f70636258,rev?*%
%TF.SameCoordinates,Original*%
%TF.FileFunction,Soldermask,Top*%
%TF.FilePolarity,Negative*%
%FSLAX46Y46*%
G04 Gerber Fmt 4.6, Leading zero omitted, Abs format (unit mm)*
G04 Created by KiCad (PCBNEW (6.0.2)) date 2022-03-06 21:29:11*
%MOMM*%
%LPD*%
G01*
G04 APERTURE LIST*
G04 Aperture macros list*
%AMRoundRect*
0 Rectangle with rounded corners*
0 $1 Rounding radius*
0 $2 $3 $4 $5 $6 $7 $8 $9 X,Y pos of 4 corners*
0 Add a 4 corners polygon primitive as box body*
4,1,4,$2,$3,$4,$5,$6,$7,$8,$9,$2,$3,0*
0 Add four circle primitives for the rounded corners*
1,1,$1+$1,$2,$3*
1,1,$1+$1,$4,$5*
1,1,$1+$1,$6,$7*
1,1,$1+$1,$8,$9*
0 Add four rect primitives between the rounded corners*
20,1,$1+$1,$2,$3,$4,$5,0*
20,1,$1+$1,$4,$5,$6,$7,0*
20,1,$1+$1,$6,$7,$8,$9,0*
20,1,$1+$1,$8,$9,$2,$3,0*%
%AMOutline4P*
0 Free polygon, 4 corners , with rotation*
0 The origin of the aperture is its center*
0 number of corners: always 4*
0 $1 to $8 corner X, Y*
0 $9 Rotation angle, in degrees counterclockwise*
0 create outline with 4 corners*
4,1,4,$1,$2,$3,$4,$5,$6,$7,$8,$1,$2,$9*%
G04 Aperture macros list end*
%ADD10RoundRect,0.249999X0.450001X-0.350001X0.450001X0.350001X-0.450001X0.350001X-0.450001X-0.350001X0*%
%ADD11R,1.700000X1.700000*%
%ADD12O,1.700000X1.700000*%
%ADD13R,1.500000X2.000000*%
%ADD14R,3.800000X2.000000*%
%ADD15RoundRect,0.250000X-0.475000X0.337500X-0.475000X-0.337500X0.475000X-0.337500X0.475000X0.337500X0*%
%ADD16R,1.000000X1.000000*%
%ADD17R,4.400000X1.800000*%
%ADD18O,4.000000X1.800000*%
%ADD19O,1.800000X4.000000*%
%ADD20RoundRect,0.249999X-0.450001X0.350001X-0.450001X-0.350001X0.450001X-0.350001X0.450001X0.350001X0*%
%ADD21RoundRect,0.250000X0.475000X-0.337500X0.475000X0.337500X-0.475000X0.337500X-0.475000X-0.337500X0*%
%ADD22C,2.500000*%
%ADD23RoundRect,0.150000X0.150000X-0.650000X0.150000X0.650000X-0.150000X0.650000X-0.150000X-0.650000X0*%
%ADD24R,1.500000X1.780000*%
%ADD25RoundRect,0.150000X-0.150000X0.825000X-0.150000X-0.825000X0.150000X-0.825000X0.150000X0.825000X0*%
%ADD26R,1.600000X2.400000*%
%ADD27O,1.600000X2.400000*%
%ADD28RoundRect,0.249999X-0.450001X0.325001X-0.450001X-0.325001X0.450001X-0.325001X0.450001X0.325001X0*%
%ADD29RoundRect,0.150000X0.837500X0.150000X-0.837500X0.150000X-0.837500X-0.150000X0.837500X-0.150000X0*%
%ADD30RoundRect,0.249999X-0.425001X0.537501X-0.425001X-0.537501X0.425001X-0.537501X0.425001X0.537501X0*%
%ADD31RoundRect,0.150000X-0.825000X-0.150000X0.825000X-0.150000X0.825000X0.150000X-0.825000X0.150000X0*%
%ADD32C,4.500000*%
%ADD33C,3.000000*%
%ADD34RoundRect,0.249999X-0.350001X-0.450001X0.350001X-0.450001X0.350001X0.450001X-0.350001X0.450001X0*%
%ADD35Outline4P,-1.800000X-1.150000X1.800000X-0.550000X1.800000X0.550000X-1.800000X1.150000X270.000000*%
%ADD36Outline4P,-1.800000X-1.150000X1.800000X-0.550000X1.800000X0.550000X-1.800000X1.150000X90.000000*%
%ADD37RoundRect,0.250000X0.337500X0.475000X-0.337500X0.475000X-0.337500X-0.475000X0.337500X-0.475000X0*%
%ADD38RoundRect,0.250000X-0.337500X-0.475000X0.337500X-0.475000X0.337500X0.475000X-0.337500X0.475000X0*%
%ADD39R,0.450000X1.750000*%
%ADD40R,2.400000X1.600000*%
%ADD41O,2.400000X1.600000*%
%ADD42RoundRect,0.249999X0.350001X0.450001X-0.350001X0.450001X-0.350001X-0.450001X0.350001X-0.450001X0*%
%ADD43C,3.765000*%
%ADD44C,3.360000*%
%ADD45RoundRect,0.250000X-0.450000X0.350000X-0.450000X-0.350000X0.450000X-0.350000X0.450000X0.350000X0*%
%ADD46C,0.650000*%
%ADD47R,0.600000X1.150000*%
%ADD48R,0.300000X1.150000*%
%ADD49O,1.050000X2.100000*%
%ADD50O,1.000000X2.000000*%
%ADD51R,0.550000X0.800000*%
G04 APERTURE END LIST*
D10*
%TO.C,R17*%
X91440000Y-123428000D03*
X91440000Y-121428000D03*
%TD*%
%TO.C,R18*%
X91440000Y-115046000D03*
X91440000Y-113046000D03*
%TD*%
D11*
%TO.C,J2*%
X178309010Y-89408000D03*
D12*
X178309010Y-86868000D03*
X180849010Y-89408000D03*
X180849010Y-86868000D03*
X183389010Y-89408000D03*
X183389010Y-86868000D03*
X185929010Y-89408000D03*
X185929010Y-86868000D03*
X188469010Y-89408000D03*
X188469010Y-86868000D03*
X191009010Y-89408000D03*
X191009010Y-86868000D03*
X193549010Y-89408000D03*
X193549010Y-86868000D03*
X196089010Y-89408000D03*
X196089010Y-86868000D03*
X198629010Y-89408000D03*
X198629010Y-86868000D03*
X201169010Y-89408000D03*
X201169010Y-86868000D03*
%TD*%
D13*
%TO.C,U7*%
X233031000Y-123546000D03*
X235331000Y-123546000D03*
D14*
X235331000Y-117246000D03*
D13*
X237631000Y-123546000D03*
%TD*%
D15*
%TO.C,C3*%
X225171000Y-119231500D03*
X225171000Y-121306500D03*
%TD*%
%TO.C,C2*%
X240411000Y-119251500D03*
X240411000Y-121326500D03*
%TD*%
D16*
%TO.C,D1*%
X163766500Y-131044000D03*
X163766500Y-128544000D03*
%TD*%
D17*
%TO.C,J6*%
X230124000Y-140970000D03*
D18*
X230124000Y-146770000D03*
D19*
X234924000Y-143970000D03*
%TD*%
D10*
%TO.C,R2*%
X155194000Y-123428000D03*
X155194000Y-121428000D03*
%TD*%
D20*
%TO.C,R4*%
X144145000Y-128510000D03*
X144145000Y-130510000D03*
%TD*%
D10*
%TO.C,R10*%
X133858000Y-130510000D03*
X133858000Y-128510000D03*
%TD*%
D20*
%TO.C,R9*%
X111760000Y-128510000D03*
X111760000Y-130510000D03*
%TD*%
D15*
%TO.C,FB6*%
X124714000Y-128502500D03*
X124714000Y-130577500D03*
%TD*%
%TO.C,FB5*%
X137668000Y-128502500D03*
X137668000Y-130577500D03*
%TD*%
D21*
%TO.C,FB4*%
X160528000Y-130831500D03*
X160528000Y-128756500D03*
%TD*%
%TO.C,FB3*%
X173482000Y-130853000D03*
X173482000Y-128778000D03*
%TD*%
%TO.C,FB2*%
X114808000Y-130577500D03*
X114808000Y-128502500D03*
%TD*%
D10*
%TO.C,R1*%
X170434000Y-130794000D03*
X170434000Y-128794000D03*
%TD*%
D22*
%TO.C,J3*%
X150121000Y-142034000D03*
X142621000Y-142034000D03*
X135121000Y-142034000D03*
X147621000Y-139534000D03*
X137621000Y-139534000D03*
X147621000Y-152034000D03*
X137621000Y-152034000D03*
%TD*%
D23*
%TO.C,U3*%
X77597000Y-101898000D03*
X78867000Y-101898000D03*
X80137000Y-101898000D03*
X81407000Y-101898000D03*
X81407000Y-94698000D03*
X80137000Y-94698000D03*
X78867000Y-94698000D03*
X77597000Y-94698000D03*
%TD*%
D24*
%TO.C,U1*%
X170373000Y-123444000D03*
X170373000Y-120904000D03*
X170373000Y-118364000D03*
X160843000Y-118364000D03*
X160843000Y-120904000D03*
X160843000Y-123444000D03*
%TD*%
D25*
%TO.C,U5*%
X135382000Y-115889000D03*
X134112000Y-115889000D03*
X132842000Y-115889000D03*
X131572000Y-115889000D03*
X130302000Y-115889000D03*
X129032000Y-115889000D03*
X127762000Y-115889000D03*
X127762000Y-120839000D03*
X129032000Y-120839000D03*
X130302000Y-120839000D03*
X131572000Y-120839000D03*
X132842000Y-120839000D03*
X134112000Y-120839000D03*
X135382000Y-120839000D03*
%TD*%
D20*
%TO.C,R16*%
X87376000Y-113046000D03*
X87376000Y-115046000D03*
%TD*%
%TO.C,R12*%
X97536000Y-113046000D03*
X97536000Y-115046000D03*
%TD*%
D15*
%TO.C,C7*%
X85344000Y-113008500D03*
X85344000Y-115083500D03*
%TD*%
D20*
%TO.C,R11*%
X97536000Y-121428000D03*
X97536000Y-123428000D03*
%TD*%
%TO.C,R14*%
X93472000Y-113046000D03*
X93472000Y-115046000D03*
%TD*%
%TO.C,R13*%
X93472000Y-121428000D03*
X93472000Y-123428000D03*
%TD*%
D21*
%TO.C,C1*%
X221742000Y-149373500D03*
X221742000Y-147298500D03*
%TD*%
D26*
%TO.C,U2*%
X90805000Y-103124000D03*
D27*
X93345000Y-103124000D03*
X95885000Y-103124000D03*
X98425000Y-103124000D03*
X100965000Y-103124000D03*
X103505000Y-103124000D03*
X106045000Y-103124000D03*
X108585000Y-103124000D03*
X111125000Y-103124000D03*
X113665000Y-103124000D03*
X116205000Y-103124000D03*
X118745000Y-103124000D03*
X121285000Y-103124000D03*
X123825000Y-103124000D03*
X126365000Y-103124000D03*
X128905000Y-103124000D03*
X131445000Y-103124000D03*
X133985000Y-103124000D03*
X136525000Y-103124000D03*
X139065000Y-103124000D03*
X141605000Y-103124000D03*
X144145000Y-103124000D03*
X146685000Y-103124000D03*
X149225000Y-103124000D03*
X149225000Y-87884000D03*
X146685000Y-87884000D03*
X144145000Y-87884000D03*
X141605000Y-87884000D03*
X139065000Y-87884000D03*
X136525000Y-87884000D03*
X133985000Y-87884000D03*
X131445000Y-87884000D03*
X128905000Y-87884000D03*
X126365000Y-87884000D03*
X123825000Y-87884000D03*
X121285000Y-87884000D03*
X118745000Y-87884000D03*
X116205000Y-87884000D03*
X113665000Y-87884000D03*
X111125000Y-87884000D03*
X108585000Y-87884000D03*
X106045000Y-87884000D03*
X103505000Y-87884000D03*
X100965000Y-87884000D03*
X98425000Y-87884000D03*
X95885000Y-87884000D03*
X93345000Y-87884000D03*
X90805000Y-87884000D03*
%TD*%
D10*
%TO.C,R7*%
X66929000Y-106718666D03*
X66929000Y-104718666D03*
%TD*%
D28*
%TO.C,D5*%
X63500000Y-99051000D03*
X63500000Y-101101000D03*
%TD*%
D10*
%TO.C,R6*%
X66929000Y-112406332D03*
X66929000Y-110406332D03*
%TD*%
%TO.C,R5*%
X66929000Y-118094000D03*
X66929000Y-116094000D03*
%TD*%
D28*
%TO.C,D4*%
X63500000Y-104738666D03*
X63500000Y-106788666D03*
%TD*%
%TO.C,D2*%
X63500000Y-116114000D03*
X63500000Y-118164000D03*
%TD*%
D22*
%TO.C,J1*%
X172981000Y-142034000D03*
X165481000Y-142034000D03*
X157981000Y-142034000D03*
X170481000Y-139534000D03*
X160481000Y-139534000D03*
X170481000Y-152034000D03*
X160481000Y-152034000D03*
%TD*%
%TO.C,J4*%
X127261000Y-142034000D03*
X119761000Y-142034000D03*
X112261000Y-142034000D03*
X124761000Y-139534000D03*
X114761000Y-139534000D03*
X114761000Y-152034000D03*
X124761000Y-152034000D03*
%TD*%
D21*
%TO.C,FB1*%
X147574000Y-130577500D03*
X147574000Y-128502500D03*
%TD*%
D29*
%TO.C,U8*%
X82964500Y-122682000D03*
X82964500Y-121412000D03*
X82964500Y-120142000D03*
X82964500Y-118872000D03*
X82964500Y-117602000D03*
X82964500Y-116332000D03*
X82964500Y-115062000D03*
X76039500Y-115062000D03*
X76039500Y-116332000D03*
X76039500Y-117602000D03*
X76039500Y-118872000D03*
X76039500Y-120142000D03*
X76039500Y-121412000D03*
X76039500Y-122682000D03*
%TD*%
D28*
%TO.C,D3*%
X63500000Y-110426332D03*
X63500000Y-112476332D03*
%TD*%
D30*
%TO.C,C5*%
X230124000Y-118958500D03*
X230124000Y-121833500D03*
%TD*%
D10*
%TO.C,R8*%
X66929000Y-101031000D03*
X66929000Y-99031000D03*
%TD*%
%TO.C,R3*%
X127762000Y-130510000D03*
X127762000Y-128510000D03*
%TD*%
D13*
%TO.C,U6*%
X217791000Y-123546000D03*
X220091000Y-123546000D03*
D14*
X220091000Y-117246000D03*
D13*
X222391000Y-123546000D03*
%TD*%
D28*
%TO.C,D7*%
X63500000Y-93336000D03*
X63500000Y-95386000D03*
%TD*%
D10*
%TO.C,R19*%
X66929000Y-95361000D03*
X66929000Y-93361000D03*
%TD*%
D31*
%TO.C,U9*%
X220579001Y-98737001D03*
X220579001Y-100007001D03*
X220579001Y-101277001D03*
X220579001Y-102547001D03*
X225529001Y-102547001D03*
X225529001Y-101277001D03*
X225529001Y-100007001D03*
X225529001Y-98737001D03*
%TD*%
D32*
%TO.C,REF\u002A\u002A*%
X64389000Y-86995000D03*
%TD*%
%TO.C,REF\u002A\u002A*%
X64389000Y-151765000D03*
%TD*%
%TO.C,REF\u002A\u002A*%
X239903000Y-151765000D03*
%TD*%
%TO.C,REF\u002A\u002A*%
X239903000Y-86995000D03*
%TD*%
D33*
%TO.C,J8*%
X90958000Y-137414000D03*
X90958000Y-150114000D03*
X90958000Y-143764000D03*
X107188000Y-143764000D03*
X107188000Y-150114000D03*
X107188000Y-137414000D03*
%TD*%
%TO.C,J9*%
X69622000Y-137414000D03*
X69622000Y-143764000D03*
X69622000Y-150114000D03*
X85852000Y-150114000D03*
X85852000Y-143764000D03*
X85852000Y-137414000D03*
%TD*%
D21*
%TO.C,C11*%
X85344000Y-118893500D03*
X85344000Y-116818500D03*
%TD*%
D15*
%TO.C,C8*%
X228600000Y-99546500D03*
X228600000Y-101621500D03*
%TD*%
%TO.C,C9*%
X217678000Y-99546500D03*
X217678000Y-101621500D03*
%TD*%
%TO.C,C14*%
X95504000Y-121390500D03*
X95504000Y-123465500D03*
%TD*%
D21*
%TO.C,C15*%
X95504000Y-115083500D03*
X95504000Y-113008500D03*
%TD*%
%TO.C,C13*%
X89408000Y-123465500D03*
X89408000Y-121390500D03*
%TD*%
%TO.C,C12*%
X89408000Y-115083500D03*
X89408000Y-113008500D03*
%TD*%
%TO.C,C6*%
X85344000Y-123465500D03*
X85344000Y-121390500D03*
%TD*%
D10*
%TO.C,R15*%
X87376000Y-123428000D03*
X87376000Y-121428000D03*
%TD*%
D34*
%TO.C,R21*%
X204536800Y-101701600D03*
X206536800Y-101701600D03*
%TD*%
D10*
%TO.C,R20*%
X169164000Y-88884000D03*
X169164000Y-86884000D03*
%TD*%
D20*
%TO.C,R22*%
X162306000Y-86884000D03*
X162306000Y-88884000D03*
%TD*%
D15*
%TO.C,C17*%
X160274000Y-86846500D03*
X160274000Y-88921500D03*
%TD*%
D35*
%TO.C,D6*%
X233680000Y-129180000D03*
D36*
X233680000Y-134980000D03*
%TD*%
D35*
%TO.C,D9*%
X226060000Y-129180000D03*
D36*
X226060000Y-134980000D03*
%TD*%
D35*
%TO.C,D8*%
X232664000Y-97536000D03*
D36*
X232664000Y-103336000D03*
%TD*%
D37*
%TO.C,C10*%
X198395500Y-141986000D03*
X196320500Y-141986000D03*
%TD*%
D38*
%TO.C,C16*%
X191494500Y-137414000D03*
X193569500Y-137414000D03*
%TD*%
%TO.C,C19*%
X191494500Y-135382000D03*
X193569500Y-135382000D03*
%TD*%
D34*
%TO.C,R24*%
X186960000Y-141986000D03*
X188960000Y-141986000D03*
%TD*%
D10*
%TO.C,R25*%
X183388000Y-151876000D03*
X183388000Y-149876000D03*
%TD*%
D39*
%TO.C,U10*%
X196757000Y-125940000D03*
X196107000Y-125940000D03*
X195457000Y-125940000D03*
X194807000Y-125940000D03*
X194157000Y-125940000D03*
X193507000Y-125940000D03*
X192857000Y-125940000D03*
X192207000Y-125940000D03*
X191557000Y-125940000D03*
X190907000Y-125940000D03*
X190257000Y-125940000D03*
X189607000Y-125940000D03*
X188957000Y-125940000D03*
X188307000Y-125940000D03*
X188307000Y-133140000D03*
X188957000Y-133140000D03*
X189607000Y-133140000D03*
X190257000Y-133140000D03*
X190907000Y-133140000D03*
X191557000Y-133140000D03*
X192207000Y-133140000D03*
X192857000Y-133140000D03*
X193507000Y-133140000D03*
X194157000Y-133140000D03*
X194807000Y-133140000D03*
X195457000Y-133140000D03*
X196107000Y-133140000D03*
X196757000Y-133140000D03*
%TD*%
D40*
%TO.C,U4*%
X181999000Y-123494000D03*
D41*
X181999000Y-126034000D03*
X181999000Y-128574000D03*
X181999000Y-131114000D03*
X181999000Y-133604000D03*
X181991000Y-136144000D03*
X181991000Y-138684000D03*
X181991000Y-141224000D03*
X181991000Y-143764000D03*
X202319000Y-126034000D03*
X202319000Y-128574000D03*
X202319000Y-131114000D03*
X202319000Y-133654000D03*
X202311000Y-136144000D03*
X202311000Y-138684000D03*
%TD*%
D11*
%TO.C,J7*%
X232664000Y-86868000D03*
D12*
X232664000Y-89408000D03*
X230124000Y-86868000D03*
X230124000Y-89408000D03*
X227584000Y-86868000D03*
X227584000Y-89408000D03*
X225044000Y-86868000D03*
X225044000Y-89408000D03*
X222504000Y-86868000D03*
X222504000Y-89408000D03*
X219964000Y-86868000D03*
X219964000Y-89408000D03*
X217424000Y-86868000D03*
X217424000Y-89408000D03*
X214884000Y-86868000D03*
X214884000Y-89408000D03*
%TD*%
D30*
%TO.C,C4*%
X215011000Y-118871500D03*
X215011000Y-121746500D03*
%TD*%
D42*
%TO.C,R23*%
X212074000Y-96570800D03*
X210074000Y-96570800D03*
%TD*%
D37*
%TO.C,C18*%
X206523500Y-105206800D03*
X204448500Y-105206800D03*
%TD*%
D43*
%TO.C,J5*%
X213741000Y-149352000D03*
D44*
X213741000Y-144852000D03*
%TD*%
D15*
%TO.C,C20*%
X197739000Y-117961500D03*
X197739000Y-120036500D03*
%TD*%
%TO.C,C21*%
X195453000Y-117961500D03*
X195453000Y-120036500D03*
%TD*%
D45*
%TO.C,R26*%
X187452000Y-136795000D03*
X187452000Y-138795000D03*
%TD*%
%TO.C,R27*%
X185420000Y-136795000D03*
X185420000Y-138795000D03*
%TD*%
D46*
%TO.C,J10*%
X190404000Y-148085000D03*
X196184000Y-148085000D03*
D47*
X190094000Y-147010000D03*
X190894000Y-147010000D03*
D48*
X192044000Y-147010000D03*
X193044000Y-147010000D03*
X193544000Y-147010000D03*
X194544000Y-147010000D03*
D47*
X196494000Y-147010000D03*
X195694000Y-147010000D03*
D48*
X195044000Y-147010000D03*
X194044000Y-147010000D03*
X192544000Y-147010000D03*
X191544000Y-147010000D03*
D49*
X188974000Y-147585000D03*
D50*
X188974000Y-151765000D03*
X197614000Y-151765000D03*
D49*
X197614000Y-147585000D03*
%TD*%
D35*
%TO.C,D10*%
X220091000Y-106828000D03*
D36*
X220091000Y-112628000D03*
%TD*%
D51*
%TO.C,IC1*%
X164658000Y-86811000D03*
X166558000Y-86811000D03*
X166558000Y-89211000D03*
X165608000Y-89211000D03*
X164658000Y-89211000D03*
%TD*%
%TO.C,IC2*%
X206436000Y-96463000D03*
X205486000Y-96463000D03*
X204536000Y-96463000D03*
X204536000Y-98863000D03*
X206436000Y-98863000D03*
%TD*%
M02*
