%TF.GenerationSoftware,KiCad,Pcbnew,(5.1.10)-1*%
%TF.CreationDate,2021-08-01T12:21:13+02:00*%
%TF.ProjectId,t6963-mega-adapter,74363936-332d-46d6-9567-612d61646170,rev?*%
%TF.SameCoordinates,Original*%
%TF.FileFunction,Other,Fab,Top*%
%FSLAX46Y46*%
G04 Gerber Fmt 4.6, Leading zero omitted, Abs format (unit mm)*
G04 Created by KiCad (PCBNEW (5.1.10)-1) date 2021-08-01 12:21:13*
%MOMM*%
%LPD*%
G01*
G04 APERTURE LIST*
%ADD10C,0.100000*%
%ADD11C,0.150000*%
G04 APERTURE END LIST*
D10*
%TO.C,J1*%
X145415000Y-80010000D02*
X149225000Y-80010000D01*
X149225000Y-80010000D02*
X149225000Y-107950000D01*
X149225000Y-107950000D02*
X144145000Y-107950000D01*
X144145000Y-107950000D02*
X144145000Y-81280000D01*
X144145000Y-81280000D02*
X145415000Y-80010000D01*
%TO.C,RV1*%
X137635000Y-84040000D02*
X127635000Y-84040000D01*
X137635000Y-93840000D02*
X137635000Y-84040000D01*
X127635000Y-93840000D02*
X137635000Y-93840000D01*
X127635000Y-84040000D02*
X127635000Y-93840000D01*
X133685000Y-88940000D02*
G75*
G03*
X133685000Y-88940000I-1050000J0D01*
G01*
%TO.C,RV2*%
X159720000Y-94020000D02*
G75*
G03*
X159720000Y-94020000I-1050000J0D01*
G01*
X153670000Y-89120000D02*
X153670000Y-98920000D01*
X153670000Y-98920000D02*
X163670000Y-98920000D01*
X163670000Y-98920000D02*
X163670000Y-89120000D01*
X163670000Y-89120000D02*
X153670000Y-89120000D01*
%TO.C,RV3*%
X133685000Y-100370000D02*
G75*
G03*
X133685000Y-100370000I-1050000J0D01*
G01*
X127635000Y-95470000D02*
X127635000Y-105270000D01*
X127635000Y-105270000D02*
X137635000Y-105270000D01*
X137635000Y-105270000D02*
X137635000Y-95470000D01*
X137635000Y-95470000D02*
X127635000Y-95470000D01*
%TD*%
%TO.C,P1*%
D11*
X193238380Y-94646476D02*
X192238380Y-94646476D01*
X192238380Y-94408380D01*
X192286000Y-94265523D01*
X192381238Y-94170285D01*
X192476476Y-94122666D01*
X192666952Y-94075047D01*
X192809809Y-94075047D01*
X193000285Y-94122666D01*
X193095523Y-94170285D01*
X193190761Y-94265523D01*
X193238380Y-94408380D01*
X193238380Y-94646476D01*
X193238380Y-93646476D02*
X192571714Y-93646476D01*
X192238380Y-93646476D02*
X192286000Y-93694095D01*
X192333619Y-93646476D01*
X192286000Y-93598857D01*
X192238380Y-93646476D01*
X192333619Y-93646476D01*
X192571714Y-92741714D02*
X193381238Y-92741714D01*
X193476476Y-92789333D01*
X193524095Y-92836952D01*
X193571714Y-92932190D01*
X193571714Y-93075047D01*
X193524095Y-93170285D01*
X193190761Y-92741714D02*
X193238380Y-92836952D01*
X193238380Y-93027428D01*
X193190761Y-93122666D01*
X193143142Y-93170285D01*
X193047904Y-93217904D01*
X192762190Y-93217904D01*
X192666952Y-93170285D01*
X192619333Y-93122666D01*
X192571714Y-93027428D01*
X192571714Y-92836952D01*
X192619333Y-92741714D01*
X193238380Y-92265523D02*
X192571714Y-92265523D01*
X192238380Y-92265523D02*
X192286000Y-92313142D01*
X192333619Y-92265523D01*
X192286000Y-92217904D01*
X192238380Y-92265523D01*
X192333619Y-92265523D01*
X192571714Y-91932190D02*
X192571714Y-91551238D01*
X192238380Y-91789333D02*
X193095523Y-91789333D01*
X193190761Y-91741714D01*
X193238380Y-91646476D01*
X193238380Y-91551238D01*
X193238380Y-90789333D02*
X192714571Y-90789333D01*
X192619333Y-90836952D01*
X192571714Y-90932190D01*
X192571714Y-91122666D01*
X192619333Y-91217904D01*
X193190761Y-90789333D02*
X193238380Y-90884571D01*
X193238380Y-91122666D01*
X193190761Y-91217904D01*
X193095523Y-91265523D01*
X193000285Y-91265523D01*
X192905047Y-91217904D01*
X192857428Y-91122666D01*
X192857428Y-90884571D01*
X192809809Y-90789333D01*
X193238380Y-90170285D02*
X193190761Y-90265523D01*
X193095523Y-90313142D01*
X192238380Y-90313142D01*
%TO.C,P2*%
X138231809Y-115260380D02*
X138231809Y-114260380D01*
X138612761Y-114260380D01*
X138708000Y-114308000D01*
X138755619Y-114355619D01*
X138803238Y-114450857D01*
X138803238Y-114593714D01*
X138755619Y-114688952D01*
X138708000Y-114736571D01*
X138612761Y-114784190D01*
X138231809Y-114784190D01*
X139374666Y-115260380D02*
X139279428Y-115212761D01*
X139231809Y-115165142D01*
X139184190Y-115069904D01*
X139184190Y-114784190D01*
X139231809Y-114688952D01*
X139279428Y-114641333D01*
X139374666Y-114593714D01*
X139517523Y-114593714D01*
X139612761Y-114641333D01*
X139660380Y-114688952D01*
X139708000Y-114784190D01*
X139708000Y-115069904D01*
X139660380Y-115165142D01*
X139612761Y-115212761D01*
X139517523Y-115260380D01*
X139374666Y-115260380D01*
X140041333Y-114593714D02*
X140231809Y-115260380D01*
X140422285Y-114784190D01*
X140612761Y-115260380D01*
X140803238Y-114593714D01*
X141565142Y-115212761D02*
X141469904Y-115260380D01*
X141279428Y-115260380D01*
X141184190Y-115212761D01*
X141136571Y-115117523D01*
X141136571Y-114736571D01*
X141184190Y-114641333D01*
X141279428Y-114593714D01*
X141469904Y-114593714D01*
X141565142Y-114641333D01*
X141612761Y-114736571D01*
X141612761Y-114831809D01*
X141136571Y-114927047D01*
X142041333Y-115260380D02*
X142041333Y-114593714D01*
X142041333Y-114784190D02*
X142088952Y-114688952D01*
X142136571Y-114641333D01*
X142231809Y-114593714D01*
X142327047Y-114593714D01*
%TO.C,P3*%
X160758476Y-114974666D02*
X161234666Y-114974666D01*
X160663238Y-115260380D02*
X160996571Y-114260380D01*
X161329904Y-115260380D01*
X161663238Y-114593714D02*
X161663238Y-115260380D01*
X161663238Y-114688952D02*
X161710857Y-114641333D01*
X161806095Y-114593714D01*
X161948952Y-114593714D01*
X162044190Y-114641333D01*
X162091809Y-114736571D01*
X162091809Y-115260380D01*
X162996571Y-115260380D02*
X162996571Y-114736571D01*
X162948952Y-114641333D01*
X162853714Y-114593714D01*
X162663238Y-114593714D01*
X162568000Y-114641333D01*
X162996571Y-115212761D02*
X162901333Y-115260380D01*
X162663238Y-115260380D01*
X162568000Y-115212761D01*
X162520380Y-115117523D01*
X162520380Y-115022285D01*
X162568000Y-114927047D01*
X162663238Y-114879428D01*
X162901333Y-114879428D01*
X162996571Y-114831809D01*
X163615619Y-115260380D02*
X163520380Y-115212761D01*
X163472761Y-115117523D01*
X163472761Y-114260380D01*
X164139428Y-115260380D02*
X164044190Y-115212761D01*
X163996571Y-115165142D01*
X163948952Y-115069904D01*
X163948952Y-114784190D01*
X163996571Y-114688952D01*
X164044190Y-114641333D01*
X164139428Y-114593714D01*
X164282285Y-114593714D01*
X164377523Y-114641333D01*
X164425142Y-114688952D01*
X164472761Y-114784190D01*
X164472761Y-115069904D01*
X164425142Y-115165142D01*
X164377523Y-115212761D01*
X164282285Y-115260380D01*
X164139428Y-115260380D01*
X165329904Y-114593714D02*
X165329904Y-115403238D01*
X165282285Y-115498476D01*
X165234666Y-115546095D01*
X165139428Y-115593714D01*
X164996571Y-115593714D01*
X164901333Y-115546095D01*
X165329904Y-115212761D02*
X165234666Y-115260380D01*
X165044190Y-115260380D01*
X164948952Y-115212761D01*
X164901333Y-115165142D01*
X164853714Y-115069904D01*
X164853714Y-114784190D01*
X164901333Y-114688952D01*
X164948952Y-114641333D01*
X165044190Y-114593714D01*
X165234666Y-114593714D01*
X165329904Y-114641333D01*
%TO.C,P4*%
X183618476Y-114974666D02*
X184094666Y-114974666D01*
X183523238Y-115260380D02*
X183856571Y-114260380D01*
X184189904Y-115260380D01*
X184523238Y-114593714D02*
X184523238Y-115260380D01*
X184523238Y-114688952D02*
X184570857Y-114641333D01*
X184666095Y-114593714D01*
X184808952Y-114593714D01*
X184904190Y-114641333D01*
X184951809Y-114736571D01*
X184951809Y-115260380D01*
X185856571Y-115260380D02*
X185856571Y-114736571D01*
X185808952Y-114641333D01*
X185713714Y-114593714D01*
X185523238Y-114593714D01*
X185428000Y-114641333D01*
X185856571Y-115212761D02*
X185761333Y-115260380D01*
X185523238Y-115260380D01*
X185428000Y-115212761D01*
X185380380Y-115117523D01*
X185380380Y-115022285D01*
X185428000Y-114927047D01*
X185523238Y-114879428D01*
X185761333Y-114879428D01*
X185856571Y-114831809D01*
X186475619Y-115260380D02*
X186380380Y-115212761D01*
X186332761Y-115117523D01*
X186332761Y-114260380D01*
X186999428Y-115260380D02*
X186904190Y-115212761D01*
X186856571Y-115165142D01*
X186808952Y-115069904D01*
X186808952Y-114784190D01*
X186856571Y-114688952D01*
X186904190Y-114641333D01*
X186999428Y-114593714D01*
X187142285Y-114593714D01*
X187237523Y-114641333D01*
X187285142Y-114688952D01*
X187332761Y-114784190D01*
X187332761Y-115069904D01*
X187285142Y-115165142D01*
X187237523Y-115212761D01*
X187142285Y-115260380D01*
X186999428Y-115260380D01*
X188189904Y-114593714D02*
X188189904Y-115403238D01*
X188142285Y-115498476D01*
X188094666Y-115546095D01*
X187999428Y-115593714D01*
X187856571Y-115593714D01*
X187761333Y-115546095D01*
X188189904Y-115212761D02*
X188094666Y-115260380D01*
X187904190Y-115260380D01*
X187808952Y-115212761D01*
X187761333Y-115165142D01*
X187713714Y-115069904D01*
X187713714Y-114784190D01*
X187761333Y-114688952D01*
X187808952Y-114641333D01*
X187904190Y-114593714D01*
X188094666Y-114593714D01*
X188189904Y-114641333D01*
%TO.C,P5*%
X132199238Y-75636380D02*
X132199238Y-74636380D01*
X132580190Y-74636380D01*
X132675428Y-74684000D01*
X132723047Y-74731619D01*
X132770666Y-74826857D01*
X132770666Y-74969714D01*
X132723047Y-75064952D01*
X132675428Y-75112571D01*
X132580190Y-75160190D01*
X132199238Y-75160190D01*
X133104000Y-74636380D02*
X133342095Y-75636380D01*
X133532571Y-74922095D01*
X133723047Y-75636380D01*
X133961142Y-74636380D01*
X134342095Y-75636380D02*
X134342095Y-74636380D01*
X134675428Y-75350666D01*
X135008761Y-74636380D01*
X135008761Y-75636380D01*
%TO.C,P6*%
X156583238Y-75636380D02*
X156583238Y-74636380D01*
X156964190Y-74636380D01*
X157059428Y-74684000D01*
X157107047Y-74731619D01*
X157154666Y-74826857D01*
X157154666Y-74969714D01*
X157107047Y-75064952D01*
X157059428Y-75112571D01*
X156964190Y-75160190D01*
X156583238Y-75160190D01*
X157488000Y-74636380D02*
X157726095Y-75636380D01*
X157916571Y-74922095D01*
X158107047Y-75636380D01*
X158345142Y-74636380D01*
X158726095Y-75636380D02*
X158726095Y-74636380D01*
X159059428Y-75350666D01*
X159392761Y-74636380D01*
X159392761Y-75636380D01*
%TO.C,P7*%
X175919428Y-75287142D02*
X175871809Y-75334761D01*
X175728952Y-75382380D01*
X175633714Y-75382380D01*
X175490857Y-75334761D01*
X175395619Y-75239523D01*
X175348000Y-75144285D01*
X175300380Y-74953809D01*
X175300380Y-74810952D01*
X175348000Y-74620476D01*
X175395619Y-74525238D01*
X175490857Y-74430000D01*
X175633714Y-74382380D01*
X175728952Y-74382380D01*
X175871809Y-74430000D01*
X175919428Y-74477619D01*
X176490857Y-75382380D02*
X176395619Y-75334761D01*
X176348000Y-75287142D01*
X176300380Y-75191904D01*
X176300380Y-74906190D01*
X176348000Y-74810952D01*
X176395619Y-74763333D01*
X176490857Y-74715714D01*
X176633714Y-74715714D01*
X176728952Y-74763333D01*
X176776571Y-74810952D01*
X176824190Y-74906190D01*
X176824190Y-75191904D01*
X176776571Y-75287142D01*
X176728952Y-75334761D01*
X176633714Y-75382380D01*
X176490857Y-75382380D01*
X177252761Y-75382380D02*
X177252761Y-74715714D01*
X177252761Y-74810952D02*
X177300380Y-74763333D01*
X177395619Y-74715714D01*
X177538476Y-74715714D01*
X177633714Y-74763333D01*
X177681333Y-74858571D01*
X177681333Y-75382380D01*
X177681333Y-74858571D02*
X177728952Y-74763333D01*
X177824190Y-74715714D01*
X177967047Y-74715714D01*
X178062285Y-74763333D01*
X178109904Y-74858571D01*
X178109904Y-75382380D01*
X178586095Y-75382380D02*
X178586095Y-74715714D01*
X178586095Y-74810952D02*
X178633714Y-74763333D01*
X178728952Y-74715714D01*
X178871809Y-74715714D01*
X178967047Y-74763333D01*
X179014666Y-74858571D01*
X179014666Y-75382380D01*
X179014666Y-74858571D02*
X179062285Y-74763333D01*
X179157523Y-74715714D01*
X179300380Y-74715714D01*
X179395619Y-74763333D01*
X179443238Y-74858571D01*
X179443238Y-75382380D01*
X180348000Y-74715714D02*
X180348000Y-75382380D01*
X179919428Y-74715714D02*
X179919428Y-75239523D01*
X179967047Y-75334761D01*
X180062285Y-75382380D01*
X180205142Y-75382380D01*
X180300380Y-75334761D01*
X180348000Y-75287142D01*
X180824190Y-74715714D02*
X180824190Y-75382380D01*
X180824190Y-74810952D02*
X180871809Y-74763333D01*
X180967047Y-74715714D01*
X181109904Y-74715714D01*
X181205142Y-74763333D01*
X181252761Y-74858571D01*
X181252761Y-75382380D01*
X181728952Y-75382380D02*
X181728952Y-74715714D01*
X181728952Y-74382380D02*
X181681333Y-74430000D01*
X181728952Y-74477619D01*
X181776571Y-74430000D01*
X181728952Y-74382380D01*
X181728952Y-74477619D01*
X182633714Y-75334761D02*
X182538476Y-75382380D01*
X182348000Y-75382380D01*
X182252761Y-75334761D01*
X182205142Y-75287142D01*
X182157523Y-75191904D01*
X182157523Y-74906190D01*
X182205142Y-74810952D01*
X182252761Y-74763333D01*
X182348000Y-74715714D01*
X182538476Y-74715714D01*
X182633714Y-74763333D01*
X183490857Y-75382380D02*
X183490857Y-74858571D01*
X183443238Y-74763333D01*
X183348000Y-74715714D01*
X183157523Y-74715714D01*
X183062285Y-74763333D01*
X183490857Y-75334761D02*
X183395619Y-75382380D01*
X183157523Y-75382380D01*
X183062285Y-75334761D01*
X183014666Y-75239523D01*
X183014666Y-75144285D01*
X183062285Y-75049047D01*
X183157523Y-75001428D01*
X183395619Y-75001428D01*
X183490857Y-74953809D01*
X183824190Y-74715714D02*
X184205142Y-74715714D01*
X183967047Y-74382380D02*
X183967047Y-75239523D01*
X184014666Y-75334761D01*
X184109904Y-75382380D01*
X184205142Y-75382380D01*
X184538476Y-75382380D02*
X184538476Y-74715714D01*
X184538476Y-74382380D02*
X184490857Y-74430000D01*
X184538476Y-74477619D01*
X184586095Y-74430000D01*
X184538476Y-74382380D01*
X184538476Y-74477619D01*
X185157523Y-75382380D02*
X185062285Y-75334761D01*
X185014666Y-75287142D01*
X184967047Y-75191904D01*
X184967047Y-74906190D01*
X185014666Y-74810952D01*
X185062285Y-74763333D01*
X185157523Y-74715714D01*
X185300380Y-74715714D01*
X185395619Y-74763333D01*
X185443238Y-74810952D01*
X185490857Y-74906190D01*
X185490857Y-75191904D01*
X185443238Y-75287142D01*
X185395619Y-75334761D01*
X185300380Y-75382380D01*
X185157523Y-75382380D01*
X185919428Y-74715714D02*
X185919428Y-75382380D01*
X185919428Y-74810952D02*
X185967047Y-74763333D01*
X186062285Y-74715714D01*
X186205142Y-74715714D01*
X186300380Y-74763333D01*
X186348000Y-74858571D01*
X186348000Y-75382380D01*
%TO.C,J1*%
X143018333Y-108938571D02*
X143351666Y-108938571D01*
X143494523Y-109462380D02*
X143018333Y-109462380D01*
X143018333Y-108462380D01*
X143494523Y-108462380D01*
X144494523Y-109462380D02*
X144161190Y-108986190D01*
X143923095Y-109462380D02*
X143923095Y-108462380D01*
X144304047Y-108462380D01*
X144399285Y-108510000D01*
X144446904Y-108557619D01*
X144494523Y-108652857D01*
X144494523Y-108795714D01*
X144446904Y-108890952D01*
X144399285Y-108938571D01*
X144304047Y-108986190D01*
X143923095Y-108986190D01*
X144923095Y-109462380D02*
X144923095Y-108462380D01*
X145256428Y-109176666D01*
X145589761Y-108462380D01*
X145589761Y-109462380D01*
X146018333Y-108557619D02*
X146065952Y-108510000D01*
X146161190Y-108462380D01*
X146399285Y-108462380D01*
X146494523Y-108510000D01*
X146542142Y-108557619D01*
X146589761Y-108652857D01*
X146589761Y-108748095D01*
X146542142Y-108890952D01*
X145970714Y-109462380D01*
X146589761Y-109462380D01*
X147446904Y-108795714D02*
X147446904Y-109462380D01*
X147208809Y-108414761D02*
X146970714Y-109129047D01*
X147589761Y-109129047D01*
X148161190Y-108462380D02*
X148256428Y-108462380D01*
X148351666Y-108510000D01*
X148399285Y-108557619D01*
X148446904Y-108652857D01*
X148494523Y-108843333D01*
X148494523Y-109081428D01*
X148446904Y-109271904D01*
X148399285Y-109367142D01*
X148351666Y-109414761D01*
X148256428Y-109462380D01*
X148161190Y-109462380D01*
X148065952Y-109414761D01*
X148018333Y-109367142D01*
X147970714Y-109271904D01*
X147923095Y-109081428D01*
X147923095Y-108843333D01*
X147970714Y-108652857D01*
X148018333Y-108557619D01*
X148065952Y-108510000D01*
X148161190Y-108462380D01*
X149351666Y-108462380D02*
X149161190Y-108462380D01*
X149065952Y-108510000D01*
X149018333Y-108557619D01*
X148923095Y-108700476D01*
X148875476Y-108890952D01*
X148875476Y-109271904D01*
X148923095Y-109367142D01*
X148970714Y-109414761D01*
X149065952Y-109462380D01*
X149256428Y-109462380D01*
X149351666Y-109414761D01*
X149399285Y-109367142D01*
X149446904Y-109271904D01*
X149446904Y-109033809D01*
X149399285Y-108938571D01*
X149351666Y-108890952D01*
X149256428Y-108843333D01*
X149065952Y-108843333D01*
X148970714Y-108890952D01*
X148923095Y-108938571D01*
X148875476Y-109033809D01*
X150304047Y-108795714D02*
X150304047Y-109462380D01*
X150065952Y-108414761D02*
X149827857Y-109129047D01*
X150446904Y-109129047D01*
X146137380Y-94313333D02*
X146851666Y-94313333D01*
X146994523Y-94360952D01*
X147089761Y-94456190D01*
X147137380Y-94599047D01*
X147137380Y-94694285D01*
X147137380Y-93313333D02*
X147137380Y-93884761D01*
X147137380Y-93599047D02*
X146137380Y-93599047D01*
X146280238Y-93694285D01*
X146375476Y-93789523D01*
X146423095Y-93884761D01*
%TO.C,RV1*%
X132039761Y-95542380D02*
X131468333Y-95542380D01*
X131754047Y-95542380D02*
X131754047Y-94542380D01*
X131658809Y-94685238D01*
X131563571Y-94780476D01*
X131468333Y-94828095D01*
X132658809Y-94542380D02*
X132754047Y-94542380D01*
X132849285Y-94590000D01*
X132896904Y-94637619D01*
X132944523Y-94732857D01*
X132992142Y-94923333D01*
X132992142Y-95161428D01*
X132944523Y-95351904D01*
X132896904Y-95447142D01*
X132849285Y-95494761D01*
X132754047Y-95542380D01*
X132658809Y-95542380D01*
X132563571Y-95494761D01*
X132515952Y-95447142D01*
X132468333Y-95351904D01*
X132420714Y-95161428D01*
X132420714Y-94923333D01*
X132468333Y-94732857D01*
X132515952Y-94637619D01*
X132563571Y-94590000D01*
X132658809Y-94542380D01*
X133420714Y-95542380D02*
X133420714Y-94542380D01*
X133515952Y-95161428D02*
X133801666Y-95542380D01*
X133801666Y-94875714D02*
X133420714Y-95256666D01*
X129087380Y-89535238D02*
X128611190Y-89868571D01*
X129087380Y-90106666D02*
X128087380Y-90106666D01*
X128087380Y-89725714D01*
X128135000Y-89630476D01*
X128182619Y-89582857D01*
X128277857Y-89535238D01*
X128420714Y-89535238D01*
X128515952Y-89582857D01*
X128563571Y-89630476D01*
X128611190Y-89725714D01*
X128611190Y-90106666D01*
X128087380Y-89249523D02*
X129087380Y-88916190D01*
X128087380Y-88582857D01*
X129087380Y-87725714D02*
X129087380Y-88297142D01*
X129087380Y-88011428D02*
X128087380Y-88011428D01*
X128230238Y-88106666D01*
X128325476Y-88201904D01*
X128373095Y-88297142D01*
%TO.C,RV2*%
X158550952Y-100622380D02*
X157979523Y-100622380D01*
X158265238Y-100622380D02*
X158265238Y-99622380D01*
X158170000Y-99765238D01*
X158074761Y-99860476D01*
X157979523Y-99908095D01*
X158979523Y-100622380D02*
X158979523Y-99622380D01*
X159074761Y-100241428D02*
X159360476Y-100622380D01*
X159360476Y-99955714D02*
X158979523Y-100336666D01*
X155122380Y-94615238D02*
X154646190Y-94948571D01*
X155122380Y-95186666D02*
X154122380Y-95186666D01*
X154122380Y-94805714D01*
X154170000Y-94710476D01*
X154217619Y-94662857D01*
X154312857Y-94615238D01*
X154455714Y-94615238D01*
X154550952Y-94662857D01*
X154598571Y-94710476D01*
X154646190Y-94805714D01*
X154646190Y-95186666D01*
X154122380Y-94329523D02*
X155122380Y-93996190D01*
X154122380Y-93662857D01*
X154217619Y-93377142D02*
X154170000Y-93329523D01*
X154122380Y-93234285D01*
X154122380Y-92996190D01*
X154170000Y-92900952D01*
X154217619Y-92853333D01*
X154312857Y-92805714D01*
X154408095Y-92805714D01*
X154550952Y-92853333D01*
X155122380Y-93424761D01*
X155122380Y-92805714D01*
%TO.C,RV3*%
X132039761Y-106972380D02*
X131468333Y-106972380D01*
X131754047Y-106972380D02*
X131754047Y-105972380D01*
X131658809Y-106115238D01*
X131563571Y-106210476D01*
X131468333Y-106258095D01*
X132658809Y-105972380D02*
X132754047Y-105972380D01*
X132849285Y-106020000D01*
X132896904Y-106067619D01*
X132944523Y-106162857D01*
X132992142Y-106353333D01*
X132992142Y-106591428D01*
X132944523Y-106781904D01*
X132896904Y-106877142D01*
X132849285Y-106924761D01*
X132754047Y-106972380D01*
X132658809Y-106972380D01*
X132563571Y-106924761D01*
X132515952Y-106877142D01*
X132468333Y-106781904D01*
X132420714Y-106591428D01*
X132420714Y-106353333D01*
X132468333Y-106162857D01*
X132515952Y-106067619D01*
X132563571Y-106020000D01*
X132658809Y-105972380D01*
X133420714Y-106972380D02*
X133420714Y-105972380D01*
X133515952Y-106591428D02*
X133801666Y-106972380D01*
X133801666Y-106305714D02*
X133420714Y-106686666D01*
X129087380Y-100965238D02*
X128611190Y-101298571D01*
X129087380Y-101536666D02*
X128087380Y-101536666D01*
X128087380Y-101155714D01*
X128135000Y-101060476D01*
X128182619Y-101012857D01*
X128277857Y-100965238D01*
X128420714Y-100965238D01*
X128515952Y-101012857D01*
X128563571Y-101060476D01*
X128611190Y-101155714D01*
X128611190Y-101536666D01*
X128087380Y-100679523D02*
X129087380Y-100346190D01*
X128087380Y-100012857D01*
X128087380Y-99774761D02*
X128087380Y-99155714D01*
X128468333Y-99489047D01*
X128468333Y-99346190D01*
X128515952Y-99250952D01*
X128563571Y-99203333D01*
X128658809Y-99155714D01*
X128896904Y-99155714D01*
X128992142Y-99203333D01*
X129039761Y-99250952D01*
X129087380Y-99346190D01*
X129087380Y-99631904D01*
X129039761Y-99727142D01*
X128992142Y-99774761D01*
%TD*%
M02*
