%TF.GenerationSoftware,KiCad,Pcbnew,(5.1.10)-1*%
%TF.CreationDate,2021-08-01T12:21:12+02:00*%
%TF.ProjectId,t6963-mega-adapter,74363936-332d-46d6-9567-612d61646170,rev?*%
%TF.SameCoordinates,Original*%
%TF.FileFunction,Copper,L2,Bot*%
%TF.FilePolarity,Positive*%
%FSLAX46Y46*%
G04 Gerber Fmt 4.6, Leading zero omitted, Abs format (unit mm)*
G04 Created by KiCad (PCBNEW (5.1.10)-1) date 2021-08-01 12:21:12*
%MOMM*%
%LPD*%
G01*
G04 APERTURE LIST*
%TA.AperFunction,ComponentPad*%
%ADD10C,1.727200*%
%TD*%
%TA.AperFunction,ComponentPad*%
%ADD11O,1.727200X1.727200*%
%TD*%
%TA.AperFunction,ComponentPad*%
%ADD12O,1.727200X2.032000*%
%TD*%
%TA.AperFunction,ComponentPad*%
%ADD13C,4.064000*%
%TD*%
%TA.AperFunction,ComponentPad*%
%ADD14R,1.700000X1.700000*%
%TD*%
%TA.AperFunction,ComponentPad*%
%ADD15O,1.700000X1.700000*%
%TD*%
%TA.AperFunction,ComponentPad*%
%ADD16C,2.340000*%
%TD*%
%TA.AperFunction,ViaPad*%
%ADD17C,0.600000*%
%TD*%
%TA.AperFunction,Conductor*%
%ADD18C,0.500000*%
%TD*%
%TA.AperFunction,Conductor*%
%ADD19C,0.250000*%
%TD*%
%TA.AperFunction,Conductor*%
%ADD20C,0.254000*%
%TD*%
%TA.AperFunction,Conductor*%
%ADD21C,0.100000*%
%TD*%
G04 APERTURE END LIST*
D10*
%TO.P,P1,1*%
%TO.N,GND*%
X197358000Y-114046000D03*
D11*
%TO.P,P1,2*%
X199898000Y-114046000D03*
%TO.P,P1,3*%
%TO.N,/52(SCK)*%
X197358000Y-111506000D03*
%TO.P,P1,4*%
%TO.N,/53(SS)*%
X199898000Y-111506000D03*
%TO.P,P1,5*%
%TO.N,/50(MISO)*%
X197358000Y-108966000D03*
%TO.P,P1,6*%
%TO.N,/51(MOSI)*%
X199898000Y-108966000D03*
%TO.P,P1,7*%
%TO.N,/48*%
X197358000Y-106426000D03*
%TO.P,P1,8*%
%TO.N,/49*%
X199898000Y-106426000D03*
%TO.P,P1,9*%
%TO.N,/46*%
X197358000Y-103886000D03*
%TO.P,P1,10*%
%TO.N,/47*%
X199898000Y-103886000D03*
%TO.P,P1,11*%
%TO.N,/44*%
X197358000Y-101346000D03*
%TO.P,P1,12*%
%TO.N,/45*%
X199898000Y-101346000D03*
%TO.P,P1,13*%
%TO.N,/42*%
X197358000Y-98806000D03*
%TO.P,P1,14*%
%TO.N,/43*%
X199898000Y-98806000D03*
%TO.P,P1,15*%
%TO.N,/40*%
X197358000Y-96266000D03*
%TO.P,P1,16*%
%TO.N,/41*%
X199898000Y-96266000D03*
%TO.P,P1,17*%
%TO.N,/38*%
X197358000Y-93726000D03*
%TO.P,P1,18*%
%TO.N,/39*%
X199898000Y-93726000D03*
%TO.P,P1,19*%
%TO.N,/36*%
X197358000Y-91186000D03*
%TO.P,P1,20*%
%TO.N,/37*%
X199898000Y-91186000D03*
%TO.P,P1,21*%
%TO.N,/34*%
X197358000Y-88646000D03*
%TO.P,P1,22*%
%TO.N,/35*%
X199898000Y-88646000D03*
%TO.P,P1,23*%
%TO.N,/32*%
X197358000Y-86106000D03*
%TO.P,P1,24*%
%TO.N,/33*%
X199898000Y-86106000D03*
%TO.P,P1,25*%
%TO.N,/30*%
X197358000Y-83566000D03*
%TO.P,P1,26*%
%TO.N,/31*%
X199898000Y-83566000D03*
%TO.P,P1,27*%
%TO.N,/28*%
X197358000Y-81026000D03*
%TO.P,P1,28*%
%TO.N,/29*%
X199898000Y-81026000D03*
%TO.P,P1,29*%
%TO.N,/26*%
X197358000Y-78486000D03*
%TO.P,P1,30*%
%TO.N,/27*%
X199898000Y-78486000D03*
%TO.P,P1,31*%
%TO.N,/24*%
X197358000Y-75946000D03*
%TO.P,P1,32*%
%TO.N,/25*%
X199898000Y-75946000D03*
%TO.P,P1,33*%
%TO.N,/22*%
X197358000Y-73406000D03*
%TO.P,P1,34*%
%TO.N,/23*%
X199898000Y-73406000D03*
%TO.P,P1,35*%
%TO.N,+5V*%
X197358000Y-70866000D03*
%TO.P,P1,36*%
X199898000Y-70866000D03*
%TD*%
D12*
%TO.P,P2,1*%
%TO.N,Net-(P2-Pad1)*%
X131318000Y-119126000D03*
%TO.P,P2,2*%
%TO.N,/IOREF*%
X133858000Y-119126000D03*
%TO.P,P2,3*%
%TO.N,/Reset*%
X136398000Y-119126000D03*
%TO.P,P2,4*%
%TO.N,+3V3*%
X138938000Y-119126000D03*
%TO.P,P2,5*%
%TO.N,+5V*%
X141478000Y-119126000D03*
%TO.P,P2,6*%
%TO.N,GND*%
X144018000Y-119126000D03*
%TO.P,P2,7*%
X146558000Y-119126000D03*
%TO.P,P2,8*%
%TO.N,/Vin*%
X149098000Y-119126000D03*
%TD*%
%TO.P,P3,1*%
%TO.N,/A0*%
X154178000Y-119126000D03*
%TO.P,P3,2*%
%TO.N,/A1*%
X156718000Y-119126000D03*
%TO.P,P3,3*%
%TO.N,/A2*%
X159258000Y-119126000D03*
%TO.P,P3,4*%
%TO.N,/A3*%
X161798000Y-119126000D03*
%TO.P,P3,5*%
%TO.N,/A4*%
X164338000Y-119126000D03*
%TO.P,P3,6*%
%TO.N,/A5*%
X166878000Y-119126000D03*
%TO.P,P3,7*%
%TO.N,/A6*%
X169418000Y-119126000D03*
%TO.P,P3,8*%
%TO.N,/A7*%
X171958000Y-119126000D03*
%TD*%
%TO.P,P4,1*%
%TO.N,/A8*%
X177038000Y-119126000D03*
%TO.P,P4,2*%
%TO.N,/A9*%
X179578000Y-119126000D03*
%TO.P,P4,3*%
%TO.N,/A10*%
X182118000Y-119126000D03*
%TO.P,P4,4*%
%TO.N,/A11*%
X184658000Y-119126000D03*
%TO.P,P4,5*%
%TO.N,/A12*%
X187198000Y-119126000D03*
%TO.P,P4,6*%
%TO.N,/A13*%
X189738000Y-119126000D03*
%TO.P,P4,7*%
%TO.N,/A14*%
X192278000Y-119126000D03*
%TO.P,P4,8*%
%TO.N,/A15*%
X194818000Y-119126000D03*
%TD*%
%TO.P,P5,1*%
%TO.N,/SCL*%
X122174000Y-70866000D03*
%TO.P,P5,2*%
%TO.N,/SDA*%
X124714000Y-70866000D03*
%TO.P,P5,3*%
%TO.N,/AREF*%
X127254000Y-70866000D03*
%TO.P,P5,4*%
%TO.N,GND*%
X129794000Y-70866000D03*
%TO.P,P5,5*%
%TO.N,/13(\u002A\u002A)*%
X132334000Y-70866000D03*
%TO.P,P5,6*%
%TO.N,/12(\u002A\u002A)*%
X134874000Y-70866000D03*
%TO.P,P5,7*%
%TO.N,/11(\u002A\u002A)*%
X137414000Y-70866000D03*
%TO.P,P5,8*%
%TO.N,/10(\u002A\u002A)*%
X139954000Y-70866000D03*
%TO.P,P5,9*%
%TO.N,/9(\u002A\u002A)*%
X142494000Y-70866000D03*
%TO.P,P5,10*%
%TO.N,/8(\u002A\u002A)*%
X145034000Y-70866000D03*
%TD*%
%TO.P,P6,1*%
%TO.N,/7(\u002A\u002A)*%
X149098000Y-70866000D03*
%TO.P,P6,2*%
%TO.N,/6(\u002A\u002A)*%
X151638000Y-70866000D03*
%TO.P,P6,3*%
%TO.N,/5(\u002A\u002A)*%
X154178000Y-70866000D03*
%TO.P,P6,4*%
%TO.N,/4(\u002A\u002A)*%
X156718000Y-70866000D03*
%TO.P,P6,5*%
%TO.N,/3(\u002A\u002A)*%
X159258000Y-70866000D03*
%TO.P,P6,6*%
%TO.N,/2(\u002A\u002A)*%
X161798000Y-70866000D03*
%TO.P,P6,7*%
%TO.N,/1(Tx0)*%
X164338000Y-70866000D03*
%TO.P,P6,8*%
%TO.N,/0(Rx0)*%
X166878000Y-70866000D03*
%TD*%
%TO.P,P7,1*%
%TO.N,/14(Tx3)*%
X171958000Y-70866000D03*
%TO.P,P7,2*%
%TO.N,/15(Rx3)*%
X174498000Y-70866000D03*
%TO.P,P7,3*%
%TO.N,/16(Tx2)*%
X177038000Y-70866000D03*
%TO.P,P7,4*%
%TO.N,/17(Rx2)*%
X179578000Y-70866000D03*
%TO.P,P7,5*%
%TO.N,/18(Tx1)*%
X182118000Y-70866000D03*
%TO.P,P7,6*%
%TO.N,/19(Rx1)*%
X184658000Y-70866000D03*
%TO.P,P7,7*%
%TO.N,/20(SDA)*%
X187198000Y-70866000D03*
%TO.P,P7,8*%
%TO.N,/21(SCL)*%
X189738000Y-70866000D03*
%TD*%
D13*
%TO.P,P8,1*%
%TO.N,Net-(P8-Pad1)*%
X117348000Y-119126000D03*
%TD*%
%TO.P,P9,1*%
%TO.N,Net-(P9-Pad1)*%
X169418000Y-114046000D03*
%TD*%
%TO.P,P10,1*%
%TO.N,Net-(P10-Pad1)*%
X199898000Y-119126000D03*
%TD*%
%TO.P,P11,1*%
%TO.N,Net-(P11-Pad1)*%
X118618000Y-70866000D03*
%TD*%
%TO.P,P12,1*%
%TO.N,Net-(P12-Pad1)*%
X169418000Y-86106000D03*
%TD*%
%TO.P,P13,1*%
%TO.N,Net-(P13-Pad1)*%
X193548000Y-70866000D03*
%TD*%
D14*
%TO.P,J1,1*%
%TO.N,GND*%
X145415000Y-81280000D03*
D15*
%TO.P,J1,2*%
X147955000Y-81280000D03*
%TO.P,J1,3*%
%TO.N,+5V*%
X145415000Y-83820000D03*
%TO.P,J1,4*%
%TO.N,/V0*%
X147955000Y-83820000D03*
%TO.P,J1,5*%
%TO.N,/17(Rx2)*%
X145415000Y-86360000D03*
%TO.P,J1,6*%
%TO.N,+5V*%
X147955000Y-86360000D03*
%TO.P,J1,7*%
%TO.N,/14(Tx3)*%
X145415000Y-88900000D03*
%TO.P,J1,8*%
%TO.N,/15(Rx3)*%
X147955000Y-88900000D03*
%TO.P,J1,9*%
%TO.N,/NC*%
X145415000Y-91440000D03*
%TO.P,J1,10*%
%TO.N,/16(Tx2)*%
X147955000Y-91440000D03*
%TO.P,J1,11*%
%TO.N,/8(\u002A\u002A)*%
X145415000Y-93980000D03*
%TO.P,J1,12*%
%TO.N,/9(\u002A\u002A)*%
X147955000Y-93980000D03*
%TO.P,J1,13*%
%TO.N,/10(\u002A\u002A)*%
X145415000Y-96520000D03*
%TO.P,J1,14*%
%TO.N,/11(\u002A\u002A)*%
X147955000Y-96520000D03*
%TO.P,J1,15*%
%TO.N,/4(\u002A\u002A)*%
X145415000Y-99060000D03*
%TO.P,J1,16*%
%TO.N,/5(\u002A\u002A)*%
X147955000Y-99060000D03*
%TO.P,J1,17*%
%TO.N,/6(\u002A\u002A)*%
X145415000Y-101600000D03*
%TO.P,J1,18*%
%TO.N,/7(\u002A\u002A)*%
X147955000Y-101600000D03*
%TO.P,J1,19*%
%TO.N,GND*%
X145415000Y-104140000D03*
%TO.P,J1,20*%
%TO.N,/VOUT*%
X147955000Y-104140000D03*
%TO.P,J1,21*%
%TO.N,/LED_A*%
X145415000Y-106680000D03*
%TO.P,J1,22*%
%TO.N,GND*%
X147955000Y-106680000D03*
%TD*%
D16*
%TO.P,RV1,1*%
%TO.N,/VOUT*%
X127635000Y-91440000D03*
%TO.P,RV1,2*%
%TO.N,Net-(RV1-Pad2)*%
X137635000Y-88940000D03*
%TO.P,RV1,3*%
%TO.N,GND*%
X127635000Y-86440000D03*
%TD*%
%TO.P,RV2,3*%
%TO.N,/LED_A*%
X153670000Y-91520000D03*
%TO.P,RV2,2*%
X163670000Y-94020000D03*
%TO.P,RV2,1*%
%TO.N,+5V*%
X153670000Y-96520000D03*
%TD*%
%TO.P,RV3,3*%
%TO.N,GND*%
X127635000Y-97870000D03*
%TO.P,RV3,2*%
%TO.N,/V0*%
X137635000Y-100370000D03*
%TO.P,RV3,1*%
%TO.N,Net-(RV1-Pad2)*%
X127635000Y-102870000D03*
%TD*%
D17*
%TO.N,+5V*%
X157480000Y-115570000D03*
X158115000Y-96520000D03*
X158115000Y-86995000D03*
X190500000Y-90805000D03*
X161925000Y-90805000D03*
%TO.N,/11(\u002A\u002A)*%
X140970000Y-97320003D03*
%TO.N,/10(\u002A\u002A)*%
X140970000Y-96520000D03*
%TO.N,/9(\u002A\u002A)*%
X143510000Y-95250000D03*
%TO.N,/8(\u002A\u002A)*%
X144145000Y-93980000D03*
%TO.N,/7(\u002A\u002A)*%
X149860000Y-101600000D03*
%TO.N,/6(\u002A\u002A)*%
X150495000Y-102235000D03*
%TO.N,/5(\u002A\u002A)*%
X153670000Y-98425000D03*
%TO.N,/4(\u002A\u002A)*%
X155575000Y-97790000D03*
%TO.N,/14(Tx3)*%
X170815000Y-90170000D03*
%TO.N,/15(Rx3)*%
X164465000Y-88900000D03*
%TO.N,/16(Tx2)*%
X175260000Y-81915000D03*
X149860000Y-83185000D03*
%TO.N,/17(Rx2)*%
X177800000Y-83185000D03*
%TO.N,/VOUT*%
X130175000Y-110490000D03*
X152400000Y-109855000D03*
X152400000Y-105410000D03*
%TO.N,/LED_A*%
X161925000Y-108585000D03*
%TO.N,Net-(RV1-Pad2)*%
X135255000Y-102870000D03*
%TD*%
D18*
%TO.N,+5V*%
X145415000Y-83820000D02*
X147955000Y-86360000D01*
X157480000Y-115570000D02*
X159385000Y-113665000D01*
X159385000Y-97790000D02*
X158115000Y-96520000D01*
X159385000Y-113665000D02*
X159385000Y-97790000D01*
X158115000Y-86995000D02*
X159385000Y-88265000D01*
X197358000Y-70866000D02*
X192405000Y-75819000D01*
X192405000Y-88900000D02*
X190500000Y-90805000D01*
X192405000Y-75819000D02*
X192405000Y-88900000D01*
X159385000Y-90805000D02*
X159385000Y-97790000D01*
X161925000Y-90805000D02*
X159385000Y-90805000D01*
X159385000Y-88265000D02*
X159385000Y-90805000D01*
D19*
%TO.N,/11(\u002A\u002A)*%
X140845001Y-97320003D02*
X140970000Y-97320003D01*
X139130001Y-95605003D02*
X140845001Y-97320003D01*
X139130001Y-72582001D02*
X139130001Y-95605003D01*
X137414000Y-70866000D02*
X139130001Y-72582001D01*
%TO.N,/10(\u002A\u002A)*%
X139954000Y-95504000D02*
X140970000Y-96520000D01*
X139954000Y-70866000D02*
X139954000Y-95504000D01*
%TO.N,/9(\u002A\u002A)*%
X142494000Y-94234000D02*
X143510000Y-95250000D01*
X142494000Y-70866000D02*
X142494000Y-94234000D01*
%TO.N,/8(\u002A\u002A)*%
X145034000Y-70866000D02*
X143510000Y-72390000D01*
X143510000Y-93345000D02*
X144145000Y-93980000D01*
X143510000Y-72390000D02*
X143510000Y-93345000D01*
%TO.N,/7(\u002A\u002A)*%
X149098000Y-70866000D02*
X150495000Y-72263000D01*
X150495000Y-100965000D02*
X149860000Y-101600000D01*
X150495000Y-72263000D02*
X150495000Y-100965000D01*
%TO.N,/6(\u002A\u002A)*%
X151638000Y-101092000D02*
X150495000Y-102235000D01*
X151638000Y-70866000D02*
X151638000Y-101092000D01*
%TO.N,/5(\u002A\u002A)*%
X155165001Y-97237601D02*
X153977602Y-98425000D01*
X153977602Y-98425000D02*
X153670000Y-98425000D01*
X155165001Y-71853001D02*
X155165001Y-97237601D01*
X154178000Y-70866000D02*
X155165001Y-71853001D01*
%TO.N,/4(\u002A\u002A)*%
X156718000Y-70866000D02*
X156718000Y-96647000D01*
X156718000Y-96647000D02*
X155575000Y-97790000D01*
%TO.N,/14(Tx3)*%
X171958000Y-70866000D02*
X171958000Y-89027000D01*
X171958000Y-89027000D02*
X170815000Y-90170000D01*
%TO.N,/15(Rx3)*%
X171465662Y-69524990D02*
X166370000Y-74620652D01*
X173156990Y-69524990D02*
X171465662Y-69524990D01*
X174498000Y-70866000D02*
X173156990Y-69524990D01*
X166370000Y-86995000D02*
X164465000Y-88900000D01*
X166370000Y-74620652D02*
X166370000Y-86995000D01*
%TO.N,/16(Tx2)*%
X177038000Y-80137000D02*
X175260000Y-81915000D01*
X177038000Y-70866000D02*
X177038000Y-80137000D01*
X149860000Y-89535000D02*
X147955000Y-91440000D01*
X149860000Y-83185000D02*
X149860000Y-89535000D01*
%TO.N,/17(Rx2)*%
X179578000Y-81407000D02*
X177800000Y-83185000D01*
X179578000Y-70866000D02*
X179578000Y-81407000D01*
D18*
%TO.N,/VOUT*%
X126014999Y-106329999D02*
X130175000Y-110490000D01*
X126014999Y-93060001D02*
X126014999Y-106329999D01*
X127635000Y-91440000D02*
X126014999Y-93060001D01*
X152400000Y-109855000D02*
X152400000Y-105410000D01*
D19*
%TO.N,/LED_A*%
X163670000Y-106840000D02*
X161925000Y-108585000D01*
X163670000Y-94020000D02*
X163670000Y-106840000D01*
%TO.N,Net-(RV1-Pad2)*%
X136139999Y-101985001D02*
X135255000Y-102870000D01*
X136139999Y-90435001D02*
X136139999Y-101985001D01*
X137635000Y-88940000D02*
X136139999Y-90435001D01*
%TD*%
D20*
%TO.N,GND*%
X116546406Y-69165887D02*
X116254536Y-69602702D01*
X116053492Y-70088065D01*
X115951000Y-70603323D01*
X115951000Y-71128677D01*
X116053492Y-71643935D01*
X116254536Y-72129298D01*
X116546406Y-72566113D01*
X116917887Y-72937594D01*
X117354702Y-73229464D01*
X117840065Y-73430508D01*
X118355323Y-73533000D01*
X118880677Y-73533000D01*
X119395935Y-73430508D01*
X119881298Y-73229464D01*
X120318113Y-72937594D01*
X120689594Y-72566113D01*
X120981464Y-72129298D01*
X121037001Y-71995219D01*
X121109203Y-72083197D01*
X121337395Y-72270469D01*
X121597737Y-72409625D01*
X121880224Y-72495316D01*
X122174000Y-72524251D01*
X122467777Y-72495316D01*
X122750264Y-72409625D01*
X123010606Y-72270469D01*
X123238797Y-72083197D01*
X123426069Y-71855006D01*
X123444000Y-71821459D01*
X123461931Y-71855006D01*
X123649203Y-72083197D01*
X123877395Y-72270469D01*
X124137737Y-72409625D01*
X124420224Y-72495316D01*
X124714000Y-72524251D01*
X125007777Y-72495316D01*
X125290264Y-72409625D01*
X125550606Y-72270469D01*
X125778797Y-72083197D01*
X125966069Y-71855006D01*
X125984000Y-71821459D01*
X126001931Y-71855006D01*
X126189203Y-72083197D01*
X126417395Y-72270469D01*
X126677737Y-72409625D01*
X126960224Y-72495316D01*
X127254000Y-72524251D01*
X127547777Y-72495316D01*
X127830264Y-72409625D01*
X128090606Y-72270469D01*
X128318797Y-72083197D01*
X128506069Y-71855006D01*
X128527424Y-71815053D01*
X128675514Y-72017729D01*
X128891965Y-72216733D01*
X129143081Y-72369686D01*
X129419211Y-72470709D01*
X129434974Y-72473358D01*
X129667000Y-72352217D01*
X129667000Y-70993000D01*
X129647000Y-70993000D01*
X129647000Y-70739000D01*
X129667000Y-70739000D01*
X129667000Y-69379783D01*
X129434974Y-69258642D01*
X129419211Y-69261291D01*
X129143081Y-69362314D01*
X128891965Y-69515267D01*
X128675514Y-69714271D01*
X128527424Y-69916947D01*
X128506069Y-69876994D01*
X128318797Y-69648803D01*
X128090605Y-69461531D01*
X127830263Y-69322375D01*
X127547776Y-69236684D01*
X127254000Y-69207749D01*
X126960223Y-69236684D01*
X126677736Y-69322375D01*
X126417394Y-69461531D01*
X126189203Y-69648803D01*
X126001931Y-69876995D01*
X125984000Y-69910541D01*
X125966069Y-69876994D01*
X125778797Y-69648803D01*
X125550605Y-69461531D01*
X125290263Y-69322375D01*
X125007776Y-69236684D01*
X124714000Y-69207749D01*
X124420223Y-69236684D01*
X124137736Y-69322375D01*
X123877394Y-69461531D01*
X123649203Y-69648803D01*
X123461931Y-69876995D01*
X123444000Y-69910541D01*
X123426069Y-69876994D01*
X123238797Y-69648803D01*
X123010605Y-69461531D01*
X122750263Y-69322375D01*
X122467776Y-69236684D01*
X122174000Y-69207749D01*
X121880223Y-69236684D01*
X121597736Y-69322375D01*
X121337394Y-69461531D01*
X121109203Y-69648803D01*
X121037001Y-69736781D01*
X120981464Y-69602702D01*
X120689594Y-69165887D01*
X120559707Y-69036000D01*
X170879850Y-69036000D01*
X168209558Y-71706293D01*
X168269225Y-71594663D01*
X168354916Y-71312176D01*
X168376600Y-71092018D01*
X168376600Y-70639981D01*
X168354916Y-70419823D01*
X168269225Y-70137336D01*
X168130069Y-69876994D01*
X167942797Y-69648803D01*
X167714605Y-69461531D01*
X167454263Y-69322375D01*
X167171776Y-69236684D01*
X166878000Y-69207749D01*
X166584223Y-69236684D01*
X166301736Y-69322375D01*
X166041394Y-69461531D01*
X165813203Y-69648803D01*
X165625931Y-69876995D01*
X165608000Y-69910541D01*
X165590069Y-69876994D01*
X165402797Y-69648803D01*
X165174605Y-69461531D01*
X164914263Y-69322375D01*
X164631776Y-69236684D01*
X164338000Y-69207749D01*
X164044223Y-69236684D01*
X163761736Y-69322375D01*
X163501394Y-69461531D01*
X163273203Y-69648803D01*
X163085931Y-69876995D01*
X163068000Y-69910541D01*
X163050069Y-69876994D01*
X162862797Y-69648803D01*
X162634605Y-69461531D01*
X162374263Y-69322375D01*
X162091776Y-69236684D01*
X161798000Y-69207749D01*
X161504223Y-69236684D01*
X161221736Y-69322375D01*
X160961394Y-69461531D01*
X160733203Y-69648803D01*
X160545931Y-69876995D01*
X160528000Y-69910541D01*
X160510069Y-69876994D01*
X160322797Y-69648803D01*
X160094605Y-69461531D01*
X159834263Y-69322375D01*
X159551776Y-69236684D01*
X159258000Y-69207749D01*
X158964223Y-69236684D01*
X158681736Y-69322375D01*
X158421394Y-69461531D01*
X158193203Y-69648803D01*
X158005931Y-69876995D01*
X157988000Y-69910541D01*
X157970069Y-69876994D01*
X157782797Y-69648803D01*
X157554605Y-69461531D01*
X157294263Y-69322375D01*
X157011776Y-69236684D01*
X156718000Y-69207749D01*
X156424223Y-69236684D01*
X156141736Y-69322375D01*
X155881394Y-69461531D01*
X155653203Y-69648803D01*
X155465931Y-69876995D01*
X155448000Y-69910541D01*
X155430069Y-69876994D01*
X155242797Y-69648803D01*
X155014605Y-69461531D01*
X154754263Y-69322375D01*
X154471776Y-69236684D01*
X154178000Y-69207749D01*
X153884223Y-69236684D01*
X153601736Y-69322375D01*
X153341394Y-69461531D01*
X153113203Y-69648803D01*
X152925931Y-69876995D01*
X152908000Y-69910541D01*
X152890069Y-69876994D01*
X152702797Y-69648803D01*
X152474605Y-69461531D01*
X152214263Y-69322375D01*
X151931776Y-69236684D01*
X151638000Y-69207749D01*
X151344223Y-69236684D01*
X151061736Y-69322375D01*
X150801394Y-69461531D01*
X150573203Y-69648803D01*
X150385931Y-69876995D01*
X150368000Y-69910541D01*
X150350069Y-69876994D01*
X150162797Y-69648803D01*
X149934605Y-69461531D01*
X149674263Y-69322375D01*
X149391776Y-69236684D01*
X149098000Y-69207749D01*
X148804223Y-69236684D01*
X148521736Y-69322375D01*
X148261394Y-69461531D01*
X148033203Y-69648803D01*
X147845931Y-69876995D01*
X147706775Y-70137337D01*
X147621084Y-70419824D01*
X147599400Y-70639982D01*
X147599400Y-71092019D01*
X147621084Y-71312177D01*
X147706775Y-71594664D01*
X147845931Y-71855006D01*
X148033203Y-72083197D01*
X148261395Y-72270469D01*
X148521737Y-72409625D01*
X148804224Y-72495316D01*
X149098000Y-72524251D01*
X149391777Y-72495316D01*
X149591829Y-72434631D01*
X149735000Y-72577802D01*
X149735000Y-82256546D01*
X149587271Y-82285932D01*
X149417111Y-82356414D01*
X149263972Y-82458738D01*
X149133738Y-82588972D01*
X149031414Y-82742111D01*
X149015540Y-82780433D01*
X148901632Y-82666525D01*
X148719466Y-82544805D01*
X148836355Y-82475178D01*
X149052588Y-82280269D01*
X149226641Y-82046920D01*
X149351825Y-81784099D01*
X149396476Y-81636890D01*
X149275155Y-81407000D01*
X148082000Y-81407000D01*
X148082000Y-81427000D01*
X147828000Y-81427000D01*
X147828000Y-81407000D01*
X145542000Y-81407000D01*
X145542000Y-81427000D01*
X145288000Y-81427000D01*
X145288000Y-81407000D01*
X145268000Y-81407000D01*
X145268000Y-81153000D01*
X145288000Y-81153000D01*
X145288000Y-79953750D01*
X145542000Y-79953750D01*
X145542000Y-81153000D01*
X147828000Y-81153000D01*
X147828000Y-79959186D01*
X148082000Y-79959186D01*
X148082000Y-81153000D01*
X149275155Y-81153000D01*
X149396476Y-80923110D01*
X149351825Y-80775901D01*
X149226641Y-80513080D01*
X149052588Y-80279731D01*
X148836355Y-80084822D01*
X148586252Y-79935843D01*
X148311891Y-79838519D01*
X148082000Y-79959186D01*
X147828000Y-79959186D01*
X147598109Y-79838519D01*
X147323748Y-79935843D01*
X147073645Y-80084822D01*
X146877498Y-80261626D01*
X146854502Y-80185820D01*
X146795537Y-80075506D01*
X146716185Y-79978815D01*
X146619494Y-79899463D01*
X146509180Y-79840498D01*
X146389482Y-79804188D01*
X146265000Y-79791928D01*
X145700750Y-79795000D01*
X145542000Y-79953750D01*
X145288000Y-79953750D01*
X145129250Y-79795000D01*
X144565000Y-79791928D01*
X144440518Y-79804188D01*
X144320820Y-79840498D01*
X144270000Y-79867662D01*
X144270000Y-72704801D01*
X144540171Y-72434631D01*
X144740224Y-72495316D01*
X145034000Y-72524251D01*
X145327777Y-72495316D01*
X145610264Y-72409625D01*
X145870606Y-72270469D01*
X146098797Y-72083197D01*
X146286069Y-71855006D01*
X146425225Y-71594663D01*
X146510916Y-71312176D01*
X146532600Y-71092018D01*
X146532600Y-70639981D01*
X146510916Y-70419823D01*
X146425225Y-70137336D01*
X146286069Y-69876994D01*
X146098797Y-69648803D01*
X145870605Y-69461531D01*
X145610263Y-69322375D01*
X145327776Y-69236684D01*
X145034000Y-69207749D01*
X144740223Y-69236684D01*
X144457736Y-69322375D01*
X144197394Y-69461531D01*
X143969203Y-69648803D01*
X143781931Y-69876995D01*
X143764000Y-69910541D01*
X143746069Y-69876994D01*
X143558797Y-69648803D01*
X143330605Y-69461531D01*
X143070263Y-69322375D01*
X142787776Y-69236684D01*
X142494000Y-69207749D01*
X142200223Y-69236684D01*
X141917736Y-69322375D01*
X141657394Y-69461531D01*
X141429203Y-69648803D01*
X141241931Y-69876995D01*
X141224000Y-69910541D01*
X141206069Y-69876994D01*
X141018797Y-69648803D01*
X140790605Y-69461531D01*
X140530263Y-69322375D01*
X140247776Y-69236684D01*
X139954000Y-69207749D01*
X139660223Y-69236684D01*
X139377736Y-69322375D01*
X139117394Y-69461531D01*
X138889203Y-69648803D01*
X138701931Y-69876995D01*
X138684000Y-69910541D01*
X138666069Y-69876994D01*
X138478797Y-69648803D01*
X138250605Y-69461531D01*
X137990263Y-69322375D01*
X137707776Y-69236684D01*
X137414000Y-69207749D01*
X137120223Y-69236684D01*
X136837736Y-69322375D01*
X136577394Y-69461531D01*
X136349203Y-69648803D01*
X136161931Y-69876995D01*
X136144000Y-69910541D01*
X136126069Y-69876994D01*
X135938797Y-69648803D01*
X135710605Y-69461531D01*
X135450263Y-69322375D01*
X135167776Y-69236684D01*
X134874000Y-69207749D01*
X134580223Y-69236684D01*
X134297736Y-69322375D01*
X134037394Y-69461531D01*
X133809203Y-69648803D01*
X133621931Y-69876995D01*
X133604000Y-69910541D01*
X133586069Y-69876994D01*
X133398797Y-69648803D01*
X133170605Y-69461531D01*
X132910263Y-69322375D01*
X132627776Y-69236684D01*
X132334000Y-69207749D01*
X132040223Y-69236684D01*
X131757736Y-69322375D01*
X131497394Y-69461531D01*
X131269203Y-69648803D01*
X131081931Y-69876995D01*
X131060576Y-69916947D01*
X130912486Y-69714271D01*
X130696035Y-69515267D01*
X130444919Y-69362314D01*
X130168789Y-69261291D01*
X130153026Y-69258642D01*
X129921000Y-69379783D01*
X129921000Y-70739000D01*
X129941000Y-70739000D01*
X129941000Y-70993000D01*
X129921000Y-70993000D01*
X129921000Y-72352217D01*
X130153026Y-72473358D01*
X130168789Y-72470709D01*
X130444919Y-72369686D01*
X130696035Y-72216733D01*
X130912486Y-72017729D01*
X131060576Y-71815053D01*
X131081931Y-71855006D01*
X131269203Y-72083197D01*
X131497395Y-72270469D01*
X131757737Y-72409625D01*
X132040224Y-72495316D01*
X132334000Y-72524251D01*
X132627777Y-72495316D01*
X132910264Y-72409625D01*
X133170606Y-72270469D01*
X133398797Y-72083197D01*
X133586069Y-71855006D01*
X133604000Y-71821459D01*
X133621931Y-71855006D01*
X133809203Y-72083197D01*
X134037395Y-72270469D01*
X134297737Y-72409625D01*
X134580224Y-72495316D01*
X134874000Y-72524251D01*
X135167777Y-72495316D01*
X135450264Y-72409625D01*
X135710606Y-72270469D01*
X135938797Y-72083197D01*
X136126069Y-71855006D01*
X136144000Y-71821459D01*
X136161931Y-71855006D01*
X136349203Y-72083197D01*
X136577395Y-72270469D01*
X136837737Y-72409625D01*
X137120224Y-72495316D01*
X137414000Y-72524251D01*
X137707777Y-72495316D01*
X137907829Y-72434631D01*
X138370001Y-72896803D01*
X138370002Y-87290729D01*
X138161499Y-87204365D01*
X137812777Y-87135000D01*
X137457223Y-87135000D01*
X137108501Y-87204365D01*
X136780012Y-87340429D01*
X136484379Y-87537965D01*
X136232965Y-87789379D01*
X136035429Y-88085012D01*
X135899365Y-88413501D01*
X135830000Y-88762223D01*
X135830000Y-89117777D01*
X135899365Y-89466499D01*
X135938711Y-89561488D01*
X135629002Y-89871197D01*
X135599998Y-89895000D01*
X135568973Y-89932805D01*
X135505025Y-90010725D01*
X135434454Y-90142754D01*
X135434453Y-90142755D01*
X135390996Y-90286016D01*
X135379999Y-90397669D01*
X135379999Y-90397679D01*
X135376323Y-90435001D01*
X135379999Y-90472323D01*
X135380000Y-101670198D01*
X135103351Y-101946847D01*
X134982271Y-101970932D01*
X134812111Y-102041414D01*
X134658972Y-102143738D01*
X134528738Y-102273972D01*
X134426414Y-102427111D01*
X134355932Y-102597271D01*
X134320000Y-102777911D01*
X134320000Y-102962089D01*
X134355932Y-103142729D01*
X134426414Y-103312889D01*
X134528738Y-103466028D01*
X134658972Y-103596262D01*
X134812111Y-103698586D01*
X134982271Y-103769068D01*
X135162911Y-103805000D01*
X135347089Y-103805000D01*
X135527729Y-103769068D01*
X135697889Y-103698586D01*
X135851028Y-103596262D01*
X135981262Y-103466028D01*
X136083586Y-103312889D01*
X136154068Y-103142729D01*
X136178153Y-103021649D01*
X136651002Y-102548800D01*
X136680000Y-102525002D01*
X136774973Y-102409277D01*
X136845545Y-102277248D01*
X136889002Y-102133987D01*
X136899999Y-102022334D01*
X136900289Y-102019391D01*
X137108501Y-102105635D01*
X137457223Y-102175000D01*
X137812777Y-102175000D01*
X138161499Y-102105635D01*
X138489988Y-101969571D01*
X138785621Y-101772035D01*
X139037035Y-101520621D01*
X139234571Y-101224988D01*
X139370635Y-100896499D01*
X139440000Y-100547777D01*
X139440000Y-100192223D01*
X139370635Y-99843501D01*
X139234571Y-99515012D01*
X139037035Y-99219379D01*
X138785621Y-98967965D01*
X138489988Y-98770429D01*
X138161499Y-98634365D01*
X137812777Y-98565000D01*
X137457223Y-98565000D01*
X137108501Y-98634365D01*
X136899999Y-98720729D01*
X136899999Y-90749802D01*
X137013512Y-90636289D01*
X137108501Y-90675635D01*
X137457223Y-90745000D01*
X137812777Y-90745000D01*
X138161499Y-90675635D01*
X138370002Y-90589271D01*
X138370002Y-95567670D01*
X138366325Y-95605003D01*
X138370002Y-95642336D01*
X138380999Y-95753989D01*
X138389068Y-95780590D01*
X138424455Y-95897249D01*
X138495027Y-96029279D01*
X138549557Y-96095723D01*
X138590001Y-96145004D01*
X138618999Y-96168802D01*
X140090733Y-97640537D01*
X140141414Y-97762892D01*
X140243738Y-97916031D01*
X140373972Y-98046265D01*
X140527111Y-98148589D01*
X140697271Y-98219071D01*
X140877911Y-98255003D01*
X141062089Y-98255003D01*
X141242729Y-98219071D01*
X141412889Y-98148589D01*
X141566028Y-98046265D01*
X141696262Y-97916031D01*
X141798586Y-97762892D01*
X141869068Y-97592732D01*
X141905000Y-97412092D01*
X141905000Y-97227914D01*
X141869068Y-97047274D01*
X141816350Y-96920002D01*
X141869068Y-96792729D01*
X141905000Y-96612089D01*
X141905000Y-96427911D01*
X141869068Y-96247271D01*
X141798586Y-96077111D01*
X141696262Y-95923972D01*
X141566028Y-95793738D01*
X141412889Y-95691414D01*
X141242729Y-95620932D01*
X141121649Y-95596847D01*
X140714000Y-95189199D01*
X140714000Y-72311416D01*
X140790606Y-72270469D01*
X141018797Y-72083197D01*
X141206069Y-71855006D01*
X141224000Y-71821459D01*
X141241931Y-71855006D01*
X141429203Y-72083197D01*
X141657395Y-72270469D01*
X141734000Y-72311415D01*
X141734001Y-94196667D01*
X141730324Y-94234000D01*
X141734001Y-94271333D01*
X141744998Y-94382986D01*
X141756655Y-94421414D01*
X141788454Y-94526246D01*
X141859026Y-94658276D01*
X141898408Y-94706262D01*
X141954000Y-94774001D01*
X141982998Y-94797799D01*
X142586847Y-95401649D01*
X142610932Y-95522729D01*
X142681414Y-95692889D01*
X142783738Y-95846028D01*
X142913972Y-95976262D01*
X143067111Y-96078586D01*
X143237271Y-96149068D01*
X143417911Y-96185000D01*
X143602089Y-96185000D01*
X143782729Y-96149068D01*
X143952889Y-96078586D01*
X144004876Y-96043849D01*
X143987068Y-96086842D01*
X143930000Y-96373740D01*
X143930000Y-96666260D01*
X143987068Y-96953158D01*
X144099010Y-97223411D01*
X144261525Y-97466632D01*
X144468368Y-97673475D01*
X144642760Y-97790000D01*
X144468368Y-97906525D01*
X144261525Y-98113368D01*
X144099010Y-98356589D01*
X143987068Y-98626842D01*
X143930000Y-98913740D01*
X143930000Y-99206260D01*
X143987068Y-99493158D01*
X144099010Y-99763411D01*
X144261525Y-100006632D01*
X144468368Y-100213475D01*
X144642760Y-100330000D01*
X144468368Y-100446525D01*
X144261525Y-100653368D01*
X144099010Y-100896589D01*
X143987068Y-101166842D01*
X143930000Y-101453740D01*
X143930000Y-101746260D01*
X143987068Y-102033158D01*
X144099010Y-102303411D01*
X144261525Y-102546632D01*
X144468368Y-102753475D01*
X144650534Y-102875195D01*
X144533645Y-102944822D01*
X144317412Y-103139731D01*
X144143359Y-103373080D01*
X144018175Y-103635901D01*
X143973524Y-103783110D01*
X144094845Y-104013000D01*
X145288000Y-104013000D01*
X145288000Y-103993000D01*
X145542000Y-103993000D01*
X145542000Y-104013000D01*
X145562000Y-104013000D01*
X145562000Y-104267000D01*
X145542000Y-104267000D01*
X145542000Y-104287000D01*
X145288000Y-104287000D01*
X145288000Y-104267000D01*
X144094845Y-104267000D01*
X143973524Y-104496890D01*
X144018175Y-104644099D01*
X144143359Y-104906920D01*
X144317412Y-105140269D01*
X144533645Y-105335178D01*
X144650534Y-105404805D01*
X144468368Y-105526525D01*
X144261525Y-105733368D01*
X144099010Y-105976589D01*
X143987068Y-106246842D01*
X143930000Y-106533740D01*
X143930000Y-106826260D01*
X143987068Y-107113158D01*
X144099010Y-107383411D01*
X144261525Y-107626632D01*
X144468368Y-107833475D01*
X144711589Y-107995990D01*
X144981842Y-108107932D01*
X145268740Y-108165000D01*
X145561260Y-108165000D01*
X145848158Y-108107932D01*
X146118411Y-107995990D01*
X146361632Y-107833475D01*
X146568475Y-107626632D01*
X146686100Y-107450594D01*
X146857412Y-107680269D01*
X147073645Y-107875178D01*
X147323748Y-108024157D01*
X147598109Y-108121481D01*
X147828000Y-108000814D01*
X147828000Y-106807000D01*
X148082000Y-106807000D01*
X148082000Y-108000814D01*
X148311891Y-108121481D01*
X148586252Y-108024157D01*
X148836355Y-107875178D01*
X149052588Y-107680269D01*
X149226641Y-107446920D01*
X149351825Y-107184099D01*
X149396476Y-107036890D01*
X149275155Y-106807000D01*
X148082000Y-106807000D01*
X147828000Y-106807000D01*
X147808000Y-106807000D01*
X147808000Y-106553000D01*
X147828000Y-106553000D01*
X147828000Y-106533000D01*
X148082000Y-106533000D01*
X148082000Y-106553000D01*
X149275155Y-106553000D01*
X149396476Y-106323110D01*
X149351825Y-106175901D01*
X149226641Y-105913080D01*
X149052588Y-105679731D01*
X148836355Y-105484822D01*
X148719466Y-105415195D01*
X148865061Y-105317911D01*
X151465000Y-105317911D01*
X151465000Y-105502089D01*
X151500932Y-105682729D01*
X151515001Y-105716695D01*
X151515000Y-109548307D01*
X151500932Y-109582271D01*
X151465000Y-109762911D01*
X151465000Y-109947089D01*
X151500932Y-110127729D01*
X151571414Y-110297889D01*
X151673738Y-110451028D01*
X151803972Y-110581262D01*
X151957111Y-110683586D01*
X152127271Y-110754068D01*
X152307911Y-110790000D01*
X152492089Y-110790000D01*
X152672729Y-110754068D01*
X152842889Y-110683586D01*
X152996028Y-110581262D01*
X153126262Y-110451028D01*
X153228586Y-110297889D01*
X153299068Y-110127729D01*
X153335000Y-109947089D01*
X153335000Y-109762911D01*
X153299068Y-109582271D01*
X153285000Y-109548308D01*
X153285000Y-105716692D01*
X153299068Y-105682729D01*
X153335000Y-105502089D01*
X153335000Y-105317911D01*
X153299068Y-105137271D01*
X153228586Y-104967111D01*
X153126262Y-104813972D01*
X152996028Y-104683738D01*
X152842889Y-104581414D01*
X152672729Y-104510932D01*
X152492089Y-104475000D01*
X152307911Y-104475000D01*
X152127271Y-104510932D01*
X151957111Y-104581414D01*
X151803972Y-104683738D01*
X151673738Y-104813972D01*
X151571414Y-104967111D01*
X151500932Y-105137271D01*
X151465000Y-105317911D01*
X148865061Y-105317911D01*
X148901632Y-105293475D01*
X149108475Y-105086632D01*
X149270990Y-104843411D01*
X149382932Y-104573158D01*
X149440000Y-104286260D01*
X149440000Y-103993740D01*
X149382932Y-103706842D01*
X149270990Y-103436589D01*
X149108475Y-103193368D01*
X148901632Y-102986525D01*
X148727240Y-102870000D01*
X148901632Y-102753475D01*
X149108475Y-102546632D01*
X149259026Y-102321316D01*
X149263972Y-102326262D01*
X149417111Y-102428586D01*
X149587271Y-102499068D01*
X149594495Y-102500505D01*
X149595932Y-102507729D01*
X149666414Y-102677889D01*
X149768738Y-102831028D01*
X149898972Y-102961262D01*
X150052111Y-103063586D01*
X150222271Y-103134068D01*
X150402911Y-103170000D01*
X150587089Y-103170000D01*
X150767729Y-103134068D01*
X150937889Y-103063586D01*
X151091028Y-102961262D01*
X151221262Y-102831028D01*
X151323586Y-102677889D01*
X151394068Y-102507729D01*
X151418153Y-102386649D01*
X152149003Y-101655799D01*
X152178001Y-101632001D01*
X152236496Y-101560725D01*
X152272974Y-101516277D01*
X152343546Y-101384247D01*
X152366749Y-101307754D01*
X152387003Y-101240986D01*
X152398000Y-101129333D01*
X152398000Y-101129324D01*
X152401676Y-101092001D01*
X152398000Y-101054678D01*
X152398000Y-97800656D01*
X152519379Y-97922035D01*
X152791096Y-98103591D01*
X152770932Y-98152271D01*
X152735000Y-98332911D01*
X152735000Y-98517089D01*
X152770932Y-98697729D01*
X152841414Y-98867889D01*
X152943738Y-99021028D01*
X153073972Y-99151262D01*
X153227111Y-99253586D01*
X153397271Y-99324068D01*
X153577911Y-99360000D01*
X153762089Y-99360000D01*
X153942729Y-99324068D01*
X154112889Y-99253586D01*
X154266028Y-99151262D01*
X154306145Y-99111145D01*
X154401878Y-99059974D01*
X154517603Y-98965001D01*
X154541406Y-98935997D01*
X154970057Y-98507347D01*
X154978972Y-98516262D01*
X155132111Y-98618586D01*
X155302271Y-98689068D01*
X155482911Y-98725000D01*
X155667089Y-98725000D01*
X155847729Y-98689068D01*
X156017889Y-98618586D01*
X156171028Y-98516262D01*
X156301262Y-98386028D01*
X156403586Y-98232889D01*
X156474068Y-98062729D01*
X156498153Y-97941649D01*
X157229003Y-97210799D01*
X157258001Y-97187001D01*
X157317053Y-97115046D01*
X157352974Y-97071277D01*
X157355579Y-97066403D01*
X157388738Y-97116028D01*
X157518972Y-97246262D01*
X157672111Y-97348586D01*
X157706077Y-97362655D01*
X158500001Y-98156580D01*
X158500000Y-113298421D01*
X157071077Y-114727345D01*
X157037111Y-114741414D01*
X156883972Y-114843738D01*
X156753738Y-114973972D01*
X156651414Y-115127111D01*
X156580932Y-115297271D01*
X156545000Y-115477911D01*
X156545000Y-115662089D01*
X156580932Y-115842729D01*
X156651414Y-116012889D01*
X156753738Y-116166028D01*
X156883972Y-116296262D01*
X157037111Y-116398586D01*
X157207271Y-116469068D01*
X157387911Y-116505000D01*
X157572089Y-116505000D01*
X157752729Y-116469068D01*
X157922889Y-116398586D01*
X158076028Y-116296262D01*
X158206262Y-116166028D01*
X158308586Y-116012889D01*
X158322655Y-115978923D01*
X159980050Y-114321529D01*
X160013817Y-114293817D01*
X160124411Y-114159059D01*
X160206589Y-114005313D01*
X160257195Y-113838490D01*
X160262628Y-113783323D01*
X166751000Y-113783323D01*
X166751000Y-114308677D01*
X166853492Y-114823935D01*
X167054536Y-115309298D01*
X167346406Y-115746113D01*
X167717887Y-116117594D01*
X168154702Y-116409464D01*
X168640065Y-116610508D01*
X169155323Y-116713000D01*
X169680677Y-116713000D01*
X170195935Y-116610508D01*
X170681298Y-116409464D01*
X171118113Y-116117594D01*
X171489594Y-115746113D01*
X171781464Y-115309298D01*
X171874742Y-115084104D01*
X196499501Y-115084104D01*
X196578782Y-115334567D01*
X196845141Y-115461826D01*
X197131210Y-115534675D01*
X197425993Y-115550315D01*
X197718164Y-115508145D01*
X197996493Y-115409786D01*
X198137218Y-115334567D01*
X198216499Y-115084104D01*
X197358000Y-114225605D01*
X196499501Y-115084104D01*
X171874742Y-115084104D01*
X171982508Y-114823935D01*
X172085000Y-114308677D01*
X172085000Y-114113993D01*
X195853685Y-114113993D01*
X195895855Y-114406164D01*
X195994214Y-114684493D01*
X196069433Y-114825218D01*
X196319896Y-114904499D01*
X197178395Y-114046000D01*
X196319896Y-113187501D01*
X196069433Y-113266782D01*
X195942174Y-113533141D01*
X195869325Y-113819210D01*
X195853685Y-114113993D01*
X172085000Y-114113993D01*
X172085000Y-113783323D01*
X171982508Y-113268065D01*
X171781464Y-112782702D01*
X171489594Y-112345887D01*
X171118113Y-111974406D01*
X170681298Y-111682536D01*
X170195935Y-111481492D01*
X169680677Y-111379000D01*
X169155323Y-111379000D01*
X168640065Y-111481492D01*
X168154702Y-111682536D01*
X167717887Y-111974406D01*
X167346406Y-112345887D01*
X167054536Y-112782702D01*
X166853492Y-113268065D01*
X166751000Y-113783323D01*
X160262628Y-113783323D01*
X160270000Y-113708477D01*
X160270000Y-113708469D01*
X160274281Y-113665000D01*
X160270000Y-113621531D01*
X160270000Y-108492911D01*
X160990000Y-108492911D01*
X160990000Y-108677089D01*
X161025932Y-108857729D01*
X161096414Y-109027889D01*
X161198738Y-109181028D01*
X161328972Y-109311262D01*
X161482111Y-109413586D01*
X161652271Y-109484068D01*
X161832911Y-109520000D01*
X162017089Y-109520000D01*
X162197729Y-109484068D01*
X162367889Y-109413586D01*
X162521028Y-109311262D01*
X162651262Y-109181028D01*
X162753586Y-109027889D01*
X162824068Y-108857729D01*
X162848153Y-108736649D01*
X164181003Y-107403799D01*
X164210001Y-107380001D01*
X164304974Y-107264276D01*
X164375546Y-107132247D01*
X164419003Y-106988986D01*
X164430000Y-106877333D01*
X164430000Y-106877325D01*
X164433676Y-106840000D01*
X164430000Y-106802675D01*
X164430000Y-95658916D01*
X164524988Y-95619571D01*
X164820621Y-95422035D01*
X165072035Y-95170621D01*
X165269571Y-94874988D01*
X165405635Y-94546499D01*
X165475000Y-94197777D01*
X165475000Y-93842223D01*
X165405635Y-93493501D01*
X165269571Y-93165012D01*
X165072035Y-92869379D01*
X164820621Y-92617965D01*
X164524988Y-92420429D01*
X164196499Y-92284365D01*
X163847777Y-92215000D01*
X163492223Y-92215000D01*
X163143501Y-92284365D01*
X162815012Y-92420429D01*
X162519379Y-92617965D01*
X162267965Y-92869379D01*
X162070429Y-93165012D01*
X161934365Y-93493501D01*
X161865000Y-93842223D01*
X161865000Y-94197777D01*
X161934365Y-94546499D01*
X162070429Y-94874988D01*
X162267965Y-95170621D01*
X162519379Y-95422035D01*
X162815012Y-95619571D01*
X162910000Y-95658916D01*
X162910001Y-106525197D01*
X161773351Y-107661847D01*
X161652271Y-107685932D01*
X161482111Y-107756414D01*
X161328972Y-107858738D01*
X161198738Y-107988972D01*
X161096414Y-108142111D01*
X161025932Y-108312271D01*
X160990000Y-108492911D01*
X160270000Y-108492911D01*
X160270000Y-97833465D01*
X160274281Y-97789999D01*
X160270000Y-97746533D01*
X160270000Y-91690000D01*
X161618308Y-91690000D01*
X161652271Y-91704068D01*
X161832911Y-91740000D01*
X162017089Y-91740000D01*
X162197729Y-91704068D01*
X162367889Y-91633586D01*
X162521028Y-91531262D01*
X162651262Y-91401028D01*
X162753586Y-91247889D01*
X162824068Y-91077729D01*
X162860000Y-90897089D01*
X162860000Y-90712911D01*
X162824068Y-90532271D01*
X162753586Y-90362111D01*
X162651262Y-90208972D01*
X162521028Y-90078738D01*
X162367889Y-89976414D01*
X162197729Y-89905932D01*
X162017089Y-89870000D01*
X161832911Y-89870000D01*
X161652271Y-89905932D01*
X161618308Y-89920000D01*
X160270000Y-89920000D01*
X160270000Y-88308465D01*
X160274281Y-88264999D01*
X160270000Y-88221533D01*
X160270000Y-88221523D01*
X160257195Y-88091510D01*
X160206589Y-87924687D01*
X160124411Y-87770941D01*
X160013817Y-87636183D01*
X159980050Y-87608471D01*
X158957655Y-86586077D01*
X158943586Y-86552111D01*
X158841262Y-86398972D01*
X158711028Y-86268738D01*
X158557889Y-86166414D01*
X158387729Y-86095932D01*
X158207089Y-86060000D01*
X158022911Y-86060000D01*
X157842271Y-86095932D01*
X157672111Y-86166414D01*
X157518972Y-86268738D01*
X157478000Y-86309710D01*
X157478000Y-72311416D01*
X157554606Y-72270469D01*
X157782797Y-72083197D01*
X157970069Y-71855006D01*
X157988000Y-71821459D01*
X158005931Y-71855006D01*
X158193203Y-72083197D01*
X158421395Y-72270469D01*
X158681737Y-72409625D01*
X158964224Y-72495316D01*
X159258000Y-72524251D01*
X159551777Y-72495316D01*
X159834264Y-72409625D01*
X160094606Y-72270469D01*
X160322797Y-72083197D01*
X160510069Y-71855006D01*
X160528000Y-71821459D01*
X160545931Y-71855006D01*
X160733203Y-72083197D01*
X160961395Y-72270469D01*
X161221737Y-72409625D01*
X161504224Y-72495316D01*
X161798000Y-72524251D01*
X162091777Y-72495316D01*
X162374264Y-72409625D01*
X162634606Y-72270469D01*
X162862797Y-72083197D01*
X163050069Y-71855006D01*
X163068000Y-71821459D01*
X163085931Y-71855006D01*
X163273203Y-72083197D01*
X163501395Y-72270469D01*
X163761737Y-72409625D01*
X164044224Y-72495316D01*
X164338000Y-72524251D01*
X164631777Y-72495316D01*
X164914264Y-72409625D01*
X165174606Y-72270469D01*
X165402797Y-72083197D01*
X165590069Y-71855006D01*
X165608000Y-71821459D01*
X165625931Y-71855006D01*
X165813203Y-72083197D01*
X166041395Y-72270469D01*
X166301737Y-72409625D01*
X166584224Y-72495316D01*
X166878000Y-72524251D01*
X167171777Y-72495316D01*
X167454264Y-72409625D01*
X167565892Y-72349958D01*
X165859003Y-74056848D01*
X165829999Y-74080651D01*
X165801110Y-74115853D01*
X165735026Y-74196376D01*
X165664455Y-74328405D01*
X165664454Y-74328406D01*
X165620997Y-74471667D01*
X165610000Y-74583320D01*
X165610000Y-74583330D01*
X165606324Y-74620652D01*
X165610000Y-74657974D01*
X165610001Y-86680197D01*
X164313352Y-87976847D01*
X164192271Y-88000932D01*
X164022111Y-88071414D01*
X163868972Y-88173738D01*
X163738738Y-88303972D01*
X163636414Y-88457111D01*
X163565932Y-88627271D01*
X163530000Y-88807911D01*
X163530000Y-88992089D01*
X163565932Y-89172729D01*
X163636414Y-89342889D01*
X163738738Y-89496028D01*
X163868972Y-89626262D01*
X164022111Y-89728586D01*
X164192271Y-89799068D01*
X164372911Y-89835000D01*
X164557089Y-89835000D01*
X164737729Y-89799068D01*
X164907889Y-89728586D01*
X165061028Y-89626262D01*
X165191262Y-89496028D01*
X165293586Y-89342889D01*
X165364068Y-89172729D01*
X165388153Y-89051648D01*
X166881003Y-87558799D01*
X166910001Y-87535001D01*
X167004974Y-87419276D01*
X167044561Y-87345216D01*
X167054536Y-87369298D01*
X167346406Y-87806113D01*
X167717887Y-88177594D01*
X168154702Y-88469464D01*
X168640065Y-88670508D01*
X169155323Y-88773000D01*
X169680677Y-88773000D01*
X170195935Y-88670508D01*
X170681298Y-88469464D01*
X171118113Y-88177594D01*
X171198001Y-88097706D01*
X171198001Y-88712197D01*
X170663351Y-89246847D01*
X170542271Y-89270932D01*
X170372111Y-89341414D01*
X170218972Y-89443738D01*
X170088738Y-89573972D01*
X169986414Y-89727111D01*
X169915932Y-89897271D01*
X169880000Y-90077911D01*
X169880000Y-90262089D01*
X169915932Y-90442729D01*
X169986414Y-90612889D01*
X170088738Y-90766028D01*
X170218972Y-90896262D01*
X170372111Y-90998586D01*
X170542271Y-91069068D01*
X170722911Y-91105000D01*
X170907089Y-91105000D01*
X171087729Y-91069068D01*
X171257889Y-90998586D01*
X171411028Y-90896262D01*
X171541262Y-90766028D01*
X171643586Y-90612889D01*
X171714068Y-90442729D01*
X171738153Y-90321649D01*
X172469003Y-89590799D01*
X172498001Y-89567001D01*
X172582697Y-89463799D01*
X172592974Y-89451277D01*
X172663546Y-89319247D01*
X172686749Y-89242754D01*
X172707003Y-89175986D01*
X172718000Y-89064333D01*
X172718000Y-89064324D01*
X172721676Y-89027001D01*
X172718000Y-88989678D01*
X172718000Y-72311416D01*
X172794606Y-72270469D01*
X173022797Y-72083197D01*
X173210069Y-71855006D01*
X173228000Y-71821459D01*
X173245931Y-71855006D01*
X173433203Y-72083197D01*
X173661395Y-72270469D01*
X173921737Y-72409625D01*
X174204224Y-72495316D01*
X174498000Y-72524251D01*
X174791777Y-72495316D01*
X175074264Y-72409625D01*
X175334606Y-72270469D01*
X175562797Y-72083197D01*
X175750069Y-71855006D01*
X175768000Y-71821459D01*
X175785931Y-71855006D01*
X175973203Y-72083197D01*
X176201395Y-72270469D01*
X176278000Y-72311415D01*
X176278001Y-79822197D01*
X175108351Y-80991847D01*
X174987271Y-81015932D01*
X174817111Y-81086414D01*
X174663972Y-81188738D01*
X174533738Y-81318972D01*
X174431414Y-81472111D01*
X174360932Y-81642271D01*
X174325000Y-81822911D01*
X174325000Y-82007089D01*
X174360932Y-82187729D01*
X174431414Y-82357889D01*
X174533738Y-82511028D01*
X174663972Y-82641262D01*
X174817111Y-82743586D01*
X174987271Y-82814068D01*
X175167911Y-82850000D01*
X175352089Y-82850000D01*
X175532729Y-82814068D01*
X175702889Y-82743586D01*
X175856028Y-82641262D01*
X175986262Y-82511028D01*
X176088586Y-82357889D01*
X176159068Y-82187729D01*
X176183153Y-82066649D01*
X177549003Y-80700799D01*
X177578001Y-80677001D01*
X177672974Y-80561276D01*
X177743546Y-80429247D01*
X177787003Y-80285986D01*
X177798000Y-80174333D01*
X177798000Y-80174325D01*
X177801676Y-80137000D01*
X177798000Y-80099675D01*
X177798000Y-72311416D01*
X177874606Y-72270469D01*
X178102797Y-72083197D01*
X178290069Y-71855006D01*
X178308000Y-71821459D01*
X178325931Y-71855006D01*
X178513203Y-72083197D01*
X178741395Y-72270469D01*
X178818000Y-72311415D01*
X178818001Y-81092197D01*
X177648351Y-82261847D01*
X177527271Y-82285932D01*
X177357111Y-82356414D01*
X177203972Y-82458738D01*
X177073738Y-82588972D01*
X176971414Y-82742111D01*
X176900932Y-82912271D01*
X176865000Y-83092911D01*
X176865000Y-83277089D01*
X176900932Y-83457729D01*
X176971414Y-83627889D01*
X177073738Y-83781028D01*
X177203972Y-83911262D01*
X177357111Y-84013586D01*
X177527271Y-84084068D01*
X177707911Y-84120000D01*
X177892089Y-84120000D01*
X178072729Y-84084068D01*
X178242889Y-84013586D01*
X178396028Y-83911262D01*
X178526262Y-83781028D01*
X178628586Y-83627889D01*
X178699068Y-83457729D01*
X178723153Y-83336649D01*
X180089003Y-81970799D01*
X180118001Y-81947001D01*
X180212974Y-81831276D01*
X180283546Y-81699247D01*
X180327003Y-81555986D01*
X180338000Y-81444333D01*
X180338000Y-81444325D01*
X180341676Y-81407000D01*
X180338000Y-81369675D01*
X180338000Y-72311416D01*
X180414606Y-72270469D01*
X180642797Y-72083197D01*
X180830069Y-71855006D01*
X180848000Y-71821459D01*
X180865931Y-71855006D01*
X181053203Y-72083197D01*
X181281395Y-72270469D01*
X181541737Y-72409625D01*
X181824224Y-72495316D01*
X182118000Y-72524251D01*
X182411777Y-72495316D01*
X182694264Y-72409625D01*
X182954606Y-72270469D01*
X183182797Y-72083197D01*
X183370069Y-71855006D01*
X183388000Y-71821459D01*
X183405931Y-71855006D01*
X183593203Y-72083197D01*
X183821395Y-72270469D01*
X184081737Y-72409625D01*
X184364224Y-72495316D01*
X184658000Y-72524251D01*
X184951777Y-72495316D01*
X185234264Y-72409625D01*
X185494606Y-72270469D01*
X185722797Y-72083197D01*
X185910069Y-71855006D01*
X185928000Y-71821459D01*
X185945931Y-71855006D01*
X186133203Y-72083197D01*
X186361395Y-72270469D01*
X186621737Y-72409625D01*
X186904224Y-72495316D01*
X187198000Y-72524251D01*
X187491777Y-72495316D01*
X187774264Y-72409625D01*
X188034606Y-72270469D01*
X188262797Y-72083197D01*
X188450069Y-71855006D01*
X188468000Y-71821459D01*
X188485931Y-71855006D01*
X188673203Y-72083197D01*
X188901395Y-72270469D01*
X189161737Y-72409625D01*
X189444224Y-72495316D01*
X189738000Y-72524251D01*
X190031777Y-72495316D01*
X190314264Y-72409625D01*
X190574606Y-72270469D01*
X190802797Y-72083197D01*
X190990069Y-71855006D01*
X191035621Y-71769785D01*
X191184536Y-72129298D01*
X191476406Y-72566113D01*
X191847887Y-72937594D01*
X192284702Y-73229464D01*
X192770065Y-73430508D01*
X193285323Y-73533000D01*
X193439422Y-73533000D01*
X191809956Y-75162466D01*
X191776183Y-75190183D01*
X191665589Y-75324942D01*
X191583411Y-75478688D01*
X191532805Y-75645511D01*
X191520000Y-75775524D01*
X191520000Y-75775531D01*
X191515719Y-75819000D01*
X191520000Y-75862469D01*
X191520001Y-88533420D01*
X190091077Y-89962345D01*
X190057111Y-89976414D01*
X189903972Y-90078738D01*
X189773738Y-90208972D01*
X189671414Y-90362111D01*
X189600932Y-90532271D01*
X189565000Y-90712911D01*
X189565000Y-90897089D01*
X189600932Y-91077729D01*
X189671414Y-91247889D01*
X189773738Y-91401028D01*
X189903972Y-91531262D01*
X190057111Y-91633586D01*
X190227271Y-91704068D01*
X190407911Y-91740000D01*
X190592089Y-91740000D01*
X190772729Y-91704068D01*
X190942889Y-91633586D01*
X191096028Y-91531262D01*
X191226262Y-91401028D01*
X191328586Y-91247889D01*
X191342655Y-91213923D01*
X193000049Y-89556530D01*
X193033817Y-89528817D01*
X193087177Y-89463799D01*
X193144411Y-89394059D01*
X193164832Y-89355853D01*
X193226589Y-89240313D01*
X193277195Y-89073490D01*
X193290000Y-88943477D01*
X193290000Y-88943469D01*
X193294281Y-88900000D01*
X193290000Y-88856531D01*
X193290000Y-76185578D01*
X195869783Y-73605796D01*
X195916990Y-73843125D01*
X196029958Y-74115853D01*
X196193961Y-74361302D01*
X196402698Y-74570039D01*
X196561281Y-74676000D01*
X196402698Y-74781961D01*
X196193961Y-74990698D01*
X196029958Y-75236147D01*
X195916990Y-75508875D01*
X195859400Y-75798401D01*
X195859400Y-76093599D01*
X195916990Y-76383125D01*
X196029958Y-76655853D01*
X196193961Y-76901302D01*
X196402698Y-77110039D01*
X196561281Y-77216000D01*
X196402698Y-77321961D01*
X196193961Y-77530698D01*
X196029958Y-77776147D01*
X195916990Y-78048875D01*
X195859400Y-78338401D01*
X195859400Y-78633599D01*
X195916990Y-78923125D01*
X196029958Y-79195853D01*
X196193961Y-79441302D01*
X196402698Y-79650039D01*
X196561281Y-79756000D01*
X196402698Y-79861961D01*
X196193961Y-80070698D01*
X196029958Y-80316147D01*
X195916990Y-80588875D01*
X195859400Y-80878401D01*
X195859400Y-81173599D01*
X195916990Y-81463125D01*
X196029958Y-81735853D01*
X196193961Y-81981302D01*
X196402698Y-82190039D01*
X196561281Y-82296000D01*
X196402698Y-82401961D01*
X196193961Y-82610698D01*
X196029958Y-82856147D01*
X195916990Y-83128875D01*
X195859400Y-83418401D01*
X195859400Y-83713599D01*
X195916990Y-84003125D01*
X196029958Y-84275853D01*
X196193961Y-84521302D01*
X196402698Y-84730039D01*
X196561281Y-84836000D01*
X196402698Y-84941961D01*
X196193961Y-85150698D01*
X196029958Y-85396147D01*
X195916990Y-85668875D01*
X195859400Y-85958401D01*
X195859400Y-86253599D01*
X195916990Y-86543125D01*
X196029958Y-86815853D01*
X196193961Y-87061302D01*
X196402698Y-87270039D01*
X196561281Y-87376000D01*
X196402698Y-87481961D01*
X196193961Y-87690698D01*
X196029958Y-87936147D01*
X195916990Y-88208875D01*
X195859400Y-88498401D01*
X195859400Y-88793599D01*
X195916990Y-89083125D01*
X196029958Y-89355853D01*
X196193961Y-89601302D01*
X196402698Y-89810039D01*
X196561281Y-89916000D01*
X196402698Y-90021961D01*
X196193961Y-90230698D01*
X196029958Y-90476147D01*
X195916990Y-90748875D01*
X195859400Y-91038401D01*
X195859400Y-91333599D01*
X195916990Y-91623125D01*
X196029958Y-91895853D01*
X196193961Y-92141302D01*
X196402698Y-92350039D01*
X196561281Y-92456000D01*
X196402698Y-92561961D01*
X196193961Y-92770698D01*
X196029958Y-93016147D01*
X195916990Y-93288875D01*
X195859400Y-93578401D01*
X195859400Y-93873599D01*
X195916990Y-94163125D01*
X196029958Y-94435853D01*
X196193961Y-94681302D01*
X196402698Y-94890039D01*
X196561281Y-94996000D01*
X196402698Y-95101961D01*
X196193961Y-95310698D01*
X196029958Y-95556147D01*
X195916990Y-95828875D01*
X195859400Y-96118401D01*
X195859400Y-96413599D01*
X195916990Y-96703125D01*
X196029958Y-96975853D01*
X196193961Y-97221302D01*
X196402698Y-97430039D01*
X196561281Y-97536000D01*
X196402698Y-97641961D01*
X196193961Y-97850698D01*
X196029958Y-98096147D01*
X195916990Y-98368875D01*
X195859400Y-98658401D01*
X195859400Y-98953599D01*
X195916990Y-99243125D01*
X196029958Y-99515853D01*
X196193961Y-99761302D01*
X196402698Y-99970039D01*
X196561281Y-100076000D01*
X196402698Y-100181961D01*
X196193961Y-100390698D01*
X196029958Y-100636147D01*
X195916990Y-100908875D01*
X195859400Y-101198401D01*
X195859400Y-101493599D01*
X195916990Y-101783125D01*
X196029958Y-102055853D01*
X196193961Y-102301302D01*
X196402698Y-102510039D01*
X196561281Y-102616000D01*
X196402698Y-102721961D01*
X196193961Y-102930698D01*
X196029958Y-103176147D01*
X195916990Y-103448875D01*
X195859400Y-103738401D01*
X195859400Y-104033599D01*
X195916990Y-104323125D01*
X196029958Y-104595853D01*
X196193961Y-104841302D01*
X196402698Y-105050039D01*
X196561281Y-105156000D01*
X196402698Y-105261961D01*
X196193961Y-105470698D01*
X196029958Y-105716147D01*
X195916990Y-105988875D01*
X195859400Y-106278401D01*
X195859400Y-106573599D01*
X195916990Y-106863125D01*
X196029958Y-107135853D01*
X196193961Y-107381302D01*
X196402698Y-107590039D01*
X196561281Y-107696000D01*
X196402698Y-107801961D01*
X196193961Y-108010698D01*
X196029958Y-108256147D01*
X195916990Y-108528875D01*
X195859400Y-108818401D01*
X195859400Y-109113599D01*
X195916990Y-109403125D01*
X196029958Y-109675853D01*
X196193961Y-109921302D01*
X196402698Y-110130039D01*
X196561281Y-110236000D01*
X196402698Y-110341961D01*
X196193961Y-110550698D01*
X196029958Y-110796147D01*
X195916990Y-111068875D01*
X195859400Y-111358401D01*
X195859400Y-111653599D01*
X195916990Y-111943125D01*
X196029958Y-112215853D01*
X196193961Y-112461302D01*
X196402698Y-112670039D01*
X196570875Y-112782411D01*
X196499501Y-113007896D01*
X197358000Y-113866395D01*
X198216499Y-113007896D01*
X198145125Y-112782411D01*
X198313302Y-112670039D01*
X198522039Y-112461302D01*
X198628000Y-112302719D01*
X198733961Y-112461302D01*
X198942698Y-112670039D01*
X199103813Y-112777692D01*
X198887707Y-112939146D01*
X198691183Y-113157512D01*
X198629434Y-113261359D01*
X198396104Y-113187501D01*
X197537605Y-114046000D01*
X198396104Y-114904499D01*
X198629434Y-114830641D01*
X198691183Y-114934488D01*
X198887707Y-115152854D01*
X199123056Y-115328684D01*
X199388186Y-115455222D01*
X199538974Y-115500958D01*
X199771000Y-115379817D01*
X199771000Y-114173000D01*
X200025000Y-114173000D01*
X200025000Y-115379817D01*
X200257026Y-115500958D01*
X200407814Y-115455222D01*
X200672944Y-115328684D01*
X200908293Y-115152854D01*
X201104817Y-114934488D01*
X201254964Y-114681978D01*
X201352963Y-114405027D01*
X201232464Y-114173000D01*
X200025000Y-114173000D01*
X199771000Y-114173000D01*
X199751000Y-114173000D01*
X199751000Y-113919000D01*
X199771000Y-113919000D01*
X199771000Y-113899000D01*
X200025000Y-113899000D01*
X200025000Y-113919000D01*
X201232464Y-113919000D01*
X201352963Y-113686973D01*
X201254964Y-113410022D01*
X201104817Y-113157512D01*
X200908293Y-112939146D01*
X200692187Y-112777692D01*
X200853302Y-112670039D01*
X201062039Y-112461302D01*
X201226042Y-112215853D01*
X201339010Y-111943125D01*
X201396600Y-111653599D01*
X201396600Y-111358401D01*
X201339010Y-111068875D01*
X201226042Y-110796147D01*
X201062039Y-110550698D01*
X200853302Y-110341961D01*
X200694719Y-110236000D01*
X200853302Y-110130039D01*
X201062039Y-109921302D01*
X201226042Y-109675853D01*
X201339010Y-109403125D01*
X201396600Y-109113599D01*
X201396600Y-108818401D01*
X201339010Y-108528875D01*
X201226042Y-108256147D01*
X201062039Y-108010698D01*
X200853302Y-107801961D01*
X200694719Y-107696000D01*
X200853302Y-107590039D01*
X201062039Y-107381302D01*
X201226042Y-107135853D01*
X201339010Y-106863125D01*
X201396600Y-106573599D01*
X201396600Y-106278401D01*
X201339010Y-105988875D01*
X201226042Y-105716147D01*
X201062039Y-105470698D01*
X200853302Y-105261961D01*
X200694719Y-105156000D01*
X200853302Y-105050039D01*
X201062039Y-104841302D01*
X201226042Y-104595853D01*
X201339010Y-104323125D01*
X201396600Y-104033599D01*
X201396600Y-103738401D01*
X201339010Y-103448875D01*
X201226042Y-103176147D01*
X201062039Y-102930698D01*
X200853302Y-102721961D01*
X200694719Y-102616000D01*
X200853302Y-102510039D01*
X201062039Y-102301302D01*
X201226042Y-102055853D01*
X201339010Y-101783125D01*
X201396600Y-101493599D01*
X201396600Y-101198401D01*
X201339010Y-100908875D01*
X201226042Y-100636147D01*
X201062039Y-100390698D01*
X200853302Y-100181961D01*
X200694719Y-100076000D01*
X200853302Y-99970039D01*
X201062039Y-99761302D01*
X201226042Y-99515853D01*
X201339010Y-99243125D01*
X201396600Y-98953599D01*
X201396600Y-98658401D01*
X201339010Y-98368875D01*
X201226042Y-98096147D01*
X201062039Y-97850698D01*
X200853302Y-97641961D01*
X200694719Y-97536000D01*
X200853302Y-97430039D01*
X201062039Y-97221302D01*
X201226042Y-96975853D01*
X201339010Y-96703125D01*
X201396600Y-96413599D01*
X201396600Y-96118401D01*
X201339010Y-95828875D01*
X201226042Y-95556147D01*
X201062039Y-95310698D01*
X200853302Y-95101961D01*
X200694719Y-94996000D01*
X200853302Y-94890039D01*
X201062039Y-94681302D01*
X201226042Y-94435853D01*
X201339010Y-94163125D01*
X201396600Y-93873599D01*
X201396600Y-93578401D01*
X201339010Y-93288875D01*
X201226042Y-93016147D01*
X201062039Y-92770698D01*
X200853302Y-92561961D01*
X200694719Y-92456000D01*
X200853302Y-92350039D01*
X201062039Y-92141302D01*
X201226042Y-91895853D01*
X201339010Y-91623125D01*
X201396600Y-91333599D01*
X201396600Y-91038401D01*
X201339010Y-90748875D01*
X201226042Y-90476147D01*
X201062039Y-90230698D01*
X200853302Y-90021961D01*
X200694719Y-89916000D01*
X200853302Y-89810039D01*
X201062039Y-89601302D01*
X201226042Y-89355853D01*
X201339010Y-89083125D01*
X201396600Y-88793599D01*
X201396600Y-88498401D01*
X201339010Y-88208875D01*
X201226042Y-87936147D01*
X201062039Y-87690698D01*
X200853302Y-87481961D01*
X200694719Y-87376000D01*
X200853302Y-87270039D01*
X201062039Y-87061302D01*
X201226042Y-86815853D01*
X201339010Y-86543125D01*
X201396600Y-86253599D01*
X201396600Y-85958401D01*
X201339010Y-85668875D01*
X201226042Y-85396147D01*
X201062039Y-85150698D01*
X200853302Y-84941961D01*
X200694719Y-84836000D01*
X200853302Y-84730039D01*
X201062039Y-84521302D01*
X201226042Y-84275853D01*
X201339010Y-84003125D01*
X201396600Y-83713599D01*
X201396600Y-83418401D01*
X201339010Y-83128875D01*
X201226042Y-82856147D01*
X201062039Y-82610698D01*
X200853302Y-82401961D01*
X200694719Y-82296000D01*
X200853302Y-82190039D01*
X201062039Y-81981302D01*
X201226042Y-81735853D01*
X201339010Y-81463125D01*
X201396600Y-81173599D01*
X201396600Y-80878401D01*
X201339010Y-80588875D01*
X201226042Y-80316147D01*
X201062039Y-80070698D01*
X200853302Y-79861961D01*
X200694719Y-79756000D01*
X200853302Y-79650039D01*
X201062039Y-79441302D01*
X201226042Y-79195853D01*
X201339010Y-78923125D01*
X201396600Y-78633599D01*
X201396600Y-78338401D01*
X201339010Y-78048875D01*
X201226042Y-77776147D01*
X201062039Y-77530698D01*
X200853302Y-77321961D01*
X200694719Y-77216000D01*
X200853302Y-77110039D01*
X201062039Y-76901302D01*
X201226042Y-76655853D01*
X201339010Y-76383125D01*
X201396600Y-76093599D01*
X201396600Y-75798401D01*
X201339010Y-75508875D01*
X201226042Y-75236147D01*
X201062039Y-74990698D01*
X200853302Y-74781961D01*
X200694719Y-74676000D01*
X200853302Y-74570039D01*
X201062039Y-74361302D01*
X201226042Y-74115853D01*
X201339010Y-73843125D01*
X201396600Y-73553599D01*
X201396600Y-73258401D01*
X201339010Y-72968875D01*
X201226042Y-72696147D01*
X201062039Y-72450698D01*
X200853302Y-72241961D01*
X200694719Y-72136000D01*
X200853302Y-72030039D01*
X201062039Y-71821302D01*
X201226042Y-71575853D01*
X201339010Y-71303125D01*
X201396600Y-71013599D01*
X201396600Y-70828692D01*
X201728000Y-71160092D01*
X201728001Y-80991115D01*
X201724565Y-81026000D01*
X201738274Y-81165184D01*
X201778872Y-81299019D01*
X201834985Y-81403998D01*
X201844801Y-81422363D01*
X201933526Y-81530475D01*
X201960617Y-81552708D01*
X204268000Y-83860092D01*
X204268001Y-117561907D01*
X202565000Y-119264909D01*
X202565000Y-118863323D01*
X202462508Y-118348065D01*
X202261464Y-117862702D01*
X201969594Y-117425887D01*
X201598113Y-117054406D01*
X201161298Y-116762536D01*
X200675935Y-116561492D01*
X200160677Y-116459000D01*
X199635323Y-116459000D01*
X199120065Y-116561492D01*
X198634702Y-116762536D01*
X198197887Y-117054406D01*
X197826406Y-117425887D01*
X197534536Y-117862702D01*
X197333492Y-118348065D01*
X197231000Y-118863323D01*
X197231000Y-119388677D01*
X197333492Y-119903935D01*
X197534536Y-120389298D01*
X197826406Y-120826113D01*
X197956293Y-120956000D01*
X119289707Y-120956000D01*
X119419594Y-120826113D01*
X119711464Y-120389298D01*
X119912508Y-119903935D01*
X120015000Y-119388677D01*
X120015000Y-118899982D01*
X129819400Y-118899982D01*
X129819400Y-119352019D01*
X129841084Y-119572177D01*
X129926775Y-119854664D01*
X130065931Y-120115006D01*
X130253203Y-120343197D01*
X130481395Y-120530469D01*
X130741737Y-120669625D01*
X131024224Y-120755316D01*
X131318000Y-120784251D01*
X131611777Y-120755316D01*
X131894264Y-120669625D01*
X132154606Y-120530469D01*
X132382797Y-120343197D01*
X132570069Y-120115006D01*
X132588000Y-120081459D01*
X132605931Y-120115006D01*
X132793203Y-120343197D01*
X133021395Y-120530469D01*
X133281737Y-120669625D01*
X133564224Y-120755316D01*
X133858000Y-120784251D01*
X134151777Y-120755316D01*
X134434264Y-120669625D01*
X134694606Y-120530469D01*
X134922797Y-120343197D01*
X135110069Y-120115006D01*
X135128000Y-120081459D01*
X135145931Y-120115006D01*
X135333203Y-120343197D01*
X135561395Y-120530469D01*
X135821737Y-120669625D01*
X136104224Y-120755316D01*
X136398000Y-120784251D01*
X136691777Y-120755316D01*
X136974264Y-120669625D01*
X137234606Y-120530469D01*
X137462797Y-120343197D01*
X137650069Y-120115006D01*
X137668000Y-120081459D01*
X137685931Y-120115006D01*
X137873203Y-120343197D01*
X138101395Y-120530469D01*
X138361737Y-120669625D01*
X138644224Y-120755316D01*
X138938000Y-120784251D01*
X139231777Y-120755316D01*
X139514264Y-120669625D01*
X139774606Y-120530469D01*
X140002797Y-120343197D01*
X140190069Y-120115006D01*
X140208000Y-120081459D01*
X140225931Y-120115006D01*
X140413203Y-120343197D01*
X140641395Y-120530469D01*
X140901737Y-120669625D01*
X141184224Y-120755316D01*
X141478000Y-120784251D01*
X141771777Y-120755316D01*
X142054264Y-120669625D01*
X142314606Y-120530469D01*
X142542797Y-120343197D01*
X142730069Y-120115006D01*
X142751424Y-120075053D01*
X142899514Y-120277729D01*
X143115965Y-120476733D01*
X143367081Y-120629686D01*
X143643211Y-120730709D01*
X143658974Y-120733358D01*
X143891000Y-120612217D01*
X143891000Y-119253000D01*
X144145000Y-119253000D01*
X144145000Y-120612217D01*
X144377026Y-120733358D01*
X144392789Y-120730709D01*
X144668919Y-120629686D01*
X144920035Y-120476733D01*
X145136486Y-120277729D01*
X145288000Y-120070367D01*
X145439514Y-120277729D01*
X145655965Y-120476733D01*
X145907081Y-120629686D01*
X146183211Y-120730709D01*
X146198974Y-120733358D01*
X146431000Y-120612217D01*
X146431000Y-119253000D01*
X144145000Y-119253000D01*
X143891000Y-119253000D01*
X143871000Y-119253000D01*
X143871000Y-118999000D01*
X143891000Y-118999000D01*
X143891000Y-117639783D01*
X144145000Y-117639783D01*
X144145000Y-118999000D01*
X146431000Y-118999000D01*
X146431000Y-117639783D01*
X146685000Y-117639783D01*
X146685000Y-118999000D01*
X146705000Y-118999000D01*
X146705000Y-119253000D01*
X146685000Y-119253000D01*
X146685000Y-120612217D01*
X146917026Y-120733358D01*
X146932789Y-120730709D01*
X147208919Y-120629686D01*
X147460035Y-120476733D01*
X147676486Y-120277729D01*
X147824576Y-120075053D01*
X147845931Y-120115006D01*
X148033203Y-120343197D01*
X148261395Y-120530469D01*
X148521737Y-120669625D01*
X148804224Y-120755316D01*
X149098000Y-120784251D01*
X149391777Y-120755316D01*
X149674264Y-120669625D01*
X149934606Y-120530469D01*
X150162797Y-120343197D01*
X150350069Y-120115006D01*
X150489225Y-119854663D01*
X150574916Y-119572176D01*
X150596600Y-119352018D01*
X150596600Y-118899982D01*
X152679400Y-118899982D01*
X152679400Y-119352019D01*
X152701084Y-119572177D01*
X152786775Y-119854664D01*
X152925931Y-120115006D01*
X153113203Y-120343197D01*
X153341395Y-120530469D01*
X153601737Y-120669625D01*
X153884224Y-120755316D01*
X154178000Y-120784251D01*
X154471777Y-120755316D01*
X154754264Y-120669625D01*
X155014606Y-120530469D01*
X155242797Y-120343197D01*
X155430069Y-120115006D01*
X155448000Y-120081459D01*
X155465931Y-120115006D01*
X155653203Y-120343197D01*
X155881395Y-120530469D01*
X156141737Y-120669625D01*
X156424224Y-120755316D01*
X156718000Y-120784251D01*
X157011777Y-120755316D01*
X157294264Y-120669625D01*
X157554606Y-120530469D01*
X157782797Y-120343197D01*
X157970069Y-120115006D01*
X157988000Y-120081459D01*
X158005931Y-120115006D01*
X158193203Y-120343197D01*
X158421395Y-120530469D01*
X158681737Y-120669625D01*
X158964224Y-120755316D01*
X159258000Y-120784251D01*
X159551777Y-120755316D01*
X159834264Y-120669625D01*
X160094606Y-120530469D01*
X160322797Y-120343197D01*
X160510069Y-120115006D01*
X160528000Y-120081459D01*
X160545931Y-120115006D01*
X160733203Y-120343197D01*
X160961395Y-120530469D01*
X161221737Y-120669625D01*
X161504224Y-120755316D01*
X161798000Y-120784251D01*
X162091777Y-120755316D01*
X162374264Y-120669625D01*
X162634606Y-120530469D01*
X162862797Y-120343197D01*
X163050069Y-120115006D01*
X163068000Y-120081459D01*
X163085931Y-120115006D01*
X163273203Y-120343197D01*
X163501395Y-120530469D01*
X163761737Y-120669625D01*
X164044224Y-120755316D01*
X164338000Y-120784251D01*
X164631777Y-120755316D01*
X164914264Y-120669625D01*
X165174606Y-120530469D01*
X165402797Y-120343197D01*
X165590069Y-120115006D01*
X165608000Y-120081459D01*
X165625931Y-120115006D01*
X165813203Y-120343197D01*
X166041395Y-120530469D01*
X166301737Y-120669625D01*
X166584224Y-120755316D01*
X166878000Y-120784251D01*
X167171777Y-120755316D01*
X167454264Y-120669625D01*
X167714606Y-120530469D01*
X167942797Y-120343197D01*
X168130069Y-120115006D01*
X168148000Y-120081459D01*
X168165931Y-120115006D01*
X168353203Y-120343197D01*
X168581395Y-120530469D01*
X168841737Y-120669625D01*
X169124224Y-120755316D01*
X169418000Y-120784251D01*
X169711777Y-120755316D01*
X169994264Y-120669625D01*
X170254606Y-120530469D01*
X170482797Y-120343197D01*
X170670069Y-120115006D01*
X170688000Y-120081459D01*
X170705931Y-120115006D01*
X170893203Y-120343197D01*
X171121395Y-120530469D01*
X171381737Y-120669625D01*
X171664224Y-120755316D01*
X171958000Y-120784251D01*
X172251777Y-120755316D01*
X172534264Y-120669625D01*
X172794606Y-120530469D01*
X173022797Y-120343197D01*
X173210069Y-120115006D01*
X173349225Y-119854663D01*
X173434916Y-119572176D01*
X173456600Y-119352018D01*
X173456600Y-118899982D01*
X175539400Y-118899982D01*
X175539400Y-119352019D01*
X175561084Y-119572177D01*
X175646775Y-119854664D01*
X175785931Y-120115006D01*
X175973203Y-120343197D01*
X176201395Y-120530469D01*
X176461737Y-120669625D01*
X176744224Y-120755316D01*
X177038000Y-120784251D01*
X177331777Y-120755316D01*
X177614264Y-120669625D01*
X177874606Y-120530469D01*
X178102797Y-120343197D01*
X178290069Y-120115006D01*
X178308000Y-120081459D01*
X178325931Y-120115006D01*
X178513203Y-120343197D01*
X178741395Y-120530469D01*
X179001737Y-120669625D01*
X179284224Y-120755316D01*
X179578000Y-120784251D01*
X179871777Y-120755316D01*
X180154264Y-120669625D01*
X180414606Y-120530469D01*
X180642797Y-120343197D01*
X180830069Y-120115006D01*
X180848000Y-120081459D01*
X180865931Y-120115006D01*
X181053203Y-120343197D01*
X181281395Y-120530469D01*
X181541737Y-120669625D01*
X181824224Y-120755316D01*
X182118000Y-120784251D01*
X182411777Y-120755316D01*
X182694264Y-120669625D01*
X182954606Y-120530469D01*
X183182797Y-120343197D01*
X183370069Y-120115006D01*
X183388000Y-120081459D01*
X183405931Y-120115006D01*
X183593203Y-120343197D01*
X183821395Y-120530469D01*
X184081737Y-120669625D01*
X184364224Y-120755316D01*
X184658000Y-120784251D01*
X184951777Y-120755316D01*
X185234264Y-120669625D01*
X185494606Y-120530469D01*
X185722797Y-120343197D01*
X185910069Y-120115006D01*
X185928000Y-120081459D01*
X185945931Y-120115006D01*
X186133203Y-120343197D01*
X186361395Y-120530469D01*
X186621737Y-120669625D01*
X186904224Y-120755316D01*
X187198000Y-120784251D01*
X187491777Y-120755316D01*
X187774264Y-120669625D01*
X188034606Y-120530469D01*
X188262797Y-120343197D01*
X188450069Y-120115006D01*
X188468000Y-120081459D01*
X188485931Y-120115006D01*
X188673203Y-120343197D01*
X188901395Y-120530469D01*
X189161737Y-120669625D01*
X189444224Y-120755316D01*
X189738000Y-120784251D01*
X190031777Y-120755316D01*
X190314264Y-120669625D01*
X190574606Y-120530469D01*
X190802797Y-120343197D01*
X190990069Y-120115006D01*
X191008000Y-120081459D01*
X191025931Y-120115006D01*
X191213203Y-120343197D01*
X191441395Y-120530469D01*
X191701737Y-120669625D01*
X191984224Y-120755316D01*
X192278000Y-120784251D01*
X192571777Y-120755316D01*
X192854264Y-120669625D01*
X193114606Y-120530469D01*
X193342797Y-120343197D01*
X193530069Y-120115006D01*
X193548000Y-120081459D01*
X193565931Y-120115006D01*
X193753203Y-120343197D01*
X193981395Y-120530469D01*
X194241737Y-120669625D01*
X194524224Y-120755316D01*
X194818000Y-120784251D01*
X195111777Y-120755316D01*
X195394264Y-120669625D01*
X195654606Y-120530469D01*
X195882797Y-120343197D01*
X196070069Y-120115006D01*
X196209225Y-119854663D01*
X196294916Y-119572176D01*
X196316600Y-119352018D01*
X196316600Y-118899981D01*
X196294916Y-118679823D01*
X196209225Y-118397336D01*
X196070069Y-118136994D01*
X195882797Y-117908803D01*
X195654605Y-117721531D01*
X195394263Y-117582375D01*
X195111776Y-117496684D01*
X194818000Y-117467749D01*
X194524223Y-117496684D01*
X194241736Y-117582375D01*
X193981394Y-117721531D01*
X193753203Y-117908803D01*
X193565931Y-118136995D01*
X193548000Y-118170541D01*
X193530069Y-118136994D01*
X193342797Y-117908803D01*
X193114605Y-117721531D01*
X192854263Y-117582375D01*
X192571776Y-117496684D01*
X192278000Y-117467749D01*
X191984223Y-117496684D01*
X191701736Y-117582375D01*
X191441394Y-117721531D01*
X191213203Y-117908803D01*
X191025931Y-118136995D01*
X191008000Y-118170541D01*
X190990069Y-118136994D01*
X190802797Y-117908803D01*
X190574605Y-117721531D01*
X190314263Y-117582375D01*
X190031776Y-117496684D01*
X189738000Y-117467749D01*
X189444223Y-117496684D01*
X189161736Y-117582375D01*
X188901394Y-117721531D01*
X188673203Y-117908803D01*
X188485931Y-118136995D01*
X188468000Y-118170541D01*
X188450069Y-118136994D01*
X188262797Y-117908803D01*
X188034605Y-117721531D01*
X187774263Y-117582375D01*
X187491776Y-117496684D01*
X187198000Y-117467749D01*
X186904223Y-117496684D01*
X186621736Y-117582375D01*
X186361394Y-117721531D01*
X186133203Y-117908803D01*
X185945931Y-118136995D01*
X185928000Y-118170541D01*
X185910069Y-118136994D01*
X185722797Y-117908803D01*
X185494605Y-117721531D01*
X185234263Y-117582375D01*
X184951776Y-117496684D01*
X184658000Y-117467749D01*
X184364223Y-117496684D01*
X184081736Y-117582375D01*
X183821394Y-117721531D01*
X183593203Y-117908803D01*
X183405931Y-118136995D01*
X183388000Y-118170541D01*
X183370069Y-118136994D01*
X183182797Y-117908803D01*
X182954605Y-117721531D01*
X182694263Y-117582375D01*
X182411776Y-117496684D01*
X182118000Y-117467749D01*
X181824223Y-117496684D01*
X181541736Y-117582375D01*
X181281394Y-117721531D01*
X181053203Y-117908803D01*
X180865931Y-118136995D01*
X180848000Y-118170541D01*
X180830069Y-118136994D01*
X180642797Y-117908803D01*
X180414605Y-117721531D01*
X180154263Y-117582375D01*
X179871776Y-117496684D01*
X179578000Y-117467749D01*
X179284223Y-117496684D01*
X179001736Y-117582375D01*
X178741394Y-117721531D01*
X178513203Y-117908803D01*
X178325931Y-118136995D01*
X178308000Y-118170541D01*
X178290069Y-118136994D01*
X178102797Y-117908803D01*
X177874605Y-117721531D01*
X177614263Y-117582375D01*
X177331776Y-117496684D01*
X177038000Y-117467749D01*
X176744223Y-117496684D01*
X176461736Y-117582375D01*
X176201394Y-117721531D01*
X175973203Y-117908803D01*
X175785931Y-118136995D01*
X175646775Y-118397337D01*
X175561084Y-118679824D01*
X175539400Y-118899982D01*
X173456600Y-118899982D01*
X173456600Y-118899981D01*
X173434916Y-118679823D01*
X173349225Y-118397336D01*
X173210069Y-118136994D01*
X173022797Y-117908803D01*
X172794605Y-117721531D01*
X172534263Y-117582375D01*
X172251776Y-117496684D01*
X171958000Y-117467749D01*
X171664223Y-117496684D01*
X171381736Y-117582375D01*
X171121394Y-117721531D01*
X170893203Y-117908803D01*
X170705931Y-118136995D01*
X170688000Y-118170541D01*
X170670069Y-118136994D01*
X170482797Y-117908803D01*
X170254605Y-117721531D01*
X169994263Y-117582375D01*
X169711776Y-117496684D01*
X169418000Y-117467749D01*
X169124223Y-117496684D01*
X168841736Y-117582375D01*
X168581394Y-117721531D01*
X168353203Y-117908803D01*
X168165931Y-118136995D01*
X168148000Y-118170541D01*
X168130069Y-118136994D01*
X167942797Y-117908803D01*
X167714605Y-117721531D01*
X167454263Y-117582375D01*
X167171776Y-117496684D01*
X166878000Y-117467749D01*
X166584223Y-117496684D01*
X166301736Y-117582375D01*
X166041394Y-117721531D01*
X165813203Y-117908803D01*
X165625931Y-118136995D01*
X165608000Y-118170541D01*
X165590069Y-118136994D01*
X165402797Y-117908803D01*
X165174605Y-117721531D01*
X164914263Y-117582375D01*
X164631776Y-117496684D01*
X164338000Y-117467749D01*
X164044223Y-117496684D01*
X163761736Y-117582375D01*
X163501394Y-117721531D01*
X163273203Y-117908803D01*
X163085931Y-118136995D01*
X163068000Y-118170541D01*
X163050069Y-118136994D01*
X162862797Y-117908803D01*
X162634605Y-117721531D01*
X162374263Y-117582375D01*
X162091776Y-117496684D01*
X161798000Y-117467749D01*
X161504223Y-117496684D01*
X161221736Y-117582375D01*
X160961394Y-117721531D01*
X160733203Y-117908803D01*
X160545931Y-118136995D01*
X160528000Y-118170541D01*
X160510069Y-118136994D01*
X160322797Y-117908803D01*
X160094605Y-117721531D01*
X159834263Y-117582375D01*
X159551776Y-117496684D01*
X159258000Y-117467749D01*
X158964223Y-117496684D01*
X158681736Y-117582375D01*
X158421394Y-117721531D01*
X158193203Y-117908803D01*
X158005931Y-118136995D01*
X157988000Y-118170541D01*
X157970069Y-118136994D01*
X157782797Y-117908803D01*
X157554605Y-117721531D01*
X157294263Y-117582375D01*
X157011776Y-117496684D01*
X156718000Y-117467749D01*
X156424223Y-117496684D01*
X156141736Y-117582375D01*
X155881394Y-117721531D01*
X155653203Y-117908803D01*
X155465931Y-118136995D01*
X155448000Y-118170541D01*
X155430069Y-118136994D01*
X155242797Y-117908803D01*
X155014605Y-117721531D01*
X154754263Y-117582375D01*
X154471776Y-117496684D01*
X154178000Y-117467749D01*
X153884223Y-117496684D01*
X153601736Y-117582375D01*
X153341394Y-117721531D01*
X153113203Y-117908803D01*
X152925931Y-118136995D01*
X152786775Y-118397337D01*
X152701084Y-118679824D01*
X152679400Y-118899982D01*
X150596600Y-118899982D01*
X150596600Y-118899981D01*
X150574916Y-118679823D01*
X150489225Y-118397336D01*
X150350069Y-118136994D01*
X150162797Y-117908803D01*
X149934605Y-117721531D01*
X149674263Y-117582375D01*
X149391776Y-117496684D01*
X149098000Y-117467749D01*
X148804223Y-117496684D01*
X148521736Y-117582375D01*
X148261394Y-117721531D01*
X148033203Y-117908803D01*
X147845931Y-118136995D01*
X147824576Y-118176947D01*
X147676486Y-117974271D01*
X147460035Y-117775267D01*
X147208919Y-117622314D01*
X146932789Y-117521291D01*
X146917026Y-117518642D01*
X146685000Y-117639783D01*
X146431000Y-117639783D01*
X146198974Y-117518642D01*
X146183211Y-117521291D01*
X145907081Y-117622314D01*
X145655965Y-117775267D01*
X145439514Y-117974271D01*
X145288000Y-118181633D01*
X145136486Y-117974271D01*
X144920035Y-117775267D01*
X144668919Y-117622314D01*
X144392789Y-117521291D01*
X144377026Y-117518642D01*
X144145000Y-117639783D01*
X143891000Y-117639783D01*
X143658974Y-117518642D01*
X143643211Y-117521291D01*
X143367081Y-117622314D01*
X143115965Y-117775267D01*
X142899514Y-117974271D01*
X142751424Y-118176947D01*
X142730069Y-118136994D01*
X142542797Y-117908803D01*
X142314605Y-117721531D01*
X142054263Y-117582375D01*
X141771776Y-117496684D01*
X141478000Y-117467749D01*
X141184223Y-117496684D01*
X140901736Y-117582375D01*
X140641394Y-117721531D01*
X140413203Y-117908803D01*
X140225931Y-118136995D01*
X140208000Y-118170541D01*
X140190069Y-118136994D01*
X140002797Y-117908803D01*
X139774605Y-117721531D01*
X139514263Y-117582375D01*
X139231776Y-117496684D01*
X138938000Y-117467749D01*
X138644223Y-117496684D01*
X138361736Y-117582375D01*
X138101394Y-117721531D01*
X137873203Y-117908803D01*
X137685931Y-118136995D01*
X137668000Y-118170541D01*
X137650069Y-118136994D01*
X137462797Y-117908803D01*
X137234605Y-117721531D01*
X136974263Y-117582375D01*
X136691776Y-117496684D01*
X136398000Y-117467749D01*
X136104223Y-117496684D01*
X135821736Y-117582375D01*
X135561394Y-117721531D01*
X135333203Y-117908803D01*
X135145931Y-118136995D01*
X135128000Y-118170541D01*
X135110069Y-118136994D01*
X134922797Y-117908803D01*
X134694605Y-117721531D01*
X134434263Y-117582375D01*
X134151776Y-117496684D01*
X133858000Y-117467749D01*
X133564223Y-117496684D01*
X133281736Y-117582375D01*
X133021394Y-117721531D01*
X132793203Y-117908803D01*
X132605931Y-118136995D01*
X132588000Y-118170541D01*
X132570069Y-118136994D01*
X132382797Y-117908803D01*
X132154605Y-117721531D01*
X131894263Y-117582375D01*
X131611776Y-117496684D01*
X131318000Y-117467749D01*
X131024223Y-117496684D01*
X130741736Y-117582375D01*
X130481394Y-117721531D01*
X130253203Y-117908803D01*
X130065931Y-118136995D01*
X129926775Y-118397337D01*
X129841084Y-118679824D01*
X129819400Y-118899982D01*
X120015000Y-118899982D01*
X120015000Y-118863323D01*
X119912508Y-118348065D01*
X119711464Y-117862702D01*
X119419594Y-117425887D01*
X119048113Y-117054406D01*
X118611298Y-116762536D01*
X118125935Y-116561492D01*
X117610677Y-116459000D01*
X117085323Y-116459000D01*
X116570065Y-116561492D01*
X116084702Y-116762536D01*
X115647887Y-117054406D01*
X115276406Y-117425887D01*
X114984536Y-117862702D01*
X114783492Y-118348065D01*
X114681000Y-118863323D01*
X114681000Y-119388677D01*
X114783492Y-119903935D01*
X114984536Y-120389298D01*
X115276406Y-120826113D01*
X115406293Y-120956000D01*
X104088000Y-120956000D01*
X104088000Y-93060001D01*
X125125718Y-93060001D01*
X125129999Y-93103470D01*
X125130000Y-106286520D01*
X125125718Y-106329999D01*
X125142804Y-106503489D01*
X125193411Y-106670312D01*
X125275589Y-106824058D01*
X125358467Y-106925045D01*
X125358470Y-106925048D01*
X125386183Y-106958816D01*
X125419950Y-106986529D01*
X129332346Y-110898925D01*
X129346414Y-110932889D01*
X129448738Y-111086028D01*
X129578972Y-111216262D01*
X129732111Y-111318586D01*
X129902271Y-111389068D01*
X130082911Y-111425000D01*
X130267089Y-111425000D01*
X130447729Y-111389068D01*
X130617889Y-111318586D01*
X130771028Y-111216262D01*
X130901262Y-111086028D01*
X131003586Y-110932889D01*
X131074068Y-110762729D01*
X131110000Y-110582089D01*
X131110000Y-110397911D01*
X131074068Y-110217271D01*
X131003586Y-110047111D01*
X130901262Y-109893972D01*
X130771028Y-109763738D01*
X130617889Y-109661414D01*
X130583925Y-109647346D01*
X126899999Y-105963421D01*
X126899999Y-104519271D01*
X127108501Y-104605635D01*
X127457223Y-104675000D01*
X127812777Y-104675000D01*
X128161499Y-104605635D01*
X128489988Y-104469571D01*
X128785621Y-104272035D01*
X129037035Y-104020621D01*
X129234571Y-103724988D01*
X129370635Y-103396499D01*
X129440000Y-103047777D01*
X129440000Y-102692223D01*
X129370635Y-102343501D01*
X129234571Y-102015012D01*
X129037035Y-101719379D01*
X128785621Y-101467965D01*
X128489988Y-101270429D01*
X128161499Y-101134365D01*
X127812777Y-101065000D01*
X127457223Y-101065000D01*
X127108501Y-101134365D01*
X126899999Y-101220729D01*
X126899999Y-99520242D01*
X126992860Y-99566257D01*
X127336122Y-99658938D01*
X127690869Y-99682873D01*
X128043470Y-99637139D01*
X128380373Y-99523495D01*
X128595725Y-99408389D01*
X128711997Y-99126602D01*
X127635000Y-98049605D01*
X127620858Y-98063748D01*
X127441253Y-97884143D01*
X127455395Y-97870000D01*
X127814605Y-97870000D01*
X128891602Y-98946997D01*
X129173389Y-98830725D01*
X129331257Y-98512140D01*
X129423938Y-98168878D01*
X129447873Y-97814131D01*
X129402139Y-97461530D01*
X129288495Y-97124627D01*
X129173389Y-96909275D01*
X128891602Y-96793003D01*
X127814605Y-97870000D01*
X127455395Y-97870000D01*
X127441253Y-97855858D01*
X127620858Y-97676253D01*
X127635000Y-97690395D01*
X128711997Y-96613398D01*
X128595725Y-96331611D01*
X128277140Y-96173743D01*
X127933878Y-96081062D01*
X127579131Y-96057127D01*
X127226530Y-96102861D01*
X126899999Y-96213006D01*
X126899999Y-93426579D01*
X127143902Y-93182677D01*
X127457223Y-93245000D01*
X127812777Y-93245000D01*
X128161499Y-93175635D01*
X128489988Y-93039571D01*
X128785621Y-92842035D01*
X129037035Y-92590621D01*
X129234571Y-92294988D01*
X129370635Y-91966499D01*
X129440000Y-91617777D01*
X129440000Y-91262223D01*
X129370635Y-90913501D01*
X129234571Y-90585012D01*
X129037035Y-90289379D01*
X128785621Y-90037965D01*
X128489988Y-89840429D01*
X128161499Y-89704365D01*
X127812777Y-89635000D01*
X127457223Y-89635000D01*
X127108501Y-89704365D01*
X126780012Y-89840429D01*
X126484379Y-90037965D01*
X126232965Y-90289379D01*
X126035429Y-90585012D01*
X125899365Y-90913501D01*
X125830000Y-91262223D01*
X125830000Y-91617777D01*
X125892323Y-91931098D01*
X125419955Y-92403467D01*
X125386182Y-92431184D01*
X125275588Y-92565943D01*
X125193410Y-92719689D01*
X125142804Y-92886512D01*
X125129999Y-93016525D01*
X125129999Y-93016532D01*
X125125718Y-93060001D01*
X104088000Y-93060001D01*
X104088000Y-87696602D01*
X126558003Y-87696602D01*
X126674275Y-87978389D01*
X126992860Y-88136257D01*
X127336122Y-88228938D01*
X127690869Y-88252873D01*
X128043470Y-88207139D01*
X128380373Y-88093495D01*
X128595725Y-87978389D01*
X128711997Y-87696602D01*
X127635000Y-86619605D01*
X126558003Y-87696602D01*
X104088000Y-87696602D01*
X104088000Y-86495869D01*
X125822127Y-86495869D01*
X125867861Y-86848470D01*
X125981505Y-87185373D01*
X126096611Y-87400725D01*
X126378398Y-87516997D01*
X127455395Y-86440000D01*
X127814605Y-86440000D01*
X128891602Y-87516997D01*
X129173389Y-87400725D01*
X129331257Y-87082140D01*
X129423938Y-86738878D01*
X129447873Y-86384131D01*
X129402139Y-86031530D01*
X129288495Y-85694627D01*
X129173389Y-85479275D01*
X128891602Y-85363003D01*
X127814605Y-86440000D01*
X127455395Y-86440000D01*
X126378398Y-85363003D01*
X126096611Y-85479275D01*
X125938743Y-85797860D01*
X125846062Y-86141122D01*
X125822127Y-86495869D01*
X104088000Y-86495869D01*
X104088000Y-85183398D01*
X126558003Y-85183398D01*
X127635000Y-86260395D01*
X128711997Y-85183398D01*
X128595725Y-84901611D01*
X128277140Y-84743743D01*
X127933878Y-84651062D01*
X127579131Y-84627127D01*
X127226530Y-84672861D01*
X126889627Y-84786505D01*
X126674275Y-84901611D01*
X126558003Y-85183398D01*
X104088000Y-85183398D01*
X104088000Y-69036000D01*
X116676293Y-69036000D01*
X116546406Y-69165887D01*
%TA.AperFunction,Conductor*%
D21*
G36*
X116546406Y-69165887D02*
G01*
X116254536Y-69602702D01*
X116053492Y-70088065D01*
X115951000Y-70603323D01*
X115951000Y-71128677D01*
X116053492Y-71643935D01*
X116254536Y-72129298D01*
X116546406Y-72566113D01*
X116917887Y-72937594D01*
X117354702Y-73229464D01*
X117840065Y-73430508D01*
X118355323Y-73533000D01*
X118880677Y-73533000D01*
X119395935Y-73430508D01*
X119881298Y-73229464D01*
X120318113Y-72937594D01*
X120689594Y-72566113D01*
X120981464Y-72129298D01*
X121037001Y-71995219D01*
X121109203Y-72083197D01*
X121337395Y-72270469D01*
X121597737Y-72409625D01*
X121880224Y-72495316D01*
X122174000Y-72524251D01*
X122467777Y-72495316D01*
X122750264Y-72409625D01*
X123010606Y-72270469D01*
X123238797Y-72083197D01*
X123426069Y-71855006D01*
X123444000Y-71821459D01*
X123461931Y-71855006D01*
X123649203Y-72083197D01*
X123877395Y-72270469D01*
X124137737Y-72409625D01*
X124420224Y-72495316D01*
X124714000Y-72524251D01*
X125007777Y-72495316D01*
X125290264Y-72409625D01*
X125550606Y-72270469D01*
X125778797Y-72083197D01*
X125966069Y-71855006D01*
X125984000Y-71821459D01*
X126001931Y-71855006D01*
X126189203Y-72083197D01*
X126417395Y-72270469D01*
X126677737Y-72409625D01*
X126960224Y-72495316D01*
X127254000Y-72524251D01*
X127547777Y-72495316D01*
X127830264Y-72409625D01*
X128090606Y-72270469D01*
X128318797Y-72083197D01*
X128506069Y-71855006D01*
X128527424Y-71815053D01*
X128675514Y-72017729D01*
X128891965Y-72216733D01*
X129143081Y-72369686D01*
X129419211Y-72470709D01*
X129434974Y-72473358D01*
X129667000Y-72352217D01*
X129667000Y-70993000D01*
X129647000Y-70993000D01*
X129647000Y-70739000D01*
X129667000Y-70739000D01*
X129667000Y-69379783D01*
X129434974Y-69258642D01*
X129419211Y-69261291D01*
X129143081Y-69362314D01*
X128891965Y-69515267D01*
X128675514Y-69714271D01*
X128527424Y-69916947D01*
X128506069Y-69876994D01*
X128318797Y-69648803D01*
X128090605Y-69461531D01*
X127830263Y-69322375D01*
X127547776Y-69236684D01*
X127254000Y-69207749D01*
X126960223Y-69236684D01*
X126677736Y-69322375D01*
X126417394Y-69461531D01*
X126189203Y-69648803D01*
X126001931Y-69876995D01*
X125984000Y-69910541D01*
X125966069Y-69876994D01*
X125778797Y-69648803D01*
X125550605Y-69461531D01*
X125290263Y-69322375D01*
X125007776Y-69236684D01*
X124714000Y-69207749D01*
X124420223Y-69236684D01*
X124137736Y-69322375D01*
X123877394Y-69461531D01*
X123649203Y-69648803D01*
X123461931Y-69876995D01*
X123444000Y-69910541D01*
X123426069Y-69876994D01*
X123238797Y-69648803D01*
X123010605Y-69461531D01*
X122750263Y-69322375D01*
X122467776Y-69236684D01*
X122174000Y-69207749D01*
X121880223Y-69236684D01*
X121597736Y-69322375D01*
X121337394Y-69461531D01*
X121109203Y-69648803D01*
X121037001Y-69736781D01*
X120981464Y-69602702D01*
X120689594Y-69165887D01*
X120559707Y-69036000D01*
X170879850Y-69036000D01*
X168209558Y-71706293D01*
X168269225Y-71594663D01*
X168354916Y-71312176D01*
X168376600Y-71092018D01*
X168376600Y-70639981D01*
X168354916Y-70419823D01*
X168269225Y-70137336D01*
X168130069Y-69876994D01*
X167942797Y-69648803D01*
X167714605Y-69461531D01*
X167454263Y-69322375D01*
X167171776Y-69236684D01*
X166878000Y-69207749D01*
X166584223Y-69236684D01*
X166301736Y-69322375D01*
X166041394Y-69461531D01*
X165813203Y-69648803D01*
X165625931Y-69876995D01*
X165608000Y-69910541D01*
X165590069Y-69876994D01*
X165402797Y-69648803D01*
X165174605Y-69461531D01*
X164914263Y-69322375D01*
X164631776Y-69236684D01*
X164338000Y-69207749D01*
X164044223Y-69236684D01*
X163761736Y-69322375D01*
X163501394Y-69461531D01*
X163273203Y-69648803D01*
X163085931Y-69876995D01*
X163068000Y-69910541D01*
X163050069Y-69876994D01*
X162862797Y-69648803D01*
X162634605Y-69461531D01*
X162374263Y-69322375D01*
X162091776Y-69236684D01*
X161798000Y-69207749D01*
X161504223Y-69236684D01*
X161221736Y-69322375D01*
X160961394Y-69461531D01*
X160733203Y-69648803D01*
X160545931Y-69876995D01*
X160528000Y-69910541D01*
X160510069Y-69876994D01*
X160322797Y-69648803D01*
X160094605Y-69461531D01*
X159834263Y-69322375D01*
X159551776Y-69236684D01*
X159258000Y-69207749D01*
X158964223Y-69236684D01*
X158681736Y-69322375D01*
X158421394Y-69461531D01*
X158193203Y-69648803D01*
X158005931Y-69876995D01*
X157988000Y-69910541D01*
X157970069Y-69876994D01*
X157782797Y-69648803D01*
X157554605Y-69461531D01*
X157294263Y-69322375D01*
X157011776Y-69236684D01*
X156718000Y-69207749D01*
X156424223Y-69236684D01*
X156141736Y-69322375D01*
X155881394Y-69461531D01*
X155653203Y-69648803D01*
X155465931Y-69876995D01*
X155448000Y-69910541D01*
X155430069Y-69876994D01*
X155242797Y-69648803D01*
X155014605Y-69461531D01*
X154754263Y-69322375D01*
X154471776Y-69236684D01*
X154178000Y-69207749D01*
X153884223Y-69236684D01*
X153601736Y-69322375D01*
X153341394Y-69461531D01*
X153113203Y-69648803D01*
X152925931Y-69876995D01*
X152908000Y-69910541D01*
X152890069Y-69876994D01*
X152702797Y-69648803D01*
X152474605Y-69461531D01*
X152214263Y-69322375D01*
X151931776Y-69236684D01*
X151638000Y-69207749D01*
X151344223Y-69236684D01*
X151061736Y-69322375D01*
X150801394Y-69461531D01*
X150573203Y-69648803D01*
X150385931Y-69876995D01*
X150368000Y-69910541D01*
X150350069Y-69876994D01*
X150162797Y-69648803D01*
X149934605Y-69461531D01*
X149674263Y-69322375D01*
X149391776Y-69236684D01*
X149098000Y-69207749D01*
X148804223Y-69236684D01*
X148521736Y-69322375D01*
X148261394Y-69461531D01*
X148033203Y-69648803D01*
X147845931Y-69876995D01*
X147706775Y-70137337D01*
X147621084Y-70419824D01*
X147599400Y-70639982D01*
X147599400Y-71092019D01*
X147621084Y-71312177D01*
X147706775Y-71594664D01*
X147845931Y-71855006D01*
X148033203Y-72083197D01*
X148261395Y-72270469D01*
X148521737Y-72409625D01*
X148804224Y-72495316D01*
X149098000Y-72524251D01*
X149391777Y-72495316D01*
X149591829Y-72434631D01*
X149735000Y-72577802D01*
X149735000Y-82256546D01*
X149587271Y-82285932D01*
X149417111Y-82356414D01*
X149263972Y-82458738D01*
X149133738Y-82588972D01*
X149031414Y-82742111D01*
X149015540Y-82780433D01*
X148901632Y-82666525D01*
X148719466Y-82544805D01*
X148836355Y-82475178D01*
X149052588Y-82280269D01*
X149226641Y-82046920D01*
X149351825Y-81784099D01*
X149396476Y-81636890D01*
X149275155Y-81407000D01*
X148082000Y-81407000D01*
X148082000Y-81427000D01*
X147828000Y-81427000D01*
X147828000Y-81407000D01*
X145542000Y-81407000D01*
X145542000Y-81427000D01*
X145288000Y-81427000D01*
X145288000Y-81407000D01*
X145268000Y-81407000D01*
X145268000Y-81153000D01*
X145288000Y-81153000D01*
X145288000Y-79953750D01*
X145542000Y-79953750D01*
X145542000Y-81153000D01*
X147828000Y-81153000D01*
X147828000Y-79959186D01*
X148082000Y-79959186D01*
X148082000Y-81153000D01*
X149275155Y-81153000D01*
X149396476Y-80923110D01*
X149351825Y-80775901D01*
X149226641Y-80513080D01*
X149052588Y-80279731D01*
X148836355Y-80084822D01*
X148586252Y-79935843D01*
X148311891Y-79838519D01*
X148082000Y-79959186D01*
X147828000Y-79959186D01*
X147598109Y-79838519D01*
X147323748Y-79935843D01*
X147073645Y-80084822D01*
X146877498Y-80261626D01*
X146854502Y-80185820D01*
X146795537Y-80075506D01*
X146716185Y-79978815D01*
X146619494Y-79899463D01*
X146509180Y-79840498D01*
X146389482Y-79804188D01*
X146265000Y-79791928D01*
X145700750Y-79795000D01*
X145542000Y-79953750D01*
X145288000Y-79953750D01*
X145129250Y-79795000D01*
X144565000Y-79791928D01*
X144440518Y-79804188D01*
X144320820Y-79840498D01*
X144270000Y-79867662D01*
X144270000Y-72704801D01*
X144540171Y-72434631D01*
X144740224Y-72495316D01*
X145034000Y-72524251D01*
X145327777Y-72495316D01*
X145610264Y-72409625D01*
X145870606Y-72270469D01*
X146098797Y-72083197D01*
X146286069Y-71855006D01*
X146425225Y-71594663D01*
X146510916Y-71312176D01*
X146532600Y-71092018D01*
X146532600Y-70639981D01*
X146510916Y-70419823D01*
X146425225Y-70137336D01*
X146286069Y-69876994D01*
X146098797Y-69648803D01*
X145870605Y-69461531D01*
X145610263Y-69322375D01*
X145327776Y-69236684D01*
X145034000Y-69207749D01*
X144740223Y-69236684D01*
X144457736Y-69322375D01*
X144197394Y-69461531D01*
X143969203Y-69648803D01*
X143781931Y-69876995D01*
X143764000Y-69910541D01*
X143746069Y-69876994D01*
X143558797Y-69648803D01*
X143330605Y-69461531D01*
X143070263Y-69322375D01*
X142787776Y-69236684D01*
X142494000Y-69207749D01*
X142200223Y-69236684D01*
X141917736Y-69322375D01*
X141657394Y-69461531D01*
X141429203Y-69648803D01*
X141241931Y-69876995D01*
X141224000Y-69910541D01*
X141206069Y-69876994D01*
X141018797Y-69648803D01*
X140790605Y-69461531D01*
X140530263Y-69322375D01*
X140247776Y-69236684D01*
X139954000Y-69207749D01*
X139660223Y-69236684D01*
X139377736Y-69322375D01*
X139117394Y-69461531D01*
X138889203Y-69648803D01*
X138701931Y-69876995D01*
X138684000Y-69910541D01*
X138666069Y-69876994D01*
X138478797Y-69648803D01*
X138250605Y-69461531D01*
X137990263Y-69322375D01*
X137707776Y-69236684D01*
X137414000Y-69207749D01*
X137120223Y-69236684D01*
X136837736Y-69322375D01*
X136577394Y-69461531D01*
X136349203Y-69648803D01*
X136161931Y-69876995D01*
X136144000Y-69910541D01*
X136126069Y-69876994D01*
X135938797Y-69648803D01*
X135710605Y-69461531D01*
X135450263Y-69322375D01*
X135167776Y-69236684D01*
X134874000Y-69207749D01*
X134580223Y-69236684D01*
X134297736Y-69322375D01*
X134037394Y-69461531D01*
X133809203Y-69648803D01*
X133621931Y-69876995D01*
X133604000Y-69910541D01*
X133586069Y-69876994D01*
X133398797Y-69648803D01*
X133170605Y-69461531D01*
X132910263Y-69322375D01*
X132627776Y-69236684D01*
X132334000Y-69207749D01*
X132040223Y-69236684D01*
X131757736Y-69322375D01*
X131497394Y-69461531D01*
X131269203Y-69648803D01*
X131081931Y-69876995D01*
X131060576Y-69916947D01*
X130912486Y-69714271D01*
X130696035Y-69515267D01*
X130444919Y-69362314D01*
X130168789Y-69261291D01*
X130153026Y-69258642D01*
X129921000Y-69379783D01*
X129921000Y-70739000D01*
X129941000Y-70739000D01*
X129941000Y-70993000D01*
X129921000Y-70993000D01*
X129921000Y-72352217D01*
X130153026Y-72473358D01*
X130168789Y-72470709D01*
X130444919Y-72369686D01*
X130696035Y-72216733D01*
X130912486Y-72017729D01*
X131060576Y-71815053D01*
X131081931Y-71855006D01*
X131269203Y-72083197D01*
X131497395Y-72270469D01*
X131757737Y-72409625D01*
X132040224Y-72495316D01*
X132334000Y-72524251D01*
X132627777Y-72495316D01*
X132910264Y-72409625D01*
X133170606Y-72270469D01*
X133398797Y-72083197D01*
X133586069Y-71855006D01*
X133604000Y-71821459D01*
X133621931Y-71855006D01*
X133809203Y-72083197D01*
X134037395Y-72270469D01*
X134297737Y-72409625D01*
X134580224Y-72495316D01*
X134874000Y-72524251D01*
X135167777Y-72495316D01*
X135450264Y-72409625D01*
X135710606Y-72270469D01*
X135938797Y-72083197D01*
X136126069Y-71855006D01*
X136144000Y-71821459D01*
X136161931Y-71855006D01*
X136349203Y-72083197D01*
X136577395Y-72270469D01*
X136837737Y-72409625D01*
X137120224Y-72495316D01*
X137414000Y-72524251D01*
X137707777Y-72495316D01*
X137907829Y-72434631D01*
X138370001Y-72896803D01*
X138370002Y-87290729D01*
X138161499Y-87204365D01*
X137812777Y-87135000D01*
X137457223Y-87135000D01*
X137108501Y-87204365D01*
X136780012Y-87340429D01*
X136484379Y-87537965D01*
X136232965Y-87789379D01*
X136035429Y-88085012D01*
X135899365Y-88413501D01*
X135830000Y-88762223D01*
X135830000Y-89117777D01*
X135899365Y-89466499D01*
X135938711Y-89561488D01*
X135629002Y-89871197D01*
X135599998Y-89895000D01*
X135568973Y-89932805D01*
X135505025Y-90010725D01*
X135434454Y-90142754D01*
X135434453Y-90142755D01*
X135390996Y-90286016D01*
X135379999Y-90397669D01*
X135379999Y-90397679D01*
X135376323Y-90435001D01*
X135379999Y-90472323D01*
X135380000Y-101670198D01*
X135103351Y-101946847D01*
X134982271Y-101970932D01*
X134812111Y-102041414D01*
X134658972Y-102143738D01*
X134528738Y-102273972D01*
X134426414Y-102427111D01*
X134355932Y-102597271D01*
X134320000Y-102777911D01*
X134320000Y-102962089D01*
X134355932Y-103142729D01*
X134426414Y-103312889D01*
X134528738Y-103466028D01*
X134658972Y-103596262D01*
X134812111Y-103698586D01*
X134982271Y-103769068D01*
X135162911Y-103805000D01*
X135347089Y-103805000D01*
X135527729Y-103769068D01*
X135697889Y-103698586D01*
X135851028Y-103596262D01*
X135981262Y-103466028D01*
X136083586Y-103312889D01*
X136154068Y-103142729D01*
X136178153Y-103021649D01*
X136651002Y-102548800D01*
X136680000Y-102525002D01*
X136774973Y-102409277D01*
X136845545Y-102277248D01*
X136889002Y-102133987D01*
X136899999Y-102022334D01*
X136900289Y-102019391D01*
X137108501Y-102105635D01*
X137457223Y-102175000D01*
X137812777Y-102175000D01*
X138161499Y-102105635D01*
X138489988Y-101969571D01*
X138785621Y-101772035D01*
X139037035Y-101520621D01*
X139234571Y-101224988D01*
X139370635Y-100896499D01*
X139440000Y-100547777D01*
X139440000Y-100192223D01*
X139370635Y-99843501D01*
X139234571Y-99515012D01*
X139037035Y-99219379D01*
X138785621Y-98967965D01*
X138489988Y-98770429D01*
X138161499Y-98634365D01*
X137812777Y-98565000D01*
X137457223Y-98565000D01*
X137108501Y-98634365D01*
X136899999Y-98720729D01*
X136899999Y-90749802D01*
X137013512Y-90636289D01*
X137108501Y-90675635D01*
X137457223Y-90745000D01*
X137812777Y-90745000D01*
X138161499Y-90675635D01*
X138370002Y-90589271D01*
X138370002Y-95567670D01*
X138366325Y-95605003D01*
X138370002Y-95642336D01*
X138380999Y-95753989D01*
X138389068Y-95780590D01*
X138424455Y-95897249D01*
X138495027Y-96029279D01*
X138549557Y-96095723D01*
X138590001Y-96145004D01*
X138618999Y-96168802D01*
X140090733Y-97640537D01*
X140141414Y-97762892D01*
X140243738Y-97916031D01*
X140373972Y-98046265D01*
X140527111Y-98148589D01*
X140697271Y-98219071D01*
X140877911Y-98255003D01*
X141062089Y-98255003D01*
X141242729Y-98219071D01*
X141412889Y-98148589D01*
X141566028Y-98046265D01*
X141696262Y-97916031D01*
X141798586Y-97762892D01*
X141869068Y-97592732D01*
X141905000Y-97412092D01*
X141905000Y-97227914D01*
X141869068Y-97047274D01*
X141816350Y-96920002D01*
X141869068Y-96792729D01*
X141905000Y-96612089D01*
X141905000Y-96427911D01*
X141869068Y-96247271D01*
X141798586Y-96077111D01*
X141696262Y-95923972D01*
X141566028Y-95793738D01*
X141412889Y-95691414D01*
X141242729Y-95620932D01*
X141121649Y-95596847D01*
X140714000Y-95189199D01*
X140714000Y-72311416D01*
X140790606Y-72270469D01*
X141018797Y-72083197D01*
X141206069Y-71855006D01*
X141224000Y-71821459D01*
X141241931Y-71855006D01*
X141429203Y-72083197D01*
X141657395Y-72270469D01*
X141734000Y-72311415D01*
X141734001Y-94196667D01*
X141730324Y-94234000D01*
X141734001Y-94271333D01*
X141744998Y-94382986D01*
X141756655Y-94421414D01*
X141788454Y-94526246D01*
X141859026Y-94658276D01*
X141898408Y-94706262D01*
X141954000Y-94774001D01*
X141982998Y-94797799D01*
X142586847Y-95401649D01*
X142610932Y-95522729D01*
X142681414Y-95692889D01*
X142783738Y-95846028D01*
X142913972Y-95976262D01*
X143067111Y-96078586D01*
X143237271Y-96149068D01*
X143417911Y-96185000D01*
X143602089Y-96185000D01*
X143782729Y-96149068D01*
X143952889Y-96078586D01*
X144004876Y-96043849D01*
X143987068Y-96086842D01*
X143930000Y-96373740D01*
X143930000Y-96666260D01*
X143987068Y-96953158D01*
X144099010Y-97223411D01*
X144261525Y-97466632D01*
X144468368Y-97673475D01*
X144642760Y-97790000D01*
X144468368Y-97906525D01*
X144261525Y-98113368D01*
X144099010Y-98356589D01*
X143987068Y-98626842D01*
X143930000Y-98913740D01*
X143930000Y-99206260D01*
X143987068Y-99493158D01*
X144099010Y-99763411D01*
X144261525Y-100006632D01*
X144468368Y-100213475D01*
X144642760Y-100330000D01*
X144468368Y-100446525D01*
X144261525Y-100653368D01*
X144099010Y-100896589D01*
X143987068Y-101166842D01*
X143930000Y-101453740D01*
X143930000Y-101746260D01*
X143987068Y-102033158D01*
X144099010Y-102303411D01*
X144261525Y-102546632D01*
X144468368Y-102753475D01*
X144650534Y-102875195D01*
X144533645Y-102944822D01*
X144317412Y-103139731D01*
X144143359Y-103373080D01*
X144018175Y-103635901D01*
X143973524Y-103783110D01*
X144094845Y-104013000D01*
X145288000Y-104013000D01*
X145288000Y-103993000D01*
X145542000Y-103993000D01*
X145542000Y-104013000D01*
X145562000Y-104013000D01*
X145562000Y-104267000D01*
X145542000Y-104267000D01*
X145542000Y-104287000D01*
X145288000Y-104287000D01*
X145288000Y-104267000D01*
X144094845Y-104267000D01*
X143973524Y-104496890D01*
X144018175Y-104644099D01*
X144143359Y-104906920D01*
X144317412Y-105140269D01*
X144533645Y-105335178D01*
X144650534Y-105404805D01*
X144468368Y-105526525D01*
X144261525Y-105733368D01*
X144099010Y-105976589D01*
X143987068Y-106246842D01*
X143930000Y-106533740D01*
X143930000Y-106826260D01*
X143987068Y-107113158D01*
X144099010Y-107383411D01*
X144261525Y-107626632D01*
X144468368Y-107833475D01*
X144711589Y-107995990D01*
X144981842Y-108107932D01*
X145268740Y-108165000D01*
X145561260Y-108165000D01*
X145848158Y-108107932D01*
X146118411Y-107995990D01*
X146361632Y-107833475D01*
X146568475Y-107626632D01*
X146686100Y-107450594D01*
X146857412Y-107680269D01*
X147073645Y-107875178D01*
X147323748Y-108024157D01*
X147598109Y-108121481D01*
X147828000Y-108000814D01*
X147828000Y-106807000D01*
X148082000Y-106807000D01*
X148082000Y-108000814D01*
X148311891Y-108121481D01*
X148586252Y-108024157D01*
X148836355Y-107875178D01*
X149052588Y-107680269D01*
X149226641Y-107446920D01*
X149351825Y-107184099D01*
X149396476Y-107036890D01*
X149275155Y-106807000D01*
X148082000Y-106807000D01*
X147828000Y-106807000D01*
X147808000Y-106807000D01*
X147808000Y-106553000D01*
X147828000Y-106553000D01*
X147828000Y-106533000D01*
X148082000Y-106533000D01*
X148082000Y-106553000D01*
X149275155Y-106553000D01*
X149396476Y-106323110D01*
X149351825Y-106175901D01*
X149226641Y-105913080D01*
X149052588Y-105679731D01*
X148836355Y-105484822D01*
X148719466Y-105415195D01*
X148865061Y-105317911D01*
X151465000Y-105317911D01*
X151465000Y-105502089D01*
X151500932Y-105682729D01*
X151515001Y-105716695D01*
X151515000Y-109548307D01*
X151500932Y-109582271D01*
X151465000Y-109762911D01*
X151465000Y-109947089D01*
X151500932Y-110127729D01*
X151571414Y-110297889D01*
X151673738Y-110451028D01*
X151803972Y-110581262D01*
X151957111Y-110683586D01*
X152127271Y-110754068D01*
X152307911Y-110790000D01*
X152492089Y-110790000D01*
X152672729Y-110754068D01*
X152842889Y-110683586D01*
X152996028Y-110581262D01*
X153126262Y-110451028D01*
X153228586Y-110297889D01*
X153299068Y-110127729D01*
X153335000Y-109947089D01*
X153335000Y-109762911D01*
X153299068Y-109582271D01*
X153285000Y-109548308D01*
X153285000Y-105716692D01*
X153299068Y-105682729D01*
X153335000Y-105502089D01*
X153335000Y-105317911D01*
X153299068Y-105137271D01*
X153228586Y-104967111D01*
X153126262Y-104813972D01*
X152996028Y-104683738D01*
X152842889Y-104581414D01*
X152672729Y-104510932D01*
X152492089Y-104475000D01*
X152307911Y-104475000D01*
X152127271Y-104510932D01*
X151957111Y-104581414D01*
X151803972Y-104683738D01*
X151673738Y-104813972D01*
X151571414Y-104967111D01*
X151500932Y-105137271D01*
X151465000Y-105317911D01*
X148865061Y-105317911D01*
X148901632Y-105293475D01*
X149108475Y-105086632D01*
X149270990Y-104843411D01*
X149382932Y-104573158D01*
X149440000Y-104286260D01*
X149440000Y-103993740D01*
X149382932Y-103706842D01*
X149270990Y-103436589D01*
X149108475Y-103193368D01*
X148901632Y-102986525D01*
X148727240Y-102870000D01*
X148901632Y-102753475D01*
X149108475Y-102546632D01*
X149259026Y-102321316D01*
X149263972Y-102326262D01*
X149417111Y-102428586D01*
X149587271Y-102499068D01*
X149594495Y-102500505D01*
X149595932Y-102507729D01*
X149666414Y-102677889D01*
X149768738Y-102831028D01*
X149898972Y-102961262D01*
X150052111Y-103063586D01*
X150222271Y-103134068D01*
X150402911Y-103170000D01*
X150587089Y-103170000D01*
X150767729Y-103134068D01*
X150937889Y-103063586D01*
X151091028Y-102961262D01*
X151221262Y-102831028D01*
X151323586Y-102677889D01*
X151394068Y-102507729D01*
X151418153Y-102386649D01*
X152149003Y-101655799D01*
X152178001Y-101632001D01*
X152236496Y-101560725D01*
X152272974Y-101516277D01*
X152343546Y-101384247D01*
X152366749Y-101307754D01*
X152387003Y-101240986D01*
X152398000Y-101129333D01*
X152398000Y-101129324D01*
X152401676Y-101092001D01*
X152398000Y-101054678D01*
X152398000Y-97800656D01*
X152519379Y-97922035D01*
X152791096Y-98103591D01*
X152770932Y-98152271D01*
X152735000Y-98332911D01*
X152735000Y-98517089D01*
X152770932Y-98697729D01*
X152841414Y-98867889D01*
X152943738Y-99021028D01*
X153073972Y-99151262D01*
X153227111Y-99253586D01*
X153397271Y-99324068D01*
X153577911Y-99360000D01*
X153762089Y-99360000D01*
X153942729Y-99324068D01*
X154112889Y-99253586D01*
X154266028Y-99151262D01*
X154306145Y-99111145D01*
X154401878Y-99059974D01*
X154517603Y-98965001D01*
X154541406Y-98935997D01*
X154970057Y-98507347D01*
X154978972Y-98516262D01*
X155132111Y-98618586D01*
X155302271Y-98689068D01*
X155482911Y-98725000D01*
X155667089Y-98725000D01*
X155847729Y-98689068D01*
X156017889Y-98618586D01*
X156171028Y-98516262D01*
X156301262Y-98386028D01*
X156403586Y-98232889D01*
X156474068Y-98062729D01*
X156498153Y-97941649D01*
X157229003Y-97210799D01*
X157258001Y-97187001D01*
X157317053Y-97115046D01*
X157352974Y-97071277D01*
X157355579Y-97066403D01*
X157388738Y-97116028D01*
X157518972Y-97246262D01*
X157672111Y-97348586D01*
X157706077Y-97362655D01*
X158500001Y-98156580D01*
X158500000Y-113298421D01*
X157071077Y-114727345D01*
X157037111Y-114741414D01*
X156883972Y-114843738D01*
X156753738Y-114973972D01*
X156651414Y-115127111D01*
X156580932Y-115297271D01*
X156545000Y-115477911D01*
X156545000Y-115662089D01*
X156580932Y-115842729D01*
X156651414Y-116012889D01*
X156753738Y-116166028D01*
X156883972Y-116296262D01*
X157037111Y-116398586D01*
X157207271Y-116469068D01*
X157387911Y-116505000D01*
X157572089Y-116505000D01*
X157752729Y-116469068D01*
X157922889Y-116398586D01*
X158076028Y-116296262D01*
X158206262Y-116166028D01*
X158308586Y-116012889D01*
X158322655Y-115978923D01*
X159980050Y-114321529D01*
X160013817Y-114293817D01*
X160124411Y-114159059D01*
X160206589Y-114005313D01*
X160257195Y-113838490D01*
X160262628Y-113783323D01*
X166751000Y-113783323D01*
X166751000Y-114308677D01*
X166853492Y-114823935D01*
X167054536Y-115309298D01*
X167346406Y-115746113D01*
X167717887Y-116117594D01*
X168154702Y-116409464D01*
X168640065Y-116610508D01*
X169155323Y-116713000D01*
X169680677Y-116713000D01*
X170195935Y-116610508D01*
X170681298Y-116409464D01*
X171118113Y-116117594D01*
X171489594Y-115746113D01*
X171781464Y-115309298D01*
X171874742Y-115084104D01*
X196499501Y-115084104D01*
X196578782Y-115334567D01*
X196845141Y-115461826D01*
X197131210Y-115534675D01*
X197425993Y-115550315D01*
X197718164Y-115508145D01*
X197996493Y-115409786D01*
X198137218Y-115334567D01*
X198216499Y-115084104D01*
X197358000Y-114225605D01*
X196499501Y-115084104D01*
X171874742Y-115084104D01*
X171982508Y-114823935D01*
X172085000Y-114308677D01*
X172085000Y-114113993D01*
X195853685Y-114113993D01*
X195895855Y-114406164D01*
X195994214Y-114684493D01*
X196069433Y-114825218D01*
X196319896Y-114904499D01*
X197178395Y-114046000D01*
X196319896Y-113187501D01*
X196069433Y-113266782D01*
X195942174Y-113533141D01*
X195869325Y-113819210D01*
X195853685Y-114113993D01*
X172085000Y-114113993D01*
X172085000Y-113783323D01*
X171982508Y-113268065D01*
X171781464Y-112782702D01*
X171489594Y-112345887D01*
X171118113Y-111974406D01*
X170681298Y-111682536D01*
X170195935Y-111481492D01*
X169680677Y-111379000D01*
X169155323Y-111379000D01*
X168640065Y-111481492D01*
X168154702Y-111682536D01*
X167717887Y-111974406D01*
X167346406Y-112345887D01*
X167054536Y-112782702D01*
X166853492Y-113268065D01*
X166751000Y-113783323D01*
X160262628Y-113783323D01*
X160270000Y-113708477D01*
X160270000Y-113708469D01*
X160274281Y-113665000D01*
X160270000Y-113621531D01*
X160270000Y-108492911D01*
X160990000Y-108492911D01*
X160990000Y-108677089D01*
X161025932Y-108857729D01*
X161096414Y-109027889D01*
X161198738Y-109181028D01*
X161328972Y-109311262D01*
X161482111Y-109413586D01*
X161652271Y-109484068D01*
X161832911Y-109520000D01*
X162017089Y-109520000D01*
X162197729Y-109484068D01*
X162367889Y-109413586D01*
X162521028Y-109311262D01*
X162651262Y-109181028D01*
X162753586Y-109027889D01*
X162824068Y-108857729D01*
X162848153Y-108736649D01*
X164181003Y-107403799D01*
X164210001Y-107380001D01*
X164304974Y-107264276D01*
X164375546Y-107132247D01*
X164419003Y-106988986D01*
X164430000Y-106877333D01*
X164430000Y-106877325D01*
X164433676Y-106840000D01*
X164430000Y-106802675D01*
X164430000Y-95658916D01*
X164524988Y-95619571D01*
X164820621Y-95422035D01*
X165072035Y-95170621D01*
X165269571Y-94874988D01*
X165405635Y-94546499D01*
X165475000Y-94197777D01*
X165475000Y-93842223D01*
X165405635Y-93493501D01*
X165269571Y-93165012D01*
X165072035Y-92869379D01*
X164820621Y-92617965D01*
X164524988Y-92420429D01*
X164196499Y-92284365D01*
X163847777Y-92215000D01*
X163492223Y-92215000D01*
X163143501Y-92284365D01*
X162815012Y-92420429D01*
X162519379Y-92617965D01*
X162267965Y-92869379D01*
X162070429Y-93165012D01*
X161934365Y-93493501D01*
X161865000Y-93842223D01*
X161865000Y-94197777D01*
X161934365Y-94546499D01*
X162070429Y-94874988D01*
X162267965Y-95170621D01*
X162519379Y-95422035D01*
X162815012Y-95619571D01*
X162910000Y-95658916D01*
X162910001Y-106525197D01*
X161773351Y-107661847D01*
X161652271Y-107685932D01*
X161482111Y-107756414D01*
X161328972Y-107858738D01*
X161198738Y-107988972D01*
X161096414Y-108142111D01*
X161025932Y-108312271D01*
X160990000Y-108492911D01*
X160270000Y-108492911D01*
X160270000Y-97833465D01*
X160274281Y-97789999D01*
X160270000Y-97746533D01*
X160270000Y-91690000D01*
X161618308Y-91690000D01*
X161652271Y-91704068D01*
X161832911Y-91740000D01*
X162017089Y-91740000D01*
X162197729Y-91704068D01*
X162367889Y-91633586D01*
X162521028Y-91531262D01*
X162651262Y-91401028D01*
X162753586Y-91247889D01*
X162824068Y-91077729D01*
X162860000Y-90897089D01*
X162860000Y-90712911D01*
X162824068Y-90532271D01*
X162753586Y-90362111D01*
X162651262Y-90208972D01*
X162521028Y-90078738D01*
X162367889Y-89976414D01*
X162197729Y-89905932D01*
X162017089Y-89870000D01*
X161832911Y-89870000D01*
X161652271Y-89905932D01*
X161618308Y-89920000D01*
X160270000Y-89920000D01*
X160270000Y-88308465D01*
X160274281Y-88264999D01*
X160270000Y-88221533D01*
X160270000Y-88221523D01*
X160257195Y-88091510D01*
X160206589Y-87924687D01*
X160124411Y-87770941D01*
X160013817Y-87636183D01*
X159980050Y-87608471D01*
X158957655Y-86586077D01*
X158943586Y-86552111D01*
X158841262Y-86398972D01*
X158711028Y-86268738D01*
X158557889Y-86166414D01*
X158387729Y-86095932D01*
X158207089Y-86060000D01*
X158022911Y-86060000D01*
X157842271Y-86095932D01*
X157672111Y-86166414D01*
X157518972Y-86268738D01*
X157478000Y-86309710D01*
X157478000Y-72311416D01*
X157554606Y-72270469D01*
X157782797Y-72083197D01*
X157970069Y-71855006D01*
X157988000Y-71821459D01*
X158005931Y-71855006D01*
X158193203Y-72083197D01*
X158421395Y-72270469D01*
X158681737Y-72409625D01*
X158964224Y-72495316D01*
X159258000Y-72524251D01*
X159551777Y-72495316D01*
X159834264Y-72409625D01*
X160094606Y-72270469D01*
X160322797Y-72083197D01*
X160510069Y-71855006D01*
X160528000Y-71821459D01*
X160545931Y-71855006D01*
X160733203Y-72083197D01*
X160961395Y-72270469D01*
X161221737Y-72409625D01*
X161504224Y-72495316D01*
X161798000Y-72524251D01*
X162091777Y-72495316D01*
X162374264Y-72409625D01*
X162634606Y-72270469D01*
X162862797Y-72083197D01*
X163050069Y-71855006D01*
X163068000Y-71821459D01*
X163085931Y-71855006D01*
X163273203Y-72083197D01*
X163501395Y-72270469D01*
X163761737Y-72409625D01*
X164044224Y-72495316D01*
X164338000Y-72524251D01*
X164631777Y-72495316D01*
X164914264Y-72409625D01*
X165174606Y-72270469D01*
X165402797Y-72083197D01*
X165590069Y-71855006D01*
X165608000Y-71821459D01*
X165625931Y-71855006D01*
X165813203Y-72083197D01*
X166041395Y-72270469D01*
X166301737Y-72409625D01*
X166584224Y-72495316D01*
X166878000Y-72524251D01*
X167171777Y-72495316D01*
X167454264Y-72409625D01*
X167565892Y-72349958D01*
X165859003Y-74056848D01*
X165829999Y-74080651D01*
X165801110Y-74115853D01*
X165735026Y-74196376D01*
X165664455Y-74328405D01*
X165664454Y-74328406D01*
X165620997Y-74471667D01*
X165610000Y-74583320D01*
X165610000Y-74583330D01*
X165606324Y-74620652D01*
X165610000Y-74657974D01*
X165610001Y-86680197D01*
X164313352Y-87976847D01*
X164192271Y-88000932D01*
X164022111Y-88071414D01*
X163868972Y-88173738D01*
X163738738Y-88303972D01*
X163636414Y-88457111D01*
X163565932Y-88627271D01*
X163530000Y-88807911D01*
X163530000Y-88992089D01*
X163565932Y-89172729D01*
X163636414Y-89342889D01*
X163738738Y-89496028D01*
X163868972Y-89626262D01*
X164022111Y-89728586D01*
X164192271Y-89799068D01*
X164372911Y-89835000D01*
X164557089Y-89835000D01*
X164737729Y-89799068D01*
X164907889Y-89728586D01*
X165061028Y-89626262D01*
X165191262Y-89496028D01*
X165293586Y-89342889D01*
X165364068Y-89172729D01*
X165388153Y-89051648D01*
X166881003Y-87558799D01*
X166910001Y-87535001D01*
X167004974Y-87419276D01*
X167044561Y-87345216D01*
X167054536Y-87369298D01*
X167346406Y-87806113D01*
X167717887Y-88177594D01*
X168154702Y-88469464D01*
X168640065Y-88670508D01*
X169155323Y-88773000D01*
X169680677Y-88773000D01*
X170195935Y-88670508D01*
X170681298Y-88469464D01*
X171118113Y-88177594D01*
X171198001Y-88097706D01*
X171198001Y-88712197D01*
X170663351Y-89246847D01*
X170542271Y-89270932D01*
X170372111Y-89341414D01*
X170218972Y-89443738D01*
X170088738Y-89573972D01*
X169986414Y-89727111D01*
X169915932Y-89897271D01*
X169880000Y-90077911D01*
X169880000Y-90262089D01*
X169915932Y-90442729D01*
X169986414Y-90612889D01*
X170088738Y-90766028D01*
X170218972Y-90896262D01*
X170372111Y-90998586D01*
X170542271Y-91069068D01*
X170722911Y-91105000D01*
X170907089Y-91105000D01*
X171087729Y-91069068D01*
X171257889Y-90998586D01*
X171411028Y-90896262D01*
X171541262Y-90766028D01*
X171643586Y-90612889D01*
X171714068Y-90442729D01*
X171738153Y-90321649D01*
X172469003Y-89590799D01*
X172498001Y-89567001D01*
X172582697Y-89463799D01*
X172592974Y-89451277D01*
X172663546Y-89319247D01*
X172686749Y-89242754D01*
X172707003Y-89175986D01*
X172718000Y-89064333D01*
X172718000Y-89064324D01*
X172721676Y-89027001D01*
X172718000Y-88989678D01*
X172718000Y-72311416D01*
X172794606Y-72270469D01*
X173022797Y-72083197D01*
X173210069Y-71855006D01*
X173228000Y-71821459D01*
X173245931Y-71855006D01*
X173433203Y-72083197D01*
X173661395Y-72270469D01*
X173921737Y-72409625D01*
X174204224Y-72495316D01*
X174498000Y-72524251D01*
X174791777Y-72495316D01*
X175074264Y-72409625D01*
X175334606Y-72270469D01*
X175562797Y-72083197D01*
X175750069Y-71855006D01*
X175768000Y-71821459D01*
X175785931Y-71855006D01*
X175973203Y-72083197D01*
X176201395Y-72270469D01*
X176278000Y-72311415D01*
X176278001Y-79822197D01*
X175108351Y-80991847D01*
X174987271Y-81015932D01*
X174817111Y-81086414D01*
X174663972Y-81188738D01*
X174533738Y-81318972D01*
X174431414Y-81472111D01*
X174360932Y-81642271D01*
X174325000Y-81822911D01*
X174325000Y-82007089D01*
X174360932Y-82187729D01*
X174431414Y-82357889D01*
X174533738Y-82511028D01*
X174663972Y-82641262D01*
X174817111Y-82743586D01*
X174987271Y-82814068D01*
X175167911Y-82850000D01*
X175352089Y-82850000D01*
X175532729Y-82814068D01*
X175702889Y-82743586D01*
X175856028Y-82641262D01*
X175986262Y-82511028D01*
X176088586Y-82357889D01*
X176159068Y-82187729D01*
X176183153Y-82066649D01*
X177549003Y-80700799D01*
X177578001Y-80677001D01*
X177672974Y-80561276D01*
X177743546Y-80429247D01*
X177787003Y-80285986D01*
X177798000Y-80174333D01*
X177798000Y-80174325D01*
X177801676Y-80137000D01*
X177798000Y-80099675D01*
X177798000Y-72311416D01*
X177874606Y-72270469D01*
X178102797Y-72083197D01*
X178290069Y-71855006D01*
X178308000Y-71821459D01*
X178325931Y-71855006D01*
X178513203Y-72083197D01*
X178741395Y-72270469D01*
X178818000Y-72311415D01*
X178818001Y-81092197D01*
X177648351Y-82261847D01*
X177527271Y-82285932D01*
X177357111Y-82356414D01*
X177203972Y-82458738D01*
X177073738Y-82588972D01*
X176971414Y-82742111D01*
X176900932Y-82912271D01*
X176865000Y-83092911D01*
X176865000Y-83277089D01*
X176900932Y-83457729D01*
X176971414Y-83627889D01*
X177073738Y-83781028D01*
X177203972Y-83911262D01*
X177357111Y-84013586D01*
X177527271Y-84084068D01*
X177707911Y-84120000D01*
X177892089Y-84120000D01*
X178072729Y-84084068D01*
X178242889Y-84013586D01*
X178396028Y-83911262D01*
X178526262Y-83781028D01*
X178628586Y-83627889D01*
X178699068Y-83457729D01*
X178723153Y-83336649D01*
X180089003Y-81970799D01*
X180118001Y-81947001D01*
X180212974Y-81831276D01*
X180283546Y-81699247D01*
X180327003Y-81555986D01*
X180338000Y-81444333D01*
X180338000Y-81444325D01*
X180341676Y-81407000D01*
X180338000Y-81369675D01*
X180338000Y-72311416D01*
X180414606Y-72270469D01*
X180642797Y-72083197D01*
X180830069Y-71855006D01*
X180848000Y-71821459D01*
X180865931Y-71855006D01*
X181053203Y-72083197D01*
X181281395Y-72270469D01*
X181541737Y-72409625D01*
X181824224Y-72495316D01*
X182118000Y-72524251D01*
X182411777Y-72495316D01*
X182694264Y-72409625D01*
X182954606Y-72270469D01*
X183182797Y-72083197D01*
X183370069Y-71855006D01*
X183388000Y-71821459D01*
X183405931Y-71855006D01*
X183593203Y-72083197D01*
X183821395Y-72270469D01*
X184081737Y-72409625D01*
X184364224Y-72495316D01*
X184658000Y-72524251D01*
X184951777Y-72495316D01*
X185234264Y-72409625D01*
X185494606Y-72270469D01*
X185722797Y-72083197D01*
X185910069Y-71855006D01*
X185928000Y-71821459D01*
X185945931Y-71855006D01*
X186133203Y-72083197D01*
X186361395Y-72270469D01*
X186621737Y-72409625D01*
X186904224Y-72495316D01*
X187198000Y-72524251D01*
X187491777Y-72495316D01*
X187774264Y-72409625D01*
X188034606Y-72270469D01*
X188262797Y-72083197D01*
X188450069Y-71855006D01*
X188468000Y-71821459D01*
X188485931Y-71855006D01*
X188673203Y-72083197D01*
X188901395Y-72270469D01*
X189161737Y-72409625D01*
X189444224Y-72495316D01*
X189738000Y-72524251D01*
X190031777Y-72495316D01*
X190314264Y-72409625D01*
X190574606Y-72270469D01*
X190802797Y-72083197D01*
X190990069Y-71855006D01*
X191035621Y-71769785D01*
X191184536Y-72129298D01*
X191476406Y-72566113D01*
X191847887Y-72937594D01*
X192284702Y-73229464D01*
X192770065Y-73430508D01*
X193285323Y-73533000D01*
X193439422Y-73533000D01*
X191809956Y-75162466D01*
X191776183Y-75190183D01*
X191665589Y-75324942D01*
X191583411Y-75478688D01*
X191532805Y-75645511D01*
X191520000Y-75775524D01*
X191520000Y-75775531D01*
X191515719Y-75819000D01*
X191520000Y-75862469D01*
X191520001Y-88533420D01*
X190091077Y-89962345D01*
X190057111Y-89976414D01*
X189903972Y-90078738D01*
X189773738Y-90208972D01*
X189671414Y-90362111D01*
X189600932Y-90532271D01*
X189565000Y-90712911D01*
X189565000Y-90897089D01*
X189600932Y-91077729D01*
X189671414Y-91247889D01*
X189773738Y-91401028D01*
X189903972Y-91531262D01*
X190057111Y-91633586D01*
X190227271Y-91704068D01*
X190407911Y-91740000D01*
X190592089Y-91740000D01*
X190772729Y-91704068D01*
X190942889Y-91633586D01*
X191096028Y-91531262D01*
X191226262Y-91401028D01*
X191328586Y-91247889D01*
X191342655Y-91213923D01*
X193000049Y-89556530D01*
X193033817Y-89528817D01*
X193087177Y-89463799D01*
X193144411Y-89394059D01*
X193164832Y-89355853D01*
X193226589Y-89240313D01*
X193277195Y-89073490D01*
X193290000Y-88943477D01*
X193290000Y-88943469D01*
X193294281Y-88900000D01*
X193290000Y-88856531D01*
X193290000Y-76185578D01*
X195869783Y-73605796D01*
X195916990Y-73843125D01*
X196029958Y-74115853D01*
X196193961Y-74361302D01*
X196402698Y-74570039D01*
X196561281Y-74676000D01*
X196402698Y-74781961D01*
X196193961Y-74990698D01*
X196029958Y-75236147D01*
X195916990Y-75508875D01*
X195859400Y-75798401D01*
X195859400Y-76093599D01*
X195916990Y-76383125D01*
X196029958Y-76655853D01*
X196193961Y-76901302D01*
X196402698Y-77110039D01*
X196561281Y-77216000D01*
X196402698Y-77321961D01*
X196193961Y-77530698D01*
X196029958Y-77776147D01*
X195916990Y-78048875D01*
X195859400Y-78338401D01*
X195859400Y-78633599D01*
X195916990Y-78923125D01*
X196029958Y-79195853D01*
X196193961Y-79441302D01*
X196402698Y-79650039D01*
X196561281Y-79756000D01*
X196402698Y-79861961D01*
X196193961Y-80070698D01*
X196029958Y-80316147D01*
X195916990Y-80588875D01*
X195859400Y-80878401D01*
X195859400Y-81173599D01*
X195916990Y-81463125D01*
X196029958Y-81735853D01*
X196193961Y-81981302D01*
X196402698Y-82190039D01*
X196561281Y-82296000D01*
X196402698Y-82401961D01*
X196193961Y-82610698D01*
X196029958Y-82856147D01*
X195916990Y-83128875D01*
X195859400Y-83418401D01*
X195859400Y-83713599D01*
X195916990Y-84003125D01*
X196029958Y-84275853D01*
X196193961Y-84521302D01*
X196402698Y-84730039D01*
X196561281Y-84836000D01*
X196402698Y-84941961D01*
X196193961Y-85150698D01*
X196029958Y-85396147D01*
X195916990Y-85668875D01*
X195859400Y-85958401D01*
X195859400Y-86253599D01*
X195916990Y-86543125D01*
X196029958Y-86815853D01*
X196193961Y-87061302D01*
X196402698Y-87270039D01*
X196561281Y-87376000D01*
X196402698Y-87481961D01*
X196193961Y-87690698D01*
X196029958Y-87936147D01*
X195916990Y-88208875D01*
X195859400Y-88498401D01*
X195859400Y-88793599D01*
X195916990Y-89083125D01*
X196029958Y-89355853D01*
X196193961Y-89601302D01*
X196402698Y-89810039D01*
X196561281Y-89916000D01*
X196402698Y-90021961D01*
X196193961Y-90230698D01*
X196029958Y-90476147D01*
X195916990Y-90748875D01*
X195859400Y-91038401D01*
X195859400Y-91333599D01*
X195916990Y-91623125D01*
X196029958Y-91895853D01*
X196193961Y-92141302D01*
X196402698Y-92350039D01*
X196561281Y-92456000D01*
X196402698Y-92561961D01*
X196193961Y-92770698D01*
X196029958Y-93016147D01*
X195916990Y-93288875D01*
X195859400Y-93578401D01*
X195859400Y-93873599D01*
X195916990Y-94163125D01*
X196029958Y-94435853D01*
X196193961Y-94681302D01*
X196402698Y-94890039D01*
X196561281Y-94996000D01*
X196402698Y-95101961D01*
X196193961Y-95310698D01*
X196029958Y-95556147D01*
X195916990Y-95828875D01*
X195859400Y-96118401D01*
X195859400Y-96413599D01*
X195916990Y-96703125D01*
X196029958Y-96975853D01*
X196193961Y-97221302D01*
X196402698Y-97430039D01*
X196561281Y-97536000D01*
X196402698Y-97641961D01*
X196193961Y-97850698D01*
X196029958Y-98096147D01*
X195916990Y-98368875D01*
X195859400Y-98658401D01*
X195859400Y-98953599D01*
X195916990Y-99243125D01*
X196029958Y-99515853D01*
X196193961Y-99761302D01*
X196402698Y-99970039D01*
X196561281Y-100076000D01*
X196402698Y-100181961D01*
X196193961Y-100390698D01*
X196029958Y-100636147D01*
X195916990Y-100908875D01*
X195859400Y-101198401D01*
X195859400Y-101493599D01*
X195916990Y-101783125D01*
X196029958Y-102055853D01*
X196193961Y-102301302D01*
X196402698Y-102510039D01*
X196561281Y-102616000D01*
X196402698Y-102721961D01*
X196193961Y-102930698D01*
X196029958Y-103176147D01*
X195916990Y-103448875D01*
X195859400Y-103738401D01*
X195859400Y-104033599D01*
X195916990Y-104323125D01*
X196029958Y-104595853D01*
X196193961Y-104841302D01*
X196402698Y-105050039D01*
X196561281Y-105156000D01*
X196402698Y-105261961D01*
X196193961Y-105470698D01*
X196029958Y-105716147D01*
X195916990Y-105988875D01*
X195859400Y-106278401D01*
X195859400Y-106573599D01*
X195916990Y-106863125D01*
X196029958Y-107135853D01*
X196193961Y-107381302D01*
X196402698Y-107590039D01*
X196561281Y-107696000D01*
X196402698Y-107801961D01*
X196193961Y-108010698D01*
X196029958Y-108256147D01*
X195916990Y-108528875D01*
X195859400Y-108818401D01*
X195859400Y-109113599D01*
X195916990Y-109403125D01*
X196029958Y-109675853D01*
X196193961Y-109921302D01*
X196402698Y-110130039D01*
X196561281Y-110236000D01*
X196402698Y-110341961D01*
X196193961Y-110550698D01*
X196029958Y-110796147D01*
X195916990Y-111068875D01*
X195859400Y-111358401D01*
X195859400Y-111653599D01*
X195916990Y-111943125D01*
X196029958Y-112215853D01*
X196193961Y-112461302D01*
X196402698Y-112670039D01*
X196570875Y-112782411D01*
X196499501Y-113007896D01*
X197358000Y-113866395D01*
X198216499Y-113007896D01*
X198145125Y-112782411D01*
X198313302Y-112670039D01*
X198522039Y-112461302D01*
X198628000Y-112302719D01*
X198733961Y-112461302D01*
X198942698Y-112670039D01*
X199103813Y-112777692D01*
X198887707Y-112939146D01*
X198691183Y-113157512D01*
X198629434Y-113261359D01*
X198396104Y-113187501D01*
X197537605Y-114046000D01*
X198396104Y-114904499D01*
X198629434Y-114830641D01*
X198691183Y-114934488D01*
X198887707Y-115152854D01*
X199123056Y-115328684D01*
X199388186Y-115455222D01*
X199538974Y-115500958D01*
X199771000Y-115379817D01*
X199771000Y-114173000D01*
X200025000Y-114173000D01*
X200025000Y-115379817D01*
X200257026Y-115500958D01*
X200407814Y-115455222D01*
X200672944Y-115328684D01*
X200908293Y-115152854D01*
X201104817Y-114934488D01*
X201254964Y-114681978D01*
X201352963Y-114405027D01*
X201232464Y-114173000D01*
X200025000Y-114173000D01*
X199771000Y-114173000D01*
X199751000Y-114173000D01*
X199751000Y-113919000D01*
X199771000Y-113919000D01*
X199771000Y-113899000D01*
X200025000Y-113899000D01*
X200025000Y-113919000D01*
X201232464Y-113919000D01*
X201352963Y-113686973D01*
X201254964Y-113410022D01*
X201104817Y-113157512D01*
X200908293Y-112939146D01*
X200692187Y-112777692D01*
X200853302Y-112670039D01*
X201062039Y-112461302D01*
X201226042Y-112215853D01*
X201339010Y-111943125D01*
X201396600Y-111653599D01*
X201396600Y-111358401D01*
X201339010Y-111068875D01*
X201226042Y-110796147D01*
X201062039Y-110550698D01*
X200853302Y-110341961D01*
X200694719Y-110236000D01*
X200853302Y-110130039D01*
X201062039Y-109921302D01*
X201226042Y-109675853D01*
X201339010Y-109403125D01*
X201396600Y-109113599D01*
X201396600Y-108818401D01*
X201339010Y-108528875D01*
X201226042Y-108256147D01*
X201062039Y-108010698D01*
X200853302Y-107801961D01*
X200694719Y-107696000D01*
X200853302Y-107590039D01*
X201062039Y-107381302D01*
X201226042Y-107135853D01*
X201339010Y-106863125D01*
X201396600Y-106573599D01*
X201396600Y-106278401D01*
X201339010Y-105988875D01*
X201226042Y-105716147D01*
X201062039Y-105470698D01*
X200853302Y-105261961D01*
X200694719Y-105156000D01*
X200853302Y-105050039D01*
X201062039Y-104841302D01*
X201226042Y-104595853D01*
X201339010Y-104323125D01*
X201396600Y-104033599D01*
X201396600Y-103738401D01*
X201339010Y-103448875D01*
X201226042Y-103176147D01*
X201062039Y-102930698D01*
X200853302Y-102721961D01*
X200694719Y-102616000D01*
X200853302Y-102510039D01*
X201062039Y-102301302D01*
X201226042Y-102055853D01*
X201339010Y-101783125D01*
X201396600Y-101493599D01*
X201396600Y-101198401D01*
X201339010Y-100908875D01*
X201226042Y-100636147D01*
X201062039Y-100390698D01*
X200853302Y-100181961D01*
X200694719Y-100076000D01*
X200853302Y-99970039D01*
X201062039Y-99761302D01*
X201226042Y-99515853D01*
X201339010Y-99243125D01*
X201396600Y-98953599D01*
X201396600Y-98658401D01*
X201339010Y-98368875D01*
X201226042Y-98096147D01*
X201062039Y-97850698D01*
X200853302Y-97641961D01*
X200694719Y-97536000D01*
X200853302Y-97430039D01*
X201062039Y-97221302D01*
X201226042Y-96975853D01*
X201339010Y-96703125D01*
X201396600Y-96413599D01*
X201396600Y-96118401D01*
X201339010Y-95828875D01*
X201226042Y-95556147D01*
X201062039Y-95310698D01*
X200853302Y-95101961D01*
X200694719Y-94996000D01*
X200853302Y-94890039D01*
X201062039Y-94681302D01*
X201226042Y-94435853D01*
X201339010Y-94163125D01*
X201396600Y-93873599D01*
X201396600Y-93578401D01*
X201339010Y-93288875D01*
X201226042Y-93016147D01*
X201062039Y-92770698D01*
X200853302Y-92561961D01*
X200694719Y-92456000D01*
X200853302Y-92350039D01*
X201062039Y-92141302D01*
X201226042Y-91895853D01*
X201339010Y-91623125D01*
X201396600Y-91333599D01*
X201396600Y-91038401D01*
X201339010Y-90748875D01*
X201226042Y-90476147D01*
X201062039Y-90230698D01*
X200853302Y-90021961D01*
X200694719Y-89916000D01*
X200853302Y-89810039D01*
X201062039Y-89601302D01*
X201226042Y-89355853D01*
X201339010Y-89083125D01*
X201396600Y-88793599D01*
X201396600Y-88498401D01*
X201339010Y-88208875D01*
X201226042Y-87936147D01*
X201062039Y-87690698D01*
X200853302Y-87481961D01*
X200694719Y-87376000D01*
X200853302Y-87270039D01*
X201062039Y-87061302D01*
X201226042Y-86815853D01*
X201339010Y-86543125D01*
X201396600Y-86253599D01*
X201396600Y-85958401D01*
X201339010Y-85668875D01*
X201226042Y-85396147D01*
X201062039Y-85150698D01*
X200853302Y-84941961D01*
X200694719Y-84836000D01*
X200853302Y-84730039D01*
X201062039Y-84521302D01*
X201226042Y-84275853D01*
X201339010Y-84003125D01*
X201396600Y-83713599D01*
X201396600Y-83418401D01*
X201339010Y-83128875D01*
X201226042Y-82856147D01*
X201062039Y-82610698D01*
X200853302Y-82401961D01*
X200694719Y-82296000D01*
X200853302Y-82190039D01*
X201062039Y-81981302D01*
X201226042Y-81735853D01*
X201339010Y-81463125D01*
X201396600Y-81173599D01*
X201396600Y-80878401D01*
X201339010Y-80588875D01*
X201226042Y-80316147D01*
X201062039Y-80070698D01*
X200853302Y-79861961D01*
X200694719Y-79756000D01*
X200853302Y-79650039D01*
X201062039Y-79441302D01*
X201226042Y-79195853D01*
X201339010Y-78923125D01*
X201396600Y-78633599D01*
X201396600Y-78338401D01*
X201339010Y-78048875D01*
X201226042Y-77776147D01*
X201062039Y-77530698D01*
X200853302Y-77321961D01*
X200694719Y-77216000D01*
X200853302Y-77110039D01*
X201062039Y-76901302D01*
X201226042Y-76655853D01*
X201339010Y-76383125D01*
X201396600Y-76093599D01*
X201396600Y-75798401D01*
X201339010Y-75508875D01*
X201226042Y-75236147D01*
X201062039Y-74990698D01*
X200853302Y-74781961D01*
X200694719Y-74676000D01*
X200853302Y-74570039D01*
X201062039Y-74361302D01*
X201226042Y-74115853D01*
X201339010Y-73843125D01*
X201396600Y-73553599D01*
X201396600Y-73258401D01*
X201339010Y-72968875D01*
X201226042Y-72696147D01*
X201062039Y-72450698D01*
X200853302Y-72241961D01*
X200694719Y-72136000D01*
X200853302Y-72030039D01*
X201062039Y-71821302D01*
X201226042Y-71575853D01*
X201339010Y-71303125D01*
X201396600Y-71013599D01*
X201396600Y-70828692D01*
X201728000Y-71160092D01*
X201728001Y-80991115D01*
X201724565Y-81026000D01*
X201738274Y-81165184D01*
X201778872Y-81299019D01*
X201834985Y-81403998D01*
X201844801Y-81422363D01*
X201933526Y-81530475D01*
X201960617Y-81552708D01*
X204268000Y-83860092D01*
X204268001Y-117561907D01*
X202565000Y-119264909D01*
X202565000Y-118863323D01*
X202462508Y-118348065D01*
X202261464Y-117862702D01*
X201969594Y-117425887D01*
X201598113Y-117054406D01*
X201161298Y-116762536D01*
X200675935Y-116561492D01*
X200160677Y-116459000D01*
X199635323Y-116459000D01*
X199120065Y-116561492D01*
X198634702Y-116762536D01*
X198197887Y-117054406D01*
X197826406Y-117425887D01*
X197534536Y-117862702D01*
X197333492Y-118348065D01*
X197231000Y-118863323D01*
X197231000Y-119388677D01*
X197333492Y-119903935D01*
X197534536Y-120389298D01*
X197826406Y-120826113D01*
X197956293Y-120956000D01*
X119289707Y-120956000D01*
X119419594Y-120826113D01*
X119711464Y-120389298D01*
X119912508Y-119903935D01*
X120015000Y-119388677D01*
X120015000Y-118899982D01*
X129819400Y-118899982D01*
X129819400Y-119352019D01*
X129841084Y-119572177D01*
X129926775Y-119854664D01*
X130065931Y-120115006D01*
X130253203Y-120343197D01*
X130481395Y-120530469D01*
X130741737Y-120669625D01*
X131024224Y-120755316D01*
X131318000Y-120784251D01*
X131611777Y-120755316D01*
X131894264Y-120669625D01*
X132154606Y-120530469D01*
X132382797Y-120343197D01*
X132570069Y-120115006D01*
X132588000Y-120081459D01*
X132605931Y-120115006D01*
X132793203Y-120343197D01*
X133021395Y-120530469D01*
X133281737Y-120669625D01*
X133564224Y-120755316D01*
X133858000Y-120784251D01*
X134151777Y-120755316D01*
X134434264Y-120669625D01*
X134694606Y-120530469D01*
X134922797Y-120343197D01*
X135110069Y-120115006D01*
X135128000Y-120081459D01*
X135145931Y-120115006D01*
X135333203Y-120343197D01*
X135561395Y-120530469D01*
X135821737Y-120669625D01*
X136104224Y-120755316D01*
X136398000Y-120784251D01*
X136691777Y-120755316D01*
X136974264Y-120669625D01*
X137234606Y-120530469D01*
X137462797Y-120343197D01*
X137650069Y-120115006D01*
X137668000Y-120081459D01*
X137685931Y-120115006D01*
X137873203Y-120343197D01*
X138101395Y-120530469D01*
X138361737Y-120669625D01*
X138644224Y-120755316D01*
X138938000Y-120784251D01*
X139231777Y-120755316D01*
X139514264Y-120669625D01*
X139774606Y-120530469D01*
X140002797Y-120343197D01*
X140190069Y-120115006D01*
X140208000Y-120081459D01*
X140225931Y-120115006D01*
X140413203Y-120343197D01*
X140641395Y-120530469D01*
X140901737Y-120669625D01*
X141184224Y-120755316D01*
X141478000Y-120784251D01*
X141771777Y-120755316D01*
X142054264Y-120669625D01*
X142314606Y-120530469D01*
X142542797Y-120343197D01*
X142730069Y-120115006D01*
X142751424Y-120075053D01*
X142899514Y-120277729D01*
X143115965Y-120476733D01*
X143367081Y-120629686D01*
X143643211Y-120730709D01*
X143658974Y-120733358D01*
X143891000Y-120612217D01*
X143891000Y-119253000D01*
X144145000Y-119253000D01*
X144145000Y-120612217D01*
X144377026Y-120733358D01*
X144392789Y-120730709D01*
X144668919Y-120629686D01*
X144920035Y-120476733D01*
X145136486Y-120277729D01*
X145288000Y-120070367D01*
X145439514Y-120277729D01*
X145655965Y-120476733D01*
X145907081Y-120629686D01*
X146183211Y-120730709D01*
X146198974Y-120733358D01*
X146431000Y-120612217D01*
X146431000Y-119253000D01*
X144145000Y-119253000D01*
X143891000Y-119253000D01*
X143871000Y-119253000D01*
X143871000Y-118999000D01*
X143891000Y-118999000D01*
X143891000Y-117639783D01*
X144145000Y-117639783D01*
X144145000Y-118999000D01*
X146431000Y-118999000D01*
X146431000Y-117639783D01*
X146685000Y-117639783D01*
X146685000Y-118999000D01*
X146705000Y-118999000D01*
X146705000Y-119253000D01*
X146685000Y-119253000D01*
X146685000Y-120612217D01*
X146917026Y-120733358D01*
X146932789Y-120730709D01*
X147208919Y-120629686D01*
X147460035Y-120476733D01*
X147676486Y-120277729D01*
X147824576Y-120075053D01*
X147845931Y-120115006D01*
X148033203Y-120343197D01*
X148261395Y-120530469D01*
X148521737Y-120669625D01*
X148804224Y-120755316D01*
X149098000Y-120784251D01*
X149391777Y-120755316D01*
X149674264Y-120669625D01*
X149934606Y-120530469D01*
X150162797Y-120343197D01*
X150350069Y-120115006D01*
X150489225Y-119854663D01*
X150574916Y-119572176D01*
X150596600Y-119352018D01*
X150596600Y-118899982D01*
X152679400Y-118899982D01*
X152679400Y-119352019D01*
X152701084Y-119572177D01*
X152786775Y-119854664D01*
X152925931Y-120115006D01*
X153113203Y-120343197D01*
X153341395Y-120530469D01*
X153601737Y-120669625D01*
X153884224Y-120755316D01*
X154178000Y-120784251D01*
X154471777Y-120755316D01*
X154754264Y-120669625D01*
X155014606Y-120530469D01*
X155242797Y-120343197D01*
X155430069Y-120115006D01*
X155448000Y-120081459D01*
X155465931Y-120115006D01*
X155653203Y-120343197D01*
X155881395Y-120530469D01*
X156141737Y-120669625D01*
X156424224Y-120755316D01*
X156718000Y-120784251D01*
X157011777Y-120755316D01*
X157294264Y-120669625D01*
X157554606Y-120530469D01*
X157782797Y-120343197D01*
X157970069Y-120115006D01*
X157988000Y-120081459D01*
X158005931Y-120115006D01*
X158193203Y-120343197D01*
X158421395Y-120530469D01*
X158681737Y-120669625D01*
X158964224Y-120755316D01*
X159258000Y-120784251D01*
X159551777Y-120755316D01*
X159834264Y-120669625D01*
X160094606Y-120530469D01*
X160322797Y-120343197D01*
X160510069Y-120115006D01*
X160528000Y-120081459D01*
X160545931Y-120115006D01*
X160733203Y-120343197D01*
X160961395Y-120530469D01*
X161221737Y-120669625D01*
X161504224Y-120755316D01*
X161798000Y-120784251D01*
X162091777Y-120755316D01*
X162374264Y-120669625D01*
X162634606Y-120530469D01*
X162862797Y-120343197D01*
X163050069Y-120115006D01*
X163068000Y-120081459D01*
X163085931Y-120115006D01*
X163273203Y-120343197D01*
X163501395Y-120530469D01*
X163761737Y-120669625D01*
X164044224Y-120755316D01*
X164338000Y-120784251D01*
X164631777Y-120755316D01*
X164914264Y-120669625D01*
X165174606Y-120530469D01*
X165402797Y-120343197D01*
X165590069Y-120115006D01*
X165608000Y-120081459D01*
X165625931Y-120115006D01*
X165813203Y-120343197D01*
X166041395Y-120530469D01*
X166301737Y-120669625D01*
X166584224Y-120755316D01*
X166878000Y-120784251D01*
X167171777Y-120755316D01*
X167454264Y-120669625D01*
X167714606Y-120530469D01*
X167942797Y-120343197D01*
X168130069Y-120115006D01*
X168148000Y-120081459D01*
X168165931Y-120115006D01*
X168353203Y-120343197D01*
X168581395Y-120530469D01*
X168841737Y-120669625D01*
X169124224Y-120755316D01*
X169418000Y-120784251D01*
X169711777Y-120755316D01*
X169994264Y-120669625D01*
X170254606Y-120530469D01*
X170482797Y-120343197D01*
X170670069Y-120115006D01*
X170688000Y-120081459D01*
X170705931Y-120115006D01*
X170893203Y-120343197D01*
X171121395Y-120530469D01*
X171381737Y-120669625D01*
X171664224Y-120755316D01*
X171958000Y-120784251D01*
X172251777Y-120755316D01*
X172534264Y-120669625D01*
X172794606Y-120530469D01*
X173022797Y-120343197D01*
X173210069Y-120115006D01*
X173349225Y-119854663D01*
X173434916Y-119572176D01*
X173456600Y-119352018D01*
X173456600Y-118899982D01*
X175539400Y-118899982D01*
X175539400Y-119352019D01*
X175561084Y-119572177D01*
X175646775Y-119854664D01*
X175785931Y-120115006D01*
X175973203Y-120343197D01*
X176201395Y-120530469D01*
X176461737Y-120669625D01*
X176744224Y-120755316D01*
X177038000Y-120784251D01*
X177331777Y-120755316D01*
X177614264Y-120669625D01*
X177874606Y-120530469D01*
X178102797Y-120343197D01*
X178290069Y-120115006D01*
X178308000Y-120081459D01*
X178325931Y-120115006D01*
X178513203Y-120343197D01*
X178741395Y-120530469D01*
X179001737Y-120669625D01*
X179284224Y-120755316D01*
X179578000Y-120784251D01*
X179871777Y-120755316D01*
X180154264Y-120669625D01*
X180414606Y-120530469D01*
X180642797Y-120343197D01*
X180830069Y-120115006D01*
X180848000Y-120081459D01*
X180865931Y-120115006D01*
X181053203Y-120343197D01*
X181281395Y-120530469D01*
X181541737Y-120669625D01*
X181824224Y-120755316D01*
X182118000Y-120784251D01*
X182411777Y-120755316D01*
X182694264Y-120669625D01*
X182954606Y-120530469D01*
X183182797Y-120343197D01*
X183370069Y-120115006D01*
X183388000Y-120081459D01*
X183405931Y-120115006D01*
X183593203Y-120343197D01*
X183821395Y-120530469D01*
X184081737Y-120669625D01*
X184364224Y-120755316D01*
X184658000Y-120784251D01*
X184951777Y-120755316D01*
X185234264Y-120669625D01*
X185494606Y-120530469D01*
X185722797Y-120343197D01*
X185910069Y-120115006D01*
X185928000Y-120081459D01*
X185945931Y-120115006D01*
X186133203Y-120343197D01*
X186361395Y-120530469D01*
X186621737Y-120669625D01*
X186904224Y-120755316D01*
X187198000Y-120784251D01*
X187491777Y-120755316D01*
X187774264Y-120669625D01*
X188034606Y-120530469D01*
X188262797Y-120343197D01*
X188450069Y-120115006D01*
X188468000Y-120081459D01*
X188485931Y-120115006D01*
X188673203Y-120343197D01*
X188901395Y-120530469D01*
X189161737Y-120669625D01*
X189444224Y-120755316D01*
X189738000Y-120784251D01*
X190031777Y-120755316D01*
X190314264Y-120669625D01*
X190574606Y-120530469D01*
X190802797Y-120343197D01*
X190990069Y-120115006D01*
X191008000Y-120081459D01*
X191025931Y-120115006D01*
X191213203Y-120343197D01*
X191441395Y-120530469D01*
X191701737Y-120669625D01*
X191984224Y-120755316D01*
X192278000Y-120784251D01*
X192571777Y-120755316D01*
X192854264Y-120669625D01*
X193114606Y-120530469D01*
X193342797Y-120343197D01*
X193530069Y-120115006D01*
X193548000Y-120081459D01*
X193565931Y-120115006D01*
X193753203Y-120343197D01*
X193981395Y-120530469D01*
X194241737Y-120669625D01*
X194524224Y-120755316D01*
X194818000Y-120784251D01*
X195111777Y-120755316D01*
X195394264Y-120669625D01*
X195654606Y-120530469D01*
X195882797Y-120343197D01*
X196070069Y-120115006D01*
X196209225Y-119854663D01*
X196294916Y-119572176D01*
X196316600Y-119352018D01*
X196316600Y-118899981D01*
X196294916Y-118679823D01*
X196209225Y-118397336D01*
X196070069Y-118136994D01*
X195882797Y-117908803D01*
X195654605Y-117721531D01*
X195394263Y-117582375D01*
X195111776Y-117496684D01*
X194818000Y-117467749D01*
X194524223Y-117496684D01*
X194241736Y-117582375D01*
X193981394Y-117721531D01*
X193753203Y-117908803D01*
X193565931Y-118136995D01*
X193548000Y-118170541D01*
X193530069Y-118136994D01*
X193342797Y-117908803D01*
X193114605Y-117721531D01*
X192854263Y-117582375D01*
X192571776Y-117496684D01*
X192278000Y-117467749D01*
X191984223Y-117496684D01*
X191701736Y-117582375D01*
X191441394Y-117721531D01*
X191213203Y-117908803D01*
X191025931Y-118136995D01*
X191008000Y-118170541D01*
X190990069Y-118136994D01*
X190802797Y-117908803D01*
X190574605Y-117721531D01*
X190314263Y-117582375D01*
X190031776Y-117496684D01*
X189738000Y-117467749D01*
X189444223Y-117496684D01*
X189161736Y-117582375D01*
X188901394Y-117721531D01*
X188673203Y-117908803D01*
X188485931Y-118136995D01*
X188468000Y-118170541D01*
X188450069Y-118136994D01*
X188262797Y-117908803D01*
X188034605Y-117721531D01*
X187774263Y-117582375D01*
X187491776Y-117496684D01*
X187198000Y-117467749D01*
X186904223Y-117496684D01*
X186621736Y-117582375D01*
X186361394Y-117721531D01*
X186133203Y-117908803D01*
X185945931Y-118136995D01*
X185928000Y-118170541D01*
X185910069Y-118136994D01*
X185722797Y-117908803D01*
X185494605Y-117721531D01*
X185234263Y-117582375D01*
X184951776Y-117496684D01*
X184658000Y-117467749D01*
X184364223Y-117496684D01*
X184081736Y-117582375D01*
X183821394Y-117721531D01*
X183593203Y-117908803D01*
X183405931Y-118136995D01*
X183388000Y-118170541D01*
X183370069Y-118136994D01*
X183182797Y-117908803D01*
X182954605Y-117721531D01*
X182694263Y-117582375D01*
X182411776Y-117496684D01*
X182118000Y-117467749D01*
X181824223Y-117496684D01*
X181541736Y-117582375D01*
X181281394Y-117721531D01*
X181053203Y-117908803D01*
X180865931Y-118136995D01*
X180848000Y-118170541D01*
X180830069Y-118136994D01*
X180642797Y-117908803D01*
X180414605Y-117721531D01*
X180154263Y-117582375D01*
X179871776Y-117496684D01*
X179578000Y-117467749D01*
X179284223Y-117496684D01*
X179001736Y-117582375D01*
X178741394Y-117721531D01*
X178513203Y-117908803D01*
X178325931Y-118136995D01*
X178308000Y-118170541D01*
X178290069Y-118136994D01*
X178102797Y-117908803D01*
X177874605Y-117721531D01*
X177614263Y-117582375D01*
X177331776Y-117496684D01*
X177038000Y-117467749D01*
X176744223Y-117496684D01*
X176461736Y-117582375D01*
X176201394Y-117721531D01*
X175973203Y-117908803D01*
X175785931Y-118136995D01*
X175646775Y-118397337D01*
X175561084Y-118679824D01*
X175539400Y-118899982D01*
X173456600Y-118899982D01*
X173456600Y-118899981D01*
X173434916Y-118679823D01*
X173349225Y-118397336D01*
X173210069Y-118136994D01*
X173022797Y-117908803D01*
X172794605Y-117721531D01*
X172534263Y-117582375D01*
X172251776Y-117496684D01*
X171958000Y-117467749D01*
X171664223Y-117496684D01*
X171381736Y-117582375D01*
X171121394Y-117721531D01*
X170893203Y-117908803D01*
X170705931Y-118136995D01*
X170688000Y-118170541D01*
X170670069Y-118136994D01*
X170482797Y-117908803D01*
X170254605Y-117721531D01*
X169994263Y-117582375D01*
X169711776Y-117496684D01*
X169418000Y-117467749D01*
X169124223Y-117496684D01*
X168841736Y-117582375D01*
X168581394Y-117721531D01*
X168353203Y-117908803D01*
X168165931Y-118136995D01*
X168148000Y-118170541D01*
X168130069Y-118136994D01*
X167942797Y-117908803D01*
X167714605Y-117721531D01*
X167454263Y-117582375D01*
X167171776Y-117496684D01*
X166878000Y-117467749D01*
X166584223Y-117496684D01*
X166301736Y-117582375D01*
X166041394Y-117721531D01*
X165813203Y-117908803D01*
X165625931Y-118136995D01*
X165608000Y-118170541D01*
X165590069Y-118136994D01*
X165402797Y-117908803D01*
X165174605Y-117721531D01*
X164914263Y-117582375D01*
X164631776Y-117496684D01*
X164338000Y-117467749D01*
X164044223Y-117496684D01*
X163761736Y-117582375D01*
X163501394Y-117721531D01*
X163273203Y-117908803D01*
X163085931Y-118136995D01*
X163068000Y-118170541D01*
X163050069Y-118136994D01*
X162862797Y-117908803D01*
X162634605Y-117721531D01*
X162374263Y-117582375D01*
X162091776Y-117496684D01*
X161798000Y-117467749D01*
X161504223Y-117496684D01*
X161221736Y-117582375D01*
X160961394Y-117721531D01*
X160733203Y-117908803D01*
X160545931Y-118136995D01*
X160528000Y-118170541D01*
X160510069Y-118136994D01*
X160322797Y-117908803D01*
X160094605Y-117721531D01*
X159834263Y-117582375D01*
X159551776Y-117496684D01*
X159258000Y-117467749D01*
X158964223Y-117496684D01*
X158681736Y-117582375D01*
X158421394Y-117721531D01*
X158193203Y-117908803D01*
X158005931Y-118136995D01*
X157988000Y-118170541D01*
X157970069Y-118136994D01*
X157782797Y-117908803D01*
X157554605Y-117721531D01*
X157294263Y-117582375D01*
X157011776Y-117496684D01*
X156718000Y-117467749D01*
X156424223Y-117496684D01*
X156141736Y-117582375D01*
X155881394Y-117721531D01*
X155653203Y-117908803D01*
X155465931Y-118136995D01*
X155448000Y-118170541D01*
X155430069Y-118136994D01*
X155242797Y-117908803D01*
X155014605Y-117721531D01*
X154754263Y-117582375D01*
X154471776Y-117496684D01*
X154178000Y-117467749D01*
X153884223Y-117496684D01*
X153601736Y-117582375D01*
X153341394Y-117721531D01*
X153113203Y-117908803D01*
X152925931Y-118136995D01*
X152786775Y-118397337D01*
X152701084Y-118679824D01*
X152679400Y-118899982D01*
X150596600Y-118899982D01*
X150596600Y-118899981D01*
X150574916Y-118679823D01*
X150489225Y-118397336D01*
X150350069Y-118136994D01*
X150162797Y-117908803D01*
X149934605Y-117721531D01*
X149674263Y-117582375D01*
X149391776Y-117496684D01*
X149098000Y-117467749D01*
X148804223Y-117496684D01*
X148521736Y-117582375D01*
X148261394Y-117721531D01*
X148033203Y-117908803D01*
X147845931Y-118136995D01*
X147824576Y-118176947D01*
X147676486Y-117974271D01*
X147460035Y-117775267D01*
X147208919Y-117622314D01*
X146932789Y-117521291D01*
X146917026Y-117518642D01*
X146685000Y-117639783D01*
X146431000Y-117639783D01*
X146198974Y-117518642D01*
X146183211Y-117521291D01*
X145907081Y-117622314D01*
X145655965Y-117775267D01*
X145439514Y-117974271D01*
X145288000Y-118181633D01*
X145136486Y-117974271D01*
X144920035Y-117775267D01*
X144668919Y-117622314D01*
X144392789Y-117521291D01*
X144377026Y-117518642D01*
X144145000Y-117639783D01*
X143891000Y-117639783D01*
X143658974Y-117518642D01*
X143643211Y-117521291D01*
X143367081Y-117622314D01*
X143115965Y-117775267D01*
X142899514Y-117974271D01*
X142751424Y-118176947D01*
X142730069Y-118136994D01*
X142542797Y-117908803D01*
X142314605Y-117721531D01*
X142054263Y-117582375D01*
X141771776Y-117496684D01*
X141478000Y-117467749D01*
X141184223Y-117496684D01*
X140901736Y-117582375D01*
X140641394Y-117721531D01*
X140413203Y-117908803D01*
X140225931Y-118136995D01*
X140208000Y-118170541D01*
X140190069Y-118136994D01*
X140002797Y-117908803D01*
X139774605Y-117721531D01*
X139514263Y-117582375D01*
X139231776Y-117496684D01*
X138938000Y-117467749D01*
X138644223Y-117496684D01*
X138361736Y-117582375D01*
X138101394Y-117721531D01*
X137873203Y-117908803D01*
X137685931Y-118136995D01*
X137668000Y-118170541D01*
X137650069Y-118136994D01*
X137462797Y-117908803D01*
X137234605Y-117721531D01*
X136974263Y-117582375D01*
X136691776Y-117496684D01*
X136398000Y-117467749D01*
X136104223Y-117496684D01*
X135821736Y-117582375D01*
X135561394Y-117721531D01*
X135333203Y-117908803D01*
X135145931Y-118136995D01*
X135128000Y-118170541D01*
X135110069Y-118136994D01*
X134922797Y-117908803D01*
X134694605Y-117721531D01*
X134434263Y-117582375D01*
X134151776Y-117496684D01*
X133858000Y-117467749D01*
X133564223Y-117496684D01*
X133281736Y-117582375D01*
X133021394Y-117721531D01*
X132793203Y-117908803D01*
X132605931Y-118136995D01*
X132588000Y-118170541D01*
X132570069Y-118136994D01*
X132382797Y-117908803D01*
X132154605Y-117721531D01*
X131894263Y-117582375D01*
X131611776Y-117496684D01*
X131318000Y-117467749D01*
X131024223Y-117496684D01*
X130741736Y-117582375D01*
X130481394Y-117721531D01*
X130253203Y-117908803D01*
X130065931Y-118136995D01*
X129926775Y-118397337D01*
X129841084Y-118679824D01*
X129819400Y-118899982D01*
X120015000Y-118899982D01*
X120015000Y-118863323D01*
X119912508Y-118348065D01*
X119711464Y-117862702D01*
X119419594Y-117425887D01*
X119048113Y-117054406D01*
X118611298Y-116762536D01*
X118125935Y-116561492D01*
X117610677Y-116459000D01*
X117085323Y-116459000D01*
X116570065Y-116561492D01*
X116084702Y-116762536D01*
X115647887Y-117054406D01*
X115276406Y-117425887D01*
X114984536Y-117862702D01*
X114783492Y-118348065D01*
X114681000Y-118863323D01*
X114681000Y-119388677D01*
X114783492Y-119903935D01*
X114984536Y-120389298D01*
X115276406Y-120826113D01*
X115406293Y-120956000D01*
X104088000Y-120956000D01*
X104088000Y-93060001D01*
X125125718Y-93060001D01*
X125129999Y-93103470D01*
X125130000Y-106286520D01*
X125125718Y-106329999D01*
X125142804Y-106503489D01*
X125193411Y-106670312D01*
X125275589Y-106824058D01*
X125358467Y-106925045D01*
X125358470Y-106925048D01*
X125386183Y-106958816D01*
X125419950Y-106986529D01*
X129332346Y-110898925D01*
X129346414Y-110932889D01*
X129448738Y-111086028D01*
X129578972Y-111216262D01*
X129732111Y-111318586D01*
X129902271Y-111389068D01*
X130082911Y-111425000D01*
X130267089Y-111425000D01*
X130447729Y-111389068D01*
X130617889Y-111318586D01*
X130771028Y-111216262D01*
X130901262Y-111086028D01*
X131003586Y-110932889D01*
X131074068Y-110762729D01*
X131110000Y-110582089D01*
X131110000Y-110397911D01*
X131074068Y-110217271D01*
X131003586Y-110047111D01*
X130901262Y-109893972D01*
X130771028Y-109763738D01*
X130617889Y-109661414D01*
X130583925Y-109647346D01*
X126899999Y-105963421D01*
X126899999Y-104519271D01*
X127108501Y-104605635D01*
X127457223Y-104675000D01*
X127812777Y-104675000D01*
X128161499Y-104605635D01*
X128489988Y-104469571D01*
X128785621Y-104272035D01*
X129037035Y-104020621D01*
X129234571Y-103724988D01*
X129370635Y-103396499D01*
X129440000Y-103047777D01*
X129440000Y-102692223D01*
X129370635Y-102343501D01*
X129234571Y-102015012D01*
X129037035Y-101719379D01*
X128785621Y-101467965D01*
X128489988Y-101270429D01*
X128161499Y-101134365D01*
X127812777Y-101065000D01*
X127457223Y-101065000D01*
X127108501Y-101134365D01*
X126899999Y-101220729D01*
X126899999Y-99520242D01*
X126992860Y-99566257D01*
X127336122Y-99658938D01*
X127690869Y-99682873D01*
X128043470Y-99637139D01*
X128380373Y-99523495D01*
X128595725Y-99408389D01*
X128711997Y-99126602D01*
X127635000Y-98049605D01*
X127620858Y-98063748D01*
X127441253Y-97884143D01*
X127455395Y-97870000D01*
X127814605Y-97870000D01*
X128891602Y-98946997D01*
X129173389Y-98830725D01*
X129331257Y-98512140D01*
X129423938Y-98168878D01*
X129447873Y-97814131D01*
X129402139Y-97461530D01*
X129288495Y-97124627D01*
X129173389Y-96909275D01*
X128891602Y-96793003D01*
X127814605Y-97870000D01*
X127455395Y-97870000D01*
X127441253Y-97855858D01*
X127620858Y-97676253D01*
X127635000Y-97690395D01*
X128711997Y-96613398D01*
X128595725Y-96331611D01*
X128277140Y-96173743D01*
X127933878Y-96081062D01*
X127579131Y-96057127D01*
X127226530Y-96102861D01*
X126899999Y-96213006D01*
X126899999Y-93426579D01*
X127143902Y-93182677D01*
X127457223Y-93245000D01*
X127812777Y-93245000D01*
X128161499Y-93175635D01*
X128489988Y-93039571D01*
X128785621Y-92842035D01*
X129037035Y-92590621D01*
X129234571Y-92294988D01*
X129370635Y-91966499D01*
X129440000Y-91617777D01*
X129440000Y-91262223D01*
X129370635Y-90913501D01*
X129234571Y-90585012D01*
X129037035Y-90289379D01*
X128785621Y-90037965D01*
X128489988Y-89840429D01*
X128161499Y-89704365D01*
X127812777Y-89635000D01*
X127457223Y-89635000D01*
X127108501Y-89704365D01*
X126780012Y-89840429D01*
X126484379Y-90037965D01*
X126232965Y-90289379D01*
X126035429Y-90585012D01*
X125899365Y-90913501D01*
X125830000Y-91262223D01*
X125830000Y-91617777D01*
X125892323Y-91931098D01*
X125419955Y-92403467D01*
X125386182Y-92431184D01*
X125275588Y-92565943D01*
X125193410Y-92719689D01*
X125142804Y-92886512D01*
X125129999Y-93016525D01*
X125129999Y-93016532D01*
X125125718Y-93060001D01*
X104088000Y-93060001D01*
X104088000Y-87696602D01*
X126558003Y-87696602D01*
X126674275Y-87978389D01*
X126992860Y-88136257D01*
X127336122Y-88228938D01*
X127690869Y-88252873D01*
X128043470Y-88207139D01*
X128380373Y-88093495D01*
X128595725Y-87978389D01*
X128711997Y-87696602D01*
X127635000Y-86619605D01*
X126558003Y-87696602D01*
X104088000Y-87696602D01*
X104088000Y-86495869D01*
X125822127Y-86495869D01*
X125867861Y-86848470D01*
X125981505Y-87185373D01*
X126096611Y-87400725D01*
X126378398Y-87516997D01*
X127455395Y-86440000D01*
X127814605Y-86440000D01*
X128891602Y-87516997D01*
X129173389Y-87400725D01*
X129331257Y-87082140D01*
X129423938Y-86738878D01*
X129447873Y-86384131D01*
X129402139Y-86031530D01*
X129288495Y-85694627D01*
X129173389Y-85479275D01*
X128891602Y-85363003D01*
X127814605Y-86440000D01*
X127455395Y-86440000D01*
X126378398Y-85363003D01*
X126096611Y-85479275D01*
X125938743Y-85797860D01*
X125846062Y-86141122D01*
X125822127Y-86495869D01*
X104088000Y-86495869D01*
X104088000Y-85183398D01*
X126558003Y-85183398D01*
X127635000Y-86260395D01*
X128711997Y-85183398D01*
X128595725Y-84901611D01*
X128277140Y-84743743D01*
X127933878Y-84651062D01*
X127579131Y-84627127D01*
X127226530Y-84672861D01*
X126889627Y-84786505D01*
X126674275Y-84901611D01*
X126558003Y-85183398D01*
X104088000Y-85183398D01*
X104088000Y-69036000D01*
X116676293Y-69036000D01*
X116546406Y-69165887D01*
G37*
%TD.AperFunction*%
%TD*%
M02*
