%TF.GenerationSoftware,KiCad,Pcbnew,(5.1.10)-1*%
%TF.CreationDate,2021-10-29T18:14:56+02:00*%
%TF.ProjectId,xfm2-ui-board,78666d32-2d75-4692-9d62-6f6172642e6b,rev?*%
%TF.SameCoordinates,Original*%
%TF.FileFunction,Legend,Top*%
%TF.FilePolarity,Positive*%
%FSLAX46Y46*%
G04 Gerber Fmt 4.6, Leading zero omitted, Abs format (unit mm)*
G04 Created by KiCad (PCBNEW (5.1.10)-1) date 2021-10-29 18:14:56*
%MOMM*%
%LPD*%
G01*
G04 APERTURE LIST*
%ADD10C,0.150000*%
%ADD11C,0.120000*%
%ADD12C,0.200000*%
%ADD13C,0.100000*%
%ADD14C,0.400000*%
%ADD15C,0.254000*%
G04 APERTURE END LIST*
D10*
X300533428Y-36496761D02*
X301866761Y-38496761D01*
X301866761Y-36496761D02*
X300533428Y-38496761D01*
X302342952Y-36496761D02*
X303009619Y-38496761D01*
X303676285Y-36496761D01*
X304247714Y-37925333D02*
X305200095Y-37925333D01*
X304057238Y-38496761D02*
X304723904Y-36496761D01*
X305390571Y-38496761D01*
X307104857Y-38496761D02*
X305962000Y-38496761D01*
X306533428Y-38496761D02*
X306533428Y-36496761D01*
X306342952Y-36782476D01*
X306152476Y-36972952D01*
X305962000Y-37068190D01*
X309390571Y-36401523D02*
X307676285Y-38972952D01*
X309866761Y-36496761D02*
X311200095Y-38496761D01*
X311200095Y-36496761D02*
X309866761Y-38496761D01*
X312628666Y-37449142D02*
X311962000Y-37449142D01*
X311962000Y-38496761D02*
X311962000Y-36496761D01*
X312914380Y-36496761D01*
X313676285Y-38496761D02*
X313676285Y-36496761D01*
X314342952Y-37925333D01*
X315009619Y-36496761D01*
X315009619Y-38496761D01*
X315866761Y-36687238D02*
X315962000Y-36592000D01*
X316152476Y-36496761D01*
X316628666Y-36496761D01*
X316819142Y-36592000D01*
X316914380Y-36687238D01*
X317009619Y-36877714D01*
X317009619Y-37068190D01*
X316914380Y-37353904D01*
X315771523Y-38496761D01*
X317009619Y-38496761D01*
X320057238Y-37449142D02*
X319390571Y-37449142D01*
X319390571Y-38496761D02*
X319390571Y-36496761D01*
X320342952Y-36496761D01*
X321104857Y-38496761D02*
X321104857Y-37163428D01*
X321104857Y-37544380D02*
X321200095Y-37353904D01*
X321295333Y-37258666D01*
X321485809Y-37163428D01*
X321676285Y-37163428D01*
X322628666Y-38496761D02*
X322438190Y-38401523D01*
X322342952Y-38306285D01*
X322247714Y-38115809D01*
X322247714Y-37544380D01*
X322342952Y-37353904D01*
X322438190Y-37258666D01*
X322628666Y-37163428D01*
X322914380Y-37163428D01*
X323104857Y-37258666D01*
X323200095Y-37353904D01*
X323295333Y-37544380D01*
X323295333Y-38115809D01*
X323200095Y-38306285D01*
X323104857Y-38401523D01*
X322914380Y-38496761D01*
X322628666Y-38496761D01*
X324152476Y-37163428D02*
X324152476Y-38496761D01*
X324152476Y-37353904D02*
X324247714Y-37258666D01*
X324438190Y-37163428D01*
X324723904Y-37163428D01*
X324914380Y-37258666D01*
X325009619Y-37449142D01*
X325009619Y-38496761D01*
X325676285Y-37163428D02*
X326438190Y-37163428D01*
X325962000Y-36496761D02*
X325962000Y-38211047D01*
X326057238Y-38401523D01*
X326247714Y-38496761D01*
X326438190Y-38496761D01*
X328628666Y-38496761D02*
X328628666Y-36496761D01*
X329390571Y-36496761D01*
X329581047Y-36592000D01*
X329676285Y-36687238D01*
X329771523Y-36877714D01*
X329771523Y-37163428D01*
X329676285Y-37353904D01*
X329581047Y-37449142D01*
X329390571Y-37544380D01*
X328628666Y-37544380D01*
X331485809Y-38496761D02*
X331485809Y-37449142D01*
X331390571Y-37258666D01*
X331200095Y-37163428D01*
X330819142Y-37163428D01*
X330628666Y-37258666D01*
X331485809Y-38401523D02*
X331295333Y-38496761D01*
X330819142Y-38496761D01*
X330628666Y-38401523D01*
X330533428Y-38211047D01*
X330533428Y-38020571D01*
X330628666Y-37830095D01*
X330819142Y-37734857D01*
X331295333Y-37734857D01*
X331485809Y-37639619D01*
X332438190Y-37163428D02*
X332438190Y-38496761D01*
X332438190Y-37353904D02*
X332533428Y-37258666D01*
X332723904Y-37163428D01*
X333009619Y-37163428D01*
X333200095Y-37258666D01*
X333295333Y-37449142D01*
X333295333Y-38496761D01*
X335009619Y-38401523D02*
X334819142Y-38496761D01*
X334438190Y-38496761D01*
X334247714Y-38401523D01*
X334152476Y-38211047D01*
X334152476Y-37449142D01*
X334247714Y-37258666D01*
X334438190Y-37163428D01*
X334819142Y-37163428D01*
X335009619Y-37258666D01*
X335104857Y-37449142D01*
X335104857Y-37639619D01*
X334152476Y-37830095D01*
X336247714Y-38496761D02*
X336057238Y-38401523D01*
X335962000Y-38211047D01*
X335962000Y-36496761D01*
X338533428Y-38496761D02*
X338533428Y-36496761D01*
X339009619Y-36496761D01*
X339295333Y-36592000D01*
X339485809Y-36782476D01*
X339581047Y-36972952D01*
X339676285Y-37353904D01*
X339676285Y-37639619D01*
X339581047Y-38020571D01*
X339485809Y-38211047D01*
X339295333Y-38401523D01*
X339009619Y-38496761D01*
X338533428Y-38496761D01*
X341295333Y-38401523D02*
X341104857Y-38496761D01*
X340723904Y-38496761D01*
X340533428Y-38401523D01*
X340438190Y-38211047D01*
X340438190Y-37449142D01*
X340533428Y-37258666D01*
X340723904Y-37163428D01*
X341104857Y-37163428D01*
X341295333Y-37258666D01*
X341390571Y-37449142D01*
X341390571Y-37639619D01*
X340438190Y-37830095D01*
X342057238Y-37163428D02*
X342533428Y-38496761D01*
X343009619Y-37163428D01*
X345962000Y-37449142D02*
X346247714Y-37544380D01*
X346342952Y-37639619D01*
X346438190Y-37830095D01*
X346438190Y-38115809D01*
X346342952Y-38306285D01*
X346247714Y-38401523D01*
X346057238Y-38496761D01*
X345295333Y-38496761D01*
X345295333Y-36496761D01*
X345962000Y-36496761D01*
X346152476Y-36592000D01*
X346247714Y-36687238D01*
X346342952Y-36877714D01*
X346342952Y-37068190D01*
X346247714Y-37258666D01*
X346152476Y-37353904D01*
X345962000Y-37449142D01*
X345295333Y-37449142D01*
X347581047Y-38496761D02*
X347390571Y-38401523D01*
X347295333Y-38306285D01*
X347200095Y-38115809D01*
X347200095Y-37544380D01*
X347295333Y-37353904D01*
X347390571Y-37258666D01*
X347581047Y-37163428D01*
X347866761Y-37163428D01*
X348057238Y-37258666D01*
X348152476Y-37353904D01*
X348247714Y-37544380D01*
X348247714Y-38115809D01*
X348152476Y-38306285D01*
X348057238Y-38401523D01*
X347866761Y-38496761D01*
X347581047Y-38496761D01*
X349962000Y-38496761D02*
X349962000Y-37449142D01*
X349866761Y-37258666D01*
X349676285Y-37163428D01*
X349295333Y-37163428D01*
X349104857Y-37258666D01*
X349962000Y-38401523D02*
X349771523Y-38496761D01*
X349295333Y-38496761D01*
X349104857Y-38401523D01*
X349009619Y-38211047D01*
X349009619Y-38020571D01*
X349104857Y-37830095D01*
X349295333Y-37734857D01*
X349771523Y-37734857D01*
X349962000Y-37639619D01*
X350914380Y-38496761D02*
X350914380Y-37163428D01*
X350914380Y-37544380D02*
X351009619Y-37353904D01*
X351104857Y-37258666D01*
X351295333Y-37163428D01*
X351485809Y-37163428D01*
X353009619Y-38496761D02*
X353009619Y-36496761D01*
X353009619Y-38401523D02*
X352819142Y-38496761D01*
X352438190Y-38496761D01*
X352247714Y-38401523D01*
X352152476Y-38306285D01*
X352057238Y-38115809D01*
X352057238Y-37544380D01*
X352152476Y-37353904D01*
X352247714Y-37258666D01*
X352438190Y-37163428D01*
X352819142Y-37163428D01*
X353009619Y-37258666D01*
X355866761Y-36496761D02*
X356057238Y-36496761D01*
X356247714Y-36592000D01*
X356342952Y-36687238D01*
X356438190Y-36877714D01*
X356533428Y-37258666D01*
X356533428Y-37734857D01*
X356438190Y-38115809D01*
X356342952Y-38306285D01*
X356247714Y-38401523D01*
X356057238Y-38496761D01*
X355866761Y-38496761D01*
X355676285Y-38401523D01*
X355581047Y-38306285D01*
X355485809Y-38115809D01*
X355390571Y-37734857D01*
X355390571Y-37258666D01*
X355485809Y-36877714D01*
X355581047Y-36687238D01*
X355676285Y-36592000D01*
X355866761Y-36496761D01*
X357390571Y-38306285D02*
X357485809Y-38401523D01*
X357390571Y-38496761D01*
X357295333Y-38401523D01*
X357390571Y-38306285D01*
X357390571Y-38496761D01*
X358438190Y-38496761D02*
X358819142Y-38496761D01*
X359009619Y-38401523D01*
X359104857Y-38306285D01*
X359295333Y-38020571D01*
X359390571Y-37639619D01*
X359390571Y-36877714D01*
X359295333Y-36687238D01*
X359200095Y-36592000D01*
X359009619Y-36496761D01*
X358628666Y-36496761D01*
X358438190Y-36592000D01*
X358342952Y-36687238D01*
X358247714Y-36877714D01*
X358247714Y-37353904D01*
X358342952Y-37544380D01*
X358438190Y-37639619D01*
X358628666Y-37734857D01*
X359009619Y-37734857D01*
X359200095Y-37639619D01*
X359295333Y-37544380D01*
X359390571Y-37353904D01*
X360628666Y-36496761D02*
X360819142Y-36496761D01*
X361009619Y-36592000D01*
X361104857Y-36687238D01*
X361200095Y-36877714D01*
X361295333Y-37258666D01*
X361295333Y-37734857D01*
X361200095Y-38115809D01*
X361104857Y-38306285D01*
X361009619Y-38401523D01*
X360819142Y-38496761D01*
X360628666Y-38496761D01*
X360438190Y-38401523D01*
X360342952Y-38306285D01*
X360247714Y-38115809D01*
X360152476Y-37734857D01*
X360152476Y-37258666D01*
X360247714Y-36877714D01*
X360342952Y-36687238D01*
X360438190Y-36592000D01*
X360628666Y-36496761D01*
X110813809Y-45478571D02*
X110851904Y-45364285D01*
X110851904Y-45173809D01*
X110813809Y-45097619D01*
X110775714Y-45059523D01*
X110699523Y-45021428D01*
X110623333Y-45021428D01*
X110547142Y-45059523D01*
X110509047Y-45097619D01*
X110470952Y-45173809D01*
X110432857Y-45326190D01*
X110394761Y-45402380D01*
X110356666Y-45440476D01*
X110280476Y-45478571D01*
X110204285Y-45478571D01*
X110128095Y-45440476D01*
X110090000Y-45402380D01*
X110051904Y-45326190D01*
X110051904Y-45135714D01*
X110090000Y-45021428D01*
X110775714Y-44221428D02*
X110813809Y-44259523D01*
X110851904Y-44373809D01*
X110851904Y-44450000D01*
X110813809Y-44564285D01*
X110737619Y-44640476D01*
X110661428Y-44678571D01*
X110509047Y-44716666D01*
X110394761Y-44716666D01*
X110242380Y-44678571D01*
X110166190Y-44640476D01*
X110090000Y-44564285D01*
X110051904Y-44450000D01*
X110051904Y-44373809D01*
X110090000Y-44259523D01*
X110128095Y-44221428D01*
X110851904Y-43878571D02*
X110051904Y-43878571D01*
X110851904Y-43421428D02*
X110394761Y-43764285D01*
X110051904Y-43421428D02*
X110509047Y-43878571D01*
X102927142Y-45732571D02*
X102927142Y-45123047D01*
X103231904Y-45427809D02*
X102622380Y-45427809D01*
X102431904Y-44361142D02*
X102431904Y-44742095D01*
X102812857Y-44780190D01*
X102774761Y-44742095D01*
X102736666Y-44665904D01*
X102736666Y-44475428D01*
X102774761Y-44399238D01*
X102812857Y-44361142D01*
X102889047Y-44323047D01*
X103079523Y-44323047D01*
X103155714Y-44361142D01*
X103193809Y-44399238D01*
X103231904Y-44475428D01*
X103231904Y-44665904D01*
X103193809Y-44742095D01*
X103155714Y-44780190D01*
X102431904Y-44094476D02*
X103231904Y-43827809D01*
X102431904Y-43561142D01*
X108311904Y-45961142D02*
X107511904Y-45961142D01*
X108083333Y-45694476D01*
X107511904Y-45427809D01*
X108311904Y-45427809D01*
X107511904Y-44894476D02*
X107511904Y-44742095D01*
X107550000Y-44665904D01*
X107626190Y-44589714D01*
X107778571Y-44551619D01*
X108045238Y-44551619D01*
X108197619Y-44589714D01*
X108273809Y-44665904D01*
X108311904Y-44742095D01*
X108311904Y-44894476D01*
X108273809Y-44970666D01*
X108197619Y-45046857D01*
X108045238Y-45084952D01*
X107778571Y-45084952D01*
X107626190Y-45046857D01*
X107550000Y-44970666D01*
X107511904Y-44894476D01*
X108273809Y-44246857D02*
X108311904Y-44132571D01*
X108311904Y-43942095D01*
X108273809Y-43865904D01*
X108235714Y-43827809D01*
X108159523Y-43789714D01*
X108083333Y-43789714D01*
X108007142Y-43827809D01*
X107969047Y-43865904D01*
X107930952Y-43942095D01*
X107892857Y-44094476D01*
X107854761Y-44170666D01*
X107816666Y-44208761D01*
X107740476Y-44246857D01*
X107664285Y-44246857D01*
X107588095Y-44208761D01*
X107550000Y-44170666D01*
X107511904Y-44094476D01*
X107511904Y-43904000D01*
X107550000Y-43789714D01*
X108311904Y-43446857D02*
X107511904Y-43446857D01*
X105771904Y-45961142D02*
X104971904Y-45961142D01*
X105543333Y-45694476D01*
X104971904Y-45427809D01*
X105771904Y-45427809D01*
X105771904Y-45046857D02*
X104971904Y-45046857D01*
X105733809Y-44704000D02*
X105771904Y-44589714D01*
X105771904Y-44399238D01*
X105733809Y-44323047D01*
X105695714Y-44284952D01*
X105619523Y-44246857D01*
X105543333Y-44246857D01*
X105467142Y-44284952D01*
X105429047Y-44323047D01*
X105390952Y-44399238D01*
X105352857Y-44551619D01*
X105314761Y-44627809D01*
X105276666Y-44665904D01*
X105200476Y-44704000D01*
X105124285Y-44704000D01*
X105048095Y-44665904D01*
X105010000Y-44627809D01*
X104971904Y-44551619D01*
X104971904Y-44361142D01*
X105010000Y-44246857D01*
X104971904Y-43751619D02*
X104971904Y-43599238D01*
X105010000Y-43523047D01*
X105086190Y-43446857D01*
X105238571Y-43408761D01*
X105505238Y-43408761D01*
X105657619Y-43446857D01*
X105733809Y-43523047D01*
X105771904Y-43599238D01*
X105771904Y-43751619D01*
X105733809Y-43827809D01*
X105657619Y-43904000D01*
X105505238Y-43942095D01*
X105238571Y-43942095D01*
X105086190Y-43904000D01*
X105010000Y-43827809D01*
X104971904Y-43751619D01*
X99930000Y-45186523D02*
X99891904Y-45262714D01*
X99891904Y-45377000D01*
X99930000Y-45491285D01*
X100006190Y-45567476D01*
X100082380Y-45605571D01*
X100234761Y-45643666D01*
X100349047Y-45643666D01*
X100501428Y-45605571D01*
X100577619Y-45567476D01*
X100653809Y-45491285D01*
X100691904Y-45377000D01*
X100691904Y-45300809D01*
X100653809Y-45186523D01*
X100615714Y-45148428D01*
X100349047Y-45148428D01*
X100349047Y-45300809D01*
X100691904Y-44805571D02*
X99891904Y-44805571D01*
X100691904Y-44348428D01*
X99891904Y-44348428D01*
X100691904Y-43967476D02*
X99891904Y-43967476D01*
X99891904Y-43777000D01*
X99930000Y-43662714D01*
X100006190Y-43586523D01*
X100082380Y-43548428D01*
X100234761Y-43510333D01*
X100349047Y-43510333D01*
X100501428Y-43548428D01*
X100577619Y-43586523D01*
X100653809Y-43662714D01*
X100691904Y-43777000D01*
X100691904Y-43967476D01*
D11*
%TO.C,J5*%
X114360000Y-40580000D02*
X114360000Y-41910000D01*
X113030000Y-40580000D02*
X114360000Y-40580000D01*
X111760000Y-40580000D02*
X111760000Y-43240000D01*
X111760000Y-43240000D02*
X99000000Y-43240000D01*
X111760000Y-40580000D02*
X99000000Y-40580000D01*
X99000000Y-40580000D02*
X99000000Y-43240000D01*
%TO.C,C1*%
X116974252Y-62457000D02*
X116451748Y-62457000D01*
X116974252Y-60987000D02*
X116451748Y-60987000D01*
%TO.C,SW3*%
X182404378Y-107862000D02*
X186904378Y-107862000D01*
X181154378Y-103862000D02*
X181154378Y-105362000D01*
X186904378Y-101362000D02*
X182404378Y-101362000D01*
X188154378Y-105362000D02*
X188154378Y-103862000D01*
%TO.C,C9*%
X33281252Y-115470000D02*
X32758748Y-115470000D01*
X33281252Y-116940000D02*
X32758748Y-116940000D01*
%TO.C,SW10*%
X205656187Y-105362000D02*
X205656187Y-103862000D01*
X204406187Y-101362000D02*
X199906187Y-101362000D01*
X198656187Y-103862000D02*
X198656187Y-105362000D01*
X199906187Y-107862000D02*
X204406187Y-107862000D01*
%TO.C,SW1*%
X20910500Y-49736000D02*
X20910500Y-48236000D01*
X19660500Y-45736000D02*
X15160500Y-45736000D01*
X13910500Y-48236000D02*
X13910500Y-49736000D01*
X15160500Y-52236000D02*
X19660500Y-52236000D01*
%TO.C,R11*%
X22833000Y-98578936D02*
X22833000Y-99033064D01*
X21363000Y-98578936D02*
X21363000Y-99033064D01*
%TO.C,R7*%
X28548064Y-102897000D02*
X28093936Y-102897000D01*
X28548064Y-104367000D02*
X28093936Y-104367000D01*
%TO.C,SW6*%
X335772000Y-68238000D02*
X340272000Y-68238000D01*
X334522000Y-64238000D02*
X334522000Y-65738000D01*
X340272000Y-61738000D02*
X335772000Y-61738000D01*
X341522000Y-65738000D02*
X341522000Y-64238000D01*
%TO.C,C6*%
X18896000Y-111752748D02*
X18896000Y-112275252D01*
X17426000Y-111752748D02*
X17426000Y-112275252D01*
%TO.C,C10*%
X33281252Y-119099000D02*
X32758748Y-119099000D01*
X33281252Y-117629000D02*
X32758748Y-117629000D01*
%TO.C,J2*%
X120844000Y-42986000D02*
X120844000Y-41656000D01*
X122174000Y-42986000D02*
X120844000Y-42986000D01*
X123444000Y-42986000D02*
X123444000Y-40326000D01*
X123444000Y-40326000D02*
X136204000Y-40326000D01*
X123444000Y-42986000D02*
X136204000Y-42986000D01*
X136204000Y-42986000D02*
X136204000Y-40326000D01*
%TO.C,R5*%
X303503064Y-113057000D02*
X303048936Y-113057000D01*
X303503064Y-114527000D02*
X303048936Y-114527000D01*
%TO.C,D1*%
X12645001Y-42632001D02*
X15505001Y-42632001D01*
X12645001Y-40712001D02*
X12645001Y-42632001D01*
X15505001Y-40712001D02*
X12645001Y-40712001D01*
%TO.C,R9*%
X28040000Y-123290064D02*
X28040000Y-122835936D01*
X26570000Y-123290064D02*
X26570000Y-122835936D01*
%TO.C,R8*%
X26135000Y-122835936D02*
X26135000Y-123290064D01*
X24665000Y-122835936D02*
X24665000Y-123290064D01*
%TO.C,SW9*%
X100645333Y-105362000D02*
X100645333Y-103862000D01*
X99395333Y-101362000D02*
X94895333Y-101362000D01*
X93645333Y-103862000D02*
X93645333Y-105362000D01*
X94895333Y-107862000D02*
X99395333Y-107862000D01*
%TO.C,J1*%
X13148000Y-58106000D02*
X14478000Y-58106000D01*
X13148000Y-59436000D02*
X13148000Y-58106000D01*
X15748000Y-58106000D02*
X18348000Y-58106000D01*
X15748000Y-60706000D02*
X15748000Y-58106000D01*
X13148000Y-60706000D02*
X15748000Y-60706000D01*
X18348000Y-58106000D02*
X18348000Y-83626000D01*
X13148000Y-60706000D02*
X13148000Y-83626000D01*
X13148000Y-83626000D02*
X18348000Y-83626000D01*
%TO.C,C3*%
X129342248Y-50954000D02*
X129864752Y-50954000D01*
X129342248Y-52424000D02*
X129864752Y-52424000D01*
%TO.C,C5*%
X22849500Y-77758500D02*
X22849500Y-78383500D01*
X22537000Y-78071000D02*
X23162000Y-78071000D01*
X23402000Y-81451563D02*
X24466437Y-82516000D01*
X23402000Y-78060437D02*
X24466437Y-76996000D01*
X23402000Y-78060437D02*
X23402000Y-78696000D01*
X23402000Y-81451563D02*
X23402000Y-80816000D01*
X24466437Y-82516000D02*
X28922000Y-82516000D01*
X24466437Y-76996000D02*
X28922000Y-76996000D01*
X28922000Y-76996000D02*
X28922000Y-78696000D01*
X28922000Y-82516000D02*
X28922000Y-80816000D01*
%TO.C,C7*%
X20928000Y-112275252D02*
X20928000Y-111752748D01*
X19458000Y-112275252D02*
X19458000Y-111752748D01*
D12*
%TO.C,IC1*%
X106865000Y-67245000D02*
X108215000Y-67245000D01*
X108565000Y-72350000D02*
X108565000Y-67350000D01*
X112415000Y-72350000D02*
X108565000Y-72350000D01*
X112415000Y-67350000D02*
X112415000Y-72350000D01*
X108565000Y-67350000D02*
X112415000Y-67350000D01*
%TO.C,J4*%
X17636000Y-100802000D02*
X16386000Y-100802000D01*
X17636000Y-91222000D02*
X16386000Y-91222000D01*
X12386000Y-100802000D02*
X13666000Y-100802000D01*
X12386000Y-91222000D02*
X12386000Y-100802000D01*
X13666000Y-91222000D02*
X12386000Y-91222000D01*
D11*
%TO.C,R3*%
X339317064Y-114527000D02*
X338862936Y-114527000D01*
X339317064Y-113057000D02*
X338862936Y-113057000D01*
%TO.C,R6*%
X28093936Y-104929000D02*
X28548064Y-104929000D01*
X28093936Y-106399000D02*
X28548064Y-106399000D01*
%TO.C,C4*%
X129342248Y-54456000D02*
X129864752Y-54456000D01*
X129342248Y-52986000D02*
X129864752Y-52986000D01*
%TO.C,R10*%
X22833000Y-94080064D02*
X22833000Y-93625936D01*
X21363000Y-94080064D02*
X21363000Y-93625936D01*
%TO.C,R4*%
X303048936Y-115089000D02*
X303503064Y-115089000D01*
X303048936Y-116559000D02*
X303503064Y-116559000D01*
%TO.C,C8*%
X32758748Y-114908000D02*
X33281252Y-114908000D01*
X32758748Y-113438000D02*
X33281252Y-113438000D01*
%TO.C,SW8*%
X298942000Y-77128000D02*
X303442000Y-77128000D01*
X297692000Y-73128000D02*
X297692000Y-74628000D01*
X303442000Y-70628000D02*
X298942000Y-70628000D01*
X304692000Y-74628000D02*
X304692000Y-73128000D01*
%TO.C,R12*%
X18060936Y-40921000D02*
X18515064Y-40921000D01*
X18060936Y-42391000D02*
X18515064Y-42391000D01*
%TO.C,C2*%
X116974252Y-65051000D02*
X116451748Y-65051000D01*
X116974252Y-66521000D02*
X116451748Y-66521000D01*
%TO.C,SW4*%
X57388000Y-66460000D02*
X61888000Y-66460000D01*
X56138000Y-62460000D02*
X56138000Y-63960000D01*
X61888000Y-59960000D02*
X57388000Y-59960000D01*
X63138000Y-63960000D02*
X63138000Y-62460000D01*
%TO.C,R1*%
X26189000Y-44095936D02*
X26189000Y-44550064D01*
X27659000Y-44095936D02*
X27659000Y-44550064D01*
%TO.C,SW2*%
X78724000Y-107862000D02*
X83224000Y-107862000D01*
X77474000Y-103862000D02*
X77474000Y-105362000D01*
X83224000Y-101362000D02*
X78724000Y-101362000D01*
X84474000Y-105362000D02*
X84474000Y-103862000D01*
%TO.C,R2*%
X338862936Y-116559000D02*
X339317064Y-116559000D01*
X338862936Y-115089000D02*
X339317064Y-115089000D01*
%TO.C,SW7*%
X309356000Y-86018000D02*
X313856000Y-86018000D01*
X308106000Y-82018000D02*
X308106000Y-83518000D01*
X313856000Y-79518000D02*
X309356000Y-79518000D01*
X315106000Y-83518000D02*
X315106000Y-82018000D01*
%TO.C,SW5*%
X335772000Y-86018000D02*
X340272000Y-86018000D01*
X334522000Y-82018000D02*
X334522000Y-83518000D01*
X340272000Y-79518000D02*
X335772000Y-79518000D01*
X341522000Y-83518000D02*
X341522000Y-82018000D01*
%TO.C,SW11*%
X40786000Y-73358000D02*
X40786000Y-71858000D01*
X39536000Y-69358000D02*
X35036000Y-69358000D01*
X33786000Y-71858000D02*
X33786000Y-73358000D01*
X35036000Y-75858000D02*
X39536000Y-75858000D01*
%TO.C,SW12*%
X351936000Y-83518000D02*
X351936000Y-82018000D01*
X350686000Y-79518000D02*
X346186000Y-79518000D01*
X344936000Y-82018000D02*
X344936000Y-83518000D01*
X346186000Y-86018000D02*
X350686000Y-86018000D01*
%TO.C,SW19*%
X356600000Y-86018000D02*
X361100000Y-86018000D01*
X355350000Y-82018000D02*
X355350000Y-83518000D01*
X361100000Y-79518000D02*
X356600000Y-79518000D01*
X362350000Y-83518000D02*
X362350000Y-82018000D01*
%TO.C,SW20*%
X356600000Y-68238000D02*
X361100000Y-68238000D01*
X355350000Y-64238000D02*
X355350000Y-65738000D01*
X361100000Y-61738000D02*
X356600000Y-61738000D01*
X362350000Y-65738000D02*
X362350000Y-64238000D01*
%TO.C,SW24*%
X239287000Y-105235000D02*
X239287000Y-103735000D01*
X238037000Y-101235000D02*
X233537000Y-101235000D01*
X232287000Y-103735000D02*
X232287000Y-105235000D01*
X233537000Y-107735000D02*
X238037000Y-107735000D01*
%TO.C,SW25*%
X57388000Y-75858000D02*
X61888000Y-75858000D01*
X56138000Y-71858000D02*
X56138000Y-73358000D01*
X61888000Y-69358000D02*
X57388000Y-69358000D01*
X63138000Y-73358000D02*
X63138000Y-71858000D01*
%TO.C,SW21*%
X298942000Y-68238000D02*
X303442000Y-68238000D01*
X297692000Y-64238000D02*
X297692000Y-65738000D01*
X303442000Y-61738000D02*
X298942000Y-61738000D01*
X304692000Y-65738000D02*
X304692000Y-64238000D01*
%TO.C,SW22*%
X298942000Y-94908000D02*
X303442000Y-94908000D01*
X297692000Y-90908000D02*
X297692000Y-92408000D01*
X303442000Y-88408000D02*
X298942000Y-88408000D01*
X304692000Y-92408000D02*
X304692000Y-90908000D01*
%TO.C,SW28*%
X315106000Y-65738000D02*
X315106000Y-64238000D01*
X313856000Y-61738000D02*
X309356000Y-61738000D01*
X308106000Y-64238000D02*
X308106000Y-65738000D01*
X309356000Y-68238000D02*
X313856000Y-68238000D01*
%TO.C,SW13*%
X315106000Y-92408000D02*
X315106000Y-90908000D01*
X313856000Y-88408000D02*
X309356000Y-88408000D01*
X308106000Y-90908000D02*
X308106000Y-92408000D01*
X309356000Y-94908000D02*
X313856000Y-94908000D01*
%TO.C,SW15*%
X315106000Y-74628000D02*
X315106000Y-73128000D01*
X313856000Y-70628000D02*
X309356000Y-70628000D01*
X308106000Y-73128000D02*
X308106000Y-74628000D01*
X309356000Y-77128000D02*
X313856000Y-77128000D01*
%TO.C,SW16*%
X112397142Y-107862000D02*
X116897142Y-107862000D01*
X111147142Y-103862000D02*
X111147142Y-105362000D01*
X116897142Y-101362000D02*
X112397142Y-101362000D01*
X118147142Y-105362000D02*
X118147142Y-103862000D01*
%TO.C,SW30*%
X325520000Y-92408000D02*
X325520000Y-90908000D01*
X324270000Y-88408000D02*
X319770000Y-88408000D01*
X318520000Y-90908000D02*
X318520000Y-92408000D01*
X319770000Y-94908000D02*
X324270000Y-94908000D01*
%TO.C,SW14*%
X351936000Y-65738000D02*
X351936000Y-64238000D01*
X350686000Y-61738000D02*
X346186000Y-61738000D01*
X344936000Y-64238000D02*
X344936000Y-65738000D01*
X346186000Y-68238000D02*
X350686000Y-68238000D01*
%TO.C,SW32*%
X351936000Y-92408000D02*
X351936000Y-90908000D01*
X350686000Y-88408000D02*
X346186000Y-88408000D01*
X344936000Y-90908000D02*
X344936000Y-92408000D01*
X346186000Y-94908000D02*
X350686000Y-94908000D01*
%TO.C,SW23*%
X129898951Y-107862000D02*
X134398951Y-107862000D01*
X128648951Y-103862000D02*
X128648951Y-105362000D01*
X134398951Y-101362000D02*
X129898951Y-101362000D01*
X135648951Y-105362000D02*
X135648951Y-103862000D01*
%TO.C,SW18*%
X51962000Y-73358000D02*
X51962000Y-71858000D01*
X50712000Y-69358000D02*
X46212000Y-69358000D01*
X44962000Y-71858000D02*
X44962000Y-73358000D01*
X46212000Y-75858000D02*
X50712000Y-75858000D01*
%TO.C,SW26*%
X341522000Y-92408000D02*
X341522000Y-90908000D01*
X340272000Y-88408000D02*
X335772000Y-88408000D01*
X334522000Y-90908000D02*
X334522000Y-92408000D01*
X335772000Y-94908000D02*
X340272000Y-94908000D01*
%TO.C,SW34*%
X346186000Y-77128000D02*
X350686000Y-77128000D01*
X344936000Y-73128000D02*
X344936000Y-74628000D01*
X350686000Y-70628000D02*
X346186000Y-70628000D01*
X351936000Y-74628000D02*
X351936000Y-73128000D01*
%TO.C,SW27*%
X341522000Y-74628000D02*
X341522000Y-73128000D01*
X340272000Y-70628000D02*
X335772000Y-70628000D01*
X334522000Y-73128000D02*
X334522000Y-74628000D01*
X335772000Y-77128000D02*
X340272000Y-77128000D01*
%TO.C,SW29*%
X147400760Y-107862000D02*
X151900760Y-107862000D01*
X146150760Y-103862000D02*
X146150760Y-105362000D01*
X151900760Y-101362000D02*
X147400760Y-101362000D01*
X153150760Y-105362000D02*
X153150760Y-103862000D01*
%TO.C,SW31*%
X40786000Y-83010000D02*
X40786000Y-81510000D01*
X39536000Y-79010000D02*
X35036000Y-79010000D01*
X33786000Y-81510000D02*
X33786000Y-83010000D01*
X35036000Y-85510000D02*
X39536000Y-85510000D01*
%TO.C,SW35*%
X298942000Y-86018000D02*
X303442000Y-86018000D01*
X297692000Y-82018000D02*
X297692000Y-83518000D01*
X303442000Y-79518000D02*
X298942000Y-79518000D01*
X304692000Y-83518000D02*
X304692000Y-82018000D01*
%TO.C,SW33*%
X170652569Y-105362000D02*
X170652569Y-103862000D01*
X169402569Y-101362000D02*
X164902569Y-101362000D01*
X163652569Y-103862000D02*
X163652569Y-105362000D01*
X164902569Y-107862000D02*
X169402569Y-107862000D01*
%TO.C,SW17*%
X217408000Y-107735000D02*
X221908000Y-107735000D01*
X216158000Y-103735000D02*
X216158000Y-105235000D01*
X221908000Y-101235000D02*
X217408000Y-101235000D01*
X223158000Y-105235000D02*
X223158000Y-103735000D01*
%TO.C,SW48*%
X319770000Y-77128000D02*
X324270000Y-77128000D01*
X318520000Y-73128000D02*
X318520000Y-74628000D01*
X324270000Y-70628000D02*
X319770000Y-70628000D01*
X325520000Y-74628000D02*
X325520000Y-73128000D01*
D12*
%TO.C,SW44*%
X207439000Y-128721000D02*
X209639000Y-128721000D01*
X207439000Y-121921000D02*
X207439000Y-128721000D01*
X223439000Y-128721000D02*
X221239000Y-128721000D01*
X223439000Y-121921000D02*
X223439000Y-128721000D01*
X223439000Y-111121000D02*
X223439000Y-116921000D01*
X207439000Y-111121000D02*
X223439000Y-111121000D01*
X207439000Y-116921000D02*
X207439000Y-111121000D01*
D11*
%TO.C,RV1*%
X40917500Y-53344500D02*
X40917500Y-56939500D01*
X40917500Y-46898500D02*
X40917500Y-50494500D01*
X30677500Y-55844500D02*
X30677500Y-56939500D01*
X30677500Y-50845500D02*
X30677500Y-52994500D01*
X30677500Y-46898500D02*
X30677500Y-47993500D01*
X30677500Y-56939500D02*
X40917500Y-56939500D01*
X30677500Y-46898500D02*
X40917500Y-46898500D01*
D12*
%TO.C,SW46*%
X48244500Y-85234500D02*
X48244500Y-79434500D01*
X48244500Y-79434500D02*
X64244500Y-79434500D01*
X64244500Y-79434500D02*
X64244500Y-85234500D01*
X64244500Y-90234500D02*
X64244500Y-97034500D01*
X64244500Y-97034500D02*
X62044500Y-97034500D01*
X48244500Y-90234500D02*
X48244500Y-97034500D01*
X48244500Y-97034500D02*
X50444500Y-97034500D01*
D11*
%TO.C,RV2*%
X45600000Y-46898500D02*
X55840000Y-46898500D01*
X45600000Y-56939500D02*
X55840000Y-56939500D01*
X45600000Y-46898500D02*
X45600000Y-47993500D01*
X45600000Y-50845500D02*
X45600000Y-52994500D01*
X45600000Y-55844500D02*
X45600000Y-56939500D01*
X55840000Y-46898500D02*
X55840000Y-50494500D01*
X55840000Y-53344500D02*
X55840000Y-56939500D01*
%TO.C,SW50*%
X51962000Y-63960000D02*
X51962000Y-62460000D01*
X50712000Y-59960000D02*
X46212000Y-59960000D01*
X44962000Y-62460000D02*
X44962000Y-63960000D01*
X46212000Y-66460000D02*
X50712000Y-66460000D01*
D13*
%TO.C,RV3*%
X254475000Y-107362000D02*
X254475000Y-62362000D01*
X254475000Y-62362000D02*
X262475000Y-62362000D01*
X262475000Y-62362000D02*
X262475000Y-107362000D01*
X262475000Y-107362000D02*
X254475000Y-107362000D01*
D14*
X263975000Y-102862000D02*
X263975000Y-102862000D01*
X263975000Y-102462000D02*
X263975000Y-102462000D01*
X263975000Y-102462000D02*
G75*
G02*
X263975000Y-102862000I0J-200000D01*
G01*
X263975000Y-102862000D02*
G75*
G02*
X263975000Y-102462000I0J200000D01*
G01*
D12*
%TO.C,SW43*%
X115617800Y-128721000D02*
X117817800Y-128721000D01*
X115617800Y-121921000D02*
X115617800Y-128721000D01*
X131617800Y-128721000D02*
X129417800Y-128721000D01*
X131617800Y-121921000D02*
X131617800Y-128721000D01*
X131617800Y-111121000D02*
X131617800Y-116921000D01*
X115617800Y-111121000D02*
X131617800Y-111121000D01*
X115617800Y-116921000D02*
X115617800Y-111121000D01*
%TO.C,SW40*%
X92662501Y-116921000D02*
X92662501Y-111121000D01*
X92662501Y-111121000D02*
X108662501Y-111121000D01*
X108662501Y-111121000D02*
X108662501Y-116921000D01*
X108662501Y-121921000D02*
X108662501Y-128721000D01*
X108662501Y-128721000D02*
X106462501Y-128721000D01*
X92662501Y-121921000D02*
X92662501Y-128721000D01*
X92662501Y-128721000D02*
X94862501Y-128721000D01*
%TO.C,SW47*%
X161528398Y-116921000D02*
X161528398Y-111121000D01*
X161528398Y-111121000D02*
X177528398Y-111121000D01*
X177528398Y-111121000D02*
X177528398Y-116921000D01*
X177528398Y-121921000D02*
X177528398Y-128721000D01*
X177528398Y-128721000D02*
X175328398Y-128721000D01*
X161528398Y-121921000D02*
X161528398Y-128721000D01*
X161528398Y-128721000D02*
X163728398Y-128721000D01*
D11*
%TO.C,SW49*%
X35036000Y-66460000D02*
X39536000Y-66460000D01*
X33786000Y-62460000D02*
X33786000Y-63960000D01*
X39536000Y-59960000D02*
X35036000Y-59960000D01*
X40786000Y-63960000D02*
X40786000Y-62460000D01*
%TO.C,SW42*%
X285582000Y-68286000D02*
G75*
G03*
X285582000Y-68286000I-3000000J0D01*
G01*
X284582000Y-62386000D02*
X288682000Y-62386000D01*
X288682000Y-74186000D02*
X284582000Y-74186000D01*
X280582000Y-74186000D02*
X276482000Y-74186000D01*
X280582000Y-62386000D02*
X276482000Y-62386000D01*
X276482000Y-62386000D02*
X276482000Y-74186000D01*
X275082000Y-64486000D02*
X274782000Y-64186000D01*
X274782000Y-64186000D02*
X275382000Y-64186000D01*
X275382000Y-64186000D02*
X275082000Y-64486000D01*
X288682000Y-62386000D02*
X288682000Y-64786000D01*
X288682000Y-66986000D02*
X288682000Y-69586000D01*
X288682000Y-71786000D02*
X288682000Y-74186000D01*
X282582000Y-67786000D02*
X282582000Y-68786000D01*
X282082000Y-68286000D02*
X283082000Y-68286000D01*
D12*
%TO.C,SW41*%
X184483697Y-116921000D02*
X184483697Y-111121000D01*
X184483697Y-111121000D02*
X200483697Y-111121000D01*
X200483697Y-111121000D02*
X200483697Y-116921000D01*
X200483697Y-121921000D02*
X200483697Y-128721000D01*
X200483697Y-128721000D02*
X198283697Y-128721000D01*
X184483697Y-121921000D02*
X184483697Y-128721000D01*
X184483697Y-128721000D02*
X186683697Y-128721000D01*
%TO.C,SW45*%
X138573099Y-128721000D02*
X140773099Y-128721000D01*
X138573099Y-121921000D02*
X138573099Y-128721000D01*
X154573099Y-128721000D02*
X152373099Y-128721000D01*
X154573099Y-121921000D02*
X154573099Y-128721000D01*
X154573099Y-111121000D02*
X154573099Y-116921000D01*
X138573099Y-111121000D02*
X154573099Y-111121000D01*
X138573099Y-116921000D02*
X138573099Y-111121000D01*
D11*
%TO.C,SW39*%
X325520000Y-83518000D02*
X325520000Y-82018000D01*
X324270000Y-79518000D02*
X319770000Y-79518000D01*
X318520000Y-82018000D02*
X318520000Y-83518000D01*
X319770000Y-86018000D02*
X324270000Y-86018000D01*
D10*
%TO.C,U5*%
X23287000Y-110566000D02*
X21687000Y-110566000D01*
X23287000Y-120641000D02*
X29037000Y-120641000D01*
X23287000Y-109991000D02*
X29037000Y-109991000D01*
X23287000Y-120641000D02*
X23287000Y-119991000D01*
X29037000Y-120641000D02*
X29037000Y-119991000D01*
X29037000Y-109991000D02*
X29037000Y-110641000D01*
X23287000Y-109991000D02*
X23287000Y-110566000D01*
D11*
%TO.C,SW38*%
X362350000Y-92408000D02*
X362350000Y-90908000D01*
X361100000Y-88408000D02*
X356600000Y-88408000D01*
X355350000Y-90908000D02*
X355350000Y-92408000D01*
X356600000Y-94908000D02*
X361100000Y-94908000D01*
%TO.C,U2*%
X344374000Y-99643000D02*
X342559000Y-99643000D01*
X344374000Y-99398000D02*
X344374000Y-99643000D01*
X348234000Y-99398000D02*
X344374000Y-99398000D01*
X352094000Y-99398000D02*
X352094000Y-99643000D01*
X348234000Y-99398000D02*
X352094000Y-99398000D01*
X344374000Y-117518000D02*
X344374000Y-117273000D01*
X348234000Y-117518000D02*
X344374000Y-117518000D01*
X352094000Y-117518000D02*
X352094000Y-117273000D01*
X348234000Y-117518000D02*
X352094000Y-117518000D01*
%TO.C,U3*%
X312166000Y-117518000D02*
X316026000Y-117518000D01*
X316026000Y-117518000D02*
X316026000Y-117273000D01*
X312166000Y-117518000D02*
X308306000Y-117518000D01*
X308306000Y-117518000D02*
X308306000Y-117273000D01*
X312166000Y-99398000D02*
X316026000Y-99398000D01*
X316026000Y-99398000D02*
X316026000Y-99643000D01*
X312166000Y-99398000D02*
X308306000Y-99398000D01*
X308306000Y-99398000D02*
X308306000Y-99643000D01*
X308306000Y-99643000D02*
X306491000Y-99643000D01*
%TO.C,U4*%
X33859000Y-89483000D02*
X32044000Y-89483000D01*
X33859000Y-89238000D02*
X33859000Y-89483000D01*
X37719000Y-89238000D02*
X33859000Y-89238000D01*
X41579000Y-89238000D02*
X41579000Y-89483000D01*
X37719000Y-89238000D02*
X41579000Y-89238000D01*
X33859000Y-107358000D02*
X33859000Y-107113000D01*
X37719000Y-107358000D02*
X33859000Y-107358000D01*
X41579000Y-107358000D02*
X41579000Y-107113000D01*
X37719000Y-107358000D02*
X41579000Y-107358000D01*
D13*
%TO.C,U1*%
X135497000Y-71997000D02*
X135497000Y-71697000D01*
X135497000Y-71997000D02*
X135247000Y-71997000D01*
X121297000Y-71997000D02*
X121597000Y-71997000D01*
X121297000Y-71997000D02*
X121297000Y-71747000D01*
X121297000Y-57797000D02*
X121297000Y-58147000D01*
X121297000Y-57797000D02*
X121597000Y-57797000D01*
X134597000Y-57797000D02*
X134597000Y-56522000D01*
X134922000Y-57797000D02*
X134597000Y-57797000D01*
X135497000Y-58372000D02*
X134922000Y-57797000D01*
X135497000Y-58372000D02*
X135497000Y-58672000D01*
D11*
%TO.C,SW36*%
X319770000Y-68238000D02*
X324270000Y-68238000D01*
X318520000Y-64238000D02*
X318520000Y-65738000D01*
X324270000Y-61738000D02*
X319770000Y-61738000D01*
X325520000Y-65738000D02*
X325520000Y-64238000D01*
%TO.C,SW37*%
X362350000Y-74628000D02*
X362350000Y-73128000D01*
X361100000Y-70628000D02*
X356600000Y-70628000D01*
X355350000Y-73128000D02*
X355350000Y-74628000D01*
X356600000Y-77128000D02*
X361100000Y-77128000D01*
%TO.C,R13*%
X170407064Y-88111000D02*
X169952936Y-88111000D01*
X170407064Y-86641000D02*
X169952936Y-86641000D01*
%TO.C,R14*%
X169952936Y-86079000D02*
X170407064Y-86079000D01*
X169952936Y-84609000D02*
X170407064Y-84609000D01*
%TO.C,U6*%
X149681000Y-89712000D02*
X149681000Y-91527000D01*
X149436000Y-89712000D02*
X149681000Y-89712000D01*
X149436000Y-85852000D02*
X149436000Y-89712000D01*
X149436000Y-81992000D02*
X149681000Y-81992000D01*
X149436000Y-85852000D02*
X149436000Y-81992000D01*
X167556000Y-89712000D02*
X167311000Y-89712000D01*
X167556000Y-85852000D02*
X167556000Y-89712000D01*
X167556000Y-81992000D02*
X167311000Y-81992000D01*
X167556000Y-85852000D02*
X167556000Y-81992000D01*
%TO.C,Y1*%
X105446000Y-60546000D02*
X105446000Y-65946000D01*
X109946000Y-60546000D02*
X105446000Y-60546000D01*
%TO.C,J5*%
D10*
X96948666Y-41362380D02*
X96948666Y-42076666D01*
X96901047Y-42219523D01*
X96805809Y-42314761D01*
X96662952Y-42362380D01*
X96567714Y-42362380D01*
X97901047Y-41362380D02*
X97424857Y-41362380D01*
X97377238Y-41838571D01*
X97424857Y-41790952D01*
X97520095Y-41743333D01*
X97758190Y-41743333D01*
X97853428Y-41790952D01*
X97901047Y-41838571D01*
X97948666Y-41933809D01*
X97948666Y-42171904D01*
X97901047Y-42267142D01*
X97853428Y-42314761D01*
X97758190Y-42362380D01*
X97520095Y-42362380D01*
X97424857Y-42314761D01*
X97377238Y-42267142D01*
X103362500Y-39774761D02*
X103505357Y-39822380D01*
X103743452Y-39822380D01*
X103838690Y-39774761D01*
X103886309Y-39727142D01*
X103933928Y-39631904D01*
X103933928Y-39536666D01*
X103886309Y-39441428D01*
X103838690Y-39393809D01*
X103743452Y-39346190D01*
X103552976Y-39298571D01*
X103457738Y-39250952D01*
X103410119Y-39203333D01*
X103362500Y-39108095D01*
X103362500Y-39012857D01*
X103410119Y-38917619D01*
X103457738Y-38870000D01*
X103552976Y-38822380D01*
X103791071Y-38822380D01*
X103933928Y-38870000D01*
X104362500Y-39822380D02*
X104362500Y-38822380D01*
X104743452Y-38822380D01*
X104838690Y-38870000D01*
X104886309Y-38917619D01*
X104933928Y-39012857D01*
X104933928Y-39155714D01*
X104886309Y-39250952D01*
X104838690Y-39298571D01*
X104743452Y-39346190D01*
X104362500Y-39346190D01*
X105362500Y-39822380D02*
X105362500Y-38822380D01*
X106600595Y-39822380D02*
X106600595Y-38822380D01*
X106981547Y-38822380D01*
X107076785Y-38870000D01*
X107124404Y-38917619D01*
X107172023Y-39012857D01*
X107172023Y-39155714D01*
X107124404Y-39250952D01*
X107076785Y-39298571D01*
X106981547Y-39346190D01*
X106600595Y-39346190D01*
X107600595Y-39822380D02*
X107600595Y-39155714D01*
X107600595Y-38822380D02*
X107552976Y-38870000D01*
X107600595Y-38917619D01*
X107648214Y-38870000D01*
X107600595Y-38822380D01*
X107600595Y-38917619D01*
X108076785Y-39155714D02*
X108076785Y-39822380D01*
X108076785Y-39250952D02*
X108124404Y-39203333D01*
X108219642Y-39155714D01*
X108362500Y-39155714D01*
X108457738Y-39203333D01*
X108505357Y-39298571D01*
X108505357Y-39822380D01*
X108933928Y-39774761D02*
X109029166Y-39822380D01*
X109219642Y-39822380D01*
X109314880Y-39774761D01*
X109362500Y-39679523D01*
X109362500Y-39631904D01*
X109314880Y-39536666D01*
X109219642Y-39489047D01*
X109076785Y-39489047D01*
X108981547Y-39441428D01*
X108933928Y-39346190D01*
X108933928Y-39298571D01*
X108981547Y-39203333D01*
X109076785Y-39155714D01*
X109219642Y-39155714D01*
X109314880Y-39203333D01*
%TO.C,C1*%
X113625333Y-62079142D02*
X113577714Y-62126761D01*
X113434857Y-62174380D01*
X113339619Y-62174380D01*
X113196761Y-62126761D01*
X113101523Y-62031523D01*
X113053904Y-61936285D01*
X113006285Y-61745809D01*
X113006285Y-61602952D01*
X113053904Y-61412476D01*
X113101523Y-61317238D01*
X113196761Y-61222000D01*
X113339619Y-61174380D01*
X113434857Y-61174380D01*
X113577714Y-61222000D01*
X113625333Y-61269619D01*
X114577714Y-62174380D02*
X114006285Y-62174380D01*
X114292000Y-62174380D02*
X114292000Y-61174380D01*
X114196761Y-61317238D01*
X114101523Y-61412476D01*
X114006285Y-61460095D01*
%TO.C,SW3*%
X183321044Y-105052761D02*
X183463901Y-105100380D01*
X183701997Y-105100380D01*
X183797235Y-105052761D01*
X183844854Y-105005142D01*
X183892473Y-104909904D01*
X183892473Y-104814666D01*
X183844854Y-104719428D01*
X183797235Y-104671809D01*
X183701997Y-104624190D01*
X183511520Y-104576571D01*
X183416282Y-104528952D01*
X183368663Y-104481333D01*
X183321044Y-104386095D01*
X183321044Y-104290857D01*
X183368663Y-104195619D01*
X183416282Y-104148000D01*
X183511520Y-104100380D01*
X183749616Y-104100380D01*
X183892473Y-104148000D01*
X184225806Y-104100380D02*
X184463901Y-105100380D01*
X184654378Y-104386095D01*
X184844854Y-105100380D01*
X185082949Y-104100380D01*
X185368663Y-104100380D02*
X185987711Y-104100380D01*
X185654378Y-104481333D01*
X185797235Y-104481333D01*
X185892473Y-104528952D01*
X185940092Y-104576571D01*
X185987711Y-104671809D01*
X185987711Y-104909904D01*
X185940092Y-105005142D01*
X185892473Y-105052761D01*
X185797235Y-105100380D01*
X185511520Y-105100380D01*
X185416282Y-105052761D01*
X185368663Y-105005142D01*
X184821044Y-108990571D02*
X184487711Y-108990571D01*
X184487711Y-109514380D02*
X184487711Y-108514380D01*
X184963901Y-108514380D01*
X185773425Y-108514380D02*
X185582949Y-108514380D01*
X185487711Y-108562000D01*
X185440092Y-108609619D01*
X185344854Y-108752476D01*
X185297235Y-108942952D01*
X185297235Y-109323904D01*
X185344854Y-109419142D01*
X185392473Y-109466761D01*
X185487711Y-109514380D01*
X185678187Y-109514380D01*
X185773425Y-109466761D01*
X185821044Y-109419142D01*
X185868663Y-109323904D01*
X185868663Y-109085809D01*
X185821044Y-108990571D01*
X185773425Y-108942952D01*
X185678187Y-108895333D01*
X185487711Y-108895333D01*
X185392473Y-108942952D01*
X185344854Y-108990571D01*
X185297235Y-109085809D01*
%TO.C,C9*%
X35647333Y-116562142D02*
X35599714Y-116609761D01*
X35456857Y-116657380D01*
X35361619Y-116657380D01*
X35218761Y-116609761D01*
X35123523Y-116514523D01*
X35075904Y-116419285D01*
X35028285Y-116228809D01*
X35028285Y-116085952D01*
X35075904Y-115895476D01*
X35123523Y-115800238D01*
X35218761Y-115705000D01*
X35361619Y-115657380D01*
X35456857Y-115657380D01*
X35599714Y-115705000D01*
X35647333Y-115752619D01*
X36123523Y-116657380D02*
X36314000Y-116657380D01*
X36409238Y-116609761D01*
X36456857Y-116562142D01*
X36552095Y-116419285D01*
X36599714Y-116228809D01*
X36599714Y-115847857D01*
X36552095Y-115752619D01*
X36504476Y-115705000D01*
X36409238Y-115657380D01*
X36218761Y-115657380D01*
X36123523Y-115705000D01*
X36075904Y-115752619D01*
X36028285Y-115847857D01*
X36028285Y-116085952D01*
X36075904Y-116181190D01*
X36123523Y-116228809D01*
X36218761Y-116276428D01*
X36409238Y-116276428D01*
X36504476Y-116228809D01*
X36552095Y-116181190D01*
X36599714Y-116085952D01*
%TO.C,SW10*%
X200346663Y-105052761D02*
X200489520Y-105100380D01*
X200727615Y-105100380D01*
X200822853Y-105052761D01*
X200870472Y-105005142D01*
X200918091Y-104909904D01*
X200918091Y-104814666D01*
X200870472Y-104719428D01*
X200822853Y-104671809D01*
X200727615Y-104624190D01*
X200537139Y-104576571D01*
X200441901Y-104528952D01*
X200394282Y-104481333D01*
X200346663Y-104386095D01*
X200346663Y-104290857D01*
X200394282Y-104195619D01*
X200441901Y-104148000D01*
X200537139Y-104100380D01*
X200775234Y-104100380D01*
X200918091Y-104148000D01*
X201251425Y-104100380D02*
X201489520Y-105100380D01*
X201679996Y-104386095D01*
X201870472Y-105100380D01*
X202108567Y-104100380D01*
X203013329Y-105100380D02*
X202441901Y-105100380D01*
X202727615Y-105100380D02*
X202727615Y-104100380D01*
X202632377Y-104243238D01*
X202537139Y-104338476D01*
X202441901Y-104386095D01*
X203632377Y-104100380D02*
X203727615Y-104100380D01*
X203822853Y-104148000D01*
X203870472Y-104195619D01*
X203918091Y-104290857D01*
X203965710Y-104481333D01*
X203965710Y-104719428D01*
X203918091Y-104909904D01*
X203870472Y-105005142D01*
X203822853Y-105052761D01*
X203727615Y-105100380D01*
X203632377Y-105100380D01*
X203537139Y-105052761D01*
X203489520Y-105005142D01*
X203441901Y-104909904D01*
X203394282Y-104719428D01*
X203394282Y-104481333D01*
X203441901Y-104290857D01*
X203489520Y-104195619D01*
X203537139Y-104148000D01*
X203632377Y-104100380D01*
X202322853Y-108990571D02*
X201989520Y-108990571D01*
X201989520Y-109514380D02*
X201989520Y-108514380D01*
X202465710Y-108514380D01*
X202751425Y-108514380D02*
X203418091Y-108514380D01*
X202989520Y-109514380D01*
%TO.C,SW1*%
X16077166Y-45140761D02*
X16220023Y-45188380D01*
X16458119Y-45188380D01*
X16553357Y-45140761D01*
X16600976Y-45093142D01*
X16648595Y-44997904D01*
X16648595Y-44902666D01*
X16600976Y-44807428D01*
X16553357Y-44759809D01*
X16458119Y-44712190D01*
X16267642Y-44664571D01*
X16172404Y-44616952D01*
X16124785Y-44569333D01*
X16077166Y-44474095D01*
X16077166Y-44378857D01*
X16124785Y-44283619D01*
X16172404Y-44236000D01*
X16267642Y-44188380D01*
X16505738Y-44188380D01*
X16648595Y-44236000D01*
X16981928Y-44188380D02*
X17220023Y-45188380D01*
X17410500Y-44474095D01*
X17600976Y-45188380D01*
X17839071Y-44188380D01*
X18743833Y-45188380D02*
X18172404Y-45188380D01*
X18458119Y-45188380D02*
X18458119Y-44188380D01*
X18362880Y-44331238D01*
X18267642Y-44426476D01*
X18172404Y-44474095D01*
X16672404Y-53888380D02*
X16339071Y-53412190D01*
X16100976Y-53888380D02*
X16100976Y-52888380D01*
X16481928Y-52888380D01*
X16577166Y-52936000D01*
X16624785Y-52983619D01*
X16672404Y-53078857D01*
X16672404Y-53221714D01*
X16624785Y-53316952D01*
X16577166Y-53364571D01*
X16481928Y-53412190D01*
X16100976Y-53412190D01*
X17481928Y-53840761D02*
X17386690Y-53888380D01*
X17196214Y-53888380D01*
X17100976Y-53840761D01*
X17053357Y-53745523D01*
X17053357Y-53364571D01*
X17100976Y-53269333D01*
X17196214Y-53221714D01*
X17386690Y-53221714D01*
X17481928Y-53269333D01*
X17529547Y-53364571D01*
X17529547Y-53459809D01*
X17053357Y-53555047D01*
X17910500Y-53840761D02*
X18005738Y-53888380D01*
X18196214Y-53888380D01*
X18291452Y-53840761D01*
X18339071Y-53745523D01*
X18339071Y-53697904D01*
X18291452Y-53602666D01*
X18196214Y-53555047D01*
X18053357Y-53555047D01*
X17958119Y-53507428D01*
X17910500Y-53412190D01*
X17910500Y-53364571D01*
X17958119Y-53269333D01*
X18053357Y-53221714D01*
X18196214Y-53221714D01*
X18291452Y-53269333D01*
X19148595Y-53840761D02*
X19053357Y-53888380D01*
X18862880Y-53888380D01*
X18767642Y-53840761D01*
X18720023Y-53745523D01*
X18720023Y-53364571D01*
X18767642Y-53269333D01*
X18862880Y-53221714D01*
X19053357Y-53221714D01*
X19148595Y-53269333D01*
X19196214Y-53364571D01*
X19196214Y-53459809D01*
X18720023Y-53555047D01*
X19481928Y-53221714D02*
X19862880Y-53221714D01*
X19624785Y-52888380D02*
X19624785Y-53745523D01*
X19672404Y-53840761D01*
X19767642Y-53888380D01*
X19862880Y-53888380D01*
%TO.C,R11*%
X24200380Y-99448857D02*
X23724190Y-99782190D01*
X24200380Y-100020285D02*
X23200380Y-100020285D01*
X23200380Y-99639333D01*
X23248000Y-99544095D01*
X23295619Y-99496476D01*
X23390857Y-99448857D01*
X23533714Y-99448857D01*
X23628952Y-99496476D01*
X23676571Y-99544095D01*
X23724190Y-99639333D01*
X23724190Y-100020285D01*
X24200380Y-98496476D02*
X24200380Y-99067904D01*
X24200380Y-98782190D02*
X23200380Y-98782190D01*
X23343238Y-98877428D01*
X23438476Y-98972666D01*
X23486095Y-99067904D01*
X24200380Y-97544095D02*
X24200380Y-98115523D01*
X24200380Y-97829809D02*
X23200380Y-97829809D01*
X23343238Y-97925047D01*
X23438476Y-98020285D01*
X23486095Y-98115523D01*
%TO.C,R7*%
X25360333Y-104084380D02*
X25027000Y-103608190D01*
X24788904Y-104084380D02*
X24788904Y-103084380D01*
X25169857Y-103084380D01*
X25265095Y-103132000D01*
X25312714Y-103179619D01*
X25360333Y-103274857D01*
X25360333Y-103417714D01*
X25312714Y-103512952D01*
X25265095Y-103560571D01*
X25169857Y-103608190D01*
X24788904Y-103608190D01*
X25693666Y-103084380D02*
X26360333Y-103084380D01*
X25931761Y-104084380D01*
%TO.C,SW6*%
X336688666Y-65428761D02*
X336831523Y-65476380D01*
X337069619Y-65476380D01*
X337164857Y-65428761D01*
X337212476Y-65381142D01*
X337260095Y-65285904D01*
X337260095Y-65190666D01*
X337212476Y-65095428D01*
X337164857Y-65047809D01*
X337069619Y-65000190D01*
X336879142Y-64952571D01*
X336783904Y-64904952D01*
X336736285Y-64857333D01*
X336688666Y-64762095D01*
X336688666Y-64666857D01*
X336736285Y-64571619D01*
X336783904Y-64524000D01*
X336879142Y-64476380D01*
X337117238Y-64476380D01*
X337260095Y-64524000D01*
X337593428Y-64476380D02*
X337831523Y-65476380D01*
X338022000Y-64762095D01*
X338212476Y-65476380D01*
X338450571Y-64476380D01*
X339260095Y-64476380D02*
X339069619Y-64476380D01*
X338974380Y-64524000D01*
X338926761Y-64571619D01*
X338831523Y-64714476D01*
X338783904Y-64904952D01*
X338783904Y-65285904D01*
X338831523Y-65381142D01*
X338879142Y-65428761D01*
X338974380Y-65476380D01*
X339164857Y-65476380D01*
X339260095Y-65428761D01*
X339307714Y-65381142D01*
X339355333Y-65285904D01*
X339355333Y-65047809D01*
X339307714Y-64952571D01*
X339260095Y-64904952D01*
X339164857Y-64857333D01*
X338974380Y-64857333D01*
X338879142Y-64904952D01*
X338831523Y-64952571D01*
X338783904Y-65047809D01*
X337740666Y-68794380D02*
X338407333Y-68794380D01*
X337978761Y-69794380D01*
%TO.C,C6*%
X18518142Y-109386666D02*
X18565761Y-109434285D01*
X18613380Y-109577142D01*
X18613380Y-109672380D01*
X18565761Y-109815238D01*
X18470523Y-109910476D01*
X18375285Y-109958095D01*
X18184809Y-110005714D01*
X18041952Y-110005714D01*
X17851476Y-109958095D01*
X17756238Y-109910476D01*
X17661000Y-109815238D01*
X17613380Y-109672380D01*
X17613380Y-109577142D01*
X17661000Y-109434285D01*
X17708619Y-109386666D01*
X17613380Y-108529523D02*
X17613380Y-108720000D01*
X17661000Y-108815238D01*
X17708619Y-108862857D01*
X17851476Y-108958095D01*
X18041952Y-109005714D01*
X18422904Y-109005714D01*
X18518142Y-108958095D01*
X18565761Y-108910476D01*
X18613380Y-108815238D01*
X18613380Y-108624761D01*
X18565761Y-108529523D01*
X18518142Y-108481904D01*
X18422904Y-108434285D01*
X18184809Y-108434285D01*
X18089571Y-108481904D01*
X18041952Y-108529523D01*
X17994333Y-108624761D01*
X17994333Y-108815238D01*
X18041952Y-108910476D01*
X18089571Y-108958095D01*
X18184809Y-109005714D01*
%TO.C,C10*%
X32377142Y-120401142D02*
X32329523Y-120448761D01*
X32186666Y-120496380D01*
X32091428Y-120496380D01*
X31948571Y-120448761D01*
X31853333Y-120353523D01*
X31805714Y-120258285D01*
X31758095Y-120067809D01*
X31758095Y-119924952D01*
X31805714Y-119734476D01*
X31853333Y-119639238D01*
X31948571Y-119544000D01*
X32091428Y-119496380D01*
X32186666Y-119496380D01*
X32329523Y-119544000D01*
X32377142Y-119591619D01*
X33329523Y-120496380D02*
X32758095Y-120496380D01*
X33043809Y-120496380D02*
X33043809Y-119496380D01*
X32948571Y-119639238D01*
X32853333Y-119734476D01*
X32758095Y-119782095D01*
X33948571Y-119496380D02*
X34043809Y-119496380D01*
X34139047Y-119544000D01*
X34186666Y-119591619D01*
X34234285Y-119686857D01*
X34281904Y-119877333D01*
X34281904Y-120115428D01*
X34234285Y-120305904D01*
X34186666Y-120401142D01*
X34139047Y-120448761D01*
X34043809Y-120496380D01*
X33948571Y-120496380D01*
X33853333Y-120448761D01*
X33805714Y-120401142D01*
X33758095Y-120305904D01*
X33710476Y-120115428D01*
X33710476Y-119877333D01*
X33758095Y-119686857D01*
X33805714Y-119591619D01*
X33853333Y-119544000D01*
X33948571Y-119496380D01*
%TO.C,J2*%
X118983166Y-40981380D02*
X118983166Y-41695666D01*
X118935547Y-41838523D01*
X118840309Y-41933761D01*
X118697452Y-41981380D01*
X118602214Y-41981380D01*
X119411738Y-41076619D02*
X119459357Y-41029000D01*
X119554595Y-40981380D01*
X119792690Y-40981380D01*
X119887928Y-41029000D01*
X119935547Y-41076619D01*
X119983166Y-41171857D01*
X119983166Y-41267095D01*
X119935547Y-41409952D01*
X119364119Y-41981380D01*
X119983166Y-41981380D01*
X124873261Y-39282666D02*
X125349452Y-39282666D01*
X124778023Y-39568380D02*
X125111357Y-38568380D01*
X125444690Y-39568380D01*
X125635166Y-38568380D02*
X125968500Y-39568380D01*
X126301833Y-38568380D01*
X127206595Y-39568380D02*
X126873261Y-39092190D01*
X126635166Y-39568380D02*
X126635166Y-38568380D01*
X127016119Y-38568380D01*
X127111357Y-38616000D01*
X127158976Y-38663619D01*
X127206595Y-38758857D01*
X127206595Y-38901714D01*
X127158976Y-38996952D01*
X127111357Y-39044571D01*
X127016119Y-39092190D01*
X126635166Y-39092190D01*
X127635166Y-39187428D02*
X128397071Y-39187428D01*
X128873261Y-39568380D02*
X128873261Y-38568380D01*
X129301833Y-39520761D02*
X129444690Y-39568380D01*
X129682785Y-39568380D01*
X129778023Y-39520761D01*
X129825642Y-39473142D01*
X129873261Y-39377904D01*
X129873261Y-39282666D01*
X129825642Y-39187428D01*
X129778023Y-39139809D01*
X129682785Y-39092190D01*
X129492309Y-39044571D01*
X129397071Y-38996952D01*
X129349452Y-38949333D01*
X129301833Y-38854095D01*
X129301833Y-38758857D01*
X129349452Y-38663619D01*
X129397071Y-38616000D01*
X129492309Y-38568380D01*
X129730404Y-38568380D01*
X129873261Y-38616000D01*
X130301833Y-39568380D02*
X130301833Y-38568380D01*
X130682785Y-38568380D01*
X130778023Y-38616000D01*
X130825642Y-38663619D01*
X130873261Y-38758857D01*
X130873261Y-38901714D01*
X130825642Y-38996952D01*
X130778023Y-39044571D01*
X130682785Y-39092190D01*
X130301833Y-39092190D01*
X131301833Y-39187428D02*
X132063738Y-39187428D01*
X132968500Y-38568380D02*
X132778023Y-38568380D01*
X132682785Y-38616000D01*
X132635166Y-38663619D01*
X132539928Y-38806476D01*
X132492309Y-38996952D01*
X132492309Y-39377904D01*
X132539928Y-39473142D01*
X132587547Y-39520761D01*
X132682785Y-39568380D01*
X132873261Y-39568380D01*
X132968500Y-39520761D01*
X133016119Y-39473142D01*
X133063738Y-39377904D01*
X133063738Y-39139809D01*
X133016119Y-39044571D01*
X132968500Y-38996952D01*
X132873261Y-38949333D01*
X132682785Y-38949333D01*
X132587547Y-38996952D01*
X132539928Y-39044571D01*
X132492309Y-39139809D01*
%TO.C,R5*%
X300315333Y-114244380D02*
X299982000Y-113768190D01*
X299743904Y-114244380D02*
X299743904Y-113244380D01*
X300124857Y-113244380D01*
X300220095Y-113292000D01*
X300267714Y-113339619D01*
X300315333Y-113434857D01*
X300315333Y-113577714D01*
X300267714Y-113672952D01*
X300220095Y-113720571D01*
X300124857Y-113768190D01*
X299743904Y-113768190D01*
X301220095Y-113244380D02*
X300743904Y-113244380D01*
X300696285Y-113720571D01*
X300743904Y-113672952D01*
X300839142Y-113625333D01*
X301077238Y-113625333D01*
X301172476Y-113672952D01*
X301220095Y-113720571D01*
X301267714Y-113815809D01*
X301267714Y-114053904D01*
X301220095Y-114149142D01*
X301172476Y-114196761D01*
X301077238Y-114244380D01*
X300839142Y-114244380D01*
X300743904Y-114196761D01*
X300696285Y-114149142D01*
%TO.C,D1*%
X13766905Y-40474381D02*
X13766905Y-39474381D01*
X14005001Y-39474381D01*
X14147858Y-39522001D01*
X14243096Y-39617239D01*
X14290715Y-39712477D01*
X14338334Y-39902953D01*
X14338334Y-40045810D01*
X14290715Y-40236286D01*
X14243096Y-40331524D01*
X14147858Y-40426762D01*
X14005001Y-40474381D01*
X13766905Y-40474381D01*
X15290715Y-40474381D02*
X14719286Y-40474381D01*
X15005001Y-40474381D02*
X15005001Y-39474381D01*
X14909762Y-39617239D01*
X14814524Y-39712477D01*
X14719286Y-39760096D01*
%TO.C,R9*%
X27757380Y-126023666D02*
X27281190Y-126357000D01*
X27757380Y-126595095D02*
X26757380Y-126595095D01*
X26757380Y-126214142D01*
X26805000Y-126118904D01*
X26852619Y-126071285D01*
X26947857Y-126023666D01*
X27090714Y-126023666D01*
X27185952Y-126071285D01*
X27233571Y-126118904D01*
X27281190Y-126214142D01*
X27281190Y-126595095D01*
X27757380Y-125547476D02*
X27757380Y-125357000D01*
X27709761Y-125261761D01*
X27662142Y-125214142D01*
X27519285Y-125118904D01*
X27328809Y-125071285D01*
X26947857Y-125071285D01*
X26852619Y-125118904D01*
X26805000Y-125166523D01*
X26757380Y-125261761D01*
X26757380Y-125452238D01*
X26805000Y-125547476D01*
X26852619Y-125595095D01*
X26947857Y-125642714D01*
X27185952Y-125642714D01*
X27281190Y-125595095D01*
X27328809Y-125547476D01*
X27376428Y-125452238D01*
X27376428Y-125261761D01*
X27328809Y-125166523D01*
X27281190Y-125118904D01*
X27185952Y-125071285D01*
%TO.C,R8*%
X25852380Y-126023666D02*
X25376190Y-126357000D01*
X25852380Y-126595095D02*
X24852380Y-126595095D01*
X24852380Y-126214142D01*
X24900000Y-126118904D01*
X24947619Y-126071285D01*
X25042857Y-126023666D01*
X25185714Y-126023666D01*
X25280952Y-126071285D01*
X25328571Y-126118904D01*
X25376190Y-126214142D01*
X25376190Y-126595095D01*
X25280952Y-125452238D02*
X25233333Y-125547476D01*
X25185714Y-125595095D01*
X25090476Y-125642714D01*
X25042857Y-125642714D01*
X24947619Y-125595095D01*
X24900000Y-125547476D01*
X24852380Y-125452238D01*
X24852380Y-125261761D01*
X24900000Y-125166523D01*
X24947619Y-125118904D01*
X25042857Y-125071285D01*
X25090476Y-125071285D01*
X25185714Y-125118904D01*
X25233333Y-125166523D01*
X25280952Y-125261761D01*
X25280952Y-125452238D01*
X25328571Y-125547476D01*
X25376190Y-125595095D01*
X25471428Y-125642714D01*
X25661904Y-125642714D01*
X25757142Y-125595095D01*
X25804761Y-125547476D01*
X25852380Y-125452238D01*
X25852380Y-125261761D01*
X25804761Y-125166523D01*
X25757142Y-125118904D01*
X25661904Y-125071285D01*
X25471428Y-125071285D01*
X25376190Y-125118904D01*
X25328571Y-125166523D01*
X25280952Y-125261761D01*
%TO.C,SW9*%
X95811999Y-105052761D02*
X95954856Y-105100380D01*
X96192952Y-105100380D01*
X96288190Y-105052761D01*
X96335809Y-105005142D01*
X96383428Y-104909904D01*
X96383428Y-104814666D01*
X96335809Y-104719428D01*
X96288190Y-104671809D01*
X96192952Y-104624190D01*
X96002475Y-104576571D01*
X95907237Y-104528952D01*
X95859618Y-104481333D01*
X95811999Y-104386095D01*
X95811999Y-104290857D01*
X95859618Y-104195619D01*
X95907237Y-104148000D01*
X96002475Y-104100380D01*
X96240571Y-104100380D01*
X96383428Y-104148000D01*
X96716761Y-104100380D02*
X96954856Y-105100380D01*
X97145333Y-104386095D01*
X97335809Y-105100380D01*
X97573904Y-104100380D01*
X98002475Y-105100380D02*
X98192952Y-105100380D01*
X98288190Y-105052761D01*
X98335809Y-105005142D01*
X98431047Y-104862285D01*
X98478666Y-104671809D01*
X98478666Y-104290857D01*
X98431047Y-104195619D01*
X98383428Y-104148000D01*
X98288190Y-104100380D01*
X98097713Y-104100380D01*
X98002475Y-104148000D01*
X97954856Y-104195619D01*
X97907237Y-104290857D01*
X97907237Y-104528952D01*
X97954856Y-104624190D01*
X98002475Y-104671809D01*
X98097713Y-104719428D01*
X98288190Y-104719428D01*
X98383428Y-104671809D01*
X98431047Y-104624190D01*
X98478666Y-104528952D01*
X97311999Y-108990571D02*
X96978666Y-108990571D01*
X96978666Y-109514380D02*
X96978666Y-108514380D01*
X97454856Y-108514380D01*
X98359618Y-109514380D02*
X97788190Y-109514380D01*
X98073904Y-109514380D02*
X98073904Y-108514380D01*
X97978666Y-108657238D01*
X97883428Y-108752476D01*
X97788190Y-108800095D01*
%TO.C,J1*%
X15414666Y-56558380D02*
X15414666Y-57272666D01*
X15367047Y-57415523D01*
X15271809Y-57510761D01*
X15128952Y-57558380D01*
X15033714Y-57558380D01*
X16414666Y-57558380D02*
X15843238Y-57558380D01*
X16128952Y-57558380D02*
X16128952Y-56558380D01*
X16033714Y-56701238D01*
X15938476Y-56796476D01*
X15843238Y-56844095D01*
%TO.C,C3*%
X132230833Y-51792142D02*
X132183214Y-51839761D01*
X132040357Y-51887380D01*
X131945119Y-51887380D01*
X131802261Y-51839761D01*
X131707023Y-51744523D01*
X131659404Y-51649285D01*
X131611785Y-51458809D01*
X131611785Y-51315952D01*
X131659404Y-51125476D01*
X131707023Y-51030238D01*
X131802261Y-50935000D01*
X131945119Y-50887380D01*
X132040357Y-50887380D01*
X132183214Y-50935000D01*
X132230833Y-50982619D01*
X132564166Y-50887380D02*
X133183214Y-50887380D01*
X132849880Y-51268333D01*
X132992738Y-51268333D01*
X133087976Y-51315952D01*
X133135595Y-51363571D01*
X133183214Y-51458809D01*
X133183214Y-51696904D01*
X133135595Y-51792142D01*
X133087976Y-51839761D01*
X132992738Y-51887380D01*
X132707023Y-51887380D01*
X132611785Y-51839761D01*
X132564166Y-51792142D01*
%TO.C,C5*%
X25995333Y-76413142D02*
X25947714Y-76460761D01*
X25804857Y-76508380D01*
X25709619Y-76508380D01*
X25566761Y-76460761D01*
X25471523Y-76365523D01*
X25423904Y-76270285D01*
X25376285Y-76079809D01*
X25376285Y-75936952D01*
X25423904Y-75746476D01*
X25471523Y-75651238D01*
X25566761Y-75556000D01*
X25709619Y-75508380D01*
X25804857Y-75508380D01*
X25947714Y-75556000D01*
X25995333Y-75603619D01*
X26900095Y-75508380D02*
X26423904Y-75508380D01*
X26376285Y-75984571D01*
X26423904Y-75936952D01*
X26519142Y-75889333D01*
X26757238Y-75889333D01*
X26852476Y-75936952D01*
X26900095Y-75984571D01*
X26947714Y-76079809D01*
X26947714Y-76317904D01*
X26900095Y-76413142D01*
X26852476Y-76460761D01*
X26757238Y-76508380D01*
X26519142Y-76508380D01*
X26423904Y-76460761D01*
X26376285Y-76413142D01*
%TO.C,C7*%
X20550142Y-109386666D02*
X20597761Y-109434285D01*
X20645380Y-109577142D01*
X20645380Y-109672380D01*
X20597761Y-109815238D01*
X20502523Y-109910476D01*
X20407285Y-109958095D01*
X20216809Y-110005714D01*
X20073952Y-110005714D01*
X19883476Y-109958095D01*
X19788238Y-109910476D01*
X19693000Y-109815238D01*
X19645380Y-109672380D01*
X19645380Y-109577142D01*
X19693000Y-109434285D01*
X19740619Y-109386666D01*
X19645380Y-109053333D02*
X19645380Y-108386666D01*
X20645380Y-108815238D01*
%TO.C,IC1*%
D15*
X109250238Y-70424523D02*
X109250238Y-69154523D01*
X110580714Y-70303571D02*
X110520238Y-70364047D01*
X110338809Y-70424523D01*
X110217857Y-70424523D01*
X110036428Y-70364047D01*
X109915476Y-70243095D01*
X109855000Y-70122142D01*
X109794523Y-69880238D01*
X109794523Y-69698809D01*
X109855000Y-69456904D01*
X109915476Y-69335952D01*
X110036428Y-69215000D01*
X110217857Y-69154523D01*
X110338809Y-69154523D01*
X110520238Y-69215000D01*
X110580714Y-69275476D01*
X111790238Y-70424523D02*
X111064523Y-70424523D01*
X111427380Y-70424523D02*
X111427380Y-69154523D01*
X111306428Y-69335952D01*
X111185476Y-69456904D01*
X111064523Y-69517380D01*
%TO.C,J4*%
D10*
X15795666Y-101433380D02*
X15795666Y-102147666D01*
X15748047Y-102290523D01*
X15652809Y-102385761D01*
X15509952Y-102433380D01*
X15414714Y-102433380D01*
X16700428Y-101766714D02*
X16700428Y-102433380D01*
X16462333Y-101385761D02*
X16224238Y-102100047D01*
X16843285Y-102100047D01*
%TO.C,R3*%
X336129333Y-114244380D02*
X335796000Y-113768190D01*
X335557904Y-114244380D02*
X335557904Y-113244380D01*
X335938857Y-113244380D01*
X336034095Y-113292000D01*
X336081714Y-113339619D01*
X336129333Y-113434857D01*
X336129333Y-113577714D01*
X336081714Y-113672952D01*
X336034095Y-113720571D01*
X335938857Y-113768190D01*
X335557904Y-113768190D01*
X336462666Y-113244380D02*
X337081714Y-113244380D01*
X336748380Y-113625333D01*
X336891238Y-113625333D01*
X336986476Y-113672952D01*
X337034095Y-113720571D01*
X337081714Y-113815809D01*
X337081714Y-114053904D01*
X337034095Y-114149142D01*
X336986476Y-114196761D01*
X336891238Y-114244380D01*
X336605523Y-114244380D01*
X336510285Y-114196761D01*
X336462666Y-114149142D01*
%TO.C,R6*%
X25360333Y-106116380D02*
X25027000Y-105640190D01*
X24788904Y-106116380D02*
X24788904Y-105116380D01*
X25169857Y-105116380D01*
X25265095Y-105164000D01*
X25312714Y-105211619D01*
X25360333Y-105306857D01*
X25360333Y-105449714D01*
X25312714Y-105544952D01*
X25265095Y-105592571D01*
X25169857Y-105640190D01*
X24788904Y-105640190D01*
X26217476Y-105116380D02*
X26027000Y-105116380D01*
X25931761Y-105164000D01*
X25884142Y-105211619D01*
X25788904Y-105354476D01*
X25741285Y-105544952D01*
X25741285Y-105925904D01*
X25788904Y-106021142D01*
X25836523Y-106068761D01*
X25931761Y-106116380D01*
X26122238Y-106116380D01*
X26217476Y-106068761D01*
X26265095Y-106021142D01*
X26312714Y-105925904D01*
X26312714Y-105687809D01*
X26265095Y-105592571D01*
X26217476Y-105544952D01*
X26122238Y-105497333D01*
X25931761Y-105497333D01*
X25836523Y-105544952D01*
X25788904Y-105592571D01*
X25741285Y-105687809D01*
%TO.C,C4*%
X132230833Y-54078142D02*
X132183214Y-54125761D01*
X132040357Y-54173380D01*
X131945119Y-54173380D01*
X131802261Y-54125761D01*
X131707023Y-54030523D01*
X131659404Y-53935285D01*
X131611785Y-53744809D01*
X131611785Y-53601952D01*
X131659404Y-53411476D01*
X131707023Y-53316238D01*
X131802261Y-53221000D01*
X131945119Y-53173380D01*
X132040357Y-53173380D01*
X132183214Y-53221000D01*
X132230833Y-53268619D01*
X133087976Y-53506714D02*
X133087976Y-54173380D01*
X132849880Y-53125761D02*
X132611785Y-53840047D01*
X133230833Y-53840047D01*
%TO.C,R10*%
X24328380Y-94495857D02*
X23852190Y-94829190D01*
X24328380Y-95067285D02*
X23328380Y-95067285D01*
X23328380Y-94686333D01*
X23376000Y-94591095D01*
X23423619Y-94543476D01*
X23518857Y-94495857D01*
X23661714Y-94495857D01*
X23756952Y-94543476D01*
X23804571Y-94591095D01*
X23852190Y-94686333D01*
X23852190Y-95067285D01*
X24328380Y-93543476D02*
X24328380Y-94114904D01*
X24328380Y-93829190D02*
X23328380Y-93829190D01*
X23471238Y-93924428D01*
X23566476Y-94019666D01*
X23614095Y-94114904D01*
X23328380Y-92924428D02*
X23328380Y-92829190D01*
X23376000Y-92733952D01*
X23423619Y-92686333D01*
X23518857Y-92638714D01*
X23709333Y-92591095D01*
X23947428Y-92591095D01*
X24137904Y-92638714D01*
X24233142Y-92686333D01*
X24280761Y-92733952D01*
X24328380Y-92829190D01*
X24328380Y-92924428D01*
X24280761Y-93019666D01*
X24233142Y-93067285D01*
X24137904Y-93114904D01*
X23947428Y-93162523D01*
X23709333Y-93162523D01*
X23518857Y-93114904D01*
X23423619Y-93067285D01*
X23376000Y-93019666D01*
X23328380Y-92924428D01*
%TO.C,R4*%
X300315333Y-116276380D02*
X299982000Y-115800190D01*
X299743904Y-116276380D02*
X299743904Y-115276380D01*
X300124857Y-115276380D01*
X300220095Y-115324000D01*
X300267714Y-115371619D01*
X300315333Y-115466857D01*
X300315333Y-115609714D01*
X300267714Y-115704952D01*
X300220095Y-115752571D01*
X300124857Y-115800190D01*
X299743904Y-115800190D01*
X301172476Y-115609714D02*
X301172476Y-116276380D01*
X300934380Y-115228761D02*
X300696285Y-115943047D01*
X301315333Y-115943047D01*
%TO.C,C8*%
X35647333Y-114530142D02*
X35599714Y-114577761D01*
X35456857Y-114625380D01*
X35361619Y-114625380D01*
X35218761Y-114577761D01*
X35123523Y-114482523D01*
X35075904Y-114387285D01*
X35028285Y-114196809D01*
X35028285Y-114053952D01*
X35075904Y-113863476D01*
X35123523Y-113768238D01*
X35218761Y-113673000D01*
X35361619Y-113625380D01*
X35456857Y-113625380D01*
X35599714Y-113673000D01*
X35647333Y-113720619D01*
X36218761Y-114053952D02*
X36123523Y-114006333D01*
X36075904Y-113958714D01*
X36028285Y-113863476D01*
X36028285Y-113815857D01*
X36075904Y-113720619D01*
X36123523Y-113673000D01*
X36218761Y-113625380D01*
X36409238Y-113625380D01*
X36504476Y-113673000D01*
X36552095Y-113720619D01*
X36599714Y-113815857D01*
X36599714Y-113863476D01*
X36552095Y-113958714D01*
X36504476Y-114006333D01*
X36409238Y-114053952D01*
X36218761Y-114053952D01*
X36123523Y-114101571D01*
X36075904Y-114149190D01*
X36028285Y-114244428D01*
X36028285Y-114434904D01*
X36075904Y-114530142D01*
X36123523Y-114577761D01*
X36218761Y-114625380D01*
X36409238Y-114625380D01*
X36504476Y-114577761D01*
X36552095Y-114530142D01*
X36599714Y-114434904D01*
X36599714Y-114244428D01*
X36552095Y-114149190D01*
X36504476Y-114101571D01*
X36409238Y-114053952D01*
%TO.C,SW8*%
X299858666Y-74318761D02*
X300001523Y-74366380D01*
X300239619Y-74366380D01*
X300334857Y-74318761D01*
X300382476Y-74271142D01*
X300430095Y-74175904D01*
X300430095Y-74080666D01*
X300382476Y-73985428D01*
X300334857Y-73937809D01*
X300239619Y-73890190D01*
X300049142Y-73842571D01*
X299953904Y-73794952D01*
X299906285Y-73747333D01*
X299858666Y-73652095D01*
X299858666Y-73556857D01*
X299906285Y-73461619D01*
X299953904Y-73414000D01*
X300049142Y-73366380D01*
X300287238Y-73366380D01*
X300430095Y-73414000D01*
X300763428Y-73366380D02*
X301001523Y-74366380D01*
X301192000Y-73652095D01*
X301382476Y-74366380D01*
X301620571Y-73366380D01*
X302144380Y-73794952D02*
X302049142Y-73747333D01*
X302001523Y-73699714D01*
X301953904Y-73604476D01*
X301953904Y-73556857D01*
X302001523Y-73461619D01*
X302049142Y-73414000D01*
X302144380Y-73366380D01*
X302334857Y-73366380D01*
X302430095Y-73414000D01*
X302477714Y-73461619D01*
X302525333Y-73556857D01*
X302525333Y-73604476D01*
X302477714Y-73699714D01*
X302430095Y-73747333D01*
X302334857Y-73794952D01*
X302144380Y-73794952D01*
X302049142Y-73842571D01*
X302001523Y-73890190D01*
X301953904Y-73985428D01*
X301953904Y-74175904D01*
X302001523Y-74271142D01*
X302049142Y-74318761D01*
X302144380Y-74366380D01*
X302334857Y-74366380D01*
X302430095Y-74318761D01*
X302477714Y-74271142D01*
X302525333Y-74175904D01*
X302525333Y-73985428D01*
X302477714Y-73890190D01*
X302430095Y-73842571D01*
X302334857Y-73794952D01*
X296549142Y-78780380D02*
X296549142Y-77780380D01*
X296930095Y-77780380D01*
X297025333Y-77828000D01*
X297072952Y-77875619D01*
X297120571Y-77970857D01*
X297120571Y-78113714D01*
X297072952Y-78208952D01*
X297025333Y-78256571D01*
X296930095Y-78304190D01*
X296549142Y-78304190D01*
X297977714Y-78780380D02*
X297977714Y-78256571D01*
X297930095Y-78161333D01*
X297834857Y-78113714D01*
X297644380Y-78113714D01*
X297549142Y-78161333D01*
X297977714Y-78732761D02*
X297882476Y-78780380D01*
X297644380Y-78780380D01*
X297549142Y-78732761D01*
X297501523Y-78637523D01*
X297501523Y-78542285D01*
X297549142Y-78447047D01*
X297644380Y-78399428D01*
X297882476Y-78399428D01*
X297977714Y-78351809D01*
X298882476Y-78113714D02*
X298882476Y-78923238D01*
X298834857Y-79018476D01*
X298787238Y-79066095D01*
X298692000Y-79113714D01*
X298549142Y-79113714D01*
X298453904Y-79066095D01*
X298882476Y-78732761D02*
X298787238Y-78780380D01*
X298596761Y-78780380D01*
X298501523Y-78732761D01*
X298453904Y-78685142D01*
X298406285Y-78589904D01*
X298406285Y-78304190D01*
X298453904Y-78208952D01*
X298501523Y-78161333D01*
X298596761Y-78113714D01*
X298787238Y-78113714D01*
X298882476Y-78161333D01*
X299739619Y-78732761D02*
X299644380Y-78780380D01*
X299453904Y-78780380D01*
X299358666Y-78732761D01*
X299311047Y-78637523D01*
X299311047Y-78256571D01*
X299358666Y-78161333D01*
X299453904Y-78113714D01*
X299644380Y-78113714D01*
X299739619Y-78161333D01*
X299787238Y-78256571D01*
X299787238Y-78351809D01*
X299311047Y-78447047D01*
X300977714Y-78780380D02*
X300977714Y-77780380D01*
X301358666Y-77780380D01*
X301453904Y-77828000D01*
X301501523Y-77875619D01*
X301549142Y-77970857D01*
X301549142Y-78113714D01*
X301501523Y-78208952D01*
X301453904Y-78256571D01*
X301358666Y-78304190D01*
X300977714Y-78304190D01*
X301977714Y-78780380D02*
X301977714Y-78113714D01*
X301977714Y-78304190D02*
X302025333Y-78208952D01*
X302072952Y-78161333D01*
X302168190Y-78113714D01*
X302263428Y-78113714D01*
X302977714Y-78732761D02*
X302882476Y-78780380D01*
X302692000Y-78780380D01*
X302596761Y-78732761D01*
X302549142Y-78637523D01*
X302549142Y-78256571D01*
X302596761Y-78161333D01*
X302692000Y-78113714D01*
X302882476Y-78113714D01*
X302977714Y-78161333D01*
X303025333Y-78256571D01*
X303025333Y-78351809D01*
X302549142Y-78447047D01*
X303358666Y-78113714D02*
X303596761Y-78780380D01*
X303834857Y-78113714D01*
X304215809Y-78780380D02*
X304215809Y-78113714D01*
X304215809Y-77780380D02*
X304168190Y-77828000D01*
X304215809Y-77875619D01*
X304263428Y-77828000D01*
X304215809Y-77780380D01*
X304215809Y-77875619D01*
X304834857Y-78780380D02*
X304739619Y-78732761D01*
X304692000Y-78685142D01*
X304644380Y-78589904D01*
X304644380Y-78304190D01*
X304692000Y-78208952D01*
X304739619Y-78161333D01*
X304834857Y-78113714D01*
X304977714Y-78113714D01*
X305072952Y-78161333D01*
X305120571Y-78208952D01*
X305168190Y-78304190D01*
X305168190Y-78589904D01*
X305120571Y-78685142D01*
X305072952Y-78732761D01*
X304977714Y-78780380D01*
X304834857Y-78780380D01*
X306025333Y-78113714D02*
X306025333Y-78780380D01*
X305596761Y-78113714D02*
X305596761Y-78637523D01*
X305644380Y-78732761D01*
X305739619Y-78780380D01*
X305882476Y-78780380D01*
X305977714Y-78732761D01*
X306025333Y-78685142D01*
X306453904Y-78732761D02*
X306549142Y-78780380D01*
X306739619Y-78780380D01*
X306834857Y-78732761D01*
X306882476Y-78637523D01*
X306882476Y-78589904D01*
X306834857Y-78494666D01*
X306739619Y-78447047D01*
X306596761Y-78447047D01*
X306501523Y-78399428D01*
X306453904Y-78304190D01*
X306453904Y-78256571D01*
X306501523Y-78161333D01*
X306596761Y-78113714D01*
X306739619Y-78113714D01*
X306834857Y-78161333D01*
%TO.C,R12*%
X17645142Y-40458380D02*
X17311809Y-39982190D01*
X17073714Y-40458380D02*
X17073714Y-39458380D01*
X17454666Y-39458380D01*
X17549904Y-39506000D01*
X17597523Y-39553619D01*
X17645142Y-39648857D01*
X17645142Y-39791714D01*
X17597523Y-39886952D01*
X17549904Y-39934571D01*
X17454666Y-39982190D01*
X17073714Y-39982190D01*
X18597523Y-40458380D02*
X18026095Y-40458380D01*
X18311809Y-40458380D02*
X18311809Y-39458380D01*
X18216571Y-39601238D01*
X18121333Y-39696476D01*
X18026095Y-39744095D01*
X18978476Y-39553619D02*
X19026095Y-39506000D01*
X19121333Y-39458380D01*
X19359428Y-39458380D01*
X19454666Y-39506000D01*
X19502285Y-39553619D01*
X19549904Y-39648857D01*
X19549904Y-39744095D01*
X19502285Y-39886952D01*
X18930857Y-40458380D01*
X19549904Y-40458380D01*
%TO.C,C2*%
X113625333Y-66143142D02*
X113577714Y-66190761D01*
X113434857Y-66238380D01*
X113339619Y-66238380D01*
X113196761Y-66190761D01*
X113101523Y-66095523D01*
X113053904Y-66000285D01*
X113006285Y-65809809D01*
X113006285Y-65666952D01*
X113053904Y-65476476D01*
X113101523Y-65381238D01*
X113196761Y-65286000D01*
X113339619Y-65238380D01*
X113434857Y-65238380D01*
X113577714Y-65286000D01*
X113625333Y-65333619D01*
X114006285Y-65333619D02*
X114053904Y-65286000D01*
X114149142Y-65238380D01*
X114387238Y-65238380D01*
X114482476Y-65286000D01*
X114530095Y-65333619D01*
X114577714Y-65428857D01*
X114577714Y-65524095D01*
X114530095Y-65666952D01*
X113958666Y-66238380D01*
X114577714Y-66238380D01*
%TO.C,SW4*%
X58304666Y-63777761D02*
X58447523Y-63825380D01*
X58685619Y-63825380D01*
X58780857Y-63777761D01*
X58828476Y-63730142D01*
X58876095Y-63634904D01*
X58876095Y-63539666D01*
X58828476Y-63444428D01*
X58780857Y-63396809D01*
X58685619Y-63349190D01*
X58495142Y-63301571D01*
X58399904Y-63253952D01*
X58352285Y-63206333D01*
X58304666Y-63111095D01*
X58304666Y-63015857D01*
X58352285Y-62920619D01*
X58399904Y-62873000D01*
X58495142Y-62825380D01*
X58733238Y-62825380D01*
X58876095Y-62873000D01*
X59209428Y-62825380D02*
X59447523Y-63825380D01*
X59638000Y-63111095D01*
X59828476Y-63825380D01*
X60066571Y-62825380D01*
X60876095Y-63158714D02*
X60876095Y-63825380D01*
X60638000Y-62777761D02*
X60399904Y-63492047D01*
X61018952Y-63492047D01*
X58161809Y-67112380D02*
X58161809Y-67921904D01*
X58209428Y-68017142D01*
X58257047Y-68064761D01*
X58352285Y-68112380D01*
X58542761Y-68112380D01*
X58638000Y-68064761D01*
X58685619Y-68017142D01*
X58733238Y-67921904D01*
X58733238Y-67112380D01*
X59066571Y-67445714D02*
X59447523Y-67445714D01*
X59209428Y-67112380D02*
X59209428Y-67969523D01*
X59257047Y-68064761D01*
X59352285Y-68112380D01*
X59447523Y-68112380D01*
X59780857Y-68112380D02*
X59780857Y-67445714D01*
X59780857Y-67112380D02*
X59733238Y-67160000D01*
X59780857Y-67207619D01*
X59828476Y-67160000D01*
X59780857Y-67112380D01*
X59780857Y-67207619D01*
X60399904Y-68112380D02*
X60304666Y-68064761D01*
X60257047Y-67969523D01*
X60257047Y-67112380D01*
X60780857Y-68112380D02*
X60780857Y-67445714D01*
X60780857Y-67112380D02*
X60733238Y-67160000D01*
X60780857Y-67207619D01*
X60828476Y-67160000D01*
X60780857Y-67112380D01*
X60780857Y-67207619D01*
X61114190Y-67445714D02*
X61495142Y-67445714D01*
X61257047Y-67112380D02*
X61257047Y-67969523D01*
X61304666Y-68064761D01*
X61399904Y-68112380D01*
X61495142Y-68112380D01*
X61733238Y-67445714D02*
X61971333Y-68112380D01*
X62209428Y-67445714D02*
X61971333Y-68112380D01*
X61876095Y-68350476D01*
X61828476Y-68398095D01*
X61733238Y-68445714D01*
%TO.C,J3*%
X71802666Y-88142380D02*
X71802666Y-88856666D01*
X71755047Y-88999523D01*
X71659809Y-89094761D01*
X71516952Y-89142380D01*
X71421714Y-89142380D01*
X72183619Y-88142380D02*
X72802666Y-88142380D01*
X72469333Y-88523333D01*
X72612190Y-88523333D01*
X72707428Y-88570952D01*
X72755047Y-88618571D01*
X72802666Y-88713809D01*
X72802666Y-88951904D01*
X72755047Y-89047142D01*
X72707428Y-89094761D01*
X72612190Y-89142380D01*
X72326476Y-89142380D01*
X72231238Y-89094761D01*
X72183619Y-89047142D01*
X68469333Y-58558571D02*
X68802666Y-58558571D01*
X68945523Y-59082380D02*
X68469333Y-59082380D01*
X68469333Y-58082380D01*
X68945523Y-58082380D01*
X69945523Y-59082380D02*
X69612190Y-58606190D01*
X69374095Y-59082380D02*
X69374095Y-58082380D01*
X69755047Y-58082380D01*
X69850285Y-58130000D01*
X69897904Y-58177619D01*
X69945523Y-58272857D01*
X69945523Y-58415714D01*
X69897904Y-58510952D01*
X69850285Y-58558571D01*
X69755047Y-58606190D01*
X69374095Y-58606190D01*
X70374095Y-59082380D02*
X70374095Y-58082380D01*
X70707428Y-58796666D01*
X71040761Y-58082380D01*
X71040761Y-59082380D01*
X71469333Y-58177619D02*
X71516952Y-58130000D01*
X71612190Y-58082380D01*
X71850285Y-58082380D01*
X71945523Y-58130000D01*
X71993142Y-58177619D01*
X72040761Y-58272857D01*
X72040761Y-58368095D01*
X71993142Y-58510952D01*
X71421714Y-59082380D01*
X72040761Y-59082380D01*
X72897904Y-58415714D02*
X72897904Y-59082380D01*
X72659809Y-58034761D02*
X72421714Y-58749047D01*
X73040761Y-58749047D01*
X73612190Y-58082380D02*
X73707428Y-58082380D01*
X73802666Y-58130000D01*
X73850285Y-58177619D01*
X73897904Y-58272857D01*
X73945523Y-58463333D01*
X73945523Y-58701428D01*
X73897904Y-58891904D01*
X73850285Y-58987142D01*
X73802666Y-59034761D01*
X73707428Y-59082380D01*
X73612190Y-59082380D01*
X73516952Y-59034761D01*
X73469333Y-58987142D01*
X73421714Y-58891904D01*
X73374095Y-58701428D01*
X73374095Y-58463333D01*
X73421714Y-58272857D01*
X73469333Y-58177619D01*
X73516952Y-58130000D01*
X73612190Y-58082380D01*
X74802666Y-58082380D02*
X74612190Y-58082380D01*
X74516952Y-58130000D01*
X74469333Y-58177619D01*
X74374095Y-58320476D01*
X74326476Y-58510952D01*
X74326476Y-58891904D01*
X74374095Y-58987142D01*
X74421714Y-59034761D01*
X74516952Y-59082380D01*
X74707428Y-59082380D01*
X74802666Y-59034761D01*
X74850285Y-58987142D01*
X74897904Y-58891904D01*
X74897904Y-58653809D01*
X74850285Y-58558571D01*
X74802666Y-58510952D01*
X74707428Y-58463333D01*
X74516952Y-58463333D01*
X74421714Y-58510952D01*
X74374095Y-58558571D01*
X74326476Y-58653809D01*
X75755047Y-58415714D02*
X75755047Y-59082380D01*
X75516952Y-58034761D02*
X75278857Y-58749047D01*
X75897904Y-58749047D01*
%TO.C,R1*%
X27376380Y-47283666D02*
X26900190Y-47617000D01*
X27376380Y-47855095D02*
X26376380Y-47855095D01*
X26376380Y-47474142D01*
X26424000Y-47378904D01*
X26471619Y-47331285D01*
X26566857Y-47283666D01*
X26709714Y-47283666D01*
X26804952Y-47331285D01*
X26852571Y-47378904D01*
X26900190Y-47474142D01*
X26900190Y-47855095D01*
X27376380Y-46331285D02*
X27376380Y-46902714D01*
X27376380Y-46617000D02*
X26376380Y-46617000D01*
X26519238Y-46712238D01*
X26614476Y-46807476D01*
X26662095Y-46902714D01*
%TO.C,SW2*%
X79640666Y-105052761D02*
X79783523Y-105100380D01*
X80021619Y-105100380D01*
X80116857Y-105052761D01*
X80164476Y-105005142D01*
X80212095Y-104909904D01*
X80212095Y-104814666D01*
X80164476Y-104719428D01*
X80116857Y-104671809D01*
X80021619Y-104624190D01*
X79831142Y-104576571D01*
X79735904Y-104528952D01*
X79688285Y-104481333D01*
X79640666Y-104386095D01*
X79640666Y-104290857D01*
X79688285Y-104195619D01*
X79735904Y-104148000D01*
X79831142Y-104100380D01*
X80069238Y-104100380D01*
X80212095Y-104148000D01*
X80545428Y-104100380D02*
X80783523Y-105100380D01*
X80974000Y-104386095D01*
X81164476Y-105100380D01*
X81402571Y-104100380D01*
X81735904Y-104195619D02*
X81783523Y-104148000D01*
X81878761Y-104100380D01*
X82116857Y-104100380D01*
X82212095Y-104148000D01*
X82259714Y-104195619D01*
X82307333Y-104290857D01*
X82307333Y-104386095D01*
X82259714Y-104528952D01*
X81688285Y-105100380D01*
X82307333Y-105100380D01*
X79926380Y-109466761D02*
X80069238Y-109514380D01*
X80307333Y-109514380D01*
X80402571Y-109466761D01*
X80450190Y-109419142D01*
X80497809Y-109323904D01*
X80497809Y-109228666D01*
X80450190Y-109133428D01*
X80402571Y-109085809D01*
X80307333Y-109038190D01*
X80116857Y-108990571D01*
X80021619Y-108942952D01*
X79974000Y-108895333D01*
X79926380Y-108800095D01*
X79926380Y-108704857D01*
X79974000Y-108609619D01*
X80021619Y-108562000D01*
X80116857Y-108514380D01*
X80354952Y-108514380D01*
X80497809Y-108562000D01*
X80926380Y-109514380D02*
X80926380Y-108514380D01*
X81354952Y-109514380D02*
X81354952Y-108990571D01*
X81307333Y-108895333D01*
X81212095Y-108847714D01*
X81069238Y-108847714D01*
X80974000Y-108895333D01*
X80926380Y-108942952D01*
X81831142Y-109514380D02*
X81831142Y-108847714D01*
X81831142Y-108514380D02*
X81783523Y-108562000D01*
X81831142Y-108609619D01*
X81878761Y-108562000D01*
X81831142Y-108514380D01*
X81831142Y-108609619D01*
X82164476Y-108847714D02*
X82545428Y-108847714D01*
X82307333Y-109514380D02*
X82307333Y-108657238D01*
X82354952Y-108562000D01*
X82450190Y-108514380D01*
X82545428Y-108514380D01*
X82735904Y-108847714D02*
X83116857Y-108847714D01*
X82878761Y-108514380D02*
X82878761Y-109371523D01*
X82926380Y-109466761D01*
X83021619Y-109514380D01*
X83116857Y-109514380D01*
%TO.C,R2*%
X336129333Y-116276380D02*
X335796000Y-115800190D01*
X335557904Y-116276380D02*
X335557904Y-115276380D01*
X335938857Y-115276380D01*
X336034095Y-115324000D01*
X336081714Y-115371619D01*
X336129333Y-115466857D01*
X336129333Y-115609714D01*
X336081714Y-115704952D01*
X336034095Y-115752571D01*
X335938857Y-115800190D01*
X335557904Y-115800190D01*
X336510285Y-115371619D02*
X336557904Y-115324000D01*
X336653142Y-115276380D01*
X336891238Y-115276380D01*
X336986476Y-115324000D01*
X337034095Y-115371619D01*
X337081714Y-115466857D01*
X337081714Y-115562095D01*
X337034095Y-115704952D01*
X336462666Y-116276380D01*
X337081714Y-116276380D01*
%TO.C,SW7*%
X310272666Y-83208761D02*
X310415523Y-83256380D01*
X310653619Y-83256380D01*
X310748857Y-83208761D01*
X310796476Y-83161142D01*
X310844095Y-83065904D01*
X310844095Y-82970666D01*
X310796476Y-82875428D01*
X310748857Y-82827809D01*
X310653619Y-82780190D01*
X310463142Y-82732571D01*
X310367904Y-82684952D01*
X310320285Y-82637333D01*
X310272666Y-82542095D01*
X310272666Y-82446857D01*
X310320285Y-82351619D01*
X310367904Y-82304000D01*
X310463142Y-82256380D01*
X310701238Y-82256380D01*
X310844095Y-82304000D01*
X311177428Y-82256380D02*
X311415523Y-83256380D01*
X311606000Y-82542095D01*
X311796476Y-83256380D01*
X312034571Y-82256380D01*
X312320285Y-82256380D02*
X312986952Y-82256380D01*
X312558380Y-83256380D01*
X310919904Y-86670380D02*
X310919904Y-87479904D01*
X310967523Y-87575142D01*
X311015142Y-87622761D01*
X311110380Y-87670380D01*
X311300857Y-87670380D01*
X311396095Y-87622761D01*
X311443714Y-87575142D01*
X311491333Y-87479904D01*
X311491333Y-86670380D01*
X311967523Y-87003714D02*
X311967523Y-88003714D01*
X311967523Y-87051333D02*
X312062761Y-87003714D01*
X312253238Y-87003714D01*
X312348476Y-87051333D01*
X312396095Y-87098952D01*
X312443714Y-87194190D01*
X312443714Y-87479904D01*
X312396095Y-87575142D01*
X312348476Y-87622761D01*
X312253238Y-87670380D01*
X312062761Y-87670380D01*
X311967523Y-87622761D01*
%TO.C,SW5*%
X336688666Y-83208761D02*
X336831523Y-83256380D01*
X337069619Y-83256380D01*
X337164857Y-83208761D01*
X337212476Y-83161142D01*
X337260095Y-83065904D01*
X337260095Y-82970666D01*
X337212476Y-82875428D01*
X337164857Y-82827809D01*
X337069619Y-82780190D01*
X336879142Y-82732571D01*
X336783904Y-82684952D01*
X336736285Y-82637333D01*
X336688666Y-82542095D01*
X336688666Y-82446857D01*
X336736285Y-82351619D01*
X336783904Y-82304000D01*
X336879142Y-82256380D01*
X337117238Y-82256380D01*
X337260095Y-82304000D01*
X337593428Y-82256380D02*
X337831523Y-83256380D01*
X338022000Y-82542095D01*
X338212476Y-83256380D01*
X338450571Y-82256380D01*
X339307714Y-82256380D02*
X338831523Y-82256380D01*
X338783904Y-82732571D01*
X338831523Y-82684952D01*
X338926761Y-82637333D01*
X339164857Y-82637333D01*
X339260095Y-82684952D01*
X339307714Y-82732571D01*
X339355333Y-82827809D01*
X339355333Y-83065904D01*
X339307714Y-83161142D01*
X339260095Y-83208761D01*
X339164857Y-83256380D01*
X338926761Y-83256380D01*
X338831523Y-83208761D01*
X338783904Y-83161142D01*
X338359714Y-87574380D02*
X337788285Y-87574380D01*
X338074000Y-87574380D02*
X338074000Y-86574380D01*
X337978761Y-86717238D01*
X337883523Y-86812476D01*
X337788285Y-86860095D01*
%TO.C,SW11*%
X35476476Y-73048761D02*
X35619333Y-73096380D01*
X35857428Y-73096380D01*
X35952666Y-73048761D01*
X36000285Y-73001142D01*
X36047904Y-72905904D01*
X36047904Y-72810666D01*
X36000285Y-72715428D01*
X35952666Y-72667809D01*
X35857428Y-72620190D01*
X35666952Y-72572571D01*
X35571714Y-72524952D01*
X35524095Y-72477333D01*
X35476476Y-72382095D01*
X35476476Y-72286857D01*
X35524095Y-72191619D01*
X35571714Y-72144000D01*
X35666952Y-72096380D01*
X35905047Y-72096380D01*
X36047904Y-72144000D01*
X36381238Y-72096380D02*
X36619333Y-73096380D01*
X36809809Y-72382095D01*
X37000285Y-73096380D01*
X37238380Y-72096380D01*
X38143142Y-73096380D02*
X37571714Y-73096380D01*
X37857428Y-73096380D02*
X37857428Y-72096380D01*
X37762190Y-72239238D01*
X37666952Y-72334476D01*
X37571714Y-72382095D01*
X39095523Y-73096380D02*
X38524095Y-73096380D01*
X38809809Y-73096380D02*
X38809809Y-72096380D01*
X38714571Y-72239238D01*
X38619333Y-72334476D01*
X38524095Y-72382095D01*
X32952666Y-76986571D02*
X33286000Y-76986571D01*
X33428857Y-77510380D02*
X32952666Y-77510380D01*
X32952666Y-76510380D01*
X33428857Y-76510380D01*
X34286000Y-77510380D02*
X34286000Y-76510380D01*
X34286000Y-77462761D02*
X34190761Y-77510380D01*
X34000285Y-77510380D01*
X33905047Y-77462761D01*
X33857428Y-77415142D01*
X33809809Y-77319904D01*
X33809809Y-77034190D01*
X33857428Y-76938952D01*
X33905047Y-76891333D01*
X34000285Y-76843714D01*
X34190761Y-76843714D01*
X34286000Y-76891333D01*
X34762190Y-77510380D02*
X34762190Y-76843714D01*
X34762190Y-76510380D02*
X34714571Y-76558000D01*
X34762190Y-76605619D01*
X34809809Y-76558000D01*
X34762190Y-76510380D01*
X34762190Y-76605619D01*
X35095523Y-76843714D02*
X35476476Y-76843714D01*
X35238380Y-76510380D02*
X35238380Y-77367523D01*
X35286000Y-77462761D01*
X35381238Y-77510380D01*
X35476476Y-77510380D01*
X35571714Y-77605619D02*
X36333619Y-77605619D01*
X37143142Y-77415142D02*
X37095523Y-77462761D01*
X36952666Y-77510380D01*
X36857428Y-77510380D01*
X36714571Y-77462761D01*
X36619333Y-77367523D01*
X36571714Y-77272285D01*
X36524095Y-77081809D01*
X36524095Y-76938952D01*
X36571714Y-76748476D01*
X36619333Y-76653238D01*
X36714571Y-76558000D01*
X36857428Y-76510380D01*
X36952666Y-76510380D01*
X37095523Y-76558000D01*
X37143142Y-76605619D01*
X37714571Y-77510380D02*
X37619333Y-77462761D01*
X37571714Y-77415142D01*
X37524095Y-77319904D01*
X37524095Y-77034190D01*
X37571714Y-76938952D01*
X37619333Y-76891333D01*
X37714571Y-76843714D01*
X37857428Y-76843714D01*
X37952666Y-76891333D01*
X38000285Y-76938952D01*
X38047904Y-77034190D01*
X38047904Y-77319904D01*
X38000285Y-77415142D01*
X37952666Y-77462761D01*
X37857428Y-77510380D01*
X37714571Y-77510380D01*
X38476476Y-77510380D02*
X38476476Y-76843714D01*
X38476476Y-76938952D02*
X38524095Y-76891333D01*
X38619333Y-76843714D01*
X38762190Y-76843714D01*
X38857428Y-76891333D01*
X38905047Y-76986571D01*
X38905047Y-77510380D01*
X38905047Y-76986571D02*
X38952666Y-76891333D01*
X39047904Y-76843714D01*
X39190761Y-76843714D01*
X39286000Y-76891333D01*
X39333619Y-76986571D01*
X39333619Y-77510380D01*
X39809809Y-76843714D02*
X39809809Y-77843714D01*
X39809809Y-76891333D02*
X39905047Y-76843714D01*
X40095523Y-76843714D01*
X40190761Y-76891333D01*
X40238380Y-76938952D01*
X40286000Y-77034190D01*
X40286000Y-77319904D01*
X40238380Y-77415142D01*
X40190761Y-77462761D01*
X40095523Y-77510380D01*
X39905047Y-77510380D01*
X39809809Y-77462761D01*
X41143142Y-77510380D02*
X41143142Y-76986571D01*
X41095523Y-76891333D01*
X41000285Y-76843714D01*
X40809809Y-76843714D01*
X40714571Y-76891333D01*
X41143142Y-77462761D02*
X41047904Y-77510380D01*
X40809809Y-77510380D01*
X40714571Y-77462761D01*
X40666952Y-77367523D01*
X40666952Y-77272285D01*
X40714571Y-77177047D01*
X40809809Y-77129428D01*
X41047904Y-77129428D01*
X41143142Y-77081809D01*
X41619333Y-77510380D02*
X41619333Y-76843714D01*
X41619333Y-77034190D02*
X41666952Y-76938952D01*
X41714571Y-76891333D01*
X41809809Y-76843714D01*
X41905047Y-76843714D01*
X42619333Y-77462761D02*
X42524095Y-77510380D01*
X42333619Y-77510380D01*
X42238380Y-77462761D01*
X42190761Y-77367523D01*
X42190761Y-76986571D01*
X42238380Y-76891333D01*
X42333619Y-76843714D01*
X42524095Y-76843714D01*
X42619333Y-76891333D01*
X42666952Y-76986571D01*
X42666952Y-77081809D01*
X42190761Y-77177047D01*
%TO.C,SW12*%
X346626476Y-83208761D02*
X346769333Y-83256380D01*
X347007428Y-83256380D01*
X347102666Y-83208761D01*
X347150285Y-83161142D01*
X347197904Y-83065904D01*
X347197904Y-82970666D01*
X347150285Y-82875428D01*
X347102666Y-82827809D01*
X347007428Y-82780190D01*
X346816952Y-82732571D01*
X346721714Y-82684952D01*
X346674095Y-82637333D01*
X346626476Y-82542095D01*
X346626476Y-82446857D01*
X346674095Y-82351619D01*
X346721714Y-82304000D01*
X346816952Y-82256380D01*
X347055047Y-82256380D01*
X347197904Y-82304000D01*
X347531238Y-82256380D02*
X347769333Y-83256380D01*
X347959809Y-82542095D01*
X348150285Y-83256380D01*
X348388380Y-82256380D01*
X349293142Y-83256380D02*
X348721714Y-83256380D01*
X349007428Y-83256380D02*
X349007428Y-82256380D01*
X348912190Y-82399238D01*
X348816952Y-82494476D01*
X348721714Y-82542095D01*
X349674095Y-82351619D02*
X349721714Y-82304000D01*
X349816952Y-82256380D01*
X350055047Y-82256380D01*
X350150285Y-82304000D01*
X350197904Y-82351619D01*
X350245523Y-82446857D01*
X350245523Y-82542095D01*
X350197904Y-82684952D01*
X349626476Y-83256380D01*
X350245523Y-83256380D01*
X348202285Y-86669619D02*
X348249904Y-86622000D01*
X348345142Y-86574380D01*
X348583238Y-86574380D01*
X348678476Y-86622000D01*
X348726095Y-86669619D01*
X348773714Y-86764857D01*
X348773714Y-86860095D01*
X348726095Y-87002952D01*
X348154666Y-87574380D01*
X348773714Y-87574380D01*
%TO.C,SW19*%
X357040476Y-83208761D02*
X357183333Y-83256380D01*
X357421428Y-83256380D01*
X357516666Y-83208761D01*
X357564285Y-83161142D01*
X357611904Y-83065904D01*
X357611904Y-82970666D01*
X357564285Y-82875428D01*
X357516666Y-82827809D01*
X357421428Y-82780190D01*
X357230952Y-82732571D01*
X357135714Y-82684952D01*
X357088095Y-82637333D01*
X357040476Y-82542095D01*
X357040476Y-82446857D01*
X357088095Y-82351619D01*
X357135714Y-82304000D01*
X357230952Y-82256380D01*
X357469047Y-82256380D01*
X357611904Y-82304000D01*
X357945238Y-82256380D02*
X358183333Y-83256380D01*
X358373809Y-82542095D01*
X358564285Y-83256380D01*
X358802380Y-82256380D01*
X359707142Y-83256380D02*
X359135714Y-83256380D01*
X359421428Y-83256380D02*
X359421428Y-82256380D01*
X359326190Y-82399238D01*
X359230952Y-82494476D01*
X359135714Y-82542095D01*
X360183333Y-83256380D02*
X360373809Y-83256380D01*
X360469047Y-83208761D01*
X360516666Y-83161142D01*
X360611904Y-83018285D01*
X360659523Y-82827809D01*
X360659523Y-82446857D01*
X360611904Y-82351619D01*
X360564285Y-82304000D01*
X360469047Y-82256380D01*
X360278571Y-82256380D01*
X360183333Y-82304000D01*
X360135714Y-82351619D01*
X360088095Y-82446857D01*
X360088095Y-82684952D01*
X360135714Y-82780190D01*
X360183333Y-82827809D01*
X360278571Y-82875428D01*
X360469047Y-82875428D01*
X360564285Y-82827809D01*
X360611904Y-82780190D01*
X360659523Y-82684952D01*
X358568666Y-86574380D02*
X359187714Y-86574380D01*
X358854380Y-86955333D01*
X358997238Y-86955333D01*
X359092476Y-87002952D01*
X359140095Y-87050571D01*
X359187714Y-87145809D01*
X359187714Y-87383904D01*
X359140095Y-87479142D01*
X359092476Y-87526761D01*
X358997238Y-87574380D01*
X358711523Y-87574380D01*
X358616285Y-87526761D01*
X358568666Y-87479142D01*
%TO.C,SW20*%
X357040476Y-65428761D02*
X357183333Y-65476380D01*
X357421428Y-65476380D01*
X357516666Y-65428761D01*
X357564285Y-65381142D01*
X357611904Y-65285904D01*
X357611904Y-65190666D01*
X357564285Y-65095428D01*
X357516666Y-65047809D01*
X357421428Y-65000190D01*
X357230952Y-64952571D01*
X357135714Y-64904952D01*
X357088095Y-64857333D01*
X357040476Y-64762095D01*
X357040476Y-64666857D01*
X357088095Y-64571619D01*
X357135714Y-64524000D01*
X357230952Y-64476380D01*
X357469047Y-64476380D01*
X357611904Y-64524000D01*
X357945238Y-64476380D02*
X358183333Y-65476380D01*
X358373809Y-64762095D01*
X358564285Y-65476380D01*
X358802380Y-64476380D01*
X359135714Y-64571619D02*
X359183333Y-64524000D01*
X359278571Y-64476380D01*
X359516666Y-64476380D01*
X359611904Y-64524000D01*
X359659523Y-64571619D01*
X359707142Y-64666857D01*
X359707142Y-64762095D01*
X359659523Y-64904952D01*
X359088095Y-65476380D01*
X359707142Y-65476380D01*
X360326190Y-64476380D02*
X360421428Y-64476380D01*
X360516666Y-64524000D01*
X360564285Y-64571619D01*
X360611904Y-64666857D01*
X360659523Y-64857333D01*
X360659523Y-65095428D01*
X360611904Y-65285904D01*
X360564285Y-65381142D01*
X360516666Y-65428761D01*
X360421428Y-65476380D01*
X360326190Y-65476380D01*
X360230952Y-65428761D01*
X360183333Y-65381142D01*
X360135714Y-65285904D01*
X360088095Y-65095428D01*
X360088095Y-64857333D01*
X360135714Y-64666857D01*
X360183333Y-64571619D01*
X360230952Y-64524000D01*
X360326190Y-64476380D01*
X358711523Y-69794380D02*
X358902000Y-69794380D01*
X358997238Y-69746761D01*
X359044857Y-69699142D01*
X359140095Y-69556285D01*
X359187714Y-69365809D01*
X359187714Y-68984857D01*
X359140095Y-68889619D01*
X359092476Y-68842000D01*
X358997238Y-68794380D01*
X358806761Y-68794380D01*
X358711523Y-68842000D01*
X358663904Y-68889619D01*
X358616285Y-68984857D01*
X358616285Y-69222952D01*
X358663904Y-69318190D01*
X358711523Y-69365809D01*
X358806761Y-69413428D01*
X358997238Y-69413428D01*
X359092476Y-69365809D01*
X359140095Y-69318190D01*
X359187714Y-69222952D01*
%TO.C,SW24*%
X233977476Y-104925761D02*
X234120333Y-104973380D01*
X234358428Y-104973380D01*
X234453666Y-104925761D01*
X234501285Y-104878142D01*
X234548904Y-104782904D01*
X234548904Y-104687666D01*
X234501285Y-104592428D01*
X234453666Y-104544809D01*
X234358428Y-104497190D01*
X234167952Y-104449571D01*
X234072714Y-104401952D01*
X234025095Y-104354333D01*
X233977476Y-104259095D01*
X233977476Y-104163857D01*
X234025095Y-104068619D01*
X234072714Y-104021000D01*
X234167952Y-103973380D01*
X234406047Y-103973380D01*
X234548904Y-104021000D01*
X234882238Y-103973380D02*
X235120333Y-104973380D01*
X235310809Y-104259095D01*
X235501285Y-104973380D01*
X235739380Y-103973380D01*
X236072714Y-104068619D02*
X236120333Y-104021000D01*
X236215571Y-103973380D01*
X236453666Y-103973380D01*
X236548904Y-104021000D01*
X236596523Y-104068619D01*
X236644142Y-104163857D01*
X236644142Y-104259095D01*
X236596523Y-104401952D01*
X236025095Y-104973380D01*
X236644142Y-104973380D01*
X237501285Y-104306714D02*
X237501285Y-104973380D01*
X237263190Y-103925761D02*
X237025095Y-104640047D01*
X237644142Y-104640047D01*
X235144142Y-108863571D02*
X235477476Y-108863571D01*
X235620333Y-109387380D02*
X235144142Y-109387380D01*
X235144142Y-108387380D01*
X235620333Y-108387380D01*
X235953666Y-109387380D02*
X236477476Y-108720714D01*
X235953666Y-108720714D02*
X236477476Y-109387380D01*
X236858428Y-109387380D02*
X236858428Y-108720714D01*
X236858428Y-108387380D02*
X236810809Y-108435000D01*
X236858428Y-108482619D01*
X236906047Y-108435000D01*
X236858428Y-108387380D01*
X236858428Y-108482619D01*
X237191761Y-108720714D02*
X237572714Y-108720714D01*
X237334619Y-108387380D02*
X237334619Y-109244523D01*
X237382238Y-109339761D01*
X237477476Y-109387380D01*
X237572714Y-109387380D01*
%TO.C,SW25*%
X57753476Y-73175761D02*
X57896333Y-73223380D01*
X58134428Y-73223380D01*
X58229666Y-73175761D01*
X58277285Y-73128142D01*
X58324904Y-73032904D01*
X58324904Y-72937666D01*
X58277285Y-72842428D01*
X58229666Y-72794809D01*
X58134428Y-72747190D01*
X57943952Y-72699571D01*
X57848714Y-72651952D01*
X57801095Y-72604333D01*
X57753476Y-72509095D01*
X57753476Y-72413857D01*
X57801095Y-72318619D01*
X57848714Y-72271000D01*
X57943952Y-72223380D01*
X58182047Y-72223380D01*
X58324904Y-72271000D01*
X58658238Y-72223380D02*
X58896333Y-73223380D01*
X59086809Y-72509095D01*
X59277285Y-73223380D01*
X59515380Y-72223380D01*
X59848714Y-72318619D02*
X59896333Y-72271000D01*
X59991571Y-72223380D01*
X60229666Y-72223380D01*
X60324904Y-72271000D01*
X60372523Y-72318619D01*
X60420142Y-72413857D01*
X60420142Y-72509095D01*
X60372523Y-72651952D01*
X59801095Y-73223380D01*
X60420142Y-73223380D01*
X61324904Y-72223380D02*
X60848714Y-72223380D01*
X60801095Y-72699571D01*
X60848714Y-72651952D01*
X60943952Y-72604333D01*
X61182047Y-72604333D01*
X61277285Y-72651952D01*
X61324904Y-72699571D01*
X61372523Y-72794809D01*
X61372523Y-73032904D01*
X61324904Y-73128142D01*
X61277285Y-73175761D01*
X61182047Y-73223380D01*
X60943952Y-73223380D01*
X60848714Y-73175761D01*
X60801095Y-73128142D01*
X57566571Y-77510380D02*
X57566571Y-76510380D01*
X57899904Y-77224666D01*
X58233238Y-76510380D01*
X58233238Y-77510380D01*
X59090380Y-77462761D02*
X58995142Y-77510380D01*
X58804666Y-77510380D01*
X58709428Y-77462761D01*
X58661809Y-77367523D01*
X58661809Y-76986571D01*
X58709428Y-76891333D01*
X58804666Y-76843714D01*
X58995142Y-76843714D01*
X59090380Y-76891333D01*
X59138000Y-76986571D01*
X59138000Y-77081809D01*
X58661809Y-77177047D01*
X59566571Y-77510380D02*
X59566571Y-76843714D01*
X59566571Y-76938952D02*
X59614190Y-76891333D01*
X59709428Y-76843714D01*
X59852285Y-76843714D01*
X59947523Y-76891333D01*
X59995142Y-76986571D01*
X59995142Y-77510380D01*
X59995142Y-76986571D02*
X60042761Y-76891333D01*
X60138000Y-76843714D01*
X60280857Y-76843714D01*
X60376095Y-76891333D01*
X60423714Y-76986571D01*
X60423714Y-77510380D01*
X61042761Y-77510380D02*
X60947523Y-77462761D01*
X60899904Y-77415142D01*
X60852285Y-77319904D01*
X60852285Y-77034190D01*
X60899904Y-76938952D01*
X60947523Y-76891333D01*
X61042761Y-76843714D01*
X61185619Y-76843714D01*
X61280857Y-76891333D01*
X61328476Y-76938952D01*
X61376095Y-77034190D01*
X61376095Y-77319904D01*
X61328476Y-77415142D01*
X61280857Y-77462761D01*
X61185619Y-77510380D01*
X61042761Y-77510380D01*
X61804666Y-77510380D02*
X61804666Y-76843714D01*
X61804666Y-77034190D02*
X61852285Y-76938952D01*
X61899904Y-76891333D01*
X61995142Y-76843714D01*
X62090380Y-76843714D01*
X62328476Y-76843714D02*
X62566571Y-77510380D01*
X62804666Y-76843714D02*
X62566571Y-77510380D01*
X62471333Y-77748476D01*
X62423714Y-77796095D01*
X62328476Y-77843714D01*
%TO.C,SW21*%
X299382476Y-65428761D02*
X299525333Y-65476380D01*
X299763428Y-65476380D01*
X299858666Y-65428761D01*
X299906285Y-65381142D01*
X299953904Y-65285904D01*
X299953904Y-65190666D01*
X299906285Y-65095428D01*
X299858666Y-65047809D01*
X299763428Y-65000190D01*
X299572952Y-64952571D01*
X299477714Y-64904952D01*
X299430095Y-64857333D01*
X299382476Y-64762095D01*
X299382476Y-64666857D01*
X299430095Y-64571619D01*
X299477714Y-64524000D01*
X299572952Y-64476380D01*
X299811047Y-64476380D01*
X299953904Y-64524000D01*
X300287238Y-64476380D02*
X300525333Y-65476380D01*
X300715809Y-64762095D01*
X300906285Y-65476380D01*
X301144380Y-64476380D01*
X301477714Y-64571619D02*
X301525333Y-64524000D01*
X301620571Y-64476380D01*
X301858666Y-64476380D01*
X301953904Y-64524000D01*
X302001523Y-64571619D01*
X302049142Y-64666857D01*
X302049142Y-64762095D01*
X302001523Y-64904952D01*
X301430095Y-65476380D01*
X302049142Y-65476380D01*
X303001523Y-65476380D02*
X302430095Y-65476380D01*
X302715809Y-65476380D02*
X302715809Y-64476380D01*
X302620571Y-64619238D01*
X302525333Y-64714476D01*
X302430095Y-64762095D01*
X296858666Y-69366571D02*
X297001523Y-69414190D01*
X297049142Y-69461809D01*
X297096761Y-69557047D01*
X297096761Y-69699904D01*
X297049142Y-69795142D01*
X297001523Y-69842761D01*
X296906285Y-69890380D01*
X296525333Y-69890380D01*
X296525333Y-68890380D01*
X296858666Y-68890380D01*
X296953904Y-68938000D01*
X297001523Y-68985619D01*
X297049142Y-69080857D01*
X297049142Y-69176095D01*
X297001523Y-69271333D01*
X296953904Y-69318952D01*
X296858666Y-69366571D01*
X296525333Y-69366571D01*
X297953904Y-69890380D02*
X297953904Y-69366571D01*
X297906285Y-69271333D01*
X297811047Y-69223714D01*
X297620571Y-69223714D01*
X297525333Y-69271333D01*
X297953904Y-69842761D02*
X297858666Y-69890380D01*
X297620571Y-69890380D01*
X297525333Y-69842761D01*
X297477714Y-69747523D01*
X297477714Y-69652285D01*
X297525333Y-69557047D01*
X297620571Y-69509428D01*
X297858666Y-69509428D01*
X297953904Y-69461809D01*
X298430095Y-69223714D02*
X298430095Y-69890380D01*
X298430095Y-69318952D02*
X298477714Y-69271333D01*
X298572952Y-69223714D01*
X298715809Y-69223714D01*
X298811047Y-69271333D01*
X298858666Y-69366571D01*
X298858666Y-69890380D01*
X299334857Y-69890380D02*
X299334857Y-68890380D01*
X299430095Y-69509428D02*
X299715809Y-69890380D01*
X299715809Y-69223714D02*
X299334857Y-69604666D01*
X301620571Y-68842761D02*
X300763428Y-70128476D01*
X302668190Y-69842761D02*
X302811047Y-69890380D01*
X303049142Y-69890380D01*
X303144380Y-69842761D01*
X303192000Y-69795142D01*
X303239619Y-69699904D01*
X303239619Y-69604666D01*
X303192000Y-69509428D01*
X303144380Y-69461809D01*
X303049142Y-69414190D01*
X302858666Y-69366571D01*
X302763428Y-69318952D01*
X302715809Y-69271333D01*
X302668190Y-69176095D01*
X302668190Y-69080857D01*
X302715809Y-68985619D01*
X302763428Y-68938000D01*
X302858666Y-68890380D01*
X303096761Y-68890380D01*
X303239619Y-68938000D01*
X304049142Y-69842761D02*
X303953904Y-69890380D01*
X303763428Y-69890380D01*
X303668190Y-69842761D01*
X303620571Y-69747523D01*
X303620571Y-69366571D01*
X303668190Y-69271333D01*
X303763428Y-69223714D01*
X303953904Y-69223714D01*
X304049142Y-69271333D01*
X304096761Y-69366571D01*
X304096761Y-69461809D01*
X303620571Y-69557047D01*
X304668190Y-69890380D02*
X304572952Y-69842761D01*
X304525333Y-69747523D01*
X304525333Y-68890380D01*
X305430095Y-69842761D02*
X305334857Y-69890380D01*
X305144380Y-69890380D01*
X305049142Y-69842761D01*
X305001523Y-69747523D01*
X305001523Y-69366571D01*
X305049142Y-69271333D01*
X305144380Y-69223714D01*
X305334857Y-69223714D01*
X305430095Y-69271333D01*
X305477714Y-69366571D01*
X305477714Y-69461809D01*
X305001523Y-69557047D01*
X306334857Y-69842761D02*
X306239619Y-69890380D01*
X306049142Y-69890380D01*
X305953904Y-69842761D01*
X305906285Y-69795142D01*
X305858666Y-69699904D01*
X305858666Y-69414190D01*
X305906285Y-69318952D01*
X305953904Y-69271333D01*
X306049142Y-69223714D01*
X306239619Y-69223714D01*
X306334857Y-69271333D01*
X306620571Y-69223714D02*
X307001523Y-69223714D01*
X306763428Y-68890380D02*
X306763428Y-69747523D01*
X306811047Y-69842761D01*
X306906285Y-69890380D01*
X307001523Y-69890380D01*
%TO.C,SW22*%
X299382476Y-92098761D02*
X299525333Y-92146380D01*
X299763428Y-92146380D01*
X299858666Y-92098761D01*
X299906285Y-92051142D01*
X299953904Y-91955904D01*
X299953904Y-91860666D01*
X299906285Y-91765428D01*
X299858666Y-91717809D01*
X299763428Y-91670190D01*
X299572952Y-91622571D01*
X299477714Y-91574952D01*
X299430095Y-91527333D01*
X299382476Y-91432095D01*
X299382476Y-91336857D01*
X299430095Y-91241619D01*
X299477714Y-91194000D01*
X299572952Y-91146380D01*
X299811047Y-91146380D01*
X299953904Y-91194000D01*
X300287238Y-91146380D02*
X300525333Y-92146380D01*
X300715809Y-91432095D01*
X300906285Y-92146380D01*
X301144380Y-91146380D01*
X301477714Y-91241619D02*
X301525333Y-91194000D01*
X301620571Y-91146380D01*
X301858666Y-91146380D01*
X301953904Y-91194000D01*
X302001523Y-91241619D01*
X302049142Y-91336857D01*
X302049142Y-91432095D01*
X302001523Y-91574952D01*
X301430095Y-92146380D01*
X302049142Y-92146380D01*
X302430095Y-91241619D02*
X302477714Y-91194000D01*
X302572952Y-91146380D01*
X302811047Y-91146380D01*
X302906285Y-91194000D01*
X302953904Y-91241619D01*
X303001523Y-91336857D01*
X303001523Y-91432095D01*
X302953904Y-91574952D01*
X302382476Y-92146380D01*
X303001523Y-92146380D01*
X300553523Y-96560380D02*
X300077333Y-96560380D01*
X300077333Y-95560380D01*
X301267809Y-96512761D02*
X301172571Y-96560380D01*
X300982095Y-96560380D01*
X300886857Y-96512761D01*
X300839238Y-96417523D01*
X300839238Y-96036571D01*
X300886857Y-95941333D01*
X300982095Y-95893714D01*
X301172571Y-95893714D01*
X301267809Y-95941333D01*
X301315428Y-96036571D01*
X301315428Y-96131809D01*
X300839238Y-96227047D01*
X301601142Y-95893714D02*
X301982095Y-95893714D01*
X301744000Y-96560380D02*
X301744000Y-95703238D01*
X301791619Y-95608000D01*
X301886857Y-95560380D01*
X301982095Y-95560380D01*
X302172571Y-95893714D02*
X302553523Y-95893714D01*
X302315428Y-95560380D02*
X302315428Y-96417523D01*
X302363047Y-96512761D01*
X302458285Y-96560380D01*
X302553523Y-96560380D01*
%TO.C,SW28*%
X309796476Y-65428761D02*
X309939333Y-65476380D01*
X310177428Y-65476380D01*
X310272666Y-65428761D01*
X310320285Y-65381142D01*
X310367904Y-65285904D01*
X310367904Y-65190666D01*
X310320285Y-65095428D01*
X310272666Y-65047809D01*
X310177428Y-65000190D01*
X309986952Y-64952571D01*
X309891714Y-64904952D01*
X309844095Y-64857333D01*
X309796476Y-64762095D01*
X309796476Y-64666857D01*
X309844095Y-64571619D01*
X309891714Y-64524000D01*
X309986952Y-64476380D01*
X310225047Y-64476380D01*
X310367904Y-64524000D01*
X310701238Y-64476380D02*
X310939333Y-65476380D01*
X311129809Y-64762095D01*
X311320285Y-65476380D01*
X311558380Y-64476380D01*
X311891714Y-64571619D02*
X311939333Y-64524000D01*
X312034571Y-64476380D01*
X312272666Y-64476380D01*
X312367904Y-64524000D01*
X312415523Y-64571619D01*
X312463142Y-64666857D01*
X312463142Y-64762095D01*
X312415523Y-64904952D01*
X311844095Y-65476380D01*
X312463142Y-65476380D01*
X313034571Y-64904952D02*
X312939333Y-64857333D01*
X312891714Y-64809714D01*
X312844095Y-64714476D01*
X312844095Y-64666857D01*
X312891714Y-64571619D01*
X312939333Y-64524000D01*
X313034571Y-64476380D01*
X313225047Y-64476380D01*
X313320285Y-64524000D01*
X313367904Y-64571619D01*
X313415523Y-64666857D01*
X313415523Y-64714476D01*
X313367904Y-64809714D01*
X313320285Y-64857333D01*
X313225047Y-64904952D01*
X313034571Y-64904952D01*
X312939333Y-64952571D01*
X312891714Y-65000190D01*
X312844095Y-65095428D01*
X312844095Y-65285904D01*
X312891714Y-65381142D01*
X312939333Y-65428761D01*
X313034571Y-65476380D01*
X313225047Y-65476380D01*
X313320285Y-65428761D01*
X313367904Y-65381142D01*
X313415523Y-65285904D01*
X313415523Y-65095428D01*
X313367904Y-65000190D01*
X313320285Y-64952571D01*
X313225047Y-64904952D01*
X308919904Y-69366571D02*
X309253238Y-69366571D01*
X309396095Y-69890380D02*
X308919904Y-69890380D01*
X308919904Y-68890380D01*
X309396095Y-68890380D01*
X309967523Y-69890380D02*
X309872285Y-69842761D01*
X309824666Y-69747523D01*
X309824666Y-68890380D01*
X310729428Y-69842761D02*
X310634190Y-69890380D01*
X310443714Y-69890380D01*
X310348476Y-69842761D01*
X310300857Y-69747523D01*
X310300857Y-69366571D01*
X310348476Y-69271333D01*
X310443714Y-69223714D01*
X310634190Y-69223714D01*
X310729428Y-69271333D01*
X310777047Y-69366571D01*
X310777047Y-69461809D01*
X310300857Y-69557047D01*
X311205619Y-69890380D02*
X311205619Y-69223714D01*
X311205619Y-69318952D02*
X311253238Y-69271333D01*
X311348476Y-69223714D01*
X311491333Y-69223714D01*
X311586571Y-69271333D01*
X311634190Y-69366571D01*
X311634190Y-69890380D01*
X311634190Y-69366571D02*
X311681809Y-69271333D01*
X311777047Y-69223714D01*
X311919904Y-69223714D01*
X312015142Y-69271333D01*
X312062761Y-69366571D01*
X312062761Y-69890380D01*
X312919904Y-69842761D02*
X312824666Y-69890380D01*
X312634190Y-69890380D01*
X312538952Y-69842761D01*
X312491333Y-69747523D01*
X312491333Y-69366571D01*
X312538952Y-69271333D01*
X312634190Y-69223714D01*
X312824666Y-69223714D01*
X312919904Y-69271333D01*
X312967523Y-69366571D01*
X312967523Y-69461809D01*
X312491333Y-69557047D01*
X313396095Y-69223714D02*
X313396095Y-69890380D01*
X313396095Y-69318952D02*
X313443714Y-69271333D01*
X313538952Y-69223714D01*
X313681809Y-69223714D01*
X313777047Y-69271333D01*
X313824666Y-69366571D01*
X313824666Y-69890380D01*
X314158000Y-69223714D02*
X314538952Y-69223714D01*
X314300857Y-68890380D02*
X314300857Y-69747523D01*
X314348476Y-69842761D01*
X314443714Y-69890380D01*
X314538952Y-69890380D01*
%TO.C,SW13*%
X309796476Y-92098761D02*
X309939333Y-92146380D01*
X310177428Y-92146380D01*
X310272666Y-92098761D01*
X310320285Y-92051142D01*
X310367904Y-91955904D01*
X310367904Y-91860666D01*
X310320285Y-91765428D01*
X310272666Y-91717809D01*
X310177428Y-91670190D01*
X309986952Y-91622571D01*
X309891714Y-91574952D01*
X309844095Y-91527333D01*
X309796476Y-91432095D01*
X309796476Y-91336857D01*
X309844095Y-91241619D01*
X309891714Y-91194000D01*
X309986952Y-91146380D01*
X310225047Y-91146380D01*
X310367904Y-91194000D01*
X310701238Y-91146380D02*
X310939333Y-92146380D01*
X311129809Y-91432095D01*
X311320285Y-92146380D01*
X311558380Y-91146380D01*
X312463142Y-92146380D02*
X311891714Y-92146380D01*
X312177428Y-92146380D02*
X312177428Y-91146380D01*
X312082190Y-91289238D01*
X311986952Y-91384476D01*
X311891714Y-91432095D01*
X312796476Y-91146380D02*
X313415523Y-91146380D01*
X313082190Y-91527333D01*
X313225047Y-91527333D01*
X313320285Y-91574952D01*
X313367904Y-91622571D01*
X313415523Y-91717809D01*
X313415523Y-91955904D01*
X313367904Y-92051142D01*
X313320285Y-92098761D01*
X313225047Y-92146380D01*
X312939333Y-92146380D01*
X312844095Y-92098761D01*
X312796476Y-92051142D01*
X309967523Y-96560380D02*
X309967523Y-95560380D01*
X310205619Y-95560380D01*
X310348476Y-95608000D01*
X310443714Y-95703238D01*
X310491333Y-95798476D01*
X310538952Y-95988952D01*
X310538952Y-96131809D01*
X310491333Y-96322285D01*
X310443714Y-96417523D01*
X310348476Y-96512761D01*
X310205619Y-96560380D01*
X309967523Y-96560380D01*
X311110380Y-96560380D02*
X311015142Y-96512761D01*
X310967523Y-96465142D01*
X310919904Y-96369904D01*
X310919904Y-96084190D01*
X310967523Y-95988952D01*
X311015142Y-95941333D01*
X311110380Y-95893714D01*
X311253238Y-95893714D01*
X311348476Y-95941333D01*
X311396095Y-95988952D01*
X311443714Y-96084190D01*
X311443714Y-96369904D01*
X311396095Y-96465142D01*
X311348476Y-96512761D01*
X311253238Y-96560380D01*
X311110380Y-96560380D01*
X311777047Y-95893714D02*
X311967523Y-96560380D01*
X312158000Y-96084190D01*
X312348476Y-96560380D01*
X312538952Y-95893714D01*
X312919904Y-95893714D02*
X312919904Y-96560380D01*
X312919904Y-95988952D02*
X312967523Y-95941333D01*
X313062761Y-95893714D01*
X313205619Y-95893714D01*
X313300857Y-95941333D01*
X313348476Y-96036571D01*
X313348476Y-96560380D01*
%TO.C,SW15*%
X309796476Y-74318761D02*
X309939333Y-74366380D01*
X310177428Y-74366380D01*
X310272666Y-74318761D01*
X310320285Y-74271142D01*
X310367904Y-74175904D01*
X310367904Y-74080666D01*
X310320285Y-73985428D01*
X310272666Y-73937809D01*
X310177428Y-73890190D01*
X309986952Y-73842571D01*
X309891714Y-73794952D01*
X309844095Y-73747333D01*
X309796476Y-73652095D01*
X309796476Y-73556857D01*
X309844095Y-73461619D01*
X309891714Y-73414000D01*
X309986952Y-73366380D01*
X310225047Y-73366380D01*
X310367904Y-73414000D01*
X310701238Y-73366380D02*
X310939333Y-74366380D01*
X311129809Y-73652095D01*
X311320285Y-74366380D01*
X311558380Y-73366380D01*
X312463142Y-74366380D02*
X311891714Y-74366380D01*
X312177428Y-74366380D02*
X312177428Y-73366380D01*
X312082190Y-73509238D01*
X311986952Y-73604476D01*
X311891714Y-73652095D01*
X313367904Y-73366380D02*
X312891714Y-73366380D01*
X312844095Y-73842571D01*
X312891714Y-73794952D01*
X312986952Y-73747333D01*
X313225047Y-73747333D01*
X313320285Y-73794952D01*
X313367904Y-73842571D01*
X313415523Y-73937809D01*
X313415523Y-74175904D01*
X313367904Y-74271142D01*
X313320285Y-74318761D01*
X313225047Y-74366380D01*
X312986952Y-74366380D01*
X312891714Y-74318761D01*
X312844095Y-74271142D01*
X307784952Y-78780380D02*
X307784952Y-77780380D01*
X308165904Y-77780380D01*
X308261142Y-77828000D01*
X308308761Y-77875619D01*
X308356380Y-77970857D01*
X308356380Y-78113714D01*
X308308761Y-78208952D01*
X308261142Y-78256571D01*
X308165904Y-78304190D01*
X307784952Y-78304190D01*
X309213523Y-78780380D02*
X309213523Y-78256571D01*
X309165904Y-78161333D01*
X309070666Y-78113714D01*
X308880190Y-78113714D01*
X308784952Y-78161333D01*
X309213523Y-78732761D02*
X309118285Y-78780380D01*
X308880190Y-78780380D01*
X308784952Y-78732761D01*
X308737333Y-78637523D01*
X308737333Y-78542285D01*
X308784952Y-78447047D01*
X308880190Y-78399428D01*
X309118285Y-78399428D01*
X309213523Y-78351809D01*
X310118285Y-78113714D02*
X310118285Y-78923238D01*
X310070666Y-79018476D01*
X310023047Y-79066095D01*
X309927809Y-79113714D01*
X309784952Y-79113714D01*
X309689714Y-79066095D01*
X310118285Y-78732761D02*
X310023047Y-78780380D01*
X309832571Y-78780380D01*
X309737333Y-78732761D01*
X309689714Y-78685142D01*
X309642095Y-78589904D01*
X309642095Y-78304190D01*
X309689714Y-78208952D01*
X309737333Y-78161333D01*
X309832571Y-78113714D01*
X310023047Y-78113714D01*
X310118285Y-78161333D01*
X310975428Y-78732761D02*
X310880190Y-78780380D01*
X310689714Y-78780380D01*
X310594476Y-78732761D01*
X310546857Y-78637523D01*
X310546857Y-78256571D01*
X310594476Y-78161333D01*
X310689714Y-78113714D01*
X310880190Y-78113714D01*
X310975428Y-78161333D01*
X311023047Y-78256571D01*
X311023047Y-78351809D01*
X310546857Y-78447047D01*
X312213523Y-78780380D02*
X312213523Y-77780380D01*
X312784952Y-78780380D01*
X312784952Y-77780380D01*
X313642095Y-78732761D02*
X313546857Y-78780380D01*
X313356380Y-78780380D01*
X313261142Y-78732761D01*
X313213523Y-78637523D01*
X313213523Y-78256571D01*
X313261142Y-78161333D01*
X313356380Y-78113714D01*
X313546857Y-78113714D01*
X313642095Y-78161333D01*
X313689714Y-78256571D01*
X313689714Y-78351809D01*
X313213523Y-78447047D01*
X314023047Y-78780380D02*
X314546857Y-78113714D01*
X314023047Y-78113714D02*
X314546857Y-78780380D01*
X314784952Y-78113714D02*
X315165904Y-78113714D01*
X314927809Y-77780380D02*
X314927809Y-78637523D01*
X314975428Y-78732761D01*
X315070666Y-78780380D01*
X315165904Y-78780380D01*
%TO.C,SW16*%
X112804952Y-105052761D02*
X112947809Y-105100380D01*
X113185904Y-105100380D01*
X113281142Y-105052761D01*
X113328761Y-105005142D01*
X113376380Y-104909904D01*
X113376380Y-104814666D01*
X113328761Y-104719428D01*
X113281142Y-104671809D01*
X113185904Y-104624190D01*
X112995428Y-104576571D01*
X112900190Y-104528952D01*
X112852571Y-104481333D01*
X112804952Y-104386095D01*
X112804952Y-104290857D01*
X112852571Y-104195619D01*
X112900190Y-104148000D01*
X112995428Y-104100380D01*
X113233523Y-104100380D01*
X113376380Y-104148000D01*
X113709714Y-104100380D02*
X113947809Y-105100380D01*
X114138285Y-104386095D01*
X114328761Y-105100380D01*
X114566856Y-104100380D01*
X115471618Y-105100380D02*
X114900190Y-105100380D01*
X115185904Y-105100380D02*
X115185904Y-104100380D01*
X115090666Y-104243238D01*
X114995428Y-104338476D01*
X114900190Y-104386095D01*
X116328761Y-104100380D02*
X116138285Y-104100380D01*
X116043047Y-104148000D01*
X115995428Y-104195619D01*
X115900190Y-104338476D01*
X115852571Y-104528952D01*
X115852571Y-104909904D01*
X115900190Y-105005142D01*
X115947809Y-105052761D01*
X116043047Y-105100380D01*
X116233523Y-105100380D01*
X116328761Y-105052761D01*
X116376380Y-105005142D01*
X116423999Y-104909904D01*
X116423999Y-104671809D01*
X116376380Y-104576571D01*
X116328761Y-104528952D01*
X116233523Y-104481333D01*
X116043047Y-104481333D01*
X115947809Y-104528952D01*
X115900190Y-104576571D01*
X115852571Y-104671809D01*
X114813808Y-108990571D02*
X114480475Y-108990571D01*
X114480475Y-109514380D02*
X114480475Y-108514380D01*
X114956665Y-108514380D01*
X115289999Y-108609619D02*
X115337618Y-108562000D01*
X115432856Y-108514380D01*
X115670951Y-108514380D01*
X115766189Y-108562000D01*
X115813808Y-108609619D01*
X115861427Y-108704857D01*
X115861427Y-108800095D01*
X115813808Y-108942952D01*
X115242380Y-109514380D01*
X115861427Y-109514380D01*
%TO.C,SW30*%
X320210476Y-92098761D02*
X320353333Y-92146380D01*
X320591428Y-92146380D01*
X320686666Y-92098761D01*
X320734285Y-92051142D01*
X320781904Y-91955904D01*
X320781904Y-91860666D01*
X320734285Y-91765428D01*
X320686666Y-91717809D01*
X320591428Y-91670190D01*
X320400952Y-91622571D01*
X320305714Y-91574952D01*
X320258095Y-91527333D01*
X320210476Y-91432095D01*
X320210476Y-91336857D01*
X320258095Y-91241619D01*
X320305714Y-91194000D01*
X320400952Y-91146380D01*
X320639047Y-91146380D01*
X320781904Y-91194000D01*
X321115238Y-91146380D02*
X321353333Y-92146380D01*
X321543809Y-91432095D01*
X321734285Y-92146380D01*
X321972380Y-91146380D01*
X322258095Y-91146380D02*
X322877142Y-91146380D01*
X322543809Y-91527333D01*
X322686666Y-91527333D01*
X322781904Y-91574952D01*
X322829523Y-91622571D01*
X322877142Y-91717809D01*
X322877142Y-91955904D01*
X322829523Y-92051142D01*
X322781904Y-92098761D01*
X322686666Y-92146380D01*
X322400952Y-92146380D01*
X322305714Y-92098761D01*
X322258095Y-92051142D01*
X323496190Y-91146380D02*
X323591428Y-91146380D01*
X323686666Y-91194000D01*
X323734285Y-91241619D01*
X323781904Y-91336857D01*
X323829523Y-91527333D01*
X323829523Y-91765428D01*
X323781904Y-91955904D01*
X323734285Y-92051142D01*
X323686666Y-92098761D01*
X323591428Y-92146380D01*
X323496190Y-92146380D01*
X323400952Y-92098761D01*
X323353333Y-92051142D01*
X323305714Y-91955904D01*
X323258095Y-91765428D01*
X323258095Y-91527333D01*
X323305714Y-91336857D01*
X323353333Y-91241619D01*
X323400952Y-91194000D01*
X323496190Y-91146380D01*
X320952952Y-96560380D02*
X320619619Y-96084190D01*
X320381523Y-96560380D02*
X320381523Y-95560380D01*
X320762476Y-95560380D01*
X320857714Y-95608000D01*
X320905333Y-95655619D01*
X320952952Y-95750857D01*
X320952952Y-95893714D01*
X320905333Y-95988952D01*
X320857714Y-96036571D01*
X320762476Y-96084190D01*
X320381523Y-96084190D01*
X321381523Y-96560380D02*
X321381523Y-95893714D01*
X321381523Y-95560380D02*
X321333904Y-95608000D01*
X321381523Y-95655619D01*
X321429142Y-95608000D01*
X321381523Y-95560380D01*
X321381523Y-95655619D01*
X322286285Y-95893714D02*
X322286285Y-96703238D01*
X322238666Y-96798476D01*
X322191047Y-96846095D01*
X322095809Y-96893714D01*
X321952952Y-96893714D01*
X321857714Y-96846095D01*
X322286285Y-96512761D02*
X322191047Y-96560380D01*
X322000571Y-96560380D01*
X321905333Y-96512761D01*
X321857714Y-96465142D01*
X321810095Y-96369904D01*
X321810095Y-96084190D01*
X321857714Y-95988952D01*
X321905333Y-95941333D01*
X322000571Y-95893714D01*
X322191047Y-95893714D01*
X322286285Y-95941333D01*
X322762476Y-96560380D02*
X322762476Y-95560380D01*
X323191047Y-96560380D02*
X323191047Y-96036571D01*
X323143428Y-95941333D01*
X323048190Y-95893714D01*
X322905333Y-95893714D01*
X322810095Y-95941333D01*
X322762476Y-95988952D01*
X323524380Y-95893714D02*
X323905333Y-95893714D01*
X323667238Y-95560380D02*
X323667238Y-96417523D01*
X323714857Y-96512761D01*
X323810095Y-96560380D01*
X323905333Y-96560380D01*
%TO.C,SW14*%
X346626476Y-65428761D02*
X346769333Y-65476380D01*
X347007428Y-65476380D01*
X347102666Y-65428761D01*
X347150285Y-65381142D01*
X347197904Y-65285904D01*
X347197904Y-65190666D01*
X347150285Y-65095428D01*
X347102666Y-65047809D01*
X347007428Y-65000190D01*
X346816952Y-64952571D01*
X346721714Y-64904952D01*
X346674095Y-64857333D01*
X346626476Y-64762095D01*
X346626476Y-64666857D01*
X346674095Y-64571619D01*
X346721714Y-64524000D01*
X346816952Y-64476380D01*
X347055047Y-64476380D01*
X347197904Y-64524000D01*
X347531238Y-64476380D02*
X347769333Y-65476380D01*
X347959809Y-64762095D01*
X348150285Y-65476380D01*
X348388380Y-64476380D01*
X349293142Y-65476380D02*
X348721714Y-65476380D01*
X349007428Y-65476380D02*
X349007428Y-64476380D01*
X348912190Y-64619238D01*
X348816952Y-64714476D01*
X348721714Y-64762095D01*
X350150285Y-64809714D02*
X350150285Y-65476380D01*
X349912190Y-64428761D02*
X349674095Y-65143047D01*
X350293142Y-65143047D01*
X348392761Y-69222952D02*
X348297523Y-69175333D01*
X348249904Y-69127714D01*
X348202285Y-69032476D01*
X348202285Y-68984857D01*
X348249904Y-68889619D01*
X348297523Y-68842000D01*
X348392761Y-68794380D01*
X348583238Y-68794380D01*
X348678476Y-68842000D01*
X348726095Y-68889619D01*
X348773714Y-68984857D01*
X348773714Y-69032476D01*
X348726095Y-69127714D01*
X348678476Y-69175333D01*
X348583238Y-69222952D01*
X348392761Y-69222952D01*
X348297523Y-69270571D01*
X348249904Y-69318190D01*
X348202285Y-69413428D01*
X348202285Y-69603904D01*
X348249904Y-69699142D01*
X348297523Y-69746761D01*
X348392761Y-69794380D01*
X348583238Y-69794380D01*
X348678476Y-69746761D01*
X348726095Y-69699142D01*
X348773714Y-69603904D01*
X348773714Y-69413428D01*
X348726095Y-69318190D01*
X348678476Y-69270571D01*
X348583238Y-69222952D01*
%TO.C,SW32*%
X346626476Y-92098761D02*
X346769333Y-92146380D01*
X347007428Y-92146380D01*
X347102666Y-92098761D01*
X347150285Y-92051142D01*
X347197904Y-91955904D01*
X347197904Y-91860666D01*
X347150285Y-91765428D01*
X347102666Y-91717809D01*
X347007428Y-91670190D01*
X346816952Y-91622571D01*
X346721714Y-91574952D01*
X346674095Y-91527333D01*
X346626476Y-91432095D01*
X346626476Y-91336857D01*
X346674095Y-91241619D01*
X346721714Y-91194000D01*
X346816952Y-91146380D01*
X347055047Y-91146380D01*
X347197904Y-91194000D01*
X347531238Y-91146380D02*
X347769333Y-92146380D01*
X347959809Y-91432095D01*
X348150285Y-92146380D01*
X348388380Y-91146380D01*
X348674095Y-91146380D02*
X349293142Y-91146380D01*
X348959809Y-91527333D01*
X349102666Y-91527333D01*
X349197904Y-91574952D01*
X349245523Y-91622571D01*
X349293142Y-91717809D01*
X349293142Y-91955904D01*
X349245523Y-92051142D01*
X349197904Y-92098761D01*
X349102666Y-92146380D01*
X348816952Y-92146380D01*
X348721714Y-92098761D01*
X348674095Y-92051142D01*
X349674095Y-91241619D02*
X349721714Y-91194000D01*
X349816952Y-91146380D01*
X350055047Y-91146380D01*
X350150285Y-91194000D01*
X350197904Y-91241619D01*
X350245523Y-91336857D01*
X350245523Y-91432095D01*
X350197904Y-91574952D01*
X349626476Y-92146380D01*
X350245523Y-92146380D01*
X347059428Y-96416761D02*
X347202285Y-96464380D01*
X347440380Y-96464380D01*
X347535619Y-96416761D01*
X347583238Y-96369142D01*
X347630857Y-96273904D01*
X347630857Y-96178666D01*
X347583238Y-96083428D01*
X347535619Y-96035809D01*
X347440380Y-95988190D01*
X347249904Y-95940571D01*
X347154666Y-95892952D01*
X347107047Y-95845333D01*
X347059428Y-95750095D01*
X347059428Y-95654857D01*
X347107047Y-95559619D01*
X347154666Y-95512000D01*
X347249904Y-95464380D01*
X347488000Y-95464380D01*
X347630857Y-95512000D01*
X348059428Y-96464380D02*
X348059428Y-95797714D01*
X348059428Y-95464380D02*
X348011809Y-95512000D01*
X348059428Y-95559619D01*
X348107047Y-95512000D01*
X348059428Y-95464380D01*
X348059428Y-95559619D01*
X348964190Y-95797714D02*
X348964190Y-96607238D01*
X348916571Y-96702476D01*
X348868952Y-96750095D01*
X348773714Y-96797714D01*
X348630857Y-96797714D01*
X348535619Y-96750095D01*
X348964190Y-96416761D02*
X348868952Y-96464380D01*
X348678476Y-96464380D01*
X348583238Y-96416761D01*
X348535619Y-96369142D01*
X348488000Y-96273904D01*
X348488000Y-95988190D01*
X348535619Y-95892952D01*
X348583238Y-95845333D01*
X348678476Y-95797714D01*
X348868952Y-95797714D01*
X348964190Y-95845333D01*
X349440380Y-95797714D02*
X349440380Y-96464380D01*
X349440380Y-95892952D02*
X349488000Y-95845333D01*
X349583238Y-95797714D01*
X349726095Y-95797714D01*
X349821333Y-95845333D01*
X349868952Y-95940571D01*
X349868952Y-96464380D01*
%TO.C,SW23*%
X130339427Y-105052761D02*
X130482284Y-105100380D01*
X130720379Y-105100380D01*
X130815617Y-105052761D01*
X130863236Y-105005142D01*
X130910855Y-104909904D01*
X130910855Y-104814666D01*
X130863236Y-104719428D01*
X130815617Y-104671809D01*
X130720379Y-104624190D01*
X130529903Y-104576571D01*
X130434665Y-104528952D01*
X130387046Y-104481333D01*
X130339427Y-104386095D01*
X130339427Y-104290857D01*
X130387046Y-104195619D01*
X130434665Y-104148000D01*
X130529903Y-104100380D01*
X130767998Y-104100380D01*
X130910855Y-104148000D01*
X131244189Y-104100380D02*
X131482284Y-105100380D01*
X131672760Y-104386095D01*
X131863236Y-105100380D01*
X132101331Y-104100380D01*
X132434665Y-104195619D02*
X132482284Y-104148000D01*
X132577522Y-104100380D01*
X132815617Y-104100380D01*
X132910855Y-104148000D01*
X132958474Y-104195619D01*
X133006093Y-104290857D01*
X133006093Y-104386095D01*
X132958474Y-104528952D01*
X132387046Y-105100380D01*
X133006093Y-105100380D01*
X133339427Y-104100380D02*
X133958474Y-104100380D01*
X133625141Y-104481333D01*
X133767998Y-104481333D01*
X133863236Y-104528952D01*
X133910855Y-104576571D01*
X133958474Y-104671809D01*
X133958474Y-104909904D01*
X133910855Y-105005142D01*
X133863236Y-105052761D01*
X133767998Y-105100380D01*
X133482284Y-105100380D01*
X133387046Y-105052761D01*
X133339427Y-105005142D01*
X132315617Y-108990571D02*
X131982284Y-108990571D01*
X131982284Y-109514380D02*
X131982284Y-108514380D01*
X132458474Y-108514380D01*
X132744189Y-108514380D02*
X133363236Y-108514380D01*
X133029903Y-108895333D01*
X133172760Y-108895333D01*
X133267998Y-108942952D01*
X133315617Y-108990571D01*
X133363236Y-109085809D01*
X133363236Y-109323904D01*
X133315617Y-109419142D01*
X133267998Y-109466761D01*
X133172760Y-109514380D01*
X132887046Y-109514380D01*
X132791808Y-109466761D01*
X132744189Y-109419142D01*
%TO.C,SW18*%
X46577476Y-72921761D02*
X46720333Y-72969380D01*
X46958428Y-72969380D01*
X47053666Y-72921761D01*
X47101285Y-72874142D01*
X47148904Y-72778904D01*
X47148904Y-72683666D01*
X47101285Y-72588428D01*
X47053666Y-72540809D01*
X46958428Y-72493190D01*
X46767952Y-72445571D01*
X46672714Y-72397952D01*
X46625095Y-72350333D01*
X46577476Y-72255095D01*
X46577476Y-72159857D01*
X46625095Y-72064619D01*
X46672714Y-72017000D01*
X46767952Y-71969380D01*
X47006047Y-71969380D01*
X47148904Y-72017000D01*
X47482238Y-71969380D02*
X47720333Y-72969380D01*
X47910809Y-72255095D01*
X48101285Y-72969380D01*
X48339380Y-71969380D01*
X49244142Y-72969380D02*
X48672714Y-72969380D01*
X48958428Y-72969380D02*
X48958428Y-71969380D01*
X48863190Y-72112238D01*
X48767952Y-72207476D01*
X48672714Y-72255095D01*
X49815571Y-72397952D02*
X49720333Y-72350333D01*
X49672714Y-72302714D01*
X49625095Y-72207476D01*
X49625095Y-72159857D01*
X49672714Y-72064619D01*
X49720333Y-72017000D01*
X49815571Y-71969380D01*
X50006047Y-71969380D01*
X50101285Y-72017000D01*
X50148904Y-72064619D01*
X50196523Y-72159857D01*
X50196523Y-72207476D01*
X50148904Y-72302714D01*
X50101285Y-72350333D01*
X50006047Y-72397952D01*
X49815571Y-72397952D01*
X49720333Y-72445571D01*
X49672714Y-72493190D01*
X49625095Y-72588428D01*
X49625095Y-72778904D01*
X49672714Y-72874142D01*
X49720333Y-72921761D01*
X49815571Y-72969380D01*
X50006047Y-72969380D01*
X50101285Y-72921761D01*
X50148904Y-72874142D01*
X50196523Y-72778904D01*
X50196523Y-72588428D01*
X50148904Y-72493190D01*
X50101285Y-72445571D01*
X50006047Y-72397952D01*
X47985809Y-77415142D02*
X47938190Y-77462761D01*
X47795333Y-77510380D01*
X47700095Y-77510380D01*
X47557238Y-77462761D01*
X47462000Y-77367523D01*
X47414380Y-77272285D01*
X47366761Y-77081809D01*
X47366761Y-76938952D01*
X47414380Y-76748476D01*
X47462000Y-76653238D01*
X47557238Y-76558000D01*
X47700095Y-76510380D01*
X47795333Y-76510380D01*
X47938190Y-76558000D01*
X47985809Y-76605619D01*
X48557238Y-77510380D02*
X48462000Y-77462761D01*
X48414380Y-77415142D01*
X48366761Y-77319904D01*
X48366761Y-77034190D01*
X48414380Y-76938952D01*
X48462000Y-76891333D01*
X48557238Y-76843714D01*
X48700095Y-76843714D01*
X48795333Y-76891333D01*
X48842952Y-76938952D01*
X48890571Y-77034190D01*
X48890571Y-77319904D01*
X48842952Y-77415142D01*
X48795333Y-77462761D01*
X48700095Y-77510380D01*
X48557238Y-77510380D01*
X49319142Y-76843714D02*
X49319142Y-77843714D01*
X49319142Y-76891333D02*
X49414380Y-76843714D01*
X49604857Y-76843714D01*
X49700095Y-76891333D01*
X49747714Y-76938952D01*
X49795333Y-77034190D01*
X49795333Y-77319904D01*
X49747714Y-77415142D01*
X49700095Y-77462761D01*
X49604857Y-77510380D01*
X49414380Y-77510380D01*
X49319142Y-77462761D01*
X50128666Y-76843714D02*
X50366761Y-77510380D01*
X50604857Y-76843714D02*
X50366761Y-77510380D01*
X50271523Y-77748476D01*
X50223904Y-77796095D01*
X50128666Y-77843714D01*
%TO.C,SW26*%
X336212476Y-92098761D02*
X336355333Y-92146380D01*
X336593428Y-92146380D01*
X336688666Y-92098761D01*
X336736285Y-92051142D01*
X336783904Y-91955904D01*
X336783904Y-91860666D01*
X336736285Y-91765428D01*
X336688666Y-91717809D01*
X336593428Y-91670190D01*
X336402952Y-91622571D01*
X336307714Y-91574952D01*
X336260095Y-91527333D01*
X336212476Y-91432095D01*
X336212476Y-91336857D01*
X336260095Y-91241619D01*
X336307714Y-91194000D01*
X336402952Y-91146380D01*
X336641047Y-91146380D01*
X336783904Y-91194000D01*
X337117238Y-91146380D02*
X337355333Y-92146380D01*
X337545809Y-91432095D01*
X337736285Y-92146380D01*
X337974380Y-91146380D01*
X338307714Y-91241619D02*
X338355333Y-91194000D01*
X338450571Y-91146380D01*
X338688666Y-91146380D01*
X338783904Y-91194000D01*
X338831523Y-91241619D01*
X338879142Y-91336857D01*
X338879142Y-91432095D01*
X338831523Y-91574952D01*
X338260095Y-92146380D01*
X338879142Y-92146380D01*
X339736285Y-91146380D02*
X339545809Y-91146380D01*
X339450571Y-91194000D01*
X339402952Y-91241619D01*
X339307714Y-91384476D01*
X339260095Y-91574952D01*
X339260095Y-91955904D01*
X339307714Y-92051142D01*
X339355333Y-92098761D01*
X339450571Y-92146380D01*
X339641047Y-92146380D01*
X339736285Y-92098761D01*
X339783904Y-92051142D01*
X339831523Y-91955904D01*
X339831523Y-91717809D01*
X339783904Y-91622571D01*
X339736285Y-91574952D01*
X339641047Y-91527333D01*
X339450571Y-91527333D01*
X339355333Y-91574952D01*
X339307714Y-91622571D01*
X339260095Y-91717809D01*
X338026380Y-95464380D02*
X338121619Y-95464380D01*
X338216857Y-95512000D01*
X338264476Y-95559619D01*
X338312095Y-95654857D01*
X338359714Y-95845333D01*
X338359714Y-96083428D01*
X338312095Y-96273904D01*
X338264476Y-96369142D01*
X338216857Y-96416761D01*
X338121619Y-96464380D01*
X338026380Y-96464380D01*
X337931142Y-96416761D01*
X337883523Y-96369142D01*
X337835904Y-96273904D01*
X337788285Y-96083428D01*
X337788285Y-95845333D01*
X337835904Y-95654857D01*
X337883523Y-95559619D01*
X337931142Y-95512000D01*
X338026380Y-95464380D01*
%TO.C,SW34*%
X346626476Y-74318761D02*
X346769333Y-74366380D01*
X347007428Y-74366380D01*
X347102666Y-74318761D01*
X347150285Y-74271142D01*
X347197904Y-74175904D01*
X347197904Y-74080666D01*
X347150285Y-73985428D01*
X347102666Y-73937809D01*
X347007428Y-73890190D01*
X346816952Y-73842571D01*
X346721714Y-73794952D01*
X346674095Y-73747333D01*
X346626476Y-73652095D01*
X346626476Y-73556857D01*
X346674095Y-73461619D01*
X346721714Y-73414000D01*
X346816952Y-73366380D01*
X347055047Y-73366380D01*
X347197904Y-73414000D01*
X347531238Y-73366380D02*
X347769333Y-74366380D01*
X347959809Y-73652095D01*
X348150285Y-74366380D01*
X348388380Y-73366380D01*
X348674095Y-73366380D02*
X349293142Y-73366380D01*
X348959809Y-73747333D01*
X349102666Y-73747333D01*
X349197904Y-73794952D01*
X349245523Y-73842571D01*
X349293142Y-73937809D01*
X349293142Y-74175904D01*
X349245523Y-74271142D01*
X349197904Y-74318761D01*
X349102666Y-74366380D01*
X348816952Y-74366380D01*
X348721714Y-74318761D01*
X348674095Y-74271142D01*
X350150285Y-73699714D02*
X350150285Y-74366380D01*
X349912190Y-73318761D02*
X349674095Y-74033047D01*
X350293142Y-74033047D01*
X348726095Y-77684380D02*
X348249904Y-77684380D01*
X348202285Y-78160571D01*
X348249904Y-78112952D01*
X348345142Y-78065333D01*
X348583238Y-78065333D01*
X348678476Y-78112952D01*
X348726095Y-78160571D01*
X348773714Y-78255809D01*
X348773714Y-78493904D01*
X348726095Y-78589142D01*
X348678476Y-78636761D01*
X348583238Y-78684380D01*
X348345142Y-78684380D01*
X348249904Y-78636761D01*
X348202285Y-78589142D01*
%TO.C,SW27*%
X336212476Y-74318761D02*
X336355333Y-74366380D01*
X336593428Y-74366380D01*
X336688666Y-74318761D01*
X336736285Y-74271142D01*
X336783904Y-74175904D01*
X336783904Y-74080666D01*
X336736285Y-73985428D01*
X336688666Y-73937809D01*
X336593428Y-73890190D01*
X336402952Y-73842571D01*
X336307714Y-73794952D01*
X336260095Y-73747333D01*
X336212476Y-73652095D01*
X336212476Y-73556857D01*
X336260095Y-73461619D01*
X336307714Y-73414000D01*
X336402952Y-73366380D01*
X336641047Y-73366380D01*
X336783904Y-73414000D01*
X337117238Y-73366380D02*
X337355333Y-74366380D01*
X337545809Y-73652095D01*
X337736285Y-74366380D01*
X337974380Y-73366380D01*
X338307714Y-73461619D02*
X338355333Y-73414000D01*
X338450571Y-73366380D01*
X338688666Y-73366380D01*
X338783904Y-73414000D01*
X338831523Y-73461619D01*
X338879142Y-73556857D01*
X338879142Y-73652095D01*
X338831523Y-73794952D01*
X338260095Y-74366380D01*
X338879142Y-74366380D01*
X339212476Y-73366380D02*
X339879142Y-73366380D01*
X339450571Y-74366380D01*
X338264476Y-78017714D02*
X338264476Y-78684380D01*
X338026380Y-77636761D02*
X337788285Y-78351047D01*
X338407333Y-78351047D01*
%TO.C,SW29*%
X147841236Y-105052761D02*
X147984093Y-105100380D01*
X148222188Y-105100380D01*
X148317426Y-105052761D01*
X148365045Y-105005142D01*
X148412664Y-104909904D01*
X148412664Y-104814666D01*
X148365045Y-104719428D01*
X148317426Y-104671809D01*
X148222188Y-104624190D01*
X148031712Y-104576571D01*
X147936474Y-104528952D01*
X147888855Y-104481333D01*
X147841236Y-104386095D01*
X147841236Y-104290857D01*
X147888855Y-104195619D01*
X147936474Y-104148000D01*
X148031712Y-104100380D01*
X148269807Y-104100380D01*
X148412664Y-104148000D01*
X148745998Y-104100380D02*
X148984093Y-105100380D01*
X149174569Y-104386095D01*
X149365045Y-105100380D01*
X149603140Y-104100380D01*
X149936474Y-104195619D02*
X149984093Y-104148000D01*
X150079331Y-104100380D01*
X150317426Y-104100380D01*
X150412664Y-104148000D01*
X150460283Y-104195619D01*
X150507902Y-104290857D01*
X150507902Y-104386095D01*
X150460283Y-104528952D01*
X149888855Y-105100380D01*
X150507902Y-105100380D01*
X150984093Y-105100380D02*
X151174569Y-105100380D01*
X151269807Y-105052761D01*
X151317426Y-105005142D01*
X151412664Y-104862285D01*
X151460283Y-104671809D01*
X151460283Y-104290857D01*
X151412664Y-104195619D01*
X151365045Y-104148000D01*
X151269807Y-104100380D01*
X151079331Y-104100380D01*
X150984093Y-104148000D01*
X150936474Y-104195619D01*
X150888855Y-104290857D01*
X150888855Y-104528952D01*
X150936474Y-104624190D01*
X150984093Y-104671809D01*
X151079331Y-104719428D01*
X151269807Y-104719428D01*
X151365045Y-104671809D01*
X151412664Y-104624190D01*
X151460283Y-104528952D01*
X149817426Y-108990571D02*
X149484093Y-108990571D01*
X149484093Y-109514380D02*
X149484093Y-108514380D01*
X149960283Y-108514380D01*
X150769807Y-108847714D02*
X150769807Y-109514380D01*
X150531712Y-108466761D02*
X150293617Y-109181047D01*
X150912664Y-109181047D01*
%TO.C,SW31*%
X35476476Y-82700761D02*
X35619333Y-82748380D01*
X35857428Y-82748380D01*
X35952666Y-82700761D01*
X36000285Y-82653142D01*
X36047904Y-82557904D01*
X36047904Y-82462666D01*
X36000285Y-82367428D01*
X35952666Y-82319809D01*
X35857428Y-82272190D01*
X35666952Y-82224571D01*
X35571714Y-82176952D01*
X35524095Y-82129333D01*
X35476476Y-82034095D01*
X35476476Y-81938857D01*
X35524095Y-81843619D01*
X35571714Y-81796000D01*
X35666952Y-81748380D01*
X35905047Y-81748380D01*
X36047904Y-81796000D01*
X36381238Y-81748380D02*
X36619333Y-82748380D01*
X36809809Y-82034095D01*
X37000285Y-82748380D01*
X37238380Y-81748380D01*
X37524095Y-81748380D02*
X38143142Y-81748380D01*
X37809809Y-82129333D01*
X37952666Y-82129333D01*
X38047904Y-82176952D01*
X38095523Y-82224571D01*
X38143142Y-82319809D01*
X38143142Y-82557904D01*
X38095523Y-82653142D01*
X38047904Y-82700761D01*
X37952666Y-82748380D01*
X37666952Y-82748380D01*
X37571714Y-82700761D01*
X37524095Y-82653142D01*
X39095523Y-82748380D02*
X38524095Y-82748380D01*
X38809809Y-82748380D02*
X38809809Y-81748380D01*
X38714571Y-81891238D01*
X38619333Y-81986476D01*
X38524095Y-82034095D01*
X34166952Y-86638571D02*
X34500285Y-86638571D01*
X34643142Y-87162380D02*
X34166952Y-87162380D01*
X34166952Y-86162380D01*
X34643142Y-86162380D01*
X35405047Y-86638571D02*
X35071714Y-86638571D01*
X35071714Y-87162380D02*
X35071714Y-86162380D01*
X35547904Y-86162380D01*
X37024095Y-86638571D02*
X37166952Y-86686190D01*
X37214571Y-86733809D01*
X37262190Y-86829047D01*
X37262190Y-86971904D01*
X37214571Y-87067142D01*
X37166952Y-87114761D01*
X37071714Y-87162380D01*
X36690761Y-87162380D01*
X36690761Y-86162380D01*
X37024095Y-86162380D01*
X37119333Y-86210000D01*
X37166952Y-86257619D01*
X37214571Y-86352857D01*
X37214571Y-86448095D01*
X37166952Y-86543333D01*
X37119333Y-86590952D01*
X37024095Y-86638571D01*
X36690761Y-86638571D01*
X37595523Y-86495714D02*
X37833619Y-87162380D01*
X38071714Y-86495714D02*
X37833619Y-87162380D01*
X37738380Y-87400476D01*
X37690761Y-87448095D01*
X37595523Y-87495714D01*
X38452666Y-86495714D02*
X38452666Y-87495714D01*
X38452666Y-86543333D02*
X38547904Y-86495714D01*
X38738380Y-86495714D01*
X38833619Y-86543333D01*
X38881238Y-86590952D01*
X38928857Y-86686190D01*
X38928857Y-86971904D01*
X38881238Y-87067142D01*
X38833619Y-87114761D01*
X38738380Y-87162380D01*
X38547904Y-87162380D01*
X38452666Y-87114761D01*
X39786000Y-87162380D02*
X39786000Y-86638571D01*
X39738380Y-86543333D01*
X39643142Y-86495714D01*
X39452666Y-86495714D01*
X39357428Y-86543333D01*
X39786000Y-87114761D02*
X39690761Y-87162380D01*
X39452666Y-87162380D01*
X39357428Y-87114761D01*
X39309809Y-87019523D01*
X39309809Y-86924285D01*
X39357428Y-86829047D01*
X39452666Y-86781428D01*
X39690761Y-86781428D01*
X39786000Y-86733809D01*
X40214571Y-87114761D02*
X40309809Y-87162380D01*
X40500285Y-87162380D01*
X40595523Y-87114761D01*
X40643142Y-87019523D01*
X40643142Y-86971904D01*
X40595523Y-86876666D01*
X40500285Y-86829047D01*
X40357428Y-86829047D01*
X40262190Y-86781428D01*
X40214571Y-86686190D01*
X40214571Y-86638571D01*
X40262190Y-86543333D01*
X40357428Y-86495714D01*
X40500285Y-86495714D01*
X40595523Y-86543333D01*
X41024095Y-87114761D02*
X41119333Y-87162380D01*
X41309809Y-87162380D01*
X41405047Y-87114761D01*
X41452666Y-87019523D01*
X41452666Y-86971904D01*
X41405047Y-86876666D01*
X41309809Y-86829047D01*
X41166952Y-86829047D01*
X41071714Y-86781428D01*
X41024095Y-86686190D01*
X41024095Y-86638571D01*
X41071714Y-86543333D01*
X41166952Y-86495714D01*
X41309809Y-86495714D01*
X41405047Y-86543333D01*
%TO.C,SW35*%
X299382476Y-83208761D02*
X299525333Y-83256380D01*
X299763428Y-83256380D01*
X299858666Y-83208761D01*
X299906285Y-83161142D01*
X299953904Y-83065904D01*
X299953904Y-82970666D01*
X299906285Y-82875428D01*
X299858666Y-82827809D01*
X299763428Y-82780190D01*
X299572952Y-82732571D01*
X299477714Y-82684952D01*
X299430095Y-82637333D01*
X299382476Y-82542095D01*
X299382476Y-82446857D01*
X299430095Y-82351619D01*
X299477714Y-82304000D01*
X299572952Y-82256380D01*
X299811047Y-82256380D01*
X299953904Y-82304000D01*
X300287238Y-82256380D02*
X300525333Y-83256380D01*
X300715809Y-82542095D01*
X300906285Y-83256380D01*
X301144380Y-82256380D01*
X301430095Y-82256380D02*
X302049142Y-82256380D01*
X301715809Y-82637333D01*
X301858666Y-82637333D01*
X301953904Y-82684952D01*
X302001523Y-82732571D01*
X302049142Y-82827809D01*
X302049142Y-83065904D01*
X302001523Y-83161142D01*
X301953904Y-83208761D01*
X301858666Y-83256380D01*
X301572952Y-83256380D01*
X301477714Y-83208761D01*
X301430095Y-83161142D01*
X302953904Y-82256380D02*
X302477714Y-82256380D01*
X302430095Y-82732571D01*
X302477714Y-82684952D01*
X302572952Y-82637333D01*
X302811047Y-82637333D01*
X302906285Y-82684952D01*
X302953904Y-82732571D01*
X303001523Y-82827809D01*
X303001523Y-83065904D01*
X302953904Y-83161142D01*
X302906285Y-83208761D01*
X302811047Y-83256380D01*
X302572952Y-83256380D01*
X302477714Y-83208761D01*
X302430095Y-83161142D01*
X298632857Y-87289428D02*
X299394761Y-87289428D01*
X300394761Y-87670380D02*
X299823333Y-87670380D01*
X300109047Y-87670380D02*
X300109047Y-86670380D01*
X300013809Y-86813238D01*
X299918571Y-86908476D01*
X299823333Y-86956095D01*
X301537619Y-86622761D02*
X300680476Y-87908476D01*
X301870952Y-87670380D02*
X301870952Y-86670380D01*
X302442380Y-87670380D01*
X302442380Y-86670380D01*
X303061428Y-87670380D02*
X302966190Y-87622761D01*
X302918571Y-87575142D01*
X302870952Y-87479904D01*
X302870952Y-87194190D01*
X302918571Y-87098952D01*
X302966190Y-87051333D01*
X303061428Y-87003714D01*
X303204285Y-87003714D01*
X303299523Y-87051333D01*
X303347142Y-87098952D01*
X303394761Y-87194190D01*
X303394761Y-87479904D01*
X303347142Y-87575142D01*
X303299523Y-87622761D01*
X303204285Y-87670380D01*
X303061428Y-87670380D01*
%TO.C,SW33*%
X165343045Y-105052761D02*
X165485902Y-105100380D01*
X165723997Y-105100380D01*
X165819235Y-105052761D01*
X165866854Y-105005142D01*
X165914473Y-104909904D01*
X165914473Y-104814666D01*
X165866854Y-104719428D01*
X165819235Y-104671809D01*
X165723997Y-104624190D01*
X165533521Y-104576571D01*
X165438283Y-104528952D01*
X165390664Y-104481333D01*
X165343045Y-104386095D01*
X165343045Y-104290857D01*
X165390664Y-104195619D01*
X165438283Y-104148000D01*
X165533521Y-104100380D01*
X165771616Y-104100380D01*
X165914473Y-104148000D01*
X166247807Y-104100380D02*
X166485902Y-105100380D01*
X166676378Y-104386095D01*
X166866854Y-105100380D01*
X167104949Y-104100380D01*
X167390664Y-104100380D02*
X168009711Y-104100380D01*
X167676378Y-104481333D01*
X167819235Y-104481333D01*
X167914473Y-104528952D01*
X167962092Y-104576571D01*
X168009711Y-104671809D01*
X168009711Y-104909904D01*
X167962092Y-105005142D01*
X167914473Y-105052761D01*
X167819235Y-105100380D01*
X167533521Y-105100380D01*
X167438283Y-105052761D01*
X167390664Y-105005142D01*
X168343045Y-104100380D02*
X168962092Y-104100380D01*
X168628759Y-104481333D01*
X168771616Y-104481333D01*
X168866854Y-104528952D01*
X168914473Y-104576571D01*
X168962092Y-104671809D01*
X168962092Y-104909904D01*
X168914473Y-105005142D01*
X168866854Y-105052761D01*
X168771616Y-105100380D01*
X168485902Y-105100380D01*
X168390664Y-105052761D01*
X168343045Y-105005142D01*
X167319235Y-108990571D02*
X166985902Y-108990571D01*
X166985902Y-109514380D02*
X166985902Y-108514380D01*
X167462092Y-108514380D01*
X168319235Y-108514380D02*
X167843045Y-108514380D01*
X167795426Y-108990571D01*
X167843045Y-108942952D01*
X167938283Y-108895333D01*
X168176378Y-108895333D01*
X168271616Y-108942952D01*
X168319235Y-108990571D01*
X168366854Y-109085809D01*
X168366854Y-109323904D01*
X168319235Y-109419142D01*
X168271616Y-109466761D01*
X168176378Y-109514380D01*
X167938283Y-109514380D01*
X167843045Y-109466761D01*
X167795426Y-109419142D01*
%TO.C,SW17*%
X217815812Y-104925761D02*
X217958669Y-104973380D01*
X218196764Y-104973380D01*
X218292002Y-104925761D01*
X218339621Y-104878142D01*
X218387240Y-104782904D01*
X218387240Y-104687666D01*
X218339621Y-104592428D01*
X218292002Y-104544809D01*
X218196764Y-104497190D01*
X218006288Y-104449571D01*
X217911050Y-104401952D01*
X217863431Y-104354333D01*
X217815812Y-104259095D01*
X217815812Y-104163857D01*
X217863431Y-104068619D01*
X217911050Y-104021000D01*
X218006288Y-103973380D01*
X218244383Y-103973380D01*
X218387240Y-104021000D01*
X218720574Y-103973380D02*
X218958669Y-104973380D01*
X219149145Y-104259095D01*
X219339621Y-104973380D01*
X219577716Y-103973380D01*
X220482478Y-104973380D02*
X219911050Y-104973380D01*
X220196764Y-104973380D02*
X220196764Y-103973380D01*
X220101526Y-104116238D01*
X220006288Y-104211476D01*
X219911050Y-104259095D01*
X220815812Y-103973380D02*
X221482478Y-103973380D01*
X221053907Y-104973380D01*
X219824666Y-108863571D02*
X219491333Y-108863571D01*
X219491333Y-109387380D02*
X219491333Y-108387380D01*
X219967523Y-108387380D01*
X220491333Y-108815952D02*
X220396095Y-108768333D01*
X220348476Y-108720714D01*
X220300857Y-108625476D01*
X220300857Y-108577857D01*
X220348476Y-108482619D01*
X220396095Y-108435000D01*
X220491333Y-108387380D01*
X220681809Y-108387380D01*
X220777047Y-108435000D01*
X220824666Y-108482619D01*
X220872285Y-108577857D01*
X220872285Y-108625476D01*
X220824666Y-108720714D01*
X220777047Y-108768333D01*
X220681809Y-108815952D01*
X220491333Y-108815952D01*
X220396095Y-108863571D01*
X220348476Y-108911190D01*
X220300857Y-109006428D01*
X220300857Y-109196904D01*
X220348476Y-109292142D01*
X220396095Y-109339761D01*
X220491333Y-109387380D01*
X220681809Y-109387380D01*
X220777047Y-109339761D01*
X220824666Y-109292142D01*
X220872285Y-109196904D01*
X220872285Y-109006428D01*
X220824666Y-108911190D01*
X220777047Y-108863571D01*
X220681809Y-108815952D01*
%TO.C,SW48*%
X320210476Y-74318761D02*
X320353333Y-74366380D01*
X320591428Y-74366380D01*
X320686666Y-74318761D01*
X320734285Y-74271142D01*
X320781904Y-74175904D01*
X320781904Y-74080666D01*
X320734285Y-73985428D01*
X320686666Y-73937809D01*
X320591428Y-73890190D01*
X320400952Y-73842571D01*
X320305714Y-73794952D01*
X320258095Y-73747333D01*
X320210476Y-73652095D01*
X320210476Y-73556857D01*
X320258095Y-73461619D01*
X320305714Y-73414000D01*
X320400952Y-73366380D01*
X320639047Y-73366380D01*
X320781904Y-73414000D01*
X321115238Y-73366380D02*
X321353333Y-74366380D01*
X321543809Y-73652095D01*
X321734285Y-74366380D01*
X321972380Y-73366380D01*
X322781904Y-73699714D02*
X322781904Y-74366380D01*
X322543809Y-73318761D02*
X322305714Y-74033047D01*
X322924761Y-74033047D01*
X323448571Y-73794952D02*
X323353333Y-73747333D01*
X323305714Y-73699714D01*
X323258095Y-73604476D01*
X323258095Y-73556857D01*
X323305714Y-73461619D01*
X323353333Y-73414000D01*
X323448571Y-73366380D01*
X323639047Y-73366380D01*
X323734285Y-73414000D01*
X323781904Y-73461619D01*
X323829523Y-73556857D01*
X323829523Y-73604476D01*
X323781904Y-73699714D01*
X323734285Y-73747333D01*
X323639047Y-73794952D01*
X323448571Y-73794952D01*
X323353333Y-73842571D01*
X323305714Y-73890190D01*
X323258095Y-73985428D01*
X323258095Y-74175904D01*
X323305714Y-74271142D01*
X323353333Y-74318761D01*
X323448571Y-74366380D01*
X323639047Y-74366380D01*
X323734285Y-74318761D01*
X323781904Y-74271142D01*
X323829523Y-74175904D01*
X323829523Y-73985428D01*
X323781904Y-73890190D01*
X323734285Y-73842571D01*
X323639047Y-73794952D01*
X320643428Y-77780380D02*
X320643428Y-78494666D01*
X320595809Y-78637523D01*
X320500571Y-78732761D01*
X320357714Y-78780380D01*
X320262476Y-78780380D01*
X321548190Y-78113714D02*
X321548190Y-78780380D01*
X321119619Y-78113714D02*
X321119619Y-78637523D01*
X321167238Y-78732761D01*
X321262476Y-78780380D01*
X321405333Y-78780380D01*
X321500571Y-78732761D01*
X321548190Y-78685142D01*
X322024380Y-78780380D02*
X322024380Y-78113714D01*
X322024380Y-78208952D02*
X322072000Y-78161333D01*
X322167238Y-78113714D01*
X322310095Y-78113714D01*
X322405333Y-78161333D01*
X322452952Y-78256571D01*
X322452952Y-78780380D01*
X322452952Y-78256571D02*
X322500571Y-78161333D01*
X322595809Y-78113714D01*
X322738666Y-78113714D01*
X322833904Y-78161333D01*
X322881523Y-78256571D01*
X322881523Y-78780380D01*
X323357714Y-78113714D02*
X323357714Y-79113714D01*
X323357714Y-78161333D02*
X323452952Y-78113714D01*
X323643428Y-78113714D01*
X323738666Y-78161333D01*
X323786285Y-78208952D01*
X323833904Y-78304190D01*
X323833904Y-78589904D01*
X323786285Y-78685142D01*
X323738666Y-78732761D01*
X323643428Y-78780380D01*
X323452952Y-78780380D01*
X323357714Y-78732761D01*
%TO.C,SW44*%
D15*
X213140904Y-121485047D02*
X213322333Y-121545523D01*
X213624714Y-121545523D01*
X213745666Y-121485047D01*
X213806142Y-121424571D01*
X213866619Y-121303619D01*
X213866619Y-121182666D01*
X213806142Y-121061714D01*
X213745666Y-121001238D01*
X213624714Y-120940761D01*
X213382809Y-120880285D01*
X213261857Y-120819809D01*
X213201380Y-120759333D01*
X213140904Y-120638380D01*
X213140904Y-120517428D01*
X213201380Y-120396476D01*
X213261857Y-120336000D01*
X213382809Y-120275523D01*
X213685190Y-120275523D01*
X213866619Y-120336000D01*
X214289952Y-120275523D02*
X214592333Y-121545523D01*
X214834238Y-120638380D01*
X215076142Y-121545523D01*
X215378523Y-120275523D01*
X216406619Y-120698857D02*
X216406619Y-121545523D01*
X216104238Y-120215047D02*
X215801857Y-121122190D01*
X216588047Y-121122190D01*
X217616142Y-120698857D02*
X217616142Y-121545523D01*
X217313761Y-120215047D02*
X217011380Y-121122190D01*
X217797571Y-121122190D01*
X212378237Y-133505522D02*
X212378237Y-132235522D01*
X213103951Y-133505522D02*
X212559665Y-132779808D01*
X213103951Y-132235522D02*
X212378237Y-132961237D01*
X213648237Y-132658856D02*
X213648237Y-133505522D01*
X213648237Y-132779808D02*
X213708713Y-132719332D01*
X213829665Y-132658856D01*
X214011094Y-132658856D01*
X214132046Y-132719332D01*
X214192522Y-132840284D01*
X214192522Y-133505522D01*
X214978713Y-133505522D02*
X214857760Y-133445046D01*
X214797284Y-133384570D01*
X214736808Y-133263618D01*
X214736808Y-132900760D01*
X214797284Y-132779808D01*
X214857760Y-132719332D01*
X214978713Y-132658856D01*
X215160141Y-132658856D01*
X215281094Y-132719332D01*
X215341570Y-132779808D01*
X215402046Y-132900760D01*
X215402046Y-133263618D01*
X215341570Y-133384570D01*
X215281094Y-133445046D01*
X215160141Y-133505522D01*
X214978713Y-133505522D01*
X215946332Y-133505522D02*
X215946332Y-132235522D01*
X215946332Y-132719332D02*
X216067284Y-132658856D01*
X216309189Y-132658856D01*
X216430141Y-132719332D01*
X216490618Y-132779808D01*
X216551094Y-132900760D01*
X216551094Y-133263618D01*
X216490618Y-133384570D01*
X216430141Y-133445046D01*
X216309189Y-133505522D01*
X216067284Y-133505522D01*
X215946332Y-133445046D01*
X218607284Y-132235522D02*
X218365379Y-132235522D01*
X218244427Y-132295999D01*
X218183951Y-132356475D01*
X218062999Y-132537903D01*
X218002522Y-132779808D01*
X218002522Y-133263618D01*
X218062999Y-133384570D01*
X218123475Y-133445046D01*
X218244427Y-133505522D01*
X218486332Y-133505522D01*
X218607284Y-133445046D01*
X218667760Y-133384570D01*
X218728237Y-133263618D01*
X218728237Y-132961237D01*
X218667760Y-132840284D01*
X218607284Y-132779808D01*
X218486332Y-132719332D01*
X218244427Y-132719332D01*
X218123475Y-132779808D01*
X218062999Y-132840284D01*
X218002522Y-132961237D01*
%TO.C,RV1*%
D10*
X35202261Y-46221880D02*
X34868928Y-45745690D01*
X34630833Y-46221880D02*
X34630833Y-45221880D01*
X35011785Y-45221880D01*
X35107023Y-45269500D01*
X35154642Y-45317119D01*
X35202261Y-45412357D01*
X35202261Y-45555214D01*
X35154642Y-45650452D01*
X35107023Y-45698071D01*
X35011785Y-45745690D01*
X34630833Y-45745690D01*
X35487976Y-45221880D02*
X35821309Y-46221880D01*
X36154642Y-45221880D01*
X37011785Y-46221880D02*
X36440357Y-46221880D01*
X36726071Y-46221880D02*
X36726071Y-45221880D01*
X36630833Y-45364738D01*
X36535595Y-45459976D01*
X36440357Y-45507595D01*
X43568880Y-56284285D02*
X43568880Y-56760476D01*
X42568880Y-56760476D01*
X43473642Y-55379523D02*
X43521261Y-55427142D01*
X43568880Y-55570000D01*
X43568880Y-55665238D01*
X43521261Y-55808095D01*
X43426023Y-55903333D01*
X43330785Y-55950952D01*
X43140309Y-55998571D01*
X42997452Y-55998571D01*
X42806976Y-55950952D01*
X42711738Y-55903333D01*
X42616500Y-55808095D01*
X42568880Y-55665238D01*
X42568880Y-55570000D01*
X42616500Y-55427142D01*
X42664119Y-55379523D01*
X43568880Y-54950952D02*
X42568880Y-54950952D01*
X42568880Y-54712857D01*
X42616500Y-54570000D01*
X42711738Y-54474761D01*
X42806976Y-54427142D01*
X42997452Y-54379523D01*
X43140309Y-54379523D01*
X43330785Y-54427142D01*
X43426023Y-54474761D01*
X43521261Y-54570000D01*
X43568880Y-54712857D01*
X43568880Y-54950952D01*
X43473642Y-52617619D02*
X43521261Y-52665238D01*
X43568880Y-52808095D01*
X43568880Y-52903333D01*
X43521261Y-53046190D01*
X43426023Y-53141428D01*
X43330785Y-53189047D01*
X43140309Y-53236666D01*
X42997452Y-53236666D01*
X42806976Y-53189047D01*
X42711738Y-53141428D01*
X42616500Y-53046190D01*
X42568880Y-52903333D01*
X42568880Y-52808095D01*
X42616500Y-52665238D01*
X42664119Y-52617619D01*
X43568880Y-52046190D02*
X43521261Y-52141428D01*
X43473642Y-52189047D01*
X43378404Y-52236666D01*
X43092690Y-52236666D01*
X42997452Y-52189047D01*
X42949833Y-52141428D01*
X42902214Y-52046190D01*
X42902214Y-51903333D01*
X42949833Y-51808095D01*
X42997452Y-51760476D01*
X43092690Y-51712857D01*
X43378404Y-51712857D01*
X43473642Y-51760476D01*
X43521261Y-51808095D01*
X43568880Y-51903333D01*
X43568880Y-52046190D01*
X42902214Y-51284285D02*
X43568880Y-51284285D01*
X42997452Y-51284285D02*
X42949833Y-51236666D01*
X42902214Y-51141428D01*
X42902214Y-50998571D01*
X42949833Y-50903333D01*
X43045071Y-50855714D01*
X43568880Y-50855714D01*
X42902214Y-50522380D02*
X42902214Y-50141428D01*
X42568880Y-50379523D02*
X43426023Y-50379523D01*
X43521261Y-50331904D01*
X43568880Y-50236666D01*
X43568880Y-50141428D01*
X43568880Y-49808095D02*
X42902214Y-49808095D01*
X43092690Y-49808095D02*
X42997452Y-49760476D01*
X42949833Y-49712857D01*
X42902214Y-49617619D01*
X42902214Y-49522380D01*
X43568880Y-48760476D02*
X43045071Y-48760476D01*
X42949833Y-48808095D01*
X42902214Y-48903333D01*
X42902214Y-49093809D01*
X42949833Y-49189047D01*
X43521261Y-48760476D02*
X43568880Y-48855714D01*
X43568880Y-49093809D01*
X43521261Y-49189047D01*
X43426023Y-49236666D01*
X43330785Y-49236666D01*
X43235547Y-49189047D01*
X43187928Y-49093809D01*
X43187928Y-48855714D01*
X43140309Y-48760476D01*
X43521261Y-48331904D02*
X43568880Y-48236666D01*
X43568880Y-48046190D01*
X43521261Y-47950952D01*
X43426023Y-47903333D01*
X43378404Y-47903333D01*
X43283166Y-47950952D01*
X43235547Y-48046190D01*
X43235547Y-48189047D01*
X43187928Y-48284285D01*
X43092690Y-48331904D01*
X43045071Y-48331904D01*
X42949833Y-48284285D01*
X42902214Y-48189047D01*
X42902214Y-48046190D01*
X42949833Y-47950952D01*
X42902214Y-47617619D02*
X42902214Y-47236666D01*
X42568880Y-47474761D02*
X43426023Y-47474761D01*
X43521261Y-47427142D01*
X43568880Y-47331904D01*
X43568880Y-47236666D01*
%TO.C,SW46*%
D15*
X53946404Y-89798547D02*
X54127833Y-89859023D01*
X54430214Y-89859023D01*
X54551166Y-89798547D01*
X54611642Y-89738071D01*
X54672119Y-89617119D01*
X54672119Y-89496166D01*
X54611642Y-89375214D01*
X54551166Y-89314738D01*
X54430214Y-89254261D01*
X54188309Y-89193785D01*
X54067357Y-89133309D01*
X54006880Y-89072833D01*
X53946404Y-88951880D01*
X53946404Y-88830928D01*
X54006880Y-88709976D01*
X54067357Y-88649500D01*
X54188309Y-88589023D01*
X54490690Y-88589023D01*
X54672119Y-88649500D01*
X55095452Y-88589023D02*
X55397833Y-89859023D01*
X55639738Y-88951880D01*
X55881642Y-89859023D01*
X56184023Y-88589023D01*
X57212119Y-89012357D02*
X57212119Y-89859023D01*
X56909738Y-88528547D02*
X56607357Y-89435690D01*
X57393547Y-89435690D01*
X58421642Y-88589023D02*
X58179738Y-88589023D01*
X58058785Y-88649500D01*
X57998309Y-88709976D01*
X57877357Y-88891404D01*
X57816880Y-89133309D01*
X57816880Y-89617119D01*
X57877357Y-89738071D01*
X57937833Y-89798547D01*
X58058785Y-89859023D01*
X58300690Y-89859023D01*
X58421642Y-89798547D01*
X58482119Y-89738071D01*
X58542595Y-89617119D01*
X58542595Y-89314738D01*
X58482119Y-89193785D01*
X58421642Y-89133309D01*
X58300690Y-89072833D01*
X58058785Y-89072833D01*
X57937833Y-89133309D01*
X57877357Y-89193785D01*
X57816880Y-89314738D01*
X52948547Y-100736022D02*
X53371880Y-102006022D01*
X53795214Y-100736022D01*
X54399976Y-102006022D02*
X54279023Y-101945546D01*
X54218547Y-101885070D01*
X54158071Y-101764118D01*
X54158071Y-101401260D01*
X54218547Y-101280308D01*
X54279023Y-101219832D01*
X54399976Y-101159356D01*
X54581404Y-101159356D01*
X54702357Y-101219832D01*
X54762833Y-101280308D01*
X54823309Y-101401260D01*
X54823309Y-101764118D01*
X54762833Y-101885070D01*
X54702357Y-101945546D01*
X54581404Y-102006022D01*
X54399976Y-102006022D01*
X55549023Y-102006022D02*
X55428071Y-101945546D01*
X55367595Y-101824594D01*
X55367595Y-100736022D01*
X56577119Y-101159356D02*
X56577119Y-102006022D01*
X56032833Y-101159356D02*
X56032833Y-101824594D01*
X56093309Y-101945546D01*
X56214261Y-102006022D01*
X56395690Y-102006022D01*
X56516642Y-101945546D01*
X56577119Y-101885070D01*
X57181880Y-102006022D02*
X57181880Y-101159356D01*
X57181880Y-101280308D02*
X57242357Y-101219832D01*
X57363309Y-101159356D01*
X57544738Y-101159356D01*
X57665690Y-101219832D01*
X57726166Y-101340784D01*
X57726166Y-102006022D01*
X57726166Y-101340784D02*
X57786642Y-101219832D01*
X57907595Y-101159356D01*
X58089023Y-101159356D01*
X58209976Y-101219832D01*
X58270452Y-101340784D01*
X58270452Y-102006022D01*
X59359023Y-101945546D02*
X59238071Y-102006022D01*
X58996166Y-102006022D01*
X58875214Y-101945546D01*
X58814738Y-101824594D01*
X58814738Y-101340784D01*
X58875214Y-101219832D01*
X58996166Y-101159356D01*
X59238071Y-101159356D01*
X59359023Y-101219832D01*
X59419500Y-101340784D01*
X59419500Y-101461737D01*
X58814738Y-101582689D01*
%TO.C,RV2*%
D10*
X50124761Y-46221880D02*
X49791428Y-45745690D01*
X49553333Y-46221880D02*
X49553333Y-45221880D01*
X49934285Y-45221880D01*
X50029523Y-45269500D01*
X50077142Y-45317119D01*
X50124761Y-45412357D01*
X50124761Y-45555214D01*
X50077142Y-45650452D01*
X50029523Y-45698071D01*
X49934285Y-45745690D01*
X49553333Y-45745690D01*
X50410476Y-45221880D02*
X50743809Y-46221880D01*
X51077142Y-45221880D01*
X51362857Y-45317119D02*
X51410476Y-45269500D01*
X51505714Y-45221880D01*
X51743809Y-45221880D01*
X51839047Y-45269500D01*
X51886666Y-45317119D01*
X51934285Y-45412357D01*
X51934285Y-45507595D01*
X51886666Y-45650452D01*
X51315238Y-46221880D01*
X51934285Y-46221880D01*
X58427880Y-56879500D02*
X58427880Y-57355690D01*
X57427880Y-57355690D01*
X58332642Y-55974738D02*
X58380261Y-56022357D01*
X58427880Y-56165214D01*
X58427880Y-56260452D01*
X58380261Y-56403309D01*
X58285023Y-56498547D01*
X58189785Y-56546166D01*
X57999309Y-56593785D01*
X57856452Y-56593785D01*
X57665976Y-56546166D01*
X57570738Y-56498547D01*
X57475500Y-56403309D01*
X57427880Y-56260452D01*
X57427880Y-56165214D01*
X57475500Y-56022357D01*
X57523119Y-55974738D01*
X58427880Y-55546166D02*
X57427880Y-55546166D01*
X57427880Y-55308071D01*
X57475500Y-55165214D01*
X57570738Y-55069976D01*
X57665976Y-55022357D01*
X57856452Y-54974738D01*
X57999309Y-54974738D01*
X58189785Y-55022357D01*
X58285023Y-55069976D01*
X58380261Y-55165214D01*
X58427880Y-55308071D01*
X58427880Y-55546166D01*
X57904071Y-53450928D02*
X57951690Y-53308071D01*
X57999309Y-53260452D01*
X58094547Y-53212833D01*
X58237404Y-53212833D01*
X58332642Y-53260452D01*
X58380261Y-53308071D01*
X58427880Y-53403309D01*
X58427880Y-53784261D01*
X57427880Y-53784261D01*
X57427880Y-53450928D01*
X57475500Y-53355690D01*
X57523119Y-53308071D01*
X57618357Y-53260452D01*
X57713595Y-53260452D01*
X57808833Y-53308071D01*
X57856452Y-53355690D01*
X57904071Y-53450928D01*
X57904071Y-53784261D01*
X58427880Y-52784261D02*
X57761214Y-52784261D01*
X57951690Y-52784261D02*
X57856452Y-52736642D01*
X57808833Y-52689023D01*
X57761214Y-52593785D01*
X57761214Y-52498547D01*
X58427880Y-52165214D02*
X57761214Y-52165214D01*
X57427880Y-52165214D02*
X57475500Y-52212833D01*
X57523119Y-52165214D01*
X57475500Y-52117595D01*
X57427880Y-52165214D01*
X57523119Y-52165214D01*
X57761214Y-51260452D02*
X58570738Y-51260452D01*
X58665976Y-51308071D01*
X58713595Y-51355690D01*
X58761214Y-51450928D01*
X58761214Y-51593785D01*
X58713595Y-51689023D01*
X58380261Y-51260452D02*
X58427880Y-51355690D01*
X58427880Y-51546166D01*
X58380261Y-51641404D01*
X58332642Y-51689023D01*
X58237404Y-51736642D01*
X57951690Y-51736642D01*
X57856452Y-51689023D01*
X57808833Y-51641404D01*
X57761214Y-51546166D01*
X57761214Y-51355690D01*
X57808833Y-51260452D01*
X58427880Y-50784261D02*
X57427880Y-50784261D01*
X58427880Y-50355690D02*
X57904071Y-50355690D01*
X57808833Y-50403309D01*
X57761214Y-50498547D01*
X57761214Y-50641404D01*
X57808833Y-50736642D01*
X57856452Y-50784261D01*
X57761214Y-50022357D02*
X57761214Y-49641404D01*
X57427880Y-49879500D02*
X58285023Y-49879500D01*
X58380261Y-49831880D01*
X58427880Y-49736642D01*
X58427880Y-49641404D01*
X57761214Y-49308071D02*
X58427880Y-49308071D01*
X57856452Y-49308071D02*
X57808833Y-49260452D01*
X57761214Y-49165214D01*
X57761214Y-49022357D01*
X57808833Y-48927119D01*
X57904071Y-48879500D01*
X58427880Y-48879500D01*
X58380261Y-48022357D02*
X58427880Y-48117595D01*
X58427880Y-48308071D01*
X58380261Y-48403309D01*
X58285023Y-48450928D01*
X57904071Y-48450928D01*
X57808833Y-48403309D01*
X57761214Y-48308071D01*
X57761214Y-48117595D01*
X57808833Y-48022357D01*
X57904071Y-47974738D01*
X57999309Y-47974738D01*
X58094547Y-48450928D01*
X58380261Y-47593785D02*
X58427880Y-47498547D01*
X58427880Y-47308071D01*
X58380261Y-47212833D01*
X58285023Y-47165214D01*
X58237404Y-47165214D01*
X58142166Y-47212833D01*
X58094547Y-47308071D01*
X58094547Y-47450928D01*
X58046928Y-47546166D01*
X57951690Y-47593785D01*
X57904071Y-47593785D01*
X57808833Y-47546166D01*
X57761214Y-47450928D01*
X57761214Y-47308071D01*
X57808833Y-47212833D01*
X58380261Y-46784261D02*
X58427880Y-46689023D01*
X58427880Y-46498547D01*
X58380261Y-46403309D01*
X58285023Y-46355690D01*
X58237404Y-46355690D01*
X58142166Y-46403309D01*
X58094547Y-46498547D01*
X58094547Y-46641404D01*
X58046928Y-46736642D01*
X57951690Y-46784261D01*
X57904071Y-46784261D01*
X57808833Y-46736642D01*
X57761214Y-46641404D01*
X57761214Y-46498547D01*
X57808833Y-46403309D01*
%TO.C,SW50*%
X46652476Y-59364761D02*
X46795333Y-59412380D01*
X47033428Y-59412380D01*
X47128666Y-59364761D01*
X47176285Y-59317142D01*
X47223904Y-59221904D01*
X47223904Y-59126666D01*
X47176285Y-59031428D01*
X47128666Y-58983809D01*
X47033428Y-58936190D01*
X46842952Y-58888571D01*
X46747714Y-58840952D01*
X46700095Y-58793333D01*
X46652476Y-58698095D01*
X46652476Y-58602857D01*
X46700095Y-58507619D01*
X46747714Y-58460000D01*
X46842952Y-58412380D01*
X47081047Y-58412380D01*
X47223904Y-58460000D01*
X47557238Y-58412380D02*
X47795333Y-59412380D01*
X47985809Y-58698095D01*
X48176285Y-59412380D01*
X48414380Y-58412380D01*
X49271523Y-58412380D02*
X48795333Y-58412380D01*
X48747714Y-58888571D01*
X48795333Y-58840952D01*
X48890571Y-58793333D01*
X49128666Y-58793333D01*
X49223904Y-58840952D01*
X49271523Y-58888571D01*
X49319142Y-58983809D01*
X49319142Y-59221904D01*
X49271523Y-59317142D01*
X49223904Y-59364761D01*
X49128666Y-59412380D01*
X48890571Y-59412380D01*
X48795333Y-59364761D01*
X48747714Y-59317142D01*
X49938190Y-58412380D02*
X50033428Y-58412380D01*
X50128666Y-58460000D01*
X50176285Y-58507619D01*
X50223904Y-58602857D01*
X50271523Y-58793333D01*
X50271523Y-59031428D01*
X50223904Y-59221904D01*
X50176285Y-59317142D01*
X50128666Y-59364761D01*
X50033428Y-59412380D01*
X49938190Y-59412380D01*
X49842952Y-59364761D01*
X49795333Y-59317142D01*
X49747714Y-59221904D01*
X49700095Y-59031428D01*
X49700095Y-58793333D01*
X49747714Y-58602857D01*
X49795333Y-58507619D01*
X49842952Y-58460000D01*
X49938190Y-58412380D01*
X47390571Y-68112380D02*
X47390571Y-67112380D01*
X47723904Y-67826666D01*
X48057238Y-67112380D01*
X48057238Y-68112380D01*
X48962000Y-67445714D02*
X48962000Y-68112380D01*
X48533428Y-67445714D02*
X48533428Y-67969523D01*
X48581047Y-68064761D01*
X48676285Y-68112380D01*
X48819142Y-68112380D01*
X48914380Y-68064761D01*
X48962000Y-68017142D01*
X49581047Y-68112380D02*
X49485809Y-68064761D01*
X49438190Y-67969523D01*
X49438190Y-67112380D01*
X49819142Y-67445714D02*
X50200095Y-67445714D01*
X49962000Y-67112380D02*
X49962000Y-67969523D01*
X50009619Y-68064761D01*
X50104857Y-68112380D01*
X50200095Y-68112380D01*
X50533428Y-68112380D02*
X50533428Y-67445714D01*
X50533428Y-67112380D02*
X50485809Y-67160000D01*
X50533428Y-67207619D01*
X50581047Y-67160000D01*
X50533428Y-67112380D01*
X50533428Y-67207619D01*
%TO.C,RV3*%
D15*
X259899523Y-85617952D02*
X259294761Y-86041285D01*
X259899523Y-86343666D02*
X258629523Y-86343666D01*
X258629523Y-85859857D01*
X258690000Y-85738904D01*
X258750476Y-85678428D01*
X258871428Y-85617952D01*
X259052857Y-85617952D01*
X259173809Y-85678428D01*
X259234285Y-85738904D01*
X259294761Y-85859857D01*
X259294761Y-86343666D01*
X258629523Y-85255095D02*
X259899523Y-84831761D01*
X258629523Y-84408428D01*
X258629523Y-84106047D02*
X258629523Y-83319857D01*
X259113333Y-83743190D01*
X259113333Y-83561761D01*
X259173809Y-83440809D01*
X259234285Y-83380333D01*
X259355238Y-83319857D01*
X259657619Y-83319857D01*
X259778571Y-83380333D01*
X259839047Y-83440809D01*
X259899523Y-83561761D01*
X259899523Y-83924619D01*
X259839047Y-84045571D01*
X259778571Y-84106047D01*
X251635380Y-110556523D02*
X251635380Y-109286523D01*
X251937761Y-109286523D01*
X252119190Y-109347000D01*
X252240142Y-109467952D01*
X252300619Y-109588904D01*
X252361095Y-109830809D01*
X252361095Y-110012238D01*
X252300619Y-110254142D01*
X252240142Y-110375095D01*
X252119190Y-110496047D01*
X251937761Y-110556523D01*
X251635380Y-110556523D01*
X253449666Y-110556523D02*
X253449666Y-109891285D01*
X253389190Y-109770333D01*
X253268238Y-109709857D01*
X253026333Y-109709857D01*
X252905380Y-109770333D01*
X253449666Y-110496047D02*
X253328714Y-110556523D01*
X253026333Y-110556523D01*
X252905380Y-110496047D01*
X252844904Y-110375095D01*
X252844904Y-110254142D01*
X252905380Y-110133190D01*
X253026333Y-110072714D01*
X253328714Y-110072714D01*
X253449666Y-110012238D01*
X253873000Y-109709857D02*
X254356809Y-109709857D01*
X254054428Y-109286523D02*
X254054428Y-110375095D01*
X254114904Y-110496047D01*
X254235857Y-110556523D01*
X254356809Y-110556523D01*
X255324428Y-110556523D02*
X255324428Y-109891285D01*
X255263952Y-109770333D01*
X255143000Y-109709857D01*
X254901095Y-109709857D01*
X254780142Y-109770333D01*
X255324428Y-110496047D02*
X255203476Y-110556523D01*
X254901095Y-110556523D01*
X254780142Y-110496047D01*
X254719666Y-110375095D01*
X254719666Y-110254142D01*
X254780142Y-110133190D01*
X254901095Y-110072714D01*
X255203476Y-110072714D01*
X255324428Y-110012238D01*
X256896809Y-109891285D02*
X257320142Y-109891285D01*
X257501571Y-110556523D02*
X256896809Y-110556523D01*
X256896809Y-109286523D01*
X257501571Y-109286523D01*
X258045857Y-109709857D02*
X258045857Y-110556523D01*
X258045857Y-109830809D02*
X258106333Y-109770333D01*
X258227285Y-109709857D01*
X258408714Y-109709857D01*
X258529666Y-109770333D01*
X258590142Y-109891285D01*
X258590142Y-110556523D01*
X259013476Y-109709857D02*
X259497285Y-109709857D01*
X259194904Y-109286523D02*
X259194904Y-110375095D01*
X259255380Y-110496047D01*
X259376333Y-110556523D01*
X259497285Y-110556523D01*
X259920619Y-110556523D02*
X259920619Y-109709857D01*
X259920619Y-109951761D02*
X259981095Y-109830809D01*
X260041571Y-109770333D01*
X260162523Y-109709857D01*
X260283476Y-109709857D01*
X260585857Y-109709857D02*
X260888238Y-110556523D01*
X261190619Y-109709857D02*
X260888238Y-110556523D01*
X260767285Y-110858904D01*
X260706809Y-110919380D01*
X260585857Y-110979857D01*
X262581571Y-110496047D02*
X262763000Y-110556523D01*
X263065380Y-110556523D01*
X263186333Y-110496047D01*
X263246809Y-110435571D01*
X263307285Y-110314619D01*
X263307285Y-110193666D01*
X263246809Y-110072714D01*
X263186333Y-110012238D01*
X263065380Y-109951761D01*
X262823476Y-109891285D01*
X262702523Y-109830809D01*
X262642047Y-109770333D01*
X262581571Y-109649380D01*
X262581571Y-109528428D01*
X262642047Y-109407476D01*
X262702523Y-109347000D01*
X262823476Y-109286523D01*
X263125857Y-109286523D01*
X263307285Y-109347000D01*
X264033000Y-110556523D02*
X263912047Y-110496047D01*
X263851571Y-110375095D01*
X263851571Y-109286523D01*
X264516809Y-110556523D02*
X264516809Y-109709857D01*
X264516809Y-109286523D02*
X264456333Y-109347000D01*
X264516809Y-109407476D01*
X264577285Y-109347000D01*
X264516809Y-109286523D01*
X264516809Y-109407476D01*
X265665857Y-110556523D02*
X265665857Y-109286523D01*
X265665857Y-110496047D02*
X265544904Y-110556523D01*
X265303000Y-110556523D01*
X265182047Y-110496047D01*
X265121571Y-110435571D01*
X265061095Y-110314619D01*
X265061095Y-109951761D01*
X265121571Y-109830809D01*
X265182047Y-109770333D01*
X265303000Y-109709857D01*
X265544904Y-109709857D01*
X265665857Y-109770333D01*
X266754428Y-110496047D02*
X266633476Y-110556523D01*
X266391571Y-110556523D01*
X266270619Y-110496047D01*
X266210142Y-110375095D01*
X266210142Y-109891285D01*
X266270619Y-109770333D01*
X266391571Y-109709857D01*
X266633476Y-109709857D01*
X266754428Y-109770333D01*
X266814904Y-109891285D01*
X266814904Y-110012238D01*
X266210142Y-110133190D01*
X267359190Y-110556523D02*
X267359190Y-109709857D01*
X267359190Y-109951761D02*
X267419666Y-109830809D01*
X267480142Y-109770333D01*
X267601095Y-109709857D01*
X267722047Y-109709857D01*
%TO.C,SW43*%
X121319704Y-121485047D02*
X121501133Y-121545523D01*
X121803514Y-121545523D01*
X121924466Y-121485047D01*
X121984942Y-121424571D01*
X122045419Y-121303619D01*
X122045419Y-121182666D01*
X121984942Y-121061714D01*
X121924466Y-121001238D01*
X121803514Y-120940761D01*
X121561609Y-120880285D01*
X121440657Y-120819809D01*
X121380180Y-120759333D01*
X121319704Y-120638380D01*
X121319704Y-120517428D01*
X121380180Y-120396476D01*
X121440657Y-120336000D01*
X121561609Y-120275523D01*
X121863990Y-120275523D01*
X122045419Y-120336000D01*
X122468752Y-120275523D02*
X122771133Y-121545523D01*
X123013038Y-120638380D01*
X123254942Y-121545523D01*
X123557323Y-120275523D01*
X124585419Y-120698857D02*
X124585419Y-121545523D01*
X124283038Y-120215047D02*
X123980657Y-121122190D01*
X124766847Y-121122190D01*
X125129704Y-120275523D02*
X125915895Y-120275523D01*
X125492561Y-120759333D01*
X125673990Y-120759333D01*
X125794942Y-120819809D01*
X125855419Y-120880285D01*
X125915895Y-121001238D01*
X125915895Y-121303619D01*
X125855419Y-121424571D01*
X125794942Y-121485047D01*
X125673990Y-121545523D01*
X125311133Y-121545523D01*
X125190180Y-121485047D01*
X125129704Y-121424571D01*
X120380537Y-133569022D02*
X120380537Y-132299022D01*
X121106251Y-133569022D02*
X120561965Y-132843308D01*
X121106251Y-132299022D02*
X120380537Y-133024737D01*
X121650537Y-132722356D02*
X121650537Y-133569022D01*
X121650537Y-132843308D02*
X121711013Y-132782832D01*
X121831965Y-132722356D01*
X122013394Y-132722356D01*
X122134346Y-132782832D01*
X122194822Y-132903784D01*
X122194822Y-133569022D01*
X122981013Y-133569022D02*
X122860060Y-133508546D01*
X122799584Y-133448070D01*
X122739108Y-133327118D01*
X122739108Y-132964260D01*
X122799584Y-132843308D01*
X122860060Y-132782832D01*
X122981013Y-132722356D01*
X123162441Y-132722356D01*
X123283394Y-132782832D01*
X123343870Y-132843308D01*
X123404346Y-132964260D01*
X123404346Y-133327118D01*
X123343870Y-133448070D01*
X123283394Y-133508546D01*
X123162441Y-133569022D01*
X122981013Y-133569022D01*
X123948632Y-133569022D02*
X123948632Y-132299022D01*
X123948632Y-132782832D02*
X124069584Y-132722356D01*
X124311489Y-132722356D01*
X124432441Y-132782832D01*
X124492918Y-132843308D01*
X124553394Y-132964260D01*
X124553394Y-133327118D01*
X124492918Y-133448070D01*
X124432441Y-133508546D01*
X124311489Y-133569022D01*
X124069584Y-133569022D01*
X123948632Y-133508546D01*
X126004822Y-132419975D02*
X126065299Y-132359499D01*
X126186251Y-132299022D01*
X126488632Y-132299022D01*
X126609584Y-132359499D01*
X126670060Y-132419975D01*
X126730537Y-132540927D01*
X126730537Y-132661879D01*
X126670060Y-132843308D01*
X125944346Y-133569022D01*
X126730537Y-133569022D01*
%TO.C,SW40*%
X98364405Y-121485047D02*
X98545834Y-121545523D01*
X98848215Y-121545523D01*
X98969167Y-121485047D01*
X99029643Y-121424571D01*
X99090120Y-121303619D01*
X99090120Y-121182666D01*
X99029643Y-121061714D01*
X98969167Y-121001238D01*
X98848215Y-120940761D01*
X98606310Y-120880285D01*
X98485358Y-120819809D01*
X98424881Y-120759333D01*
X98364405Y-120638380D01*
X98364405Y-120517428D01*
X98424881Y-120396476D01*
X98485358Y-120336000D01*
X98606310Y-120275523D01*
X98908691Y-120275523D01*
X99090120Y-120336000D01*
X99513453Y-120275523D02*
X99815834Y-121545523D01*
X100057739Y-120638380D01*
X100299643Y-121545523D01*
X100602024Y-120275523D01*
X101630120Y-120698857D02*
X101630120Y-121545523D01*
X101327739Y-120215047D02*
X101025358Y-121122190D01*
X101811548Y-121122190D01*
X102537262Y-120275523D02*
X102658215Y-120275523D01*
X102779167Y-120336000D01*
X102839643Y-120396476D01*
X102900120Y-120517428D01*
X102960596Y-120759333D01*
X102960596Y-121061714D01*
X102900120Y-121303619D01*
X102839643Y-121424571D01*
X102779167Y-121485047D01*
X102658215Y-121545523D01*
X102537262Y-121545523D01*
X102416310Y-121485047D01*
X102355834Y-121424571D01*
X102295358Y-121303619D01*
X102234881Y-121061714D01*
X102234881Y-120759333D01*
X102295358Y-120517428D01*
X102355834Y-120396476D01*
X102416310Y-120336000D01*
X102537262Y-120275523D01*
X97248738Y-133378522D02*
X97248738Y-132108522D01*
X97974452Y-133378522D02*
X97430166Y-132652808D01*
X97974452Y-132108522D02*
X97248738Y-132834237D01*
X98518738Y-132531856D02*
X98518738Y-133378522D01*
X98518738Y-132652808D02*
X98579214Y-132592332D01*
X98700166Y-132531856D01*
X98881595Y-132531856D01*
X99002547Y-132592332D01*
X99063023Y-132713284D01*
X99063023Y-133378522D01*
X99849214Y-133378522D02*
X99728261Y-133318046D01*
X99667785Y-133257570D01*
X99607309Y-133136618D01*
X99607309Y-132773760D01*
X99667785Y-132652808D01*
X99728261Y-132592332D01*
X99849214Y-132531856D01*
X100030642Y-132531856D01*
X100151595Y-132592332D01*
X100212071Y-132652808D01*
X100272547Y-132773760D01*
X100272547Y-133136618D01*
X100212071Y-133257570D01*
X100151595Y-133318046D01*
X100030642Y-133378522D01*
X99849214Y-133378522D01*
X100816833Y-133378522D02*
X100816833Y-132108522D01*
X100816833Y-132592332D02*
X100937785Y-132531856D01*
X101179690Y-132531856D01*
X101300642Y-132592332D01*
X101361119Y-132652808D01*
X101421595Y-132773760D01*
X101421595Y-133136618D01*
X101361119Y-133257570D01*
X101300642Y-133318046D01*
X101179690Y-133378522D01*
X100937785Y-133378522D01*
X100816833Y-133318046D01*
X103598738Y-133378522D02*
X102873023Y-133378522D01*
X103235880Y-133378522D02*
X103235880Y-132108522D01*
X103114928Y-132289951D01*
X102993976Y-132410903D01*
X102873023Y-132471379D01*
%TO.C,SW47*%
X167230302Y-121485047D02*
X167411731Y-121545523D01*
X167714112Y-121545523D01*
X167835064Y-121485047D01*
X167895540Y-121424571D01*
X167956017Y-121303619D01*
X167956017Y-121182666D01*
X167895540Y-121061714D01*
X167835064Y-121001238D01*
X167714112Y-120940761D01*
X167472207Y-120880285D01*
X167351255Y-120819809D01*
X167290778Y-120759333D01*
X167230302Y-120638380D01*
X167230302Y-120517428D01*
X167290778Y-120396476D01*
X167351255Y-120336000D01*
X167472207Y-120275523D01*
X167774588Y-120275523D01*
X167956017Y-120336000D01*
X168379350Y-120275523D02*
X168681731Y-121545523D01*
X168923636Y-120638380D01*
X169165540Y-121545523D01*
X169467921Y-120275523D01*
X170496017Y-120698857D02*
X170496017Y-121545523D01*
X170193636Y-120215047D02*
X169891255Y-121122190D01*
X170677445Y-121122190D01*
X171040302Y-120275523D02*
X171886969Y-120275523D01*
X171342683Y-121545523D01*
X166072635Y-133759522D02*
X166072635Y-132489522D01*
X166798349Y-133759522D02*
X166254063Y-133033808D01*
X166798349Y-132489522D02*
X166072635Y-133215237D01*
X167342635Y-132912856D02*
X167342635Y-133759522D01*
X167342635Y-133033808D02*
X167403111Y-132973332D01*
X167524063Y-132912856D01*
X167705492Y-132912856D01*
X167826444Y-132973332D01*
X167886920Y-133094284D01*
X167886920Y-133759522D01*
X168673111Y-133759522D02*
X168552158Y-133699046D01*
X168491682Y-133638570D01*
X168431206Y-133517618D01*
X168431206Y-133154760D01*
X168491682Y-133033808D01*
X168552158Y-132973332D01*
X168673111Y-132912856D01*
X168854539Y-132912856D01*
X168975492Y-132973332D01*
X169035968Y-133033808D01*
X169096444Y-133154760D01*
X169096444Y-133517618D01*
X169035968Y-133638570D01*
X168975492Y-133699046D01*
X168854539Y-133759522D01*
X168673111Y-133759522D01*
X169640730Y-133759522D02*
X169640730Y-132489522D01*
X169640730Y-132973332D02*
X169761682Y-132912856D01*
X170003587Y-132912856D01*
X170124539Y-132973332D01*
X170185016Y-133033808D01*
X170245492Y-133154760D01*
X170245492Y-133517618D01*
X170185016Y-133638570D01*
X170124539Y-133699046D01*
X170003587Y-133759522D01*
X169761682Y-133759522D01*
X169640730Y-133699046D01*
X172301682Y-132912856D02*
X172301682Y-133759522D01*
X171999301Y-132429046D02*
X171696920Y-133336189D01*
X172483111Y-133336189D01*
%TO.C,SW49*%
D10*
X35476476Y-59364761D02*
X35619333Y-59412380D01*
X35857428Y-59412380D01*
X35952666Y-59364761D01*
X36000285Y-59317142D01*
X36047904Y-59221904D01*
X36047904Y-59126666D01*
X36000285Y-59031428D01*
X35952666Y-58983809D01*
X35857428Y-58936190D01*
X35666952Y-58888571D01*
X35571714Y-58840952D01*
X35524095Y-58793333D01*
X35476476Y-58698095D01*
X35476476Y-58602857D01*
X35524095Y-58507619D01*
X35571714Y-58460000D01*
X35666952Y-58412380D01*
X35905047Y-58412380D01*
X36047904Y-58460000D01*
X36381238Y-58412380D02*
X36619333Y-59412380D01*
X36809809Y-58698095D01*
X37000285Y-59412380D01*
X37238380Y-58412380D01*
X38047904Y-58745714D02*
X38047904Y-59412380D01*
X37809809Y-58364761D02*
X37571714Y-59079047D01*
X38190761Y-59079047D01*
X38619333Y-59412380D02*
X38809809Y-59412380D01*
X38905047Y-59364761D01*
X38952666Y-59317142D01*
X39047904Y-59174285D01*
X39095523Y-58983809D01*
X39095523Y-58602857D01*
X39047904Y-58507619D01*
X39000285Y-58460000D01*
X38905047Y-58412380D01*
X38714571Y-58412380D01*
X38619333Y-58460000D01*
X38571714Y-58507619D01*
X38524095Y-58602857D01*
X38524095Y-58840952D01*
X38571714Y-58936190D01*
X38619333Y-58983809D01*
X38714571Y-59031428D01*
X38905047Y-59031428D01*
X39000285Y-58983809D01*
X39047904Y-58936190D01*
X39095523Y-58840952D01*
X35905047Y-67112380D02*
X36238380Y-68112380D01*
X36571714Y-67112380D01*
X37047904Y-68112380D02*
X36952666Y-68064761D01*
X36905047Y-68017142D01*
X36857428Y-67921904D01*
X36857428Y-67636190D01*
X36905047Y-67540952D01*
X36952666Y-67493333D01*
X37047904Y-67445714D01*
X37190761Y-67445714D01*
X37286000Y-67493333D01*
X37333619Y-67540952D01*
X37381238Y-67636190D01*
X37381238Y-67921904D01*
X37333619Y-68017142D01*
X37286000Y-68064761D01*
X37190761Y-68112380D01*
X37047904Y-68112380D01*
X37809809Y-68112380D02*
X37809809Y-67445714D01*
X37809809Y-67112380D02*
X37762190Y-67160000D01*
X37809809Y-67207619D01*
X37857428Y-67160000D01*
X37809809Y-67112380D01*
X37809809Y-67207619D01*
X38714571Y-68064761D02*
X38619333Y-68112380D01*
X38428857Y-68112380D01*
X38333619Y-68064761D01*
X38286000Y-68017142D01*
X38238380Y-67921904D01*
X38238380Y-67636190D01*
X38286000Y-67540952D01*
X38333619Y-67493333D01*
X38428857Y-67445714D01*
X38619333Y-67445714D01*
X38714571Y-67493333D01*
X39524095Y-68064761D02*
X39428857Y-68112380D01*
X39238380Y-68112380D01*
X39143142Y-68064761D01*
X39095523Y-67969523D01*
X39095523Y-67588571D01*
X39143142Y-67493333D01*
X39238380Y-67445714D01*
X39428857Y-67445714D01*
X39524095Y-67493333D01*
X39571714Y-67588571D01*
X39571714Y-67683809D01*
X39095523Y-67779047D01*
%TO.C,SW42*%
X276072476Y-61490761D02*
X276215333Y-61538380D01*
X276453428Y-61538380D01*
X276548666Y-61490761D01*
X276596285Y-61443142D01*
X276643904Y-61347904D01*
X276643904Y-61252666D01*
X276596285Y-61157428D01*
X276548666Y-61109809D01*
X276453428Y-61062190D01*
X276262952Y-61014571D01*
X276167714Y-60966952D01*
X276120095Y-60919333D01*
X276072476Y-60824095D01*
X276072476Y-60728857D01*
X276120095Y-60633619D01*
X276167714Y-60586000D01*
X276262952Y-60538380D01*
X276501047Y-60538380D01*
X276643904Y-60586000D01*
X276977238Y-60538380D02*
X277215333Y-61538380D01*
X277405809Y-60824095D01*
X277596285Y-61538380D01*
X277834380Y-60538380D01*
X278643904Y-60871714D02*
X278643904Y-61538380D01*
X278405809Y-60490761D02*
X278167714Y-61205047D01*
X278786761Y-61205047D01*
X279120095Y-60633619D02*
X279167714Y-60586000D01*
X279262952Y-60538380D01*
X279501047Y-60538380D01*
X279596285Y-60586000D01*
X279643904Y-60633619D01*
X279691523Y-60728857D01*
X279691523Y-60824095D01*
X279643904Y-60966952D01*
X279072476Y-61538380D01*
X279691523Y-61538380D01*
X276105809Y-76638380D02*
X276105809Y-75638380D01*
X276343904Y-75638380D01*
X276486761Y-75686000D01*
X276582000Y-75781238D01*
X276629619Y-75876476D01*
X276677238Y-76066952D01*
X276677238Y-76209809D01*
X276629619Y-76400285D01*
X276582000Y-76495523D01*
X276486761Y-76590761D01*
X276343904Y-76638380D01*
X276105809Y-76638380D01*
X277534380Y-76638380D02*
X277534380Y-76114571D01*
X277486761Y-76019333D01*
X277391523Y-75971714D01*
X277201047Y-75971714D01*
X277105809Y-76019333D01*
X277534380Y-76590761D02*
X277439142Y-76638380D01*
X277201047Y-76638380D01*
X277105809Y-76590761D01*
X277058190Y-76495523D01*
X277058190Y-76400285D01*
X277105809Y-76305047D01*
X277201047Y-76257428D01*
X277439142Y-76257428D01*
X277534380Y-76209809D01*
X277867714Y-75971714D02*
X278248666Y-75971714D01*
X278010571Y-75638380D02*
X278010571Y-76495523D01*
X278058190Y-76590761D01*
X278153428Y-76638380D01*
X278248666Y-76638380D01*
X279010571Y-76638380D02*
X279010571Y-76114571D01*
X278962952Y-76019333D01*
X278867714Y-75971714D01*
X278677238Y-75971714D01*
X278582000Y-76019333D01*
X279010571Y-76590761D02*
X278915333Y-76638380D01*
X278677238Y-76638380D01*
X278582000Y-76590761D01*
X278534380Y-76495523D01*
X278534380Y-76400285D01*
X278582000Y-76305047D01*
X278677238Y-76257428D01*
X278915333Y-76257428D01*
X279010571Y-76209809D01*
X280248666Y-76114571D02*
X280582000Y-76114571D01*
X280724857Y-76638380D02*
X280248666Y-76638380D01*
X280248666Y-75638380D01*
X280724857Y-75638380D01*
X281153428Y-75971714D02*
X281153428Y-76638380D01*
X281153428Y-76066952D02*
X281201047Y-76019333D01*
X281296285Y-75971714D01*
X281439142Y-75971714D01*
X281534380Y-76019333D01*
X281582000Y-76114571D01*
X281582000Y-76638380D01*
X281915333Y-75971714D02*
X282296285Y-75971714D01*
X282058190Y-75638380D02*
X282058190Y-76495523D01*
X282105809Y-76590761D01*
X282201047Y-76638380D01*
X282296285Y-76638380D01*
X282629619Y-76638380D02*
X282629619Y-75971714D01*
X282629619Y-76162190D02*
X282677238Y-76066952D01*
X282724857Y-76019333D01*
X282820095Y-75971714D01*
X282915333Y-75971714D01*
X283153428Y-75971714D02*
X283391523Y-76638380D01*
X283629619Y-75971714D02*
X283391523Y-76638380D01*
X283296285Y-76876476D01*
X283248666Y-76924095D01*
X283153428Y-76971714D01*
X285343904Y-76638380D02*
X285010571Y-76162190D01*
X284772476Y-76638380D02*
X284772476Y-75638380D01*
X285153428Y-75638380D01*
X285248666Y-75686000D01*
X285296285Y-75733619D01*
X285343904Y-75828857D01*
X285343904Y-75971714D01*
X285296285Y-76066952D01*
X285248666Y-76114571D01*
X285153428Y-76162190D01*
X284772476Y-76162190D01*
X285915333Y-76638380D02*
X285820095Y-76590761D01*
X285772476Y-76543142D01*
X285724857Y-76447904D01*
X285724857Y-76162190D01*
X285772476Y-76066952D01*
X285820095Y-76019333D01*
X285915333Y-75971714D01*
X286058190Y-75971714D01*
X286153428Y-76019333D01*
X286201047Y-76066952D01*
X286248666Y-76162190D01*
X286248666Y-76447904D01*
X286201047Y-76543142D01*
X286153428Y-76590761D01*
X286058190Y-76638380D01*
X285915333Y-76638380D01*
X286534380Y-75971714D02*
X286915333Y-75971714D01*
X286677238Y-75638380D02*
X286677238Y-76495523D01*
X286724857Y-76590761D01*
X286820095Y-76638380D01*
X286915333Y-76638380D01*
X287677238Y-76638380D02*
X287677238Y-76114571D01*
X287629619Y-76019333D01*
X287534380Y-75971714D01*
X287343904Y-75971714D01*
X287248666Y-76019333D01*
X287677238Y-76590761D02*
X287582000Y-76638380D01*
X287343904Y-76638380D01*
X287248666Y-76590761D01*
X287201047Y-76495523D01*
X287201047Y-76400285D01*
X287248666Y-76305047D01*
X287343904Y-76257428D01*
X287582000Y-76257428D01*
X287677238Y-76209809D01*
X288153428Y-76638380D02*
X288153428Y-75971714D01*
X288153428Y-76162190D02*
X288201047Y-76066952D01*
X288248666Y-76019333D01*
X288343904Y-75971714D01*
X288439142Y-75971714D01*
X288677238Y-75971714D02*
X288915333Y-76638380D01*
X289153428Y-75971714D02*
X288915333Y-76638380D01*
X288820095Y-76876476D01*
X288772476Y-76924095D01*
X288677238Y-76971714D01*
%TO.C,SW41*%
D15*
X190185601Y-121485047D02*
X190367030Y-121545523D01*
X190669411Y-121545523D01*
X190790363Y-121485047D01*
X190850839Y-121424571D01*
X190911316Y-121303619D01*
X190911316Y-121182666D01*
X190850839Y-121061714D01*
X190790363Y-121001238D01*
X190669411Y-120940761D01*
X190427506Y-120880285D01*
X190306554Y-120819809D01*
X190246077Y-120759333D01*
X190185601Y-120638380D01*
X190185601Y-120517428D01*
X190246077Y-120396476D01*
X190306554Y-120336000D01*
X190427506Y-120275523D01*
X190729887Y-120275523D01*
X190911316Y-120336000D01*
X191334649Y-120275523D02*
X191637030Y-121545523D01*
X191878935Y-120638380D01*
X192120839Y-121545523D01*
X192423220Y-120275523D01*
X193451316Y-120698857D02*
X193451316Y-121545523D01*
X193148935Y-120215047D02*
X192846554Y-121122190D01*
X193632744Y-121122190D01*
X194781792Y-121545523D02*
X194056077Y-121545523D01*
X194418935Y-121545523D02*
X194418935Y-120275523D01*
X194297982Y-120456952D01*
X194177030Y-120577904D01*
X194056077Y-120638380D01*
X189323934Y-133565522D02*
X189323934Y-132295522D01*
X190049648Y-133565522D02*
X189505362Y-132839808D01*
X190049648Y-132295522D02*
X189323934Y-133021237D01*
X190593934Y-132718856D02*
X190593934Y-133565522D01*
X190593934Y-132839808D02*
X190654410Y-132779332D01*
X190775362Y-132718856D01*
X190956791Y-132718856D01*
X191077743Y-132779332D01*
X191138219Y-132900284D01*
X191138219Y-133565522D01*
X191924410Y-133565522D02*
X191803457Y-133505046D01*
X191742981Y-133444570D01*
X191682505Y-133323618D01*
X191682505Y-132960760D01*
X191742981Y-132839808D01*
X191803457Y-132779332D01*
X191924410Y-132718856D01*
X192105838Y-132718856D01*
X192226791Y-132779332D01*
X192287267Y-132839808D01*
X192347743Y-132960760D01*
X192347743Y-133323618D01*
X192287267Y-133444570D01*
X192226791Y-133505046D01*
X192105838Y-133565522D01*
X191924410Y-133565522D01*
X192892029Y-133565522D02*
X192892029Y-132295522D01*
X192892029Y-132779332D02*
X193012981Y-132718856D01*
X193254886Y-132718856D01*
X193375838Y-132779332D01*
X193436315Y-132839808D01*
X193496791Y-132960760D01*
X193496791Y-133323618D01*
X193436315Y-133444570D01*
X193375838Y-133505046D01*
X193254886Y-133565522D01*
X193012981Y-133565522D01*
X192892029Y-133505046D01*
X195613457Y-132295522D02*
X195008696Y-132295522D01*
X194948219Y-132900284D01*
X195008696Y-132839808D01*
X195129648Y-132779332D01*
X195432029Y-132779332D01*
X195552981Y-132839808D01*
X195613457Y-132900284D01*
X195673934Y-133021237D01*
X195673934Y-133323618D01*
X195613457Y-133444570D01*
X195552981Y-133505046D01*
X195432029Y-133565522D01*
X195129648Y-133565522D01*
X195008696Y-133505046D01*
X194948219Y-133444570D01*
%TO.C,SW45*%
X144275003Y-121485047D02*
X144456432Y-121545523D01*
X144758813Y-121545523D01*
X144879765Y-121485047D01*
X144940241Y-121424571D01*
X145000718Y-121303619D01*
X145000718Y-121182666D01*
X144940241Y-121061714D01*
X144879765Y-121001238D01*
X144758813Y-120940761D01*
X144516908Y-120880285D01*
X144395956Y-120819809D01*
X144335479Y-120759333D01*
X144275003Y-120638380D01*
X144275003Y-120517428D01*
X144335479Y-120396476D01*
X144395956Y-120336000D01*
X144516908Y-120275523D01*
X144819289Y-120275523D01*
X145000718Y-120336000D01*
X145424051Y-120275523D02*
X145726432Y-121545523D01*
X145968337Y-120638380D01*
X146210241Y-121545523D01*
X146512622Y-120275523D01*
X147540718Y-120698857D02*
X147540718Y-121545523D01*
X147238337Y-120215047D02*
X146935956Y-121122190D01*
X147722146Y-121122190D01*
X148810718Y-120275523D02*
X148205956Y-120275523D01*
X148145479Y-120880285D01*
X148205956Y-120819809D01*
X148326908Y-120759333D01*
X148629289Y-120759333D01*
X148750241Y-120819809D01*
X148810718Y-120880285D01*
X148871194Y-121001238D01*
X148871194Y-121303619D01*
X148810718Y-121424571D01*
X148750241Y-121485047D01*
X148629289Y-121545523D01*
X148326908Y-121545523D01*
X148205956Y-121485047D01*
X148145479Y-121424571D01*
X143018336Y-133438522D02*
X143018336Y-132168522D01*
X143744050Y-133438522D02*
X143199764Y-132712808D01*
X143744050Y-132168522D02*
X143018336Y-132894237D01*
X144288336Y-132591856D02*
X144288336Y-133438522D01*
X144288336Y-132712808D02*
X144348812Y-132652332D01*
X144469764Y-132591856D01*
X144651193Y-132591856D01*
X144772145Y-132652332D01*
X144832621Y-132773284D01*
X144832621Y-133438522D01*
X145618812Y-133438522D02*
X145497859Y-133378046D01*
X145437383Y-133317570D01*
X145376907Y-133196618D01*
X145376907Y-132833760D01*
X145437383Y-132712808D01*
X145497859Y-132652332D01*
X145618812Y-132591856D01*
X145800240Y-132591856D01*
X145921193Y-132652332D01*
X145981669Y-132712808D01*
X146042145Y-132833760D01*
X146042145Y-133196618D01*
X145981669Y-133317570D01*
X145921193Y-133378046D01*
X145800240Y-133438522D01*
X145618812Y-133438522D01*
X146586431Y-133438522D02*
X146586431Y-132168522D01*
X146586431Y-132652332D02*
X146707383Y-132591856D01*
X146949288Y-132591856D01*
X147070240Y-132652332D01*
X147130717Y-132712808D01*
X147191193Y-132833760D01*
X147191193Y-133196618D01*
X147130717Y-133317570D01*
X147070240Y-133378046D01*
X146949288Y-133438522D01*
X146707383Y-133438522D01*
X146586431Y-133378046D01*
X148582145Y-132168522D02*
X149368336Y-132168522D01*
X148945002Y-132652332D01*
X149126431Y-132652332D01*
X149247383Y-132712808D01*
X149307859Y-132773284D01*
X149368336Y-132894237D01*
X149368336Y-133196618D01*
X149307859Y-133317570D01*
X149247383Y-133378046D01*
X149126431Y-133438522D01*
X148763574Y-133438522D01*
X148642621Y-133378046D01*
X148582145Y-133317570D01*
%TO.C,SW39*%
D10*
X320210476Y-83208761D02*
X320353333Y-83256380D01*
X320591428Y-83256380D01*
X320686666Y-83208761D01*
X320734285Y-83161142D01*
X320781904Y-83065904D01*
X320781904Y-82970666D01*
X320734285Y-82875428D01*
X320686666Y-82827809D01*
X320591428Y-82780190D01*
X320400952Y-82732571D01*
X320305714Y-82684952D01*
X320258095Y-82637333D01*
X320210476Y-82542095D01*
X320210476Y-82446857D01*
X320258095Y-82351619D01*
X320305714Y-82304000D01*
X320400952Y-82256380D01*
X320639047Y-82256380D01*
X320781904Y-82304000D01*
X321115238Y-82256380D02*
X321353333Y-83256380D01*
X321543809Y-82542095D01*
X321734285Y-83256380D01*
X321972380Y-82256380D01*
X322258095Y-82256380D02*
X322877142Y-82256380D01*
X322543809Y-82637333D01*
X322686666Y-82637333D01*
X322781904Y-82684952D01*
X322829523Y-82732571D01*
X322877142Y-82827809D01*
X322877142Y-83065904D01*
X322829523Y-83161142D01*
X322781904Y-83208761D01*
X322686666Y-83256380D01*
X322400952Y-83256380D01*
X322305714Y-83208761D01*
X322258095Y-83161142D01*
X323353333Y-83256380D02*
X323543809Y-83256380D01*
X323639047Y-83208761D01*
X323686666Y-83161142D01*
X323781904Y-83018285D01*
X323829523Y-82827809D01*
X323829523Y-82446857D01*
X323781904Y-82351619D01*
X323734285Y-82304000D01*
X323639047Y-82256380D01*
X323448571Y-82256380D01*
X323353333Y-82304000D01*
X323305714Y-82351619D01*
X323258095Y-82446857D01*
X323258095Y-82684952D01*
X323305714Y-82780190D01*
X323353333Y-82827809D01*
X323448571Y-82875428D01*
X323639047Y-82875428D01*
X323734285Y-82827809D01*
X323781904Y-82780190D01*
X323829523Y-82684952D01*
X319175142Y-87289428D02*
X319937047Y-87289428D01*
X319556095Y-87670380D02*
X319556095Y-86908476D01*
X320937047Y-87670380D02*
X320365619Y-87670380D01*
X320651333Y-87670380D02*
X320651333Y-86670380D01*
X320556095Y-86813238D01*
X320460857Y-86908476D01*
X320365619Y-86956095D01*
X322079904Y-86622761D02*
X321222761Y-87908476D01*
X322603714Y-87194190D02*
X322603714Y-87670380D01*
X322270380Y-86670380D02*
X322603714Y-87194190D01*
X322937047Y-86670380D01*
X323651333Y-87622761D02*
X323556095Y-87670380D01*
X323365619Y-87670380D01*
X323270380Y-87622761D01*
X323222761Y-87527523D01*
X323222761Y-87146571D01*
X323270380Y-87051333D01*
X323365619Y-87003714D01*
X323556095Y-87003714D01*
X323651333Y-87051333D01*
X323698952Y-87146571D01*
X323698952Y-87241809D01*
X323222761Y-87337047D01*
X324079904Y-87622761D02*
X324175142Y-87670380D01*
X324365619Y-87670380D01*
X324460857Y-87622761D01*
X324508476Y-87527523D01*
X324508476Y-87479904D01*
X324460857Y-87384666D01*
X324365619Y-87337047D01*
X324222761Y-87337047D01*
X324127523Y-87289428D01*
X324079904Y-87194190D01*
X324079904Y-87146571D01*
X324127523Y-87051333D01*
X324222761Y-87003714D01*
X324365619Y-87003714D01*
X324460857Y-87051333D01*
%TO.C,U5*%
X25400095Y-108518380D02*
X25400095Y-109327904D01*
X25447714Y-109423142D01*
X25495333Y-109470761D01*
X25590571Y-109518380D01*
X25781047Y-109518380D01*
X25876285Y-109470761D01*
X25923904Y-109423142D01*
X25971523Y-109327904D01*
X25971523Y-108518380D01*
X26923904Y-108518380D02*
X26447714Y-108518380D01*
X26400095Y-108994571D01*
X26447714Y-108946952D01*
X26542952Y-108899333D01*
X26781047Y-108899333D01*
X26876285Y-108946952D01*
X26923904Y-108994571D01*
X26971523Y-109089809D01*
X26971523Y-109327904D01*
X26923904Y-109423142D01*
X26876285Y-109470761D01*
X26781047Y-109518380D01*
X26542952Y-109518380D01*
X26447714Y-109470761D01*
X26400095Y-109423142D01*
%TO.C,SW38*%
X357040476Y-92098761D02*
X357183333Y-92146380D01*
X357421428Y-92146380D01*
X357516666Y-92098761D01*
X357564285Y-92051142D01*
X357611904Y-91955904D01*
X357611904Y-91860666D01*
X357564285Y-91765428D01*
X357516666Y-91717809D01*
X357421428Y-91670190D01*
X357230952Y-91622571D01*
X357135714Y-91574952D01*
X357088095Y-91527333D01*
X357040476Y-91432095D01*
X357040476Y-91336857D01*
X357088095Y-91241619D01*
X357135714Y-91194000D01*
X357230952Y-91146380D01*
X357469047Y-91146380D01*
X357611904Y-91194000D01*
X357945238Y-91146380D02*
X358183333Y-92146380D01*
X358373809Y-91432095D01*
X358564285Y-92146380D01*
X358802380Y-91146380D01*
X359088095Y-91146380D02*
X359707142Y-91146380D01*
X359373809Y-91527333D01*
X359516666Y-91527333D01*
X359611904Y-91574952D01*
X359659523Y-91622571D01*
X359707142Y-91717809D01*
X359707142Y-91955904D01*
X359659523Y-92051142D01*
X359611904Y-92098761D01*
X359516666Y-92146380D01*
X359230952Y-92146380D01*
X359135714Y-92098761D01*
X359088095Y-92051142D01*
X360278571Y-91574952D02*
X360183333Y-91527333D01*
X360135714Y-91479714D01*
X360088095Y-91384476D01*
X360088095Y-91336857D01*
X360135714Y-91241619D01*
X360183333Y-91194000D01*
X360278571Y-91146380D01*
X360469047Y-91146380D01*
X360564285Y-91194000D01*
X360611904Y-91241619D01*
X360659523Y-91336857D01*
X360659523Y-91384476D01*
X360611904Y-91479714D01*
X360564285Y-91527333D01*
X360469047Y-91574952D01*
X360278571Y-91574952D01*
X360183333Y-91622571D01*
X360135714Y-91670190D01*
X360088095Y-91765428D01*
X360088095Y-91955904D01*
X360135714Y-92051142D01*
X360183333Y-92098761D01*
X360278571Y-92146380D01*
X360469047Y-92146380D01*
X360564285Y-92098761D01*
X360611904Y-92051142D01*
X360659523Y-91955904D01*
X360659523Y-91765428D01*
X360611904Y-91670190D01*
X360564285Y-91622571D01*
X360469047Y-91574952D01*
X357211523Y-95940571D02*
X357544857Y-95940571D01*
X357687714Y-96464380D02*
X357211523Y-96464380D01*
X357211523Y-95464380D01*
X357687714Y-95464380D01*
X358116285Y-95797714D02*
X358116285Y-96464380D01*
X358116285Y-95892952D02*
X358163904Y-95845333D01*
X358259142Y-95797714D01*
X358402000Y-95797714D01*
X358497238Y-95845333D01*
X358544857Y-95940571D01*
X358544857Y-96464380D01*
X358878190Y-95797714D02*
X359259142Y-95797714D01*
X359021047Y-95464380D02*
X359021047Y-96321523D01*
X359068666Y-96416761D01*
X359163904Y-96464380D01*
X359259142Y-96464380D01*
X359973428Y-96416761D02*
X359878190Y-96464380D01*
X359687714Y-96464380D01*
X359592476Y-96416761D01*
X359544857Y-96321523D01*
X359544857Y-95940571D01*
X359592476Y-95845333D01*
X359687714Y-95797714D01*
X359878190Y-95797714D01*
X359973428Y-95845333D01*
X360021047Y-95940571D01*
X360021047Y-96035809D01*
X359544857Y-96131047D01*
X360449619Y-96464380D02*
X360449619Y-95797714D01*
X360449619Y-95988190D02*
X360497238Y-95892952D01*
X360544857Y-95845333D01*
X360640095Y-95797714D01*
X360735333Y-95797714D01*
%TO.C,U2*%
X347472095Y-98010380D02*
X347472095Y-98819904D01*
X347519714Y-98915142D01*
X347567333Y-98962761D01*
X347662571Y-99010380D01*
X347853047Y-99010380D01*
X347948285Y-98962761D01*
X347995904Y-98915142D01*
X348043523Y-98819904D01*
X348043523Y-98010380D01*
X348472095Y-98105619D02*
X348519714Y-98058000D01*
X348614952Y-98010380D01*
X348853047Y-98010380D01*
X348948285Y-98058000D01*
X348995904Y-98105619D01*
X349043523Y-98200857D01*
X349043523Y-98296095D01*
X348995904Y-98438952D01*
X348424476Y-99010380D01*
X349043523Y-99010380D01*
%TO.C,U3*%
X311404095Y-98010380D02*
X311404095Y-98819904D01*
X311451714Y-98915142D01*
X311499333Y-98962761D01*
X311594571Y-99010380D01*
X311785047Y-99010380D01*
X311880285Y-98962761D01*
X311927904Y-98915142D01*
X311975523Y-98819904D01*
X311975523Y-98010380D01*
X312356476Y-98010380D02*
X312975523Y-98010380D01*
X312642190Y-98391333D01*
X312785047Y-98391333D01*
X312880285Y-98438952D01*
X312927904Y-98486571D01*
X312975523Y-98581809D01*
X312975523Y-98819904D01*
X312927904Y-98915142D01*
X312880285Y-98962761D01*
X312785047Y-99010380D01*
X312499333Y-99010380D01*
X312404095Y-98962761D01*
X312356476Y-98915142D01*
%TO.C,U4*%
X36957095Y-87850380D02*
X36957095Y-88659904D01*
X37004714Y-88755142D01*
X37052333Y-88802761D01*
X37147571Y-88850380D01*
X37338047Y-88850380D01*
X37433285Y-88802761D01*
X37480904Y-88755142D01*
X37528523Y-88659904D01*
X37528523Y-87850380D01*
X38433285Y-88183714D02*
X38433285Y-88850380D01*
X38195190Y-87802761D02*
X37957095Y-88517047D01*
X38576142Y-88517047D01*
%TO.C,U1*%
X137349380Y-65658904D02*
X138158904Y-65658904D01*
X138254142Y-65611285D01*
X138301761Y-65563666D01*
X138349380Y-65468428D01*
X138349380Y-65277952D01*
X138301761Y-65182714D01*
X138254142Y-65135095D01*
X138158904Y-65087476D01*
X137349380Y-65087476D01*
X138349380Y-64087476D02*
X138349380Y-64658904D01*
X138349380Y-64373190D02*
X137349380Y-64373190D01*
X137492238Y-64468428D01*
X137587476Y-64563666D01*
X137635095Y-64658904D01*
%TO.C,SW36*%
X320210476Y-65428761D02*
X320353333Y-65476380D01*
X320591428Y-65476380D01*
X320686666Y-65428761D01*
X320734285Y-65381142D01*
X320781904Y-65285904D01*
X320781904Y-65190666D01*
X320734285Y-65095428D01*
X320686666Y-65047809D01*
X320591428Y-65000190D01*
X320400952Y-64952571D01*
X320305714Y-64904952D01*
X320258095Y-64857333D01*
X320210476Y-64762095D01*
X320210476Y-64666857D01*
X320258095Y-64571619D01*
X320305714Y-64524000D01*
X320400952Y-64476380D01*
X320639047Y-64476380D01*
X320781904Y-64524000D01*
X321115238Y-64476380D02*
X321353333Y-65476380D01*
X321543809Y-64762095D01*
X321734285Y-65476380D01*
X321972380Y-64476380D01*
X322258095Y-64476380D02*
X322877142Y-64476380D01*
X322543809Y-64857333D01*
X322686666Y-64857333D01*
X322781904Y-64904952D01*
X322829523Y-64952571D01*
X322877142Y-65047809D01*
X322877142Y-65285904D01*
X322829523Y-65381142D01*
X322781904Y-65428761D01*
X322686666Y-65476380D01*
X322400952Y-65476380D01*
X322305714Y-65428761D01*
X322258095Y-65381142D01*
X323734285Y-64476380D02*
X323543809Y-64476380D01*
X323448571Y-64524000D01*
X323400952Y-64571619D01*
X323305714Y-64714476D01*
X323258095Y-64904952D01*
X323258095Y-65285904D01*
X323305714Y-65381142D01*
X323353333Y-65428761D01*
X323448571Y-65476380D01*
X323639047Y-65476380D01*
X323734285Y-65428761D01*
X323781904Y-65381142D01*
X323829523Y-65285904D01*
X323829523Y-65047809D01*
X323781904Y-64952571D01*
X323734285Y-64904952D01*
X323639047Y-64857333D01*
X323448571Y-64857333D01*
X323353333Y-64904952D01*
X323305714Y-64952571D01*
X323258095Y-65047809D01*
X319286285Y-68890380D02*
X319476761Y-68890380D01*
X319572000Y-68938000D01*
X319667238Y-69033238D01*
X319714857Y-69223714D01*
X319714857Y-69557047D01*
X319667238Y-69747523D01*
X319572000Y-69842761D01*
X319476761Y-69890380D01*
X319286285Y-69890380D01*
X319191047Y-69842761D01*
X319095809Y-69747523D01*
X319048190Y-69557047D01*
X319048190Y-69223714D01*
X319095809Y-69033238D01*
X319191047Y-68938000D01*
X319286285Y-68890380D01*
X320143428Y-69223714D02*
X320143428Y-70223714D01*
X320143428Y-69271333D02*
X320238666Y-69223714D01*
X320429142Y-69223714D01*
X320524380Y-69271333D01*
X320572000Y-69318952D01*
X320619619Y-69414190D01*
X320619619Y-69699904D01*
X320572000Y-69795142D01*
X320524380Y-69842761D01*
X320429142Y-69890380D01*
X320238666Y-69890380D01*
X320143428Y-69842761D01*
X321429142Y-69842761D02*
X321333904Y-69890380D01*
X321143428Y-69890380D01*
X321048190Y-69842761D01*
X321000571Y-69747523D01*
X321000571Y-69366571D01*
X321048190Y-69271333D01*
X321143428Y-69223714D01*
X321333904Y-69223714D01*
X321429142Y-69271333D01*
X321476761Y-69366571D01*
X321476761Y-69461809D01*
X321000571Y-69557047D01*
X321905333Y-69890380D02*
X321905333Y-69223714D01*
X321905333Y-69414190D02*
X321952952Y-69318952D01*
X322000571Y-69271333D01*
X322095809Y-69223714D01*
X322191047Y-69223714D01*
X322952952Y-69890380D02*
X322952952Y-69366571D01*
X322905333Y-69271333D01*
X322810095Y-69223714D01*
X322619619Y-69223714D01*
X322524380Y-69271333D01*
X322952952Y-69842761D02*
X322857714Y-69890380D01*
X322619619Y-69890380D01*
X322524380Y-69842761D01*
X322476761Y-69747523D01*
X322476761Y-69652285D01*
X322524380Y-69557047D01*
X322619619Y-69509428D01*
X322857714Y-69509428D01*
X322952952Y-69461809D01*
X323286285Y-69223714D02*
X323667238Y-69223714D01*
X323429142Y-68890380D02*
X323429142Y-69747523D01*
X323476761Y-69842761D01*
X323572000Y-69890380D01*
X323667238Y-69890380D01*
X324143428Y-69890380D02*
X324048190Y-69842761D01*
X324000571Y-69795142D01*
X323952952Y-69699904D01*
X323952952Y-69414190D01*
X324000571Y-69318952D01*
X324048190Y-69271333D01*
X324143428Y-69223714D01*
X324286285Y-69223714D01*
X324381523Y-69271333D01*
X324429142Y-69318952D01*
X324476761Y-69414190D01*
X324476761Y-69699904D01*
X324429142Y-69795142D01*
X324381523Y-69842761D01*
X324286285Y-69890380D01*
X324143428Y-69890380D01*
X324905333Y-69890380D02*
X324905333Y-69223714D01*
X324905333Y-69414190D02*
X324952952Y-69318952D01*
X325000571Y-69271333D01*
X325095809Y-69223714D01*
X325191047Y-69223714D01*
%TO.C,SW37*%
X357040476Y-74318761D02*
X357183333Y-74366380D01*
X357421428Y-74366380D01*
X357516666Y-74318761D01*
X357564285Y-74271142D01*
X357611904Y-74175904D01*
X357611904Y-74080666D01*
X357564285Y-73985428D01*
X357516666Y-73937809D01*
X357421428Y-73890190D01*
X357230952Y-73842571D01*
X357135714Y-73794952D01*
X357088095Y-73747333D01*
X357040476Y-73652095D01*
X357040476Y-73556857D01*
X357088095Y-73461619D01*
X357135714Y-73414000D01*
X357230952Y-73366380D01*
X357469047Y-73366380D01*
X357611904Y-73414000D01*
X357945238Y-73366380D02*
X358183333Y-74366380D01*
X358373809Y-73652095D01*
X358564285Y-74366380D01*
X358802380Y-73366380D01*
X359088095Y-73366380D02*
X359707142Y-73366380D01*
X359373809Y-73747333D01*
X359516666Y-73747333D01*
X359611904Y-73794952D01*
X359659523Y-73842571D01*
X359707142Y-73937809D01*
X359707142Y-74175904D01*
X359659523Y-74271142D01*
X359611904Y-74318761D01*
X359516666Y-74366380D01*
X359230952Y-74366380D01*
X359135714Y-74318761D01*
X359088095Y-74271142D01*
X360040476Y-73366380D02*
X360707142Y-73366380D01*
X360278571Y-74366380D01*
X359092476Y-77684380D02*
X358902000Y-77684380D01*
X358806761Y-77732000D01*
X358759142Y-77779619D01*
X358663904Y-77922476D01*
X358616285Y-78112952D01*
X358616285Y-78493904D01*
X358663904Y-78589142D01*
X358711523Y-78636761D01*
X358806761Y-78684380D01*
X358997238Y-78684380D01*
X359092476Y-78636761D01*
X359140095Y-78589142D01*
X359187714Y-78493904D01*
X359187714Y-78255809D01*
X359140095Y-78160571D01*
X359092476Y-78112952D01*
X358997238Y-78065333D01*
X358806761Y-78065333D01*
X358711523Y-78112952D01*
X358663904Y-78160571D01*
X358616285Y-78255809D01*
%TO.C,R13*%
X172839142Y-85796380D02*
X172505809Y-85320190D01*
X172267714Y-85796380D02*
X172267714Y-84796380D01*
X172648666Y-84796380D01*
X172743904Y-84844000D01*
X172791523Y-84891619D01*
X172839142Y-84986857D01*
X172839142Y-85129714D01*
X172791523Y-85224952D01*
X172743904Y-85272571D01*
X172648666Y-85320190D01*
X172267714Y-85320190D01*
X173791523Y-85796380D02*
X173220095Y-85796380D01*
X173505809Y-85796380D02*
X173505809Y-84796380D01*
X173410571Y-84939238D01*
X173315333Y-85034476D01*
X173220095Y-85082095D01*
X174124857Y-84796380D02*
X174743904Y-84796380D01*
X174410571Y-85177333D01*
X174553428Y-85177333D01*
X174648666Y-85224952D01*
X174696285Y-85272571D01*
X174743904Y-85367809D01*
X174743904Y-85605904D01*
X174696285Y-85701142D01*
X174648666Y-85748761D01*
X174553428Y-85796380D01*
X174267714Y-85796380D01*
X174172476Y-85748761D01*
X174124857Y-85701142D01*
%TO.C,R14*%
X172839142Y-87828380D02*
X172505809Y-87352190D01*
X172267714Y-87828380D02*
X172267714Y-86828380D01*
X172648666Y-86828380D01*
X172743904Y-86876000D01*
X172791523Y-86923619D01*
X172839142Y-87018857D01*
X172839142Y-87161714D01*
X172791523Y-87256952D01*
X172743904Y-87304571D01*
X172648666Y-87352190D01*
X172267714Y-87352190D01*
X173791523Y-87828380D02*
X173220095Y-87828380D01*
X173505809Y-87828380D02*
X173505809Y-86828380D01*
X173410571Y-86971238D01*
X173315333Y-87066476D01*
X173220095Y-87114095D01*
X174648666Y-87161714D02*
X174648666Y-87828380D01*
X174410571Y-86780761D02*
X174172476Y-87495047D01*
X174791523Y-87495047D01*
%TO.C,U6*%
X148048380Y-86613904D02*
X148857904Y-86613904D01*
X148953142Y-86566285D01*
X149000761Y-86518666D01*
X149048380Y-86423428D01*
X149048380Y-86232952D01*
X149000761Y-86137714D01*
X148953142Y-86090095D01*
X148857904Y-86042476D01*
X148048380Y-86042476D01*
X148048380Y-85137714D02*
X148048380Y-85328190D01*
X148096000Y-85423428D01*
X148143619Y-85471047D01*
X148286476Y-85566285D01*
X148476952Y-85613904D01*
X148857904Y-85613904D01*
X148953142Y-85566285D01*
X149000761Y-85518666D01*
X149048380Y-85423428D01*
X149048380Y-85232952D01*
X149000761Y-85137714D01*
X148953142Y-85090095D01*
X148857904Y-85042476D01*
X148619809Y-85042476D01*
X148524571Y-85090095D01*
X148476952Y-85137714D01*
X148429333Y-85232952D01*
X148429333Y-85423428D01*
X148476952Y-85518666D01*
X148524571Y-85566285D01*
X148619809Y-85613904D01*
%TO.C,Y1*%
X110722190Y-63722190D02*
X111198380Y-63722190D01*
X110198380Y-64055523D02*
X110722190Y-63722190D01*
X110198380Y-63388857D01*
X111198380Y-62531714D02*
X111198380Y-63103142D01*
X111198380Y-62817428D02*
X110198380Y-62817428D01*
X110341238Y-62912666D01*
X110436476Y-63007904D01*
X110484095Y-63103142D01*
%TD*%
M02*
