%TF.GenerationSoftware,KiCad,Pcbnew,(5.1.10)-1*%
%TF.CreationDate,2021-10-29T17:57:07+02:00*%
%TF.ProjectId,xfm2-ui-board,78666d32-2d75-4692-9d62-6f6172642e6b,rev?*%
%TF.SameCoordinates,Original*%
%TF.FileFunction,Soldermask,Bot*%
%TF.FilePolarity,Negative*%
%FSLAX46Y46*%
G04 Gerber Fmt 4.6, Leading zero omitted, Abs format (unit mm)*
G04 Created by KiCad (PCBNEW (5.1.10)-1) date 2021-10-29 17:57:07*
%MOMM*%
%LPD*%
G01*
G04 APERTURE LIST*
%ADD10C,5.600000*%
%ADD11C,3.600000*%
%ADD12R,1.700000X1.700000*%
%ADD13O,1.700000X1.700000*%
%ADD14C,2.000000*%
%ADD15O,2.000000X1.000000*%
%ADD16O,2.100000X1.050000*%
%ADD17C,0.650000*%
%ADD18C,4.350000*%
%ADD19C,1.800000*%
%ADD20C,2.340000*%
%ADD21C,2.250000*%
%ADD22C,3.000000*%
%ADD23R,2.000000X2.000000*%
%ADD24R,3.200000X2.000000*%
G04 APERTURE END LIST*
D10*
%TO.C,REF\u002A\u002A*%
X11176000Y-133604000D03*
D11*
X11176000Y-133604000D03*
%TD*%
D10*
%TO.C,REF\u002A\u002A*%
X367792000Y-37338000D03*
D11*
X367792000Y-37338000D03*
%TD*%
D10*
%TO.C,REF\u002A\u002A*%
X367792000Y-133350000D03*
D11*
X367792000Y-133350000D03*
%TD*%
D10*
%TO.C,REF\u002A\u002A*%
X11176000Y-37338000D03*
D11*
X11176000Y-37338000D03*
%TD*%
D12*
%TO.C,J5*%
X113030000Y-41910000D03*
D13*
X110490000Y-41910000D03*
X107950000Y-41910000D03*
X105410000Y-41910000D03*
X102870000Y-41910000D03*
X100330000Y-41910000D03*
%TD*%
D14*
%TO.C,SW3*%
X187904378Y-102362000D03*
X187904378Y-106862000D03*
X181404378Y-102362000D03*
X181404378Y-106862000D03*
%TD*%
%TO.C,SW10*%
X198906187Y-106862000D03*
X198906187Y-102362000D03*
X205406187Y-106862000D03*
X205406187Y-102362000D03*
%TD*%
%TO.C,SW1*%
X14160500Y-51236000D03*
X14160500Y-46736000D03*
X20660500Y-51236000D03*
X20660500Y-46736000D03*
%TD*%
%TO.C,SW6*%
X341272000Y-62738000D03*
X341272000Y-67238000D03*
X334772000Y-62738000D03*
X334772000Y-67238000D03*
%TD*%
D12*
%TO.C,J2*%
X122174000Y-41656000D03*
D13*
X124714000Y-41656000D03*
X127254000Y-41656000D03*
X129794000Y-41656000D03*
X132334000Y-41656000D03*
X134874000Y-41656000D03*
%TD*%
D14*
%TO.C,SW9*%
X93895333Y-106862000D03*
X93895333Y-102362000D03*
X100395333Y-106862000D03*
X100395333Y-102362000D03*
%TD*%
D12*
%TO.C,J1*%
X14478000Y-59436000D03*
D13*
X17018000Y-59436000D03*
X14478000Y-61976000D03*
X17018000Y-61976000D03*
X14478000Y-64516000D03*
X17018000Y-64516000D03*
X14478000Y-67056000D03*
X17018000Y-67056000D03*
X14478000Y-69596000D03*
X17018000Y-69596000D03*
X14478000Y-72136000D03*
X17018000Y-72136000D03*
X14478000Y-74676000D03*
X17018000Y-74676000D03*
X14478000Y-77216000D03*
X17018000Y-77216000D03*
X14478000Y-79756000D03*
X17018000Y-79756000D03*
X14478000Y-82296000D03*
X17018000Y-82296000D03*
%TD*%
D15*
%TO.C,J4*%
X14986000Y-91692000D03*
X14986000Y-100332000D03*
D16*
X19166000Y-91692000D03*
X19166000Y-100332000D03*
D17*
X18666000Y-98902000D03*
X18666000Y-93122000D03*
%TD*%
D14*
%TO.C,SW8*%
X304442000Y-71628000D03*
X304442000Y-76128000D03*
X297942000Y-71628000D03*
X297942000Y-76128000D03*
%TD*%
%TO.C,SW4*%
X62888000Y-60960000D03*
X62888000Y-65460000D03*
X56388000Y-60960000D03*
X56388000Y-65460000D03*
%TD*%
D12*
%TO.C,J3*%
X70866000Y-86360000D03*
D13*
X73406000Y-86360000D03*
X70866000Y-83820000D03*
X73406000Y-83820000D03*
X70866000Y-81280000D03*
X73406000Y-81280000D03*
X70866000Y-78740000D03*
X73406000Y-78740000D03*
X70866000Y-76200000D03*
X73406000Y-76200000D03*
X70866000Y-73660000D03*
X73406000Y-73660000D03*
X70866000Y-71120000D03*
X73406000Y-71120000D03*
X70866000Y-68580000D03*
X73406000Y-68580000D03*
X70866000Y-66040000D03*
X73406000Y-66040000D03*
X70866000Y-63500000D03*
X73406000Y-63500000D03*
X70866000Y-60960000D03*
X73406000Y-60960000D03*
%TD*%
D14*
%TO.C,SW2*%
X84224000Y-102362000D03*
X84224000Y-106862000D03*
X77724000Y-102362000D03*
X77724000Y-106862000D03*
%TD*%
%TO.C,SW7*%
X314856000Y-80518000D03*
X314856000Y-85018000D03*
X308356000Y-80518000D03*
X308356000Y-85018000D03*
%TD*%
%TO.C,SW5*%
X341272000Y-80518000D03*
X341272000Y-85018000D03*
X334772000Y-80518000D03*
X334772000Y-85018000D03*
%TD*%
%TO.C,SW11*%
X34036000Y-74858000D03*
X34036000Y-70358000D03*
X40536000Y-74858000D03*
X40536000Y-70358000D03*
%TD*%
%TO.C,SW12*%
X345186000Y-85018000D03*
X345186000Y-80518000D03*
X351686000Y-85018000D03*
X351686000Y-80518000D03*
%TD*%
%TO.C,SW19*%
X362100000Y-80518000D03*
X362100000Y-85018000D03*
X355600000Y-80518000D03*
X355600000Y-85018000D03*
%TD*%
%TO.C,SW20*%
X362100000Y-62738000D03*
X362100000Y-67238000D03*
X355600000Y-62738000D03*
X355600000Y-67238000D03*
%TD*%
%TO.C,SW24*%
X232537000Y-106735000D03*
X232537000Y-102235000D03*
X239037000Y-106735000D03*
X239037000Y-102235000D03*
%TD*%
%TO.C,SW25*%
X62888000Y-70358000D03*
X62888000Y-74858000D03*
X56388000Y-70358000D03*
X56388000Y-74858000D03*
%TD*%
%TO.C,SW21*%
X304442000Y-62738000D03*
X304442000Y-67238000D03*
X297942000Y-62738000D03*
X297942000Y-67238000D03*
%TD*%
%TO.C,SW22*%
X304442000Y-89408000D03*
X304442000Y-93908000D03*
X297942000Y-89408000D03*
X297942000Y-93908000D03*
%TD*%
%TO.C,SW28*%
X308356000Y-67238000D03*
X308356000Y-62738000D03*
X314856000Y-67238000D03*
X314856000Y-62738000D03*
%TD*%
%TO.C,SW13*%
X308356000Y-93908000D03*
X308356000Y-89408000D03*
X314856000Y-93908000D03*
X314856000Y-89408000D03*
%TD*%
%TO.C,SW15*%
X308356000Y-76128000D03*
X308356000Y-71628000D03*
X314856000Y-76128000D03*
X314856000Y-71628000D03*
%TD*%
%TO.C,SW16*%
X117897142Y-102362000D03*
X117897142Y-106862000D03*
X111397142Y-102362000D03*
X111397142Y-106862000D03*
%TD*%
%TO.C,SW30*%
X318770000Y-93908000D03*
X318770000Y-89408000D03*
X325270000Y-93908000D03*
X325270000Y-89408000D03*
%TD*%
%TO.C,SW14*%
X345186000Y-67238000D03*
X345186000Y-62738000D03*
X351686000Y-67238000D03*
X351686000Y-62738000D03*
%TD*%
%TO.C,SW32*%
X345186000Y-93908000D03*
X345186000Y-89408000D03*
X351686000Y-93908000D03*
X351686000Y-89408000D03*
%TD*%
%TO.C,SW23*%
X135398951Y-102362000D03*
X135398951Y-106862000D03*
X128898951Y-102362000D03*
X128898951Y-106862000D03*
%TD*%
%TO.C,SW18*%
X45212000Y-74858000D03*
X45212000Y-70358000D03*
X51712000Y-74858000D03*
X51712000Y-70358000D03*
%TD*%
%TO.C,SW26*%
X334772000Y-93908000D03*
X334772000Y-89408000D03*
X341272000Y-93908000D03*
X341272000Y-89408000D03*
%TD*%
%TO.C,SW34*%
X351686000Y-71628000D03*
X351686000Y-76128000D03*
X345186000Y-71628000D03*
X345186000Y-76128000D03*
%TD*%
%TO.C,SW27*%
X334772000Y-76128000D03*
X334772000Y-71628000D03*
X341272000Y-76128000D03*
X341272000Y-71628000D03*
%TD*%
%TO.C,SW29*%
X152900760Y-102362000D03*
X152900760Y-106862000D03*
X146400760Y-102362000D03*
X146400760Y-106862000D03*
%TD*%
%TO.C,SW31*%
X34036000Y-84510000D03*
X34036000Y-80010000D03*
X40536000Y-84510000D03*
X40536000Y-80010000D03*
%TD*%
%TO.C,SW35*%
X304442000Y-80518000D03*
X304442000Y-85018000D03*
X297942000Y-80518000D03*
X297942000Y-85018000D03*
%TD*%
%TO.C,SW33*%
X163902569Y-106862000D03*
X163902569Y-102362000D03*
X170402569Y-106862000D03*
X170402569Y-102362000D03*
%TD*%
%TO.C,SW17*%
X222908000Y-102235000D03*
X222908000Y-106735000D03*
X216408000Y-102235000D03*
X216408000Y-106735000D03*
%TD*%
%TO.C,SW48*%
X318770000Y-76128000D03*
X318770000Y-71628000D03*
X325270000Y-76128000D03*
X325270000Y-71628000D03*
%TD*%
D18*
%TO.C,SW44*%
X222389000Y-119421000D03*
X208489000Y-119421000D03*
D19*
X220439000Y-129921000D03*
X215439000Y-129921000D03*
X210439000Y-129921000D03*
%TD*%
D20*
%TO.C,RV1*%
X30797500Y-54419500D03*
X40797500Y-51919500D03*
X30797500Y-49419500D03*
%TD*%
D19*
%TO.C,SW46*%
X51244500Y-98234500D03*
X56244500Y-98234500D03*
X61244500Y-98234500D03*
D18*
X49294500Y-87734500D03*
X63194500Y-87734500D03*
%TD*%
D20*
%TO.C,RV2*%
X45720000Y-49419500D03*
X55720000Y-51919500D03*
X45720000Y-54419500D03*
%TD*%
D14*
%TO.C,SW50*%
X45212000Y-65460000D03*
X45212000Y-60960000D03*
X51712000Y-65460000D03*
X51712000Y-60960000D03*
%TD*%
D21*
%TO.C,RV3*%
X260350000Y-102362000D03*
X256600000Y-102362000D03*
X260350000Y-67362000D03*
D22*
X258475000Y-97362000D03*
X258475000Y-74862000D03*
%TD*%
D18*
%TO.C,SW43*%
X130567800Y-119421000D03*
X116667800Y-119421000D03*
D19*
X128617800Y-129921000D03*
X123617800Y-129921000D03*
X118617800Y-129921000D03*
%TD*%
%TO.C,SW40*%
X95662501Y-129921000D03*
X100662501Y-129921000D03*
X105662501Y-129921000D03*
D18*
X93712501Y-119421000D03*
X107612501Y-119421000D03*
%TD*%
D19*
%TO.C,SW47*%
X164528398Y-129921000D03*
X169528398Y-129921000D03*
X174528398Y-129921000D03*
D18*
X162578398Y-119421000D03*
X176478398Y-119421000D03*
%TD*%
D14*
%TO.C,SW49*%
X40536000Y-60960000D03*
X40536000Y-65460000D03*
X34036000Y-60960000D03*
X34036000Y-65460000D03*
%TD*%
D23*
%TO.C,SW42*%
X275082000Y-65786000D03*
D14*
X275082000Y-68286000D03*
X275082000Y-70786000D03*
D24*
X282582000Y-62686000D03*
X282582000Y-73886000D03*
D14*
X289582000Y-65786000D03*
X289582000Y-70786000D03*
%TD*%
D19*
%TO.C,SW41*%
X187483697Y-129921000D03*
X192483697Y-129921000D03*
X197483697Y-129921000D03*
D18*
X185533697Y-119421000D03*
X199433697Y-119421000D03*
%TD*%
%TO.C,SW45*%
X153523099Y-119421000D03*
X139623099Y-119421000D03*
D19*
X151573099Y-129921000D03*
X146573099Y-129921000D03*
X141573099Y-129921000D03*
%TD*%
D14*
%TO.C,SW39*%
X318770000Y-85018000D03*
X318770000Y-80518000D03*
X325270000Y-85018000D03*
X325270000Y-80518000D03*
%TD*%
%TO.C,SW38*%
X355600000Y-93908000D03*
X355600000Y-89408000D03*
X362100000Y-93908000D03*
X362100000Y-89408000D03*
%TD*%
%TO.C,SW36*%
X325270000Y-62738000D03*
X325270000Y-67238000D03*
X318770000Y-62738000D03*
X318770000Y-67238000D03*
%TD*%
%TO.C,SW37*%
X355600000Y-76128000D03*
X355600000Y-71628000D03*
X362100000Y-76128000D03*
X362100000Y-71628000D03*
%TD*%
M02*
