%TF.GenerationSoftware,KiCad,Pcbnew,(5.1.10)-1*%
%TF.CreationDate,2021-10-29T18:14:56+02:00*%
%TF.ProjectId,xfm2-ui-board,78666d32-2d75-4692-9d62-6f6172642e6b,rev?*%
%TF.SameCoordinates,Original*%
%TF.FileFunction,Soldermask,Top*%
%TF.FilePolarity,Negative*%
%FSLAX46Y46*%
G04 Gerber Fmt 4.6, Leading zero omitted, Abs format (unit mm)*
G04 Created by KiCad (PCBNEW (5.1.10)-1) date 2021-10-29 18:14:56*
%MOMM*%
%LPD*%
G01*
G04 APERTURE LIST*
%ADD10C,5.600000*%
%ADD11C,3.600000*%
%ADD12R,1.700000X1.700000*%
%ADD13O,1.700000X1.700000*%
%ADD14C,2.000000*%
%ADD15R,1.350000X0.700000*%
%ADD16O,2.000000X1.000000*%
%ADD17O,2.100000X1.050000*%
%ADD18C,0.650000*%
%ADD19R,1.150000X0.600000*%
%ADD20R,1.150000X0.300000*%
%ADD21C,4.350000*%
%ADD22C,1.800000*%
%ADD23C,2.340000*%
%ADD24C,2.250000*%
%ADD25C,3.000000*%
%ADD26R,2.000000X2.000000*%
%ADD27R,3.200000X2.000000*%
%ADD28R,1.750000X0.450000*%
%ADD29R,0.300000X1.500000*%
%ADD30R,1.500000X0.300000*%
%ADD31R,1.800000X2.100000*%
G04 APERTURE END LIST*
D10*
%TO.C,REF\u002A\u002A*%
X11176000Y-133604000D03*
D11*
X11176000Y-133604000D03*
%TD*%
D10*
%TO.C,REF\u002A\u002A*%
X367792000Y-37338000D03*
D11*
X367792000Y-37338000D03*
%TD*%
D10*
%TO.C,REF\u002A\u002A*%
X367792000Y-133350000D03*
D11*
X367792000Y-133350000D03*
%TD*%
D10*
%TO.C,REF\u002A\u002A*%
X11176000Y-37338000D03*
D11*
X11176000Y-37338000D03*
%TD*%
D12*
%TO.C,J5*%
X113030000Y-41910000D03*
D13*
X110490000Y-41910000D03*
X107950000Y-41910000D03*
X105410000Y-41910000D03*
X102870000Y-41910000D03*
X100330000Y-41910000D03*
%TD*%
%TO.C,C1*%
G36*
G01*
X116263000Y-61247000D02*
X116263000Y-62197000D01*
G75*
G02*
X116013000Y-62447000I-250000J0D01*
G01*
X115338000Y-62447000D01*
G75*
G02*
X115088000Y-62197000I0J250000D01*
G01*
X115088000Y-61247000D01*
G75*
G02*
X115338000Y-60997000I250000J0D01*
G01*
X116013000Y-60997000D01*
G75*
G02*
X116263000Y-61247000I0J-250000D01*
G01*
G37*
G36*
G01*
X118338000Y-61247000D02*
X118338000Y-62197000D01*
G75*
G02*
X118088000Y-62447000I-250000J0D01*
G01*
X117413000Y-62447000D01*
G75*
G02*
X117163000Y-62197000I0J250000D01*
G01*
X117163000Y-61247000D01*
G75*
G02*
X117413000Y-60997000I250000J0D01*
G01*
X118088000Y-60997000D01*
G75*
G02*
X118338000Y-61247000I0J-250000D01*
G01*
G37*
%TD*%
D14*
%TO.C,SW3*%
X187904378Y-102362000D03*
X187904378Y-106862000D03*
X181404378Y-102362000D03*
X181404378Y-106862000D03*
%TD*%
%TO.C,C9*%
G36*
G01*
X34645000Y-115730000D02*
X34645000Y-116680000D01*
G75*
G02*
X34395000Y-116930000I-250000J0D01*
G01*
X33720000Y-116930000D01*
G75*
G02*
X33470000Y-116680000I0J250000D01*
G01*
X33470000Y-115730000D01*
G75*
G02*
X33720000Y-115480000I250000J0D01*
G01*
X34395000Y-115480000D01*
G75*
G02*
X34645000Y-115730000I0J-250000D01*
G01*
G37*
G36*
G01*
X32570000Y-115730000D02*
X32570000Y-116680000D01*
G75*
G02*
X32320000Y-116930000I-250000J0D01*
G01*
X31645000Y-116930000D01*
G75*
G02*
X31395000Y-116680000I0J250000D01*
G01*
X31395000Y-115730000D01*
G75*
G02*
X31645000Y-115480000I250000J0D01*
G01*
X32320000Y-115480000D01*
G75*
G02*
X32570000Y-115730000I0J-250000D01*
G01*
G37*
%TD*%
%TO.C,SW10*%
X198906187Y-106862000D03*
X198906187Y-102362000D03*
X205406187Y-106862000D03*
X205406187Y-102362000D03*
%TD*%
%TO.C,SW1*%
X14160500Y-51236000D03*
X14160500Y-46736000D03*
X20660500Y-51236000D03*
X20660500Y-46736000D03*
%TD*%
%TO.C,R11*%
G36*
G01*
X21647999Y-99206000D02*
X22548001Y-99206000D01*
G75*
G02*
X22798000Y-99455999I0J-249999D01*
G01*
X22798000Y-100156001D01*
G75*
G02*
X22548001Y-100406000I-249999J0D01*
G01*
X21647999Y-100406000D01*
G75*
G02*
X21398000Y-100156001I0J249999D01*
G01*
X21398000Y-99455999D01*
G75*
G02*
X21647999Y-99206000I249999J0D01*
G01*
G37*
G36*
G01*
X21647999Y-97206000D02*
X22548001Y-97206000D01*
G75*
G02*
X22798000Y-97455999I0J-249999D01*
G01*
X22798000Y-98156001D01*
G75*
G02*
X22548001Y-98406000I-249999J0D01*
G01*
X21647999Y-98406000D01*
G75*
G02*
X21398000Y-98156001I0J249999D01*
G01*
X21398000Y-97455999D01*
G75*
G02*
X21647999Y-97206000I249999J0D01*
G01*
G37*
%TD*%
%TO.C,R7*%
G36*
G01*
X29921000Y-103181999D02*
X29921000Y-104082001D01*
G75*
G02*
X29671001Y-104332000I-249999J0D01*
G01*
X28970999Y-104332000D01*
G75*
G02*
X28721000Y-104082001I0J249999D01*
G01*
X28721000Y-103181999D01*
G75*
G02*
X28970999Y-102932000I249999J0D01*
G01*
X29671001Y-102932000D01*
G75*
G02*
X29921000Y-103181999I0J-249999D01*
G01*
G37*
G36*
G01*
X27921000Y-103181999D02*
X27921000Y-104082001D01*
G75*
G02*
X27671001Y-104332000I-249999J0D01*
G01*
X26970999Y-104332000D01*
G75*
G02*
X26721000Y-104082001I0J249999D01*
G01*
X26721000Y-103181999D01*
G75*
G02*
X26970999Y-102932000I249999J0D01*
G01*
X27671001Y-102932000D01*
G75*
G02*
X27921000Y-103181999I0J-249999D01*
G01*
G37*
%TD*%
%TO.C,SW6*%
X341272000Y-62738000D03*
X341272000Y-67238000D03*
X334772000Y-62738000D03*
X334772000Y-67238000D03*
%TD*%
%TO.C,C6*%
G36*
G01*
X17686000Y-112464000D02*
X18636000Y-112464000D01*
G75*
G02*
X18886000Y-112714000I0J-250000D01*
G01*
X18886000Y-113389000D01*
G75*
G02*
X18636000Y-113639000I-250000J0D01*
G01*
X17686000Y-113639000D01*
G75*
G02*
X17436000Y-113389000I0J250000D01*
G01*
X17436000Y-112714000D01*
G75*
G02*
X17686000Y-112464000I250000J0D01*
G01*
G37*
G36*
G01*
X17686000Y-110389000D02*
X18636000Y-110389000D01*
G75*
G02*
X18886000Y-110639000I0J-250000D01*
G01*
X18886000Y-111314000D01*
G75*
G02*
X18636000Y-111564000I-250000J0D01*
G01*
X17686000Y-111564000D01*
G75*
G02*
X17436000Y-111314000I0J250000D01*
G01*
X17436000Y-110639000D01*
G75*
G02*
X17686000Y-110389000I250000J0D01*
G01*
G37*
%TD*%
%TO.C,C10*%
G36*
G01*
X32570000Y-117889000D02*
X32570000Y-118839000D01*
G75*
G02*
X32320000Y-119089000I-250000J0D01*
G01*
X31645000Y-119089000D01*
G75*
G02*
X31395000Y-118839000I0J250000D01*
G01*
X31395000Y-117889000D01*
G75*
G02*
X31645000Y-117639000I250000J0D01*
G01*
X32320000Y-117639000D01*
G75*
G02*
X32570000Y-117889000I0J-250000D01*
G01*
G37*
G36*
G01*
X34645000Y-117889000D02*
X34645000Y-118839000D01*
G75*
G02*
X34395000Y-119089000I-250000J0D01*
G01*
X33720000Y-119089000D01*
G75*
G02*
X33470000Y-118839000I0J250000D01*
G01*
X33470000Y-117889000D01*
G75*
G02*
X33720000Y-117639000I250000J0D01*
G01*
X34395000Y-117639000D01*
G75*
G02*
X34645000Y-117889000I0J-250000D01*
G01*
G37*
%TD*%
D12*
%TO.C,J2*%
X122174000Y-41656000D03*
D13*
X124714000Y-41656000D03*
X127254000Y-41656000D03*
X129794000Y-41656000D03*
X132334000Y-41656000D03*
X134874000Y-41656000D03*
%TD*%
%TO.C,R5*%
G36*
G01*
X304876000Y-113341999D02*
X304876000Y-114242001D01*
G75*
G02*
X304626001Y-114492000I-249999J0D01*
G01*
X303925999Y-114492000D01*
G75*
G02*
X303676000Y-114242001I0J249999D01*
G01*
X303676000Y-113341999D01*
G75*
G02*
X303925999Y-113092000I249999J0D01*
G01*
X304626001Y-113092000D01*
G75*
G02*
X304876000Y-113341999I0J-249999D01*
G01*
G37*
G36*
G01*
X302876000Y-113341999D02*
X302876000Y-114242001D01*
G75*
G02*
X302626001Y-114492000I-249999J0D01*
G01*
X301925999Y-114492000D01*
G75*
G02*
X301676000Y-114242001I0J249999D01*
G01*
X301676000Y-113341999D01*
G75*
G02*
X301925999Y-113092000I249999J0D01*
G01*
X302626001Y-113092000D01*
G75*
G02*
X302876000Y-113341999I0J-249999D01*
G01*
G37*
%TD*%
%TO.C,D1*%
G36*
G01*
X12905001Y-42122002D02*
X12905001Y-41222000D01*
G75*
G02*
X13155000Y-40972001I249999J0D01*
G01*
X13805002Y-40972001D01*
G75*
G02*
X14055001Y-41222000I0J-249999D01*
G01*
X14055001Y-42122002D01*
G75*
G02*
X13805002Y-42372001I-249999J0D01*
G01*
X13155000Y-42372001D01*
G75*
G02*
X12905001Y-42122002I0J249999D01*
G01*
G37*
G36*
G01*
X14955001Y-42122002D02*
X14955001Y-41222000D01*
G75*
G02*
X15205000Y-40972001I249999J0D01*
G01*
X15855002Y-40972001D01*
G75*
G02*
X16105001Y-41222000I0J-249999D01*
G01*
X16105001Y-42122002D01*
G75*
G02*
X15855002Y-42372001I-249999J0D01*
G01*
X15205000Y-42372001D01*
G75*
G02*
X14955001Y-42122002I0J249999D01*
G01*
G37*
%TD*%
%TO.C,R9*%
G36*
G01*
X27755001Y-124663000D02*
X26854999Y-124663000D01*
G75*
G02*
X26605000Y-124413001I0J249999D01*
G01*
X26605000Y-123712999D01*
G75*
G02*
X26854999Y-123463000I249999J0D01*
G01*
X27755001Y-123463000D01*
G75*
G02*
X28005000Y-123712999I0J-249999D01*
G01*
X28005000Y-124413001D01*
G75*
G02*
X27755001Y-124663000I-249999J0D01*
G01*
G37*
G36*
G01*
X27755001Y-122663000D02*
X26854999Y-122663000D01*
G75*
G02*
X26605000Y-122413001I0J249999D01*
G01*
X26605000Y-121712999D01*
G75*
G02*
X26854999Y-121463000I249999J0D01*
G01*
X27755001Y-121463000D01*
G75*
G02*
X28005000Y-121712999I0J-249999D01*
G01*
X28005000Y-122413001D01*
G75*
G02*
X27755001Y-122663000I-249999J0D01*
G01*
G37*
%TD*%
%TO.C,R8*%
G36*
G01*
X24949999Y-123463000D02*
X25850001Y-123463000D01*
G75*
G02*
X26100000Y-123712999I0J-249999D01*
G01*
X26100000Y-124413001D01*
G75*
G02*
X25850001Y-124663000I-249999J0D01*
G01*
X24949999Y-124663000D01*
G75*
G02*
X24700000Y-124413001I0J249999D01*
G01*
X24700000Y-123712999D01*
G75*
G02*
X24949999Y-123463000I249999J0D01*
G01*
G37*
G36*
G01*
X24949999Y-121463000D02*
X25850001Y-121463000D01*
G75*
G02*
X26100000Y-121712999I0J-249999D01*
G01*
X26100000Y-122413001D01*
G75*
G02*
X25850001Y-122663000I-249999J0D01*
G01*
X24949999Y-122663000D01*
G75*
G02*
X24700000Y-122413001I0J249999D01*
G01*
X24700000Y-121712999D01*
G75*
G02*
X24949999Y-121463000I249999J0D01*
G01*
G37*
%TD*%
D14*
%TO.C,SW9*%
X93895333Y-106862000D03*
X93895333Y-102362000D03*
X100395333Y-106862000D03*
X100395333Y-102362000D03*
%TD*%
D12*
%TO.C,J1*%
X14478000Y-59436000D03*
D13*
X17018000Y-59436000D03*
X14478000Y-61976000D03*
X17018000Y-61976000D03*
X14478000Y-64516000D03*
X17018000Y-64516000D03*
X14478000Y-67056000D03*
X17018000Y-67056000D03*
X14478000Y-69596000D03*
X17018000Y-69596000D03*
X14478000Y-72136000D03*
X17018000Y-72136000D03*
X14478000Y-74676000D03*
X17018000Y-74676000D03*
X14478000Y-77216000D03*
X17018000Y-77216000D03*
X14478000Y-79756000D03*
X17018000Y-79756000D03*
X14478000Y-82296000D03*
X17018000Y-82296000D03*
%TD*%
%TO.C,C3*%
G36*
G01*
X130053500Y-52164000D02*
X130053500Y-51214000D01*
G75*
G02*
X130303500Y-50964000I250000J0D01*
G01*
X130978500Y-50964000D01*
G75*
G02*
X131228500Y-51214000I0J-250000D01*
G01*
X131228500Y-52164000D01*
G75*
G02*
X130978500Y-52414000I-250000J0D01*
G01*
X130303500Y-52414000D01*
G75*
G02*
X130053500Y-52164000I0J250000D01*
G01*
G37*
G36*
G01*
X127978500Y-52164000D02*
X127978500Y-51214000D01*
G75*
G02*
X128228500Y-50964000I250000J0D01*
G01*
X128903500Y-50964000D01*
G75*
G02*
X129153500Y-51214000I0J-250000D01*
G01*
X129153500Y-52164000D01*
G75*
G02*
X128903500Y-52414000I-250000J0D01*
G01*
X128228500Y-52414000D01*
G75*
G02*
X127978500Y-52164000I0J250000D01*
G01*
G37*
%TD*%
%TO.C,C5*%
G36*
G01*
X22462000Y-80306000D02*
X22462000Y-79206000D01*
G75*
G02*
X22712000Y-78956000I250000J0D01*
G01*
X25212000Y-78956000D01*
G75*
G02*
X25462000Y-79206000I0J-250000D01*
G01*
X25462000Y-80306000D01*
G75*
G02*
X25212000Y-80556000I-250000J0D01*
G01*
X22712000Y-80556000D01*
G75*
G02*
X22462000Y-80306000I0J250000D01*
G01*
G37*
G36*
G01*
X26862000Y-80306000D02*
X26862000Y-79206000D01*
G75*
G02*
X27112000Y-78956000I250000J0D01*
G01*
X29612000Y-78956000D01*
G75*
G02*
X29862000Y-79206000I0J-250000D01*
G01*
X29862000Y-80306000D01*
G75*
G02*
X29612000Y-80556000I-250000J0D01*
G01*
X27112000Y-80556000D01*
G75*
G02*
X26862000Y-80306000I0J250000D01*
G01*
G37*
%TD*%
%TO.C,C7*%
G36*
G01*
X20668000Y-113639000D02*
X19718000Y-113639000D01*
G75*
G02*
X19468000Y-113389000I0J250000D01*
G01*
X19468000Y-112714000D01*
G75*
G02*
X19718000Y-112464000I250000J0D01*
G01*
X20668000Y-112464000D01*
G75*
G02*
X20918000Y-112714000I0J-250000D01*
G01*
X20918000Y-113389000D01*
G75*
G02*
X20668000Y-113639000I-250000J0D01*
G01*
G37*
G36*
G01*
X20668000Y-111564000D02*
X19718000Y-111564000D01*
G75*
G02*
X19468000Y-111314000I0J250000D01*
G01*
X19468000Y-110639000D01*
G75*
G02*
X19718000Y-110389000I250000J0D01*
G01*
X20668000Y-110389000D01*
G75*
G02*
X20918000Y-110639000I0J-250000D01*
G01*
X20918000Y-111314000D01*
G75*
G02*
X20668000Y-111564000I-250000J0D01*
G01*
G37*
%TD*%
D15*
%TO.C,IC1*%
X107540000Y-67945000D03*
X107540000Y-69215000D03*
X107540000Y-70485000D03*
X107540000Y-71755000D03*
X113440000Y-71755000D03*
X113440000Y-70485000D03*
X113440000Y-69215000D03*
X113440000Y-67945000D03*
%TD*%
D16*
%TO.C,J4*%
X14986000Y-91692000D03*
X14986000Y-100332000D03*
D17*
X19166000Y-91692000D03*
X19166000Y-100332000D03*
D18*
X18666000Y-98902000D03*
X18666000Y-93122000D03*
D19*
X19741000Y-92812000D03*
X19741000Y-99212000D03*
X19741000Y-93612000D03*
X19741000Y-98412000D03*
D20*
X19741000Y-96262000D03*
X19741000Y-95762000D03*
X19741000Y-96762000D03*
X19741000Y-97262000D03*
X19741000Y-97762000D03*
X19741000Y-95262000D03*
X19741000Y-94762000D03*
X19741000Y-94262000D03*
%TD*%
%TO.C,R3*%
G36*
G01*
X338690000Y-113341999D02*
X338690000Y-114242001D01*
G75*
G02*
X338440001Y-114492000I-249999J0D01*
G01*
X337739999Y-114492000D01*
G75*
G02*
X337490000Y-114242001I0J249999D01*
G01*
X337490000Y-113341999D01*
G75*
G02*
X337739999Y-113092000I249999J0D01*
G01*
X338440001Y-113092000D01*
G75*
G02*
X338690000Y-113341999I0J-249999D01*
G01*
G37*
G36*
G01*
X340690000Y-113341999D02*
X340690000Y-114242001D01*
G75*
G02*
X340440001Y-114492000I-249999J0D01*
G01*
X339739999Y-114492000D01*
G75*
G02*
X339490000Y-114242001I0J249999D01*
G01*
X339490000Y-113341999D01*
G75*
G02*
X339739999Y-113092000I249999J0D01*
G01*
X340440001Y-113092000D01*
G75*
G02*
X340690000Y-113341999I0J-249999D01*
G01*
G37*
%TD*%
%TO.C,R6*%
G36*
G01*
X28721000Y-106114001D02*
X28721000Y-105213999D01*
G75*
G02*
X28970999Y-104964000I249999J0D01*
G01*
X29671001Y-104964000D01*
G75*
G02*
X29921000Y-105213999I0J-249999D01*
G01*
X29921000Y-106114001D01*
G75*
G02*
X29671001Y-106364000I-249999J0D01*
G01*
X28970999Y-106364000D01*
G75*
G02*
X28721000Y-106114001I0J249999D01*
G01*
G37*
G36*
G01*
X26721000Y-106114001D02*
X26721000Y-105213999D01*
G75*
G02*
X26970999Y-104964000I249999J0D01*
G01*
X27671001Y-104964000D01*
G75*
G02*
X27921000Y-105213999I0J-249999D01*
G01*
X27921000Y-106114001D01*
G75*
G02*
X27671001Y-106364000I-249999J0D01*
G01*
X26970999Y-106364000D01*
G75*
G02*
X26721000Y-106114001I0J249999D01*
G01*
G37*
%TD*%
%TO.C,C4*%
G36*
G01*
X127978500Y-54196000D02*
X127978500Y-53246000D01*
G75*
G02*
X128228500Y-52996000I250000J0D01*
G01*
X128903500Y-52996000D01*
G75*
G02*
X129153500Y-53246000I0J-250000D01*
G01*
X129153500Y-54196000D01*
G75*
G02*
X128903500Y-54446000I-250000J0D01*
G01*
X128228500Y-54446000D01*
G75*
G02*
X127978500Y-54196000I0J250000D01*
G01*
G37*
G36*
G01*
X130053500Y-54196000D02*
X130053500Y-53246000D01*
G75*
G02*
X130303500Y-52996000I250000J0D01*
G01*
X130978500Y-52996000D01*
G75*
G02*
X131228500Y-53246000I0J-250000D01*
G01*
X131228500Y-54196000D01*
G75*
G02*
X130978500Y-54446000I-250000J0D01*
G01*
X130303500Y-54446000D01*
G75*
G02*
X130053500Y-54196000I0J250000D01*
G01*
G37*
%TD*%
%TO.C,R10*%
G36*
G01*
X22548001Y-95453000D02*
X21647999Y-95453000D01*
G75*
G02*
X21398000Y-95203001I0J249999D01*
G01*
X21398000Y-94502999D01*
G75*
G02*
X21647999Y-94253000I249999J0D01*
G01*
X22548001Y-94253000D01*
G75*
G02*
X22798000Y-94502999I0J-249999D01*
G01*
X22798000Y-95203001D01*
G75*
G02*
X22548001Y-95453000I-249999J0D01*
G01*
G37*
G36*
G01*
X22548001Y-93453000D02*
X21647999Y-93453000D01*
G75*
G02*
X21398000Y-93203001I0J249999D01*
G01*
X21398000Y-92502999D01*
G75*
G02*
X21647999Y-92253000I249999J0D01*
G01*
X22548001Y-92253000D01*
G75*
G02*
X22798000Y-92502999I0J-249999D01*
G01*
X22798000Y-93203001D01*
G75*
G02*
X22548001Y-93453000I-249999J0D01*
G01*
G37*
%TD*%
%TO.C,R4*%
G36*
G01*
X303676000Y-116274001D02*
X303676000Y-115373999D01*
G75*
G02*
X303925999Y-115124000I249999J0D01*
G01*
X304626001Y-115124000D01*
G75*
G02*
X304876000Y-115373999I0J-249999D01*
G01*
X304876000Y-116274001D01*
G75*
G02*
X304626001Y-116524000I-249999J0D01*
G01*
X303925999Y-116524000D01*
G75*
G02*
X303676000Y-116274001I0J249999D01*
G01*
G37*
G36*
G01*
X301676000Y-116274001D02*
X301676000Y-115373999D01*
G75*
G02*
X301925999Y-115124000I249999J0D01*
G01*
X302626001Y-115124000D01*
G75*
G02*
X302876000Y-115373999I0J-249999D01*
G01*
X302876000Y-116274001D01*
G75*
G02*
X302626001Y-116524000I-249999J0D01*
G01*
X301925999Y-116524000D01*
G75*
G02*
X301676000Y-116274001I0J249999D01*
G01*
G37*
%TD*%
%TO.C,C8*%
G36*
G01*
X31395000Y-114648000D02*
X31395000Y-113698000D01*
G75*
G02*
X31645000Y-113448000I250000J0D01*
G01*
X32320000Y-113448000D01*
G75*
G02*
X32570000Y-113698000I0J-250000D01*
G01*
X32570000Y-114648000D01*
G75*
G02*
X32320000Y-114898000I-250000J0D01*
G01*
X31645000Y-114898000D01*
G75*
G02*
X31395000Y-114648000I0J250000D01*
G01*
G37*
G36*
G01*
X33470000Y-114648000D02*
X33470000Y-113698000D01*
G75*
G02*
X33720000Y-113448000I250000J0D01*
G01*
X34395000Y-113448000D01*
G75*
G02*
X34645000Y-113698000I0J-250000D01*
G01*
X34645000Y-114648000D01*
G75*
G02*
X34395000Y-114898000I-250000J0D01*
G01*
X33720000Y-114898000D01*
G75*
G02*
X33470000Y-114648000I0J250000D01*
G01*
G37*
%TD*%
D14*
%TO.C,SW8*%
X304442000Y-71628000D03*
X304442000Y-76128000D03*
X297942000Y-71628000D03*
X297942000Y-76128000D03*
%TD*%
%TO.C,R12*%
G36*
G01*
X18688000Y-42106001D02*
X18688000Y-41205999D01*
G75*
G02*
X18937999Y-40956000I249999J0D01*
G01*
X19638001Y-40956000D01*
G75*
G02*
X19888000Y-41205999I0J-249999D01*
G01*
X19888000Y-42106001D01*
G75*
G02*
X19638001Y-42356000I-249999J0D01*
G01*
X18937999Y-42356000D01*
G75*
G02*
X18688000Y-42106001I0J249999D01*
G01*
G37*
G36*
G01*
X16688000Y-42106001D02*
X16688000Y-41205999D01*
G75*
G02*
X16937999Y-40956000I249999J0D01*
G01*
X17638001Y-40956000D01*
G75*
G02*
X17888000Y-41205999I0J-249999D01*
G01*
X17888000Y-42106001D01*
G75*
G02*
X17638001Y-42356000I-249999J0D01*
G01*
X16937999Y-42356000D01*
G75*
G02*
X16688000Y-42106001I0J249999D01*
G01*
G37*
%TD*%
%TO.C,C2*%
G36*
G01*
X118338000Y-65311000D02*
X118338000Y-66261000D01*
G75*
G02*
X118088000Y-66511000I-250000J0D01*
G01*
X117413000Y-66511000D01*
G75*
G02*
X117163000Y-66261000I0J250000D01*
G01*
X117163000Y-65311000D01*
G75*
G02*
X117413000Y-65061000I250000J0D01*
G01*
X118088000Y-65061000D01*
G75*
G02*
X118338000Y-65311000I0J-250000D01*
G01*
G37*
G36*
G01*
X116263000Y-65311000D02*
X116263000Y-66261000D01*
G75*
G02*
X116013000Y-66511000I-250000J0D01*
G01*
X115338000Y-66511000D01*
G75*
G02*
X115088000Y-66261000I0J250000D01*
G01*
X115088000Y-65311000D01*
G75*
G02*
X115338000Y-65061000I250000J0D01*
G01*
X116013000Y-65061000D01*
G75*
G02*
X116263000Y-65311000I0J-250000D01*
G01*
G37*
%TD*%
%TO.C,SW4*%
X62888000Y-60960000D03*
X62888000Y-65460000D03*
X56388000Y-60960000D03*
X56388000Y-65460000D03*
%TD*%
D12*
%TO.C,J3*%
X70866000Y-86360000D03*
D13*
X73406000Y-86360000D03*
X70866000Y-83820000D03*
X73406000Y-83820000D03*
X70866000Y-81280000D03*
X73406000Y-81280000D03*
X70866000Y-78740000D03*
X73406000Y-78740000D03*
X70866000Y-76200000D03*
X73406000Y-76200000D03*
X70866000Y-73660000D03*
X73406000Y-73660000D03*
X70866000Y-71120000D03*
X73406000Y-71120000D03*
X70866000Y-68580000D03*
X73406000Y-68580000D03*
X70866000Y-66040000D03*
X73406000Y-66040000D03*
X70866000Y-63500000D03*
X73406000Y-63500000D03*
X70866000Y-60960000D03*
X73406000Y-60960000D03*
%TD*%
%TO.C,R1*%
G36*
G01*
X26473999Y-42723000D02*
X27374001Y-42723000D01*
G75*
G02*
X27624000Y-42972999I0J-249999D01*
G01*
X27624000Y-43673001D01*
G75*
G02*
X27374001Y-43923000I-249999J0D01*
G01*
X26473999Y-43923000D01*
G75*
G02*
X26224000Y-43673001I0J249999D01*
G01*
X26224000Y-42972999D01*
G75*
G02*
X26473999Y-42723000I249999J0D01*
G01*
G37*
G36*
G01*
X26473999Y-44723000D02*
X27374001Y-44723000D01*
G75*
G02*
X27624000Y-44972999I0J-249999D01*
G01*
X27624000Y-45673001D01*
G75*
G02*
X27374001Y-45923000I-249999J0D01*
G01*
X26473999Y-45923000D01*
G75*
G02*
X26224000Y-45673001I0J249999D01*
G01*
X26224000Y-44972999D01*
G75*
G02*
X26473999Y-44723000I249999J0D01*
G01*
G37*
%TD*%
D14*
%TO.C,SW2*%
X84224000Y-102362000D03*
X84224000Y-106862000D03*
X77724000Y-102362000D03*
X77724000Y-106862000D03*
%TD*%
%TO.C,R2*%
G36*
G01*
X337490000Y-116274001D02*
X337490000Y-115373999D01*
G75*
G02*
X337739999Y-115124000I249999J0D01*
G01*
X338440001Y-115124000D01*
G75*
G02*
X338690000Y-115373999I0J-249999D01*
G01*
X338690000Y-116274001D01*
G75*
G02*
X338440001Y-116524000I-249999J0D01*
G01*
X337739999Y-116524000D01*
G75*
G02*
X337490000Y-116274001I0J249999D01*
G01*
G37*
G36*
G01*
X339490000Y-116274001D02*
X339490000Y-115373999D01*
G75*
G02*
X339739999Y-115124000I249999J0D01*
G01*
X340440001Y-115124000D01*
G75*
G02*
X340690000Y-115373999I0J-249999D01*
G01*
X340690000Y-116274001D01*
G75*
G02*
X340440001Y-116524000I-249999J0D01*
G01*
X339739999Y-116524000D01*
G75*
G02*
X339490000Y-116274001I0J249999D01*
G01*
G37*
%TD*%
%TO.C,SW7*%
X314856000Y-80518000D03*
X314856000Y-85018000D03*
X308356000Y-80518000D03*
X308356000Y-85018000D03*
%TD*%
%TO.C,SW5*%
X341272000Y-80518000D03*
X341272000Y-85018000D03*
X334772000Y-80518000D03*
X334772000Y-85018000D03*
%TD*%
%TO.C,SW11*%
X34036000Y-74858000D03*
X34036000Y-70358000D03*
X40536000Y-74858000D03*
X40536000Y-70358000D03*
%TD*%
%TO.C,SW12*%
X345186000Y-85018000D03*
X345186000Y-80518000D03*
X351686000Y-85018000D03*
X351686000Y-80518000D03*
%TD*%
%TO.C,SW19*%
X362100000Y-80518000D03*
X362100000Y-85018000D03*
X355600000Y-80518000D03*
X355600000Y-85018000D03*
%TD*%
%TO.C,SW20*%
X362100000Y-62738000D03*
X362100000Y-67238000D03*
X355600000Y-62738000D03*
X355600000Y-67238000D03*
%TD*%
%TO.C,SW24*%
X232537000Y-106735000D03*
X232537000Y-102235000D03*
X239037000Y-106735000D03*
X239037000Y-102235000D03*
%TD*%
%TO.C,SW25*%
X62888000Y-70358000D03*
X62888000Y-74858000D03*
X56388000Y-70358000D03*
X56388000Y-74858000D03*
%TD*%
%TO.C,SW21*%
X304442000Y-62738000D03*
X304442000Y-67238000D03*
X297942000Y-62738000D03*
X297942000Y-67238000D03*
%TD*%
%TO.C,SW22*%
X304442000Y-89408000D03*
X304442000Y-93908000D03*
X297942000Y-89408000D03*
X297942000Y-93908000D03*
%TD*%
%TO.C,SW28*%
X308356000Y-67238000D03*
X308356000Y-62738000D03*
X314856000Y-67238000D03*
X314856000Y-62738000D03*
%TD*%
%TO.C,SW13*%
X308356000Y-93908000D03*
X308356000Y-89408000D03*
X314856000Y-93908000D03*
X314856000Y-89408000D03*
%TD*%
%TO.C,SW15*%
X308356000Y-76128000D03*
X308356000Y-71628000D03*
X314856000Y-76128000D03*
X314856000Y-71628000D03*
%TD*%
%TO.C,SW16*%
X117897142Y-102362000D03*
X117897142Y-106862000D03*
X111397142Y-102362000D03*
X111397142Y-106862000D03*
%TD*%
%TO.C,SW30*%
X318770000Y-93908000D03*
X318770000Y-89408000D03*
X325270000Y-93908000D03*
X325270000Y-89408000D03*
%TD*%
%TO.C,SW14*%
X345186000Y-67238000D03*
X345186000Y-62738000D03*
X351686000Y-67238000D03*
X351686000Y-62738000D03*
%TD*%
%TO.C,SW32*%
X345186000Y-93908000D03*
X345186000Y-89408000D03*
X351686000Y-93908000D03*
X351686000Y-89408000D03*
%TD*%
%TO.C,SW23*%
X135398951Y-102362000D03*
X135398951Y-106862000D03*
X128898951Y-102362000D03*
X128898951Y-106862000D03*
%TD*%
%TO.C,SW18*%
X45212000Y-74858000D03*
X45212000Y-70358000D03*
X51712000Y-74858000D03*
X51712000Y-70358000D03*
%TD*%
%TO.C,SW26*%
X334772000Y-93908000D03*
X334772000Y-89408000D03*
X341272000Y-93908000D03*
X341272000Y-89408000D03*
%TD*%
%TO.C,SW34*%
X351686000Y-71628000D03*
X351686000Y-76128000D03*
X345186000Y-71628000D03*
X345186000Y-76128000D03*
%TD*%
%TO.C,SW27*%
X334772000Y-76128000D03*
X334772000Y-71628000D03*
X341272000Y-76128000D03*
X341272000Y-71628000D03*
%TD*%
%TO.C,SW29*%
X152900760Y-102362000D03*
X152900760Y-106862000D03*
X146400760Y-102362000D03*
X146400760Y-106862000D03*
%TD*%
%TO.C,SW31*%
X34036000Y-84510000D03*
X34036000Y-80010000D03*
X40536000Y-84510000D03*
X40536000Y-80010000D03*
%TD*%
%TO.C,SW35*%
X304442000Y-80518000D03*
X304442000Y-85018000D03*
X297942000Y-80518000D03*
X297942000Y-85018000D03*
%TD*%
%TO.C,SW33*%
X163902569Y-106862000D03*
X163902569Y-102362000D03*
X170402569Y-106862000D03*
X170402569Y-102362000D03*
%TD*%
%TO.C,SW17*%
X222908000Y-102235000D03*
X222908000Y-106735000D03*
X216408000Y-102235000D03*
X216408000Y-106735000D03*
%TD*%
%TO.C,SW48*%
X318770000Y-76128000D03*
X318770000Y-71628000D03*
X325270000Y-76128000D03*
X325270000Y-71628000D03*
%TD*%
D21*
%TO.C,SW44*%
X222389000Y-119421000D03*
X208489000Y-119421000D03*
D22*
X220439000Y-129921000D03*
X215439000Y-129921000D03*
X210439000Y-129921000D03*
%TD*%
D23*
%TO.C,RV1*%
X30797500Y-54419500D03*
X40797500Y-51919500D03*
X30797500Y-49419500D03*
%TD*%
D22*
%TO.C,SW46*%
X51244500Y-98234500D03*
X56244500Y-98234500D03*
X61244500Y-98234500D03*
D21*
X49294500Y-87734500D03*
X63194500Y-87734500D03*
%TD*%
D23*
%TO.C,RV2*%
X45720000Y-49419500D03*
X55720000Y-51919500D03*
X45720000Y-54419500D03*
%TD*%
D14*
%TO.C,SW50*%
X45212000Y-65460000D03*
X45212000Y-60960000D03*
X51712000Y-65460000D03*
X51712000Y-60960000D03*
%TD*%
D24*
%TO.C,RV3*%
X260350000Y-102362000D03*
X256600000Y-102362000D03*
X260350000Y-67362000D03*
D25*
X258475000Y-97362000D03*
X258475000Y-74862000D03*
%TD*%
D21*
%TO.C,SW43*%
X130567800Y-119421000D03*
X116667800Y-119421000D03*
D22*
X128617800Y-129921000D03*
X123617800Y-129921000D03*
X118617800Y-129921000D03*
%TD*%
%TO.C,SW40*%
X95662501Y-129921000D03*
X100662501Y-129921000D03*
X105662501Y-129921000D03*
D21*
X93712501Y-119421000D03*
X107612501Y-119421000D03*
%TD*%
D22*
%TO.C,SW47*%
X164528398Y-129921000D03*
X169528398Y-129921000D03*
X174528398Y-129921000D03*
D21*
X162578398Y-119421000D03*
X176478398Y-119421000D03*
%TD*%
D14*
%TO.C,SW49*%
X40536000Y-60960000D03*
X40536000Y-65460000D03*
X34036000Y-60960000D03*
X34036000Y-65460000D03*
%TD*%
D26*
%TO.C,SW42*%
X275082000Y-65786000D03*
D14*
X275082000Y-68286000D03*
X275082000Y-70786000D03*
D27*
X282582000Y-62686000D03*
X282582000Y-73886000D03*
D14*
X289582000Y-65786000D03*
X289582000Y-70786000D03*
%TD*%
D22*
%TO.C,SW41*%
X187483697Y-129921000D03*
X192483697Y-129921000D03*
X197483697Y-129921000D03*
D21*
X185533697Y-119421000D03*
X199433697Y-119421000D03*
%TD*%
%TO.C,SW45*%
X153523099Y-119421000D03*
X139623099Y-119421000D03*
D22*
X151573099Y-129921000D03*
X146573099Y-129921000D03*
X141573099Y-129921000D03*
%TD*%
D14*
%TO.C,SW39*%
X318770000Y-85018000D03*
X318770000Y-80518000D03*
X325270000Y-85018000D03*
X325270000Y-80518000D03*
%TD*%
D28*
%TO.C,U5*%
X22562000Y-111091000D03*
X22562000Y-111741000D03*
X22562000Y-112391000D03*
X22562000Y-113041000D03*
X22562000Y-113691000D03*
X22562000Y-114341000D03*
X22562000Y-114991000D03*
X22562000Y-115641000D03*
X22562000Y-116291000D03*
X22562000Y-116941000D03*
X22562000Y-117591000D03*
X22562000Y-118241000D03*
X22562000Y-118891000D03*
X22562000Y-119541000D03*
X29762000Y-119541000D03*
X29762000Y-118891000D03*
X29762000Y-118241000D03*
X29762000Y-117591000D03*
X29762000Y-116941000D03*
X29762000Y-116291000D03*
X29762000Y-115641000D03*
X29762000Y-114991000D03*
X29762000Y-114341000D03*
X29762000Y-113691000D03*
X29762000Y-113041000D03*
X29762000Y-112391000D03*
X29762000Y-111741000D03*
X29762000Y-111091000D03*
%TD*%
D14*
%TO.C,SW38*%
X355600000Y-93908000D03*
X355600000Y-89408000D03*
X362100000Y-93908000D03*
X362100000Y-89408000D03*
%TD*%
%TO.C,U2*%
G36*
G01*
X342559000Y-100353000D02*
X342559000Y-100053000D01*
G75*
G02*
X342709000Y-99903000I150000J0D01*
G01*
X344459000Y-99903000D01*
G75*
G02*
X344609000Y-100053000I0J-150000D01*
G01*
X344609000Y-100353000D01*
G75*
G02*
X344459000Y-100503000I-150000J0D01*
G01*
X342709000Y-100503000D01*
G75*
G02*
X342559000Y-100353000I0J150000D01*
G01*
G37*
G36*
G01*
X342559000Y-101623000D02*
X342559000Y-101323000D01*
G75*
G02*
X342709000Y-101173000I150000J0D01*
G01*
X344459000Y-101173000D01*
G75*
G02*
X344609000Y-101323000I0J-150000D01*
G01*
X344609000Y-101623000D01*
G75*
G02*
X344459000Y-101773000I-150000J0D01*
G01*
X342709000Y-101773000D01*
G75*
G02*
X342559000Y-101623000I0J150000D01*
G01*
G37*
G36*
G01*
X342559000Y-102893000D02*
X342559000Y-102593000D01*
G75*
G02*
X342709000Y-102443000I150000J0D01*
G01*
X344459000Y-102443000D01*
G75*
G02*
X344609000Y-102593000I0J-150000D01*
G01*
X344609000Y-102893000D01*
G75*
G02*
X344459000Y-103043000I-150000J0D01*
G01*
X342709000Y-103043000D01*
G75*
G02*
X342559000Y-102893000I0J150000D01*
G01*
G37*
G36*
G01*
X342559000Y-104163000D02*
X342559000Y-103863000D01*
G75*
G02*
X342709000Y-103713000I150000J0D01*
G01*
X344459000Y-103713000D01*
G75*
G02*
X344609000Y-103863000I0J-150000D01*
G01*
X344609000Y-104163000D01*
G75*
G02*
X344459000Y-104313000I-150000J0D01*
G01*
X342709000Y-104313000D01*
G75*
G02*
X342559000Y-104163000I0J150000D01*
G01*
G37*
G36*
G01*
X342559000Y-105433000D02*
X342559000Y-105133000D01*
G75*
G02*
X342709000Y-104983000I150000J0D01*
G01*
X344459000Y-104983000D01*
G75*
G02*
X344609000Y-105133000I0J-150000D01*
G01*
X344609000Y-105433000D01*
G75*
G02*
X344459000Y-105583000I-150000J0D01*
G01*
X342709000Y-105583000D01*
G75*
G02*
X342559000Y-105433000I0J150000D01*
G01*
G37*
G36*
G01*
X342559000Y-106703000D02*
X342559000Y-106403000D01*
G75*
G02*
X342709000Y-106253000I150000J0D01*
G01*
X344459000Y-106253000D01*
G75*
G02*
X344609000Y-106403000I0J-150000D01*
G01*
X344609000Y-106703000D01*
G75*
G02*
X344459000Y-106853000I-150000J0D01*
G01*
X342709000Y-106853000D01*
G75*
G02*
X342559000Y-106703000I0J150000D01*
G01*
G37*
G36*
G01*
X342559000Y-107973000D02*
X342559000Y-107673000D01*
G75*
G02*
X342709000Y-107523000I150000J0D01*
G01*
X344459000Y-107523000D01*
G75*
G02*
X344609000Y-107673000I0J-150000D01*
G01*
X344609000Y-107973000D01*
G75*
G02*
X344459000Y-108123000I-150000J0D01*
G01*
X342709000Y-108123000D01*
G75*
G02*
X342559000Y-107973000I0J150000D01*
G01*
G37*
G36*
G01*
X342559000Y-109243000D02*
X342559000Y-108943000D01*
G75*
G02*
X342709000Y-108793000I150000J0D01*
G01*
X344459000Y-108793000D01*
G75*
G02*
X344609000Y-108943000I0J-150000D01*
G01*
X344609000Y-109243000D01*
G75*
G02*
X344459000Y-109393000I-150000J0D01*
G01*
X342709000Y-109393000D01*
G75*
G02*
X342559000Y-109243000I0J150000D01*
G01*
G37*
G36*
G01*
X342559000Y-110513000D02*
X342559000Y-110213000D01*
G75*
G02*
X342709000Y-110063000I150000J0D01*
G01*
X344459000Y-110063000D01*
G75*
G02*
X344609000Y-110213000I0J-150000D01*
G01*
X344609000Y-110513000D01*
G75*
G02*
X344459000Y-110663000I-150000J0D01*
G01*
X342709000Y-110663000D01*
G75*
G02*
X342559000Y-110513000I0J150000D01*
G01*
G37*
G36*
G01*
X342559000Y-111783000D02*
X342559000Y-111483000D01*
G75*
G02*
X342709000Y-111333000I150000J0D01*
G01*
X344459000Y-111333000D01*
G75*
G02*
X344609000Y-111483000I0J-150000D01*
G01*
X344609000Y-111783000D01*
G75*
G02*
X344459000Y-111933000I-150000J0D01*
G01*
X342709000Y-111933000D01*
G75*
G02*
X342559000Y-111783000I0J150000D01*
G01*
G37*
G36*
G01*
X342559000Y-113053000D02*
X342559000Y-112753000D01*
G75*
G02*
X342709000Y-112603000I150000J0D01*
G01*
X344459000Y-112603000D01*
G75*
G02*
X344609000Y-112753000I0J-150000D01*
G01*
X344609000Y-113053000D01*
G75*
G02*
X344459000Y-113203000I-150000J0D01*
G01*
X342709000Y-113203000D01*
G75*
G02*
X342559000Y-113053000I0J150000D01*
G01*
G37*
G36*
G01*
X342559000Y-114323000D02*
X342559000Y-114023000D01*
G75*
G02*
X342709000Y-113873000I150000J0D01*
G01*
X344459000Y-113873000D01*
G75*
G02*
X344609000Y-114023000I0J-150000D01*
G01*
X344609000Y-114323000D01*
G75*
G02*
X344459000Y-114473000I-150000J0D01*
G01*
X342709000Y-114473000D01*
G75*
G02*
X342559000Y-114323000I0J150000D01*
G01*
G37*
G36*
G01*
X342559000Y-115593000D02*
X342559000Y-115293000D01*
G75*
G02*
X342709000Y-115143000I150000J0D01*
G01*
X344459000Y-115143000D01*
G75*
G02*
X344609000Y-115293000I0J-150000D01*
G01*
X344609000Y-115593000D01*
G75*
G02*
X344459000Y-115743000I-150000J0D01*
G01*
X342709000Y-115743000D01*
G75*
G02*
X342559000Y-115593000I0J150000D01*
G01*
G37*
G36*
G01*
X342559000Y-116863000D02*
X342559000Y-116563000D01*
G75*
G02*
X342709000Y-116413000I150000J0D01*
G01*
X344459000Y-116413000D01*
G75*
G02*
X344609000Y-116563000I0J-150000D01*
G01*
X344609000Y-116863000D01*
G75*
G02*
X344459000Y-117013000I-150000J0D01*
G01*
X342709000Y-117013000D01*
G75*
G02*
X342559000Y-116863000I0J150000D01*
G01*
G37*
G36*
G01*
X351859000Y-116863000D02*
X351859000Y-116563000D01*
G75*
G02*
X352009000Y-116413000I150000J0D01*
G01*
X353759000Y-116413000D01*
G75*
G02*
X353909000Y-116563000I0J-150000D01*
G01*
X353909000Y-116863000D01*
G75*
G02*
X353759000Y-117013000I-150000J0D01*
G01*
X352009000Y-117013000D01*
G75*
G02*
X351859000Y-116863000I0J150000D01*
G01*
G37*
G36*
G01*
X351859000Y-115593000D02*
X351859000Y-115293000D01*
G75*
G02*
X352009000Y-115143000I150000J0D01*
G01*
X353759000Y-115143000D01*
G75*
G02*
X353909000Y-115293000I0J-150000D01*
G01*
X353909000Y-115593000D01*
G75*
G02*
X353759000Y-115743000I-150000J0D01*
G01*
X352009000Y-115743000D01*
G75*
G02*
X351859000Y-115593000I0J150000D01*
G01*
G37*
G36*
G01*
X351859000Y-114323000D02*
X351859000Y-114023000D01*
G75*
G02*
X352009000Y-113873000I150000J0D01*
G01*
X353759000Y-113873000D01*
G75*
G02*
X353909000Y-114023000I0J-150000D01*
G01*
X353909000Y-114323000D01*
G75*
G02*
X353759000Y-114473000I-150000J0D01*
G01*
X352009000Y-114473000D01*
G75*
G02*
X351859000Y-114323000I0J150000D01*
G01*
G37*
G36*
G01*
X351859000Y-113053000D02*
X351859000Y-112753000D01*
G75*
G02*
X352009000Y-112603000I150000J0D01*
G01*
X353759000Y-112603000D01*
G75*
G02*
X353909000Y-112753000I0J-150000D01*
G01*
X353909000Y-113053000D01*
G75*
G02*
X353759000Y-113203000I-150000J0D01*
G01*
X352009000Y-113203000D01*
G75*
G02*
X351859000Y-113053000I0J150000D01*
G01*
G37*
G36*
G01*
X351859000Y-111783000D02*
X351859000Y-111483000D01*
G75*
G02*
X352009000Y-111333000I150000J0D01*
G01*
X353759000Y-111333000D01*
G75*
G02*
X353909000Y-111483000I0J-150000D01*
G01*
X353909000Y-111783000D01*
G75*
G02*
X353759000Y-111933000I-150000J0D01*
G01*
X352009000Y-111933000D01*
G75*
G02*
X351859000Y-111783000I0J150000D01*
G01*
G37*
G36*
G01*
X351859000Y-110513000D02*
X351859000Y-110213000D01*
G75*
G02*
X352009000Y-110063000I150000J0D01*
G01*
X353759000Y-110063000D01*
G75*
G02*
X353909000Y-110213000I0J-150000D01*
G01*
X353909000Y-110513000D01*
G75*
G02*
X353759000Y-110663000I-150000J0D01*
G01*
X352009000Y-110663000D01*
G75*
G02*
X351859000Y-110513000I0J150000D01*
G01*
G37*
G36*
G01*
X351859000Y-109243000D02*
X351859000Y-108943000D01*
G75*
G02*
X352009000Y-108793000I150000J0D01*
G01*
X353759000Y-108793000D01*
G75*
G02*
X353909000Y-108943000I0J-150000D01*
G01*
X353909000Y-109243000D01*
G75*
G02*
X353759000Y-109393000I-150000J0D01*
G01*
X352009000Y-109393000D01*
G75*
G02*
X351859000Y-109243000I0J150000D01*
G01*
G37*
G36*
G01*
X351859000Y-107973000D02*
X351859000Y-107673000D01*
G75*
G02*
X352009000Y-107523000I150000J0D01*
G01*
X353759000Y-107523000D01*
G75*
G02*
X353909000Y-107673000I0J-150000D01*
G01*
X353909000Y-107973000D01*
G75*
G02*
X353759000Y-108123000I-150000J0D01*
G01*
X352009000Y-108123000D01*
G75*
G02*
X351859000Y-107973000I0J150000D01*
G01*
G37*
G36*
G01*
X351859000Y-106703000D02*
X351859000Y-106403000D01*
G75*
G02*
X352009000Y-106253000I150000J0D01*
G01*
X353759000Y-106253000D01*
G75*
G02*
X353909000Y-106403000I0J-150000D01*
G01*
X353909000Y-106703000D01*
G75*
G02*
X353759000Y-106853000I-150000J0D01*
G01*
X352009000Y-106853000D01*
G75*
G02*
X351859000Y-106703000I0J150000D01*
G01*
G37*
G36*
G01*
X351859000Y-105433000D02*
X351859000Y-105133000D01*
G75*
G02*
X352009000Y-104983000I150000J0D01*
G01*
X353759000Y-104983000D01*
G75*
G02*
X353909000Y-105133000I0J-150000D01*
G01*
X353909000Y-105433000D01*
G75*
G02*
X353759000Y-105583000I-150000J0D01*
G01*
X352009000Y-105583000D01*
G75*
G02*
X351859000Y-105433000I0J150000D01*
G01*
G37*
G36*
G01*
X351859000Y-104163000D02*
X351859000Y-103863000D01*
G75*
G02*
X352009000Y-103713000I150000J0D01*
G01*
X353759000Y-103713000D01*
G75*
G02*
X353909000Y-103863000I0J-150000D01*
G01*
X353909000Y-104163000D01*
G75*
G02*
X353759000Y-104313000I-150000J0D01*
G01*
X352009000Y-104313000D01*
G75*
G02*
X351859000Y-104163000I0J150000D01*
G01*
G37*
G36*
G01*
X351859000Y-102893000D02*
X351859000Y-102593000D01*
G75*
G02*
X352009000Y-102443000I150000J0D01*
G01*
X353759000Y-102443000D01*
G75*
G02*
X353909000Y-102593000I0J-150000D01*
G01*
X353909000Y-102893000D01*
G75*
G02*
X353759000Y-103043000I-150000J0D01*
G01*
X352009000Y-103043000D01*
G75*
G02*
X351859000Y-102893000I0J150000D01*
G01*
G37*
G36*
G01*
X351859000Y-101623000D02*
X351859000Y-101323000D01*
G75*
G02*
X352009000Y-101173000I150000J0D01*
G01*
X353759000Y-101173000D01*
G75*
G02*
X353909000Y-101323000I0J-150000D01*
G01*
X353909000Y-101623000D01*
G75*
G02*
X353759000Y-101773000I-150000J0D01*
G01*
X352009000Y-101773000D01*
G75*
G02*
X351859000Y-101623000I0J150000D01*
G01*
G37*
G36*
G01*
X351859000Y-100353000D02*
X351859000Y-100053000D01*
G75*
G02*
X352009000Y-99903000I150000J0D01*
G01*
X353759000Y-99903000D01*
G75*
G02*
X353909000Y-100053000I0J-150000D01*
G01*
X353909000Y-100353000D01*
G75*
G02*
X353759000Y-100503000I-150000J0D01*
G01*
X352009000Y-100503000D01*
G75*
G02*
X351859000Y-100353000I0J150000D01*
G01*
G37*
%TD*%
%TO.C,U3*%
G36*
G01*
X315791000Y-100353000D02*
X315791000Y-100053000D01*
G75*
G02*
X315941000Y-99903000I150000J0D01*
G01*
X317691000Y-99903000D01*
G75*
G02*
X317841000Y-100053000I0J-150000D01*
G01*
X317841000Y-100353000D01*
G75*
G02*
X317691000Y-100503000I-150000J0D01*
G01*
X315941000Y-100503000D01*
G75*
G02*
X315791000Y-100353000I0J150000D01*
G01*
G37*
G36*
G01*
X315791000Y-101623000D02*
X315791000Y-101323000D01*
G75*
G02*
X315941000Y-101173000I150000J0D01*
G01*
X317691000Y-101173000D01*
G75*
G02*
X317841000Y-101323000I0J-150000D01*
G01*
X317841000Y-101623000D01*
G75*
G02*
X317691000Y-101773000I-150000J0D01*
G01*
X315941000Y-101773000D01*
G75*
G02*
X315791000Y-101623000I0J150000D01*
G01*
G37*
G36*
G01*
X315791000Y-102893000D02*
X315791000Y-102593000D01*
G75*
G02*
X315941000Y-102443000I150000J0D01*
G01*
X317691000Y-102443000D01*
G75*
G02*
X317841000Y-102593000I0J-150000D01*
G01*
X317841000Y-102893000D01*
G75*
G02*
X317691000Y-103043000I-150000J0D01*
G01*
X315941000Y-103043000D01*
G75*
G02*
X315791000Y-102893000I0J150000D01*
G01*
G37*
G36*
G01*
X315791000Y-104163000D02*
X315791000Y-103863000D01*
G75*
G02*
X315941000Y-103713000I150000J0D01*
G01*
X317691000Y-103713000D01*
G75*
G02*
X317841000Y-103863000I0J-150000D01*
G01*
X317841000Y-104163000D01*
G75*
G02*
X317691000Y-104313000I-150000J0D01*
G01*
X315941000Y-104313000D01*
G75*
G02*
X315791000Y-104163000I0J150000D01*
G01*
G37*
G36*
G01*
X315791000Y-105433000D02*
X315791000Y-105133000D01*
G75*
G02*
X315941000Y-104983000I150000J0D01*
G01*
X317691000Y-104983000D01*
G75*
G02*
X317841000Y-105133000I0J-150000D01*
G01*
X317841000Y-105433000D01*
G75*
G02*
X317691000Y-105583000I-150000J0D01*
G01*
X315941000Y-105583000D01*
G75*
G02*
X315791000Y-105433000I0J150000D01*
G01*
G37*
G36*
G01*
X315791000Y-106703000D02*
X315791000Y-106403000D01*
G75*
G02*
X315941000Y-106253000I150000J0D01*
G01*
X317691000Y-106253000D01*
G75*
G02*
X317841000Y-106403000I0J-150000D01*
G01*
X317841000Y-106703000D01*
G75*
G02*
X317691000Y-106853000I-150000J0D01*
G01*
X315941000Y-106853000D01*
G75*
G02*
X315791000Y-106703000I0J150000D01*
G01*
G37*
G36*
G01*
X315791000Y-107973000D02*
X315791000Y-107673000D01*
G75*
G02*
X315941000Y-107523000I150000J0D01*
G01*
X317691000Y-107523000D01*
G75*
G02*
X317841000Y-107673000I0J-150000D01*
G01*
X317841000Y-107973000D01*
G75*
G02*
X317691000Y-108123000I-150000J0D01*
G01*
X315941000Y-108123000D01*
G75*
G02*
X315791000Y-107973000I0J150000D01*
G01*
G37*
G36*
G01*
X315791000Y-109243000D02*
X315791000Y-108943000D01*
G75*
G02*
X315941000Y-108793000I150000J0D01*
G01*
X317691000Y-108793000D01*
G75*
G02*
X317841000Y-108943000I0J-150000D01*
G01*
X317841000Y-109243000D01*
G75*
G02*
X317691000Y-109393000I-150000J0D01*
G01*
X315941000Y-109393000D01*
G75*
G02*
X315791000Y-109243000I0J150000D01*
G01*
G37*
G36*
G01*
X315791000Y-110513000D02*
X315791000Y-110213000D01*
G75*
G02*
X315941000Y-110063000I150000J0D01*
G01*
X317691000Y-110063000D01*
G75*
G02*
X317841000Y-110213000I0J-150000D01*
G01*
X317841000Y-110513000D01*
G75*
G02*
X317691000Y-110663000I-150000J0D01*
G01*
X315941000Y-110663000D01*
G75*
G02*
X315791000Y-110513000I0J150000D01*
G01*
G37*
G36*
G01*
X315791000Y-111783000D02*
X315791000Y-111483000D01*
G75*
G02*
X315941000Y-111333000I150000J0D01*
G01*
X317691000Y-111333000D01*
G75*
G02*
X317841000Y-111483000I0J-150000D01*
G01*
X317841000Y-111783000D01*
G75*
G02*
X317691000Y-111933000I-150000J0D01*
G01*
X315941000Y-111933000D01*
G75*
G02*
X315791000Y-111783000I0J150000D01*
G01*
G37*
G36*
G01*
X315791000Y-113053000D02*
X315791000Y-112753000D01*
G75*
G02*
X315941000Y-112603000I150000J0D01*
G01*
X317691000Y-112603000D01*
G75*
G02*
X317841000Y-112753000I0J-150000D01*
G01*
X317841000Y-113053000D01*
G75*
G02*
X317691000Y-113203000I-150000J0D01*
G01*
X315941000Y-113203000D01*
G75*
G02*
X315791000Y-113053000I0J150000D01*
G01*
G37*
G36*
G01*
X315791000Y-114323000D02*
X315791000Y-114023000D01*
G75*
G02*
X315941000Y-113873000I150000J0D01*
G01*
X317691000Y-113873000D01*
G75*
G02*
X317841000Y-114023000I0J-150000D01*
G01*
X317841000Y-114323000D01*
G75*
G02*
X317691000Y-114473000I-150000J0D01*
G01*
X315941000Y-114473000D01*
G75*
G02*
X315791000Y-114323000I0J150000D01*
G01*
G37*
G36*
G01*
X315791000Y-115593000D02*
X315791000Y-115293000D01*
G75*
G02*
X315941000Y-115143000I150000J0D01*
G01*
X317691000Y-115143000D01*
G75*
G02*
X317841000Y-115293000I0J-150000D01*
G01*
X317841000Y-115593000D01*
G75*
G02*
X317691000Y-115743000I-150000J0D01*
G01*
X315941000Y-115743000D01*
G75*
G02*
X315791000Y-115593000I0J150000D01*
G01*
G37*
G36*
G01*
X315791000Y-116863000D02*
X315791000Y-116563000D01*
G75*
G02*
X315941000Y-116413000I150000J0D01*
G01*
X317691000Y-116413000D01*
G75*
G02*
X317841000Y-116563000I0J-150000D01*
G01*
X317841000Y-116863000D01*
G75*
G02*
X317691000Y-117013000I-150000J0D01*
G01*
X315941000Y-117013000D01*
G75*
G02*
X315791000Y-116863000I0J150000D01*
G01*
G37*
G36*
G01*
X306491000Y-116863000D02*
X306491000Y-116563000D01*
G75*
G02*
X306641000Y-116413000I150000J0D01*
G01*
X308391000Y-116413000D01*
G75*
G02*
X308541000Y-116563000I0J-150000D01*
G01*
X308541000Y-116863000D01*
G75*
G02*
X308391000Y-117013000I-150000J0D01*
G01*
X306641000Y-117013000D01*
G75*
G02*
X306491000Y-116863000I0J150000D01*
G01*
G37*
G36*
G01*
X306491000Y-115593000D02*
X306491000Y-115293000D01*
G75*
G02*
X306641000Y-115143000I150000J0D01*
G01*
X308391000Y-115143000D01*
G75*
G02*
X308541000Y-115293000I0J-150000D01*
G01*
X308541000Y-115593000D01*
G75*
G02*
X308391000Y-115743000I-150000J0D01*
G01*
X306641000Y-115743000D01*
G75*
G02*
X306491000Y-115593000I0J150000D01*
G01*
G37*
G36*
G01*
X306491000Y-114323000D02*
X306491000Y-114023000D01*
G75*
G02*
X306641000Y-113873000I150000J0D01*
G01*
X308391000Y-113873000D01*
G75*
G02*
X308541000Y-114023000I0J-150000D01*
G01*
X308541000Y-114323000D01*
G75*
G02*
X308391000Y-114473000I-150000J0D01*
G01*
X306641000Y-114473000D01*
G75*
G02*
X306491000Y-114323000I0J150000D01*
G01*
G37*
G36*
G01*
X306491000Y-113053000D02*
X306491000Y-112753000D01*
G75*
G02*
X306641000Y-112603000I150000J0D01*
G01*
X308391000Y-112603000D01*
G75*
G02*
X308541000Y-112753000I0J-150000D01*
G01*
X308541000Y-113053000D01*
G75*
G02*
X308391000Y-113203000I-150000J0D01*
G01*
X306641000Y-113203000D01*
G75*
G02*
X306491000Y-113053000I0J150000D01*
G01*
G37*
G36*
G01*
X306491000Y-111783000D02*
X306491000Y-111483000D01*
G75*
G02*
X306641000Y-111333000I150000J0D01*
G01*
X308391000Y-111333000D01*
G75*
G02*
X308541000Y-111483000I0J-150000D01*
G01*
X308541000Y-111783000D01*
G75*
G02*
X308391000Y-111933000I-150000J0D01*
G01*
X306641000Y-111933000D01*
G75*
G02*
X306491000Y-111783000I0J150000D01*
G01*
G37*
G36*
G01*
X306491000Y-110513000D02*
X306491000Y-110213000D01*
G75*
G02*
X306641000Y-110063000I150000J0D01*
G01*
X308391000Y-110063000D01*
G75*
G02*
X308541000Y-110213000I0J-150000D01*
G01*
X308541000Y-110513000D01*
G75*
G02*
X308391000Y-110663000I-150000J0D01*
G01*
X306641000Y-110663000D01*
G75*
G02*
X306491000Y-110513000I0J150000D01*
G01*
G37*
G36*
G01*
X306491000Y-109243000D02*
X306491000Y-108943000D01*
G75*
G02*
X306641000Y-108793000I150000J0D01*
G01*
X308391000Y-108793000D01*
G75*
G02*
X308541000Y-108943000I0J-150000D01*
G01*
X308541000Y-109243000D01*
G75*
G02*
X308391000Y-109393000I-150000J0D01*
G01*
X306641000Y-109393000D01*
G75*
G02*
X306491000Y-109243000I0J150000D01*
G01*
G37*
G36*
G01*
X306491000Y-107973000D02*
X306491000Y-107673000D01*
G75*
G02*
X306641000Y-107523000I150000J0D01*
G01*
X308391000Y-107523000D01*
G75*
G02*
X308541000Y-107673000I0J-150000D01*
G01*
X308541000Y-107973000D01*
G75*
G02*
X308391000Y-108123000I-150000J0D01*
G01*
X306641000Y-108123000D01*
G75*
G02*
X306491000Y-107973000I0J150000D01*
G01*
G37*
G36*
G01*
X306491000Y-106703000D02*
X306491000Y-106403000D01*
G75*
G02*
X306641000Y-106253000I150000J0D01*
G01*
X308391000Y-106253000D01*
G75*
G02*
X308541000Y-106403000I0J-150000D01*
G01*
X308541000Y-106703000D01*
G75*
G02*
X308391000Y-106853000I-150000J0D01*
G01*
X306641000Y-106853000D01*
G75*
G02*
X306491000Y-106703000I0J150000D01*
G01*
G37*
G36*
G01*
X306491000Y-105433000D02*
X306491000Y-105133000D01*
G75*
G02*
X306641000Y-104983000I150000J0D01*
G01*
X308391000Y-104983000D01*
G75*
G02*
X308541000Y-105133000I0J-150000D01*
G01*
X308541000Y-105433000D01*
G75*
G02*
X308391000Y-105583000I-150000J0D01*
G01*
X306641000Y-105583000D01*
G75*
G02*
X306491000Y-105433000I0J150000D01*
G01*
G37*
G36*
G01*
X306491000Y-104163000D02*
X306491000Y-103863000D01*
G75*
G02*
X306641000Y-103713000I150000J0D01*
G01*
X308391000Y-103713000D01*
G75*
G02*
X308541000Y-103863000I0J-150000D01*
G01*
X308541000Y-104163000D01*
G75*
G02*
X308391000Y-104313000I-150000J0D01*
G01*
X306641000Y-104313000D01*
G75*
G02*
X306491000Y-104163000I0J150000D01*
G01*
G37*
G36*
G01*
X306491000Y-102893000D02*
X306491000Y-102593000D01*
G75*
G02*
X306641000Y-102443000I150000J0D01*
G01*
X308391000Y-102443000D01*
G75*
G02*
X308541000Y-102593000I0J-150000D01*
G01*
X308541000Y-102893000D01*
G75*
G02*
X308391000Y-103043000I-150000J0D01*
G01*
X306641000Y-103043000D01*
G75*
G02*
X306491000Y-102893000I0J150000D01*
G01*
G37*
G36*
G01*
X306491000Y-101623000D02*
X306491000Y-101323000D01*
G75*
G02*
X306641000Y-101173000I150000J0D01*
G01*
X308391000Y-101173000D01*
G75*
G02*
X308541000Y-101323000I0J-150000D01*
G01*
X308541000Y-101623000D01*
G75*
G02*
X308391000Y-101773000I-150000J0D01*
G01*
X306641000Y-101773000D01*
G75*
G02*
X306491000Y-101623000I0J150000D01*
G01*
G37*
G36*
G01*
X306491000Y-100353000D02*
X306491000Y-100053000D01*
G75*
G02*
X306641000Y-99903000I150000J0D01*
G01*
X308391000Y-99903000D01*
G75*
G02*
X308541000Y-100053000I0J-150000D01*
G01*
X308541000Y-100353000D01*
G75*
G02*
X308391000Y-100503000I-150000J0D01*
G01*
X306641000Y-100503000D01*
G75*
G02*
X306491000Y-100353000I0J150000D01*
G01*
G37*
%TD*%
%TO.C,U4*%
G36*
G01*
X32044000Y-90193000D02*
X32044000Y-89893000D01*
G75*
G02*
X32194000Y-89743000I150000J0D01*
G01*
X33944000Y-89743000D01*
G75*
G02*
X34094000Y-89893000I0J-150000D01*
G01*
X34094000Y-90193000D01*
G75*
G02*
X33944000Y-90343000I-150000J0D01*
G01*
X32194000Y-90343000D01*
G75*
G02*
X32044000Y-90193000I0J150000D01*
G01*
G37*
G36*
G01*
X32044000Y-91463000D02*
X32044000Y-91163000D01*
G75*
G02*
X32194000Y-91013000I150000J0D01*
G01*
X33944000Y-91013000D01*
G75*
G02*
X34094000Y-91163000I0J-150000D01*
G01*
X34094000Y-91463000D01*
G75*
G02*
X33944000Y-91613000I-150000J0D01*
G01*
X32194000Y-91613000D01*
G75*
G02*
X32044000Y-91463000I0J150000D01*
G01*
G37*
G36*
G01*
X32044000Y-92733000D02*
X32044000Y-92433000D01*
G75*
G02*
X32194000Y-92283000I150000J0D01*
G01*
X33944000Y-92283000D01*
G75*
G02*
X34094000Y-92433000I0J-150000D01*
G01*
X34094000Y-92733000D01*
G75*
G02*
X33944000Y-92883000I-150000J0D01*
G01*
X32194000Y-92883000D01*
G75*
G02*
X32044000Y-92733000I0J150000D01*
G01*
G37*
G36*
G01*
X32044000Y-94003000D02*
X32044000Y-93703000D01*
G75*
G02*
X32194000Y-93553000I150000J0D01*
G01*
X33944000Y-93553000D01*
G75*
G02*
X34094000Y-93703000I0J-150000D01*
G01*
X34094000Y-94003000D01*
G75*
G02*
X33944000Y-94153000I-150000J0D01*
G01*
X32194000Y-94153000D01*
G75*
G02*
X32044000Y-94003000I0J150000D01*
G01*
G37*
G36*
G01*
X32044000Y-95273000D02*
X32044000Y-94973000D01*
G75*
G02*
X32194000Y-94823000I150000J0D01*
G01*
X33944000Y-94823000D01*
G75*
G02*
X34094000Y-94973000I0J-150000D01*
G01*
X34094000Y-95273000D01*
G75*
G02*
X33944000Y-95423000I-150000J0D01*
G01*
X32194000Y-95423000D01*
G75*
G02*
X32044000Y-95273000I0J150000D01*
G01*
G37*
G36*
G01*
X32044000Y-96543000D02*
X32044000Y-96243000D01*
G75*
G02*
X32194000Y-96093000I150000J0D01*
G01*
X33944000Y-96093000D01*
G75*
G02*
X34094000Y-96243000I0J-150000D01*
G01*
X34094000Y-96543000D01*
G75*
G02*
X33944000Y-96693000I-150000J0D01*
G01*
X32194000Y-96693000D01*
G75*
G02*
X32044000Y-96543000I0J150000D01*
G01*
G37*
G36*
G01*
X32044000Y-97813000D02*
X32044000Y-97513000D01*
G75*
G02*
X32194000Y-97363000I150000J0D01*
G01*
X33944000Y-97363000D01*
G75*
G02*
X34094000Y-97513000I0J-150000D01*
G01*
X34094000Y-97813000D01*
G75*
G02*
X33944000Y-97963000I-150000J0D01*
G01*
X32194000Y-97963000D01*
G75*
G02*
X32044000Y-97813000I0J150000D01*
G01*
G37*
G36*
G01*
X32044000Y-99083000D02*
X32044000Y-98783000D01*
G75*
G02*
X32194000Y-98633000I150000J0D01*
G01*
X33944000Y-98633000D01*
G75*
G02*
X34094000Y-98783000I0J-150000D01*
G01*
X34094000Y-99083000D01*
G75*
G02*
X33944000Y-99233000I-150000J0D01*
G01*
X32194000Y-99233000D01*
G75*
G02*
X32044000Y-99083000I0J150000D01*
G01*
G37*
G36*
G01*
X32044000Y-100353000D02*
X32044000Y-100053000D01*
G75*
G02*
X32194000Y-99903000I150000J0D01*
G01*
X33944000Y-99903000D01*
G75*
G02*
X34094000Y-100053000I0J-150000D01*
G01*
X34094000Y-100353000D01*
G75*
G02*
X33944000Y-100503000I-150000J0D01*
G01*
X32194000Y-100503000D01*
G75*
G02*
X32044000Y-100353000I0J150000D01*
G01*
G37*
G36*
G01*
X32044000Y-101623000D02*
X32044000Y-101323000D01*
G75*
G02*
X32194000Y-101173000I150000J0D01*
G01*
X33944000Y-101173000D01*
G75*
G02*
X34094000Y-101323000I0J-150000D01*
G01*
X34094000Y-101623000D01*
G75*
G02*
X33944000Y-101773000I-150000J0D01*
G01*
X32194000Y-101773000D01*
G75*
G02*
X32044000Y-101623000I0J150000D01*
G01*
G37*
G36*
G01*
X32044000Y-102893000D02*
X32044000Y-102593000D01*
G75*
G02*
X32194000Y-102443000I150000J0D01*
G01*
X33944000Y-102443000D01*
G75*
G02*
X34094000Y-102593000I0J-150000D01*
G01*
X34094000Y-102893000D01*
G75*
G02*
X33944000Y-103043000I-150000J0D01*
G01*
X32194000Y-103043000D01*
G75*
G02*
X32044000Y-102893000I0J150000D01*
G01*
G37*
G36*
G01*
X32044000Y-104163000D02*
X32044000Y-103863000D01*
G75*
G02*
X32194000Y-103713000I150000J0D01*
G01*
X33944000Y-103713000D01*
G75*
G02*
X34094000Y-103863000I0J-150000D01*
G01*
X34094000Y-104163000D01*
G75*
G02*
X33944000Y-104313000I-150000J0D01*
G01*
X32194000Y-104313000D01*
G75*
G02*
X32044000Y-104163000I0J150000D01*
G01*
G37*
G36*
G01*
X32044000Y-105433000D02*
X32044000Y-105133000D01*
G75*
G02*
X32194000Y-104983000I150000J0D01*
G01*
X33944000Y-104983000D01*
G75*
G02*
X34094000Y-105133000I0J-150000D01*
G01*
X34094000Y-105433000D01*
G75*
G02*
X33944000Y-105583000I-150000J0D01*
G01*
X32194000Y-105583000D01*
G75*
G02*
X32044000Y-105433000I0J150000D01*
G01*
G37*
G36*
G01*
X32044000Y-106703000D02*
X32044000Y-106403000D01*
G75*
G02*
X32194000Y-106253000I150000J0D01*
G01*
X33944000Y-106253000D01*
G75*
G02*
X34094000Y-106403000I0J-150000D01*
G01*
X34094000Y-106703000D01*
G75*
G02*
X33944000Y-106853000I-150000J0D01*
G01*
X32194000Y-106853000D01*
G75*
G02*
X32044000Y-106703000I0J150000D01*
G01*
G37*
G36*
G01*
X41344000Y-106703000D02*
X41344000Y-106403000D01*
G75*
G02*
X41494000Y-106253000I150000J0D01*
G01*
X43244000Y-106253000D01*
G75*
G02*
X43394000Y-106403000I0J-150000D01*
G01*
X43394000Y-106703000D01*
G75*
G02*
X43244000Y-106853000I-150000J0D01*
G01*
X41494000Y-106853000D01*
G75*
G02*
X41344000Y-106703000I0J150000D01*
G01*
G37*
G36*
G01*
X41344000Y-105433000D02*
X41344000Y-105133000D01*
G75*
G02*
X41494000Y-104983000I150000J0D01*
G01*
X43244000Y-104983000D01*
G75*
G02*
X43394000Y-105133000I0J-150000D01*
G01*
X43394000Y-105433000D01*
G75*
G02*
X43244000Y-105583000I-150000J0D01*
G01*
X41494000Y-105583000D01*
G75*
G02*
X41344000Y-105433000I0J150000D01*
G01*
G37*
G36*
G01*
X41344000Y-104163000D02*
X41344000Y-103863000D01*
G75*
G02*
X41494000Y-103713000I150000J0D01*
G01*
X43244000Y-103713000D01*
G75*
G02*
X43394000Y-103863000I0J-150000D01*
G01*
X43394000Y-104163000D01*
G75*
G02*
X43244000Y-104313000I-150000J0D01*
G01*
X41494000Y-104313000D01*
G75*
G02*
X41344000Y-104163000I0J150000D01*
G01*
G37*
G36*
G01*
X41344000Y-102893000D02*
X41344000Y-102593000D01*
G75*
G02*
X41494000Y-102443000I150000J0D01*
G01*
X43244000Y-102443000D01*
G75*
G02*
X43394000Y-102593000I0J-150000D01*
G01*
X43394000Y-102893000D01*
G75*
G02*
X43244000Y-103043000I-150000J0D01*
G01*
X41494000Y-103043000D01*
G75*
G02*
X41344000Y-102893000I0J150000D01*
G01*
G37*
G36*
G01*
X41344000Y-101623000D02*
X41344000Y-101323000D01*
G75*
G02*
X41494000Y-101173000I150000J0D01*
G01*
X43244000Y-101173000D01*
G75*
G02*
X43394000Y-101323000I0J-150000D01*
G01*
X43394000Y-101623000D01*
G75*
G02*
X43244000Y-101773000I-150000J0D01*
G01*
X41494000Y-101773000D01*
G75*
G02*
X41344000Y-101623000I0J150000D01*
G01*
G37*
G36*
G01*
X41344000Y-100353000D02*
X41344000Y-100053000D01*
G75*
G02*
X41494000Y-99903000I150000J0D01*
G01*
X43244000Y-99903000D01*
G75*
G02*
X43394000Y-100053000I0J-150000D01*
G01*
X43394000Y-100353000D01*
G75*
G02*
X43244000Y-100503000I-150000J0D01*
G01*
X41494000Y-100503000D01*
G75*
G02*
X41344000Y-100353000I0J150000D01*
G01*
G37*
G36*
G01*
X41344000Y-99083000D02*
X41344000Y-98783000D01*
G75*
G02*
X41494000Y-98633000I150000J0D01*
G01*
X43244000Y-98633000D01*
G75*
G02*
X43394000Y-98783000I0J-150000D01*
G01*
X43394000Y-99083000D01*
G75*
G02*
X43244000Y-99233000I-150000J0D01*
G01*
X41494000Y-99233000D01*
G75*
G02*
X41344000Y-99083000I0J150000D01*
G01*
G37*
G36*
G01*
X41344000Y-97813000D02*
X41344000Y-97513000D01*
G75*
G02*
X41494000Y-97363000I150000J0D01*
G01*
X43244000Y-97363000D01*
G75*
G02*
X43394000Y-97513000I0J-150000D01*
G01*
X43394000Y-97813000D01*
G75*
G02*
X43244000Y-97963000I-150000J0D01*
G01*
X41494000Y-97963000D01*
G75*
G02*
X41344000Y-97813000I0J150000D01*
G01*
G37*
G36*
G01*
X41344000Y-96543000D02*
X41344000Y-96243000D01*
G75*
G02*
X41494000Y-96093000I150000J0D01*
G01*
X43244000Y-96093000D01*
G75*
G02*
X43394000Y-96243000I0J-150000D01*
G01*
X43394000Y-96543000D01*
G75*
G02*
X43244000Y-96693000I-150000J0D01*
G01*
X41494000Y-96693000D01*
G75*
G02*
X41344000Y-96543000I0J150000D01*
G01*
G37*
G36*
G01*
X41344000Y-95273000D02*
X41344000Y-94973000D01*
G75*
G02*
X41494000Y-94823000I150000J0D01*
G01*
X43244000Y-94823000D01*
G75*
G02*
X43394000Y-94973000I0J-150000D01*
G01*
X43394000Y-95273000D01*
G75*
G02*
X43244000Y-95423000I-150000J0D01*
G01*
X41494000Y-95423000D01*
G75*
G02*
X41344000Y-95273000I0J150000D01*
G01*
G37*
G36*
G01*
X41344000Y-94003000D02*
X41344000Y-93703000D01*
G75*
G02*
X41494000Y-93553000I150000J0D01*
G01*
X43244000Y-93553000D01*
G75*
G02*
X43394000Y-93703000I0J-150000D01*
G01*
X43394000Y-94003000D01*
G75*
G02*
X43244000Y-94153000I-150000J0D01*
G01*
X41494000Y-94153000D01*
G75*
G02*
X41344000Y-94003000I0J150000D01*
G01*
G37*
G36*
G01*
X41344000Y-92733000D02*
X41344000Y-92433000D01*
G75*
G02*
X41494000Y-92283000I150000J0D01*
G01*
X43244000Y-92283000D01*
G75*
G02*
X43394000Y-92433000I0J-150000D01*
G01*
X43394000Y-92733000D01*
G75*
G02*
X43244000Y-92883000I-150000J0D01*
G01*
X41494000Y-92883000D01*
G75*
G02*
X41344000Y-92733000I0J150000D01*
G01*
G37*
G36*
G01*
X41344000Y-91463000D02*
X41344000Y-91163000D01*
G75*
G02*
X41494000Y-91013000I150000J0D01*
G01*
X43244000Y-91013000D01*
G75*
G02*
X43394000Y-91163000I0J-150000D01*
G01*
X43394000Y-91463000D01*
G75*
G02*
X43244000Y-91613000I-150000J0D01*
G01*
X41494000Y-91613000D01*
G75*
G02*
X41344000Y-91463000I0J150000D01*
G01*
G37*
G36*
G01*
X41344000Y-90193000D02*
X41344000Y-89893000D01*
G75*
G02*
X41494000Y-89743000I150000J0D01*
G01*
X43244000Y-89743000D01*
G75*
G02*
X43394000Y-89893000I0J-150000D01*
G01*
X43394000Y-90193000D01*
G75*
G02*
X43244000Y-90343000I-150000J0D01*
G01*
X41494000Y-90343000D01*
G75*
G02*
X41344000Y-90193000I0J150000D01*
G01*
G37*
%TD*%
D29*
%TO.C,U1*%
X134397000Y-57197000D03*
D30*
X136097000Y-70897000D03*
D29*
X122397000Y-72597000D03*
D30*
X120697000Y-58897000D03*
X120697000Y-59397000D03*
X120697000Y-59897000D03*
X120697000Y-60397000D03*
X120697000Y-60897000D03*
X120697000Y-61397000D03*
X120697000Y-61897000D03*
X120697000Y-62397000D03*
X120697000Y-62897000D03*
X120697000Y-63397000D03*
X120697000Y-63897000D03*
X120697000Y-64397000D03*
X120697000Y-64897000D03*
X120697000Y-65397000D03*
X120697000Y-65897000D03*
X120697000Y-66397000D03*
X120697000Y-66897000D03*
X120697000Y-67397000D03*
X120697000Y-67897000D03*
X120697000Y-68397000D03*
X120697000Y-68897000D03*
X120697000Y-69397000D03*
X120697000Y-69897000D03*
X120697000Y-70397000D03*
X120697000Y-70897000D03*
D29*
X122897000Y-72597000D03*
X123397000Y-72597000D03*
X123897000Y-72597000D03*
X124397000Y-72597000D03*
X124897000Y-72597000D03*
X125397000Y-72597000D03*
X125897000Y-72597000D03*
X126397000Y-72597000D03*
X126897000Y-72597000D03*
X127397000Y-72597000D03*
X127897000Y-72597000D03*
X128397000Y-72597000D03*
X128897000Y-72597000D03*
X129397000Y-72597000D03*
X129897000Y-72597000D03*
X130397000Y-72597000D03*
X130897000Y-72597000D03*
X131397000Y-72597000D03*
X131897000Y-72597000D03*
X132397000Y-72597000D03*
X132897000Y-72597000D03*
X133397000Y-72597000D03*
X133897000Y-72597000D03*
X134397000Y-72597000D03*
D30*
X136097000Y-70397000D03*
X136097000Y-69897000D03*
X136097000Y-69397000D03*
X136097000Y-68897000D03*
X136097000Y-68397000D03*
X136097000Y-67897000D03*
X136097000Y-67397000D03*
X136097000Y-66897000D03*
X136097000Y-66397000D03*
X136097000Y-65897000D03*
X136097000Y-65397000D03*
X136097000Y-64897000D03*
X136097000Y-64397000D03*
X136097000Y-63897000D03*
X136097000Y-63397000D03*
X136097000Y-62897000D03*
X136097000Y-62397000D03*
X136097000Y-61897000D03*
X136097000Y-61397000D03*
X136097000Y-60897000D03*
X136097000Y-60397000D03*
X136097000Y-59897000D03*
X136097000Y-59397000D03*
X136097000Y-58897000D03*
D29*
X133897000Y-57197000D03*
X133397000Y-57197000D03*
X132897000Y-57197000D03*
X132397000Y-57197000D03*
X131897000Y-57197000D03*
X131397000Y-57197000D03*
X130897000Y-57197000D03*
X130397000Y-57197000D03*
X129897000Y-57197000D03*
X129397000Y-57197000D03*
X128897000Y-57197000D03*
X128397000Y-57197000D03*
X127897000Y-57197000D03*
X127397000Y-57197000D03*
X126897000Y-57197000D03*
X126397000Y-57197000D03*
X125897000Y-57197000D03*
X125397000Y-57197000D03*
X124897000Y-57197000D03*
X124397000Y-57197000D03*
X123897000Y-57197000D03*
X123397000Y-57197000D03*
X122897000Y-57197000D03*
X122397000Y-57197000D03*
%TD*%
D14*
%TO.C,SW36*%
X325270000Y-62738000D03*
X325270000Y-67238000D03*
X318770000Y-62738000D03*
X318770000Y-67238000D03*
%TD*%
%TO.C,SW37*%
X355600000Y-76128000D03*
X355600000Y-71628000D03*
X362100000Y-76128000D03*
X362100000Y-71628000D03*
%TD*%
%TO.C,R13*%
G36*
G01*
X169780000Y-86925999D02*
X169780000Y-87826001D01*
G75*
G02*
X169530001Y-88076000I-249999J0D01*
G01*
X168829999Y-88076000D01*
G75*
G02*
X168580000Y-87826001I0J249999D01*
G01*
X168580000Y-86925999D01*
G75*
G02*
X168829999Y-86676000I249999J0D01*
G01*
X169530001Y-86676000D01*
G75*
G02*
X169780000Y-86925999I0J-249999D01*
G01*
G37*
G36*
G01*
X171780000Y-86925999D02*
X171780000Y-87826001D01*
G75*
G02*
X171530001Y-88076000I-249999J0D01*
G01*
X170829999Y-88076000D01*
G75*
G02*
X170580000Y-87826001I0J249999D01*
G01*
X170580000Y-86925999D01*
G75*
G02*
X170829999Y-86676000I249999J0D01*
G01*
X171530001Y-86676000D01*
G75*
G02*
X171780000Y-86925999I0J-249999D01*
G01*
G37*
%TD*%
%TO.C,R14*%
G36*
G01*
X168580000Y-85794001D02*
X168580000Y-84893999D01*
G75*
G02*
X168829999Y-84644000I249999J0D01*
G01*
X169530001Y-84644000D01*
G75*
G02*
X169780000Y-84893999I0J-249999D01*
G01*
X169780000Y-85794001D01*
G75*
G02*
X169530001Y-86044000I-249999J0D01*
G01*
X168829999Y-86044000D01*
G75*
G02*
X168580000Y-85794001I0J249999D01*
G01*
G37*
G36*
G01*
X170580000Y-85794001D02*
X170580000Y-84893999D01*
G75*
G02*
X170829999Y-84644000I249999J0D01*
G01*
X171530001Y-84644000D01*
G75*
G02*
X171780000Y-84893999I0J-249999D01*
G01*
X171780000Y-85794001D01*
G75*
G02*
X171530001Y-86044000I-249999J0D01*
G01*
X170829999Y-86044000D01*
G75*
G02*
X170580000Y-85794001I0J249999D01*
G01*
G37*
%TD*%
%TO.C,U6*%
G36*
G01*
X150391000Y-91527000D02*
X150091000Y-91527000D01*
G75*
G02*
X149941000Y-91377000I0J150000D01*
G01*
X149941000Y-89627000D01*
G75*
G02*
X150091000Y-89477000I150000J0D01*
G01*
X150391000Y-89477000D01*
G75*
G02*
X150541000Y-89627000I0J-150000D01*
G01*
X150541000Y-91377000D01*
G75*
G02*
X150391000Y-91527000I-150000J0D01*
G01*
G37*
G36*
G01*
X151661000Y-91527000D02*
X151361000Y-91527000D01*
G75*
G02*
X151211000Y-91377000I0J150000D01*
G01*
X151211000Y-89627000D01*
G75*
G02*
X151361000Y-89477000I150000J0D01*
G01*
X151661000Y-89477000D01*
G75*
G02*
X151811000Y-89627000I0J-150000D01*
G01*
X151811000Y-91377000D01*
G75*
G02*
X151661000Y-91527000I-150000J0D01*
G01*
G37*
G36*
G01*
X152931000Y-91527000D02*
X152631000Y-91527000D01*
G75*
G02*
X152481000Y-91377000I0J150000D01*
G01*
X152481000Y-89627000D01*
G75*
G02*
X152631000Y-89477000I150000J0D01*
G01*
X152931000Y-89477000D01*
G75*
G02*
X153081000Y-89627000I0J-150000D01*
G01*
X153081000Y-91377000D01*
G75*
G02*
X152931000Y-91527000I-150000J0D01*
G01*
G37*
G36*
G01*
X154201000Y-91527000D02*
X153901000Y-91527000D01*
G75*
G02*
X153751000Y-91377000I0J150000D01*
G01*
X153751000Y-89627000D01*
G75*
G02*
X153901000Y-89477000I150000J0D01*
G01*
X154201000Y-89477000D01*
G75*
G02*
X154351000Y-89627000I0J-150000D01*
G01*
X154351000Y-91377000D01*
G75*
G02*
X154201000Y-91527000I-150000J0D01*
G01*
G37*
G36*
G01*
X155471000Y-91527000D02*
X155171000Y-91527000D01*
G75*
G02*
X155021000Y-91377000I0J150000D01*
G01*
X155021000Y-89627000D01*
G75*
G02*
X155171000Y-89477000I150000J0D01*
G01*
X155471000Y-89477000D01*
G75*
G02*
X155621000Y-89627000I0J-150000D01*
G01*
X155621000Y-91377000D01*
G75*
G02*
X155471000Y-91527000I-150000J0D01*
G01*
G37*
G36*
G01*
X156741000Y-91527000D02*
X156441000Y-91527000D01*
G75*
G02*
X156291000Y-91377000I0J150000D01*
G01*
X156291000Y-89627000D01*
G75*
G02*
X156441000Y-89477000I150000J0D01*
G01*
X156741000Y-89477000D01*
G75*
G02*
X156891000Y-89627000I0J-150000D01*
G01*
X156891000Y-91377000D01*
G75*
G02*
X156741000Y-91527000I-150000J0D01*
G01*
G37*
G36*
G01*
X158011000Y-91527000D02*
X157711000Y-91527000D01*
G75*
G02*
X157561000Y-91377000I0J150000D01*
G01*
X157561000Y-89627000D01*
G75*
G02*
X157711000Y-89477000I150000J0D01*
G01*
X158011000Y-89477000D01*
G75*
G02*
X158161000Y-89627000I0J-150000D01*
G01*
X158161000Y-91377000D01*
G75*
G02*
X158011000Y-91527000I-150000J0D01*
G01*
G37*
G36*
G01*
X159281000Y-91527000D02*
X158981000Y-91527000D01*
G75*
G02*
X158831000Y-91377000I0J150000D01*
G01*
X158831000Y-89627000D01*
G75*
G02*
X158981000Y-89477000I150000J0D01*
G01*
X159281000Y-89477000D01*
G75*
G02*
X159431000Y-89627000I0J-150000D01*
G01*
X159431000Y-91377000D01*
G75*
G02*
X159281000Y-91527000I-150000J0D01*
G01*
G37*
G36*
G01*
X160551000Y-91527000D02*
X160251000Y-91527000D01*
G75*
G02*
X160101000Y-91377000I0J150000D01*
G01*
X160101000Y-89627000D01*
G75*
G02*
X160251000Y-89477000I150000J0D01*
G01*
X160551000Y-89477000D01*
G75*
G02*
X160701000Y-89627000I0J-150000D01*
G01*
X160701000Y-91377000D01*
G75*
G02*
X160551000Y-91527000I-150000J0D01*
G01*
G37*
G36*
G01*
X161821000Y-91527000D02*
X161521000Y-91527000D01*
G75*
G02*
X161371000Y-91377000I0J150000D01*
G01*
X161371000Y-89627000D01*
G75*
G02*
X161521000Y-89477000I150000J0D01*
G01*
X161821000Y-89477000D01*
G75*
G02*
X161971000Y-89627000I0J-150000D01*
G01*
X161971000Y-91377000D01*
G75*
G02*
X161821000Y-91527000I-150000J0D01*
G01*
G37*
G36*
G01*
X163091000Y-91527000D02*
X162791000Y-91527000D01*
G75*
G02*
X162641000Y-91377000I0J150000D01*
G01*
X162641000Y-89627000D01*
G75*
G02*
X162791000Y-89477000I150000J0D01*
G01*
X163091000Y-89477000D01*
G75*
G02*
X163241000Y-89627000I0J-150000D01*
G01*
X163241000Y-91377000D01*
G75*
G02*
X163091000Y-91527000I-150000J0D01*
G01*
G37*
G36*
G01*
X164361000Y-91527000D02*
X164061000Y-91527000D01*
G75*
G02*
X163911000Y-91377000I0J150000D01*
G01*
X163911000Y-89627000D01*
G75*
G02*
X164061000Y-89477000I150000J0D01*
G01*
X164361000Y-89477000D01*
G75*
G02*
X164511000Y-89627000I0J-150000D01*
G01*
X164511000Y-91377000D01*
G75*
G02*
X164361000Y-91527000I-150000J0D01*
G01*
G37*
G36*
G01*
X165631000Y-91527000D02*
X165331000Y-91527000D01*
G75*
G02*
X165181000Y-91377000I0J150000D01*
G01*
X165181000Y-89627000D01*
G75*
G02*
X165331000Y-89477000I150000J0D01*
G01*
X165631000Y-89477000D01*
G75*
G02*
X165781000Y-89627000I0J-150000D01*
G01*
X165781000Y-91377000D01*
G75*
G02*
X165631000Y-91527000I-150000J0D01*
G01*
G37*
G36*
G01*
X166901000Y-91527000D02*
X166601000Y-91527000D01*
G75*
G02*
X166451000Y-91377000I0J150000D01*
G01*
X166451000Y-89627000D01*
G75*
G02*
X166601000Y-89477000I150000J0D01*
G01*
X166901000Y-89477000D01*
G75*
G02*
X167051000Y-89627000I0J-150000D01*
G01*
X167051000Y-91377000D01*
G75*
G02*
X166901000Y-91527000I-150000J0D01*
G01*
G37*
G36*
G01*
X166901000Y-82227000D02*
X166601000Y-82227000D01*
G75*
G02*
X166451000Y-82077000I0J150000D01*
G01*
X166451000Y-80327000D01*
G75*
G02*
X166601000Y-80177000I150000J0D01*
G01*
X166901000Y-80177000D01*
G75*
G02*
X167051000Y-80327000I0J-150000D01*
G01*
X167051000Y-82077000D01*
G75*
G02*
X166901000Y-82227000I-150000J0D01*
G01*
G37*
G36*
G01*
X165631000Y-82227000D02*
X165331000Y-82227000D01*
G75*
G02*
X165181000Y-82077000I0J150000D01*
G01*
X165181000Y-80327000D01*
G75*
G02*
X165331000Y-80177000I150000J0D01*
G01*
X165631000Y-80177000D01*
G75*
G02*
X165781000Y-80327000I0J-150000D01*
G01*
X165781000Y-82077000D01*
G75*
G02*
X165631000Y-82227000I-150000J0D01*
G01*
G37*
G36*
G01*
X164361000Y-82227000D02*
X164061000Y-82227000D01*
G75*
G02*
X163911000Y-82077000I0J150000D01*
G01*
X163911000Y-80327000D01*
G75*
G02*
X164061000Y-80177000I150000J0D01*
G01*
X164361000Y-80177000D01*
G75*
G02*
X164511000Y-80327000I0J-150000D01*
G01*
X164511000Y-82077000D01*
G75*
G02*
X164361000Y-82227000I-150000J0D01*
G01*
G37*
G36*
G01*
X163091000Y-82227000D02*
X162791000Y-82227000D01*
G75*
G02*
X162641000Y-82077000I0J150000D01*
G01*
X162641000Y-80327000D01*
G75*
G02*
X162791000Y-80177000I150000J0D01*
G01*
X163091000Y-80177000D01*
G75*
G02*
X163241000Y-80327000I0J-150000D01*
G01*
X163241000Y-82077000D01*
G75*
G02*
X163091000Y-82227000I-150000J0D01*
G01*
G37*
G36*
G01*
X161821000Y-82227000D02*
X161521000Y-82227000D01*
G75*
G02*
X161371000Y-82077000I0J150000D01*
G01*
X161371000Y-80327000D01*
G75*
G02*
X161521000Y-80177000I150000J0D01*
G01*
X161821000Y-80177000D01*
G75*
G02*
X161971000Y-80327000I0J-150000D01*
G01*
X161971000Y-82077000D01*
G75*
G02*
X161821000Y-82227000I-150000J0D01*
G01*
G37*
G36*
G01*
X160551000Y-82227000D02*
X160251000Y-82227000D01*
G75*
G02*
X160101000Y-82077000I0J150000D01*
G01*
X160101000Y-80327000D01*
G75*
G02*
X160251000Y-80177000I150000J0D01*
G01*
X160551000Y-80177000D01*
G75*
G02*
X160701000Y-80327000I0J-150000D01*
G01*
X160701000Y-82077000D01*
G75*
G02*
X160551000Y-82227000I-150000J0D01*
G01*
G37*
G36*
G01*
X159281000Y-82227000D02*
X158981000Y-82227000D01*
G75*
G02*
X158831000Y-82077000I0J150000D01*
G01*
X158831000Y-80327000D01*
G75*
G02*
X158981000Y-80177000I150000J0D01*
G01*
X159281000Y-80177000D01*
G75*
G02*
X159431000Y-80327000I0J-150000D01*
G01*
X159431000Y-82077000D01*
G75*
G02*
X159281000Y-82227000I-150000J0D01*
G01*
G37*
G36*
G01*
X158011000Y-82227000D02*
X157711000Y-82227000D01*
G75*
G02*
X157561000Y-82077000I0J150000D01*
G01*
X157561000Y-80327000D01*
G75*
G02*
X157711000Y-80177000I150000J0D01*
G01*
X158011000Y-80177000D01*
G75*
G02*
X158161000Y-80327000I0J-150000D01*
G01*
X158161000Y-82077000D01*
G75*
G02*
X158011000Y-82227000I-150000J0D01*
G01*
G37*
G36*
G01*
X156741000Y-82227000D02*
X156441000Y-82227000D01*
G75*
G02*
X156291000Y-82077000I0J150000D01*
G01*
X156291000Y-80327000D01*
G75*
G02*
X156441000Y-80177000I150000J0D01*
G01*
X156741000Y-80177000D01*
G75*
G02*
X156891000Y-80327000I0J-150000D01*
G01*
X156891000Y-82077000D01*
G75*
G02*
X156741000Y-82227000I-150000J0D01*
G01*
G37*
G36*
G01*
X155471000Y-82227000D02*
X155171000Y-82227000D01*
G75*
G02*
X155021000Y-82077000I0J150000D01*
G01*
X155021000Y-80327000D01*
G75*
G02*
X155171000Y-80177000I150000J0D01*
G01*
X155471000Y-80177000D01*
G75*
G02*
X155621000Y-80327000I0J-150000D01*
G01*
X155621000Y-82077000D01*
G75*
G02*
X155471000Y-82227000I-150000J0D01*
G01*
G37*
G36*
G01*
X154201000Y-82227000D02*
X153901000Y-82227000D01*
G75*
G02*
X153751000Y-82077000I0J150000D01*
G01*
X153751000Y-80327000D01*
G75*
G02*
X153901000Y-80177000I150000J0D01*
G01*
X154201000Y-80177000D01*
G75*
G02*
X154351000Y-80327000I0J-150000D01*
G01*
X154351000Y-82077000D01*
G75*
G02*
X154201000Y-82227000I-150000J0D01*
G01*
G37*
G36*
G01*
X152931000Y-82227000D02*
X152631000Y-82227000D01*
G75*
G02*
X152481000Y-82077000I0J150000D01*
G01*
X152481000Y-80327000D01*
G75*
G02*
X152631000Y-80177000I150000J0D01*
G01*
X152931000Y-80177000D01*
G75*
G02*
X153081000Y-80327000I0J-150000D01*
G01*
X153081000Y-82077000D01*
G75*
G02*
X152931000Y-82227000I-150000J0D01*
G01*
G37*
G36*
G01*
X151661000Y-82227000D02*
X151361000Y-82227000D01*
G75*
G02*
X151211000Y-82077000I0J150000D01*
G01*
X151211000Y-80327000D01*
G75*
G02*
X151361000Y-80177000I150000J0D01*
G01*
X151661000Y-80177000D01*
G75*
G02*
X151811000Y-80327000I0J-150000D01*
G01*
X151811000Y-82077000D01*
G75*
G02*
X151661000Y-82227000I-150000J0D01*
G01*
G37*
G36*
G01*
X150391000Y-82227000D02*
X150091000Y-82227000D01*
G75*
G02*
X149941000Y-82077000I0J150000D01*
G01*
X149941000Y-80327000D01*
G75*
G02*
X150091000Y-80177000I150000J0D01*
G01*
X150391000Y-80177000D01*
G75*
G02*
X150541000Y-80327000I0J-150000D01*
G01*
X150541000Y-82077000D01*
G75*
G02*
X150391000Y-82227000I-150000J0D01*
G01*
G37*
%TD*%
D31*
%TO.C,Y1*%
X106546000Y-61796000D03*
X106546000Y-64696000D03*
X108846000Y-64696000D03*
X108846000Y-61796000D03*
%TD*%
M02*
