M48
; DRILL file {KiCad (5.1.10)-1} date 10/29/21 18:14:59
; FORMAT={-:-/ absolute / inch / decimal}
; #@! TF.CreationDate,2021-10-29T18:14:59+02:00
; #@! TF.GenerationSoftware,Kicad,Pcbnew,(5.1.10)-1
; #@! TF.FileFunction,Plated,1,2,PTH
FMAT,2
INCH
T1C0.0157
T2C0.0236
T3C0.0394
T4C0.0433
T5C0.0472
T6C0.0512
T7C0.0591
T8C0.0787
T9C0.1142
T10C0.1260
%
G90
G05
T1
X0.69Y-3.78
X0.6914Y-3.9375
X0.7Y-3.7204
X0.71Y-4.3
X0.79Y-4.28
X0.82Y-4.53
X0.92Y-2.14
X0.94Y-3.05
X0.9454Y-3.8346
X0.9746Y-3.8054
X0.9816Y-4.6284
X0.99Y-4.76
X1.0419Y-4.6664
X1.06Y-2.57
X1.0711Y-4.6371
X1.11Y-2.57
X1.11Y-4.55
X1.1206Y-4.6296
X1.21Y-4.28
X1.26Y-1.6
X1.26Y-1.64
X1.26Y-4.44
X1.26Y-4.89
X1.3Y-4.74
X1.38Y-1.7
X1.38Y-3.54
X1.38Y-3.59
X1.38Y-3.64
X1.44Y-2.09
X1.52Y-3.95
X1.6Y-4.12
X1.76Y-3.54
X1.76Y-3.59
X1.79Y-1.71
X2.02Y-3.64
X2.02Y-3.69
X2.13Y-2.79
X2.15Y-3.62
X2.4709Y-3.6484
X2.65Y-4.07
X2.78Y-2.09
X2.83Y-2.25
X2.95Y-2.25
X2.99Y-2.7
X3.05Y-3.7219
X3.05Y-3.7613
X3.05Y-3.8006
X3.05Y-3.84
X3.09Y-2.7
X3.14Y-3.23
X3.1415Y-3.18
X3.17Y-2.22
X3.22Y-2.22
X3.27Y-2.22
X3.33Y-2.22
X3.37Y-2.69
X3.3702Y-2.2202
X3.41Y-2.69
X3.4102Y-2.2206
X3.45Y-1.72
X3.49Y-1.72
X3.52Y-2.47
X3.5357Y-2.8557
X3.55Y-2.5
X3.56Y-2.01
X3.59Y-1.66
X3.62Y-2.01
X3.63Y-2.89
X3.78Y-3.57
X3.8Y-3.72
X3.92Y-3.03
X4.0081Y-1.7681
X4.1565Y-3.8665
X4.26Y-2.04
X4.26Y-2.08
X4.2799Y-1.9693
X4.2837Y-2.0085
X4.3115Y-3.7115
X4.36Y-3.63
X4.38Y-2.73
X4.4Y-2.8272
X4.44Y-2.1615
X4.47Y-2.64
X4.48Y-1.92
X4.4802Y-2.1202
X4.51Y-3.0
X4.5204Y-2.9104
X4.5219Y-1.7681
X4.5235Y-2.6901
X4.5324Y-2.9512
X4.55Y-2.26
X4.55Y-2.64
X4.56Y-2.5
X4.6Y-1.7248
X4.6Y-3.67
X4.6Y-3.71
X4.63Y-2.14
X4.65Y-1.84
X4.65Y-3.73
X4.67Y-2.31
X4.7Y-1.6677
X4.7098Y-3.4398
X4.75Y-3.44
X4.7502Y-3.4802
X4.7785Y-2.95
X4.78Y-2.86
X4.81Y-2.43
X4.8142Y-2.9666
X4.8434Y-2.9931
X4.8519Y-1.7681
X4.8719Y-3.0211
X4.9005Y-3.05
X4.91Y-2.68
X4.9165Y-2.2027
X4.9402Y-2.3098
X4.96Y-2.68
X4.9815Y-2.03
X4.99Y-3.01
X4.99Y-3.44
X4.993Y-2.3315
X5.0036Y-2.8051
X5.02Y-2.74
X5.0294Y-3.01
X5.0323Y-2.3299
X5.04Y-2.79
X5.07Y-3.01
X5.0722Y-2.3305
X5.08Y-3.49
X5.11Y-3.01
X5.1385Y-1.7681
X5.14Y-2.35
X5.15Y-1.99
X5.16Y-2.4
X5.1687Y-2.6687
X5.17Y-3.14
X5.2Y-2.72
X5.2Y-3.01
X5.25Y-2.01
X5.25Y-2.1435
X5.25Y-2.39
X5.27Y-2.77
X5.28Y-2.19
X5.29Y-2.01
X5.2926Y-2.307
X5.3Y-5.12
X5.3001Y-2.6839
X5.32Y-5.06
X5.325Y-2.115
X5.33Y-3.74
X5.34Y-5.02
X5.36Y-2.93
X5.37Y-4.98
X5.42Y-2.34
X5.49Y-1.96
X5.49Y-2.7
X5.4998Y-3.1302
X5.5Y-3.01
X5.5Y-3.0494
X5.5Y-3.09
X5.64Y-2.82
X5.7Y-4.85
X5.7Y-4.94
X5.7002Y-4.8998
X5.74Y-4.82
X6.11Y-3.64
X6.17Y-3.64
X6.17Y-3.98
X6.21Y-3.64
X6.21Y-4.05
X6.27Y-3.64
X6.27Y-3.94
X6.3795Y-3.6205
X6.4323Y-3.49
X6.47Y-3.4
X6.74Y-3.27
X6.74Y-3.49
X6.79Y-3.3482
X7.02Y-3.77
X7.59Y-3.13
X8.24Y-3.11
X9.87Y-2.37
X9.97Y-3.89
X10.25Y-2.1
X10.82Y-3.32
X10.82Y-3.38
X11.84Y-4.61
X11.9Y-4.44
X11.9Y-4.61
X11.92Y-4.35
X11.98Y-4.3785
X11.99Y-3.94
X11.99Y-4.0
X11.99Y-4.05
X11.99Y-4.09
X12.0Y-4.86
X12.17Y-4.14
X12.17Y-4.2
X12.17Y-4.24
X12.17Y-4.3
X12.18Y-4.35
X12.23Y-4.59
X12.58Y-3.94
X12.58Y-4.0
X12.58Y-4.09
X12.59Y-4.04
X13.15Y-4.58
X13.18Y-4.42
X13.31Y-4.42
X13.33Y-4.34
X13.4Y-3.94
X13.4Y-3.99
X13.4Y-4.05
X13.4Y-4.11
X13.46Y-4.4
X13.61Y-4.14
X13.61Y-4.19
X13.61Y-4.24
X13.61Y-4.29
X13.99Y-4.45
X14.03Y-3.94
X14.03Y-3.99
X14.03Y-4.04
X14.03Y-4.09
T3
X0.57Y-2.34
X0.57Y-2.44
X0.57Y-2.54
X0.57Y-2.64
X0.57Y-2.74
X0.57Y-2.84
X0.57Y-2.94
X0.57Y-3.04
X0.57Y-3.14
X0.57Y-3.24
X0.67Y-2.34
X0.67Y-2.44
X0.67Y-2.54
X0.67Y-2.64
X0.67Y-2.74
X0.67Y-2.84
X0.67Y-2.94
X0.67Y-3.04
X0.67Y-3.14
X0.67Y-3.24
X2.79Y-2.4
X2.79Y-2.5
X2.79Y-2.6
X2.79Y-2.7
X2.79Y-2.8
X2.79Y-2.9
X2.79Y-3.0
X2.79Y-3.1
X2.79Y-3.2
X2.79Y-3.3
X2.79Y-3.4
X2.89Y-2.4
X2.89Y-2.5
X2.89Y-2.6
X2.89Y-2.7
X2.89Y-2.8
X2.89Y-2.9
X2.89Y-3.0
X2.89Y-3.1
X2.89Y-3.2
X2.89Y-3.3
X2.89Y-3.4
X3.95Y-1.65
X4.05Y-1.65
X4.15Y-1.65
X4.25Y-1.65
X4.35Y-1.65
X4.45Y-1.65
X4.81Y-1.64
X4.91Y-1.64
X5.01Y-1.64
X5.11Y-1.64
X5.21Y-1.64
X5.31Y-1.64
X10.83Y-2.59
X10.83Y-2.6884
X10.83Y-2.7869
X11.4009Y-2.59
X11.4009Y-2.7869
T4
X0.5575Y-1.84
X0.5575Y-2.0172
X0.8134Y-1.84
X0.8134Y-2.0172
X1.34Y-2.4
X1.34Y-2.5772
X1.34Y-2.77
X1.34Y-2.9472
X1.34Y-3.15
X1.34Y-3.3272
X1.5959Y-2.4
X1.5959Y-2.5772
X1.5959Y-2.77
X1.5959Y-2.9472
X1.5959Y-3.15
X1.5959Y-3.3272
X1.78Y-2.4
X1.78Y-2.5772
X1.78Y-2.77
X1.78Y-2.9472
X2.0359Y-2.4
X2.0359Y-2.5772
X2.0359Y-2.77
X2.0359Y-2.9472
X2.22Y-2.4
X2.22Y-2.5772
X2.22Y-2.77
X2.22Y-2.9472
X2.4759Y-2.4
X2.4759Y-2.5772
X2.4759Y-2.77
X2.4759Y-2.9472
X3.06Y-4.03
X3.06Y-4.2072
X3.3159Y-4.03
X3.3159Y-4.2072
X3.6967Y-4.03
X3.6967Y-4.2072
X3.9526Y-4.03
X3.9526Y-4.2072
X4.3857Y-4.03
X4.3857Y-4.2072
X4.6416Y-4.03
X4.6416Y-4.2072
X5.0748Y-4.03
X5.0748Y-4.2072
X5.3307Y-4.03
X5.3307Y-4.2072
X5.7638Y-4.03
X5.7638Y-4.2072
X6.0197Y-4.03
X6.0197Y-4.2072
X6.4529Y-4.03
X6.4529Y-4.2072
X6.7088Y-4.03
X6.7088Y-4.2072
X7.1419Y-4.03
X7.1419Y-4.2072
X7.3978Y-4.03
X7.3978Y-4.2072
X7.831Y-4.03
X7.831Y-4.2072
X8.0869Y-4.03
X8.0869Y-4.2072
X8.52Y-4.025
X8.52Y-4.2022
X8.7759Y-4.025
X8.7759Y-4.2022
X9.155Y-4.025
X9.155Y-4.2022
X9.4109Y-4.025
X9.4109Y-4.2022
X11.73Y-2.47
X11.73Y-2.6472
X11.73Y-2.82
X11.73Y-2.9972
X11.73Y-3.17
X11.73Y-3.3472
X11.73Y-3.52
X11.73Y-3.6972
X11.9859Y-2.47
X11.9859Y-2.6472
X11.9859Y-2.82
X11.9859Y-2.9972
X11.9859Y-3.17
X11.9859Y-3.3472
X11.9859Y-3.52
X11.9859Y-3.6972
X12.14Y-2.47
X12.14Y-2.6472
X12.14Y-2.82
X12.14Y-2.9972
X12.14Y-3.17
X12.14Y-3.3472
X12.14Y-3.52
X12.14Y-3.6972
X12.3959Y-2.47
X12.3959Y-2.6472
X12.3959Y-2.82
X12.3959Y-2.9972
X12.3959Y-3.17
X12.3959Y-3.3472
X12.3959Y-3.52
X12.3959Y-3.6972
X12.55Y-2.47
X12.55Y-2.6472
X12.55Y-2.82
X12.55Y-2.9972
X12.55Y-3.17
X12.55Y-3.3472
X12.55Y-3.52
X12.55Y-3.6972
X12.8059Y-2.47
X12.8059Y-2.6472
X12.8059Y-2.82
X12.8059Y-2.9972
X12.8059Y-3.17
X12.8059Y-3.3472
X12.8059Y-3.52
X12.8059Y-3.6972
X13.18Y-2.47
X13.18Y-2.6472
X13.18Y-2.82
X13.18Y-2.9972
X13.18Y-3.17
X13.18Y-3.3472
X13.18Y-3.52
X13.18Y-3.6972
X13.4359Y-2.47
X13.4359Y-2.6472
X13.4359Y-2.82
X13.4359Y-2.9972
X13.4359Y-3.17
X13.4359Y-3.3472
X13.4359Y-3.52
X13.4359Y-3.6972
X13.59Y-2.47
X13.59Y-2.6472
X13.59Y-2.82
X13.59Y-2.9972
X13.59Y-3.17
X13.59Y-3.3472
X13.59Y-3.52
X13.59Y-3.6972
X13.8459Y-2.47
X13.8459Y-2.6472
X13.8459Y-2.82
X13.8459Y-2.9972
X13.8459Y-3.17
X13.8459Y-3.3472
X13.8459Y-3.52
X13.8459Y-3.6972
X14.0Y-2.47
X14.0Y-2.6472
X14.0Y-2.82
X14.0Y-2.9972
X14.0Y-3.17
X14.0Y-3.3472
X14.0Y-3.52
X14.0Y-3.6972
X14.2559Y-2.47
X14.2559Y-2.6472
X14.2559Y-2.82
X14.2559Y-2.9972
X14.2559Y-3.17
X14.2559Y-3.3472
X14.2559Y-3.52
X14.2559Y-3.6972
T5
X2.0175Y-3.8675
X2.2144Y-3.8675
X2.4112Y-3.8675
X3.7662Y-5.115
X3.9631Y-5.115
X4.1599Y-5.115
X4.67Y-5.115
X4.8668Y-5.115
X5.0637Y-5.115
X5.5737Y-5.115
X5.7706Y-5.115
X5.9674Y-5.115
X6.4775Y-5.115
X6.6743Y-5.115
X6.8712Y-5.115
X7.3812Y-5.115
X7.5781Y-5.115
X7.7749Y-5.115
X8.285Y-5.115
X8.4819Y-5.115
X8.6787Y-5.115
T6
X1.2125Y-1.9456
X1.2125Y-2.1425
X1.6062Y-2.0441
X1.8Y-1.9456
X1.8Y-2.1425
X2.1937Y-2.0441
T7
X10.1024Y-4.03
X10.25Y-2.652
X10.25Y-4.03
T8
X10.1762Y-2.9473
X10.1762Y-3.8331
T9
X1.9407Y-3.4541
X2.488Y-3.4541
X3.6895Y-4.7016
X4.2367Y-4.7016
X4.5932Y-4.7016
X5.1405Y-4.7016
X5.497Y-4.7016
X6.0442Y-4.7016
X6.4007Y-4.7016
X6.948Y-4.7016
X7.3045Y-4.7016
X7.8517Y-4.7016
X8.2082Y-4.7016
X8.7555Y-4.7016
T10
X0.44Y-1.47
X0.44Y-5.26
X14.48Y-1.47
X14.48Y-5.25
T2
G00X0.6057Y-3.6099
M15
G01X0.5743Y-3.6099
M16
G05
G00X0.6057Y-3.9501
M15
G01X0.5743Y-3.9501
M16
G05
G00X0.7762Y-3.6099
M15
G01X0.7329Y-3.6099
M16
G05
G00X0.7762Y-3.9501
M15
G01X0.7329Y-3.9501
M16
G05
T7
G00X11.0997Y-2.468
M15
G01X11.1509Y-2.468
M16
G05
G00X11.0997Y-2.9089
M15
G01X11.1509Y-2.9089
M16
G05
T0
M30
